<svg version="1.1" viewBox="0.0 0.0 1011.0 401.0" fill="none" stroke="none" stroke-linecap="square" stroke-miterlimit="10" width="1011" height="401" xmlns:xlink="http://www.w3.org/1999/xlink" xmlns="http://www.w3.org/2000/svg"><path fill="#ffffff" d="M0 0L1011.0 0L1011.0 401.0L0 401.0L0 0Z" fill-rule="nonzero"/><path stroke="#333333" stroke-width="1.0" stroke-linecap="butt" d="M79.5 328.5L990.5 328.5" fill-rule="nonzero"/><path stroke="#cccccc" stroke-width="1.0" stroke-linecap="butt" d="M79.5 276.5L990.5 276.5" fill-rule="nonzero"/><path stroke="#cccccc" stroke-width="1.0" stroke-linecap="butt" d="M79.5 223.5L990.5 223.5" fill-rule="nonzero"/><path stroke="#cccccc" stroke-width="1.0" stroke-linecap="butt" d="M79.5 170.5L990.5 170.5" fill-rule="nonzero"/><path stroke="#cccccc" stroke-width="1.0" stroke-linecap="butt" d="M79.5 117.5L990.5 117.5" fill-rule="nonzero"/><path stroke="#cccccc" stroke-width="1.0" stroke-linecap="butt" d="M79.5 64.5L990.5 64.5" fill-rule="nonzero"/><clipPath id="id_0"><path d="M79.05 64.416664L990.95 64.416664L990.95 328.95L79.05 328.95L79.05 64.416664Z" clip-rule="nonzero"/></clipPath><path stroke="#000000" stroke-width="2.0" stroke-linecap="butt" stroke-opacity="0.0" clip-path="url(#id_0)" d="M153.0 329.0L105.0 329.0L105.0 172.0C105.0 170.89543 105.89543 170.0 107.0 170.0L151.0 170.0C152.10457 170.0 153.0 170.89543 153.0 172.0Z" fill-rule="nonzero"/><path fill="#3b82f6" clip-path="url(#id_0)" d="M153.0 329.0L105.0 329.0L105.0 172.0C105.0 170.89543 105.89543 170.0 107.0 170.0L151.0 170.0C152.10457 170.0 153.0 170.89543 153.0 172.0Z" fill-rule="nonzero"/><path stroke="#000000" stroke-width="2.0" stroke-linecap="butt" stroke-opacity="0.0" clip-path="url(#id_0)" d="M227.0 329.0L179.0 329.0L179.0 225.0C179.0 223.89543 179.89543 223.0 181.0 223.0L225.0 223.0C226.10457 223.0 227.0 223.89543 227.0 225.0Z" fill-rule="nonzero"/><path fill="#3b82f6" clip-path="url(#id_0)" d="M227.0 329.0L179.0 329.0L179.0 225.0C179.0 223.89543 179.89543 223.0 181.0 223.0L225.0 223.0C226.10457 223.0 227.0 223.89543 227.0 225.0Z" fill-rule="nonzero"/><path stroke="#000000" stroke-width="2.0" stroke-linecap="butt" stroke-opacity="0.0" clip-path="url(#id_0)" d="M301.0 329.0L253.0 329.0L253.0 140.0C253.0 138.89543 253.89543 138.0 255.0 138.0L299.0 138.0C300.10458 138.0 301.0 138.89543 301.0 140.0Z" fill-rule="nonzero"/><path fill="#3b82f6" clip-path="url(#id_0)" d="M301.0 329.0L253.0 329.0L253.0 140.0C253.0 138.89543 253.89543 138.0 255.0 138.0L299.0 138.0C300.10458 138.0 301.0 138.89543 301.0 140.0Z" fill-rule="nonzero"/><path stroke="#000000" stroke-width="2.0" stroke-linecap="butt" stroke-opacity="0.0" clip-path="url(#id_0)" d="M374.0 329.0L326.0 329.0L326.0 193.0C326.0 191.89543 326.89542 191.0 328.0 191.0L372.0 191.0C373.10458 191.0 374.0 191.89543 374.0 193.0Z" fill-rule="nonzero"/><path fill="#3b82f6" clip-path="url(#id_0)" d="M374.0 329.0L326.0 329.0L326.0 193.0C326.0 191.89543 326.89542 191.0 328.0 191.0L372.0 191.0C373.10458 191.0 374.0 191.89543 374.0 193.0Z" fill-rule="nonzero"/><path stroke="#000000" stroke-width="2.0" stroke-linecap="butt" stroke-opacity="0.0" clip-path="url(#id_0)" d="M448.0 329.0L400.0 329.0L400.0 204.0C400.0 202.89543 400.89542 202.0 402.0 202.0L446.0 202.0C447.10458 202.0 448.0 202.89543 448.0 204.0Z" fill-rule="nonzero"/><path fill="#3b82f6" clip-path="url(#id_0)" d="M448.0 329.0L400.0 329.0L400.0 204.0C400.0 202.89543 400.89542 202.0 402.0 202.0L446.0 202.0C447.10458 202.0 448.0 202.89543 448.0 204.0Z" fill-rule="nonzero"/><path stroke="#000000" stroke-width="2.0" stroke-linecap="butt" stroke-opacity="0.0" clip-path="url(#id_0)" d="M522.0 329.0L474.0 329.0L474.0 225.0C474.0 223.89543 474.89542 223.0 476.0 223.0L520.0 223.0C521.10455 223.0 522.0 223.89543 522.0 225.0Z" fill-rule="nonzero"/><path fill="#3b82f6" clip-path="url(#id_0)" d="M522.0 329.0L474.0 329.0L474.0 225.0C474.0 223.89543 474.89542 223.0 476.0 223.0L520.0 223.0C521.10455 223.0 522.0 223.89543 522.0 225.0Z" fill-rule="nonzero"/><path stroke="#000000" stroke-width="2.0" stroke-linecap="butt" stroke-opacity="0.0" clip-path="url(#id_0)" d="M596.0 329.0L548.0 329.0L548.0 98.0C548.0 96.89543 548.89545 96.0 550.0 96.0L594.0 96.0C595.10455 96.0 596.0 96.89543 596.0 98.0Z" fill-rule="nonzero"/><path fill="#3b82f6" clip-path="url(#id_0)" d="M596.0 329.0L548.0 329.0L548.0 98.0C548.0 96.89543 548.89545 96.0 550.0 96.0L594.0 96.0C595.10455 96.0 596.0 96.89543 596.0 98.0Z" fill-rule="nonzero"/><path stroke="#000000" stroke-width="2.0" stroke-linecap="butt" stroke-opacity="0.0" clip-path="url(#id_0)" d="M670.0 329.0L622.0 329.0L622.0 140.0C622.0 138.89543 622.89545 138.0 624.0 138.0L668.0 138.0C669.10455 138.0 670.0 138.89543 670.0 140.0Z" fill-rule="nonzero"/><path fill="#3b82f6" clip-path="url(#id_0)" d="M670.0 329.0L622.0 329.0L622.0 140.0C622.0 138.89543 622.89545 138.0 624.0 138.0L668.0 138.0C669.10455 138.0 670.0 138.89543 670.0 140.0Z" fill-rule="nonzero"/><path stroke="#000000" stroke-width="2.0" stroke-linecap="butt" stroke-opacity="0.0" clip-path="url(#id_0)" d="M744.0 329.0L696.0 329.0L696.0 77.0C696.0 75.89543 696.89545 75.0 698.0 75.0L742.0 75.0C743.10455 75.0 744.0 75.89543 744.0 77.0Z" fill-rule="nonzero"/><path fill="#3b82f6" clip-path="url(#id_0)" d="M744.0 329.0L696.0 329.0L696.0 77.0C696.0 75.89543 696.89545 75.0 698.0 75.0L742.0 75.0C743.10455 75.0 744.0 75.89543 744.0 77.0Z" fill-rule="nonzero"/><path stroke="#000000" stroke-width="2.0" stroke-linecap="butt" stroke-opacity="0.0" clip-path="url(#id_0)" d="M817.0 329.0L769.0 329.0L769.0 140.0C769.0 138.89543 769.89545 138.0 771.0 138.0L815.0 138.0C816.10455 138.0 817.0 138.89543 817.0 140.0Z" fill-rule="nonzero"/><path fill="#3b82f6" clip-path="url(#id_0)" d="M817.0 329.0L769.0 329.0L769.0 140.0C769.0 138.89543 769.89545 138.0 771.0 138.0L815.0 138.0C816.10455 138.0 817.0 138.89543 817.0 140.0Z" fill-rule="nonzero"/><path stroke="#000000" stroke-width="2.0" stroke-linecap="butt" stroke-opacity="0.0" clip-path="url(#id_0)" d="M891.0 329.0L843.0 329.0L843.0 109.0C843.0 107.89543 843.89545 107.0 845.0 107.0L889.0 107.0C890.10455 107.0 891.0 107.89543 891.0 109.0Z" fill-rule="nonzero"/><path fill="#3b82f6" clip-path="url(#id_0)" d="M891.0 329.0L843.0 329.0L843.0 109.0C843.0 107.89543 843.89545 107.0 845.0 107.0L889.0 107.0C890.10455 107.0 891.0 107.89543 891.0 109.0Z" fill-rule="nonzero"/><path stroke="#000000" stroke-width="2.0" stroke-linecap="butt" stroke-opacity="0.0" clip-path="url(#id_0)" d="M965.0 329.0L917.0 329.0L917.0 225.0C917.0 223.89543 917.89545 223.0 919.0 223.0L963.0 223.0C964.10455 223.0 965.0 223.89543 965.0 225.0Z" fill-rule="nonzero"/><path fill="#3b82f6" clip-path="url(#id_0)" d="M965.0 329.0L917.0 329.0L917.0 225.0C917.0 223.89543 917.89545 223.0 919.0 223.0L963.0 223.0C964.10455 223.0 965.0 223.89543 965.0 225.0Z" fill-rule="nonzero"/><path fill="#000000" d="M519.3906 377.95L519.3906 369.35626L521.1094 369.35626L523.1406 375.4344Q523.4219 376.29376 523.5469 376.71564Q523.6875 376.2469 524.0 375.34064L526.0625 369.35626L527.59375 369.35626L527.59375 377.95L526.5 377.95L526.5 370.7625L524.0 377.95L522.96875 377.95L520.4844 370.6375L520.4844 377.95L519.3906 377.95ZM527.90625 374.84064Q527.90625 373.10626 528.8594 372.27814Q529.65625 371.59064 530.8125 371.59064Q532.09375 371.59064 532.90625 372.4344Q533.7344 373.2625 533.7344 374.7469Q533.7344 375.95 533.375 376.6375Q533.0156 377.325 532.3125 377.71564Q531.625 378.09064 530.8125 378.09064Q529.5156 378.09064 528.7031 377.2625Q527.90625 376.41876 527.90625 374.84064ZM528.9844 374.84064Q528.9844 376.02814 529.5 376.6219Q530.03125 377.21564 530.8125 377.21564Q531.6094 377.21564 532.125 376.6219Q532.6406 376.02814 532.6406 374.8094Q532.6406 373.65314 532.1094 373.0594Q531.59375 372.46564 530.8125 372.46564Q530.03125 372.46564 529.5 373.0594Q528.9844 373.6375 528.9844 374.84064ZM535.2969 377.95L535.2969 371.73126L536.2344 371.73126L536.2344 372.60626Q536.9219 371.59064 538.21875 371.59064Q538.78125 371.59064 539.25 371.79376Q539.7344 371.9969 539.96875 372.325Q540.2031 372.65314 540.2969 373.09064Q540.34375 373.3875 540.34375 374.1219L540.34375 377.95L539.2969 377.95L539.2969 374.16876Q539.2969 373.5125 539.1719 373.2Q539.0469 372.8875 538.7344 372.7Q538.4219 372.4969 538.0 372.4969Q537.3281 372.4969 536.8281 372.9344Q536.34375 373.35626 536.34375 374.54376L536.34375 377.95L535.2969 377.95ZM544.59375 377.0125L544.75 377.9344Q544.2969 378.02814 543.9531 378.02814Q543.375 378.02814 543.0625 377.85626Q542.75 377.66876 542.6094 377.3719Q542.4844 377.075 542.4844 376.1219L542.4844 372.54376L541.71875 372.54376L541.71875 371.73126L542.4844 371.73126L542.4844 370.1844L543.53125 369.5594L543.53125 371.73126L544.59375 371.73126L544.59375 372.54376L543.53125 372.54376L543.53125 376.1844Q543.53125 376.6375 543.5781 376.7625Q543.6406 376.8875 543.7656 376.96564Q543.8906 377.04376 544.125 377.04376Q544.3125 377.04376 544.59375 377.0125ZM545.2969 377.95L545.2969 369.35626L546.34375 369.35626L546.34375 372.4344Q547.0781 371.59064 548.2031 371.59064Q548.90625 371.59064 549.40625 371.8719Q549.9219 372.1375 550.1406 372.6219Q550.3594 373.09064 550.3594 374.0125L550.3594 377.95L549.3125 377.95L549.3125 374.0125Q549.3125 373.21564 548.96875 372.85626Q548.625 372.4969 548.0 372.4969Q547.53125 372.4969 547.1094 372.7469Q546.7031 372.98126 546.5156 373.40314Q546.34375 373.8094 546.34375 374.54376L546.34375 377.95L545.2969 377.95Z" fill-rule="nonzero"/><path fill="#000000" d="M31.050013 214.80833L22.456263 218.13646L22.456263 216.90208L28.706263 214.66771Q29.456263 214.40208 30.112513 214.21458Q29.409388 214.01146 28.706263 213.74583L22.456263 211.43333L22.456263 210.27708L31.050013 213.63646L31.050013 214.80833ZM23.675013 210.38646L22.456263 210.38646L22.456263 209.32396L23.675013 209.32396L23.675013 210.38646ZM31.050013 210.38646L24.831263 210.38646L24.831263 209.32396L31.050013 209.32396L31.050013 210.38646ZM29.190638 207.80833L29.034388 206.77708Q29.659388 206.68333 29.987513 206.29271Q30.315638 205.88646 30.315638 205.15208Q30.315638 204.43333 30.034388 204.08958Q29.737513 203.73021 29.331263 203.73021Q28.971888 203.73021 28.768763 204.04271Q28.628138 204.26146 28.409388 205.12083Q28.112513 206.27708 27.909388 206.73021Q27.690638 207.16771 27.315638 207.40208Q26.940638 207.63646 26.471888 207.63646Q26.065638 207.63646 25.706263 207.44896Q25.346888 207.26146 25.112513 206.93333Q24.940638 206.68333 24.815638 206.26146Q24.690638 205.83958 24.690638 205.33958Q24.690638 204.62083 24.909388 204.07396Q25.112513 203.51146 25.471888 203.24583Q25.831263 202.98021 26.425013 202.88646L26.565638 203.91771Q26.096888 203.98021 25.831263 204.32396Q25.550013 204.65208 25.550013 205.27708Q25.550013 205.99583 25.800013 206.30833Q26.034388 206.62083 26.362513 206.62083Q26.565638 206.62083 26.721888 206.49583Q26.893763 206.35521 27.003138 206.08958Q27.065638 205.93333 27.268763 205.15208Q27.581263 204.02708 27.768763 203.58958Q27.956263 203.15208 28.315638 202.90208Q28.675013 202.65208 29.221888 202.65208Q29.753138 202.65208 30.221888 202.96458Q30.675013 203.26146 30.940638 203.83958Q31.190638 204.41771 31.190638 205.15208Q31.190638 206.37083 30.690638 207.01146Q30.175013 207.63646 29.190638 207.80833ZM23.675013 200.38646L22.456263 200.38646L22.456263 199.32396L23.675013 199.32396L23.675013 200.38646ZM31.050013 200.38646L24.831263 200.38646L24.831263 199.32396L31.050013 199.32396L31.050013 200.38646ZM30.112513 195.08958L31.034388 194.93333Q31.128138 195.38646 31.128138 195.73021Q31.128138 196.30833 30.956263 196.62083Q30.768763 196.93333 30.471888 197.07396Q30.175013 197.19896 29.221888 197.19896L25.643763 197.19896L25.643763 197.96458L24.831263 197.96458L24.831263 197.19896L23.284388 197.19896L22.659388 196.15208L24.831263 196.15208L24.831263 195.08958L25.643763 195.08958L25.643763 196.15208L29.284388 196.15208Q29.737513 196.15208 29.862513 196.10521Q29.987513 196.04271 30.065638 195.91771Q30.143763 195.79271 30.143763 195.55833Q30.143763 195.37083 30.112513 195.08958ZM29.190638 194.80833L29.034388 193.77708Q29.659388 193.68333 29.987513 193.29271Q30.315638 192.88646 30.315638 192.15208Q30.315638 191.43333 30.034388 191.08958Q29.737513 190.73021 29.331263 190.73021Q28.971888 190.73021 28.768763 191.04271Q28.628138 191.26146 28.409388 192.12083Q28.112513 193.27708 27.909388 193.73021Q27.690638 194.16771 27.315638 194.40208Q26.940638 194.63646 26.471888 194.63646Q26.065638 194.63646 25.706263 194.44896Q25.346888 194.26146 25.112513 193.93333Q24.940638 193.68333 24.815638 193.26146Q24.690638 192.83958 24.690638 192.33958Q24.690638 191.62083 24.909388 191.07396Q25.112513 190.51146 25.471888 190.24583Q25.831263 189.98021 26.425013 189.88646L26.565638 190.91771Q26.096888 190.98021 25.831263 191.32396Q25.550013 191.65208 25.550013 192.27708Q25.550013 192.99583 25.800013 193.30833Q26.034388 193.62083 26.362513 193.62083Q26.565638 193.62083 26.721888 193.49583Q26.893763 193.35521 27.003138 193.08958Q27.065638 192.93333 27.268763 192.15208Q27.581263 191.02708 27.768763 190.58958Q27.956263 190.15208 28.315638 189.90208Q28.675013 189.65208 29.221888 189.65208Q29.753138 189.65208 30.221888 189.96458Q30.675013 190.26146 30.940638 190.83958Q31.190638 191.41771 31.190638 192.15208Q31.190638 193.37083 30.690638 194.01146Q30.175013 194.63646 29.190638 194.80833Z" fill-rule="nonzero"/><path fill="#000000" d="M66.55 328.71564Q66.55 327.1844 66.8625 326.2625Q67.175 325.325 67.78438 324.825Q68.40938 324.325 69.34688 324.325Q70.03438 324.325 70.55 324.60626Q71.08125 324.8875 71.425 325.41876Q71.76875 325.9344 71.95625 326.6844Q72.14375 327.4344 72.14375 328.71564Q72.14375 330.23126 71.83125 331.15314Q71.53438 332.075 70.90938 332.59064Q70.3 333.09064 69.34688 333.09064Q68.1125 333.09064 67.39375 332.2Q66.55 331.1375 66.55 328.71564ZM67.62813 328.71564Q67.62813 330.825 68.12813 331.52814Q68.62813 332.23126 69.34688 332.23126Q70.08125 332.23126 70.56563 331.52814Q71.06563 330.825 71.06563 328.71564Q71.06563 326.59064 70.56563 325.90314Q70.08125 325.2 69.33125 325.2Q68.6125 325.2 68.175 325.8094Q67.62813 326.59064 67.62813 328.71564Z" fill-rule="nonzero"/><path fill="#000000" d="M66.55 277.79333L67.65938 277.6996Q67.78438 278.5121 68.22188 278.91833Q68.675 279.3246 69.31563 279.3246Q70.06563 279.3246 70.59688 278.74646Q71.12813 278.16833 71.12813 277.23083Q71.12813 276.3246 70.6125 275.80896Q70.1125 275.2777 69.28438 275.2777Q68.78438 275.2777 68.3625 275.5121Q67.95625 275.74646 67.72188 276.10583L66.7375 275.98083L67.56563 271.5746L71.84688 271.5746L71.84688 272.5746L68.40938 272.5746L67.95625 274.8871Q68.72188 274.3402 69.56563 274.3402Q70.69063 274.3402 71.45625 275.12146Q72.2375 275.9027 72.2375 277.1371Q72.2375 278.29333 71.56563 279.1527Q70.7375 280.18396 69.31563 280.18396Q68.14375 280.18396 67.39375 279.5277Q66.65938 278.87146 66.55 277.79333Z" fill-rule="nonzero"/><path fill="#000000" d="M63.51875 227.13667L62.471874 227.13667L62.471874 220.41792Q62.08125 220.7773 61.45625 221.1523Q60.846874 221.51167 60.3625 221.68355L60.3625 220.66792Q61.2375 220.24605 61.89375 219.66792Q62.565624 219.07417 62.846874 218.51167L63.51875 218.51167L63.51875 227.13667ZM66.55 222.9023Q66.55 221.37105 66.8625 220.44917Q67.175 219.51167 67.78438 219.01167Q68.40938 218.51167 69.34688 218.51167Q70.03438 218.51167 70.55 218.79292Q71.08125 219.07417 71.425 219.60542Q71.76875 220.12105 71.95625 220.87105Q72.14375 221.62105 72.14375 222.9023Q72.14375 224.41792 71.83125 225.3398Q71.53438 226.26167 70.90938 226.7773Q70.3 227.2773 69.34688 227.2773Q68.1125 227.2773 67.39375 226.38667Q66.55 225.32417 66.55 222.9023ZM67.62813 222.9023Q67.62813 225.01167 68.12813 225.7148Q68.62813 226.41792 69.34688 226.41792Q70.08125 226.41792 70.56563 225.7148Q71.06563 225.01167 71.06563 222.9023Q71.06563 220.7773 70.56563 220.0898Q70.08125 219.38667 69.33125 219.38667Q68.6125 219.38667 68.175 219.99605Q67.62813 220.7773 67.62813 222.9023Z" fill-rule="nonzero"/><path fill="#000000" d="M63.51875 174.23L62.471874 174.23L62.471874 167.51125Q62.08125 167.87062 61.45625 168.24562Q60.846874 168.605 60.3625 168.77687L60.3625 167.76125Q61.2375 167.33937 61.89375 166.76125Q62.565624 166.1675 62.846874 165.605L63.51875 165.605L63.51875 174.23ZM66.55 171.98L67.65938 171.88625Q67.78438 172.69875 68.22188 173.105Q68.675 173.51125 69.31563 173.51125Q70.06563 173.51125 70.59688 172.93312Q71.12813 172.355 71.12813 171.4175Q71.12813 170.51125 70.6125 169.99562Q70.1125 169.46437 69.28438 169.46437Q68.78438 169.46437 68.3625 169.69875Q67.95625 169.93312 67.72188 170.2925L66.7375 170.1675L67.56563 165.76125L71.84688 165.76125L71.84688 166.76125L68.40938 166.76125L67.95625 169.07375Q68.72188 168.52687 69.56563 168.52687Q70.69063 168.52687 71.45625 169.30812Q72.2375 170.08937 72.2375 171.32375Q72.2375 172.48 71.56563 173.33937Q70.7375 174.37062 69.31563 174.37062Q68.14375 174.37062 67.39375 173.71437Q66.65938 173.05812 66.55 171.98Z" fill-rule="nonzero"/><path fill="#000000" d="M65.09688 120.30771L65.09688 121.32333L59.409374 121.32333Q59.409374 120.94833 59.534374 120.58896Q59.753124 120.01083 60.221874 119.44833Q60.70625 118.88583 61.6125 118.15146Q63.01875 116.99521 63.503124 116.32333Q64.00313 115.65146 64.00313 115.05771Q64.00313 114.43271 63.55 114.01083Q63.096874 113.57333 62.378124 113.57333Q61.6125 113.57333 61.159374 114.02646Q60.70625 114.47958 60.690624 115.29208L59.6125 115.18271Q59.721874 113.96396 60.440624 113.33896Q61.175 112.69833 62.409374 112.69833Q63.64375 112.69833 64.3625 113.38583Q65.08125 114.07333 65.08125 115.08896Q65.08125 115.60458 64.8625 116.10458Q64.65938 116.58896 64.15938 117.15146Q63.675 117.69833 62.55 118.65146Q61.596874 119.44833 61.315624 119.74521Q61.05 120.02646 60.878124 120.30771L65.09688 120.30771ZM66.55 117.08896Q66.55 115.55771 66.8625 114.63583Q67.175 113.69833 67.78438 113.19833Q68.40938 112.69833 69.34688 112.69833Q70.03438 112.69833 70.55 112.97958Q71.08125 113.26083 71.425 113.79208Q71.76875 114.30771 71.95625 115.05771Q72.14375 115.80771 72.14375 117.08896Q72.14375 118.60458 71.83125 119.52646Q71.53438 120.44833 70.90938 120.96396Q70.3 121.46396 69.34688 121.46396Q68.1125 121.46396 67.39375 120.57333Q66.55 119.51083 66.55 117.08896ZM67.62813 117.08896Q67.62813 119.19833 68.12813 119.90146Q68.62813 120.60458 69.34688 120.60458Q70.08125 120.60458 70.56563 119.90146Q71.06563 119.19833 71.06563 117.08896Q71.06563 114.96396 70.56563 114.27646Q70.08125 113.57333 69.33125 113.57333Q68.6125 113.57333 68.175 114.18271Q67.62813 114.96396 67.62813 117.08896Z" fill-rule="nonzero"/><path fill="#000000" d="M65.09688 67.40104L65.09688 68.416664L59.409374 68.416664Q59.409374 68.041664 59.534374 67.68229Q59.753124 67.104164 60.221874 66.541664Q60.70625 65.979164 61.6125 65.24479Q63.01875 64.08854 63.503124 63.416664Q64.00313 62.74479 64.00313 62.15104Q64.00313 61.52604 63.55 61.104164Q63.096874 60.666664 62.378124 60.666664Q61.6125 60.666664 61.159374 61.11979Q60.70625 61.572914 60.690624 62.385414L59.6125 62.27604Q59.721874 61.05729 60.440624 60.43229Q61.175 59.791664 62.409374 59.791664Q63.64375 59.791664 64.3625 60.479164Q65.08125 61.166664 65.08125 62.18229Q65.08125 62.697914 64.8625 63.197914Q64.65938 63.68229 64.15938 64.24479Q63.675 64.791664 62.55 65.74479Q61.596874 66.541664 61.315624 66.83854Q61.05 67.11979 60.878124 67.40104L65.09688 67.40104ZM66.55 66.166664L67.65938 66.072914Q67.78438 66.885414 68.22188 67.291664Q68.675 67.697914 69.31563 67.697914Q70.06563 67.697914 70.59688 67.11979Q71.12813 66.541664 71.12813 65.604164Q71.12813 64.697914 70.6125 64.18229Q70.1125 63.65104 69.28438 63.65104Q68.78438 63.65104 68.3625 63.885414Q67.95625 64.11979 67.72188 64.479164L66.7375 64.354164L67.56563 59.947914L71.84688 59.947914L71.84688 60.947914L68.40938 60.947914L67.95625 63.260414Q68.72188 62.71354 69.56563 62.71354Q70.69063 62.71354 71.45625 63.49479Q72.2375 64.27604 72.2375 65.510414Q72.2375 66.666664 71.56563 67.52604Q70.7375 68.55729 69.31563 68.55729Q68.14375 68.55729 67.39375 67.90104Q66.65938 67.24479 66.55 66.166664Z" fill-rule="nonzero"/><path fill="#000000" d="M107.734436 343.5125L108.765686 343.3719Q108.796936 344.35626 109.12506 344.71564Q109.453186 345.075 110.046936 345.075Q110.46881 345.075 110.78131 344.8875Q111.09381 344.6844 111.203186 344.35626Q111.328186 344.0125 111.328186 343.27814L111.328186 337.35626L112.453186 337.35626L112.453186 343.21564Q112.453186 344.29376 112.18756 344.8875Q111.93756 345.48126 111.37506 345.79376Q110.81256 346.09064 110.046936 346.09064Q108.921936 346.09064 108.31256 345.45Q107.71881 344.79376 107.734436 343.5125ZM118.25006 345.1844Q117.65631 345.6844 117.109436 345.8875Q116.578186 346.09064 115.953186 346.09064Q114.921936 346.09064 114.37506 345.59064Q113.828186 345.09064 113.828186 344.3094Q113.828186 343.85626 114.03131 343.48126Q114.234436 343.09064 114.578186 342.8719Q114.921936 342.6375 115.34381 342.52814Q115.640686 342.4344 116.28131 342.35626Q117.546936 342.21564 118.15631 341.9969Q118.15631 341.77814 118.15631 341.73126Q118.15631 341.075 117.859436 340.8094Q117.453186 340.46564 116.65631 340.46564Q115.921936 340.46564 115.56256 340.73126Q115.203186 340.98126 115.03131 341.6375L114.00006 341.4969Q114.140686 340.84064 114.46881 340.4344Q114.796936 340.02814 115.40631 339.8094Q116.015686 339.59064 116.81256 339.59064Q117.609436 339.59064 118.109436 339.77814Q118.609436 339.96564 118.84381 340.2469Q119.078186 340.52814 119.171936 340.96564Q119.21881 341.23126 119.21881 341.9344L119.21881 343.34064Q119.21881 344.8094 119.28131 345.2Q119.359436 345.59064 119.56256 345.95L118.453186 345.95Q118.296936 345.6219 118.25006 345.1844ZM118.15631 342.825Q117.578186 343.0594 116.43756 343.23126Q115.78131 343.325 115.515686 343.45Q115.25006 343.5594 115.09381 343.77814Q114.953186 343.9969 114.953186 344.27814Q114.953186 344.7 115.265686 344.98126Q115.59381 345.2625 116.203186 345.2625Q116.81256 345.2625 117.28131 344.9969Q117.765686 344.73126 117.984436 344.2625Q118.15631 343.90314 118.15631 343.21564L118.15631 342.825ZM121.18756 345.95L121.18756 339.73126L122.12506 339.73126L122.12506 340.60626Q122.81256 339.59064 124.109436 339.59064Q124.671936 339.59064 125.140686 339.79376Q125.62506 339.9969 125.859436 340.325Q126.09381 340.65314 126.18756 341.09064Q126.234436 341.3875 126.234436 342.1219L126.234436 345.95L125.18756 345.95L125.18756 342.16876Q125.18756 341.5125 125.06256 341.2Q124.93756 340.8875 124.62506 340.7Q124.31256 340.4969 123.890686 340.4969Q123.21881 340.4969 122.71881 340.9344Q122.234436 341.35626 122.234436 342.54376L122.234436 345.95L121.18756 345.95ZM132.26569 345.95L132.26569 345.02814Q131.53131 346.09064 130.28131 346.09064Q129.73444 346.09064 129.25006 345.8875Q128.78131 345.66876 128.54694 345.35626Q128.31256 345.02814 128.21881 344.5594Q128.15631 344.2625 128.15631 343.575L128.15631 339.73126L129.21881 339.73126L129.21881 343.1844Q129.21881 343.9969 129.28131 344.29376Q129.37506 344.7 129.68756 344.95Q130.01569 345.1844 130.50006 345.1844Q130.96881 345.1844 131.37506 344.95Q131.79694 344.7 131.96881 344.27814Q132.15631 343.85626 132.15631 343.0594L132.15631 339.73126L133.20319 339.73126L133.20319 345.95L132.26569 345.95ZM139.25006 345.1844Q138.65631 345.6844 138.10944 345.8875Q137.57819 346.09064 136.95319 346.09064Q135.92194 346.09064 135.37506 345.59064Q134.82819 345.09064 134.82819 344.3094Q134.82819 343.85626 135.03131 343.48126Q135.23444 343.09064 135.57819 342.8719Q135.92194 342.6375 136.34381 342.52814Q136.64069 342.4344 137.28131 342.35626Q138.54694 342.21564 139.15631 341.9969Q139.15631 341.77814 139.15631 341.73126Q139.15631 341.075 138.85944 340.8094Q138.45319 340.46564 137.65631 340.46564Q136.92194 340.46564 136.56256 340.73126Q136.20319 340.98126 136.03131 341.6375L135.00006 341.4969Q135.14069 340.84064 135.46881 340.4344Q135.79694 340.02814 136.40631 339.8094Q137.01569 339.59064 137.81256 339.59064Q138.60944 339.59064 139.10944 339.77814Q139.60944 339.96564 139.84381 340.2469Q140.07819 340.52814 140.17194 340.96564Q140.21881 341.23126 140.21881 341.9344L140.21881 343.34064Q140.21881 344.8094 140.28131 345.2Q140.35944 345.59064 140.56256 345.95L139.45319 345.95Q139.29694 345.6219 139.25006 345.1844ZM139.15631 342.825Q138.57819 343.0594 137.43756 343.23126Q136.78131 343.325 136.51569 343.45Q136.25006 343.5594 136.09381 343.77814Q135.95319 343.9969 135.95319 344.27814Q135.95319 344.7 136.26569 344.98126Q136.59381 345.2625 137.20319 345.2625Q137.81256 345.2625 138.28131 344.9969Q138.76569 344.73126 138.98444 344.2625Q139.15631 343.90314 139.15631 343.21564L139.15631 342.825ZM142.17194 345.95L142.17194 339.73126L143.12506 339.73126L143.12506 340.66876Q143.48444 340.0125 143.78131 339.8094Q144.09381 339.59064 144.46881 339.59064Q145.00006 339.59064 145.54694 339.91876L145.18756 340.90314Q144.79694 340.66876 144.42194 340.66876Q144.06256 340.66876 143.78131 340.8875Q143.51569 341.09064 143.40631 341.46564Q143.21881 342.02814 143.21881 342.6844L143.21881 345.95L142.17194 345.95ZM146.14069 348.34064L146.01569 347.35626Q146.35944 347.45 146.62506 347.45Q146.96881 347.45 147.17194 347.325Q147.39069 347.21564 147.53131 347.0125Q147.62506 346.84064 147.85944 346.21564Q147.87506 346.1375 147.95319 345.96564L145.57819 339.73126L146.71881 339.73126L148.01569 343.325Q148.26569 344.0125 148.46881 344.77814Q148.65631 344.04376 148.90631 343.35626L150.23444 339.73126L151.28131 339.73126L148.92194 346.0594Q148.53131 347.075 148.32819 347.46564Q148.04694 347.9969 147.67194 348.23126Q147.31256 348.48126 146.81256 348.48126Q146.51569 348.48126 146.14069 348.34064Z" fill-rule="nonzero"/><path fill="#000000" d="M179.71312 345.95L179.71312 337.35626L185.51 337.35626L185.51 338.3719L180.85374 338.3719L180.85374 341.02814L184.885 341.02814L184.885 342.04376L180.85374 342.04376L180.85374 345.95L179.71312 345.95ZM190.77562 343.95L191.86937 344.075Q191.61937 345.02814 190.91624 345.5594Q190.21312 346.09064 189.135 346.09064Q187.77562 346.09064 186.96312 345.2469Q186.16624 344.40314 186.16624 342.8875Q186.16624 341.325 186.97874 340.46564Q187.79124 339.59064 189.0725 339.59064Q190.3225 339.59064 191.10374 340.4344Q191.90062 341.27814 191.90062 342.825Q191.90062 342.91876 191.90062 343.10626L187.26 343.10626Q187.3225 344.1375 187.83812 344.6844Q188.35374 345.21564 189.135 345.21564Q189.71312 345.21564 190.11937 344.91876Q190.54124 344.60626 190.77562 343.95ZM187.3225 342.2469L190.79124 342.2469Q190.72874 341.45 190.40062 341.0594Q189.885 340.45 189.08812 340.45Q188.35374 340.45 187.85374 340.9344Q187.36937 341.41876 187.3225 342.2469ZM194.49437 345.95L193.51 345.95L193.51 337.35626L194.5725 337.35626L194.5725 340.41876Q195.24437 339.59064 196.27562 339.59064Q196.85374 339.59064 197.35374 339.825Q197.86937 340.04376 198.1975 340.46564Q198.54124 340.8875 198.72874 341.48126Q198.91624 342.075 198.91624 342.7469Q198.91624 344.34064 198.11937 345.21564Q197.3225 346.09064 196.22874 346.09064Q195.11937 346.09064 194.49437 345.16876L194.49437 345.95ZM194.47874 342.79376Q194.47874 343.90314 194.79124 344.40314Q195.29124 345.21564 196.135 345.21564Q196.8225 345.21564 197.3225 344.6219Q197.83812 344.02814 197.83812 342.825Q197.83812 341.60626 197.35374 341.02814Q196.86937 340.45 196.18187 340.45Q195.49437 340.45 194.97874 341.0594Q194.47874 341.65314 194.47874 342.79376ZM200.51 345.95L200.51 339.73126L201.46312 339.73126L201.46312 340.66876Q201.8225 340.0125 202.11937 339.8094Q202.43187 339.59064 202.80687 339.59064Q203.33812 339.59064 203.885 339.91876L203.52562 340.90314Q203.135 340.66876 202.76 340.66876Q202.40062 340.66876 202.11937 340.8875Q201.85374 341.09064 201.74437 341.46564Q201.55687 342.02814 201.55687 342.6844L201.55687 345.95L200.51 345.95ZM208.60374 345.95L208.60374 345.02814Q207.86937 346.09064 206.61937 346.09064Q206.0725 346.09064 205.58812 345.8875Q205.11937 345.66876 204.885 345.35626Q204.65062 345.02814 204.55687 344.5594Q204.49437 344.2625 204.49437 343.575L204.49437 339.73126L205.55687 339.73126L205.55687 343.1844Q205.55687 343.9969 205.61937 344.29376Q205.71312 344.7 206.02562 344.95Q206.35374 345.1844 206.83812 345.1844Q207.30687 345.1844 207.71312 344.95Q208.135 344.7 208.30687 344.27814Q208.49437 343.85626 208.49437 343.0594L208.49437 339.73126L209.54124 339.73126L209.54124 345.95L208.60374 345.95ZM215.58812 345.1844Q214.99437 345.6844 214.4475 345.8875Q213.91624 346.09064 213.29124 346.09064Q212.26 346.09064 211.71312 345.59064Q211.16624 345.09064 211.16624 344.3094Q211.16624 343.85626 211.36937 343.48126Q211.5725 343.09064 211.91624 342.8719Q212.26 342.6375 212.68187 342.52814Q212.97874 342.4344 213.61937 342.35626Q214.885 342.21564 215.49437 341.9969Q215.49437 341.77814 215.49437 341.73126Q215.49437 341.075 215.1975 340.8094Q214.79124 340.46564 213.99437 340.46564Q213.26 340.46564 212.90062 340.73126Q212.54124 340.98126 212.36937 341.6375L211.33812 341.4969Q211.47874 340.84064 211.80687 340.4344Q212.135 340.02814 212.74437 339.8094Q213.35374 339.59064 214.15062 339.59064Q214.9475 339.59064 215.4475 339.77814Q215.9475 339.96564 216.18187 340.2469Q216.41624 340.52814 216.51 340.96564Q216.55687 341.23126 216.55687 341.9344L216.55687 343.34064Q216.55687 344.8094 216.61937 345.2Q216.6975 345.59064 216.90062 345.95L215.79124 345.95Q215.635 345.6219 215.58812 345.1844ZM215.49437 342.825Q214.91624 343.0594 213.77562 343.23126Q213.11937 343.325 212.85374 343.45Q212.58812 343.5594 212.43187 343.77814Q212.29124 343.9969 212.29124 344.27814Q212.29124 344.7 212.60374 344.98126Q212.93187 345.2625 213.54124 345.2625Q214.15062 345.2625 214.61937 344.9969Q215.10374 344.73126 215.3225 344.2625Q215.49437 343.90314 215.49437 343.21564L215.49437 342.825ZM218.51 345.95L218.51 339.73126L219.46312 339.73126L219.46312 340.66876Q219.8225 340.0125 220.11937 339.8094Q220.43187 339.59064 220.80687 339.59064Q221.33812 339.59064 221.885 339.91876L221.52562 340.90314Q221.135 340.66876 220.76 340.66876Q220.40062 340.66876 220.11937 340.8875Q219.85374 341.09064 219.74437 341.46564Q219.55687 342.02814 219.55687 342.6844L219.55687 345.95L218.51 345.95ZM222.47874 348.34064L222.35374 347.35626Q222.6975 347.45 222.96312 347.45Q223.30687 347.45 223.51 347.325Q223.72874 347.21564 223.86937 347.0125Q223.96312 346.84064 224.1975 346.21564Q224.21312 346.1375 224.29124 345.96564L221.91624 339.73126L223.05687 339.73126L224.35374 343.325Q224.60374 344.0125 224.80687 344.77814Q224.99437 344.04376 225.24437 343.35626L226.5725 339.73126L227.61937 339.73126L225.26 346.0594Q224.86937 347.075 224.66624 347.46564Q224.385 347.9969 224.01 348.23126Q223.65062 348.48126 223.15062 348.48126Q222.85374 348.48126 222.47874 348.34064Z" fill-rule="nonzero"/><path fill="#000000" d="M260.95743 345.95L260.95743 337.35626L262.67618 337.35626L264.70743 343.4344Q264.98868 344.29376 265.11368 344.71564Q265.2543 344.2469 265.5668 343.34064L267.6293 337.35626L269.16055 337.35626L269.16055 345.95L268.0668 345.95L268.0668 338.7625L265.5668 345.95L264.53555 345.95L262.05118 338.6375L262.05118 345.95L260.95743 345.95ZM273.92618 345.1844Q273.33243 345.6844 272.78555 345.8875Q272.2543 346.09064 271.6293 346.09064Q270.59805 346.09064 270.05118 345.59064Q269.5043 345.09064 269.5043 344.3094Q269.5043 343.85626 269.70743 343.48126Q269.91055 343.09064 270.2543 342.8719Q270.59805 342.6375 271.01993 342.52814Q271.3168 342.4344 271.95743 342.35626Q273.22305 342.21564 273.83243 341.9969Q273.83243 341.77814 273.83243 341.73126Q273.83243 341.075 273.53555 340.8094Q273.1293 340.46564 272.33243 340.46564Q271.59805 340.46564 271.23868 340.73126Q270.8793 340.98126 270.70743 341.6375L269.67618 341.4969Q269.8168 340.84064 270.14493 340.4344Q270.47305 340.02814 271.08243 339.8094Q271.6918 339.59064 272.48868 339.59064Q273.28555 339.59064 273.78555 339.77814Q274.28555 339.96564 274.51993 340.2469Q274.7543 340.52814 274.84805 340.96564Q274.89493 341.23126 274.89493 341.9344L274.89493 343.34064Q274.89493 344.8094 274.95743 345.2Q275.03555 345.59064 275.23868 345.95L274.1293 345.95Q273.97305 345.6219 273.92618 345.1844ZM273.83243 342.825Q273.2543 343.0594 272.11368 343.23126Q271.45743 343.325 271.1918 343.45Q270.92618 343.5594 270.76993 343.77814Q270.6293 343.9969 270.6293 344.27814Q270.6293 344.7 270.9418 344.98126Q271.26993 345.2625 271.8793 345.2625Q272.48868 345.2625 272.95743 344.9969Q273.4418 344.73126 273.66055 344.2625Q273.83243 343.90314 273.83243 343.21564L273.83243 342.825ZM276.84805 345.95L276.84805 339.73126L277.80118 339.73126L277.80118 340.66876Q278.16055 340.0125 278.45743 339.8094Q278.76993 339.59064 279.14493 339.59064Q279.67618 339.59064 280.22305 339.91876L279.86368 340.90314Q279.47305 340.66876 279.09805 340.66876Q278.73868 340.66876 278.45743 340.8875Q278.1918 341.09064 278.08243 341.46564Q277.89493 342.02814 277.89493 342.6844L277.89493 345.95L276.84805 345.95ZM284.92618 343.66876L285.95743 343.8094Q285.78555 344.8719 285.08243 345.48126Q284.3793 346.09064 283.36368 346.09064Q282.08243 346.09064 281.30118 345.2625Q280.53555 344.41876 280.53555 342.85626Q280.53555 341.85626 280.86368 341.10626Q281.20743 340.34064 281.8793 339.96564Q282.5668 339.59064 283.3793 339.59064Q284.3793 339.59064 285.01993 340.10626Q285.67618 340.60626 285.86368 341.5594L284.83243 341.71564Q284.6918 341.09064 284.3168 340.77814Q283.9418 340.45 283.41055 340.45Q282.61368 340.45 282.11368 341.02814Q281.61368 341.59064 281.61368 342.825Q281.61368 344.09064 282.09805 344.65314Q282.58243 345.21564 283.34805 345.21564Q283.97305 345.21564 284.3793 344.84064Q284.80118 344.46564 284.92618 343.66876ZM286.86368 345.95L286.86368 337.35626L287.91055 337.35626L287.91055 340.4344Q288.64493 339.59064 289.76993 339.59064Q290.47305 339.59064 290.97305 339.8719Q291.48868 340.1375 291.70743 340.6219Q291.92618 341.09064 291.92618 342.0125L291.92618 345.95L290.8793 345.95L290.8793 342.0125Q290.8793 341.21564 290.53555 340.85626Q290.1918 340.4969 289.5668 340.4969Q289.09805 340.4969 288.67618 340.7469Q288.26993 340.98126 288.08243 341.40314Q287.91055 341.8094 287.91055 342.54376L287.91055 345.95L286.86368 345.95Z" fill-rule="nonzero"/><path fill="#000000" d="M338.38922 345.95L341.6861 337.35626L342.90485 337.35626L346.42047 345.95L345.13922 345.95L344.1236 343.34064L340.54547 343.34064L339.59235 345.95L338.38922 345.95ZM340.8736 342.41876L343.77985 342.41876L342.88922 340.04376Q342.46735 338.96564 342.27985 338.2625Q342.10797 339.09064 341.8111 339.90314L340.8736 342.41876ZM346.20172 348.34064L346.20172 339.73126L347.15485 339.73126L347.15485 340.52814Q347.4986 340.0594 347.92047 339.825Q348.35797 339.59064 348.96735 339.59064Q349.76422 339.59064 350.3736 339.9969Q350.98297 340.40314 351.27985 341.15314Q351.59235 341.90314 351.59235 342.79376Q351.59235 343.7469 351.2486 344.5125Q350.92047 345.27814 350.26422 345.6844Q349.60797 346.09064 348.88922 346.09064Q348.35797 346.09064 347.9361 345.8719Q347.51422 345.6375 347.2486 345.3094L347.2486 348.34064L346.20172 348.34064ZM347.15485 342.8719Q347.15485 344.075 347.63922 344.65314Q348.1236 345.21564 348.8111 345.21564Q349.51422 345.21564 350.01422 344.6219Q350.51422 344.02814 350.51422 342.77814Q350.51422 341.59064 350.02985 341.0125Q349.54547 340.41876 348.85797 340.41876Q348.1861 340.41876 347.67047 341.04376Q347.15485 341.66876 347.15485 342.8719ZM353.1861 345.95L353.1861 339.73126L354.13922 339.73126L354.13922 340.66876Q354.4986 340.0125 354.79547 339.8094Q355.10797 339.59064 355.48297 339.59064Q356.01422 339.59064 356.5611 339.91876L356.20172 340.90314Q355.8111 340.66876 355.4361 340.66876Q355.07672 340.66876 354.79547 340.8875Q354.52985 341.09064 354.42047 341.46564Q354.23297 342.02814 354.23297 342.6844L354.23297 345.95L353.1861 345.95ZM357.20172 338.575L357.20172 337.35626L358.26422 337.35626L358.26422 338.575L357.20172 338.575ZM357.20172 345.95L357.20172 339.73126L358.26422 339.73126L358.26422 345.95L357.20172 345.95ZM360.17047 345.95L360.17047 337.35626L361.23297 337.35626L361.23297 345.95L360.17047 345.95Z" fill-rule="nonzero"/><path fill="#000000" d="M414.63354 345.95L414.63354 337.35626L416.3523 337.35626L418.38354 343.4344Q418.6648 344.29376 418.7898 344.71564Q418.93042 344.2469 419.24292 343.34064L421.30542 337.35626L422.83667 337.35626L422.83667 345.95L421.74292 345.95L421.74292 338.7625L419.24292 345.95L418.21167 345.95L415.7273 338.6375L415.7273 345.95L414.63354 345.95ZM427.6023 345.1844Q427.00854 345.6844 426.46167 345.8875Q425.93042 346.09064 425.30542 346.09064Q424.27417 346.09064 423.7273 345.59064Q423.18042 345.09064 423.18042 344.3094Q423.18042 343.85626 423.38354 343.48126Q423.58667 343.09064 423.93042 342.8719Q424.27417 342.6375 424.69604 342.52814Q424.99292 342.4344 425.63354 342.35626Q426.89917 342.21564 427.50854 341.9969Q427.50854 341.77814 427.50854 341.73126Q427.50854 341.075 427.21167 340.8094Q426.80542 340.46564 426.00854 340.46564Q425.27417 340.46564 424.9148 340.73126Q424.55542 340.98126 424.38354 341.6375L423.3523 341.4969Q423.49292 340.84064 423.82104 340.4344Q424.14917 340.02814 424.75854 339.8094Q425.36792 339.59064 426.1648 339.59064Q426.96167 339.59064 427.46167 339.77814Q427.96167 339.96564 428.19604 340.2469Q428.43042 340.52814 428.52417 340.96564Q428.57104 341.23126 428.57104 341.9344L428.57104 343.34064Q428.57104 344.8094 428.63354 345.2Q428.71167 345.59064 428.9148 345.95L427.80542 345.95Q427.64917 345.6219 427.6023 345.1844ZM427.50854 342.825Q426.93042 343.0594 425.7898 343.23126Q425.13354 343.325 424.86792 343.45Q424.6023 343.5594 424.44604 343.77814Q424.30542 343.9969 424.30542 344.27814Q424.30542 344.7 424.61792 344.98126Q424.94604 345.2625 425.55542 345.2625Q426.1648 345.2625 426.63354 344.9969Q427.11792 344.73126 427.33667 344.2625Q427.50854 343.90314 427.50854 343.21564L427.50854 342.825ZM430.49292 348.34064L430.36792 347.35626Q430.71167 347.45 430.9773 347.45Q431.32104 347.45 431.52417 347.325Q431.74292 347.21564 431.88354 347.0125Q431.9773 346.84064 432.21167 346.21564Q432.2273 346.1375 432.30542 345.96564L429.93042 339.73126L431.07104 339.73126L432.36792 343.325Q432.61792 344.0125 432.82104 344.77814Q433.00854 344.04376 433.25854 343.35626L434.58667 339.73126L435.63354 339.73126L433.27417 346.0594Q432.88354 347.075 432.68042 347.46564Q432.39917 347.9969 432.02417 348.23126Q431.6648 348.48126 431.1648 348.48126Q430.86792 348.48126 430.49292 348.34064Z" fill-rule="nonzero"/><path fill="#000000" d="M484.9247 343.5125L485.95596 343.3719Q485.9872 344.35626 486.31534 344.71564Q486.64346 345.075 487.2372 345.075Q487.6591 345.075 487.9716 344.8875Q488.2841 344.6844 488.39346 344.35626Q488.51846 344.0125 488.51846 343.27814L488.51846 337.35626L489.64346 337.35626L489.64346 343.21564Q489.64346 344.29376 489.37784 344.8875Q489.12784 345.48126 488.56534 345.79376Q488.00284 346.09064 487.2372 346.09064Q486.1122 346.09064 485.50284 345.45Q484.9091 344.79376 484.9247 343.5125ZM495.45596 345.95L495.45596 345.02814Q494.7216 346.09064 493.4716 346.09064Q492.9247 346.09064 492.44034 345.8875Q491.9716 345.66876 491.7372 345.35626Q491.50284 345.02814 491.4091 344.5594Q491.3466 344.2625 491.3466 343.575L491.3466 339.73126L492.4091 339.73126L492.4091 343.1844Q492.4091 343.9969 492.4716 344.29376Q492.56534 344.7 492.87784 344.95Q493.20596 345.1844 493.69034 345.1844Q494.1591 345.1844 494.56534 344.95Q494.9872 344.7 495.1591 344.27814Q495.3466 343.85626 495.3466 343.0594L495.3466 339.73126L496.39346 339.73126L496.39346 345.95L495.45596 345.95ZM498.37784 345.95L498.37784 339.73126L499.31534 339.73126L499.31534 340.60626Q500.00284 339.59064 501.2997 339.59064Q501.8622 339.59064 502.33096 339.79376Q502.81534 339.9969 503.0497 340.325Q503.2841 340.65314 503.37784 341.09064Q503.4247 341.3875 503.4247 342.1219L503.4247 345.95L502.37784 345.95L502.37784 342.16876Q502.37784 341.5125 502.25284 341.2Q502.12784 340.8875 501.81534 340.7Q501.50284 340.4969 501.08096 340.4969Q500.4091 340.4969 499.9091 340.9344Q499.4247 341.35626 499.4247 342.54376L499.4247 345.95L498.37784 345.95ZM509.62784 343.95L510.7216 344.075Q510.4716 345.02814 509.76846 345.5594Q509.06534 346.09064 507.9872 346.09064Q506.62784 346.09064 505.81534 345.2469Q505.01846 344.40314 505.01846 342.8875Q505.01846 341.325 505.83096 340.46564Q506.64346 339.59064 507.9247 339.59064Q509.1747 339.59064 509.95596 340.4344Q510.75284 341.27814 510.75284 342.825Q510.75284 342.91876 510.75284 343.10626L506.1122 343.10626Q506.1747 344.1375 506.69034 344.6844Q507.20596 345.21564 507.9872 345.21564Q508.56534 345.21564 508.9716 344.91876Q509.39346 344.60626 509.62784 343.95ZM506.1747 342.2469L509.64346 342.2469Q509.58096 341.45 509.25284 341.0594Q508.7372 340.45 507.94034 340.45Q507.20596 340.45 506.70596 340.9344Q506.2216 341.41876 506.1747 342.2469Z" fill-rule="nonzero"/><path fill="#000000" d="M561.76276 343.5125L562.794 343.3719Q562.82526 344.35626 563.1534 344.71564Q563.4815 345.075 564.07526 345.075Q564.49713 345.075 564.80963 344.8875Q565.12213 344.6844 565.2315 344.35626Q565.3565 344.0125 565.3565 343.27814L565.3565 337.35626L566.4815 337.35626L566.4815 343.21564Q566.4815 344.29376 566.2159 344.8875Q565.9659 345.48126 565.4034 345.79376Q564.8409 346.09064 564.07526 346.09064Q562.95026 346.09064 562.3409 345.45Q561.74713 344.79376 561.76276 343.5125ZM572.294 345.95L572.294 345.02814Q571.55963 346.09064 570.30963 346.09064Q569.76276 346.09064 569.2784 345.8875Q568.80963 345.66876 568.57526 345.35626Q568.3409 345.02814 568.24713 344.5594Q568.18463 344.2625 568.18463 343.575L568.18463 339.73126L569.24713 339.73126L569.24713 343.1844Q569.24713 343.9969 569.30963 344.29376Q569.4034 344.7 569.7159 344.95Q570.044 345.1844 570.5284 345.1844Q570.99713 345.1844 571.4034 344.95Q571.82526 344.7 571.99713 344.27814Q572.18463 343.85626 572.18463 343.0594L572.18463 339.73126L573.2315 339.73126L573.2315 345.95L572.294 345.95ZM575.18463 345.95L575.18463 337.35626L576.24713 337.35626L576.24713 345.95L575.18463 345.95ZM578.169 348.34064L578.044 347.35626Q578.38776 347.45 578.6534 347.45Q578.99713 347.45 579.20026 347.325Q579.419 347.21564 579.55963 347.0125Q579.6534 346.84064 579.88776 346.21564Q579.9034 346.1375 579.9815 345.96564L577.6065 339.73126L578.74713 339.73126L580.044 343.325Q580.294 344.0125 580.49713 344.77814Q580.68463 344.04376 580.93463 343.35626L582.26276 339.73126L583.30963 339.73126L580.95026 346.0594Q580.55963 347.075 580.3565 347.46564Q580.07526 347.9969 579.70026 348.23126Q579.3409 348.48126 578.8409 348.48126Q578.544 348.48126 578.169 348.34064Z" fill-rule="nonzero"/><path fill="#000000" d="M626.74146 345.95L630.0383 337.35626L631.2571 337.35626L634.7727 345.95L633.49146 345.95L632.4758 343.34064L628.8977 343.34064L627.9446 345.95L626.74146 345.95ZM629.2258 342.41876L632.1321 342.41876L631.24146 340.04376Q630.8196 338.96564 630.6321 338.2625Q630.4602 339.09064 630.1633 339.90314L629.2258 342.41876ZM638.6321 345.95L638.6321 345.02814Q637.8977 346.09064 636.6477 346.09064Q636.1008 346.09064 635.61646 345.8875Q635.1477 345.66876 634.9133 345.35626Q634.67896 345.02814 634.5852 344.5594Q634.5227 344.2625 634.5227 343.575L634.5227 339.73126L635.5852 339.73126L635.5852 343.1844Q635.5852 343.9969 635.6477 344.29376Q635.74146 344.7 636.05396 344.95Q636.3821 345.1844 636.86646 345.1844Q637.3352 345.1844 637.74146 344.95Q638.1633 344.7 638.3352 344.27814Q638.5227 343.85626 638.5227 343.0594L638.5227 339.73126L639.5696 339.73126L639.5696 345.95L638.6321 345.95ZM641.3508 346.46564L642.3821 346.6219Q642.4446 347.09064 642.74146 347.3094Q643.1321 347.60626 643.80396 347.60626Q644.5383 347.60626 644.92896 347.3094Q645.3352 347.0125 645.4758 346.4969Q645.5696 346.16876 645.55396 345.1375Q644.86646 345.95 643.8352 345.95Q642.55396 345.95 641.8508 345.02814Q641.1477 344.09064 641.1477 342.8094Q641.1477 341.91876 641.4602 341.16876Q641.7883 340.40314 642.3977 339.9969Q643.0071 339.59064 643.8352 339.59064Q644.9446 339.59064 645.6633 340.48126L645.6633 339.73126L646.6321 339.73126L646.6321 345.10626Q646.6321 346.5594 646.3352 347.16876Q646.0383 347.77814 645.3977 348.1219Q644.7571 348.48126 643.8196 348.48126Q642.7102 348.48126 642.0227 347.98126Q641.3352 347.48126 641.3508 346.46564ZM642.2258 342.73126Q642.2258 343.95 642.7102 344.5125Q643.1946 345.075 643.92896 345.075Q644.6633 345.075 645.1477 344.5125Q645.6477 343.95 645.6477 342.7625Q645.6477 341.6219 645.1321 341.04376Q644.6321 340.46564 643.9133 340.46564Q643.2102 340.46564 642.7102 341.04376Q642.2258 341.60626 642.2258 342.73126ZM652.6321 345.95L652.6321 345.02814Q651.8977 346.09064 650.6477 346.09064Q650.1008 346.09064 649.61646 345.8875Q649.1477 345.66876 648.9133 345.35626Q648.67896 345.02814 648.5852 344.5594Q648.5227 344.2625 648.5227 343.575L648.5227 339.73126L649.5852 339.73126L649.5852 343.1844Q649.5852 343.9969 649.6477 344.29376Q649.74146 344.7 650.05396 344.95Q650.3821 345.1844 650.86646 345.1844Q651.3352 345.1844 651.74146 344.95Q652.1633 344.7 652.3352 344.27814Q652.5227 343.85626 652.5227 343.0594L652.5227 339.73126L653.5696 339.73126L653.5696 345.95L652.6321 345.95ZM655.1321 344.09064L656.1633 343.9344Q656.2571 344.5594 656.6477 344.8875Q657.05396 345.21564 657.7883 345.21564Q658.5071 345.21564 658.8508 344.9344Q659.2102 344.6375 659.2102 344.23126Q659.2102 343.8719 658.8977 343.66876Q658.67896 343.52814 657.8196 343.3094Q656.6633 343.0125 656.2102 342.8094Q655.7727 342.59064 655.5383 342.21564Q655.30396 341.84064 655.30396 341.3719Q655.30396 340.96564 655.49146 340.60626Q655.67896 340.2469 656.0071 340.0125Q656.2571 339.84064 656.67896 339.71564Q657.1008 339.59064 657.6008 339.59064Q658.3196 339.59064 658.86646 339.8094Q659.42896 340.0125 659.6946 340.3719Q659.9602 340.73126 660.05396 341.325L659.0227 341.46564Q658.9602 340.9969 658.61646 340.73126Q658.2883 340.45 657.6633 340.45Q656.9446 340.45 656.6321 340.7Q656.3196 340.9344 656.3196 341.2625Q656.3196 341.46564 656.4446 341.6219Q656.5852 341.79376 656.8508 341.90314Q657.0071 341.96564 657.7883 342.16876Q658.9133 342.48126 659.3508 342.66876Q659.7883 342.85626 660.0383 343.21564Q660.2883 343.575 660.2883 344.1219Q660.2883 344.65314 659.9758 345.1219Q659.67896 345.575 659.1008 345.84064Q658.5227 346.09064 657.7883 346.09064Q656.5696 346.09064 655.92896 345.59064Q655.30396 345.075 655.1321 344.09064ZM664.8508 345.0125L665.0071 345.9344Q664.55396 346.02814 664.2102 346.02814Q663.6321 346.02814 663.3196 345.85626Q663.0071 345.66876 662.86646 345.3719Q662.74146 345.075 662.74146 344.1219L662.74146 340.54376L661.9758 340.54376L661.9758 339.73126L662.74146 339.73126L662.74146 338.1844L663.7883 337.5594L663.7883 339.73126L664.8508 339.73126L664.8508 340.54376L663.7883 340.54376L663.7883 344.1844Q663.7883 344.6375 663.8352 344.7625Q663.8977 344.8875 664.0227 344.96564Q664.1477 345.04376 664.3821 345.04376Q664.5696 345.04376 664.8508 345.0125Z" fill-rule="nonzero"/><path fill="#000000" d="M689.642 343.1844L690.7045 343.09064Q690.78265 343.7469 691.0639 344.15314Q691.34515 344.5594 691.9233 344.825Q692.517 345.075 693.2514 345.075Q693.892 345.075 694.392 344.8875Q694.892 344.6844 695.1264 344.35626Q695.3764 344.0125 695.3764 343.6219Q695.3764 343.21564 695.142 342.91876Q694.90765 342.60626 694.3764 342.40314Q694.017 342.2625 692.8295 341.98126Q691.65765 341.7 691.1889 341.45Q690.5639 341.1219 690.267 340.65314Q689.97015 340.16876 689.97015 339.575Q689.97015 338.9344 690.3295 338.3719Q690.7045 337.79376 691.40765 337.5125Q692.1264 337.21564 692.9858 337.21564Q693.9389 337.21564 694.6733 337.52814Q695.40765 337.825 695.7983 338.4344Q696.1889 339.02814 696.22015 339.77814L695.1264 339.85626Q695.03265 339.04376 694.517 338.6375Q694.017 338.21564 693.03265 338.21564Q692.0014 338.21564 691.53265 338.59064Q691.0639 338.96564 691.0639 339.4969Q691.0639 339.96564 691.392 340.2625Q691.72015 340.5594 693.09515 340.8719Q694.4858 341.1844 695.0014 341.41876Q695.7514 341.77814 696.1108 342.3094Q696.47015 342.825 696.47015 343.52814Q696.47015 344.21564 696.0795 344.825Q695.6889 345.41876 694.9545 345.7625Q694.22015 346.09064 693.2983 346.09064Q692.1264 346.09064 691.3295 345.7625Q690.5483 345.41876 690.09515 344.73126Q689.65765 344.04376 689.642 343.1844ZM702.142 343.95L703.2358 344.075Q702.9858 345.02814 702.28265 345.5594Q701.5795 346.09064 700.5014 346.09064Q699.142 346.09064 698.3295 345.2469Q697.53265 344.40314 697.53265 342.8875Q697.53265 341.325 698.34515 340.46564Q699.15765 339.59064 700.4389 339.59064Q701.6889 339.59064 702.47015 340.4344Q703.267 341.27814 703.267 342.825Q703.267 342.91876 703.267 343.10626L698.6264 343.10626Q698.6889 344.1375 699.2045 344.6844Q699.72015 345.21564 700.5014 345.21564Q701.0795 345.21564 701.4858 344.91876Q701.90765 344.60626 702.142 343.95ZM698.6889 342.2469L702.15765 342.2469Q702.09515 341.45 701.767 341.0594Q701.2514 340.45 700.4545 340.45Q699.72015 340.45 699.22015 340.9344Q698.7358 341.41876 698.6889 342.2469ZM704.892 348.34064L704.892 339.73126L705.84515 339.73126L705.84515 340.52814Q706.1889 340.0594 706.6108 339.825Q707.0483 339.59064 707.65765 339.59064Q708.4545 339.59064 709.0639 339.9969Q709.6733 340.40314 709.97015 341.15314Q710.28265 341.90314 710.28265 342.79376Q710.28265 343.7469 709.9389 344.5125Q709.6108 345.27814 708.9545 345.6844Q708.2983 346.09064 707.5795 346.09064Q707.0483 346.09064 706.6264 345.8719Q706.2045 345.6375 705.9389 345.3094L705.9389 348.34064L704.892 348.34064ZM705.84515 342.8719Q705.84515 344.075 706.3295 344.65314Q706.8139 345.21564 707.5014 345.21564Q708.2045 345.21564 708.7045 344.6219Q709.2045 344.02814 709.2045 342.77814Q709.2045 341.59064 708.72015 341.0125Q708.2358 340.41876 707.5483 340.41876Q706.8764 340.41876 706.3608 341.04376Q705.84515 341.66876 705.84515 342.8719ZM714.1889 345.0125L714.34515 345.9344Q713.892 346.02814 713.5483 346.02814Q712.97015 346.02814 712.65765 345.85626Q712.34515 345.66876 712.2045 345.3719Q712.0795 345.075 712.0795 344.1219L712.0795 340.54376L711.3139 340.54376L711.3139 339.73126L712.0795 339.73126L712.0795 338.1844L713.1264 337.5594L713.1264 339.73126L714.1889 339.73126L714.1889 340.54376L713.1264 340.54376L713.1264 344.1844Q713.1264 344.6375 713.1733 344.7625Q713.2358 344.8875 713.3608 344.96564Q713.4858 345.04376 713.72015 345.04376Q713.90765 345.04376 714.1889 345.0125ZM719.142 343.95L720.2358 344.075Q719.9858 345.02814 719.28265 345.5594Q718.5795 346.09064 717.5014 346.09064Q716.142 346.09064 715.3295 345.2469Q714.53265 344.40314 714.53265 342.8875Q714.53265 341.325 715.34515 340.46564Q716.15765 339.59064 717.4389 339.59064Q718.6889 339.59064 719.47015 340.4344Q720.267 341.27814 720.267 342.825Q720.267 342.91876 720.267 343.10626L715.6264 343.10626Q715.6889 344.1375 716.2045 344.6844Q716.72015 345.21564 717.5014 345.21564Q718.0795 345.21564 718.4858 344.91876Q718.90765 344.60626 719.142 343.95ZM715.6889 342.2469L719.15765 342.2469Q719.09515 341.45 718.767 341.0594Q718.2514 340.45 717.4545 340.45Q716.72015 340.45 716.22015 340.9344Q715.7358 341.41876 715.6889 342.2469ZM721.892 345.95L721.892 339.73126L722.8295 339.73126L722.8295 340.60626Q723.1264 340.1375 723.6108 339.8719Q724.09515 339.59064 724.72015 339.59064Q725.40765 339.59064 725.84515 339.8719Q726.2983 340.15314 726.47015 340.66876Q727.22015 339.59064 728.392 339.59064Q729.3295 339.59064 729.8139 340.10626Q730.3139 340.60626 730.3139 341.6844L730.3139 345.95L729.267 345.95L729.267 342.02814Q729.267 341.40314 729.15765 341.1219Q729.0639 340.84064 728.7983 340.66876Q728.53265 340.4969 728.15765 340.4969Q727.5014 340.4969 727.0639 340.9344Q726.642 341.3719 726.642 342.34064L726.642 345.95L725.5795 345.95L725.5795 341.90314Q725.5795 341.2 725.3139 340.85626Q725.0639 340.4969 724.4858 340.4969Q724.03265 340.4969 723.65765 340.73126Q723.28265 340.96564 723.1108 341.41876Q722.9389 341.8719 722.9389 342.71564L722.9389 345.95L721.892 345.95ZM733.8608 345.95L732.8764 345.95L732.8764 337.35626L733.9389 337.35626L733.9389 340.41876Q734.6108 339.59064 735.642 339.59064Q736.22015 339.59064 736.72015 339.825Q737.2358 340.04376 737.5639 340.46564Q737.90765 340.8875 738.09515 341.48126Q738.28265 342.075 738.28265 342.7469Q738.28265 344.34064 737.4858 345.21564Q736.6889 346.09064 735.59515 346.09064Q734.4858 346.09064 733.8608 345.16876L733.8608 345.95ZM733.84515 342.79376Q733.84515 343.90314 734.15765 344.40314Q734.65765 345.21564 735.5014 345.21564Q736.1889 345.21564 736.6889 344.6219Q737.2045 344.02814 737.2045 342.825Q737.2045 341.60626 736.72015 341.02814Q736.2358 340.45 735.5483 340.45Q734.8608 340.45 734.34515 341.0594Q733.84515 341.65314 733.84515 342.79376ZM744.142 343.95L745.2358 344.075Q744.9858 345.02814 744.28265 345.5594Q743.5795 346.09064 742.5014 346.09064Q741.142 346.09064 740.3295 345.2469Q739.53265 344.40314 739.53265 342.8875Q739.53265 341.325 740.34515 340.46564Q741.15765 339.59064 742.4389 339.59064Q743.6889 339.59064 744.47015 340.4344Q745.267 341.27814 745.267 342.825Q745.267 342.91876 745.267 343.10626L740.6264 343.10626Q740.6889 344.1375 741.2045 344.6844Q741.72015 345.21564 742.5014 345.21564Q743.0795 345.21564 743.4858 344.91876Q743.90765 344.60626 744.142 343.95ZM740.6889 342.2469L744.15765 342.2469Q744.09515 341.45 743.767 341.0594Q743.2514 340.45 742.4545 340.45Q741.72015 340.45 741.22015 340.9344Q740.7358 341.41876 740.6889 342.2469ZM746.8764 345.95L746.8764 339.73126L747.8295 339.73126L747.8295 340.66876Q748.1889 340.0125 748.4858 339.8094Q748.7983 339.59064 749.1733 339.59064Q749.7045 339.59064 750.2514 339.91876L749.892 340.90314Q749.5014 340.66876 749.1264 340.66876Q748.767 340.66876 748.4858 340.8875Q748.22015 341.09064 748.1108 341.46564Q747.9233 342.02814 747.9233 342.6844L747.9233 345.95L746.8764 345.95Z" fill-rule="nonzero"/><path fill="#000000" d="M772.51135 341.7625Q772.51135 339.6219 773.652 338.41876Q774.8082 337.2 776.6207 337.2Q777.82385 337.2 778.777 337.77814Q779.7301 338.34064 780.2301 339.35626Q780.7301 340.3719 780.7301 341.66876Q780.7301 342.96564 780.19885 343.9969Q779.6676 345.02814 778.69885 345.5594Q777.7457 346.09064 776.6207 346.09064Q775.402 346.09064 774.44885 345.5125Q773.4957 344.91876 772.9957 343.91876Q772.51135 342.90314 772.51135 341.7625ZM773.6832 341.77814Q773.6832 343.34064 774.51135 344.23126Q775.3551 345.1219 776.6207 345.1219Q777.902 345.1219 778.7301 344.23126Q779.5582 343.325 779.5582 341.65314Q779.5582 340.60626 779.19885 339.825Q778.8551 339.04376 778.1676 338.6219Q777.4801 338.1844 776.63635 338.1844Q775.4332 338.1844 774.5582 339.0125Q773.6832 339.84064 773.6832 341.77814ZM785.7926 343.66876L786.82385 343.8094Q786.652 344.8719 785.94885 345.48126Q785.2457 346.09064 784.2301 346.09064Q782.94885 346.09064 782.1676 345.2625Q781.402 344.41876 781.402 342.85626Q781.402 341.85626 781.7301 341.10626Q782.07385 340.34064 782.7457 339.96564Q783.4332 339.59064 784.2457 339.59064Q785.2457 339.59064 785.88635 340.10626Q786.5426 340.60626 786.7301 341.5594L785.69885 341.71564Q785.5582 341.09064 785.1832 340.77814Q784.8082 340.45 784.277 340.45Q783.4801 340.45 782.9801 341.02814Q782.4801 341.59064 782.4801 342.825Q782.4801 344.09064 782.9645 344.65314Q783.44885 345.21564 784.2145 345.21564Q784.8395 345.21564 785.2457 344.84064Q785.6676 344.46564 785.7926 343.66876ZM790.027 345.0125L790.1832 345.9344Q789.7301 346.02814 789.38635 346.02814Q788.8082 346.02814 788.4957 345.85626Q788.1832 345.66876 788.0426 345.3719Q787.9176 345.075 787.9176 344.1219L787.9176 340.54376L787.152 340.54376L787.152 339.73126L787.9176 339.73126L787.9176 338.1844L788.9645 337.5594L788.9645 339.73126L790.027 339.73126L790.027 340.54376L788.9645 340.54376L788.9645 344.1844Q788.9645 344.6375 789.01135 344.7625Q789.07385 344.8875 789.19885 344.96564Q789.32385 345.04376 789.5582 345.04376Q789.7457 345.04376 790.027 345.0125ZM790.3395 342.84064Q790.3395 341.10626 791.2926 340.27814Q792.0895 339.59064 793.2457 339.59064Q794.527 339.59064 795.3395 340.4344Q796.1676 341.2625 796.1676 342.7469Q796.1676 343.95 795.8082 344.6375Q795.44885 345.325 794.7457 345.71564Q794.0582 346.09064 793.2457 346.09064Q791.94885 346.09064 791.13635 345.2625Q790.3395 344.41876 790.3395 342.84064ZM791.4176 342.84064Q791.4176 344.02814 791.9332 344.6219Q792.4645 345.21564 793.2457 345.21564Q794.0426 345.21564 794.5582 344.6219Q795.07385 344.02814 795.07385 342.8094Q795.07385 341.65314 794.5426 341.0594Q794.027 340.46564 793.2457 340.46564Q792.4645 340.46564 791.9332 341.0594Q791.4176 341.6375 791.4176 342.84064ZM798.69885 345.95L797.7145 345.95L797.7145 337.35626L798.777 337.35626L798.777 340.41876Q799.44885 339.59064 800.4801 339.59064Q801.0582 339.59064 801.5582 339.825Q802.07385 340.04376 802.402 340.46564Q802.7457 340.8875 802.9332 341.48126Q803.1207 342.075 803.1207 342.7469Q803.1207 344.34064 802.32385 345.21564Q801.527 346.09064 800.4332 346.09064Q799.32385 346.09064 798.69885 345.16876L798.69885 345.95ZM798.6832 342.79376Q798.6832 343.90314 798.9957 344.40314Q799.4957 345.21564 800.3395 345.21564Q801.027 345.21564 801.527 344.6219Q802.0426 344.02814 802.0426 342.825Q802.0426 341.60626 801.5582 341.02814Q801.07385 340.45 800.38635 340.45Q799.69885 340.45 799.1832 341.0594Q798.6832 341.65314 798.6832 342.79376ZM808.9801 343.95L810.07385 344.075Q809.82385 345.02814 809.1207 345.5594Q808.4176 346.09064 807.3395 346.09064Q805.9801 346.09064 805.1676 345.2469Q804.3707 344.40314 804.3707 342.8875Q804.3707 341.325 805.1832 340.46564Q805.9957 339.59064 807.277 339.59064Q808.527 339.59064 809.3082 340.4344Q810.1051 341.27814 810.1051 342.825Q810.1051 342.91876 810.1051 343.10626L805.4645 343.10626Q805.527 344.1375 806.0426 344.6844Q806.5582 345.21564 807.3395 345.21564Q807.9176 345.21564 808.32385 344.91876Q808.7457 344.60626 808.9801 343.95ZM805.527 342.2469L808.9957 342.2469Q808.9332 341.45 808.6051 341.0594Q808.0895 340.45 807.2926 340.45Q806.5582 340.45 806.0582 340.9344Q805.57385 341.41876 805.527 342.2469ZM811.7145 345.95L811.7145 339.73126L812.6676 339.73126L812.6676 340.66876Q813.027 340.0125 813.32385 339.8094Q813.63635 339.59064 814.01135 339.59064Q814.5426 339.59064 815.0895 339.91876L814.7301 340.90314Q814.3395 340.66876 813.9645 340.66876Q813.6051 340.66876 813.32385 340.8875Q813.0582 341.09064 812.94885 341.46564Q812.76135 342.02814 812.76135 342.6844L812.76135 345.95L811.7145 345.95Z" fill-rule="nonzero"/><path fill="#000000" d="M839.6931 345.95L839.6931 337.35626L840.84937 337.35626L845.365 344.10626L845.365 337.35626L846.45874 337.35626L846.45874 345.95L845.28687 345.95L840.77124 339.2L840.77124 345.95L839.6931 345.95ZM848.1775 342.84064Q848.1775 341.10626 849.1306 340.27814Q849.9275 339.59064 851.08374 339.59064Q852.365 339.59064 853.1775 340.4344Q854.0056 341.2625 854.0056 342.7469Q854.0056 343.95 853.64624 344.6375Q853.28687 345.325 852.58374 345.71564Q851.89624 346.09064 851.08374 346.09064Q849.78687 346.09064 848.97437 345.2625Q848.1775 344.41876 848.1775 342.84064ZM849.2556 342.84064Q849.2556 344.02814 849.77124 344.6219Q850.3025 345.21564 851.08374 345.21564Q851.8806 345.21564 852.39624 344.6219Q852.91187 344.02814 852.91187 342.8094Q852.91187 341.65314 852.3806 341.0594Q851.865 340.46564 851.08374 340.46564Q850.3025 340.46564 849.77124 341.0594Q849.2556 341.6375 849.2556 342.84064ZM857.28687 345.95L854.9275 339.73126L856.03687 339.73126L857.3806 343.45Q857.58374 344.0594 857.77124 344.7Q857.91187 344.21564 858.16187 343.52814L859.5525 339.73126L860.6306 339.73126L858.27124 345.95L857.28687 345.95ZM864.8181 343.95L865.91187 344.075Q865.66187 345.02814 864.95874 345.5594Q864.2556 346.09064 863.1775 346.09064Q861.8181 346.09064 861.0056 345.2469Q860.20874 344.40314 860.20874 342.8875Q860.20874 341.325 861.02124 340.46564Q861.83374 339.59064 863.115 339.59064Q864.365 339.59064 865.14624 340.4344Q865.9431 341.27814 865.9431 342.825Q865.9431 342.91876 865.9431 343.10626L861.3025 343.10626Q861.365 344.1375 861.8806 344.6844Q862.39624 345.21564 863.1775 345.21564Q863.7556 345.21564 864.16187 344.91876Q864.58374 344.60626 864.8181 343.95ZM861.365 342.2469L864.83374 342.2469Q864.77124 341.45 864.4431 341.0594Q863.9275 340.45 863.1306 340.45Q862.39624 340.45 861.89624 340.9344Q861.41187 341.41876 861.365 342.2469ZM867.5681 345.95L867.5681 339.73126L868.5056 339.73126L868.5056 340.60626Q868.8025 340.1375 869.28687 339.8719Q869.77124 339.59064 870.39624 339.59064Q871.08374 339.59064 871.52124 339.8719Q871.97437 340.15314 872.14624 340.66876Q872.89624 339.59064 874.0681 339.59064Q875.0056 339.59064 875.49 340.10626Q875.99 340.60626 875.99 341.6844L875.99 345.95L874.9431 345.95L874.9431 342.02814Q874.9431 341.40314 874.83374 341.1219Q874.74 340.84064 874.47437 340.66876Q874.20874 340.4969 873.83374 340.4969Q873.1775 340.4969 872.74 340.9344Q872.3181 341.3719 872.3181 342.34064L872.3181 345.95L871.2556 345.95L871.2556 341.90314Q871.2556 341.2 870.99 340.85626Q870.74 340.4969 870.16187 340.4969Q869.70874 340.4969 869.33374 340.73126Q868.95874 340.96564 868.78687 341.41876Q868.615 341.8719 868.615 342.71564L868.615 345.95L867.5681 345.95ZM879.53687 345.95L878.5525 345.95L878.5525 337.35626L879.615 337.35626L879.615 340.41876Q880.28687 339.59064 881.3181 339.59064Q881.89624 339.59064 882.39624 339.825Q882.91187 340.04376 883.24 340.46564Q883.58374 340.8875 883.77124 341.48126Q883.95874 342.075 883.95874 342.7469Q883.95874 344.34064 883.16187 345.21564Q882.365 346.09064 881.27124 346.09064Q880.16187 346.09064 879.53687 345.16876L879.53687 345.95ZM879.52124 342.79376Q879.52124 343.90314 879.83374 344.40314Q880.33374 345.21564 881.1775 345.21564Q881.865 345.21564 882.365 344.6219Q882.8806 344.02814 882.8806 342.825Q882.8806 341.60626 882.39624 341.02814Q881.91187 340.45 881.22437 340.45Q880.53687 340.45 880.02124 341.0594Q879.52124 341.65314 879.52124 342.79376ZM889.8181 343.95L890.91187 344.075Q890.66187 345.02814 889.95874 345.5594Q889.2556 346.09064 888.1775 346.09064Q886.8181 346.09064 886.0056 345.2469Q885.20874 344.40314 885.20874 342.8875Q885.20874 341.325 886.02124 340.46564Q886.83374 339.59064 888.115 339.59064Q889.365 339.59064 890.14624 340.4344Q890.9431 341.27814 890.9431 342.825Q890.9431 342.91876 890.9431 343.10626L886.3025 343.10626Q886.365 344.1375 886.8806 344.6844Q887.39624 345.21564 888.1775 345.21564Q888.7556 345.21564 889.16187 344.91876Q889.58374 344.60626 889.8181 343.95ZM886.365 342.2469L889.83374 342.2469Q889.77124 341.45 889.4431 341.0594Q888.9275 340.45 888.1306 340.45Q887.39624 340.45 886.89624 340.9344Q886.41187 341.41876 886.365 342.2469ZM892.5525 345.95L892.5525 339.73126L893.5056 339.73126L893.5056 340.66876Q893.865 340.0125 894.16187 339.8094Q894.47437 339.59064 894.84937 339.59064Q895.3806 339.59064 895.9275 339.91876L895.5681 340.90314Q895.1775 340.66876 894.8025 340.66876Q894.4431 340.66876 894.16187 340.8875Q893.89624 341.09064 893.78687 341.46564Q893.59937 342.02814 893.59937 342.6844L893.59937 345.95L892.5525 345.95Z" fill-rule="nonzero"/><path fill="#000000" d="M913.0312 345.95L913.0312 337.35626L915.99994 337.35626Q916.99994 337.35626 917.5312 337.48126Q918.26556 337.65314 918.7812 338.09064Q919.4687 338.66876 919.7968 339.575Q920.14056 340.46564 920.14056 341.60626Q920.14056 342.59064 919.9062 343.34064Q919.68744 344.09064 919.32806 344.59064Q918.9687 345.09064 918.5312 345.3719Q918.1093 345.65314 917.51556 345.8094Q916.9218 345.95 916.14056 345.95L913.0312 345.95ZM914.1718 344.9344L915.99994 344.9344Q916.8593 344.9344 917.3437 344.77814Q917.82806 344.6219 918.1093 344.325Q918.51556 343.9344 918.7343 343.2469Q918.9687 342.5594 918.9687 341.59064Q918.9687 340.2469 918.51556 339.52814Q918.07806 338.79376 917.45306 338.54376Q916.9843 338.3719 915.9843 338.3719L914.1718 338.3719L914.1718 344.9344ZM926.1562 343.95L927.24994 344.075Q926.99994 345.02814 926.2968 345.5594Q925.5937 346.09064 924.51556 346.09064Q923.1562 346.09064 922.3437 345.2469Q921.5468 344.40314 921.5468 342.8875Q921.5468 341.325 922.3593 340.46564Q923.1718 339.59064 924.45306 339.59064Q925.70306 339.59064 926.4843 340.4344Q927.2812 341.27814 927.2812 342.825Q927.2812 342.91876 927.2812 343.10626L922.64056 343.10626Q922.70306 344.1375 923.2187 344.6844Q923.7343 345.21564 924.51556 345.21564Q925.0937 345.21564 925.49994 344.91876Q925.9218 344.60626 926.1562 343.95ZM922.70306 342.2469L926.1718 342.2469Q926.1093 341.45 925.7812 341.0594Q925.26556 340.45 924.4687 340.45Q923.7343 340.45 923.2343 340.9344Q922.74994 341.41876 922.70306 342.2469ZM932.9687 343.66876L933.99994 343.8094Q933.82806 344.8719 933.12494 345.48126Q932.4218 346.09064 931.4062 346.09064Q930.12494 346.09064 929.3437 345.2625Q928.57806 344.41876 928.57806 342.85626Q928.57806 341.85626 928.9062 341.10626Q929.24994 340.34064 929.9218 339.96564Q930.6093 339.59064 931.4218 339.59064Q932.4218 339.59064 933.06244 340.10626Q933.7187 340.60626 933.9062 341.5594L932.87494 341.71564Q932.7343 341.09064 932.3593 340.77814Q931.9843 340.45 931.45306 340.45Q930.6562 340.45 930.1562 341.02814Q929.6562 341.59064 929.6562 342.825Q929.6562 344.09064 930.14056 344.65314Q930.62494 345.21564 931.39056 345.21564Q932.01556 345.21564 932.4218 344.84064Q932.8437 344.46564 932.9687 343.66876ZM939.1562 343.95L940.24994 344.075Q939.99994 345.02814 939.2968 345.5594Q938.5937 346.09064 937.51556 346.09064Q936.1562 346.09064 935.3437 345.2469Q934.5468 344.40314 934.5468 342.8875Q934.5468 341.325 935.3593 340.46564Q936.1718 339.59064 937.45306 339.59064Q938.70306 339.59064 939.4843 340.4344Q940.2812 341.27814 940.2812 342.825Q940.2812 342.91876 940.2812 343.10626L935.64056 343.10626Q935.70306 344.1375 936.2187 344.6844Q936.7343 345.21564 937.51556 345.21564Q938.0937 345.21564 938.49994 344.91876Q938.9218 344.60626 939.1562 343.95ZM935.70306 342.2469L939.1718 342.2469Q939.1093 341.45 938.7812 341.0594Q938.26556 340.45 937.4687 340.45Q936.7343 340.45 936.2343 340.9344Q935.74994 341.41876 935.70306 342.2469ZM941.9062 345.95L941.9062 339.73126L942.8437 339.73126L942.8437 340.60626Q943.14056 340.1375 943.62494 339.8719Q944.1093 339.59064 944.7343 339.59064Q945.4218 339.59064 945.8593 339.8719Q946.31244 340.15314 946.4843 340.66876Q947.2343 339.59064 948.4062 339.59064Q949.3437 339.59064 949.82806 340.10626Q950.32806 340.60626 950.32806 341.6844L950.32806 345.95L949.2812 345.95L949.2812 342.02814Q949.2812 341.40314 949.1718 341.1219Q949.07806 340.84064 948.81244 340.66876Q948.5468 340.4969 948.1718 340.4969Q947.51556 340.4969 947.07806 340.9344Q946.6562 341.3719 946.6562 342.34064L946.6562 345.95L945.5937 345.95L945.5937 341.90314Q945.5937 341.2 945.32806 340.85626Q945.07806 340.4969 944.49994 340.4969Q944.0468 340.4969 943.6718 340.73126Q943.2968 340.96564 943.12494 341.41876Q942.95306 341.8719 942.95306 342.71564L942.95306 345.95L941.9062 345.95ZM953.87494 345.95L952.89056 345.95L952.89056 337.35626L953.95306 337.35626L953.95306 340.41876Q954.62494 339.59064 955.6562 339.59064Q956.2343 339.59064 956.7343 339.825Q957.24994 340.04376 957.57806 340.46564Q957.9218 340.8875 958.1093 341.48126Q958.2968 342.075 958.2968 342.7469Q958.2968 344.34064 957.49994 345.21564Q956.70306 346.09064 955.6093 346.09064Q954.49994 346.09064 953.87494 345.16876L953.87494 345.95ZM953.8593 342.79376Q953.8593 343.90314 954.1718 344.40314Q954.6718 345.21564 955.51556 345.21564Q956.20306 345.21564 956.70306 344.6219Q957.2187 344.02814 957.2187 342.825Q957.2187 341.60626 956.7343 341.02814Q956.24994 340.45 955.56244 340.45Q954.87494 340.45 954.3593 341.0594Q953.8593 341.65314 953.8593 342.79376ZM964.1562 343.95L965.24994 344.075Q964.99994 345.02814 964.2968 345.5594Q963.5937 346.09064 962.51556 346.09064Q961.1562 346.09064 960.3437 345.2469Q959.5468 344.40314 959.5468 342.8875Q959.5468 341.325 960.3593 340.46564Q961.1718 339.59064 962.45306 339.59064Q963.70306 339.59064 964.4843 340.4344Q965.2812 341.27814 965.2812 342.825Q965.2812 342.91876 965.2812 343.10626L960.64056 343.10626Q960.70306 344.1375 961.2187 344.6844Q961.7343 345.21564 962.51556 345.21564Q963.0937 345.21564 963.49994 344.91876Q963.9218 344.60626 964.1562 343.95ZM960.70306 342.2469L964.1718 342.2469Q964.1093 341.45 963.7812 341.0594Q963.26556 340.45 962.4687 340.45Q961.7343 340.45 961.2343 340.9344Q960.74994 341.41876 960.70306 342.2469ZM966.89056 345.95L966.89056 339.73126L967.8437 339.73126L967.8437 340.66876Q968.20306 340.0125 968.49994 339.8094Q968.81244 339.59064 969.18744 339.59064Q969.7187 339.59064 970.26556 339.91876L969.9062 340.90314Q969.51556 340.66876 969.14056 340.66876Q968.7812 340.66876 968.49994 340.8875Q968.2343 341.09064 968.12494 341.46564Q967.93744 342.02814 967.93744 342.6844L967.93744 345.95L966.89056 345.95Z" fill-rule="nonzero"/><path fill="#757575" d="M440.64062 39.05L435.09375 24.7375L437.14062 24.7375L440.85938 35.128124Q441.3125 36.378124 441.60938 37.471874Q441.9375 36.3 442.39062 35.128124L446.25 24.7375L448.1875 24.7375L442.57812 39.05L440.64062 39.05ZM449.32812 26.753124L449.32812 24.7375L451.09375 24.7375L451.09375 26.753124L449.32812 26.753124ZM449.32812 39.05L449.32812 28.675L451.09375 28.675L451.09375 39.05L449.32812 39.05ZM452.60938 35.95625L454.35938 35.675Q454.5 36.721874 455.17188 37.284374Q455.84375 37.83125 457.04688 37.83125Q458.25 37.83125 458.82812 37.346874Q459.42188 36.846874 459.42188 36.190624Q459.42188 35.596874 458.90625 35.253124Q458.54688 35.01875 457.10938 34.659374Q455.17188 34.159374 454.42188 33.815624Q453.6875 33.45625 453.29688 32.83125Q452.90625 32.190624 452.90625 31.425Q452.90625 30.7375 453.21875 30.14375Q453.54688 29.55 454.09375 29.159374Q454.5 28.8625 455.20312 28.659374Q455.92188 28.440624 456.73438 28.440624Q457.95312 28.440624 458.875 28.8Q459.79688 29.14375 460.23438 29.753124Q460.67188 30.346874 460.84375 31.346874L459.125 31.58125Q459.0 30.784374 458.4375 30.346874Q457.875 29.89375 456.85938 29.89375Q455.64062 29.89375 455.125 30.3Q454.60938 30.690624 454.60938 31.221874Q454.60938 31.565624 454.82812 31.846874Q455.03125 32.128124 455.5 32.315624Q455.76562 32.409374 457.04688 32.753124Q458.92188 33.253124 459.65625 33.58125Q460.39062 33.89375 460.8125 34.503124Q461.23438 35.096874 461.23438 36.003124Q461.23438 36.878124 460.71875 37.659374Q460.20312 38.440624 459.23438 38.8625Q458.26562 39.284374 457.04688 39.284374Q455.03125 39.284374 453.96875 38.440624Q452.90625 37.596874 452.60938 35.95625ZM463.32812 26.753124L463.32812 24.7375L465.09375 24.7375L465.09375 26.753124L463.32812 26.753124ZM463.32812 39.05L463.32812 28.675L465.09375 28.675L465.09375 39.05L463.32812 39.05ZM471.15625 37.471874L471.40625 39.034374Q470.67188 39.190624 470.07812 39.190624Q469.125 39.190624 468.59375 38.89375Q468.07812 38.58125 467.85938 38.096874Q467.64062 37.596874 467.64062 36.01875L467.64062 30.05L466.35938 30.05L466.35938 28.675L467.64062 28.675L467.64062 26.1125L469.39062 25.05L469.39062 28.675L471.15625 28.675L471.15625 30.05L469.39062 30.05L469.39062 36.1125Q469.39062 36.8625 469.48438 37.08125Q469.57812 37.284374 469.78125 37.425Q470.0 37.55 470.39062 37.55Q470.67188 37.55 471.15625 37.471874ZM472.60938 35.95625L474.35938 35.675Q474.5 36.721874 475.17188 37.284374Q475.84375 37.83125 477.04688 37.83125Q478.25 37.83125 478.82812 37.346874Q479.42188 36.846874 479.42188 36.190624Q479.42188 35.596874 478.90625 35.253124Q478.54688 35.01875 477.10938 34.659374Q475.17188 34.159374 474.42188 33.815624Q473.6875 33.45625 473.29688 32.83125Q472.90625 32.190624 472.90625 31.425Q472.90625 30.7375 473.21875 30.14375Q473.54688 29.55 474.09375 29.159374Q474.5 28.8625 475.20312 28.659374Q475.92188 28.440624 476.73438 28.440624Q477.95312 28.440624 478.875 28.8Q479.79688 29.14375 480.23438 29.753124Q480.67188 30.346874 480.84375 31.346874L479.125 31.58125Q479.0 30.784374 478.4375 30.346874Q477.875 29.89375 476.85938 29.89375Q475.64062 29.89375 475.125 30.3Q474.60938 30.690624 474.60938 31.221874Q474.60938 31.565624 474.82812 31.846874Q475.03125 32.128124 475.5 32.315624Q475.76562 32.409374 477.04688 32.753124Q478.92188 33.253124 479.65625 33.58125Q480.39062 33.89375 480.8125 34.503124Q481.23438 35.096874 481.23438 36.003124Q481.23438 36.878124 480.71875 37.659374Q480.20312 38.440624 479.23438 38.8625Q478.26562 39.284374 477.04688 39.284374Q475.03125 39.284374 473.96875 38.440624Q472.90625 37.596874 472.60938 35.95625ZM489.3125 43.01875L489.3125 28.675L490.92188 28.675L490.92188 30.01875Q491.48438 29.2375 492.1875 28.846874Q492.90625 28.440624 493.92188 28.440624Q495.25 28.440624 496.26562 29.128124Q497.28125 29.815624 497.79688 31.065624Q498.32812 32.3 498.32812 33.784374Q498.32812 35.378124 497.75 36.659374Q497.1875 37.925 496.09375 38.6125Q495.0 39.284374 493.79688 39.284374Q492.92188 39.284374 492.21875 38.909374Q491.53125 38.534374 491.07812 37.971874L491.07812 43.01875L489.3125 43.01875ZM490.90625 33.925Q490.90625 35.925 491.71875 36.878124Q492.53125 37.83125 493.6875 37.83125Q494.85938 37.83125 495.6875 36.846874Q496.53125 35.8625 496.53125 33.76875Q496.53125 31.8 495.70312 30.815624Q494.89062 29.815624 493.76562 29.815624Q492.64062 29.815624 491.76562 30.878124Q490.90625 31.925 490.90625 33.925ZM507.42188 35.70625L509.23438 35.940624Q508.8125 37.51875 507.64062 38.409374Q506.48438 39.284374 504.67188 39.284374Q502.40625 39.284374 501.0625 37.89375Q499.73438 36.4875 499.73438 33.95625Q499.73438 31.33125 501.07812 29.89375Q502.42188 28.440624 504.57812 28.440624Q506.65625 28.440624 507.96875 29.8625Q509.29688 31.26875 509.29688 33.846874Q509.29688 34.003124 509.28125 34.315624L501.54688 34.315624Q501.64062 36.01875 502.51562 36.925Q503.39062 37.83125 504.6875 37.83125Q505.65625 37.83125 506.32812 37.33125Q507.01562 36.815624 507.42188 35.70625ZM501.64062 32.8625L507.4375 32.8625Q507.32812 31.565624 506.78125 30.909374Q505.9375 29.89375 504.59375 29.89375Q503.39062 29.89375 502.5625 30.70625Q501.73438 31.503124 501.64062 32.8625ZM511.29688 39.05L511.29688 28.675L512.875 28.675L512.875 30.253124Q513.4844 29.14375 514.0 28.8Q514.5156 28.440624 515.125 28.440624Q516.0156 28.440624 516.9375 29.003124L516.3281 30.64375Q515.6875 30.253124 515.0469 30.253124Q514.46875 30.253124 514.0 30.6125Q513.5469 30.95625 513.34375 31.565624Q513.0625 32.503124 513.0625 33.6125L513.0625 39.05L511.29688 39.05ZM524.3125 39.05L524.3125 28.675L525.8906 28.675L525.8906 30.128124Q526.375 29.378124 527.1875 28.909374Q528.0 28.440624 529.03125 28.440624Q530.1875 28.440624 530.9219 28.925Q531.65625 29.39375 531.96875 30.253124Q533.2031 28.440624 535.1719 28.440624Q536.71875 28.440624 537.5469 29.3Q538.375 30.159374 538.375 31.925L538.375 39.05L536.625 39.05L536.625 32.51875Q536.625 31.45625 536.4531 31.003124Q536.28125 30.534374 535.8281 30.253124Q535.3906 29.971874 534.78125 29.971874Q533.6875 29.971874 532.9531 30.70625Q532.2344 31.425 532.2344 33.01875L532.2344 39.05L530.4844 39.05L530.4844 32.315624Q530.4844 31.14375 530.0469 30.565624Q529.625 29.971874 528.6406 29.971874Q527.90625 29.971874 527.2656 30.3625Q526.6406 30.753124 526.3594 31.503124Q526.0781 32.253124 526.0781 33.675L526.0781 39.05L524.3125 39.05ZM539.6719 33.8625Q539.6719 30.9875 541.2656 29.596874Q542.6094 28.440624 544.53125 28.440624Q546.6719 28.440624 548.0156 29.846874Q549.375 31.253124 549.375 33.721874Q549.375 35.721874 548.78125 36.878124Q548.1875 38.01875 547.03125 38.659374Q545.8906 39.284374 544.53125 39.284374Q542.34375 39.284374 541.0 37.89375Q539.6719 36.4875 539.6719 33.8625ZM541.46875 33.8625Q541.46875 35.8625 542.3281 36.846874Q543.2031 37.83125 544.53125 37.83125Q545.84375 37.83125 546.7031 36.846874Q547.5781 35.846874 547.5781 33.8Q547.5781 31.878124 546.7031 30.89375Q545.8281 29.89375 544.53125 29.89375Q543.2031 29.89375 542.3281 30.89375Q541.46875 31.878124 541.46875 33.8625ZM551.3125 39.05L551.3125 28.675L552.90625 28.675L552.90625 30.159374Q554.0469 28.440624 556.2031 28.440624Q557.1406 28.440624 557.9219 28.784374Q558.71875 29.1125 559.1094 29.659374Q559.5 30.20625 559.65625 30.95625Q559.75 31.45625 559.75 32.675L559.75 39.05L557.9844 39.05L557.9844 32.7375Q557.9844 31.659374 557.78125 31.128124Q557.5781 30.596874 557.0469 30.284374Q556.53125 29.971874 555.8281 29.971874Q554.7031 29.971874 553.8906 30.690624Q553.0781 31.39375 553.0781 33.378124L553.0781 39.05L551.3125 39.05ZM565.15625 37.471874L565.40625 39.034374Q564.6719 39.190624 564.0781 39.190624Q563.125 39.190624 562.59375 38.89375Q562.0781 38.58125 561.8594 38.096874Q561.6406 37.596874 561.6406 36.01875L561.6406 30.05L560.3594 30.05L560.3594 28.675L561.6406 28.675L561.6406 26.1125L563.3906 25.05L563.3906 28.675L565.15625 28.675L565.15625 30.05L563.3906 30.05L563.3906 36.1125Q563.3906 36.8625 563.4844 37.08125Q563.5781 37.284374 563.78125 37.425Q564.0 37.55 564.3906 37.55Q564.6719 37.55 565.15625 37.471874ZM567.3125 39.05L567.3125 24.7375L569.0781 24.7375L569.0781 29.8625Q570.3125 28.440624 572.1875 28.440624Q573.3281 28.440624 574.1719 28.89375Q575.03125 29.346874 575.3906 30.159374Q575.7656 30.95625 575.7656 32.471874L575.7656 39.05L574.0156 39.05L574.0156 32.471874Q574.0156 31.159374 573.4375 30.565624Q572.8594 29.95625 571.8281 29.95625Q571.0469 29.95625 570.34375 30.3625Q569.65625 30.76875 569.3594 31.471874Q569.0781 32.159374 569.0781 33.378124L569.0781 39.05L567.3125 39.05Z" fill-rule="nonzero"/></svg>