<svg version="1.1" viewBox="0.0 0.0 810.0 401.0" fill="none" stroke="none" stroke-linecap="square" stroke-miterlimit="10" width="810" height="401" xmlns:xlink="http://www.w3.org/1999/xlink" xmlns="http://www.w3.org/2000/svg"><path fill="#ffffff" d="M0 0L810.0 0L810.0 401.0L0 401.0L0 0Z" fill-rule="nonzero"/><path fill="#3b82f6" d="M368.7571 56.54813C451.37488 56.54813 520.71686 118.80402 529.58844 200.94408C538.46 283.08414 484.01016 358.71027 403.2977 376.3509L386.0274 297.33282C426.38364 288.51254 453.60858 250.69946 449.1728 209.62944C444.73697 168.5594 410.066 137.43146 368.7571 137.43146Z" fill-rule="nonzero"/><path fill="#46bdc6" d="M319.4079 62.779587C332.88846 59.219246 346.77277 57.416668 360.71555 57.416668L360.71555 138.3C353.74417 138.3 346.802 139.2013 340.06174 140.98146Z" fill-rule="nonzero"/><path fill="#b7b7b7" d="M286.96506 75.206535C297.30188 69.91161 308.17886 65.74527 319.4079 62.779587L340.06174 140.98146C334.4472 142.46431 329.00873 144.54747 323.8403 147.19493Z" fill-rule="nonzero"/><path fill="#d946ef" d="M257.9238 94.27414C266.89166 86.89419 276.6282 80.501465 286.96506 75.206535L323.8403 147.19493C318.67188 149.8424 313.80362 153.03876 309.31967 156.72873Z" fill-rule="nonzero"/><path fill="#fbbc04" d="M201.97289 250.31558C190.53067 191.972 212.01521 132.05377 257.9238 94.27414L309.31967 156.72873C286.3654 175.61855 275.6231 205.57767 281.3442 234.74947Z" fill-rule="nonzero"/><path fill="#ef4444" d="M395.25613 377.21942C352.75284 386.509 308.29935 378.2865 271.93106 354.4082C235.56277 330.5299 210.3458 293.0089 201.97289 250.31558L281.3442 234.74947C285.53067 256.09613 298.13916 274.85663 316.3233 286.79578C334.50745 298.73492 356.7342 302.84616 377.98584 298.2014Z" fill-rule="nonzero"/><path fill="#000000" d="M476.32935 210.1151L476.32935 208.09947L472.2356 208.09947L472.2356 206.41197L476.57935 200.0526L478.18872 200.0526L478.18872 206.41197L479.43872 206.41197L479.43872 208.09947L478.18872 208.09947L478.18872 210.1151L476.32935 210.1151ZM476.32935 206.41197L476.32935 202.9901L474.03247 206.41197L476.32935 206.41197ZM487.07935 202.5526L485.21997 202.75572Q485.14185 202.1776 484.84497 201.91197Q484.56372 201.63072 484.1106 201.63072Q483.50122 201.63072 483.07935 202.1776Q482.65747 202.72447 482.5481 204.45885Q483.26685 203.59947 484.34497 203.59947Q485.5481 203.59947 486.39185 204.52135Q487.25122 205.44322 487.25122 206.88072Q487.25122 208.4276 486.34497 209.3651Q485.45435 210.28697 484.03247 210.28697Q482.51685 210.28697 481.53247 209.1151Q480.56372 207.9276 480.56372 205.2401Q480.56372 202.4901 481.57935 201.27135Q482.59497 200.0526 484.2356 200.0526Q485.37622 200.0526 486.1106 200.69322Q486.8606 201.33385 487.07935 202.5526ZM482.71997 206.7401Q482.71997 207.6776 483.14185 208.19322Q483.57935 208.69322 484.12622 208.69322Q484.6731 208.69322 485.01685 208.28697Q485.37622 207.8651 485.37622 206.91197Q485.37622 205.9276 484.9856 205.47447Q484.6106 205.02135 484.03247 205.02135Q483.4856 205.02135 483.09497 205.45885Q482.71997 205.89635 482.71997 206.7401ZM488.96997 210.1151L488.96997 208.19322L490.89185 208.19322L490.89185 210.1151L488.96997 210.1151ZM499.07935 202.5526L497.21997 202.75572Q497.14185 202.1776 496.84497 201.91197Q496.56372 201.63072 496.1106 201.63072Q495.50122 201.63072 495.07935 202.1776Q494.65747 202.72447 494.5481 204.45885Q495.26685 203.59947 496.34497 203.59947Q497.5481 203.59947 498.39185 204.52135Q499.25122 205.44322 499.25122 206.88072Q499.25122 208.4276 498.34497 209.3651Q497.45435 210.28697 496.03247 210.28697Q494.51685 210.28697 493.53247 209.1151Q492.56372 207.9276 492.56372 205.2401Q492.56372 202.4901 493.57935 201.27135Q494.59497 200.0526 496.2356 200.0526Q497.37622 200.0526 498.1106 200.69322Q498.8606 201.33385 499.07935 202.5526ZM494.71997 206.7401Q494.71997 207.6776 495.14185 208.19322Q495.57935 208.69322 496.12622 208.69322Q496.6731 208.69322 497.01685 208.28697Q497.37622 207.8651 497.37622 206.91197Q497.37622 205.9276 496.9856 205.47447Q496.6106 205.02135 496.03247 205.02135Q495.4856 205.02135 495.09497 205.45885Q494.71997 205.89635 494.71997 206.7401ZM500.57935 202.56822Q500.57935 201.22447 501.1731 200.58385Q501.76685 199.9276 502.76685 199.9276Q503.81372 199.9276 504.40747 200.56822Q505.00122 201.20885 505.00122 202.56822Q505.00122 203.91197 504.40747 204.56822Q503.81372 205.20885 502.81372 205.20885Q501.76685 205.20885 501.1731 204.56822Q500.57935 203.9276 500.57935 202.56822ZM502.07935 202.5526Q502.07935 203.53697 502.2981 203.8651Q502.46997 204.1151 502.76685 204.1151Q503.07935 204.1151 503.25122 203.8651Q503.46997 203.53697 503.46997 202.5526Q503.46997 201.58385 503.25122 201.25572Q503.07935 200.9901 502.76685 200.9901Q502.46997 200.9901 502.2981 201.2401Q502.07935 201.58385 502.07935 202.5526ZM504.2356 210.50572L502.81372 210.50572L508.15747 199.9276L509.53247 199.9276L504.2356 210.50572ZM507.34497 207.8651Q507.34497 206.52135 507.9231 205.88072Q508.51685 205.22447 509.5481 205.22447Q510.57935 205.22447 511.1731 205.88072Q511.76685 206.52135 511.76685 207.8651Q511.76685 209.22447 511.1731 209.88072Q510.57935 210.52135 509.56372 210.52135Q508.51685 210.52135 507.9231 209.88072Q507.34497 209.22447 507.34497 207.8651ZM508.82935 207.8651Q508.82935 208.83385 509.06372 209.16197Q509.2356 209.41197 509.53247 209.41197Q509.84497 209.41197 510.00122 209.1776Q510.2356 208.83385 510.2356 207.8651Q510.2356 206.88072 510.01685 206.5526Q509.84497 206.3026 509.53247 206.3026Q509.21997 206.3026 509.06372 206.5526Q508.82935 206.88072 508.82935 207.8651Z" fill-rule="nonzero"/><path fill="#000000" d="M282.14026 323.91983L282.14026 325.70108L275.40588 325.70108Q275.51526 324.68546 276.06213 323.7792Q276.609 322.87296 278.234 321.37296Q279.53088 320.16983 279.82776 319.73233Q280.21838 319.13858 280.21838 318.56046Q280.21838 317.91983 279.87463 317.57608Q279.53088 317.23233 278.9215 317.23233Q278.31213 317.23233 277.95276 317.5917Q277.609 317.95108 277.5465 318.79483L275.64026 318.60733Q275.81213 317.01358 276.70276 316.32608Q277.609 315.63858 278.96838 315.63858Q280.45276 315.63858 281.2965 316.43546Q282.14026 317.23233 282.14026 318.41983Q282.14026 319.10733 281.89026 319.7167Q281.65588 320.32608 281.14026 320.99796Q280.78088 321.43546 279.87463 322.2792Q278.96838 323.10733 278.71838 323.38858Q278.484 323.6542 278.32776 323.91983L282.14026 323.91983ZM283.68713 323.12296L285.59338 322.91983Q285.68713 323.57608 286.07776 323.95108Q286.484 324.32608 287.01526 324.32608Q287.609 324.32608 288.03088 323.8417Q288.45276 323.35733 288.45276 322.37296Q288.45276 321.45108 288.03088 320.99796Q287.62463 320.5292 286.95276 320.5292Q286.12463 320.5292 285.46838 321.26358L283.9215 321.0292L284.90588 315.81046L289.984 315.81046L289.984 317.60733L286.359 317.60733L286.06213 319.31046Q286.70276 318.99796 287.37463 318.99796Q288.64026 318.99796 289.53088 319.93546Q290.4215 320.85733 290.4215 322.3417Q290.4215 323.57608 289.70276 324.54483Q288.734 325.87296 286.99963 325.87296Q285.609 325.87296 284.734 325.13858Q283.859 324.38858 283.68713 323.12296ZM292.06213 325.70108L292.06213 323.7792L293.984 323.7792L293.984 325.70108L292.06213 325.70108ZM295.59338 323.04483L297.45276 322.81046Q297.53088 323.5292 297.9215 323.9042Q298.31213 324.2792 298.87463 324.2792Q299.46838 324.2792 299.87463 323.82608Q300.28088 323.37296 300.28088 322.60733Q300.28088 321.88858 299.89026 321.4667Q299.49963 321.04483 298.93713 321.04483Q298.56213 321.04483 298.06213 321.18546L298.26526 319.62296Q299.0465 319.63858 299.45276 319.2792Q299.87463 318.91983 299.87463 318.32608Q299.87463 317.82608 299.56213 317.5292Q299.26526 317.2167 298.76526 317.2167Q298.28088 317.2167 297.9215 317.56046Q297.57776 317.9042 297.49963 318.56046L295.734 318.26358Q295.9215 317.3417 296.28088 316.81046Q296.65588 316.26358 297.32776 315.95108Q297.99963 315.63858 298.82776 315.63858Q300.234 315.63858 301.09338 316.54483Q301.7965 317.2792 301.7965 318.20108Q301.7965 319.5292 300.359 320.31046Q301.21838 320.49796 301.734 321.13858Q302.24963 321.7792 302.24963 322.68546Q302.24963 324.01358 301.28088 324.95108Q300.31213 325.87296 298.89026 325.87296Q297.53088 325.87296 296.62463 325.0917Q295.734 324.31046 295.59338 323.04483ZM303.6715 318.1542Q303.6715 316.81046 304.26526 316.16983Q304.859 315.51358 305.859 315.51358Q306.90588 315.51358 307.49963 316.1542Q308.09338 316.79483 308.09338 318.1542Q308.09338 319.49796 307.49963 320.1542Q306.90588 320.79483 305.90588 320.79483Q304.859 320.79483 304.26526 320.1542Q303.6715 319.51358 303.6715 318.1542ZM305.1715 318.13858Q305.1715 319.12296 305.39026 319.45108Q305.56213 319.70108 305.859 319.70108Q306.1715 319.70108 306.34338 319.45108Q306.56213 319.12296 306.56213 318.13858Q306.56213 317.16983 306.34338 316.8417Q306.1715 316.57608 305.859 316.57608Q305.56213 316.57608 305.39026 316.82608Q305.1715 317.16983 305.1715 318.13858ZM307.32776 326.0917L305.90588 326.0917L311.24963 315.51358L312.62463 315.51358L307.32776 326.0917ZM310.43713 323.45108Q310.43713 322.10733 311.01526 321.4667Q311.609 320.81046 312.64026 320.81046Q313.6715 320.81046 314.26526 321.4667Q314.859 322.10733 314.859 323.45108Q314.859 324.81046 314.26526 325.4667Q313.6715 326.10733 312.65588 326.10733Q311.609 326.10733 311.01526 325.4667Q310.43713 324.81046 310.43713 323.45108ZM311.9215 323.45108Q311.9215 324.41983 312.15588 324.74796Q312.32776 324.99796 312.62463 324.99796Q312.93713 324.99796 313.09338 324.76358Q313.32776 324.41983 313.32776 323.45108Q313.32776 322.4667 313.109 322.13858Q312.93713 321.88858 312.62463 321.88858Q312.31213 321.88858 312.15588 322.13858Q311.9215 322.4667 311.9215 323.45108Z" fill-rule="nonzero"/><path fill="#000000" d="M233.02586 183.23337L231.10399 183.23337L231.10399 175.999Q230.04149 176.98337 228.61961 177.45212L228.61961 175.70212Q229.36961 175.46774 230.24461 174.78024Q231.13524 174.09274 231.46336 173.17087L233.02586 173.17087L233.02586 183.23337ZM236.10399 175.13962L236.10399 173.34274L242.68211 173.34274L242.68211 174.749Q241.85399 175.54587 241.01024 177.04587Q240.18211 178.53024 239.72899 180.21774Q239.29149 181.90524 239.30711 183.23337L237.44774 183.23337Q237.49461 181.15524 238.30711 178.999Q239.11961 176.82712 240.47899 175.13962L236.10399 175.13962ZM244.51024 183.23337L244.51024 181.3115L246.43211 181.3115L246.43211 183.23337L244.51024 183.23337ZM253.02586 183.23337L251.10399 183.23337L251.10399 175.999Q250.04149 176.98337 248.61961 177.45212L248.61961 175.70212Q249.36961 175.46774 250.24461 174.78024Q251.13524 174.09274 251.46336 173.17087L253.02586 173.17087L253.02586 183.23337ZM256.11963 175.6865Q256.11963 174.34274 256.71338 173.70212Q257.30713 173.04587 258.30713 173.04587Q259.354 173.04587 259.94775 173.6865Q260.5415 174.32712 260.5415 175.6865Q260.5415 177.03024 259.94775 177.6865Q259.354 178.32712 258.354 178.32712Q257.30713 178.32712 256.71338 177.6865Q256.11963 177.04587 256.11963 175.6865ZM257.61963 175.67087Q257.61963 176.65524 257.83838 176.98337Q258.01025 177.23337 258.30713 177.23337Q258.61963 177.23337 258.7915 176.98337Q259.01025 176.65524 259.01025 175.67087Q259.01025 174.70212 258.7915 174.374Q258.61963 174.10837 258.30713 174.10837Q258.01025 174.10837 257.83838 174.35837Q257.61963 174.70212 257.61963 175.67087ZM259.77588 183.624L258.354 183.624L263.69775 173.04587L265.07275 173.04587L259.77588 183.624ZM262.88525 180.98337Q262.88525 179.63962 263.46338 178.999Q264.05713 178.34274 265.08838 178.34274Q266.11963 178.34274 266.71338 178.999Q267.30713 179.63962 267.30713 180.98337Q267.30713 182.34274 266.71338 182.999Q266.11963 183.63962 265.104 183.63962Q264.05713 183.63962 263.46338 182.999Q262.88525 182.34274 262.88525 180.98337ZM264.36963 180.98337Q264.36963 181.95212 264.604 182.28024Q264.77588 182.53024 265.07275 182.53024Q265.38525 182.53024 265.5415 182.29587Q265.77588 181.95212 265.77588 180.98337Q265.77588 179.999 265.55713 179.67087Q265.38525 179.42087 265.07275 179.42087Q264.76025 179.42087 264.604 179.67087Q264.36963 179.999 264.36963 180.98337Z" fill-rule="nonzero"/><path fill="#000000" d="M333.16132 93.906845L333.16132 91.89122L329.06757 91.89122L329.06757 90.20372L333.41132 83.844345L335.0207 83.844345L335.0207 90.20372L336.2707 90.20372L336.2707 91.89122L335.0207 91.89122L335.0207 93.906845L333.16132 93.906845ZM333.16132 90.20372L333.16132 86.781845L330.86444 90.20372L333.16132 90.20372ZM337.80194 93.906845L337.80194 91.98497L339.72382 91.98497L339.72382 93.906845L337.80194 93.906845ZM346.31757 93.906845L344.3957 93.906845L344.3957 86.67247Q343.3332 87.656845 341.91132 88.125595L341.91132 86.375595Q342.66132 86.14122 343.53632 85.45372Q344.42694 84.76622 344.75507 83.844345L346.31757 83.844345L346.31757 93.906845ZM349.41132 86.35997Q349.41132 85.01622 350.00507 84.375595Q350.59882 83.719345 351.59882 83.719345Q352.6457 83.719345 353.23944 84.35997Q353.8332 85.000595 353.8332 86.35997Q353.8332 87.70372 353.23944 88.35997Q352.6457 89.000595 351.6457 89.000595Q350.59882 89.000595 350.00507 88.35997Q349.41132 87.719345 349.41132 86.35997ZM350.91132 86.344345Q350.91132 87.32872 351.13007 87.656845Q351.30194 87.906845 351.59882 87.906845Q351.91132 87.906845 352.0832 87.656845Q352.30194 87.32872 352.30194 86.344345Q352.30194 85.375595 352.0832 85.04747Q351.91132 84.781845 351.59882 84.781845Q351.30194 84.781845 351.13007 85.031845Q350.91132 85.375595 350.91132 86.344345ZM353.06757 94.29747L351.6457 94.29747L356.98944 83.719345L358.36444 83.719345L353.06757 94.29747ZM356.17694 91.656845Q356.17694 90.313095 356.75507 89.67247Q357.34882 89.01622 358.38007 89.01622Q359.41132 89.01622 360.00507 89.67247Q360.59882 90.313095 360.59882 91.656845Q360.59882 93.01622 360.00507 93.67247Q359.41132 94.313095 358.3957 94.313095Q357.34882 94.313095 356.75507 93.67247Q356.17694 93.01622 356.17694 91.656845ZM357.66132 91.656845Q357.66132 92.625595 357.8957 92.95372Q358.06757 93.20372 358.36444 93.20372Q358.67694 93.20372 358.8332 92.969345Q359.06757 92.625595 359.06757 91.656845Q359.06757 90.67247 358.84882 90.344345Q358.67694 90.094345 358.36444 90.094345Q358.05194 90.094345 357.8957 90.344345Q357.66132 90.67247 357.66132 91.656845Z" fill-rule="nonzero"/><path fill="#3b82f6" d="M734.95 64.416664C734.95 67.73038 732.26373 70.416664 728.95 70.416664C725.6363 70.416664 722.95 67.73038 722.95 64.416664C722.95 61.10296 725.6363 58.416668 728.95 58.416668C732.26373 58.416668 734.95 61.10296 734.95 64.416664Z" fill-rule="nonzero"/><path fill="#1a1a1a" d="M743.90314 68.416664L743.90314 59.822914L750.10626 59.822914L750.10626 60.83854L745.04376 60.83854L745.04376 63.46354L749.79376 63.46354L749.79376 64.479164L745.04376 64.479164L745.04376 67.40104L750.3094 67.40104L750.3094 68.416664L743.90314 68.416664ZM751.7469 68.416664L751.7469 62.197914L752.6844 62.197914L752.6844 63.072914Q753.3719 62.05729 754.66876 62.05729Q755.23126 62.05729 755.7 62.260414Q756.1844 62.46354 756.41876 62.791664Q756.65314 63.11979 756.7469 63.55729Q756.79376 63.854164 756.79376 64.58854L756.79376 68.416664L755.7469 68.416664L755.7469 64.635414Q755.7469 63.979164 755.6219 63.666664Q755.4969 63.354164 755.1844 63.166664Q754.8719 62.96354 754.45 62.96354Q753.77814 62.96354 753.27814 63.40104Q752.79376 63.822914 752.79376 65.010414L752.79376 68.416664L751.7469 68.416664ZM758.54376 68.93229L759.575 69.08854Q759.6375 69.55729 759.9344 69.77604Q760.325 70.072914 760.9969 70.072914Q761.73126 70.072914 762.1219 69.77604Q762.52814 69.479164 762.66876 68.96354Q762.7625 68.635414 762.7469 67.604164Q762.0594 68.416664 761.02814 68.416664Q759.7469 68.416664 759.04376 67.49479Q758.34064 66.55729 758.34064 65.27604Q758.34064 64.385414 758.65314 63.635414Q758.98126 62.86979 759.59064 62.46354Q760.2 62.05729 761.02814 62.05729Q762.1375 62.05729 762.85626 62.947914L762.85626 62.197914L763.825 62.197914L763.825 67.572914Q763.825 69.02604 763.52814 69.635414Q763.23126 70.24479 762.59064 70.58854Q761.95 70.947914 761.0125 70.947914Q759.90314 70.947914 759.21564 70.447914Q758.52814 69.947914 758.54376 68.93229ZM759.41876 65.197914Q759.41876 66.416664 759.90314 66.979164Q760.3875 67.541664 761.1219 67.541664Q761.85626 67.541664 762.34064 66.979164Q762.84064 66.416664 762.84064 65.229164Q762.84064 64.08854 762.325 63.510414Q761.825 62.93229 761.10626 62.93229Q760.40314 62.93229 759.90314 63.510414Q759.41876 64.072914 759.41876 65.197914ZM765.71564 68.416664L765.71564 59.822914L766.77814 59.822914L766.77814 68.416664L765.71564 68.416664ZM768.7469 61.041664L768.7469 59.822914L769.8094 59.822914L769.8094 61.041664L768.7469 61.041664ZM768.7469 68.416664L768.7469 62.197914L769.8094 62.197914L769.8094 68.416664L768.7469 68.416664ZM771.325 66.55729L772.35626 66.40104Q772.45 67.02604 772.84064 67.354164Q773.2469 67.68229 773.98126 67.68229Q774.7 67.68229 775.04376 67.40104Q775.40314 67.104164 775.40314 66.697914Q775.40314 66.33854 775.09064 66.135414Q774.8719 65.99479 774.0125 65.77604Q772.85626 65.479164 772.40314 65.27604Q771.96564 65.05729 771.73126 64.68229Q771.4969 64.30729 771.4969 63.83854Q771.4969 63.43229 771.6844 63.072914Q771.8719 62.71354 772.2 62.479164Q772.45 62.30729 772.8719 62.18229Q773.29376 62.05729 773.79376 62.05729Q774.5125 62.05729 775.0594 62.27604Q775.6219 62.479164 775.8875 62.83854Q776.15314 63.197914 776.2469 63.791664L775.21564 63.93229Q775.15314 63.46354 774.8094 63.197914Q774.48126 62.916664 773.85626 62.916664Q773.1375 62.916664 772.825 63.166664Q772.5125 63.40104 772.5125 63.729164Q772.5125 63.93229 772.6375 64.08854Q772.77814 64.260414 773.04376 64.36979Q773.2 64.43229 773.98126 64.635414Q775.10626 64.947914 775.54376 65.135414Q775.98126 65.322914 776.23126 65.68229Q776.48126 66.041664 776.48126 66.58854Q776.48126 67.11979 776.16876 67.58854Q775.8719 68.041664 775.29376 68.30729Q774.71564 68.55729 773.98126 68.55729Q772.7625 68.55729 772.1219 68.05729Q771.4969 67.541664 771.325 66.55729ZM778.7469 68.416664L778.7469 59.822914L779.79376 59.822914L779.79376 62.90104Q780.52814 62.05729 781.65314 62.05729Q782.35626 62.05729 782.85626 62.33854Q783.3719 62.604164 783.59064 63.08854Q783.8094 63.55729 783.8094 64.479164L783.8094 68.416664L782.7625 68.416664L782.7625 64.479164Q782.7625 63.68229 782.41876 63.322914Q782.075 62.96354 781.45 62.96354Q780.98126 62.96354 780.5594 63.21354Q780.15314 63.447914 779.96564 63.86979Q779.79376 64.27604 779.79376 65.010414L779.79376 68.416664L778.7469 68.416664Z" fill-rule="nonzero"/><path fill="#ef4444" d="M734.95 88.416664C734.95 91.73038 732.26373 94.416664 728.95 94.416664C725.6363 94.416664 722.95 91.73038 722.95 88.416664C722.95 85.10296 725.6363 82.416664 728.95 82.416664C732.26373 82.416664 734.95 85.10296 734.95 88.416664Z" fill-rule="nonzero"/><path fill="#1a1a1a" d="M747.90314 89.041664L747.90314 88.041664L751.52814 88.02604L751.52814 91.21354Q750.7 91.885414 749.8094 92.229164Q748.91876 92.55729 747.98126 92.55729Q746.71564 92.55729 745.66876 92.02604Q744.6375 91.479164 744.10626 90.46354Q743.59064 89.43229 743.59064 88.166664Q743.59064 86.90104 744.10626 85.822914Q744.6375 84.729164 745.6219 84.21354Q746.60626 83.68229 747.8875 83.68229Q748.825 83.68229 749.575 83.979164Q750.325 84.27604 750.7469 84.822914Q751.1844 85.354164 751.40314 86.229164L750.3875 86.510414Q750.1844 85.854164 749.8875 85.479164Q749.60626 85.104164 749.075 84.885414Q748.54376 84.65104 747.90314 84.65104Q747.1219 84.65104 746.54376 84.885414Q745.98126 85.11979 745.6219 85.510414Q745.27814 85.90104 745.09064 86.36979Q744.7625 87.166664 744.7625 88.08854Q744.7625 89.24479 745.15314 90.02604Q745.5594 90.791664 746.3094 91.166664Q747.0594 91.541664 747.91876 91.541664Q748.65314 91.541664 749.35626 91.260414Q750.0594 90.96354 750.41876 90.65104L750.41876 89.041664L747.90314 89.041664ZM756.9969 90.416664L758.09064 90.541664Q757.84064 91.49479 757.1375 92.02604Q756.4344 92.55729 755.35626 92.55729Q753.9969 92.55729 753.1844 91.71354Q752.3875 90.86979 752.3875 89.354164Q752.3875 87.791664 753.2 86.93229Q754.0125 86.05729 755.29376 86.05729Q756.54376 86.05729 757.325 86.90104Q758.1219 87.74479 758.1219 89.291664Q758.1219 89.385414 758.1219 89.572914L753.48126 89.572914Q753.54376 90.604164 754.0594 91.15104Q754.575 91.68229 755.35626 91.68229Q755.9344 91.68229 756.34064 91.385414Q756.7625 91.072914 756.9969 90.416664ZM753.54376 88.71354L757.0125 88.71354Q756.95 87.916664 756.6219 87.52604Q756.10626 86.916664 755.3094 86.916664Q754.575 86.916664 754.075 87.40104Q753.59064 87.885414 753.54376 88.71354ZM759.73126 92.416664L759.73126 86.197914L760.6844 86.197914L760.6844 87.135414Q761.04376 86.479164 761.34064 86.27604Q761.65314 86.05729 762.02814 86.05729Q762.5594 86.05729 763.10626 86.385414L762.7469 87.36979Q762.35626 87.135414 761.98126 87.135414Q761.6219 87.135414 761.34064 87.354164Q761.075 87.55729 760.96564 87.93229Q760.77814 88.49479 760.77814 89.15104L760.77814 92.416664L759.73126 92.416664ZM763.7469 92.416664L763.7469 86.197914L764.6844 86.197914L764.6844 87.072914Q764.98126 86.604164 765.46564 86.33854Q765.95 86.05729 766.575 86.05729Q767.2625 86.05729 767.7 86.33854Q768.15314 86.61979 768.325 87.135414Q769.075 86.05729 770.2469 86.05729Q771.1844 86.05729 771.66876 86.572914Q772.16876 87.072914 772.16876 88.15104L772.16876 92.416664L771.1219 92.416664L771.1219 88.49479Q771.1219 87.86979 771.0125 87.58854Q770.91876 87.30729 770.65314 87.135414Q770.3875 86.96354 770.0125 86.96354Q769.35626 86.96354 768.91876 87.40104Q768.4969 87.83854 768.4969 88.80729L768.4969 92.416664L767.4344 92.416664L767.4344 88.36979Q767.4344 87.666664 767.16876 87.322914Q766.91876 86.96354 766.34064 86.96354Q765.8875 86.96354 765.5125 87.197914Q765.1375 87.43229 764.96564 87.885414Q764.79376 88.33854 764.79376 89.18229L764.79376 92.416664L763.7469 92.416664ZM778.8094 91.65104Q778.21564 92.15104 777.66876 92.354164Q777.1375 92.55729 776.5125 92.55729Q775.48126 92.55729 774.9344 92.05729Q774.3875 91.55729 774.3875 90.77604Q774.3875 90.322914 774.59064 89.947914Q774.79376 89.55729 775.1375 89.33854Q775.48126 89.104164 775.90314 88.99479Q776.2 88.90104 776.84064 88.822914Q778.10626 88.68229 778.71564 88.46354Q778.71564 88.24479 778.71564 88.197914Q778.71564 87.541664 778.41876 87.27604Q778.0125 86.93229 777.21564 86.93229Q776.48126 86.93229 776.1219 87.197914Q775.7625 87.447914 775.59064 88.104164L774.5594 87.96354Q774.7 87.30729 775.02814 86.90104Q775.35626 86.49479 775.96564 86.27604Q776.575 86.05729 777.3719 86.05729Q778.16876 86.05729 778.66876 86.24479Q779.16876 86.43229 779.40314 86.71354Q779.6375 86.99479 779.73126 87.43229Q779.77814 87.697914 779.77814 88.40104L779.77814 89.80729Q779.77814 91.27604 779.84064 91.666664Q779.91876 92.05729 780.1219 92.416664L779.0125 92.416664Q778.85626 92.08854 778.8094 91.65104ZM778.71564 89.291664Q778.1375 89.52604 776.9969 89.697914Q776.34064 89.791664 776.075 89.916664Q775.8094 90.02604 775.65314 90.24479Q775.5125 90.46354 775.5125 90.74479Q775.5125 91.166664 775.825 91.447914Q776.15314 91.729164 776.7625 91.729164Q777.3719 91.729164 777.84064 91.46354Q778.325 91.197914 778.54376 90.729164Q778.71564 90.36979 778.71564 89.68229L778.71564 89.291664ZM781.7469 92.416664L781.7469 86.197914L782.6844 86.197914L782.6844 87.072914Q783.3719 86.05729 784.66876 86.05729Q785.23126 86.05729 785.7 86.260414Q786.1844 86.46354 786.41876 86.791664Q786.65314 87.11979 786.7469 87.55729Q786.79376 87.854164 786.79376 88.58854L786.79376 92.416664L785.7469 92.416664L785.7469 88.635414Q785.7469 87.979164 785.6219 87.666664Q785.4969 87.354164 785.1844 87.166664Q784.8719 86.96354 784.45 86.96354Q783.77814 86.96354 783.27814 87.40104Q782.79376 87.822914 782.79376 89.010414L782.79376 92.416664L781.7469 92.416664Z" fill-rule="nonzero"/><path fill="#fbbc04" d="M734.95 112.416664C734.95 115.73038 732.26373 118.416664 728.95 118.416664C725.6363 118.416664 722.95 115.73038 722.95 112.416664C722.95 109.10296 725.6363 106.416664 728.95 106.416664C732.26373 106.416664 734.95 109.10296 734.95 112.416664Z" fill-rule="nonzero"/><path fill="#1a1a1a" d="M743.8875 116.416664L743.8875 107.822914L747.7 107.822914Q748.85626 107.822914 749.45 108.05729Q750.04376 108.291664 750.40314 108.885414Q750.7625 109.46354 750.7625 110.166664Q750.7625 111.08854 750.16876 111.71354Q749.575 112.33854 748.34064 112.510414Q748.79376 112.729164 749.02814 112.93229Q749.52814 113.385414 749.96564 114.072914L751.46564 116.416664L750.02814 116.416664L748.90314 114.635414Q748.40314 113.854164 748.075 113.447914Q747.7625 113.041664 747.4969 112.885414Q747.2469 112.71354 746.98126 112.635414Q746.79376 112.604164 746.35626 112.604164L745.02814 112.604164L745.02814 116.416664L743.8875 116.416664ZM745.02814 111.61979L747.48126 111.61979Q748.2469 111.61979 748.6844 111.46354Q749.1375 111.291664 749.35626 110.947914Q749.59064 110.58854 749.59064 110.166664Q749.59064 109.55729 749.1375 109.166664Q748.7 108.77604 747.7469 108.77604L745.02814 108.77604L745.02814 111.61979ZM756.825 116.416664L756.825 115.49479Q756.09064 116.55729 754.84064 116.55729Q754.29376 116.55729 753.8094 116.354164Q753.34064 116.135414 753.10626 115.822914Q752.8719 115.49479 752.77814 115.02604Q752.71564 114.729164 752.71564 114.041664L752.71564 110.197914L753.77814 110.197914L753.77814 113.65104Q753.77814 114.46354 753.84064 114.760414Q753.9344 115.166664 754.2469 115.416664Q754.575 115.65104 755.0594 115.65104Q755.52814 115.65104 755.9344 115.416664Q756.35626 115.166664 756.52814 114.74479Q756.71564 114.322914 756.71564 113.52604L756.71564 110.197914L757.7625 110.197914L757.7625 116.416664L756.825 116.416664ZM759.325 114.55729L760.35626 114.40104Q760.45 115.02604 760.84064 115.354164Q761.2469 115.68229 761.98126 115.68229Q762.7 115.68229 763.04376 115.40104Q763.40314 115.104164 763.40314 114.697914Q763.40314 114.33854 763.09064 114.135414Q762.8719 113.99479 762.0125 113.77604Q760.85626 113.479164 760.40314 113.27604Q759.96564 113.05729 759.73126 112.68229Q759.4969 112.30729 759.4969 111.83854Q759.4969 111.43229 759.6844 111.072914Q759.8719 110.71354 760.2 110.479164Q760.45 110.30729 760.8719 110.18229Q761.29376 110.05729 761.79376 110.05729Q762.5125 110.05729 763.0594 110.27604Q763.6219 110.479164 763.8875 110.83854Q764.15314 111.197914 764.2469 111.791664L763.21564 111.93229Q763.15314 111.46354 762.8094 111.197914Q762.48126 110.916664 761.85626 110.916664Q761.1375 110.916664 760.825 111.166664Q760.5125 111.40104 760.5125 111.729164Q760.5125 111.93229 760.6375 112.08854Q760.77814 112.260414 761.04376 112.36979Q761.2 112.43229 761.98126 112.635414Q763.10626 112.947914 763.54376 113.135414Q763.98126 113.322914 764.23126 113.68229Q764.48126 114.041664 764.48126 114.58854Q764.48126 115.11979 764.16876 115.58854Q763.8719 116.041664 763.29376 116.30729Q762.71564 116.55729 761.98126 116.55729Q760.7625 116.55729 760.1219 116.05729Q759.4969 115.541664 759.325 114.55729ZM766.325 114.55729L767.35626 114.40104Q767.45 115.02604 767.84064 115.354164Q768.2469 115.68229 768.98126 115.68229Q769.7 115.68229 770.04376 115.40104Q770.40314 115.104164 770.40314 114.697914Q770.40314 114.33854 770.09064 114.135414Q769.8719 113.99479 769.0125 113.77604Q767.85626 113.479164 767.40314 113.27604Q766.96564 113.05729 766.73126 112.68229Q766.4969 112.30729 766.4969 111.83854Q766.4969 111.43229 766.6844 111.072914Q766.8719 110.71354 767.2 110.479164Q767.45 110.30729 767.8719 110.18229Q768.29376 110.05729 768.79376 110.05729Q769.5125 110.05729 770.0594 110.27604Q770.6219 110.479164 770.8875 110.83854Q771.15314 111.197914 771.2469 111.791664L770.21564 111.93229Q770.15314 111.46354 769.8094 111.197914Q769.48126 110.916664 768.85626 110.916664Q768.1375 110.916664 767.825 111.166664Q767.5125 111.40104 767.5125 111.729164Q767.5125 111.93229 767.6375 112.08854Q767.77814 112.260414 768.04376 112.36979Q768.2 112.43229 768.98126 112.635414Q770.10626 112.947914 770.54376 113.135414Q770.98126 113.322914 771.23126 113.68229Q771.48126 114.041664 771.48126 114.58854Q771.48126 115.11979 771.16876 115.58854Q770.8719 116.041664 770.29376 116.30729Q769.71564 116.55729 768.98126 116.55729Q767.7625 116.55729 767.1219 116.05729Q766.4969 115.541664 766.325 114.55729ZM773.7469 109.041664L773.7469 107.822914L774.8094 107.822914L774.8094 109.041664L773.7469 109.041664ZM773.7469 116.416664L773.7469 110.197914L774.8094 110.197914L774.8094 116.416664L773.7469 116.416664ZM780.8094 115.65104Q780.21564 116.15104 779.66876 116.354164Q779.1375 116.55729 778.5125 116.55729Q777.48126 116.55729 776.9344 116.05729Q776.3875 115.55729 776.3875 114.77604Q776.3875 114.322914 776.59064 113.947914Q776.79376 113.55729 777.1375 113.33854Q777.48126 113.104164 777.90314 112.99479Q778.2 112.90104 778.84064 112.822914Q780.10626 112.68229 780.71564 112.46354Q780.71564 112.24479 780.71564 112.197914Q780.71564 111.541664 780.41876 111.27604Q780.0125 110.93229 779.21564 110.93229Q778.48126 110.93229 778.1219 111.197914Q777.7625 111.447914 777.59064 112.104164L776.5594 111.96354Q776.7 111.30729 777.02814 110.90104Q777.35626 110.49479 777.96564 110.27604Q778.575 110.05729 779.3719 110.05729Q780.16876 110.05729 780.66876 110.24479Q781.16876 110.43229 781.40314 110.71354Q781.6375 110.99479 781.73126 111.43229Q781.77814 111.697914 781.77814 112.40104L781.77814 113.80729Q781.77814 115.27604 781.84064 115.666664Q781.91876 116.05729 782.1219 116.416664L781.0125 116.416664Q780.85626 116.08854 780.8094 115.65104ZM780.71564 113.291664Q780.1375 113.52604 778.9969 113.697914Q778.34064 113.791664 778.075 113.916664Q777.8094 114.02604 777.65314 114.24479Q777.5125 114.46354 777.5125 114.74479Q777.5125 115.166664 777.825 115.447914Q778.15314 115.729164 778.7625 115.729164Q779.3719 115.729164 779.84064 115.46354Q780.325 115.197914 780.54376 114.729164Q780.71564 114.36979 780.71564 113.68229L780.71564 113.291664ZM783.7469 116.416664L783.7469 110.197914L784.6844 110.197914L784.6844 111.072914Q785.3719 110.05729 786.66876 110.05729Q787.23126 110.05729 787.7 110.260414Q788.1844 110.46354 788.41876 110.791664Q788.65314 111.11979 788.7469 111.55729Q788.79376 111.854164 788.79376 112.58854L788.79376 116.416664L787.7469 116.416664L787.7469 112.635414Q787.7469 111.979164 787.6219 111.666664Q787.4969 111.354164 787.1844 111.166664Q786.8719 110.96354 786.45 110.96354Q785.77814 110.96354 785.27814 111.40104Q784.79376 111.822914 784.79376 113.010414L784.79376 116.416664L783.7469 116.416664Z" fill-rule="nonzero"/><path fill="#d946ef" d="M734.95 136.41667C734.95 139.73038 732.26373 142.41667 728.95 142.41667C725.6363 142.41667 722.95 139.73038 722.95 136.41667C722.95 133.10295 725.6363 130.41667 728.95 130.41667C732.26373 130.41667 734.95 133.10295 734.95 136.41667Z" fill-rule="nonzero"/><path fill="#1a1a1a" d="M744.075 140.41667L744.075 131.82292L745.2 131.82292L745.2 140.41667L744.075 140.41667ZM749.04376 139.47917L749.2 140.40105Q748.7469 140.4948 748.40314 140.4948Q747.825 140.4948 747.5125 140.32292Q747.2 140.13542 747.0594 139.83855Q746.9344 139.54167 746.9344 138.58855L746.9344 135.01042L746.16876 135.01042L746.16876 134.19792L746.9344 134.19792L746.9344 132.65105L747.98126 132.02605L747.98126 134.19792L749.04376 134.19792L749.04376 135.01042L747.98126 135.01042L747.98126 138.65105Q747.98126 139.10417 748.02814 139.22917Q748.09064 139.35417 748.21564 139.4323Q748.34064 139.51042 748.575 139.51042Q748.7625 139.51042 749.04376 139.47917ZM753.8094 139.65105Q753.21564 140.15105 752.66876 140.35417Q752.1375 140.5573 751.5125 140.5573Q750.48126 140.5573 749.9344 140.0573Q749.3875 139.5573 749.3875 138.77605Q749.3875 138.32292 749.59064 137.94792Q749.79376 137.5573 750.1375 137.33855Q750.48126 137.10417 750.90314 136.9948Q751.2 136.90105 751.84064 136.82292Q753.10626 136.6823 753.71564 136.46355Q753.71564 136.2448 753.71564 136.19792Q753.71564 135.54167 753.41876 135.27605Q753.0125 134.9323 752.21564 134.9323Q751.48126 134.9323 751.1219 135.19792Q750.7625 135.44792 750.59064 136.10417L749.5594 135.96355Q749.7 135.3073 750.02814 134.90105Q750.35626 134.4948 750.96564 134.27605Q751.575 134.0573 752.3719 134.0573Q753.16876 134.0573 753.66876 134.2448Q754.16876 134.4323 754.40314 134.71355Q754.6375 134.9948 754.73126 135.4323Q754.77814 135.69792 754.77814 136.40105L754.77814 137.8073Q754.77814 139.27605 754.84064 139.66667Q754.91876 140.0573 755.1219 140.41667L754.0125 140.41667Q753.85626 140.08855 753.8094 139.65105ZM753.71564 137.29167Q753.1375 137.52605 751.9969 137.69792Q751.34064 137.79167 751.075 137.91667Q750.8094 138.02605 750.65314 138.2448Q750.5125 138.46355 750.5125 138.7448Q750.5125 139.16667 750.825 139.44792Q751.15314 139.72917 751.7625 139.72917Q752.3719 139.72917 752.84064 139.46355Q753.325 139.19792 753.54376 138.72917Q753.71564 138.3698 753.71564 137.6823L753.71564 137.29167ZM756.71564 140.41667L756.71564 131.82292L757.77814 131.82292L757.77814 140.41667L756.71564 140.41667ZM759.7469 133.04167L759.7469 131.82292L760.8094 131.82292L760.8094 133.04167L759.7469 133.04167ZM759.7469 140.41667L759.7469 134.19792L760.8094 134.19792L760.8094 140.41667L759.7469 140.41667ZM766.8094 139.65105Q766.21564 140.15105 765.66876 140.35417Q765.1375 140.5573 764.5125 140.5573Q763.48126 140.5573 762.9344 140.0573Q762.3875 139.5573 762.3875 138.77605Q762.3875 138.32292 762.59064 137.94792Q762.79376 137.5573 763.1375 137.33855Q763.48126 137.10417 763.90314 136.9948Q764.2 136.90105 764.84064 136.82292Q766.10626 136.6823 766.71564 136.46355Q766.71564 136.2448 766.71564 136.19792Q766.71564 135.54167 766.41876 135.27605Q766.0125 134.9323 765.21564 134.9323Q764.48126 134.9323 764.1219 135.19792Q763.7625 135.44792 763.59064 136.10417L762.5594 135.96355Q762.7 135.3073 763.02814 134.90105Q763.35626 134.4948 763.96564 134.27605Q764.575 134.0573 765.3719 134.0573Q766.16876 134.0573 766.66876 134.2448Q767.16876 134.4323 767.40314 134.71355Q767.6375 134.9948 767.73126 135.4323Q767.77814 135.69792 767.77814 136.40105L767.77814 137.8073Q767.77814 139.27605 767.84064 139.66667Q767.91876 140.0573 768.1219 140.41667L767.0125 140.41667Q766.85626 140.08855 766.8094 139.65105ZM766.71564 137.29167Q766.1375 137.52605 764.9969 137.69792Q764.34064 137.79167 764.075 137.91667Q763.8094 138.02605 763.65314 138.2448Q763.5125 138.46355 763.5125 138.7448Q763.5125 139.16667 763.825 139.44792Q764.15314 139.72917 764.7625 139.72917Q765.3719 139.72917 765.84064 139.46355Q766.325 139.19792 766.54376 138.72917Q766.71564 138.3698 766.71564 137.6823L766.71564 137.29167ZM769.7469 140.41667L769.7469 134.19792L770.6844 134.19792L770.6844 135.07292Q771.3719 134.0573 772.66876 134.0573Q773.23126 134.0573 773.7 134.26042Q774.1844 134.46355 774.41876 134.79167Q774.65314 135.1198 774.7469 135.5573Q774.79376 135.85417 774.79376 136.58855L774.79376 140.41667L773.7469 140.41667L773.7469 136.63542Q773.7469 135.97917 773.6219 135.66667Q773.4969 135.35417 773.1844 135.16667Q772.8719 134.96355 772.45 134.96355Q771.77814 134.96355 771.27814 135.40105Q770.79376 135.82292 770.79376 137.01042L770.79376 140.41667L769.7469 140.41667Z" fill-rule="nonzero"/><path fill="#b7b7b7" d="M734.95 160.41667C734.95 163.73038 732.26373 166.41667 728.95 166.41667C725.6363 166.41667 722.95 163.73038 722.95 160.41667C722.95 157.10295 725.6363 154.41667 728.95 154.41667C732.26373 154.41667 734.95 157.10295 734.95 160.41667Z" fill-rule="nonzero"/><path fill="#1a1a1a" d="M743.4969 161.65105L744.5594 161.5573Q744.6375 162.21355 744.91876 162.6198Q745.2 163.02605 745.77814 163.29167Q746.3719 163.54167 747.10626 163.54167Q747.7469 163.54167 748.2469 163.35417Q748.7469 163.15105 748.98126 162.82292Q749.23126 162.47917 749.23126 162.08855Q749.23126 161.6823 748.9969 161.38542Q748.7625 161.07292 748.23126 160.8698Q747.8719 160.72917 746.6844 160.44792Q745.5125 160.16667 745.04376 159.91667Q744.41876 159.58855 744.1219 159.1198Q743.825 158.63542 743.825 158.04167Q743.825 157.40105 744.1844 156.83855Q744.5594 156.26042 745.2625 155.97917Q745.98126 155.6823 746.84064 155.6823Q747.79376 155.6823 748.52814 155.9948Q749.2625 156.29167 749.65314 156.90105Q750.04376 157.4948 750.075 158.2448L748.98126 158.32292Q748.8875 157.51042 748.3719 157.10417Q747.8719 156.6823 746.8875 156.6823Q745.85626 156.6823 745.3875 157.0573Q744.91876 157.4323 744.91876 157.96355Q744.91876 158.4323 745.2469 158.72917Q745.575 159.02605 746.95 159.33855Q748.34064 159.65105 748.85626 159.88542Q749.60626 160.2448 749.96564 160.77605Q750.325 161.29167 750.325 161.9948Q750.325 162.6823 749.9344 163.29167Q749.54376 163.88542 748.8094 164.22917Q748.075 164.5573 747.15314 164.5573Q745.98126 164.5573 745.1844 164.22917Q744.40314 163.88542 743.95 163.19792Q743.5125 162.51042 743.4969 161.65105ZM751.7469 166.8073L751.7469 158.19792L752.7 158.19792L752.7 158.9948Q753.04376 158.52605 753.46564 158.29167Q753.90314 158.0573 754.5125 158.0573Q755.3094 158.0573 755.91876 158.46355Q756.52814 158.8698 756.825 159.6198Q757.1375 160.3698 757.1375 161.26042Q757.1375 162.21355 756.79376 162.97917Q756.46564 163.7448 755.8094 164.15105Q755.15314 164.5573 754.4344 164.5573Q753.90314 164.5573 753.48126 164.33855Q753.0594 164.10417 752.79376 163.77605L752.79376 166.8073L751.7469 166.8073ZM752.7 161.33855Q752.7 162.54167 753.1844 163.1198Q753.66876 163.6823 754.35626 163.6823Q755.0594 163.6823 755.5594 163.08855Q756.0594 162.4948 756.0594 161.2448Q756.0594 160.0573 755.575 159.47917Q755.09064 158.88542 754.40314 158.88542Q753.73126 158.88542 753.21564 159.51042Q752.7 160.13542 752.7 161.33855ZM762.8094 163.65105Q762.21564 164.15105 761.66876 164.35417Q761.1375 164.5573 760.5125 164.5573Q759.48126 164.5573 758.9344 164.0573Q758.3875 163.5573 758.3875 162.77605Q758.3875 162.32292 758.59064 161.94792Q758.79376 161.5573 759.1375 161.33855Q759.48126 161.10417 759.90314 160.9948Q760.2 160.90105 760.84064 160.82292Q762.10626 160.6823 762.71564 160.46355Q762.71564 160.2448 762.71564 160.19792Q762.71564 159.54167 762.41876 159.27605Q762.0125 158.9323 761.21564 158.9323Q760.48126 158.9323 760.1219 159.19792Q759.7625 159.44792 759.59064 160.10417L758.5594 159.96355Q758.7 159.3073 759.02814 158.90105Q759.35626 158.4948 759.96564 158.27605Q760.575 158.0573 761.3719 158.0573Q762.16876 158.0573 762.66876 158.2448Q763.16876 158.4323 763.40314 158.71355Q763.6375 158.9948 763.73126 159.4323Q763.77814 159.69792 763.77814 160.40105L763.77814 161.8073Q763.77814 163.27605 763.84064 163.66667Q763.91876 164.0573 764.1219 164.41667L763.0125 164.41667Q762.85626 164.08855 762.8094 163.65105ZM762.71564 161.29167Q762.1375 161.52605 760.9969 161.69792Q760.34064 161.79167 760.075 161.91667Q759.8094 162.02605 759.65314 162.2448Q759.5125 162.46355 759.5125 162.7448Q759.5125 163.16667 759.825 163.44792Q760.15314 163.72917 760.7625 163.72917Q761.3719 163.72917 761.84064 163.46355Q762.325 163.19792 762.54376 162.72917Q762.71564 162.3698 762.71564 161.6823L762.71564 161.29167ZM765.7469 164.41667L765.7469 158.19792L766.6844 158.19792L766.6844 159.07292Q767.3719 158.0573 768.66876 158.0573Q769.23126 158.0573 769.7 158.26042Q770.1844 158.46355 770.41876 158.79167Q770.65314 159.1198 770.7469 159.5573Q770.79376 159.85417 770.79376 160.58855L770.79376 164.41667L769.7469 164.41667L769.7469 160.63542Q769.7469 159.97917 769.6219 159.66667Q769.4969 159.35417 769.1844 159.16667Q768.8719 158.96355 768.45 158.96355Q767.77814 158.96355 767.27814 159.40105Q766.79376 159.82292 766.79376 161.01042L766.79376 164.41667L765.7469 164.41667ZM772.7469 157.04167L772.7469 155.82292L773.8094 155.82292L773.8094 157.04167L772.7469 157.04167ZM772.7469 164.41667L772.7469 158.19792L773.8094 158.19792L773.8094 164.41667L772.7469 164.41667ZM775.325 162.5573L776.35626 162.40105Q776.45 163.02605 776.84064 163.35417Q777.2469 163.6823 777.98126 163.6823Q778.7 163.6823 779.04376 163.40105Q779.40314 163.10417 779.40314 162.69792Q779.40314 162.33855 779.09064 162.13542Q778.8719 161.9948 778.0125 161.77605Q776.85626 161.47917 776.40314 161.27605Q775.96564 161.0573 775.73126 160.6823Q775.4969 160.3073 775.4969 159.83855Q775.4969 159.4323 775.6844 159.07292Q775.8719 158.71355 776.2 158.47917Q776.45 158.3073 776.8719 158.1823Q777.29376 158.0573 777.79376 158.0573Q778.5125 158.0573 779.0594 158.27605Q779.6219 158.47917 779.8875 158.83855Q780.15314 159.19792 780.2469 159.79167L779.21564 159.9323Q779.15314 159.46355 778.8094 159.19792Q778.48126 158.91667 777.85626 158.91667Q777.1375 158.91667 776.825 159.16667Q776.5125 159.40105 776.5125 159.72917Q776.5125 159.9323 776.6375 160.08855Q776.77814 160.26042 777.04376 160.3698Q777.2 160.4323 777.98126 160.63542Q779.10626 160.94792 779.54376 161.13542Q779.98126 161.32292 780.23126 161.6823Q780.48126 162.04167 780.48126 162.58855Q780.48126 163.1198 780.16876 163.58855Q779.8719 164.04167 779.29376 164.3073Q778.71564 164.5573 777.98126 164.5573Q776.7625 164.5573 776.1219 164.0573Q775.4969 163.54167 775.325 162.5573ZM782.7469 164.41667L782.7469 155.82292L783.79376 155.82292L783.79376 158.90105Q784.52814 158.0573 785.65314 158.0573Q786.35626 158.0573 786.85626 158.33855Q787.3719 158.60417 787.59064 159.08855Q787.8094 159.5573 787.8094 160.47917L787.8094 164.41667L786.7625 164.41667L786.7625 160.47917Q786.7625 159.6823 786.41876 159.32292Q786.075 158.96355 785.45 158.96355Q784.98126 158.96355 784.5594 159.21355Q784.15314 159.44792 783.96564 159.8698Q783.79376 160.27605 783.79376 161.01042L783.79376 164.41667L782.7469 164.41667Z" fill-rule="nonzero"/><path fill="#46bdc6" d="M734.95 184.41667C734.95 187.73038 732.26373 190.41667 728.95 190.41667C725.6363 190.41667 722.95 187.73038 722.95 184.41667C722.95 181.10295 725.6363 178.41667 728.95 178.41667C732.26373 178.41667 734.95 181.10295 734.95 184.41667Z" fill-rule="nonzero"/><path fill="#1a1a1a" d="M743.52814 184.22917Q743.52814 182.08855 744.66876 180.88542Q745.825 179.66667 747.6375 179.66667Q748.84064 179.66667 749.79376 180.2448Q750.7469 180.8073 751.2469 181.82292Q751.7469 182.83855 751.7469 184.13542Q751.7469 185.4323 751.21564 186.46355Q750.6844 187.4948 749.71564 188.02605Q748.7625 188.5573 747.6375 188.5573Q746.41876 188.5573 745.46564 187.97917Q744.5125 187.38542 744.0125 186.38542Q743.52814 185.3698 743.52814 184.22917ZM744.7 184.2448Q744.7 185.8073 745.52814 186.69792Q746.3719 187.58855 747.6375 187.58855Q748.91876 187.58855 749.7469 186.69792Q750.575 185.79167 750.575 184.1198Q750.575 183.07292 750.21564 182.29167Q749.8719 181.51042 749.1844 181.08855Q748.4969 180.65105 747.65314 180.65105Q746.45 180.65105 745.575 181.47917Q744.7 182.3073 744.7 184.2448ZM755.04376 187.47917L755.2 188.40105Q754.7469 188.4948 754.40314 188.4948Q753.825 188.4948 753.5125 188.32292Q753.2 188.13542 753.0594 187.83855Q752.9344 187.54167 752.9344 186.58855L752.9344 183.01042L752.16876 183.01042L752.16876 182.19792L752.9344 182.19792L752.9344 180.65105L753.98126 180.02605L753.98126 182.19792L755.04376 182.19792L755.04376 183.01042L753.98126 183.01042L753.98126 186.65105Q753.98126 187.10417 754.02814 187.22917Q754.09064 187.35417 754.21564 187.4323Q754.34064 187.51042 754.575 187.51042Q754.7625 187.51042 755.04376 187.47917ZM755.7469 188.41667L755.7469 179.82292L756.79376 179.82292L756.79376 182.90105Q757.52814 182.0573 758.65314 182.0573Q759.35626 182.0573 759.85626 182.33855Q760.3719 182.60417 760.59064 183.08855Q760.8094 183.5573 760.8094 184.47917L760.8094 188.41667L759.7625 188.41667L759.7625 184.47917Q759.7625 183.6823 759.41876 183.32292Q759.075 182.96355 758.45 182.96355Q757.98126 182.96355 757.5594 183.21355Q757.15314 183.44792 756.96564 183.8698Q756.79376 184.27605 756.79376 185.01042L756.79376 188.41667L755.7469 188.41667ZM766.9969 186.41667L768.09064 186.54167Q767.84064 187.4948 767.1375 188.02605Q766.4344 188.5573 765.35626 188.5573Q763.9969 188.5573 763.1844 187.71355Q762.3875 186.8698 762.3875 185.35417Q762.3875 183.79167 763.2 182.9323Q764.0125 182.0573 765.29376 182.0573Q766.54376 182.0573 767.325 182.90105Q768.1219 183.7448 768.1219 185.29167Q768.1219 185.38542 768.1219 185.57292L763.48126 185.57292Q763.54376 186.60417 764.0594 187.15105Q764.575 187.6823 765.35626 187.6823Q765.9344 187.6823 766.34064 187.38542Q766.7625 187.07292 766.9969 186.41667ZM763.54376 184.71355L767.0125 184.71355Q766.95 183.91667 766.6219 183.52605Q766.10626 182.91667 765.3094 182.91667Q764.575 182.91667 764.075 183.40105Q763.59064 183.88542 763.54376 184.71355ZM769.73126 188.41667L769.73126 182.19792L770.6844 182.19792L770.6844 183.13542Q771.04376 182.47917 771.34064 182.27605Q771.65314 182.0573 772.02814 182.0573Q772.5594 182.0573 773.10626 182.38542L772.7469 183.3698Q772.35626 183.13542 771.98126 183.13542Q771.6219 183.13542 771.34064 183.35417Q771.075 183.5573 770.96564 183.9323Q770.77814 184.4948 770.77814 185.15105L770.77814 188.41667L769.73126 188.41667Z" fill-rule="nonzero"/><path fill="#757575" d="M326.96875 39.05L326.96875 24.7375L332.34375 24.7375Q333.98438 24.7375 334.96875 25.175Q335.95312 25.596874 336.51562 26.503124Q337.07812 27.409374 337.07812 28.39375Q337.07812 29.315624 336.57812 30.128124Q336.09375 30.940624 335.07812 31.425Q336.375 31.815624 337.07812 32.7375Q337.78125 33.64375 337.78125 34.89375Q337.78125 35.909374 337.34375 36.76875Q336.92188 37.628124 336.29688 38.096874Q335.67188 38.565624 334.73438 38.815624Q333.79688 39.05 332.42188 39.05L326.96875 39.05ZM328.85938 30.753124L331.95312 30.753124Q333.21875 30.753124 333.76562 30.58125Q334.48438 30.3625 334.84375 29.878124Q335.21875 29.378124 335.21875 28.6125Q335.21875 27.909374 334.875 27.3625Q334.53125 26.815624 333.89062 26.628124Q333.26562 26.425 331.71875 26.425L328.85938 26.425L328.85938 30.753124ZM328.85938 37.3625L332.42188 37.3625Q333.34375 37.3625 333.71875 37.284374Q334.375 37.175 334.8125 36.909374Q335.25 36.628124 335.53125 36.1125Q335.8125 35.58125 335.8125 34.89375Q335.8125 34.096874 335.40625 33.503124Q335.0 32.909374 334.26562 32.675Q333.53125 32.440624 332.17188 32.440624L328.85938 32.440624L328.85938 37.3625ZM339.79688 39.05L339.79688 28.675L341.375 28.675L341.375 30.253124Q341.98438 29.14375 342.5 28.8Q343.01562 28.440624 343.625 28.440624Q344.51562 28.440624 345.4375 29.003124L344.82812 30.64375Q344.1875 30.253124 343.54688 30.253124Q342.96875 30.253124 342.5 30.6125Q342.04688 30.95625 341.84375 31.565624Q341.5625 32.503124 341.5625 33.6125L341.5625 39.05L339.79688 39.05ZM346.17188 33.8625Q346.17188 30.9875 347.76562 29.596874Q349.10938 28.440624 351.03125 28.440624Q353.17188 28.440624 354.51562 29.846874Q355.875 31.253124 355.875 33.721874Q355.875 35.721874 355.28125 36.878124Q354.6875 38.01875 353.53125 38.659374Q352.39062 39.284374 351.03125 39.284374Q348.84375 39.284374 347.5 37.89375Q346.17188 36.4875 346.17188 33.8625ZM347.96875 33.8625Q347.96875 35.8625 348.82812 36.846874Q349.70312 37.83125 351.03125 37.83125Q352.34375 37.83125 353.20312 36.846874Q354.07812 35.846874 354.07812 33.8Q354.07812 31.878124 353.20312 30.89375Q352.32812 29.89375 351.03125 29.89375Q349.70312 29.89375 348.82812 30.89375Q347.96875 31.878124 347.96875 33.8625ZM359.73438 39.05L356.5625 28.675L358.375 28.675L360.03125 34.659374L360.64062 36.89375Q360.6875 36.721874 361.17188 34.753124L362.82812 28.675L364.64062 28.675L366.1875 34.690624L366.70312 36.675L367.29688 34.675L369.07812 28.675L370.78125 28.675L367.54688 39.05L365.71875 39.05L364.0625 32.83125L363.67188 31.065624L361.5625 39.05L359.73438 39.05ZM372.10938 35.95625L373.85938 35.675Q374.0 36.721874 374.67188 37.284374Q375.34375 37.83125 376.54688 37.83125Q377.75 37.83125 378.32812 37.346874Q378.92188 36.846874 378.92188 36.190624Q378.92188 35.596874 378.40625 35.253124Q378.04688 35.01875 376.60938 34.659374Q374.67188 34.159374 373.92188 33.815624Q373.1875 33.45625 372.79688 32.83125Q372.40625 32.190624 372.40625 31.425Q372.40625 30.7375 372.71875 30.14375Q373.04688 29.55 373.59375 29.159374Q374.0 28.8625 374.70312 28.659374Q375.42188 28.440624 376.23438 28.440624Q377.45312 28.440624 378.375 28.8Q379.29688 29.14375 379.73438 29.753124Q380.17188 30.346874 380.34375 31.346874L378.625 31.58125Q378.5 30.784374 377.9375 30.346874Q377.375 29.89375 376.35938 29.89375Q375.14062 29.89375 374.625 30.3Q374.10938 30.690624 374.10938 31.221874Q374.10938 31.565624 374.32812 31.846874Q374.53125 32.128124 375.0 32.315624Q375.26562 32.409374 376.54688 32.753124Q378.42188 33.253124 379.15625 33.58125Q379.89062 33.89375 380.3125 34.503124Q380.73438 35.096874 380.73438 36.003124Q380.73438 36.878124 380.21875 37.659374Q379.70312 38.440624 378.73438 38.8625Q377.76562 39.284374 376.54688 39.284374Q374.53125 39.284374 373.46875 38.440624Q372.40625 37.596874 372.10938 35.95625ZM389.92188 35.70625L391.73438 35.940624Q391.3125 37.51875 390.14062 38.409374Q388.98438 39.284374 387.17188 39.284374Q384.90625 39.284374 383.5625 37.89375Q382.23438 36.4875 382.23438 33.95625Q382.23438 31.33125 383.57812 29.89375Q384.92188 28.440624 387.07812 28.440624Q389.15625 28.440624 390.46875 29.8625Q391.79688 31.26875 391.79688 33.846874Q391.79688 34.003124 391.78125 34.315624L384.04688 34.315624Q384.14062 36.01875 385.01562 36.925Q385.89062 37.83125 387.1875 37.83125Q388.15625 37.83125 388.82812 37.33125Q389.51562 36.815624 389.92188 35.70625ZM384.14062 32.8625L389.9375 32.8625Q389.82812 31.565624 389.28125 30.909374Q388.4375 29.89375 387.09375 29.89375Q385.89062 29.89375 385.0625 30.70625Q384.23438 31.503124 384.14062 32.8625ZM393.79688 39.05L393.79688 28.675L395.375 28.675L395.375 30.253124Q395.98438 29.14375 396.5 28.8Q397.01562 28.440624 397.625 28.440624Q398.51562 28.440624 399.4375 29.003124L398.82812 30.64375Q398.1875 30.253124 397.54688 30.253124Q396.96875 30.253124 396.5 30.6125Q396.04688 30.95625 395.84375 31.565624Q395.5625 32.503124 395.5625 33.6125L395.5625 39.05L393.79688 39.05ZM406.78125 39.05L406.78125 24.7375L408.53125 24.7375L408.53125 39.05L406.78125 39.05ZM417.59375 37.76875Q416.60938 38.596874 415.70312 38.940624Q414.79688 39.284374 413.76562 39.284374Q412.0625 39.284374 411.14062 38.45625Q410.21875 37.6125 410.21875 36.315624Q410.21875 35.55 410.5625 34.925Q410.92188 34.3 411.48438 33.925Q412.04688 33.534374 412.75 33.33125Q413.26562 33.20625 414.3125 33.065624Q416.4375 32.815624 417.4375 32.471874Q417.45312 32.1125 417.45312 32.003124Q417.45312 30.940624 416.95312 30.4875Q416.28125 29.89375 414.95312 29.89375Q413.70312 29.89375 413.10938 30.33125Q412.53125 30.76875 412.25 31.878124L410.53125 31.64375Q410.76562 30.534374 411.29688 29.8625Q411.82812 29.175 412.84375 28.815624Q413.85938 28.440624 415.20312 28.440624Q416.53125 28.440624 417.35938 28.753124Q418.1875 29.065624 418.57812 29.55Q418.96875 30.01875 419.125 30.7375Q419.21875 31.190624 419.21875 32.3625L419.21875 34.70625Q419.21875 37.159374 419.32812 37.815624Q419.4375 38.45625 419.78125 39.05L417.9375 39.05Q417.67188 38.503124 417.59375 37.76875ZM417.4375 33.846874Q416.48438 34.2375 414.5625 34.503124Q413.48438 34.659374 413.03125 34.8625Q412.59375 35.05 412.34375 35.425Q412.09375 35.8 412.09375 36.26875Q412.09375 36.971874 412.625 37.440624Q413.15625 37.909374 414.1875 37.909374Q415.20312 37.909374 415.98438 37.471874Q416.78125 37.01875 417.15625 36.253124Q417.4375 35.64375 417.4375 34.4875L417.4375 33.846874ZM421.8125 39.05L421.8125 28.675L423.40625 28.675L423.40625 30.159374Q424.54688 28.440624 426.70312 28.440624Q427.64062 28.440624 428.42188 28.784374Q429.21875 29.1125 429.60938 29.659374Q430.0 30.20625 430.15625 30.95625Q430.25 31.45625 430.25 32.675L430.25 39.05L428.48438 39.05L428.48438 32.7375Q428.48438 31.659374 428.28125 31.128124Q428.07812 30.596874 427.54688 30.284374Q427.03125 29.971874 426.32812 29.971874Q425.20312 29.971874 424.39062 30.690624Q423.57812 31.39375 423.57812 33.378124L423.57812 39.05L421.8125 39.05ZM431.5 39.909374L433.20312 40.159374Q433.3125 40.95625 433.79688 41.315624Q434.45312 41.8 435.59375 41.8Q436.8125 41.8 437.46875 41.315624Q438.14062 40.83125 438.375 39.95625Q438.51562 39.409374 438.5 37.690624Q437.34375 39.05 435.625 39.05Q433.48438 39.05 432.3125 37.503124Q431.14062 35.95625 431.14062 33.8Q431.14062 32.315624 431.67188 31.065624Q432.21875 29.815624 433.23438 29.128124Q434.26562 28.440624 435.64062 28.440624Q437.46875 28.440624 438.67188 29.925L438.67188 28.675L440.28125 28.675L440.28125 37.64375Q440.28125 40.065624 439.78125 41.065624Q439.29688 42.08125 438.21875 42.659374Q437.15625 43.253124 435.59375 43.253124Q433.75 43.253124 432.59375 42.425Q431.45312 41.596874 431.5 39.909374ZM432.95312 33.675Q432.95312 35.721874 433.76562 36.659374Q434.57812 37.596874 435.79688 37.596874Q437.0 37.596874 437.8125 36.659374Q438.64062 35.721874 438.64062 33.7375Q438.64062 31.83125 437.79688 30.8625Q436.95312 29.89375 435.76562 29.89375Q434.59375 29.89375 433.76562 30.846874Q432.95312 31.8 432.95312 33.675ZM449.60938 39.05L449.60938 37.51875Q448.40625 39.284374 446.32812 39.284374Q445.40625 39.284374 444.60938 38.940624Q443.8125 38.58125 443.42188 38.05Q443.04688 37.51875 442.89062 36.7375Q442.78125 36.221874 442.78125 35.096874L442.78125 28.675L444.53125 28.675L444.53125 34.425Q444.53125 35.8 444.64062 36.284374Q444.8125 36.971874 445.34375 37.378124Q445.89062 37.76875 446.67188 37.76875Q447.46875 37.76875 448.15625 37.3625Q448.85938 36.95625 449.14062 36.26875Q449.4375 35.565624 449.4375 34.2375L449.4375 28.675L451.1875 28.675L451.1875 39.05L449.60938 39.05ZM459.59375 37.76875Q458.60938 38.596874 457.70312 38.940624Q456.79688 39.284374 455.76562 39.284374Q454.0625 39.284374 453.14062 38.45625Q452.21875 37.6125 452.21875 36.315624Q452.21875 35.55 452.5625 34.925Q452.92188 34.3 453.48438 33.925Q454.04688 33.534374 454.75 33.33125Q455.26562 33.20625 456.3125 33.065624Q458.4375 32.815624 459.4375 32.471874Q459.45312 32.1125 459.45312 32.003124Q459.45312 30.940624 458.95312 30.4875Q458.28125 29.89375 456.95312 29.89375Q455.70312 29.89375 455.10938 30.33125Q454.53125 30.76875 454.25 31.878124L452.53125 31.64375Q452.76562 30.534374 453.29688 29.8625Q453.82812 29.175 454.84375 28.815624Q455.85938 28.440624 457.20312 28.440624Q458.53125 28.440624 459.35938 28.753124Q460.1875 29.065624 460.57812 29.55Q460.96875 30.01875 461.125 30.7375Q461.21875 31.190624 461.21875 32.3625L461.21875 34.70625Q461.21875 37.159374 461.32812 37.815624Q461.4375 38.45625 461.78125 39.05L459.9375 39.05Q459.67188 38.503124 459.59375 37.76875ZM459.4375 33.846874Q458.48438 34.2375 456.5625 34.503124Q455.48438 34.659374 455.03125 34.8625Q454.59375 35.05 454.34375 35.425Q454.09375 35.8 454.09375 36.26875Q454.09375 36.971874 454.625 37.440624Q455.15625 37.909374 456.1875 37.909374Q457.20312 37.909374 457.98438 37.471874Q458.78125 37.01875 459.15625 36.253124Q459.4375 35.64375 459.4375 34.4875L459.4375 33.846874ZM463.5 39.909374L465.20312 40.159374Q465.3125 40.95625 465.79688 41.315624Q466.45312 41.8 467.59375 41.8Q468.8125 41.8 469.46875 41.315624Q470.14062 40.83125 470.375 39.95625Q470.51562 39.409374 470.5 37.690624Q469.34375 39.05 467.625 39.05Q465.48438 39.05 464.3125 37.503124Q463.14062 35.95625 463.14062 33.8Q463.14062 32.315624 463.67188 31.065624Q464.21875 29.815624 465.23438 29.128124Q466.26562 28.440624 467.64062 28.440624Q469.46875 28.440624 470.67188 29.925L470.67188 28.675L472.28125 28.675L472.28125 37.64375Q472.28125 40.065624 471.78125 41.065624Q471.29688 42.08125 470.21875 42.659374Q469.15625 43.253124 467.59375 43.253124Q465.75 43.253124 464.59375 42.425Q463.45312 41.596874 463.5 39.909374ZM464.95312 33.675Q464.95312 35.721874 465.76562 36.659374Q466.57812 37.596874 467.79688 37.596874Q469.0 37.596874 469.8125 36.659374Q470.64062 35.721874 470.64062 33.7375Q470.64062 31.83125 469.79688 30.8625Q468.95312 29.89375 467.76562 29.89375Q466.59375 29.89375 465.76562 30.846874Q464.95312 31.8 464.95312 33.675ZM481.92188 35.70625L483.73438 35.940624Q483.3125 37.51875 482.14062 38.409374Q480.98438 39.284374 479.17188 39.284374Q476.90625 39.284374 475.5625 37.89375Q474.23438 36.4875 474.23438 33.95625Q474.23438 31.33125 475.57812 29.89375Q476.92188 28.440624 479.07812 28.440624Q481.15625 28.440624 482.46875 29.8625Q483.79688 31.26875 483.79688 33.846874Q483.79688 34.003124 483.78125 34.315624L476.04688 34.315624Q476.14062 36.01875 477.01562 36.925Q477.89062 37.83125 479.1875 37.83125Q480.15625 37.83125 480.82812 37.33125Q481.51562 36.815624 481.92188 35.70625ZM476.14062 32.8625L481.9375 32.8625Q481.82812 31.565624 481.28125 30.909374Q480.4375 29.89375 479.09375 29.89375Q477.89062 29.89375 477.0625 30.70625Q476.23438 31.503124 476.14062 32.8625Z" fill-rule="nonzero"/></svg>