<svg version="1.1" viewBox="0.0 0.0 810.0 401.0" fill="none" stroke="none" stroke-linecap="square" stroke-miterlimit="10" width="810" height="401" xmlns:xlink="http://www.w3.org/1999/xlink" xmlns="http://www.w3.org/2000/svg"><path fill="#ffffff" d="M0 0L810.0 0L810.0 401.0L0 401.0L0 0Z" fill-rule="nonzero"/><path fill="#fbbc04" d="M328.65417 58.86003C335.8011 57.898865 343.0043 57.416668 350.21555 57.416668L350.21555 138.3C346.60992 138.3 343.00833 138.54109 339.43488 139.02168Z" fill-rule="nonzero"/><path fill="#ef4444" d="M258.66418 85.81617C279.56027 71.471825 303.53458 62.23829 328.65417 58.86003L339.43488 139.02168C326.87506 140.71082 314.8879 145.32758 304.43988 152.49976Z" fill-rule="nonzero"/><path fill="#3b82f6" d="M350.21555 57.416668C430.1971 57.416668 498.1726 115.867256 510.1562 194.94598C522.1398 274.02472 474.53366 349.9905 398.14307 373.68707C321.75247 397.38367 239.51143 361.69684 204.6368 289.719C169.76216 217.74113 192.72404 131.08151 258.66418 85.81617L304.43988 152.49976C271.46982 175.13242 259.98886 218.46223 277.42618 254.45116C294.8635 290.4401 335.984 308.2835 374.17932 296.4352C412.3746 284.5869 436.17764 246.60402 430.18588 207.06465C424.1941 167.5253 390.20633 138.3 350.21555 138.3Z" fill-rule="nonzero"/><path fill="#000000" d="M369.21033 342.28925L371.0697 342.08612Q371.1322 342.64862 371.41345 342.92987Q371.71033 343.1955 372.17908 343.1955Q372.77283 343.1955 373.17908 342.64862Q373.60095 342.10175 373.72595 340.383Q373.0072 341.21112 371.91345 341.21112Q370.72595 341.21112 369.86658 340.30487Q369.0072 339.39862 369.0072 337.92987Q369.0072 336.39862 369.91345 335.47675Q370.8197 334.53925 372.22595 334.53925Q373.7572 334.53925 374.72595 335.72675Q375.71033 336.89862 375.71033 339.60175Q375.71033 342.35175 374.67908 343.5705Q373.66345 344.77362 372.03845 344.77362Q370.86658 344.77362 370.1322 344.14862Q369.41345 343.52362 369.21033 342.28925ZM373.55408 338.08612Q373.55408 337.16425 373.11658 336.64862Q372.6947 336.133 372.1322 336.133Q371.60095 336.133 371.24158 336.55487Q370.89783 336.97675 370.89783 337.92987Q370.89783 338.89862 371.27283 339.35175Q371.66345 339.80487 372.24158 339.80487Q372.78845 339.80487 373.16345 339.36737Q373.55408 338.92987 373.55408 338.08612ZM380.41345 334.53925Q381.86658 334.53925 382.6947 335.5705Q383.66345 336.80487 383.66345 339.66425Q383.66345 342.508 382.67908 343.74237Q381.86658 344.77362 380.41345 344.77362Q378.9447 344.77362 378.05408 343.64862Q377.16345 342.52362 377.16345 339.633Q377.16345 336.80487 378.14783 335.5705Q378.96033 334.53925 380.41345 334.53925ZM380.41345 336.133Q380.0697 336.133 379.78845 336.35175Q379.52283 336.5705 379.36658 337.14862Q379.16345 337.89862 379.16345 339.66425Q379.16345 341.42987 379.33533 342.08612Q379.52283 342.74237 379.78845 342.96112Q380.0697 343.17987 380.41345 343.17987Q380.7572 343.17987 381.02283 342.96112Q381.30408 342.74237 381.46033 342.16425Q381.66345 341.42987 381.66345 339.66425Q381.66345 337.89862 381.47595 337.24237Q381.30408 336.5705 381.02283 336.35175Q380.7572 336.133 380.41345 336.133ZM385.5697 344.60175L385.5697 342.67987L387.49158 342.67987L387.49158 344.60175L385.5697 344.60175ZM392.92908 344.60175L392.92908 342.58612L388.83533 342.58612L388.83533 340.89862L393.17908 334.53925L394.78845 334.53925L394.78845 340.89862L396.03845 340.89862L396.03845 342.58612L394.78845 342.58612L394.78845 344.60175L392.92908 344.60175ZM392.92908 340.89862L392.92908 337.47675L390.6322 340.89862L392.92908 340.89862ZM397.17908 337.05487Q397.17908 335.71112 397.77283 335.0705Q398.36658 334.41425 399.36658 334.41425Q400.41345 334.41425 401.0072 335.05487Q401.60095 335.6955 401.60095 337.05487Q401.60095 338.39862 401.0072 339.05487Q400.41345 339.6955 399.41345 339.6955Q398.36658 339.6955 397.77283 339.05487Q397.17908 338.41425 397.17908 337.05487ZM398.67908 337.03925Q398.67908 338.02362 398.89783 338.35175Q399.0697 338.60175 399.36658 338.60175Q399.67908 338.60175 399.85095 338.35175Q400.0697 338.02362 400.0697 337.03925Q400.0697 336.0705 399.85095 335.74237Q399.67908 335.47675 399.36658 335.47675Q399.0697 335.47675 398.89783 335.72675Q398.67908 336.0705 398.67908 337.03925ZM400.83533 344.99237L399.41345 344.99237L404.7572 334.41425L406.1322 334.41425L400.83533 344.99237ZM403.9447 342.35175Q403.9447 341.008 404.52283 340.36737Q405.11658 339.71112 406.14783 339.71112Q407.17908 339.71112 407.77283 340.36737Q408.36658 341.008 408.36658 342.35175Q408.36658 343.71112 407.77283 344.36737Q407.17908 345.008 406.16345 345.008Q405.11658 345.008 404.52283 344.36737Q403.9447 343.71112 403.9447 342.35175ZM405.42908 342.35175Q405.42908 343.3205 405.66345 343.64862Q405.83533 343.89862 406.1322 343.89862Q406.4447 343.89862 406.60095 343.66425Q406.83533 343.3205 406.83533 342.35175Q406.83533 341.36737 406.61658 341.03925Q406.4447 340.78925 406.1322 340.78925Q405.8197 340.78925 405.66345 341.03925Q405.42908 341.36737 405.42908 342.35175Z" fill-rule="nonzero"/><path fill="#000000" d="M290.26935 97.84781L290.26935 96.050934L296.84747 96.050934L296.84747 97.457184Q296.01935 98.25406 295.1756 99.75406Q294.34747 101.238434 293.89435 102.925934Q293.45685 104.613434 293.47247 105.94156L291.6131 105.94156Q291.65997 103.863434 292.47247 101.707184Q293.28497 99.53531 294.64435 97.84781L290.26935 97.84781ZM298.6756 105.94156L298.6756 104.019684L300.59747 104.019684L300.59747 105.94156L298.6756 105.94156ZM306.03497 105.94156L306.03497 103.925934L301.94122 103.925934L301.94122 102.238434L306.28497 95.87906L307.89435 95.87906L307.89435 102.238434L309.14435 102.238434L309.14435 103.925934L307.89435 103.925934L307.89435 105.94156L306.03497 105.94156ZM306.03497 102.238434L306.03497 98.81656L303.7381 102.238434L306.03497 102.238434ZM310.28497 98.394684Q310.28497 97.050934 310.87872 96.41031Q311.47247 95.75406 312.47247 95.75406Q313.51935 95.75406 314.1131 96.394684Q314.70685 97.03531 314.70685 98.394684Q314.70685 99.738434 314.1131 100.394684Q313.51935 101.03531 312.51935 101.03531Q311.47247 101.03531 310.87872 100.394684Q310.28497 99.75406 310.28497 98.394684ZM311.78497 98.37906Q311.78497 99.363434 312.00372 99.69156Q312.1756 99.94156 312.47247 99.94156Q312.78497 99.94156 312.95685 99.69156Q313.1756 99.363434 313.1756 98.37906Q313.1756 97.41031 312.95685 97.082184Q312.78497 96.81656 312.47247 96.81656Q312.1756 96.81656 312.00372 97.06656Q311.78497 97.41031 311.78497 98.37906ZM313.94122 106.332184L312.51935 106.332184L317.8631 95.75406L319.2381 95.75406L313.94122 106.332184ZM317.0506 103.69156Q317.0506 102.34781 317.62872 101.707184Q318.22247 101.050934 319.25372 101.050934Q320.28497 101.050934 320.87872 101.707184Q321.47247 102.34781 321.47247 103.69156Q321.47247 105.050934 320.87872 105.707184Q320.28497 106.34781 319.26935 106.34781Q318.22247 106.34781 317.62872 105.707184Q317.0506 105.050934 317.0506 103.69156ZM318.53497 103.69156Q318.53497 104.66031 318.76935 104.988434Q318.94122 105.238434 319.2381 105.238434Q319.5506 105.238434 319.70685 105.00406Q319.94122 104.66031 319.94122 103.69156Q319.94122 102.707184 319.72247 102.37906Q319.5506 102.12906 319.2381 102.12906Q318.9256 102.12906 318.76935 102.37906Q318.53497 102.707184 318.53497 103.69156Z" fill-rule="nonzero"/><path fill="#3b82f6" d="M713.95 64.416664C713.95 67.73038 711.26373 70.416664 707.95 70.416664C704.6363 70.416664 701.95 67.73038 701.95 64.416664C701.95 61.10296 704.6363 58.416668 707.95 58.416668C711.26373 58.416668 713.95 61.10296 713.95 64.416664Z" fill-rule="nonzero"/><path fill="#1a1a1a" d="M722.8719 68.416664L722.8719 59.822914L725.84064 59.822914Q726.84064 59.822914 727.3719 59.947914Q728.10626 60.11979 728.6219 60.55729Q729.3094 61.135414 729.6375 62.041664Q729.98126 62.93229 729.98126 64.072914Q729.98126 65.05729 729.7469 65.80729Q729.52814 66.55729 729.16876 67.05729Q728.8094 67.55729 728.3719 67.83854Q727.95 68.11979 727.35626 68.27604Q726.7625 68.416664 725.98126 68.416664L722.8719 68.416664ZM724.0125 67.40104L725.84064 67.40104Q726.7 67.40104 727.1844 67.24479Q727.66876 67.08854 727.95 66.791664Q728.35626 66.40104 728.575 65.71354Q728.8094 65.02604 728.8094 64.05729Q728.8094 62.71354 728.35626 61.99479Q727.91876 61.260414 727.29376 61.010414Q726.825 60.83854 725.825 60.83854L724.0125 60.83854L724.0125 67.40104ZM735.9969 66.416664L737.09064 66.541664Q736.84064 67.49479 736.1375 68.02604Q735.4344 68.55729 734.35626 68.55729Q732.9969 68.55729 732.1844 67.71354Q731.3875 66.86979 731.3875 65.354164Q731.3875 63.791664 732.2 62.93229Q733.0125 62.05729 734.29376 62.05729Q735.54376 62.05729 736.325 62.90104Q737.1219 63.74479 737.1219 65.291664Q737.1219 65.385414 737.1219 65.572914L732.48126 65.572914Q732.54376 66.604164 733.0594 67.15104Q733.575 67.68229 734.35626 67.68229Q734.9344 67.68229 735.34064 67.385414Q735.7625 67.072914 735.9969 66.416664ZM732.54376 64.71354L736.0125 64.71354Q735.95 63.916664 735.6219 63.52604Q735.10626 62.916664 734.3094 62.916664Q733.575 62.916664 733.075 63.40104Q732.59064 63.885414 732.54376 64.71354ZM738.325 66.55729L739.35626 66.40104Q739.45 67.02604 739.84064 67.354164Q740.2469 67.68229 740.98126 67.68229Q741.7 67.68229 742.04376 67.40104Q742.40314 67.104164 742.40314 66.697914Q742.40314 66.33854 742.09064 66.135414Q741.8719 65.99479 741.0125 65.77604Q739.85626 65.479164 739.40314 65.27604Q738.96564 65.05729 738.73126 64.68229Q738.4969 64.30729 738.4969 63.83854Q738.4969 63.43229 738.6844 63.072914Q738.8719 62.71354 739.2 62.479164Q739.45 62.30729 739.8719 62.18229Q740.29376 62.05729 740.79376 62.05729Q741.5125 62.05729 742.0594 62.27604Q742.6219 62.479164 742.8875 62.83854Q743.15314 63.197914 743.2469 63.791664L742.21564 63.93229Q742.15314 63.46354 741.8094 63.197914Q741.48126 62.916664 740.85626 62.916664Q740.1375 62.916664 739.825 63.166664Q739.5125 63.40104 739.5125 63.729164Q739.5125 63.93229 739.6375 64.08854Q739.77814 64.260414 740.04376 64.36979Q740.2 64.43229 740.98126 64.635414Q742.10626 64.947914 742.54376 65.135414Q742.98126 65.322914 743.23126 65.68229Q743.48126 66.041664 743.48126 66.58854Q743.48126 67.11979 743.16876 67.58854Q742.8719 68.041664 742.29376 68.30729Q741.71564 68.55729 740.98126 68.55729Q739.7625 68.55729 739.1219 68.05729Q738.4969 67.541664 738.325 66.55729ZM745.7469 68.416664L745.7469 59.822914L746.8094 59.822914L746.8094 64.729164L749.29376 62.197914L750.66876 62.197914L748.27814 64.49479L750.90314 68.416664L749.60626 68.416664L747.54376 65.229164L746.8094 65.947914L746.8094 68.416664L745.7469 68.416664ZM754.04376 67.479164L754.2 68.40104Q753.7469 68.49479 753.40314 68.49479Q752.825 68.49479 752.5125 68.322914Q752.2 68.135414 752.0594 67.83854Q751.9344 67.541664 751.9344 66.58854L751.9344 63.010414L751.16876 63.010414L751.16876 62.197914L751.9344 62.197914L751.9344 60.65104L752.98126 60.02604L752.98126 62.197914L754.04376 62.197914L754.04376 63.010414L752.98126 63.010414L752.98126 66.65104Q752.98126 67.104164 753.02814 67.229164Q753.09064 67.354164 753.21564 67.43229Q753.34064 67.510414 753.575 67.510414Q753.7625 67.510414 754.04376 67.479164ZM754.35626 65.30729Q754.35626 63.572914 755.3094 62.74479Q756.10626 62.05729 757.2625 62.05729Q758.54376 62.05729 759.35626 62.90104Q760.1844 63.729164 760.1844 65.21354Q760.1844 66.416664 759.825 67.104164Q759.46564 67.791664 758.7625 68.18229Q758.075 68.55729 757.2625 68.55729Q755.96564 68.55729 755.15314 67.729164Q754.35626 66.885414 754.35626 65.30729ZM755.4344 65.30729Q755.4344 66.49479 755.95 67.08854Q756.48126 67.68229 757.2625 67.68229Q758.0594 67.68229 758.575 67.08854Q759.09064 66.49479 759.09064 65.27604Q759.09064 64.11979 758.5594 63.52604Q758.04376 62.93229 757.2625 62.93229Q756.48126 62.93229 755.95 63.52604Q755.4344 64.104164 755.4344 65.30729ZM761.7469 70.80729L761.7469 62.197914L762.7 62.197914L762.7 62.99479Q763.04376 62.52604 763.46564 62.291664Q763.90314 62.05729 764.5125 62.05729Q765.3094 62.05729 765.91876 62.46354Q766.52814 62.86979 766.825 63.61979Q767.1375 64.36979 767.1375 65.260414Q767.1375 66.21354 766.79376 66.979164Q766.46564 67.74479 765.8094 68.15104Q765.15314 68.55729 764.4344 68.55729Q763.90314 68.55729 763.48126 68.33854Q763.0594 68.104164 762.79376 67.77604L762.79376 70.80729L761.7469 70.80729ZM762.7 65.33854Q762.7 66.541664 763.1844 67.11979Q763.66876 67.68229 764.35626 67.68229Q765.0594 67.68229 765.5594 67.08854Q766.0594 66.49479 766.0594 65.24479Q766.0594 64.05729 765.575 63.479164Q765.09064 62.885414 764.40314 62.885414Q763.73126 62.885414 763.21564 63.510414Q762.7 64.135414 762.7 65.33854Z" fill-rule="nonzero"/><path fill="#ef4444" d="M713.95 88.416664C713.95 91.73038 711.26373 94.416664 707.95 94.416664C704.6363 94.416664 701.95 91.73038 701.95 88.416664C701.95 85.10296 704.6363 82.416664 707.95 82.416664C711.26373 82.416664 713.95 85.10296 713.95 88.416664Z" fill-rule="nonzero"/><path fill="#1a1a1a" d="M722.4969 89.65104L723.5594 89.55729Q723.6375 90.21354 723.91876 90.61979Q724.2 91.02604 724.77814 91.291664Q725.3719 91.541664 726.10626 91.541664Q726.7469 91.541664 727.2469 91.354164Q727.7469 91.15104 727.98126 90.822914Q728.23126 90.479164 728.23126 90.08854Q728.23126 89.68229 727.9969 89.385414Q727.7625 89.072914 727.23126 88.86979Q726.8719 88.729164 725.6844 88.447914Q724.5125 88.166664 724.04376 87.916664Q723.41876 87.58854 723.1219 87.11979Q722.825 86.635414 722.825 86.041664Q722.825 85.40104 723.1844 84.83854Q723.5594 84.260414 724.2625 83.979164Q724.98126 83.68229 725.84064 83.68229Q726.79376 83.68229 727.52814 83.99479Q728.2625 84.291664 728.65314 84.90104Q729.04376 85.49479 729.075 86.24479L727.98126 86.322914Q727.8875 85.510414 727.3719 85.104164Q726.8719 84.68229 725.8875 84.68229Q724.85626 84.68229 724.3875 85.05729Q723.91876 85.43229 723.91876 85.96354Q723.91876 86.43229 724.2469 86.729164Q724.575 87.02604 725.95 87.33854Q727.34064 87.65104 727.85626 87.885414Q728.60626 88.24479 728.96564 88.77604Q729.325 89.291664 729.325 89.99479Q729.325 90.68229 728.9344 91.291664Q728.54376 91.885414 727.8094 92.229164Q727.075 92.55729 726.15314 92.55729Q724.98126 92.55729 724.1844 92.229164Q723.40314 91.885414 722.95 91.197914Q722.5125 90.510414 722.4969 89.65104ZM730.7469 92.416664L730.7469 86.197914L731.6844 86.197914L731.6844 87.072914Q731.98126 86.604164 732.46564 86.33854Q732.95 86.05729 733.575 86.05729Q734.2625 86.05729 734.7 86.33854Q735.15314 86.61979 735.325 87.135414Q736.075 86.05729 737.2469 86.05729Q738.1844 86.05729 738.66876 86.572914Q739.16876 87.072914 739.16876 88.15104L739.16876 92.416664L738.1219 92.416664L738.1219 88.49479Q738.1219 87.86979 738.0125 87.58854Q737.91876 87.30729 737.65314 87.135414Q737.3875 86.96354 737.0125 86.96354Q736.35626 86.96354 735.91876 87.40104Q735.4969 87.83854 735.4969 88.80729L735.4969 92.416664L734.4344 92.416664L734.4344 88.36979Q734.4344 87.666664 734.16876 87.322914Q733.91876 86.96354 733.34064 86.96354Q732.8875 86.96354 732.5125 87.197914Q732.1375 87.43229 731.96564 87.885414Q731.79376 88.33854 731.79376 89.18229L731.79376 92.416664L730.7469 92.416664ZM745.8094 91.65104Q745.21564 92.15104 744.66876 92.354164Q744.1375 92.55729 743.5125 92.55729Q742.48126 92.55729 741.9344 92.05729Q741.3875 91.55729 741.3875 90.77604Q741.3875 90.322914 741.59064 89.947914Q741.79376 89.55729 742.1375 89.33854Q742.48126 89.104164 742.90314 88.99479Q743.2 88.90104 743.84064 88.822914Q745.10626 88.68229 745.71564 88.46354Q745.71564 88.24479 745.71564 88.197914Q745.71564 87.541664 745.41876 87.27604Q745.0125 86.93229 744.21564 86.93229Q743.48126 86.93229 743.1219 87.197914Q742.7625 87.447914 742.59064 88.104164L741.5594 87.96354Q741.7 87.30729 742.02814 86.90104Q742.35626 86.49479 742.96564 86.27604Q743.575 86.05729 744.3719 86.05729Q745.16876 86.05729 745.66876 86.24479Q746.16876 86.43229 746.40314 86.71354Q746.6375 86.99479 746.73126 87.43229Q746.77814 87.697914 746.77814 88.40104L746.77814 89.80729Q746.77814 91.27604 746.84064 91.666664Q746.91876 92.05729 747.1219 92.416664L746.0125 92.416664Q745.85626 92.08854 745.8094 91.65104ZM745.71564 89.291664Q745.1375 89.52604 743.9969 89.697914Q743.34064 89.791664 743.075 89.916664Q742.8094 90.02604 742.65314 90.24479Q742.5125 90.46354 742.5125 90.74479Q742.5125 91.166664 742.825 91.447914Q743.15314 91.729164 743.7625 91.729164Q744.3719 91.729164 744.84064 91.46354Q745.325 91.197914 745.54376 90.729164Q745.71564 90.36979 745.71564 89.68229L745.71564 89.291664ZM748.73126 92.416664L748.73126 86.197914L749.6844 86.197914L749.6844 87.135414Q750.04376 86.479164 750.34064 86.27604Q750.65314 86.05729 751.02814 86.05729Q751.5594 86.05729 752.10626 86.385414L751.7469 87.36979Q751.35626 87.135414 750.98126 87.135414Q750.6219 87.135414 750.34064 87.354164Q750.075 87.55729 749.96564 87.93229Q749.77814 88.49479 749.77814 89.15104L749.77814 92.416664L748.73126 92.416664ZM755.04376 91.479164L755.2 92.40104Q754.7469 92.49479 754.40314 92.49479Q753.825 92.49479 753.5125 92.322914Q753.2 92.135414 753.0594 91.83854Q752.9344 91.541664 752.9344 90.58854L752.9344 87.010414L752.16876 87.010414L752.16876 86.197914L752.9344 86.197914L752.9344 84.65104L753.98126 84.02604L753.98126 86.197914L755.04376 86.197914L755.04376 87.010414L753.98126 87.010414L753.98126 90.65104Q753.98126 91.104164 754.02814 91.229164Q754.09064 91.354164 754.21564 91.43229Q754.34064 91.510414 754.575 91.510414Q754.7625 91.510414 755.04376 91.479164ZM755.7469 94.80729L755.7469 86.197914L756.7 86.197914L756.7 86.99479Q757.04376 86.52604 757.46564 86.291664Q757.90314 86.05729 758.5125 86.05729Q759.3094 86.05729 759.91876 86.46354Q760.52814 86.86979 760.825 87.61979Q761.1375 88.36979 761.1375 89.260414Q761.1375 90.21354 760.79376 90.979164Q760.46564 91.74479 759.8094 92.15104Q759.15314 92.55729 758.4344 92.55729Q757.90314 92.55729 757.48126 92.33854Q757.0594 92.104164 756.79376 91.77604L756.79376 94.80729L755.7469 94.80729ZM756.7 89.33854Q756.7 90.541664 757.1844 91.11979Q757.66876 91.68229 758.35626 91.68229Q759.0594 91.68229 759.5594 91.08854Q760.0594 90.49479 760.0594 89.24479Q760.0594 88.05729 759.575 87.479164Q759.09064 86.885414 758.40314 86.885414Q757.73126 86.885414 757.21564 87.510414Q756.7 88.135414 756.7 89.33854ZM762.7469 92.416664L762.7469 83.822914L763.79376 83.822914L763.79376 86.90104Q764.52814 86.05729 765.65314 86.05729Q766.35626 86.05729 766.85626 86.33854Q767.3719 86.604164 767.59064 87.08854Q767.8094 87.55729 767.8094 88.479164L767.8094 92.416664L766.7625 92.416664L766.7625 88.479164Q766.7625 87.68229 766.41876 87.322914Q766.075 86.96354 765.45 86.96354Q764.98126 86.96354 764.5594 87.21354Q764.15314 87.447914 763.96564 87.86979Q763.79376 88.27604 763.79376 89.010414L763.79376 92.416664L762.7469 92.416664ZM769.35626 89.30729Q769.35626 87.572914 770.3094 86.74479Q771.10626 86.05729 772.2625 86.05729Q773.54376 86.05729 774.35626 86.90104Q775.1844 87.729164 775.1844 89.21354Q775.1844 90.416664 774.825 91.104164Q774.46564 91.791664 773.7625 92.18229Q773.075 92.55729 772.2625 92.55729Q770.96564 92.55729 770.15314 91.729164Q769.35626 90.885414 769.35626 89.30729ZM770.4344 89.30729Q770.4344 90.49479 770.95 91.08854Q771.48126 91.68229 772.2625 91.68229Q773.0594 91.68229 773.575 91.08854Q774.09064 90.49479 774.09064 89.27604Q774.09064 88.11979 773.5594 87.52604Q773.04376 86.93229 772.2625 86.93229Q771.48126 86.93229 770.95 87.52604Q770.4344 88.104164 770.4344 89.30729ZM776.7469 92.416664L776.7469 86.197914L777.6844 86.197914L777.6844 87.072914Q778.3719 86.05729 779.66876 86.05729Q780.23126 86.05729 780.7 86.260414Q781.1844 86.46354 781.41876 86.791664Q781.65314 87.11979 781.7469 87.55729Q781.79376 87.854164 781.79376 88.58854L781.79376 92.416664L780.7469 92.416664L780.7469 88.635414Q780.7469 87.979164 780.6219 87.666664Q780.4969 87.354164 780.1844 87.166664Q779.8719 86.96354 779.45 86.96354Q778.77814 86.96354 778.27814 87.40104Q777.79376 87.822914 777.79376 89.010414L777.79376 92.416664L776.7469 92.416664ZM787.9969 90.416664L789.09064 90.541664Q788.84064 91.49479 788.1375 92.02604Q787.4344 92.55729 786.35626 92.55729Q784.9969 92.55729 784.1844 91.71354Q783.3875 90.86979 783.3875 89.354164Q783.3875 87.791664 784.2 86.93229Q785.0125 86.05729 786.29376 86.05729Q787.54376 86.05729 788.325 86.90104Q789.1219 87.74479 789.1219 89.291664Q789.1219 89.385414 789.1219 89.572914L784.48126 89.572914Q784.54376 90.604164 785.0594 91.15104Q785.575 91.68229 786.35626 91.68229Q786.9344 91.68229 787.34064 91.385414Q787.7625 91.072914 787.9969 90.416664ZM784.54376 88.71354L788.0125 88.71354Q787.95 87.916664 787.6219 87.52604Q787.10626 86.916664 786.3094 86.916664Q785.575 86.916664 785.075 87.40104Q784.59064 87.885414 784.54376 88.71354Z" fill-rule="nonzero"/><path fill="#fbbc04" d="M713.95 112.416664C713.95 115.73038 711.26373 118.416664 707.95 118.416664C704.6363 118.416664 701.95 115.73038 701.95 112.416664C701.95 109.10296 704.6363 106.416664 707.95 106.416664C711.26373 106.416664 713.95 109.10296 713.95 112.416664Z" fill-rule="nonzero"/><path fill="#1a1a1a" d="M725.0594 116.416664L725.0594 108.83854L722.23126 108.83854L722.23126 107.822914L729.04376 107.822914L729.04376 108.83854L726.2 108.83854L726.2 116.416664L725.0594 116.416664ZM733.8094 115.65104Q733.21564 116.15104 732.66876 116.354164Q732.1375 116.55729 731.5125 116.55729Q730.48126 116.55729 729.9344 116.05729Q729.3875 115.55729 729.3875 114.77604Q729.3875 114.322914 729.59064 113.947914Q729.79376 113.55729 730.1375 113.33854Q730.48126 113.104164 730.90314 112.99479Q731.2 112.90104 731.84064 112.822914Q733.10626 112.68229 733.71564 112.46354Q733.71564 112.24479 733.71564 112.197914Q733.71564 111.541664 733.41876 111.27604Q733.0125 110.93229 732.21564 110.93229Q731.48126 110.93229 731.1219 111.197914Q730.7625 111.447914 730.59064 112.104164L729.5594 111.96354Q729.7 111.30729 730.02814 110.90104Q730.35626 110.49479 730.96564 110.27604Q731.575 110.05729 732.3719 110.05729Q733.16876 110.05729 733.66876 110.24479Q734.16876 110.43229 734.40314 110.71354Q734.6375 110.99479 734.73126 111.43229Q734.77814 111.697914 734.77814 112.40104L734.77814 113.80729Q734.77814 115.27604 734.84064 115.666664Q734.91876 116.05729 735.1219 116.416664L734.0125 116.416664Q733.85626 116.08854 733.8094 115.65104ZM733.71564 113.291664Q733.1375 113.52604 731.9969 113.697914Q731.34064 113.791664 731.075 113.916664Q730.8094 114.02604 730.65314 114.24479Q730.5125 114.46354 730.5125 114.74479Q730.5125 115.166664 730.825 115.447914Q731.15314 115.729164 731.7625 115.729164Q732.3719 115.729164 732.84064 115.46354Q733.325 115.197914 733.54376 114.729164Q733.71564 114.36979 733.71564 113.68229L733.71564 113.291664ZM737.71564 116.416664L736.73126 116.416664L736.73126 107.822914L737.79376 107.822914L737.79376 110.885414Q738.46564 110.05729 739.4969 110.05729Q740.075 110.05729 740.575 110.291664Q741.09064 110.510414 741.41876 110.93229Q741.7625 111.354164 741.95 111.947914Q742.1375 112.541664 742.1375 113.21354Q742.1375 114.80729 741.34064 115.68229Q740.54376 116.55729 739.45 116.55729Q738.34064 116.55729 737.71564 115.635414L737.71564 116.416664ZM737.7 113.260414Q737.7 114.36979 738.0125 114.86979Q738.5125 115.68229 739.35626 115.68229Q740.04376 115.68229 740.54376 115.08854Q741.0594 114.49479 741.0594 113.291664Q741.0594 112.072914 740.575 111.49479Q740.09064 110.916664 739.40314 110.916664Q738.71564 110.916664 738.2 111.52604Q737.7 112.11979 737.7 113.260414ZM743.71564 116.416664L743.71564 107.822914L744.77814 107.822914L744.77814 116.416664L743.71564 116.416664ZM750.9969 114.416664L752.09064 114.541664Q751.84064 115.49479 751.1375 116.02604Q750.4344 116.55729 749.35626 116.55729Q747.9969 116.55729 747.1844 115.71354Q746.3875 114.86979 746.3875 113.354164Q746.3875 111.791664 747.2 110.93229Q748.0125 110.05729 749.29376 110.05729Q750.54376 110.05729 751.325 110.90104Q752.1219 111.74479 752.1219 113.291664Q752.1219 113.385414 752.1219 113.572914L747.48126 113.572914Q747.54376 114.604164 748.0594 115.15104Q748.575 115.68229 749.35626 115.68229Q749.9344 115.68229 750.34064 115.385414Q750.7625 115.072914 750.9969 114.416664ZM747.54376 112.71354L751.0125 112.71354Q750.95 111.916664 750.6219 111.52604Q750.10626 110.916664 749.3094 110.916664Q748.575 110.916664 748.075 111.40104Q747.59064 111.885414 747.54376 112.71354ZM756.04376 115.479164L756.2 116.40104Q755.7469 116.49479 755.40314 116.49479Q754.825 116.49479 754.5125 116.322914Q754.2 116.135414 754.0594 115.83854Q753.9344 115.541664 753.9344 114.58854L753.9344 111.010414L753.16876 111.010414L753.16876 110.197914L753.9344 110.197914L753.9344 108.65104L754.98126 108.02604L754.98126 110.197914L756.04376 110.197914L756.04376 111.010414L754.98126 111.010414L754.98126 114.65104Q754.98126 115.104164 755.02814 115.229164Q755.09064 115.354164 755.21564 115.43229Q755.34064 115.510414 755.575 115.510414Q755.7625 115.510414 756.04376 115.479164Z" fill-rule="nonzero"/><path fill="#757575" d="M355.04688 39.05L355.04688 24.7375L359.96875 24.7375Q361.64062 24.7375 362.53125 24.940624Q363.75 25.221874 364.625 25.95625Q365.75 26.925 366.3125 28.409374Q366.875 29.89375 366.875 31.815624Q366.875 33.440624 366.5 34.70625Q366.125 35.95625 365.51562 36.784374Q364.92188 37.6125 364.21875 38.096874Q363.51562 38.565624 362.51562 38.815624Q361.51562 39.05 360.20312 39.05L355.04688 39.05ZM356.9375 37.3625L360.0 37.3625Q361.40625 37.3625 362.20312 37.096874Q363.01562 36.83125 363.5 36.346874Q364.17188 35.675 364.54688 34.55Q364.92188 33.409374 364.92188 31.784374Q364.92188 29.534374 364.1875 28.33125Q363.45312 27.128124 362.39062 26.721874Q361.64062 26.425 359.95312 26.425L356.9375 26.425L356.9375 37.3625ZM375.92188 35.70625L377.73438 35.940624Q377.3125 37.51875 376.14062 38.409374Q374.98438 39.284374 373.17188 39.284374Q370.90625 39.284374 369.5625 37.89375Q368.23438 36.4875 368.23438 33.95625Q368.23438 31.33125 369.57812 29.89375Q370.92188 28.440624 373.07812 28.440624Q375.15625 28.440624 376.46875 29.8625Q377.79688 31.26875 377.79688 33.846874Q377.79688 34.003124 377.78125 34.315624L370.04688 34.315624Q370.14062 36.01875 371.01562 36.925Q371.89062 37.83125 373.1875 37.83125Q374.15625 37.83125 374.82812 37.33125Q375.51562 36.815624 375.92188 35.70625ZM370.14062 32.8625L375.9375 32.8625Q375.82812 31.565624 375.28125 30.909374Q374.4375 29.89375 373.09375 29.89375Q371.89062 29.89375 371.0625 30.70625Q370.23438 31.503124 370.14062 32.8625ZM382.70312 39.05L378.75 28.675L380.60938 28.675L382.84375 34.89375Q383.20312 35.89375 383.5 36.971874Q383.73438 36.159374 384.15625 35.003124L386.45312 28.675L388.26562 28.675L384.34375 39.05L382.70312 39.05ZM388.82812 26.753124L388.82812 24.7375L390.59375 24.7375L390.59375 26.753124L388.82812 26.753124ZM388.82812 39.05L388.82812 28.675L390.59375 28.675L390.59375 39.05L388.82812 39.05ZM399.59375 35.253124L401.3125 35.471874Q401.03125 37.26875 399.85938 38.284374Q398.70312 39.284374 397.0 39.284374Q394.875 39.284374 393.57812 37.89375Q392.28125 36.503124 392.28125 33.909374Q392.28125 32.221874 392.82812 30.971874Q393.39062 29.70625 394.53125 29.08125Q395.67188 28.440624 397.01562 28.440624Q398.70312 28.440624 399.76562 29.3Q400.84375 30.159374 401.15625 31.721874L399.4375 31.9875Q399.20312 30.940624 398.57812 30.425Q397.95312 29.89375 397.07812 29.89375Q395.75 29.89375 394.92188 30.846874Q394.09375 31.8 394.09375 33.846874Q394.09375 35.940624 394.89062 36.89375Q395.6875 37.83125 396.98438 37.83125Q398.01562 37.83125 398.70312 37.20625Q399.40625 36.565624 399.59375 35.253124ZM409.92188 35.70625L411.73438 35.940624Q411.3125 37.51875 410.14062 38.409374Q408.98438 39.284374 407.17188 39.284374Q404.90625 39.284374 403.5625 37.89375Q402.23438 36.4875 402.23438 33.95625Q402.23438 31.33125 403.57812 29.89375Q404.92188 28.440624 407.07812 28.440624Q409.15625 28.440624 410.46875 29.8625Q411.79688 31.26875 411.79688 33.846874Q411.79688 34.003124 411.78125 34.315624L404.04688 34.315624Q404.14062 36.01875 405.01562 36.925Q405.89062 37.83125 407.1875 37.83125Q408.15625 37.83125 408.82812 37.33125Q409.51562 36.815624 409.92188 35.70625ZM404.14062 32.8625L409.9375 32.8625Q409.82812 31.565624 409.28125 30.909374Q408.4375 29.89375 407.09375 29.89375Q405.89062 29.89375 405.0625 30.70625Q404.23438 31.503124 404.14062 32.8625ZM423.65625 37.471874L423.90625 39.034374Q423.17188 39.190624 422.57812 39.190624Q421.625 39.190624 421.09375 38.89375Q420.57812 38.58125 420.35938 38.096874Q420.14062 37.596874 420.14062 36.01875L420.14062 30.05L418.85938 30.05L418.85938 28.675L420.14062 28.675L420.14062 26.1125L421.89062 25.05L421.89062 28.675L423.65625 28.675L423.65625 30.05L421.89062 30.05L421.89062 36.1125Q421.89062 36.8625 421.98438 37.08125Q422.07812 37.284374 422.28125 37.425Q422.5 37.55 422.89062 37.55Q423.17188 37.55 423.65625 37.471874ZM425.73438 43.05L425.54688 41.39375Q426.125 41.55 426.54688 41.55Q427.14062 41.55 427.48438 41.346874Q427.84375 41.159374 428.0625 40.815624Q428.23438 40.55 428.60938 39.503124Q428.65625 39.346874 428.76562 39.065624L424.82812 28.675L426.71875 28.675L428.875 34.690624Q429.29688 35.83125 429.625 37.08125Q429.9375 35.878124 430.34375 34.721874L432.5625 28.675L434.32812 28.675L430.375 39.221874Q429.75 40.940624 429.39062 41.58125Q428.92188 42.45625 428.3125 42.846874Q427.71875 43.253124 426.875 43.253124Q426.35938 43.253124 425.73438 43.05ZM435.8125 43.01875L435.8125 28.675L437.42188 28.675L437.42188 30.01875Q437.98438 29.2375 438.6875 28.846874Q439.40625 28.440624 440.42188 28.440624Q441.75 28.440624 442.76562 29.128124Q443.78125 29.815624 444.29688 31.065624Q444.82812 32.3 444.82812 33.784374Q444.82812 35.378124 444.25 36.659374Q443.6875 37.925 442.59375 38.6125Q441.5 39.284374 440.29688 39.284374Q439.42188 39.284374 438.71875 38.909374Q438.03125 38.534374 437.57812 37.971874L437.57812 43.01875L435.8125 43.01875ZM437.40625 33.925Q437.40625 35.925 438.21875 36.878124Q439.03125 37.83125 440.1875 37.83125Q441.35938 37.83125 442.1875 36.846874Q443.03125 35.8625 443.03125 33.76875Q443.03125 31.8 442.20312 30.815624Q441.39062 29.815624 440.26562 29.815624Q439.14062 29.815624 438.26562 30.878124Q437.40625 31.925 437.40625 33.925ZM453.92188 35.70625L455.73438 35.940624Q455.3125 37.51875 454.14062 38.409374Q452.98438 39.284374 451.17188 39.284374Q448.90625 39.284374 447.5625 37.89375Q446.23438 36.4875 446.23438 33.95625Q446.23438 31.33125 447.57812 29.89375Q448.92188 28.440624 451.07812 28.440624Q453.15625 28.440624 454.46875 29.8625Q455.79688 31.26875 455.79688 33.846874Q455.79688 34.003124 455.78125 34.315624L448.04688 34.315624Q448.14062 36.01875 449.01562 36.925Q449.89062 37.83125 451.1875 37.83125Q452.15625 37.83125 452.82812 37.33125Q453.51562 36.815624 453.92188 35.70625ZM448.14062 32.8625L453.9375 32.8625Q453.82812 31.565624 453.28125 30.909374Q452.4375 29.89375 451.09375 29.89375Q449.89062 29.89375 449.0625 30.70625Q448.23438 31.503124 448.14062 32.8625Z" fill-rule="nonzero"/></svg>