<svg version="1.1" viewBox="0.0 0.0 810.0 401.0" fill="none" stroke="none" stroke-linecap="square" stroke-miterlimit="10" width="810" height="401" xmlns:xlink="http://www.w3.org/1999/xlink" xmlns="http://www.w3.org/2000/svg"><path fill="#ffffff" d="M0 0L810.0 0L810.0 401.0L0 401.0L0 0Z" fill-rule="nonzero"/><path stroke="#cccccc" stroke-width="1.0" stroke-linecap="butt" d="M83.5 57.5L83.5 328.5" fill-rule="nonzero"/><path stroke="#cccccc" stroke-width="1.0" stroke-linecap="butt" d="M259.5 57.5L259.5 328.5" fill-rule="nonzero"/><path stroke="#cccccc" stroke-width="1.0" stroke-linecap="butt" d="M436.5 57.5L436.5 328.5" fill-rule="nonzero"/><path stroke="#cccccc" stroke-width="1.0" stroke-linecap="butt" d="M613.5 57.5L613.5 328.5" fill-rule="nonzero"/><path stroke="#cccccc" stroke-width="1.0" stroke-linecap="butt" d="M789.5 57.5L789.5 328.5" fill-rule="nonzero"/><clipPath id="id_0"><path d="M83.05 57.416668L789.95 57.416668L789.95 328.95L83.05 328.95L83.05 57.416668Z" clip-rule="nonzero"/></clipPath><path stroke="#000000" stroke-width="2.0" stroke-linecap="butt" stroke-opacity="0.0" clip-path="url(#id_0)" d="M83.0 259.0L83.0 128.0L738.0 128.0C739.10455 128.0 740.0 128.89543 740.0 130.0L740.0 257.0C740.0 258.10458 739.10455 259.0 738.0 259.0Z" fill-rule="nonzero"/><path fill="#84cc16" clip-path="url(#id_0)" d="M83.0 259.0L83.0 128.0L738.0 128.0C739.10455 128.0 740.0 128.89543 740.0 130.0L740.0 257.0C740.0 258.10458 739.10455 259.0 738.0 259.0Z" fill-rule="nonzero"/><path stroke="#84cc16" stroke-width="3.0" stroke-linejoin="round" stroke-linecap="round" d="M700.21387 194.09375Q699.542 194.73438 698.667 194.73438Q697.52637 194.73438 696.83887 193.96875Q696.167 193.1875 696.167 191.875Q696.167 191.03125 696.52637 190.32812Q696.90137 189.625 697.5576 189.23438Q698.21387 188.84375 699.042 188.84375Q699.88574 188.84375 700.542 189.26562Q701.19824 189.6875 701.5576 190.48438Q701.917 191.28125 701.9326 192.29688L701.9326 192.92188Q701.9326 195.0625 700.8701 196.28125Q699.8076 197.5 697.8545 197.57812L697.44824 197.57812L697.44824 196.17188L697.82324 196.15625Q700.02637 196.0625 700.21387 194.09375ZM699.07324 193.4375Q699.4951 193.4375 699.77637 193.23438Q700.07324 193.01562 700.2295 192.71875L700.2295 192.03125Q700.2295 191.17188 699.90137 190.70312Q699.57324 190.21875 699.02637 190.21875Q698.51074 190.21875 698.1826 190.6875Q697.8545 191.14062 697.8545 191.84375Q697.8545 192.54688 698.167 193.0Q698.4951 193.4375 699.07324 193.4375ZM707.21387 194.09375Q706.542 194.73438 705.667 194.73438Q704.52637 194.73438 703.83887 193.96875Q703.167 193.1875 703.167 191.875Q703.167 191.03125 703.52637 190.32812Q703.90137 189.625 704.5576 189.23438Q705.21387 188.84375 706.042 188.84375Q706.88574 188.84375 707.542 189.26562Q708.19824 189.6875 708.5576 190.48438Q708.917 191.28125 708.9326 192.29688L708.9326 192.92188Q708.9326 195.0625 707.8701 196.28125Q706.8076 197.5 704.8545 197.57812L704.44824 197.57812L704.44824 196.17188L704.82324 196.15625Q707.02637 196.0625 707.21387 194.09375ZM706.07324 193.4375Q706.4951 193.4375 706.77637 193.23438Q707.07324 193.01562 707.2295 192.71875L707.2295 192.03125Q707.2295 191.17188 706.90137 190.70312Q706.57324 190.21875 706.02637 190.21875Q705.51074 190.21875 705.1826 190.6875Q704.8545 191.14062 704.8545 191.84375Q704.8545 192.54688 705.167 193.0Q705.4951 193.4375 706.07324 193.4375ZM710.40137 196.67188Q710.40137 196.26562 710.667 196.01562Q710.94824 195.76562 711.3545 195.76562Q711.77637 195.76562 712.042 196.01562Q712.32324 196.26562 712.32324 196.67188Q712.32324 197.0625 712.042 197.3125Q711.77637 197.5625 711.3545 197.5625Q710.94824 197.5625 710.667 197.3125Q710.40137 197.0625 710.40137 196.67188ZM717.21387 194.09375Q716.542 194.73438 715.667 194.73438Q714.52637 194.73438 713.83887 193.96875Q713.167 193.1875 713.167 191.875Q713.167 191.03125 713.52637 190.32812Q713.90137 189.625 714.5576 189.23438Q715.21387 188.84375 716.042 188.84375Q716.88574 188.84375 717.542 189.26562Q718.19824 189.6875 718.5576 190.48438Q718.917 191.28125 718.9326 192.29688L718.9326 192.92188Q718.9326 195.0625 717.8701 196.28125Q716.8076 197.5 714.8545 197.57812L714.44824 197.57812L714.44824 196.17188L714.82324 196.15625Q717.02637 196.0625 717.21387 194.09375ZM716.07324 193.4375Q716.4951 193.4375 716.77637 193.23438Q717.07324 193.01562 717.2295 192.71875L717.2295 192.03125Q717.2295 191.17188 716.90137 190.70312Q716.57324 190.21875 716.02637 190.21875Q715.51074 190.21875 715.1826 190.6875Q714.8545 191.14062 714.8545 191.84375Q714.8545 192.54688 715.167 193.0Q715.4951 193.4375 716.07324 193.4375ZM721.96387 192.48438L722.8701 192.48438Q723.51074 192.48438 723.82324 192.17188Q724.13574 191.84375 724.13574 191.3125Q724.13574 190.79688 723.82324 190.51562Q723.52637 190.21875 722.9795 190.21875Q722.4951 190.21875 722.167 190.48438Q721.83887 190.75 721.83887 191.17188L720.15137 191.17188Q720.15137 190.51562 720.51074 189.98438Q720.8701 189.45312 721.51074 189.15625Q722.167 188.84375 722.94824 188.84375Q724.292 188.84375 725.0576 189.5Q725.83887 190.14062 725.83887 191.28125Q725.83887 191.875 725.4795 192.375Q725.1201 192.85938 724.542 193.10938Q725.26074 193.375 725.6045 193.89062Q725.96387 194.40625 725.96387 195.10938Q725.96387 196.25 725.13574 196.9375Q724.3076 197.625 722.94824 197.625Q721.667 197.625 720.8545 196.95312Q720.042 196.26562 720.042 195.15625L721.7295 195.15625Q721.7295 195.64062 722.08887 195.95312Q722.46387 196.25 722.9795 196.25Q723.58887 196.25 723.9326 195.9375Q724.27637 195.60938 724.27637 195.07812Q724.27637 193.8125 722.8701 193.8125L721.96387 193.8125L721.96387 192.48438ZM727.2295 190.60938Q727.2295 189.82812 727.7295 189.34375Q728.2451 188.84375 729.07324 188.84375Q729.90137 188.84375 730.417 189.32812Q730.9326 189.8125 730.9326 190.64062L730.9326 191.0625Q730.9326 191.84375 730.417 192.32812Q729.90137 192.8125 729.08887 192.8125Q728.2451 192.8125 727.7295 192.32812Q727.2295 191.84375 727.2295 191.03125L727.2295 190.60938ZM728.3545 191.0625Q728.3545 191.40625 728.5576 191.625Q728.76074 191.84375 729.08887 191.84375Q729.417 191.84375 729.6045 191.625Q729.792 191.40625 729.792 191.04688L729.792 190.60938Q729.792 190.25 729.6045 190.04688Q729.417 189.82812 729.07324 189.82812Q728.7451 189.82812 728.542 190.04688Q728.3545 190.25 728.3545 190.625L728.3545 191.0625ZM731.3076 195.40625Q731.3076 194.60938 731.82324 194.14062Q732.33887 193.65625 733.15137 193.65625Q733.9795 193.65625 734.4951 194.14062Q735.01074 194.60938 735.01074 195.4375L735.01074 195.85938Q735.01074 196.65625 734.51074 197.14062Q734.01074 197.625 733.167 197.625Q732.32324 197.625 731.8076 197.14062Q731.3076 196.64062 731.3076 195.84375L731.3076 195.40625ZM732.4326 195.85938Q732.4326 196.1875 732.63574 196.42188Q732.8545 196.64062 733.167 196.64062Q733.88574 196.64062 733.88574 195.85938L733.88574 195.40625Q733.88574 195.0625 733.6826 194.84375Q733.4795 194.625 733.15137 194.625Q732.82324 194.625 732.6201 194.84375Q732.4326 195.0625 732.4326 195.42188L732.4326 195.85938ZM729.417 196.85938L728.58887 196.42188L732.76074 189.75L733.58887 190.1875L729.417 196.85938Z" fill-rule="nonzero"/><path fill="#000000" d="M700.21387 194.09375Q699.542 194.73438 698.667 194.73438Q697.52637 194.73438 696.83887 193.96875Q696.167 193.1875 696.167 191.875Q696.167 191.03125 696.52637 190.32812Q696.90137 189.625 697.5576 189.23438Q698.21387 188.84375 699.042 188.84375Q699.88574 188.84375 700.542 189.26562Q701.19824 189.6875 701.5576 190.48438Q701.917 191.28125 701.9326 192.29688L701.9326 192.92188Q701.9326 195.0625 700.8701 196.28125Q699.8076 197.5 697.8545 197.57812L697.44824 197.57812L697.44824 196.17188L697.82324 196.15625Q700.02637 196.0625 700.21387 194.09375ZM699.07324 193.4375Q699.4951 193.4375 699.77637 193.23438Q700.07324 193.01562 700.2295 192.71875L700.2295 192.03125Q700.2295 191.17188 699.90137 190.70312Q699.57324 190.21875 699.02637 190.21875Q698.51074 190.21875 698.1826 190.6875Q697.8545 191.14062 697.8545 191.84375Q697.8545 192.54688 698.167 193.0Q698.4951 193.4375 699.07324 193.4375ZM707.21387 194.09375Q706.542 194.73438 705.667 194.73438Q704.52637 194.73438 703.83887 193.96875Q703.167 193.1875 703.167 191.875Q703.167 191.03125 703.52637 190.32812Q703.90137 189.625 704.5576 189.23438Q705.21387 188.84375 706.042 188.84375Q706.88574 188.84375 707.542 189.26562Q708.19824 189.6875 708.5576 190.48438Q708.917 191.28125 708.9326 192.29688L708.9326 192.92188Q708.9326 195.0625 707.8701 196.28125Q706.8076 197.5 704.8545 197.57812L704.44824 197.57812L704.44824 196.17188L704.82324 196.15625Q707.02637 196.0625 707.21387 194.09375ZM706.07324 193.4375Q706.4951 193.4375 706.77637 193.23438Q707.07324 193.01562 707.2295 192.71875L707.2295 192.03125Q707.2295 191.17188 706.90137 190.70312Q706.57324 190.21875 706.02637 190.21875Q705.51074 190.21875 705.1826 190.6875Q704.8545 191.14062 704.8545 191.84375Q704.8545 192.54688 705.167 193.0Q705.4951 193.4375 706.07324 193.4375ZM710.40137 196.67188Q710.40137 196.26562 710.667 196.01562Q710.94824 195.76562 711.3545 195.76562Q711.77637 195.76562 712.042 196.01562Q712.32324 196.26562 712.32324 196.67188Q712.32324 197.0625 712.042 197.3125Q711.77637 197.5625 711.3545 197.5625Q710.94824 197.5625 710.667 197.3125Q710.40137 197.0625 710.40137 196.67188ZM717.21387 194.09375Q716.542 194.73438 715.667 194.73438Q714.52637 194.73438 713.83887 193.96875Q713.167 193.1875 713.167 191.875Q713.167 191.03125 713.52637 190.32812Q713.90137 189.625 714.5576 189.23438Q715.21387 188.84375 716.042 188.84375Q716.88574 188.84375 717.542 189.26562Q718.19824 189.6875 718.5576 190.48438Q718.917 191.28125 718.9326 192.29688L718.9326 192.92188Q718.9326 195.0625 717.8701 196.28125Q716.8076 197.5 714.8545 197.57812L714.44824 197.57812L714.44824 196.17188L714.82324 196.15625Q717.02637 196.0625 717.21387 194.09375ZM716.07324 193.4375Q716.4951 193.4375 716.77637 193.23438Q717.07324 193.01562 717.2295 192.71875L717.2295 192.03125Q717.2295 191.17188 716.90137 190.70312Q716.57324 190.21875 716.02637 190.21875Q715.51074 190.21875 715.1826 190.6875Q714.8545 191.14062 714.8545 191.84375Q714.8545 192.54688 715.167 193.0Q715.4951 193.4375 716.07324 193.4375ZM721.96387 192.48438L722.8701 192.48438Q723.51074 192.48438 723.82324 192.17188Q724.13574 191.84375 724.13574 191.3125Q724.13574 190.79688 723.82324 190.51562Q723.52637 190.21875 722.9795 190.21875Q722.4951 190.21875 722.167 190.48438Q721.83887 190.75 721.83887 191.17188L720.15137 191.17188Q720.15137 190.51562 720.51074 189.98438Q720.8701 189.45312 721.51074 189.15625Q722.167 188.84375 722.94824 188.84375Q724.292 188.84375 725.0576 189.5Q725.83887 190.14062 725.83887 191.28125Q725.83887 191.875 725.4795 192.375Q725.1201 192.85938 724.542 193.10938Q725.26074 193.375 725.6045 193.89062Q725.96387 194.40625 725.96387 195.10938Q725.96387 196.25 725.13574 196.9375Q724.3076 197.625 722.94824 197.625Q721.667 197.625 720.8545 196.95312Q720.042 196.26562 720.042 195.15625L721.7295 195.15625Q721.7295 195.64062 722.08887 195.95312Q722.46387 196.25 722.9795 196.25Q723.58887 196.25 723.9326 195.9375Q724.27637 195.60938 724.27637 195.07812Q724.27637 193.8125 722.8701 193.8125L721.96387 193.8125L721.96387 192.48438ZM727.2295 190.60938Q727.2295 189.82812 727.7295 189.34375Q728.2451 188.84375 729.07324 188.84375Q729.90137 188.84375 730.417 189.32812Q730.9326 189.8125 730.9326 190.64062L730.9326 191.0625Q730.9326 191.84375 730.417 192.32812Q729.90137 192.8125 729.08887 192.8125Q728.2451 192.8125 727.7295 192.32812Q727.2295 191.84375 727.2295 191.03125L727.2295 190.60938ZM728.3545 191.0625Q728.3545 191.40625 728.5576 191.625Q728.76074 191.84375 729.08887 191.84375Q729.417 191.84375 729.6045 191.625Q729.792 191.40625 729.792 191.04688L729.792 190.60938Q729.792 190.25 729.6045 190.04688Q729.417 189.82812 729.07324 189.82812Q728.7451 189.82812 728.542 190.04688Q728.3545 190.25 728.3545 190.625L728.3545 191.0625ZM731.3076 195.40625Q731.3076 194.60938 731.82324 194.14062Q732.33887 193.65625 733.15137 193.65625Q733.9795 193.65625 734.4951 194.14062Q735.01074 194.60938 735.01074 195.4375L735.01074 195.85938Q735.01074 196.65625 734.51074 197.14062Q734.01074 197.625 733.167 197.625Q732.32324 197.625 731.8076 197.14062Q731.3076 196.64062 731.3076 195.84375L731.3076 195.40625ZM732.4326 195.85938Q732.4326 196.1875 732.63574 196.42188Q732.8545 196.64062 733.167 196.64062Q733.88574 196.64062 733.88574 195.85938L733.88574 195.40625Q733.88574 195.0625 733.6826 194.84375Q733.4795 194.625 733.15137 194.625Q732.82324 194.625 732.6201 194.84375Q732.4326 195.0625 732.4326 195.42188L732.4326 195.85938ZM729.417 196.85938L728.58887 196.42188L732.76074 189.75L733.58887 190.1875L729.417 196.85938Z" fill-rule="nonzero"/><path fill="#000000" d="M423.0625 369.35626L424.20312 369.35626L424.20312 374.325Q424.20312 375.6219 423.90625 376.3875Q423.60938 377.1375 422.84375 377.6219Q422.07812 378.09064 420.84375 378.09064Q419.64062 378.09064 418.85938 377.6844Q418.09375 377.2625 417.76562 376.48126Q417.4375 375.6844 417.4375 374.325L417.4375 369.35626L418.57812 369.35626L418.57812 374.3094Q418.57812 375.4344 418.78125 375.96564Q419.0 376.4969 419.5 376.79376Q420.01562 377.075 420.75 377.075Q422.0 377.075 422.53125 376.5125Q423.0625 375.9344 423.0625 374.3094L423.0625 369.35626ZM426.29688 380.34064L426.29688 371.73126L427.25 371.73126L427.25 372.52814Q427.59375 372.0594 428.01562 371.825Q428.45312 371.59064 429.0625 371.59064Q429.85938 371.59064 430.46875 371.9969Q431.07812 372.40314 431.375 373.15314Q431.6875 373.90314 431.6875 374.79376Q431.6875 375.7469 431.34375 376.5125Q431.01562 377.27814 430.35938 377.6844Q429.70312 378.09064 428.98438 378.09064Q428.45312 378.09064 428.03125 377.8719Q427.60938 377.6375 427.34375 377.3094L427.34375 380.34064L426.29688 380.34064ZM427.25 374.8719Q427.25 376.075 427.73438 376.65314Q428.21875 377.21564 428.90625 377.21564Q429.60938 377.21564 430.10938 376.6219Q430.60938 376.02814 430.60938 374.77814Q430.60938 373.59064 430.125 373.0125Q429.64062 372.41876 428.95312 372.41876Q428.28125 372.41876 427.76562 373.04376Q427.25 373.66876 427.25 374.8719ZM435.59375 377.0125L435.75 377.9344Q435.29688 378.02814 434.95312 378.02814Q434.375 378.02814 434.0625 377.85626Q433.75 377.66876 433.60938 377.3719Q433.48438 377.075 433.48438 376.1219L433.48438 372.54376L432.71875 372.54376L432.71875 371.73126L433.48438 371.73126L433.48438 370.1844L434.53125 369.5594L434.53125 371.73126L435.59375 371.73126L435.59375 372.54376L434.53125 372.54376L434.53125 376.1844Q434.53125 376.6375 434.57812 376.7625Q434.64062 376.8875 434.76562 376.96564Q434.89062 377.04376 435.125 377.04376Q435.3125 377.04376 435.59375 377.0125ZM436.29688 370.575L436.29688 369.35626L437.35938 369.35626L437.35938 370.575L436.29688 370.575ZM436.29688 377.95L436.29688 371.73126L437.35938 371.73126L437.35938 377.95L436.29688 377.95ZM439.29688 377.95L439.29688 371.73126L440.23438 371.73126L440.23438 372.60626Q440.53125 372.1375 441.01562 371.8719Q441.5 371.59064 442.125 371.59064Q442.8125 371.59064 443.25 371.8719Q443.70312 372.15314 443.875 372.66876Q444.625 371.59064 445.79688 371.59064Q446.73438 371.59064 447.21875 372.10626Q447.71875 372.60626 447.71875 373.6844L447.71875 377.95L446.67188 377.95L446.67188 374.02814Q446.67188 373.40314 446.5625 373.1219Q446.46875 372.84064 446.20312 372.66876Q445.9375 372.4969 445.5625 372.4969Q444.90625 372.4969 444.46875 372.9344Q444.04688 373.3719 444.04688 374.34064L444.04688 377.95L442.98438 377.95L442.98438 373.90314Q442.98438 373.2 442.71875 372.85626Q442.46875 372.4969 441.89062 372.4969Q441.4375 372.4969 441.0625 372.73126Q440.6875 372.96564 440.51562 373.41876Q440.34375 373.8719 440.34375 374.71564L440.34375 377.95L439.29688 377.95ZM454.54688 375.95L455.64062 376.075Q455.39062 377.02814 454.6875 377.5594Q453.98438 378.09064 452.90625 378.09064Q451.54688 378.09064 450.73438 377.2469Q449.9375 376.40314 449.9375 374.8875Q449.9375 373.325 450.75 372.46564Q451.5625 371.59064 452.84375 371.59064Q454.09375 371.59064 454.875 372.4344Q455.67188 373.27814 455.67188 374.825Q455.67188 374.91876 455.67188 375.10626L451.03125 375.10626Q451.09375 376.1375 451.60938 376.6844Q452.125 377.21564 452.90625 377.21564Q453.48438 377.21564 453.89062 376.91876Q454.3125 376.60626 454.54688 375.95ZM451.09375 374.2469L454.5625 374.2469Q454.5 373.45 454.17188 373.0594Q453.65625 372.45 452.85938 372.45Q452.125 372.45 451.625 372.9344Q451.14062 373.41876 451.09375 374.2469Z" fill-rule="nonzero"/><path fill="#000000" d="M28.284388 222.63646L28.190638 221.57396Q28.846888 221.49583 29.253138 221.21458Q29.659388 220.93333 29.925013 220.35521Q30.175013 219.76146 30.175013 219.02708Q30.175013 218.38646 29.987513 217.88646Q29.784388 217.38646 29.456263 217.15208Q29.112513 216.90208 28.721888 216.90208Q28.315638 216.90208 28.018763 217.13646Q27.706263 217.37083 27.503138 217.90208Q27.362513 218.26146 27.081263 219.44896Q26.800013 220.62083 26.550013 221.08958Q26.221888 221.71458 25.753138 222.01146Q25.268763 222.30833 24.675013 222.30833Q24.034388 222.30833 23.471888 221.94896Q22.893763 221.57396 22.612513 220.87083Q22.315638 220.15208 22.315638 219.29271Q22.315638 218.33958 22.628138 217.60521Q22.925013 216.87083 23.534388 216.48021Q24.128138 216.08958 24.878138 216.05833L24.956263 217.15208Q24.143763 217.24583 23.737513 217.76146Q23.315638 218.26146 23.315638 219.24583Q23.315638 220.27708 23.690638 220.74583Q24.065638 221.21458 24.596888 221.21458Q25.065638 221.21458 25.362513 220.88646Q25.659388 220.55833 25.971888 219.18333Q26.284388 217.79271 26.518763 217.27708Q26.878138 216.52708 27.409388 216.16771Q27.925013 215.80833 28.628138 215.80833Q29.315638 215.80833 29.925013 216.19896Q30.518763 216.58958 30.862513 217.32396Q31.190638 218.05833 31.190638 218.98021Q31.190638 220.15208 30.862513 220.94896Q30.518763 221.73021 29.831263 222.18333Q29.143763 222.62083 28.284388 222.63646ZM29.050013 210.13646L29.175013 209.04271Q30.128138 209.29271 30.659388 209.99583Q31.190638 210.69896 31.190638 211.77708Q31.190638 213.13646 30.346888 213.94896Q29.503138 214.74583 27.987513 214.74583Q26.425013 214.74583 25.565638 213.93333Q24.690638 213.12083 24.690638 211.83958Q24.690638 210.58958 25.534388 209.80833Q26.378138 209.01146 27.925013 209.01146Q28.018763 209.01146 28.206263 209.01146L28.206263 213.65208Q29.237513 213.58958 29.784388 213.07396Q30.315638 212.55833 30.315638 211.77708Q30.315638 211.19896 30.018763 210.79271Q29.706263 210.37083 29.050013 210.13646ZM27.346888 213.58958L27.346888 210.12083Q26.550013 210.18333 26.159388 210.51146Q25.550013 211.02708 25.550013 211.82396Q25.550013 212.55833 26.034388 213.05833Q26.518763 213.54271 27.346888 213.58958ZM31.050013 207.40208L24.831263 207.40208L24.831263 206.44896L25.768763 206.44896Q25.112513 206.08958 24.909388 205.79271Q24.690638 205.48021 24.690638 205.10521Q24.690638 204.57396 25.018763 204.02708L26.003138 204.38646Q25.768763 204.77708 25.768763 205.15208Q25.768763 205.51146 25.987513 205.79271Q26.190638 206.05833 26.565638 206.16771Q27.128138 206.35521 27.784388 206.35521L31.050013 206.35521L31.050013 207.40208ZM31.050013 201.66771L24.831263 204.02708L24.831263 202.91771L28.550013 201.57396Q29.159388 201.37083 29.800013 201.18333Q29.315638 201.04271 28.628138 200.79271L24.831263 199.40208L24.831263 198.32396L31.050013 200.68333L31.050013 201.66771ZM23.675013 198.38646L22.456263 198.38646L22.456263 197.32396L23.675013 197.32396L23.675013 198.38646ZM31.050013 198.38646L24.831263 198.38646L24.831263 197.32396L31.050013 197.32396L31.050013 198.38646ZM28.768763 191.32396L28.909388 190.29271Q29.971888 190.46458 30.581263 191.16771Q31.190638 191.87083 31.190638 192.88646Q31.190638 194.16771 30.362513 194.94896Q29.518763 195.71458 27.956263 195.71458Q26.956263 195.71458 26.206263 195.38646Q25.440638 195.04271 25.065638 194.37083Q24.690638 193.68333 24.690638 192.87083Q24.690638 191.87083 25.206263 191.23021Q25.706263 190.57396 26.659388 190.38646L26.815638 191.41771Q26.190638 191.55833 25.878138 191.93333Q25.550013 192.30833 25.550013 192.83958Q25.550013 193.63646 26.128138 194.13646Q26.690638 194.63646 27.925013 194.63646Q29.190638 194.63646 29.753138 194.15208Q30.315638 193.66771 30.315638 192.90208Q30.315638 192.27708 29.940638 191.87083Q29.565638 191.44896 28.768763 191.32396ZM29.050013 185.13646L29.175013 184.04271Q30.128138 184.29271 30.659388 184.99583Q31.190638 185.69896 31.190638 186.77708Q31.190638 188.13646 30.346888 188.94896Q29.503138 189.74583 27.987513 189.74583Q26.425013 189.74583 25.565638 188.93333Q24.690638 188.12083 24.690638 186.83958Q24.690638 185.58958 25.534388 184.80833Q26.378138 184.01146 27.925013 184.01146Q28.018763 184.01146 28.206263 184.01146L28.206263 188.65208Q29.237513 188.58958 29.784388 188.07396Q30.315638 187.55833 30.315638 186.77708Q30.315638 186.19896 30.018763 185.79271Q29.706263 185.37083 29.050013 185.13646ZM27.346888 188.58958L27.346888 185.12083Q26.550013 185.18333 26.159388 185.51146Q25.550013 186.02708 25.550013 186.82396Q25.550013 187.55833 26.034388 188.05833Q26.518763 188.54271 27.346888 188.58958Z" fill-rule="nonzero"/><path fill="#000000" d="M52.925 197.18333L52.925 188.58958L56.159374 188.58958Q57.14375 188.58958 57.7375 188.85521Q58.33125 189.12083 58.659374 189.66771Q59.003124 190.19896 59.003124 190.79271Q59.003124 191.33958 58.70625 191.82396Q58.409374 192.30833 57.8 192.60521Q58.58125 192.83958 58.9875 193.40208Q59.409374 193.94896 59.409374 194.69896Q59.409374 195.29271 59.159374 195.82396Q58.909374 196.33958 58.534374 196.62083Q58.159374 196.90208 57.58125 197.04271Q57.01875 197.18333 56.20625 197.18333L52.925 197.18333ZM54.065624 192.19896L55.925 192.19896Q56.675 192.19896 57.003124 192.10521Q57.440624 191.98021 57.659374 191.68333Q57.878124 191.37083 57.878124 190.91771Q57.878124 190.49583 57.675 190.16771Q57.471874 189.83958 57.08125 189.73021Q56.70625 189.60521 55.784374 189.60521L54.065624 189.60521L54.065624 192.19896ZM54.065624 196.16771L56.20625 196.16771Q56.753124 196.16771 56.971874 196.12083Q57.378124 196.05833 57.628124 195.90208Q57.89375 195.73021 58.065624 195.41771Q58.2375 195.10521 58.2375 194.69896Q58.2375 194.21458 57.9875 193.85521Q57.753124 193.49583 57.315624 193.35521Q56.878124 193.21458 56.05 193.21458L54.065624 193.21458L54.065624 196.16771ZM60.815624 197.18333L60.815624 188.58958L61.878124 188.58958L61.878124 197.18333L60.815624 197.18333ZM63.45625 194.07396Q63.45625 192.33958 64.40938 191.51146Q65.20625 190.82396 66.3625 190.82396Q67.64375 190.82396 68.45625 191.66771Q69.28438 192.49583 69.28438 193.98021Q69.28438 195.18333 68.925 195.87083Q68.56563 196.55833 67.8625 196.94896Q67.175 197.32396 66.3625 197.32396Q65.06563 197.32396 64.25313 196.49583Q63.45625 195.65208 63.45625 194.07396ZM64.53438 194.07396Q64.53438 195.26146 65.05 195.85521Q65.58125 196.44896 66.3625 196.44896Q67.15938 196.44896 67.675 195.85521Q68.19063 195.26146 68.19063 194.04271Q68.19063 192.88646 67.65938 192.29271Q67.14375 191.69896 66.3625 191.69896Q65.58125 191.69896 65.05 192.29271Q64.53438 192.87083 64.53438 194.07396ZM70.64375 197.69896L71.675 197.85521Q71.7375 198.32396 72.03438 198.54271Q72.425 198.83958 73.09688 198.83958Q73.83125 198.83958 74.22188 198.54271Q74.62813 198.24583 74.76875 197.73021Q74.8625 197.40208 74.84688 196.37083Q74.15938 197.18333 73.12813 197.18333Q71.84688 197.18333 71.14375 196.26146Q70.44063 195.32396 70.44063 194.04271Q70.44063 193.15208 70.75313 192.40208Q71.08125 191.63646 71.69063 191.23021Q72.3 190.82396 73.12813 190.82396Q74.2375 190.82396 74.95625 191.71458L74.95625 190.96458L75.925 190.96458L75.925 196.33958Q75.925 197.79271 75.62813 198.40208Q75.33125 199.01146 74.69063 199.35521Q74.05 199.71458 73.1125 199.71458Q72.00313 199.71458 71.31563 199.21458Q70.62813 198.71458 70.64375 197.69896ZM71.51875 193.96458Q71.51875 195.18333 72.00313 195.74583Q72.4875 196.30833 73.22188 196.30833Q73.95625 196.30833 74.44063 195.74583Q74.94063 195.18333 74.94063 193.99583Q74.94063 192.85521 74.425 192.27708Q73.925 191.69896 73.20625 191.69896Q72.50313 191.69896 72.00313 192.27708Q71.51875 192.83958 71.51875 193.96458Z" fill-rule="nonzero"/><path fill="#000000" d="M62.70625 343.96564L63.721874 343.8719Q63.846874 344.59064 64.20625 344.91876Q64.58125 345.23126 65.14375 345.23126Q65.62813 345.23126 65.9875 345.0125Q66.3625 344.77814 66.59688 344.41876Q66.83125 344.04376 66.9875 343.41876Q67.14375 342.77814 67.14375 342.1219Q67.14375 342.04376 67.14375 341.90314Q66.83125 342.40314 66.28438 342.73126Q65.7375 343.04376 65.09688 343.04376Q64.01875 343.04376 63.284374 342.27814Q62.55 341.4969 62.55 340.23126Q62.55 338.91876 63.315624 338.1219Q64.09688 337.325 65.25313 337.325Q66.08125 337.325 66.76875 337.77814Q67.47188 338.23126 67.83125 339.075Q68.19063 339.90314 68.19063 341.48126Q68.19063 343.1219 67.83125 344.10626Q67.4875 345.075 66.76875 345.59064Q66.06563 346.09064 65.12813 346.09064Q64.1125 346.09064 63.471874 345.54376Q62.83125 344.98126 62.70625 343.96564ZM67.01875 340.16876Q67.01875 339.2625 66.53438 338.73126Q66.06563 338.2 65.37813 338.2Q64.675 338.2 64.14375 338.77814Q63.628124 339.34064 63.628124 340.2625Q63.628124 341.075 64.12813 341.59064Q64.62813 342.10626 65.34688 342.10626Q66.08125 342.10626 66.55 341.59064Q67.01875 341.075 67.01875 340.16876ZM69.70625 343.96564L70.72188 343.8719Q70.84688 344.59064 71.20625 344.91876Q71.58125 345.23126 72.14375 345.23126Q72.62813 345.23126 72.9875 345.0125Q73.3625 344.77814 73.59688 344.41876Q73.83125 344.04376 73.9875 343.41876Q74.14375 342.77814 74.14375 342.1219Q74.14375 342.04376 74.14375 341.90314Q73.83125 342.40314 73.28438 342.73126Q72.7375 343.04376 72.09688 343.04376Q71.01875 343.04376 70.28438 342.27814Q69.55 341.4969 69.55 340.23126Q69.55 338.91876 70.31563 338.1219Q71.09688 337.325 72.25313 337.325Q73.08125 337.325 73.76875 337.77814Q74.47188 338.23126 74.83125 339.075Q75.19063 339.90314 75.19063 341.48126Q75.19063 343.1219 74.83125 344.10626Q74.4875 345.075 73.76875 345.59064Q73.06563 346.09064 72.12813 346.09064Q71.1125 346.09064 70.47188 345.54376Q69.83125 344.98126 69.70625 343.96564ZM74.01875 340.16876Q74.01875 339.2625 73.53438 338.73126Q73.06563 338.2 72.37813 338.2Q71.675 338.2 71.14375 338.77814Q70.62813 339.34064 70.62813 340.2625Q70.62813 341.075 71.12813 341.59064Q71.62813 342.10626 72.34688 342.10626Q73.08125 342.10626 73.55 341.59064Q74.01875 341.075 74.01875 340.16876ZM77.14375 345.95L77.14375 344.7469L78.34688 344.7469L78.34688 345.95L77.14375 345.95ZM79.55 341.71564Q79.55 340.1844 79.8625 339.2625Q80.175 338.325 80.78438 337.825Q81.40938 337.325 82.34688 337.325Q83.03438 337.325 83.55 337.60626Q84.08125 337.8875 84.425 338.41876Q84.76875 338.9344 84.95625 339.6844Q85.14375 340.4344 85.14375 341.71564Q85.14375 343.23126 84.83125 344.15314Q84.53438 345.075 83.90938 345.59064Q83.3 346.09064 82.34688 346.09064Q81.1125 346.09064 80.39375 345.2Q79.55 344.1375 79.55 341.71564ZM80.62813 341.71564Q80.62813 343.825 81.12813 344.52814Q81.62813 345.23126 82.34688 345.23126Q83.08125 345.23126 83.56563 344.52814Q84.06563 343.825 84.06563 341.71564Q84.06563 339.59064 83.56563 338.90314Q83.08125 338.2 82.33125 338.2Q81.6125 338.2 81.175 338.8094Q80.62813 339.59064 80.62813 341.71564ZM86.55 341.71564Q86.55 340.1844 86.8625 339.2625Q87.175 338.325 87.78438 337.825Q88.40938 337.325 89.34688 337.325Q90.03438 337.325 90.55 337.60626Q91.08125 337.8875 91.425 338.41876Q91.76875 338.9344 91.95625 339.6844Q92.14375 340.4344 92.14375 341.71564Q92.14375 343.23126 91.83125 344.15314Q91.53438 345.075 90.90938 345.59064Q90.3 346.09064 89.34688 346.09064Q88.1125 346.09064 87.39375 345.2Q86.55 344.1375 86.55 341.71564ZM87.62813 341.71564Q87.62813 343.825 88.12813 344.52814Q88.62813 345.23126 89.34688 345.23126Q90.08125 345.23126 90.56563 344.52814Q91.06563 343.825 91.06563 341.71564Q91.06563 339.59064 90.56563 338.90314Q90.08125 338.2 89.33125 338.2Q88.6125 338.2 88.175 338.8094Q87.62813 339.59064 87.62813 341.71564ZM93.75313 339.41876Q93.75313 338.4969 94.20625 337.85626Q94.675 337.21564 95.55 337.21564Q96.3625 337.21564 96.89375 337.79376Q97.425 338.3719 97.425 339.48126Q97.425 340.575 96.87813 341.16876Q96.34688 341.7469 95.56563 341.7469Q94.78438 341.7469 94.26875 341.16876Q93.75313 340.59064 93.75313 339.41876ZM95.58125 337.9344Q95.19063 337.9344 94.925 338.27814Q94.675 338.6219 94.675 339.52814Q94.675 340.35626 94.925 340.7Q95.19063 341.02814 95.58125 341.02814Q95.9875 341.02814 96.2375 340.6844Q96.50313 340.34064 96.50313 339.45Q96.50313 338.60626 96.2375 338.27814Q95.97188 337.9344 95.58125 337.9344ZM95.58125 346.2625L100.28438 337.21564L101.14375 337.21564L96.45625 346.2625L95.58125 346.2625ZM99.3 343.9344Q99.3 343.0125 99.75313 342.3719Q100.22188 341.73126 101.1125 341.73126Q101.925 341.73126 102.45625 342.3094Q102.9875 342.8719 102.9875 343.9969Q102.9875 345.09064 102.44063 345.6844Q101.90938 346.2625 101.1125 346.2625Q100.34688 346.2625 99.81563 345.6844Q99.3 345.10626 99.3 343.9344ZM101.14375 342.45Q100.7375 342.45 100.47188 342.79376Q100.22188 343.1375 100.22188 344.04376Q100.22188 344.85626 100.4875 345.2Q100.75313 345.54376 101.14375 345.54376Q101.53438 345.54376 101.8 345.2Q102.06563 344.85626 102.06563 343.95Q102.06563 343.1219 101.8 342.79376Q101.53438 342.45 101.14375 342.45Z" fill-rule="nonzero"/><path fill="#000000" d="M239.43124 343.96564L240.44687 343.8719Q240.57187 344.59064 240.93124 344.91876Q241.30624 345.23126 241.86874 345.23126Q242.35312 345.23126 242.7125 345.0125Q243.0875 344.77814 243.32187 344.41876Q243.55624 344.04376 243.7125 343.41876Q243.86874 342.77814 243.86874 342.1219Q243.86874 342.04376 243.86874 341.90314Q243.55624 342.40314 243.00937 342.73126Q242.4625 343.04376 241.82187 343.04376Q240.74374 343.04376 240.00937 342.27814Q239.275 341.4969 239.275 340.23126Q239.275 338.91876 240.04062 338.1219Q240.82187 337.325 241.97812 337.325Q242.80624 337.325 243.49374 337.77814Q244.19687 338.23126 244.55624 339.075Q244.91562 339.90314 244.91562 341.48126Q244.91562 343.1219 244.55624 344.10626Q244.2125 345.075 243.49374 345.59064Q242.79062 346.09064 241.85312 346.09064Q240.8375 346.09064 240.19687 345.54376Q239.55624 344.98126 239.43124 343.96564ZM243.74374 340.16876Q243.74374 339.2625 243.25937 338.73126Q242.79062 338.2 242.10312 338.2Q241.4 338.2 240.86874 338.77814Q240.35312 339.34064 240.35312 340.2625Q240.35312 341.075 240.85312 341.59064Q241.35312 342.10626 242.07187 342.10626Q242.80624 342.10626 243.275 341.59064Q243.74374 341.075 243.74374 340.16876ZM246.43124 343.96564L247.44687 343.8719Q247.57187 344.59064 247.93124 344.91876Q248.30624 345.23126 248.86874 345.23126Q249.35312 345.23126 249.7125 345.0125Q250.0875 344.77814 250.32187 344.41876Q250.55624 344.04376 250.7125 343.41876Q250.86874 342.77814 250.86874 342.1219Q250.86874 342.04376 250.86874 341.90314Q250.55624 342.40314 250.00937 342.73126Q249.4625 343.04376 248.82187 343.04376Q247.74374 343.04376 247.00937 342.27814Q246.275 341.4969 246.275 340.23126Q246.275 338.91876 247.04062 338.1219Q247.82187 337.325 248.97812 337.325Q249.80624 337.325 250.49374 337.77814Q251.19687 338.23126 251.55624 339.075Q251.91562 339.90314 251.91562 341.48126Q251.91562 343.1219 251.55624 344.10626Q251.2125 345.075 250.49374 345.59064Q249.79062 346.09064 248.85312 346.09064Q247.8375 346.09064 247.19687 345.54376Q246.55624 344.98126 246.43124 343.96564ZM250.74374 340.16876Q250.74374 339.2625 250.25937 338.73126Q249.79062 338.2 249.10312 338.2Q248.4 338.2 247.86874 338.77814Q247.35312 339.34064 247.35312 340.2625Q247.35312 341.075 247.85312 341.59064Q248.35312 342.10626 249.07187 342.10626Q249.80624 342.10626 250.275 341.59064Q250.74374 341.075 250.74374 340.16876ZM253.86874 345.95L253.86874 344.7469L255.07187 344.7469L255.07187 345.95L253.86874 345.95ZM261.82187 344.9344L261.82187 345.95L256.13437 345.95Q256.13437 345.575 256.25937 345.21564Q256.47812 344.6375 256.94687 344.075Q257.43124 343.5125 258.3375 342.77814Q259.74374 341.6219 260.22812 340.95Q260.72812 340.27814 260.72812 339.6844Q260.72812 339.0594 260.275 338.6375Q259.82187 338.2 259.10312 338.2Q258.3375 338.2 257.88437 338.65314Q257.43124 339.10626 257.41562 339.91876L256.3375 339.8094Q256.44687 338.59064 257.16562 337.96564Q257.9 337.325 259.13437 337.325Q260.36874 337.325 261.0875 338.0125Q261.80624 338.7 261.80624 339.71564Q261.80624 340.23126 261.5875 340.73126Q261.38437 341.21564 260.88437 341.77814Q260.4 342.325 259.275 343.27814Q258.32187 344.075 258.04062 344.3719Q257.775 344.65314 257.60312 344.9344L261.82187 344.9344ZM263.275 343.7L264.38437 343.60626Q264.50937 344.41876 264.94687 344.825Q265.4 345.23126 266.04062 345.23126Q266.79062 345.23126 267.32187 344.65314Q267.85312 344.075 267.85312 343.1375Q267.85312 342.23126 267.3375 341.71564Q266.8375 341.1844 266.00937 341.1844Q265.50937 341.1844 265.0875 341.41876Q264.68124 341.65314 264.44687 342.0125L263.4625 341.8875L264.29062 337.48126L268.57187 337.48126L268.57187 338.48126L265.13437 338.48126L264.68124 340.79376Q265.44687 340.2469 266.29062 340.2469Q267.41562 340.2469 268.18124 341.02814Q268.9625 341.8094 268.9625 343.04376Q268.9625 344.2 268.29062 345.0594Q267.4625 346.09064 266.04062 346.09064Q264.86874 346.09064 264.11874 345.4344Q263.38437 344.77814 263.275 343.7ZM270.47812 339.41876Q270.47812 338.4969 270.93124 337.85626Q271.4 337.21564 272.275 337.21564Q273.0875 337.21564 273.61874 337.79376Q274.15 338.3719 274.15 339.48126Q274.15 340.575 273.60312 341.16876Q273.07187 341.7469 272.29062 341.7469Q271.50937 341.7469 270.99374 341.16876Q270.47812 340.59064 270.47812 339.41876ZM272.30624 337.9344Q271.91562 337.9344 271.65 338.27814Q271.4 338.6219 271.4 339.52814Q271.4 340.35626 271.65 340.7Q271.91562 341.02814 272.30624 341.02814Q272.7125 341.02814 272.9625 340.6844Q273.22812 340.34064 273.22812 339.45Q273.22812 338.60626 272.9625 338.27814Q272.69687 337.9344 272.30624 337.9344ZM272.30624 346.2625L277.00937 337.21564L277.86874 337.21564L273.18124 346.2625L272.30624 346.2625ZM276.025 343.9344Q276.025 343.0125 276.47812 342.3719Q276.94687 341.73126 277.8375 341.73126Q278.65 341.73126 279.18124 342.3094Q279.7125 342.8719 279.7125 343.9969Q279.7125 345.09064 279.16562 345.6844Q278.63437 346.2625 277.8375 346.2625Q277.07187 346.2625 276.54062 345.6844Q276.025 345.10626 276.025 343.9344ZM277.86874 342.45Q277.4625 342.45 277.19687 342.79376Q276.94687 343.1375 276.94687 344.04376Q276.94687 344.85626 277.2125 345.2Q277.47812 345.54376 277.86874 345.54376Q278.25937 345.54376 278.525 345.2Q278.79062 344.85626 278.79062 343.95Q278.79062 343.1219 278.525 342.79376Q278.25937 342.45 277.86874 342.45Z" fill-rule="nonzero"/><path fill="#000000" d="M416.15625 343.96564L417.17188 343.8719Q417.29688 344.59064 417.65625 344.91876Q418.03125 345.23126 418.59375 345.23126Q419.07812 345.23126 419.4375 345.0125Q419.8125 344.77814 420.04688 344.41876Q420.28125 344.04376 420.4375 343.41876Q420.59375 342.77814 420.59375 342.1219Q420.59375 342.04376 420.59375 341.90314Q420.28125 342.40314 419.73438 342.73126Q419.1875 343.04376 418.54688 343.04376Q417.46875 343.04376 416.73438 342.27814Q416.0 341.4969 416.0 340.23126Q416.0 338.91876 416.76562 338.1219Q417.54688 337.325 418.70312 337.325Q419.53125 337.325 420.21875 337.77814Q420.92188 338.23126 421.28125 339.075Q421.64062 339.90314 421.64062 341.48126Q421.64062 343.1219 421.28125 344.10626Q420.9375 345.075 420.21875 345.59064Q419.51562 346.09064 418.57812 346.09064Q417.5625 346.09064 416.92188 345.54376Q416.28125 344.98126 416.15625 343.96564ZM420.46875 340.16876Q420.46875 339.2625 419.98438 338.73126Q419.51562 338.2 418.82812 338.2Q418.125 338.2 417.59375 338.77814Q417.07812 339.34064 417.07812 340.2625Q417.07812 341.075 417.57812 341.59064Q418.07812 342.10626 418.79688 342.10626Q419.53125 342.10626 420.0 341.59064Q420.46875 341.075 420.46875 340.16876ZM423.15625 343.96564L424.17188 343.8719Q424.29688 344.59064 424.65625 344.91876Q425.03125 345.23126 425.59375 345.23126Q426.07812 345.23126 426.4375 345.0125Q426.8125 344.77814 427.04688 344.41876Q427.28125 344.04376 427.4375 343.41876Q427.59375 342.77814 427.59375 342.1219Q427.59375 342.04376 427.59375 341.90314Q427.28125 342.40314 426.73438 342.73126Q426.1875 343.04376 425.54688 343.04376Q424.46875 343.04376 423.73438 342.27814Q423.0 341.4969 423.0 340.23126Q423.0 338.91876 423.76562 338.1219Q424.54688 337.325 425.70312 337.325Q426.53125 337.325 427.21875 337.77814Q427.92188 338.23126 428.28125 339.075Q428.64062 339.90314 428.64062 341.48126Q428.64062 343.1219 428.28125 344.10626Q427.9375 345.075 427.21875 345.59064Q426.51562 346.09064 425.57812 346.09064Q424.5625 346.09064 423.92188 345.54376Q423.28125 344.98126 423.15625 343.96564ZM427.46875 340.16876Q427.46875 339.2625 426.98438 338.73126Q426.51562 338.2 425.82812 338.2Q425.125 338.2 424.59375 338.77814Q424.07812 339.34064 424.07812 340.2625Q424.07812 341.075 424.57812 341.59064Q425.07812 342.10626 425.79688 342.10626Q426.53125 342.10626 427.0 341.59064Q427.46875 341.075 427.46875 340.16876ZM430.59375 345.95L430.59375 344.7469L431.79688 344.7469L431.79688 345.95L430.59375 345.95ZM433.0 343.7L434.10938 343.60626Q434.23438 344.41876 434.67188 344.825Q435.125 345.23126 435.76562 345.23126Q436.51562 345.23126 437.04688 344.65314Q437.57812 344.075 437.57812 343.1375Q437.57812 342.23126 437.0625 341.71564Q436.5625 341.1844 435.73438 341.1844Q435.23438 341.1844 434.8125 341.41876Q434.40625 341.65314 434.17188 342.0125L433.1875 341.8875L434.01562 337.48126L438.29688 337.48126L438.29688 338.48126L434.85938 338.48126L434.40625 340.79376Q435.17188 340.2469 436.01562 340.2469Q437.14062 340.2469 437.90625 341.02814Q438.6875 341.8094 438.6875 343.04376Q438.6875 344.2 438.01562 345.0594Q437.1875 346.09064 435.76562 346.09064Q434.59375 346.09064 433.84375 345.4344Q433.10938 344.77814 433.0 343.7ZM440.0 341.71564Q440.0 340.1844 440.3125 339.2625Q440.625 338.325 441.23438 337.825Q441.85938 337.325 442.79688 337.325Q443.48438 337.325 444.0 337.60626Q444.53125 337.8875 444.875 338.41876Q445.21875 338.9344 445.40625 339.6844Q445.59375 340.4344 445.59375 341.71564Q445.59375 343.23126 445.28125 344.15314Q444.98438 345.075 444.35938 345.59064Q443.75 346.09064 442.79688 346.09064Q441.5625 346.09064 440.84375 345.2Q440.0 344.1375 440.0 341.71564ZM441.07812 341.71564Q441.07812 343.825 441.57812 344.52814Q442.07812 345.23126 442.79688 345.23126Q443.53125 345.23126 444.01562 344.52814Q444.51562 343.825 444.51562 341.71564Q444.51562 339.59064 444.01562 338.90314Q443.53125 338.2 442.78125 338.2Q442.0625 338.2 441.625 338.8094Q441.07812 339.59064 441.07812 341.71564ZM447.20312 339.41876Q447.20312 338.4969 447.65625 337.85626Q448.125 337.21564 449.0 337.21564Q449.8125 337.21564 450.34375 337.79376Q450.875 338.3719 450.875 339.48126Q450.875 340.575 450.32812 341.16876Q449.79688 341.7469 449.01562 341.7469Q448.23438 341.7469 447.71875 341.16876Q447.20312 340.59064 447.20312 339.41876ZM449.03125 337.9344Q448.64062 337.9344 448.375 338.27814Q448.125 338.6219 448.125 339.52814Q448.125 340.35626 448.375 340.7Q448.64062 341.02814 449.03125 341.02814Q449.4375 341.02814 449.6875 340.6844Q449.95312 340.34064 449.95312 339.45Q449.95312 338.60626 449.6875 338.27814Q449.42188 337.9344 449.03125 337.9344ZM449.03125 346.2625L453.73438 337.21564L454.59375 337.21564L449.90625 346.2625L449.03125 346.2625ZM452.75 343.9344Q452.75 343.0125 453.20312 342.3719Q453.67188 341.73126 454.5625 341.73126Q455.375 341.73126 455.90625 342.3094Q456.4375 342.8719 456.4375 343.9969Q456.4375 345.09064 455.89062 345.6844Q455.35938 346.2625 454.5625 346.2625Q453.79688 346.2625 453.26562 345.6844Q452.75 345.10626 452.75 343.9344ZM454.59375 342.45Q454.1875 342.45 453.92188 342.79376Q453.67188 343.1375 453.67188 344.04376Q453.67188 344.85626 453.9375 345.2Q454.20312 345.54376 454.59375 345.54376Q454.98438 345.54376 455.25 345.2Q455.51562 344.85626 455.51562 343.95Q455.51562 343.1219 455.25 342.79376Q454.98438 342.45 454.59375 342.45Z" fill-rule="nonzero"/><path fill="#000000" d="M592.8812 343.96564L593.89685 343.8719Q594.02185 344.59064 594.3812 344.91876Q594.7562 345.23126 595.3187 345.23126Q595.8031 345.23126 596.1625 345.0125Q596.5375 344.77814 596.77185 344.41876Q597.0062 344.04376 597.1625 343.41876Q597.3187 342.77814 597.3187 342.1219Q597.3187 342.04376 597.3187 341.90314Q597.0062 342.40314 596.45935 342.73126Q595.9125 343.04376 595.27185 343.04376Q594.1937 343.04376 593.45935 342.27814Q592.725 341.4969 592.725 340.23126Q592.725 338.91876 593.4906 338.1219Q594.27185 337.325 595.4281 337.325Q596.2562 337.325 596.9437 337.77814Q597.64685 338.23126 598.0062 339.075Q598.3656 339.90314 598.3656 341.48126Q598.3656 343.1219 598.0062 344.10626Q597.6625 345.075 596.9437 345.59064Q596.2406 346.09064 595.3031 346.09064Q594.2875 346.09064 593.64685 345.54376Q593.0062 344.98126 592.8812 343.96564ZM597.1937 340.16876Q597.1937 339.2625 596.70935 338.73126Q596.2406 338.2 595.5531 338.2Q594.85 338.2 594.3187 338.77814Q593.8031 339.34064 593.8031 340.2625Q593.8031 341.075 594.3031 341.59064Q594.8031 342.10626 595.52185 342.10626Q596.2562 342.10626 596.725 341.59064Q597.1937 341.075 597.1937 340.16876ZM599.8812 343.96564L600.89685 343.8719Q601.02185 344.59064 601.3812 344.91876Q601.7562 345.23126 602.3187 345.23126Q602.8031 345.23126 603.1625 345.0125Q603.5375 344.77814 603.77185 344.41876Q604.0062 344.04376 604.1625 343.41876Q604.3187 342.77814 604.3187 342.1219Q604.3187 342.04376 604.3187 341.90314Q604.0062 342.40314 603.45935 342.73126Q602.9125 343.04376 602.27185 343.04376Q601.1937 343.04376 600.45935 342.27814Q599.725 341.4969 599.725 340.23126Q599.725 338.91876 600.4906 338.1219Q601.27185 337.325 602.4281 337.325Q603.2562 337.325 603.9437 337.77814Q604.64685 338.23126 605.0062 339.075Q605.3656 339.90314 605.3656 341.48126Q605.3656 343.1219 605.0062 344.10626Q604.6625 345.075 603.9437 345.59064Q603.2406 346.09064 602.3031 346.09064Q601.2875 346.09064 600.64685 345.54376Q600.0062 344.98126 599.8812 343.96564ZM604.1937 340.16876Q604.1937 339.2625 603.70935 338.73126Q603.2406 338.2 602.5531 338.2Q601.85 338.2 601.3187 338.77814Q600.8031 339.34064 600.8031 340.2625Q600.8031 341.075 601.3031 341.59064Q601.8031 342.10626 602.52185 342.10626Q603.2562 342.10626 603.725 341.59064Q604.1937 341.075 604.1937 340.16876ZM607.3187 345.95L607.3187 344.7469L608.52185 344.7469L608.52185 345.95L607.3187 345.95ZM609.7875 338.48126L609.7875 337.46564L615.35 337.46564L615.35 338.29376Q614.5375 339.16876 613.725 340.6219Q612.9281 342.0594 612.4906 343.59064Q612.1625 344.66876 612.08435 345.95L610.9906 345.95Q611.0062 344.9344 611.3812 343.4969Q611.77185 342.0594 612.475 340.73126Q613.1937 339.40314 614.0062 338.48126L609.7875 338.48126ZM616.725 343.7L617.83435 343.60626Q617.95935 344.41876 618.39685 344.825Q618.85 345.23126 619.4906 345.23126Q620.2406 345.23126 620.77185 344.65314Q621.3031 344.075 621.3031 343.1375Q621.3031 342.23126 620.7875 341.71564Q620.2875 341.1844 619.45935 341.1844Q618.95935 341.1844 618.5375 341.41876Q618.1312 341.65314 617.89685 342.0125L616.9125 341.8875L617.7406 337.48126L622.02185 337.48126L622.02185 338.48126L618.58435 338.48126L618.1312 340.79376Q618.89685 340.2469 619.7406 340.2469Q620.8656 340.2469 621.6312 341.02814Q622.4125 341.8094 622.4125 343.04376Q622.4125 344.2 621.7406 345.0594Q620.9125 346.09064 619.4906 346.09064Q618.3187 346.09064 617.5687 345.4344Q616.83435 344.77814 616.725 343.7ZM623.9281 339.41876Q623.9281 338.4969 624.3812 337.85626Q624.85 337.21564 625.725 337.21564Q626.5375 337.21564 627.0687 337.79376Q627.6 338.3719 627.6 339.48126Q627.6 340.575 627.0531 341.16876Q626.52185 341.7469 625.7406 341.7469Q624.95935 341.7469 624.4437 341.16876Q623.9281 340.59064 623.9281 339.41876ZM625.7562 337.9344Q625.3656 337.9344 625.1 338.27814Q624.85 338.6219 624.85 339.52814Q624.85 340.35626 625.1 340.7Q625.3656 341.02814 625.7562 341.02814Q626.1625 341.02814 626.4125 340.6844Q626.6781 340.34064 626.6781 339.45Q626.6781 338.60626 626.4125 338.27814Q626.14685 337.9344 625.7562 337.9344ZM625.7562 346.2625L630.45935 337.21564L631.3187 337.21564L626.6312 346.2625L625.7562 346.2625ZM629.475 343.9344Q629.475 343.0125 629.9281 342.3719Q630.39685 341.73126 631.2875 341.73126Q632.1 341.73126 632.6312 342.3094Q633.1625 342.8719 633.1625 343.9969Q633.1625 345.09064 632.6156 345.6844Q632.08435 346.2625 631.2875 346.2625Q630.52185 346.2625 629.9906 345.6844Q629.475 345.10626 629.475 343.9344ZM631.3187 342.45Q630.9125 342.45 630.64685 342.79376Q630.39685 343.1375 630.39685 344.04376Q630.39685 344.85626 630.6625 345.2Q630.9281 345.54376 631.3187 345.54376Q631.70935 345.54376 631.975 345.2Q632.2406 344.85626 632.2406 343.95Q632.2406 343.1219 631.975 342.79376Q631.70935 342.45 631.3187 342.45Z" fill-rule="nonzero"/><path fill="#757575" d="M339.90625 34.45625L341.6875 34.3Q341.8125 35.3625 342.26562 36.05Q342.73438 36.7375 343.70312 37.175Q344.6875 37.596874 345.92188 37.596874Q347.0 37.596874 347.82812 37.284374Q348.65625 36.95625 349.0625 36.39375Q349.46875 35.83125 349.46875 35.159374Q349.46875 34.4875 349.07812 33.9875Q348.6875 33.4875 347.79688 33.14375Q347.21875 32.909374 345.23438 32.440624Q343.26562 31.971874 342.48438 31.55Q341.45312 31.01875 340.95312 30.221874Q340.45312 29.425 340.45312 28.440624Q340.45312 27.346874 341.0625 26.409374Q341.67188 25.471874 342.85938 24.9875Q344.04688 24.4875 345.48438 24.4875Q347.07812 24.4875 348.29688 25.003124Q349.51562 25.51875 350.15625 26.51875Q350.8125 27.503124 350.85938 28.76875L349.04688 28.909374Q348.90625 27.55 348.0625 26.8625Q347.21875 26.159374 345.5625 26.159374Q343.84375 26.159374 343.04688 26.8Q342.26562 27.425 342.26562 28.3Q342.26562 29.08125 342.82812 29.58125Q343.375 30.08125 345.6875 30.596874Q348.0 31.1125 348.85938 31.503124Q350.10938 32.08125 350.70312 32.971874Q351.29688 33.846874 351.29688 35.003124Q351.29688 36.14375 350.64062 37.159374Q349.98438 38.175 348.75 38.7375Q347.53125 39.3 346.0 39.3Q344.0625 39.3 342.75 38.7375Q341.4375 38.159374 340.6875 37.01875Q339.9375 35.878124 339.90625 34.45625ZM360.42188 35.70625L362.23438 35.940624Q361.8125 37.51875 360.64062 38.409374Q359.48438 39.284374 357.67188 39.284374Q355.40625 39.284374 354.0625 37.89375Q352.73438 36.4875 352.73438 33.95625Q352.73438 31.33125 354.07812 29.89375Q355.42188 28.440624 357.57812 28.440624Q359.65625 28.440624 360.96875 29.8625Q362.29688 31.26875 362.29688 33.846874Q362.29688 34.003124 362.28125 34.315624L354.54688 34.315624Q354.64062 36.01875 355.51562 36.925Q356.39062 37.83125 357.6875 37.83125Q358.65625 37.83125 359.32812 37.33125Q360.01562 36.815624 360.42188 35.70625ZM354.64062 32.8625L360.4375 32.8625Q360.32812 31.565624 359.78125 30.909374Q358.9375 29.89375 357.59375 29.89375Q356.39062 29.89375 355.5625 30.70625Q354.73438 31.503124 354.64062 32.8625ZM364.29688 39.05L364.29688 28.675L365.875 28.675L365.875 30.253124Q366.48438 29.14375 367.0 28.8Q367.51562 28.440624 368.125 28.440624Q369.01562 28.440624 369.9375 29.003124L369.32812 30.64375Q368.6875 30.253124 368.04688 30.253124Q367.46875 30.253124 367.0 30.6125Q366.54688 30.95625 366.34375 31.565624Q366.0625 32.503124 366.0625 33.6125L366.0625 39.05L364.29688 39.05ZM374.20312 39.05L370.25 28.675L372.10938 28.675L374.34375 34.89375Q374.70312 35.89375 375.0 36.971874Q375.23438 36.159374 375.65625 35.003124L377.95312 28.675L379.76562 28.675L375.84375 39.05L374.20312 39.05ZM380.32812 26.753124L380.32812 24.7375L382.09375 24.7375L382.09375 26.753124L380.32812 26.753124ZM380.32812 39.05L380.32812 28.675L382.09375 28.675L382.09375 39.05L380.32812 39.05ZM391.09375 35.253124L392.8125 35.471874Q392.53125 37.26875 391.35938 38.284374Q390.20312 39.284374 388.5 39.284374Q386.375 39.284374 385.07812 37.89375Q383.78125 36.503124 383.78125 33.909374Q383.78125 32.221874 384.32812 30.971874Q384.89062 29.70625 386.03125 29.08125Q387.17188 28.440624 388.51562 28.440624Q390.20312 28.440624 391.26562 29.3Q392.34375 30.159374 392.65625 31.721874L390.9375 31.9875Q390.70312 30.940624 390.07812 30.425Q389.45312 29.89375 388.57812 29.89375Q387.25 29.89375 386.42188 30.846874Q385.59375 31.8 385.59375 33.846874Q385.59375 35.940624 386.39062 36.89375Q387.1875 37.83125 388.48438 37.83125Q389.51562 37.83125 390.20312 37.20625Q390.90625 36.565624 391.09375 35.253124ZM401.42188 35.70625L403.23438 35.940624Q402.8125 37.51875 401.64062 38.409374Q400.48438 39.284374 398.67188 39.284374Q396.40625 39.284374 395.0625 37.89375Q393.73438 36.4875 393.73438 33.95625Q393.73438 31.33125 395.07812 29.89375Q396.42188 28.440624 398.57812 28.440624Q400.65625 28.440624 401.96875 29.8625Q403.29688 31.26875 403.29688 33.846874Q403.29688 34.003124 403.28125 34.315624L395.54688 34.315624Q395.64062 36.01875 396.51562 36.925Q397.39062 37.83125 398.6875 37.83125Q399.65625 37.83125 400.32812 37.33125Q401.01562 36.815624 401.42188 35.70625ZM395.64062 32.8625L401.4375 32.8625Q401.32812 31.565624 400.78125 30.909374Q399.9375 29.89375 398.59375 29.89375Q397.39062 29.89375 396.5625 30.70625Q395.73438 31.503124 395.64062 32.8625ZM420.9375 24.7375L422.82812 24.7375L422.82812 33.003124Q422.82812 35.159374 422.34375 36.440624Q421.85938 37.70625 420.57812 38.503124Q419.3125 39.3 417.23438 39.3Q415.21875 39.3 413.9375 38.6125Q412.67188 37.909374 412.125 36.596874Q411.57812 35.284374 411.57812 33.003124L411.57812 24.7375L413.46875 24.7375L413.46875 32.9875Q413.46875 34.8625 413.8125 35.753124Q414.15625 36.628124 415.0 37.1125Q415.84375 37.58125 417.07812 37.58125Q419.15625 37.58125 420.04688 36.64375Q420.9375 35.690624 420.9375 32.9875L420.9375 24.7375ZM424.3125 43.01875L424.3125 28.675L425.92188 28.675L425.92188 30.01875Q426.48438 29.2375 427.1875 28.846874Q427.90625 28.440624 428.92188 28.440624Q430.25 28.440624 431.26562 29.128124Q432.28125 29.815624 432.79688 31.065624Q433.32812 32.3 433.32812 33.784374Q433.32812 35.378124 432.75 36.659374Q432.1875 37.925 431.09375 38.6125Q430.0 39.284374 428.79688 39.284374Q427.92188 39.284374 427.21875 38.909374Q426.53125 38.534374 426.07812 37.971874L426.07812 43.01875L424.3125 43.01875ZM425.90625 33.925Q425.90625 35.925 426.71875 36.878124Q427.53125 37.83125 428.6875 37.83125Q429.85938 37.83125 430.6875 36.846874Q431.53125 35.8625 431.53125 33.76875Q431.53125 31.8 430.70312 30.815624Q429.89062 29.815624 428.76562 29.815624Q427.64062 29.815624 426.76562 30.878124Q425.90625 31.925 425.90625 33.925ZM439.15625 37.471874L439.40625 39.034374Q438.67188 39.190624 438.07812 39.190624Q437.125 39.190624 436.59375 38.89375Q436.07812 38.58125 435.85938 38.096874Q435.64062 37.596874 435.64062 36.01875L435.64062 30.05L434.35938 30.05L434.35938 28.675L435.64062 28.675L435.64062 26.1125L437.39062 25.05L437.39062 28.675L439.15625 28.675L439.15625 30.05L437.39062 30.05L437.39062 36.1125Q437.39062 36.8625 437.48438 37.08125Q437.57812 37.284374 437.78125 37.425Q438.0 37.55 438.39062 37.55Q438.67188 37.55 439.15625 37.471874ZM441.32812 26.753124L441.32812 24.7375L443.09375 24.7375L443.09375 26.753124L441.32812 26.753124ZM441.32812 39.05L441.32812 28.675L443.09375 28.675L443.09375 39.05L441.32812 39.05ZM445.3125 39.05L445.3125 28.675L446.89062 28.675L446.89062 30.128124Q447.375 29.378124 448.1875 28.909374Q449.0 28.440624 450.03125 28.440624Q451.1875 28.440624 451.92188 28.925Q452.65625 29.39375 452.96875 30.253124Q454.20312 28.440624 456.17188 28.440624Q457.71875 28.440624 458.54688 29.3Q459.375 30.159374 459.375 31.925L459.375 39.05L457.625 39.05L457.625 32.51875Q457.625 31.45625 457.45312 31.003124Q457.28125 30.534374 456.82812 30.253124Q456.39062 29.971874 455.78125 29.971874Q454.6875 29.971874 453.95312 30.70625Q453.23438 31.425 453.23438 33.01875L453.23438 39.05L451.48438 39.05L451.48438 32.315624Q451.48438 31.14375 451.04688 30.565624Q450.625 29.971874 449.64062 29.971874Q448.90625 29.971874 448.26562 30.3625Q447.64062 30.753124 447.35938 31.503124Q447.07812 32.253124 447.07812 33.675L447.07812 39.05L445.3125 39.05ZM468.42188 35.70625L470.23438 35.940624Q469.8125 37.51875 468.64062 38.409374Q467.48438 39.284374 465.67188 39.284374Q463.40625 39.284374 462.0625 37.89375Q460.73438 36.4875 460.73438 33.95625Q460.73438 31.33125 462.07812 29.89375Q463.42188 28.440624 465.57812 28.440624Q467.65625 28.440624 468.96875 29.8625Q470.29688 31.26875 470.29688 33.846874Q470.29688 34.003124 470.28125 34.315624L462.54688 34.315624Q462.64062 36.01875 463.51562 36.925Q464.39062 37.83125 465.6875 37.83125Q466.65625 37.83125 467.32812 37.33125Q468.01562 36.815624 468.42188 35.70625ZM462.64062 32.8625L468.4375 32.8625Q468.32812 31.565624 467.78125 30.909374Q466.9375 29.89375 465.59375 29.89375Q464.39062 29.89375 463.5625 30.70625Q462.73438 31.503124 462.64062 32.8625Z" fill-rule="nonzero"/></svg>