<svg version="1.1" viewBox="0.0 0.0 810.0 402.0" fill="none" stroke="none" stroke-linecap="square" stroke-miterlimit="10" width="810" height="402" xmlns:xlink="http://www.w3.org/1999/xlink" xmlns="http://www.w3.org/2000/svg"><path fill="#ffffff" d="M0 0L810.0 0L810.0 402.0L0 402.0L0 0Z" fill-rule="nonzero"/><path fill="#f59e0b" d="M338.2545 57.939487C342.22513 57.646595 346.20523 57.5 350.18668 57.5L350.18668 138.6C348.19595 138.6 346.2059 138.6733 344.22058 138.81975Z" fill-rule="nonzero"/><path fill="#ef4444" d="M190.37463 247.43002C182.54732 202.32007 194.14911 156.0031 222.31688 119.90944C250.48465 83.81578 292.59454 61.307568 338.2545 57.939487L344.22058 138.81975C321.3906 140.50378 300.33566 151.75789 286.25177 169.80472C272.16788 187.85155 266.367 211.01003 270.28064 233.565Z" fill-rule="nonzero"/><path fill="#3b82f6" d="M350.18668 57.5C436.16083 57.5 507.19983 124.58289 512.1207 210.4161C517.0417 296.24933 454.13486 371.0115 368.724 380.83722C283.31317 390.66296 205.07294 332.13843 190.37463 247.43002L270.28064 233.565C277.6298 275.91922 316.7499 305.1815 359.45535 300.26862C402.16077 295.35574 433.61417 257.97467 431.15372 215.05806C428.69324 172.14145 393.17374 138.6 350.18668 138.6Z" fill-rule="nonzero"/><path fill="#000000" d="M424.863 294.92834L424.863 293.13147L431.44113 293.13147L431.44113 294.53772Q430.613 295.3346 429.76926 296.8346Q428.94113 298.31897 428.488 300.00647Q428.0505 301.69397 428.06613 303.0221L426.20676 303.0221Q426.25363 300.94397 427.06613 298.78772Q427.87863 296.61584 429.238 294.92834L424.863 294.92834ZM439.34738 301.24084L439.34738 303.0221L432.613 303.0221Q432.72238 302.00647 433.26926 301.10022Q433.81613 300.19397 435.44113 298.69397Q436.738 297.49084 437.03488 297.05334Q437.4255 296.4596 437.4255 295.88147Q437.4255 295.24084 437.08176 294.8971Q436.738 294.55334 436.12863 294.55334Q435.51926 294.55334 435.15988 294.91272Q434.81613 295.2721 434.75363 296.11584L432.84738 295.92834Q433.01926 294.3346 433.90988 293.6471Q434.81613 292.9596 436.1755 292.9596Q437.65988 292.9596 438.50363 293.75647Q439.34738 294.55334 439.34738 295.74084Q439.34738 296.42834 439.09738 297.03772Q438.863 297.6471 438.34738 298.31897Q437.988 298.75647 437.08176 299.60022Q436.1755 300.42834 435.9255 300.7096Q435.69113 300.97522 435.53488 301.24084L439.34738 301.24084ZM441.26926 303.0221L441.26926 301.10022L443.19113 301.10022L443.19113 303.0221L441.26926 303.0221ZM444.8005 300.36584L446.65988 300.13147Q446.738 300.85022 447.12863 301.22522Q447.51926 301.60022 448.08176 301.60022Q448.6755 301.60022 449.08176 301.1471Q449.488 300.69397 449.488 299.92834Q449.488 299.2096 449.09738 298.78772Q448.70676 298.36584 448.14426 298.36584Q447.76926 298.36584 447.26926 298.50647L447.47238 296.94397Q448.25363 296.9596 448.65988 296.60022Q449.08176 296.24084 449.08176 295.6471Q449.08176 295.1471 448.76926 294.85022Q448.47238 294.53772 447.97238 294.53772Q447.488 294.53772 447.12863 294.88147Q446.78488 295.22522 446.70676 295.88147L444.94113 295.5846Q445.12863 294.66272 445.488 294.13147Q445.863 293.5846 446.53488 293.2721Q447.20676 292.9596 448.03488 292.9596Q449.44113 292.9596 450.3005 293.86584Q451.00363 294.60022 451.00363 295.5221Q451.00363 296.85022 449.56613 297.63147Q450.4255 297.81897 450.94113 298.4596Q451.45676 299.10022 451.45676 300.00647Q451.45676 301.3346 450.488 302.2721Q449.51926 303.19397 448.09738 303.19397Q446.738 303.19397 445.83176 302.41272Q444.94113 301.63147 444.8005 300.36584ZM452.87863 295.47522Q452.87863 294.13147 453.47238 293.49084Q454.06613 292.8346 455.06613 292.8346Q456.113 292.8346 456.70676 293.47522Q457.3005 294.11584 457.3005 295.47522Q457.3005 296.81897 456.70676 297.47522Q456.113 298.11584 455.113 298.11584Q454.06613 298.11584 453.47238 297.47522Q452.87863 296.8346 452.87863 295.47522ZM454.37863 295.4596Q454.37863 296.44397 454.59738 296.7721Q454.76926 297.0221 455.06613 297.0221Q455.37863 297.0221 455.5505 296.7721Q455.76926 296.44397 455.76926 295.4596Q455.76926 294.49084 455.5505 294.16272Q455.37863 293.8971 455.06613 293.8971Q454.76926 293.8971 454.59738 294.1471Q454.37863 294.49084 454.37863 295.4596ZM456.53488 303.41272L455.113 303.41272L460.45676 292.8346L461.83176 292.8346L456.53488 303.41272ZM459.64426 300.7721Q459.64426 299.42834 460.22238 298.78772Q460.81613 298.13147 461.84738 298.13147Q462.87863 298.13147 463.47238 298.78772Q464.06613 299.42834 464.06613 300.7721Q464.06613 302.13147 463.47238 302.78772Q462.87863 303.42834 461.863 303.42834Q460.81613 303.42834 460.22238 302.78772Q459.64426 302.13147 459.64426 300.7721ZM461.12863 300.7721Q461.12863 301.74084 461.363 302.06897Q461.53488 302.31897 461.83176 302.31897Q462.14426 302.31897 462.3005 302.0846Q462.53488 301.74084 462.53488 300.7721Q462.53488 299.78772 462.31613 299.4596Q462.14426 299.2096 461.83176 299.2096Q461.51926 299.2096 461.363 299.4596Q461.12863 299.78772 461.12863 300.7721Z" fill-rule="nonzero"/><path fill="#000000" d="M242.36244 148.07582L242.36244 149.85707L235.62807 149.85707Q235.73744 148.84145 236.28432 147.9352Q236.83119 147.02895 238.45619 145.52895Q239.75307 144.32582 240.04994 143.88832Q240.44057 143.29457 240.44057 142.71645Q240.44057 142.07582 240.09682 141.73207Q239.75307 141.38832 239.14369 141.38832Q238.53432 141.38832 238.17494 141.7477Q237.83119 142.10707 237.76869 142.95082L235.86244 142.76332Q236.03432 141.16957 236.92494 140.48207Q237.83119 139.79457 239.19057 139.79457Q240.67494 139.79457 241.51869 140.59145Q242.36244 141.38832 242.36244 142.57582Q242.36244 143.26332 242.11244 143.8727Q241.87807 144.48207 241.36244 145.15395Q241.00307 145.59145 240.09682 146.4352Q239.19057 147.26332 238.94057 147.54457Q238.70619 147.8102 238.54994 148.07582L242.36244 148.07582ZM250.39369 142.29457L248.53432 142.4977Q248.45619 141.91957 248.15932 141.65395Q247.87807 141.3727 247.42494 141.3727Q246.81557 141.3727 246.39369 141.91957Q245.97182 142.46645 245.86244 144.20082Q246.58119 143.34145 247.65932 143.34145Q248.86244 143.34145 249.70619 144.26332Q250.56557 145.1852 250.56557 146.6227Q250.56557 148.16957 249.65932 149.10707Q248.76869 150.02895 247.34682 150.02895Q245.83119 150.02895 244.84682 148.85707Q243.87807 147.66957 243.87807 144.98207Q243.87807 142.23207 244.89369 141.01332Q245.90932 139.79457 247.54994 139.79457Q248.69057 139.79457 249.42494 140.4352Q250.17494 141.07582 250.39369 142.29457ZM246.03432 146.48207Q246.03432 147.41957 246.45619 147.9352Q246.89369 148.4352 247.44057 148.4352Q247.98744 148.4352 248.33119 148.02895Q248.69057 147.60707 248.69057 146.65395Q248.69057 145.66957 248.29994 145.21645Q247.92494 144.76332 247.34682 144.76332Q246.79994 144.76332 246.40932 145.20082Q246.03432 145.63832 246.03432 146.48207ZM252.28432 149.85707L252.28432 147.9352L254.20619 147.9352L254.20619 149.85707L252.28432 149.85707ZM262.39368 142.29457L260.5343 142.4977Q260.45618 141.91957 260.1593 141.65395Q259.87805 141.3727 259.42493 141.3727Q258.81555 141.3727 258.39368 141.91957Q257.9718 142.46645 257.86243 144.20082Q258.58118 143.34145 259.6593 143.34145Q260.86243 143.34145 261.70618 144.26332Q262.56555 145.1852 262.56555 146.6227Q262.56555 148.16957 261.6593 149.10707Q260.76868 150.02895 259.3468 150.02895Q257.83118 150.02895 256.8468 148.85707Q255.87807 147.66957 255.87807 144.98207Q255.87807 142.23207 256.89368 141.01332Q257.9093 139.79457 259.54993 139.79457Q260.69055 139.79457 261.42493 140.4352Q262.17493 141.07582 262.39368 142.29457ZM258.0343 146.48207Q258.0343 147.41957 258.45618 147.9352Q258.89368 148.4352 259.44055 148.4352Q259.98743 148.4352 260.33118 148.02895Q260.69055 147.60707 260.69055 146.65395Q260.69055 145.66957 260.29993 145.21645Q259.92493 144.76332 259.3468 144.76332Q258.79993 144.76332 258.4093 145.20082Q258.0343 145.63832 258.0343 146.48207ZM263.89368 142.3102Q263.89368 140.96645 264.48743 140.32582Q265.08118 139.66957 266.08118 139.66957Q267.12805 139.66957 267.7218 140.3102Q268.31555 140.95082 268.31555 142.3102Q268.31555 143.65395 267.7218 144.3102Q267.12805 144.95082 266.12805 144.95082Q265.08118 144.95082 264.48743 144.3102Q263.89368 143.66957 263.89368 142.3102ZM265.39368 142.29457Q265.39368 143.27895 265.61243 143.60707Q265.7843 143.85707 266.08118 143.85707Q266.39368 143.85707 266.56555 143.60707Q266.7843 143.27895 266.7843 142.29457Q266.7843 141.32582 266.56555 140.9977Q266.39368 140.73207 266.08118 140.73207Q265.7843 140.73207 265.61243 140.98207Q265.39368 141.32582 265.39368 142.29457ZM267.54993 150.2477L266.12805 150.2477L271.4718 139.66957L272.8468 139.66957L267.54993 150.2477ZM270.6593 147.60707Q270.6593 146.26332 271.23743 145.6227Q271.83118 144.96645 272.86243 144.96645Q273.89368 144.96645 274.48743 145.6227Q275.08118 146.26332 275.08118 147.60707Q275.08118 148.96645 274.48743 149.6227Q273.89368 150.26332 272.87805 150.26332Q271.83118 150.26332 271.23743 149.6227Q270.6593 148.96645 270.6593 147.60707ZM272.14368 147.60707Q272.14368 148.57582 272.37805 148.90395Q272.54993 149.15395 272.8468 149.15395Q273.1593 149.15395 273.31555 148.91957Q273.54993 148.57582 273.54993 147.60707Q273.54993 146.6227 273.33118 146.29457Q273.1593 146.04457 272.8468 146.04457Q272.5343 146.04457 272.37805 146.29457Q272.14368 146.6227 272.14368 147.60707Z" fill-rule="nonzero"/><path fill="#3b82f6" d="M713.9 64.5C713.9 67.813705 711.2137 70.5 707.9 70.5C704.5863 70.5 701.9 67.813705 701.9 64.5C701.9 61.18629 704.5863 58.5 707.9 58.5C711.2137 58.5 713.9 61.18629 713.9 64.5Z" fill-rule="nonzero"/><path fill="#1a1a1a" d="M722.8219 68.5L722.8219 59.90625L725.79065 59.90625Q726.79065 59.90625 727.3219 60.03125Q728.0563 60.203125 728.5719 60.640625Q729.2594 61.21875 729.5875 62.125Q729.9313 63.015625 729.9313 64.15625Q729.9313 65.140625 729.6969 65.890625Q729.47815 66.640625 729.1188 67.140625Q728.7594 67.640625 728.3219 67.921875Q727.9 68.203125 727.3063 68.359375Q726.7125 68.5 725.9313 68.5L722.8219 68.5ZM723.9625 67.484375L725.79065 67.484375Q726.65 67.484375 727.1344 67.328125Q727.6188 67.171875 727.9 66.875Q728.3063 66.484375 728.525 65.796875Q728.7594 65.109375 728.7594 64.140625Q728.7594 62.796875 728.3063 62.078125Q727.8688 61.34375 727.2438 61.09375Q726.775 60.921875 725.775 60.921875L723.9625 60.921875L723.9625 67.484375ZM735.9469 66.5L737.04065 66.625Q736.79065 67.578125 736.0875 68.109375Q735.3844 68.640625 734.3063 68.640625Q732.9469 68.640625 732.1344 67.796875Q731.3375 66.953125 731.3375 65.4375Q731.3375 63.875 732.15 63.015625Q732.9625 62.140625 734.2438 62.140625Q735.4938 62.140625 736.275 62.984375Q737.0719 63.828125 737.0719 65.375Q737.0719 65.46875 737.0719 65.65625L732.4313 65.65625Q732.4938 66.6875 733.0094 67.234375Q733.525 67.765625 734.3063 67.765625Q734.8844 67.765625 735.29065 67.46875Q735.7125 67.15625 735.9469 66.5ZM732.4938 64.796875L735.9625 64.796875Q735.9 64.0 735.5719 63.609375Q735.0563 63.0 734.2594 63.0Q733.525 63.0 733.025 63.484375Q732.54065 63.96875 732.4938 64.796875ZM738.275 66.640625L739.3063 66.484375Q739.4 67.109375 739.79065 67.4375Q740.1969 67.765625 740.9313 67.765625Q741.65 67.765625 741.9938 67.484375Q742.35315 67.1875 742.35315 66.78125Q742.35315 66.421875 742.04065 66.21875Q741.8219 66.078125 740.9625 65.859375Q739.8063 65.5625 739.35315 65.359375Q738.91565 65.140625 738.6813 64.765625Q738.4469 64.390625 738.4469 63.921875Q738.4469 63.515625 738.6344 63.15625Q738.8219 62.796875 739.15 62.5625Q739.4 62.390625 739.8219 62.265625Q740.2438 62.140625 740.7438 62.140625Q741.4625 62.140625 742.0094 62.359375Q742.5719 62.5625 742.8375 62.921875Q743.10315 63.28125 743.1969 63.875L742.16565 64.015625Q742.10315 63.546875 741.7594 63.28125Q741.4313 63.0 740.8063 63.0Q740.0875 63.0 739.775 63.25Q739.4625 63.484375 739.4625 63.8125Q739.4625 64.015625 739.5875 64.171875Q739.72815 64.34375 739.9938 64.453125Q740.15 64.515625 740.9313 64.71875Q742.0563 65.03125 742.4938 65.21875Q742.9313 65.40625 743.1813 65.765625Q743.4313 66.125 743.4313 66.671875Q743.4313 67.203125 743.1188 67.671875Q742.8219 68.125 742.2438 68.390625Q741.66565 68.640625 740.9313 68.640625Q739.7125 68.640625 739.0719 68.140625Q738.4469 67.625 738.275 66.640625ZM745.6969 68.5L745.6969 59.90625L746.7594 59.90625L746.7594 64.8125L749.2438 62.28125L750.6188 62.28125L748.22815 64.578125L750.85315 68.5L749.5563 68.5L747.4938 65.3125L746.7594 66.03125L746.7594 68.5L745.6969 68.5ZM753.9938 67.5625L754.15 68.484375Q753.6969 68.578125 753.35315 68.578125Q752.775 68.578125 752.4625 68.40625Q752.15 68.21875 752.0094 67.921875Q751.8844 67.625 751.8844 66.671875L751.8844 63.09375L751.1188 63.09375L751.1188 62.28125L751.8844 62.28125L751.8844 60.734375L752.9313 60.109375L752.9313 62.28125L753.9938 62.28125L753.9938 63.09375L752.9313 63.09375L752.9313 66.734375Q752.9313 67.1875 752.97815 67.3125Q753.04065 67.4375 753.16565 67.515625Q753.29065 67.59375 753.525 67.59375Q753.7125 67.59375 753.9938 67.5625ZM754.3063 65.390625Q754.3063 63.65625 755.2594 62.828125Q756.0563 62.140625 757.2125 62.140625Q758.4938 62.140625 759.3063 62.984375Q760.1344 63.8125 760.1344 65.296875Q760.1344 66.5 759.775 67.1875Q759.41565 67.875 758.7125 68.265625Q758.025 68.640625 757.2125 68.640625Q755.91565 68.640625 755.10315 67.8125Q754.3063 66.96875 754.3063 65.390625ZM755.3844 65.390625Q755.3844 66.578125 755.9 67.171875Q756.4313 67.765625 757.2125 67.765625Q758.0094 67.765625 758.525 67.171875Q759.04065 66.578125 759.04065 65.359375Q759.04065 64.203125 758.5094 63.609375Q757.9938 63.015625 757.2125 63.015625Q756.4313 63.015625 755.9 63.609375Q755.3844 64.1875 755.3844 65.390625ZM761.6969 70.890625L761.6969 62.28125L762.65 62.28125L762.65 63.078125Q762.9938 62.609375 763.41565 62.375Q763.85315 62.140625 764.4625 62.140625Q765.2594 62.140625 765.8688 62.546875Q766.47815 62.953125 766.775 63.703125Q767.0875 64.453125 767.0875 65.34375Q767.0875 66.296875 766.7438 67.0625Q766.41565 67.828125 765.7594 68.234375Q765.10315 68.640625 764.3844 68.640625Q763.85315 68.640625 763.4313 68.421875Q763.0094 68.1875 762.7438 67.859375L762.7438 70.890625L761.6969 70.890625ZM762.65 65.421875Q762.65 66.625 763.1344 67.203125Q763.6188 67.765625 764.3063 67.765625Q765.0094 67.765625 765.5094 67.171875Q766.0094 66.578125 766.0094 65.328125Q766.0094 64.140625 765.525 63.5625Q765.04065 62.96875 764.35315 62.96875Q763.6813 62.96875 763.16565 63.59375Q762.65 64.21875 762.65 65.421875Z" fill-rule="nonzero"/><path fill="#ef4444" d="M713.9 88.5C713.9 91.813705 711.2137 94.5 707.9 94.5C704.5863 94.5 701.9 91.813705 701.9 88.5C701.9 85.186295 704.5863 82.5 707.9 82.5C711.2137 82.5 713.9 85.186295 713.9 88.5Z" fill-rule="nonzero"/><path fill="#1a1a1a" d="M722.4469 89.734375L723.5094 89.640625Q723.5875 90.296875 723.8688 90.703125Q724.15 91.109375 724.72815 91.375Q725.3219 91.625 726.0563 91.625Q726.6969 91.625 727.1969 91.4375Q727.6969 91.234375 727.9313 90.90625Q728.1813 90.5625 728.1813 90.171875Q728.1813 89.765625 727.9469 89.46875Q727.7125 89.15625 727.1813 88.953125Q726.8219 88.8125 725.6344 88.53125Q724.4625 88.25 723.9938 88.0Q723.3688 87.671875 723.0719 87.203125Q722.775 86.71875 722.775 86.125Q722.775 85.484375 723.1344 84.921875Q723.5094 84.34375 724.2125 84.0625Q724.9313 83.765625 725.79065 83.765625Q726.7438 83.765625 727.47815 84.078125Q728.2125 84.375 728.60315 84.984375Q728.9938 85.578125 729.025 86.328125L727.9313 86.40625Q727.8375 85.59375 727.3219 85.1875Q726.8219 84.765625 725.8375 84.765625Q724.8063 84.765625 724.3375 85.140625Q723.8688 85.515625 723.8688 86.046875Q723.8688 86.515625 724.1969 86.8125Q724.525 87.109375 725.9 87.421875Q727.29065 87.734375 727.8063 87.96875Q728.5563 88.328125 728.91565 88.859375Q729.275 89.375 729.275 90.078125Q729.275 90.765625 728.8844 91.375Q728.4938 91.96875 727.7594 92.3125Q727.025 92.640625 726.10315 92.640625Q724.9313 92.640625 724.1344 92.3125Q723.35315 91.96875 722.9 91.28125Q722.4625 90.59375 722.4469 89.734375ZM730.6969 92.5L730.6969 86.28125L731.6344 86.28125L731.6344 87.15625Q731.9313 86.6875 732.41565 86.421875Q732.9 86.140625 733.525 86.140625Q734.2125 86.140625 734.65 86.421875Q735.10315 86.703125 735.275 87.21875Q736.025 86.140625 737.1969 86.140625Q738.1344 86.140625 738.6188 86.65625Q739.1188 87.15625 739.1188 88.234375L739.1188 92.5L738.0719 92.5L738.0719 88.578125Q738.0719 87.953125 737.9625 87.671875Q737.8688 87.390625 737.60315 87.21875Q737.3375 87.046875 736.9625 87.046875Q736.3063 87.046875 735.8688 87.484375Q735.4469 87.921875 735.4469 88.890625L735.4469 92.5L734.3844 92.5L734.3844 88.453125Q734.3844 87.75 734.1188 87.40625Q733.8688 87.046875 733.29065 87.046875Q732.8375 87.046875 732.4625 87.28125Q732.0875 87.515625 731.91565 87.96875Q731.7438 88.421875 731.7438 89.265625L731.7438 92.5L730.6969 92.5ZM745.7594 91.734375Q745.16565 92.234375 744.6188 92.4375Q744.0875 92.640625 743.4625 92.640625Q742.4313 92.640625 741.8844 92.140625Q741.3375 91.640625 741.3375 90.859375Q741.3375 90.40625 741.54065 90.03125Q741.7438 89.640625 742.0875 89.421875Q742.4313 89.1875 742.85315 89.078125Q743.15 88.984375 743.79065 88.90625Q745.0563 88.765625 745.66565 88.546875Q745.66565 88.328125 745.66565 88.28125Q745.66565 87.625 745.3688 87.359375Q744.9625 87.015625 744.16565 87.015625Q743.4313 87.015625 743.0719 87.28125Q742.7125 87.53125 742.54065 88.1875L741.5094 88.046875Q741.65 87.390625 741.97815 86.984375Q742.3063 86.578125 742.91565 86.359375Q743.525 86.140625 744.3219 86.140625Q745.1188 86.140625 745.6188 86.328125Q746.1188 86.515625 746.35315 86.796875Q746.5875 87.078125 746.6813 87.515625Q746.72815 87.78125 746.72815 88.484375L746.72815 89.890625Q746.72815 91.359375 746.79065 91.75Q746.8688 92.140625 747.0719 92.5L745.9625 92.5Q745.8063 92.171875 745.7594 91.734375ZM745.66565 89.375Q745.0875 89.609375 743.9469 89.78125Q743.29065 89.875 743.025 90.0Q742.7594 90.109375 742.60315 90.328125Q742.4625 90.546875 742.4625 90.828125Q742.4625 91.25 742.775 91.53125Q743.10315 91.8125 743.7125 91.8125Q744.3219 91.8125 744.79065 91.546875Q745.275 91.28125 745.4938 90.8125Q745.66565 90.453125 745.66565 89.765625L745.66565 89.375ZM748.6813 92.5L748.6813 86.28125L749.6344 86.28125L749.6344 87.21875Q749.9938 86.5625 750.29065 86.359375Q750.60315 86.140625 750.97815 86.140625Q751.5094 86.140625 752.0563 86.46875L751.6969 87.453125Q751.3063 87.21875 750.9313 87.21875Q750.5719 87.21875 750.29065 87.4375Q750.025 87.640625 749.91565 88.015625Q749.72815 88.578125 749.72815 89.234375L749.72815 92.5L748.6813 92.5ZM754.9938 91.5625L755.15 92.484375Q754.6969 92.578125 754.35315 92.578125Q753.775 92.578125 753.4625 92.40625Q753.15 92.21875 753.0094 91.921875Q752.8844 91.625 752.8844 90.671875L752.8844 87.09375L752.1188 87.09375L752.1188 86.28125L752.8844 86.28125L752.8844 84.734375L753.9313 84.109375L753.9313 86.28125L754.9938 86.28125L754.9938 87.09375L753.9313 87.09375L753.9313 90.734375Q753.9313 91.1875 753.97815 91.3125Q754.04065 91.4375 754.16565 91.515625Q754.29065 91.59375 754.525 91.59375Q754.7125 91.59375 754.9938 91.5625ZM755.6969 94.890625L755.6969 86.28125L756.65 86.28125L756.65 87.078125Q756.9938 86.609375 757.41565 86.375Q757.85315 86.140625 758.4625 86.140625Q759.2594 86.140625 759.8688 86.546875Q760.47815 86.953125 760.775 87.703125Q761.0875 88.453125 761.0875 89.34375Q761.0875 90.296875 760.7438 91.0625Q760.41565 91.828125 759.7594 92.234375Q759.10315 92.640625 758.3844 92.640625Q757.85315 92.640625 757.4313 92.421875Q757.0094 92.1875 756.7438 91.859375L756.7438 94.890625L755.6969 94.890625ZM756.65 89.421875Q756.65 90.625 757.1344 91.203125Q757.6188 91.765625 758.3063 91.765625Q759.0094 91.765625 759.5094 91.171875Q760.0094 90.578125 760.0094 89.328125Q760.0094 88.140625 759.525 87.5625Q759.04065 86.96875 758.35315 86.96875Q757.6813 86.96875 757.16565 87.59375Q756.65 88.21875 756.65 89.421875ZM762.6969 92.5L762.6969 83.90625L763.7438 83.90625L763.7438 86.984375Q764.47815 86.140625 765.60315 86.140625Q766.3063 86.140625 766.8063 86.421875Q767.3219 86.6875 767.54065 87.171875Q767.7594 87.640625 767.7594 88.5625L767.7594 92.5L766.7125 92.5L766.7125 88.5625Q766.7125 87.765625 766.3688 87.40625Q766.025 87.046875 765.4 87.046875Q764.9313 87.046875 764.5094 87.296875Q764.10315 87.53125 763.91565 87.953125Q763.7438 88.359375 763.7438 89.09375L763.7438 92.5L762.6969 92.5ZM769.3063 89.390625Q769.3063 87.65625 770.2594 86.828125Q771.0563 86.140625 772.2125 86.140625Q773.4938 86.140625 774.3063 86.984375Q775.1344 87.8125 775.1344 89.296875Q775.1344 90.5 774.775 91.1875Q774.41565 91.875 773.7125 92.265625Q773.025 92.640625 772.2125 92.640625Q770.91565 92.640625 770.10315 91.8125Q769.3063 90.96875 769.3063 89.390625ZM770.3844 89.390625Q770.3844 90.578125 770.9 91.171875Q771.4313 91.765625 772.2125 91.765625Q773.0094 91.765625 773.525 91.171875Q774.04065 90.578125 774.04065 89.359375Q774.04065 88.203125 773.5094 87.609375Q772.9938 87.015625 772.2125 87.015625Q771.4313 87.015625 770.9 87.609375Q770.3844 88.1875 770.3844 89.390625ZM776.6969 92.5L776.6969 86.28125L777.6344 86.28125L777.6344 87.15625Q778.3219 86.140625 779.6188 86.140625Q780.1813 86.140625 780.65 86.34375Q781.1344 86.546875 781.3688 86.875Q781.60315 87.203125 781.6969 87.640625Q781.7438 87.9375 781.7438 88.671875L781.7438 92.5L780.6969 92.5L780.6969 88.71875Q780.6969 88.0625 780.5719 87.75Q780.4469 87.4375 780.1344 87.25Q779.8219 87.046875 779.4 87.046875Q778.72815 87.046875 778.22815 87.484375Q777.7438 87.90625 777.7438 89.09375L777.7438 92.5L776.6969 92.5ZM787.9469 90.5L789.04065 90.625Q788.79065 91.578125 788.0875 92.109375Q787.3844 92.640625 786.3063 92.640625Q784.9469 92.640625 784.1344 91.796875Q783.3375 90.953125 783.3375 89.4375Q783.3375 87.875 784.15 87.015625Q784.9625 86.140625 786.2438 86.140625Q787.4938 86.140625 788.275 86.984375Q789.0719 87.828125 789.0719 89.375Q789.0719 89.46875 789.0719 89.65625L784.4313 89.65625Q784.4938 90.6875 785.0094 91.234375Q785.525 91.765625 786.3063 91.765625Q786.8844 91.765625 787.29065 91.46875Q787.7125 91.15625 787.9469 90.5ZM784.4938 88.796875L787.9625 88.796875Q787.9 88.0 787.5719 87.609375Q787.0563 87.0 786.2594 87.0Q785.525 87.0 785.025 87.484375Q784.54065 87.96875 784.4938 88.796875Z" fill-rule="nonzero"/><path fill="#f59e0b" d="M713.9 112.5C713.9 115.813705 711.2137 118.5 707.9 118.5C704.5863 118.5 701.9 115.813705 701.9 112.5C701.9 109.186295 704.5863 106.5 707.9 106.5C711.2137 106.5 713.9 109.186295 713.9 112.5Z" fill-rule="nonzero"/><path fill="#1a1a1a" d="M725.0094 116.5L725.0094 108.921875L722.1813 108.921875L722.1813 107.90625L728.9938 107.90625L728.9938 108.921875L726.15 108.921875L726.15 116.5L725.0094 116.5ZM733.7594 115.734375Q733.16565 116.234375 732.6188 116.4375Q732.0875 116.640625 731.4625 116.640625Q730.4313 116.640625 729.8844 116.140625Q729.3375 115.640625 729.3375 114.859375Q729.3375 114.40625 729.54065 114.03125Q729.7438 113.640625 730.0875 113.421875Q730.4313 113.1875 730.85315 113.078125Q731.15 112.984375 731.79065 112.90625Q733.0563 112.765625 733.66565 112.546875Q733.66565 112.328125 733.66565 112.28125Q733.66565 111.625 733.3688 111.359375Q732.9625 111.015625 732.16565 111.015625Q731.4313 111.015625 731.0719 111.28125Q730.7125 111.53125 730.54065 112.1875L729.5094 112.046875Q729.65 111.390625 729.97815 110.984375Q730.3063 110.578125 730.91565 110.359375Q731.525 110.140625 732.3219 110.140625Q733.1188 110.140625 733.6188 110.328125Q734.1188 110.515625 734.35315 110.796875Q734.5875 111.078125 734.6813 111.515625Q734.72815 111.78125 734.72815 112.484375L734.72815 113.890625Q734.72815 115.359375 734.79065 115.75Q734.8688 116.140625 735.0719 116.5L733.9625 116.5Q733.8063 116.171875 733.7594 115.734375ZM733.66565 113.375Q733.0875 113.609375 731.9469 113.78125Q731.29065 113.875 731.025 114.0Q730.7594 114.109375 730.60315 114.328125Q730.4625 114.546875 730.4625 114.828125Q730.4625 115.25 730.775 115.53125Q731.10315 115.8125 731.7125 115.8125Q732.3219 115.8125 732.79065 115.546875Q733.275 115.28125 733.4938 114.8125Q733.66565 114.453125 733.66565 113.765625L733.66565 113.375ZM737.66565 116.5L736.6813 116.5L736.6813 107.90625L737.7438 107.90625L737.7438 110.96875Q738.41565 110.140625 739.4469 110.140625Q740.025 110.140625 740.525 110.375Q741.04065 110.59375 741.3688 111.015625Q741.7125 111.4375 741.9 112.03125Q742.0875 112.625 742.0875 113.296875Q742.0875 114.890625 741.29065 115.765625Q740.4938 116.640625 739.4 116.640625Q738.29065 116.640625 737.66565 115.71875L737.66565 116.5ZM737.65 113.34375Q737.65 114.453125 737.9625 114.953125Q738.4625 115.765625 739.3063 115.765625Q739.9938 115.765625 740.4938 115.171875Q741.0094 114.578125 741.0094 113.375Q741.0094 112.15625 740.525 111.578125Q740.04065 111.0 739.35315 111.0Q738.66565 111.0 738.15 111.609375Q737.65 112.203125 737.65 113.34375ZM743.66565 116.5L743.66565 107.90625L744.72815 107.90625L744.72815 116.5L743.66565 116.5ZM750.9469 114.5L752.04065 114.625Q751.79065 115.578125 751.0875 116.109375Q750.3844 116.640625 749.3063 116.640625Q747.9469 116.640625 747.1344 115.796875Q746.3375 114.953125 746.3375 113.4375Q746.3375 111.875 747.15 111.015625Q747.9625 110.140625 749.2438 110.140625Q750.4938 110.140625 751.275 110.984375Q752.0719 111.828125 752.0719 113.375Q752.0719 113.46875 752.0719 113.65625L747.4313 113.65625Q747.4938 114.6875 748.0094 115.234375Q748.525 115.765625 749.3063 115.765625Q749.8844 115.765625 750.29065 115.46875Q750.7125 115.15625 750.9469 114.5ZM747.4938 112.796875L750.9625 112.796875Q750.9 112.0 750.5719 111.609375Q750.0563 111.0 749.2594 111.0Q748.525 111.0 748.025 111.484375Q747.54065 111.96875 747.4938 112.796875ZM755.9938 115.5625L756.15 116.484375Q755.6969 116.578125 755.35315 116.578125Q754.775 116.578125 754.4625 116.40625Q754.15 116.21875 754.0094 115.921875Q753.8844 115.625 753.8844 114.671875L753.8844 111.09375L753.1188 111.09375L753.1188 110.28125L753.8844 110.28125L753.8844 108.734375L754.9313 108.109375L754.9313 110.28125L755.9938 110.28125L755.9938 111.09375L754.9313 111.09375L754.9313 114.734375Q754.9313 115.1875 754.97815 115.3125Q755.04065 115.4375 755.16565 115.515625Q755.29065 115.59375 755.525 115.59375Q755.7125 115.59375 755.9938 115.5625Z" fill-rule="nonzero"/><path fill="#757575" d="M355.04688 39.1L355.04688 24.787498L359.96875 24.787498Q361.64062 24.787498 362.53125 24.990623Q363.75 25.271873 364.625 26.006248Q365.75 26.974998 366.3125 28.459373Q366.875 29.943748 366.875 31.865623Q366.875 33.490623 366.5 34.75625Q366.125 36.00625 365.51562 36.834373Q364.92188 37.6625 364.21875 38.146873Q363.51562 38.615623 362.51562 38.865623Q361.51562 39.1 360.20312 39.1L355.04688 39.1ZM356.9375 37.4125L360.0 37.4125Q361.40625 37.4125 362.20312 37.146873Q363.01562 36.88125 363.5 36.396873Q364.17188 35.725 364.54688 34.6Q364.92188 33.459373 364.92188 31.834373Q364.92188 29.584373 364.1875 28.381248Q363.45312 27.178123 362.39062 26.771873Q361.64062 26.474998 359.95312 26.474998L356.9375 26.474998L356.9375 37.4125ZM375.92188 35.75625L377.73438 35.990623Q377.3125 37.56875 376.14062 38.459373Q374.98438 39.334373 373.17188 39.334373Q370.90625 39.334373 369.5625 37.94375Q368.23438 36.5375 368.23438 34.00625Q368.23438 31.381248 369.57812 29.943748Q370.92188 28.490623 373.07812 28.490623Q375.15625 28.490623 376.46875 29.912498Q377.79688 31.318748 377.79688 33.896873Q377.79688 34.053123 377.78125 34.365623L370.04688 34.365623Q370.14062 36.06875 371.01562 36.975Q371.89062 37.88125 373.1875 37.88125Q374.15625 37.88125 374.82812 37.38125Q375.51562 36.865623 375.92188 35.75625ZM370.14062 32.9125L375.9375 32.9125Q375.82812 31.615623 375.28125 30.959373Q374.4375 29.943748 373.09375 29.943748Q371.89062 29.943748 371.0625 30.756248Q370.23438 31.553123 370.14062 32.9125ZM382.70312 39.1L378.75 28.724998L380.60938 28.724998L382.84375 34.94375Q383.20312 35.94375 383.5 37.021873Q383.73438 36.209373 384.15625 35.053123L386.45312 28.724998L388.26562 28.724998L384.34375 39.1L382.70312 39.1ZM388.82812 26.803123L388.82812 24.787498L390.59375 24.787498L390.59375 26.803123L388.82812 26.803123ZM388.82812 39.1L388.82812 28.724998L390.59375 28.724998L390.59375 39.1L388.82812 39.1ZM399.59375 35.303123L401.3125 35.521873Q401.03125 37.31875 399.85938 38.334373Q398.70312 39.334373 397.0 39.334373Q394.875 39.334373 393.57812 37.94375Q392.28125 36.553123 392.28125 33.959373Q392.28125 32.271873 392.82812 31.021873Q393.39062 29.756248 394.53125 29.131248Q395.67188 28.490623 397.01562 28.490623Q398.70312 28.490623 399.76562 29.349998Q400.84375 30.209373 401.15625 31.771873L399.4375 32.0375Q399.20312 30.990623 398.57812 30.474998Q397.95312 29.943748 397.07812 29.943748Q395.75 29.943748 394.92188 30.896873Q394.09375 31.849998 394.09375 33.896873Q394.09375 35.990623 394.89062 36.94375Q395.6875 37.88125 396.98438 37.88125Q398.01562 37.88125 398.70312 37.25625Q399.40625 36.615623 399.59375 35.303123ZM409.92188 35.75625L411.73438 35.990623Q411.3125 37.56875 410.14062 38.459373Q408.98438 39.334373 407.17188 39.334373Q404.90625 39.334373 403.5625 37.94375Q402.23438 36.5375 402.23438 34.00625Q402.23438 31.381248 403.57812 29.943748Q404.92188 28.490623 407.07812 28.490623Q409.15625 28.490623 410.46875 29.912498Q411.79688 31.318748 411.79688 33.896873Q411.79688 34.053123 411.78125 34.365623L404.04688 34.365623Q404.14062 36.06875 405.01562 36.975Q405.89062 37.88125 407.1875 37.88125Q408.15625 37.88125 408.82812 37.38125Q409.51562 36.865623 409.92188 35.75625ZM404.14062 32.9125L409.9375 32.9125Q409.82812 31.615623 409.28125 30.959373Q408.4375 29.943748 407.09375 29.943748Q405.89062 29.943748 405.0625 30.756248Q404.23438 31.553123 404.14062 32.9125ZM423.65625 37.521873L423.90625 39.084373Q423.17188 39.240623 422.57812 39.240623Q421.625 39.240623 421.09375 38.94375Q420.57812 38.63125 420.35938 38.146873Q420.14062 37.646873 420.14062 36.06875L420.14062 30.099998L418.85938 30.099998L418.85938 28.724998L420.14062 28.724998L420.14062 26.162498L421.89062 25.099998L421.89062 28.724998L423.65625 28.724998L423.65625 30.099998L421.89062 30.099998L421.89062 36.1625Q421.89062 36.9125 421.98438 37.13125Q422.07812 37.334373 422.28125 37.475Q422.5 37.6 422.89062 37.6Q423.17188 37.6 423.65625 37.521873ZM425.73438 43.1L425.54688 41.44375Q426.125 41.6 426.54688 41.6Q427.14062 41.6 427.48438 41.396873Q427.84375 41.209373 428.0625 40.865623Q428.23438 40.6 428.60938 39.553123Q428.65625 39.396873 428.76562 39.115623L424.82812 28.724998L426.71875 28.724998L428.875 34.740623Q429.29688 35.88125 429.625 37.13125Q429.9375 35.928123 430.34375 34.771873L432.5625 28.724998L434.32812 28.724998L430.375 39.271873Q429.75 40.990623 429.39062 41.63125Q428.92188 42.50625 428.3125 42.896873Q427.71875 43.303123 426.875 43.303123Q426.35938 43.303123 425.73438 43.1ZM435.8125 43.06875L435.8125 28.724998L437.42188 28.724998L437.42188 30.068748Q437.98438 29.287498 438.6875 28.896873Q439.40625 28.490623 440.42188 28.490623Q441.75 28.490623 442.76562 29.178123Q443.78125 29.865623 444.29688 31.115623Q444.82812 32.35 444.82812 33.834373Q444.82812 35.428123 444.25 36.709373Q443.6875 37.975 442.59375 38.6625Q441.5 39.334373 440.29688 39.334373Q439.42188 39.334373 438.71875 38.959373Q438.03125 38.584373 437.57812 38.021873L437.57812 43.06875L435.8125 43.06875ZM437.40625 33.975Q437.40625 35.975 438.21875 36.928123Q439.03125 37.88125 440.1875 37.88125Q441.35938 37.88125 442.1875 36.896873Q443.03125 35.9125 443.03125 33.81875Q443.03125 31.849998 442.20312 30.865623Q441.39062 29.865623 440.26562 29.865623Q439.14062 29.865623 438.26562 30.928123Q437.40625 31.974998 437.40625 33.975ZM453.92188 35.75625L455.73438 35.990623Q455.3125 37.56875 454.14062 38.459373Q452.98438 39.334373 451.17188 39.334373Q448.90625 39.334373 447.5625 37.94375Q446.23438 36.5375 446.23438 34.00625Q446.23438 31.381248 447.57812 29.943748Q448.92188 28.490623 451.07812 28.490623Q453.15625 28.490623 454.46875 29.912498Q455.79688 31.318748 455.79688 33.896873Q455.79688 34.053123 455.78125 34.365623L448.04688 34.365623Q448.14062 36.06875 449.01562 36.975Q449.89062 37.88125 451.1875 37.88125Q452.15625 37.88125 452.82812 37.38125Q453.51562 36.865623 453.92188 35.75625ZM448.14062 32.9125L453.9375 32.9125Q453.82812 31.615623 453.28125 30.959373Q452.4375 29.943748 451.09375 29.943748Q449.89062 29.943748 449.0625 30.756248Q448.23438 31.553123 448.14062 32.9125Z" fill-rule="nonzero"/></svg>