<svg version="1.1" viewBox="0.0 0.0 810.0 402.0" fill="none" stroke="none" stroke-linecap="square" stroke-miterlimit="10" width="810" height="402" xmlns:xlink="http://www.w3.org/1999/xlink" xmlns="http://www.w3.org/2000/svg"><path fill="#ffffff" d="M0 0L810.0 0L810.0 402.0L0 402.0L0 0Z" fill-rule="nonzero"/><path fill="#7baaf7" d="M333.40613 59.179417C341.1159 58.06126 348.89624 57.5 356.68668 57.5L356.68668 138.6C352.79144 138.6 348.9013 138.88063 345.04642 139.43971Z" fill-rule="nonzero"/><path fill="#b7b7b7" d="M324.77457 60.67026C327.63782 60.095703 330.51605 59.59857 333.40613 59.179417L345.04642 139.43971C343.60135 139.64929 342.16223 139.89786 340.73062 140.18513Z" fill-rule="nonzero"/><path fill="#d946ef" d="M313.41486 63.378567C317.1677 62.339733 320.95673 61.436382 324.77457 60.67026L340.73062 140.18513C338.8217 140.56819 336.9272 141.01987 335.05075 141.53928Z" fill-rule="nonzero"/><path fill="#84cc16" d="M296.814 68.95484C302.24316 66.79849 307.78485 64.93702 313.41486 63.378567L335.05075 141.53928C332.23578 142.31851 329.4649 143.24925 326.75034 144.32742Z" fill-rule="nonzero"/><path fill="#f59e0b" d="M245.39795 101.70144C260.31302 87.6345 277.75974 76.52277 296.814 68.95484L326.75034 144.32742C317.2232 148.11139 308.49985 153.66725 301.0423 160.70071Z" fill-rule="nonzero"/><path fill="#ef4444" d="M282.0943 368.94296C232.72821 346.7148 197.70714 301.32172 188.73279 247.93106C179.75845 194.54039 198.01419 140.1921 237.40013 103.04578L293.0445 162.04506C273.35153 180.61821 264.22366 207.79236 268.71082 234.4877C273.198 261.18304 290.70853 283.87958 315.39157 294.99365Z" fill-rule="nonzero"/><path fill="#3b82f6" d="M356.68668 57.5C422.88882 57.5 482.44702 97.73322 507.16083 159.14946C531.87463 220.56569 516.7835 290.83768 469.03305 336.69202C421.28262 382.54633 350.45712 394.7793 290.0921 367.59863L323.38937 293.64932C353.5719 307.23965 388.98465 301.12317 412.85986 278.196C436.73508 255.26883 444.28064 220.13284 431.92374 189.42473C419.56686 158.71661 389.78775 138.6 356.68668 138.6Z" fill-rule="nonzero"/><path fill="#000000" d="M457.45538 247.70833L459.36163 247.5052Q459.45538 248.16145 459.846 248.53645Q460.25226 248.91145 460.7835 248.91145Q461.37726 248.91145 461.79913 248.42708Q462.221 247.9427 462.221 246.95833Q462.221 246.03645 461.79913 245.58333Q461.39288 245.11458 460.721 245.11458Q459.89288 245.11458 459.23663 245.84895L457.68976 245.61458L458.67413 240.39583L463.75226 240.39583L463.75226 242.1927L460.12726 242.1927L459.83038 243.89583Q460.471 243.58333 461.14288 243.58333Q462.4085 243.58333 463.29913 244.52083Q464.18976 245.4427 464.18976 246.92708Q464.18976 248.16145 463.471 249.1302Q462.50226 250.45833 460.76788 250.45833Q459.37726 250.45833 458.50226 249.72395Q457.62726 248.97395 457.45538 247.70833ZM471.93976 242.72395L470.08038 242.92708Q470.00226 242.34895 469.70538 242.08333Q469.42413 241.80208 468.971 241.80208Q468.36163 241.80208 467.93976 242.34895Q467.51788 242.89583 467.4085 244.6302Q468.12726 243.77083 469.20538 243.77083Q470.4085 243.77083 471.25226 244.6927Q472.11163 245.61458 472.11163 247.05208Q472.11163 248.59895 471.20538 249.53645Q470.31476 250.45833 468.89288 250.45833Q467.37726 250.45833 466.39288 249.28645Q465.42413 248.09895 465.42413 245.41145Q465.42413 242.66145 466.43976 241.4427Q467.45538 240.22395 469.096 240.22395Q470.23663 240.22395 470.971 240.86458Q471.721 241.5052 471.93976 242.72395ZM467.58038 246.91145Q467.58038 247.84895 468.00226 248.36458Q468.43976 248.86458 468.98663 248.86458Q469.5335 248.86458 469.87726 248.45833Q470.23663 248.03645 470.23663 247.08333Q470.23663 246.09895 469.846 245.64583Q469.471 245.1927 468.89288 245.1927Q468.346 245.1927 467.95538 245.6302Q467.58038 246.0677 467.58038 246.91145ZM473.83038 250.28645L473.83038 248.36458L475.75226 248.36458L475.75226 250.28645L473.83038 250.28645ZM477.42413 242.1927L477.42413 240.39583L484.00226 240.39583L484.00226 241.80208Q483.17413 242.59895 482.33038 244.09895Q481.50226 245.58333 481.04913 247.27083Q480.61163 248.95833 480.62726 250.28645L478.76788 250.28645Q478.81476 248.20833 479.62726 246.05208Q480.43976 243.8802 481.79913 242.1927L477.42413 242.1927ZM485.43976 242.73958Q485.43976 241.39583 486.0335 240.7552Q486.62726 240.09895 487.62726 240.09895Q488.67413 240.09895 489.26788 240.73958Q489.86163 241.3802 489.86163 242.73958Q489.86163 244.08333 489.26788 244.73958Q488.67413 245.3802 487.67413 245.3802Q486.62726 245.3802 486.0335 244.73958Q485.43976 244.09895 485.43976 242.73958ZM486.93976 242.72395Q486.93976 243.70833 487.1585 244.03645Q487.33038 244.28645 487.62726 244.28645Q487.93976 244.28645 488.11163 244.03645Q488.33038 243.70833 488.33038 242.72395Q488.33038 241.7552 488.11163 241.42708Q487.93976 241.16145 487.62726 241.16145Q487.33038 241.16145 487.1585 241.41145Q486.93976 241.7552 486.93976 242.72395ZM489.096 250.67708L487.67413 250.67708L493.01788 240.09895L494.39288 240.09895L489.096 250.67708ZM492.20538 248.03645Q492.20538 246.6927 492.7835 246.05208Q493.37726 245.39583 494.4085 245.39583Q495.43976 245.39583 496.0335 246.05208Q496.62726 246.6927 496.62726 248.03645Q496.62726 249.39583 496.0335 250.05208Q495.43976 250.6927 494.42413 250.6927Q493.37726 250.6927 492.7835 250.05208Q492.20538 249.39583 492.20538 248.03645ZM493.68976 248.03645Q493.68976 249.0052 493.92413 249.33333Q494.096 249.58333 494.39288 249.58333Q494.70538 249.58333 494.86163 249.34895Q495.096 249.0052 495.096 248.03645Q495.096 247.05208 494.87726 246.72395Q494.70538 246.47395 494.39288 246.47395Q494.08038 246.47395 493.92413 246.72395Q493.68976 247.05208 493.68976 248.03645Z" fill-rule="nonzero"/><path fill="#000000" d="M209.46869 243.68497L211.32806 243.45059Q211.40619 244.16934 211.79681 244.54434Q212.18744 244.91934 212.74994 244.91934Q213.34369 244.91934 213.74994 244.46622Q214.15619 244.01309 214.15619 243.24747Q214.15619 242.52872 213.76556 242.10684Q213.37494 241.68497 212.81244 241.68497Q212.43744 241.68497 211.93744 241.82559L212.14056 240.26309Q212.92181 240.27872 213.32806 239.91934Q213.74994 239.55997 213.74994 238.96622Q213.74994 238.46622 213.43744 238.16934Q213.14056 237.85684 212.64056 237.85684Q212.15619 237.85684 211.79681 238.20059Q211.45306 238.54434 211.37494 239.20059L209.60931 238.90372Q209.79681 237.98184 210.15619 237.45059Q210.53119 236.90372 211.20306 236.59122Q211.87494 236.27872 212.70306 236.27872Q214.10931 236.27872 214.96869 237.18497Q215.67181 237.91934 215.67181 238.84122Q215.67181 240.16934 214.23431 240.95059Q215.09369 241.13809 215.60931 241.77872Q216.12494 242.41934 216.12494 243.32559Q216.12494 244.65372 215.15619 245.59122Q214.18744 246.51309 212.76556 246.51309Q211.40619 246.51309 210.49994 245.73184Q209.60931 244.95059 209.46869 243.68497ZM222.45306 246.34122L220.53119 246.34122L220.53119 239.10684Q219.46869 240.09122 218.04681 240.55997L218.04681 238.80997Q218.79681 238.57559 219.67181 237.88809Q220.56244 237.20059 220.89056 236.27872L222.45306 236.27872L222.45306 246.34122ZM225.93744 246.34122L225.93744 244.41934L227.85931 244.41934L227.85931 246.34122L225.93744 246.34122ZM236.01556 244.55997L236.01556 246.34122L229.28119 246.34122Q229.39056 245.32559 229.93744 244.41934Q230.48431 243.51309 232.10931 242.01309Q233.40619 240.80997 233.70306 240.37247Q234.09369 239.77872 234.09369 239.20059Q234.09369 238.55997 233.74994 238.21622Q233.40619 237.87247 232.79681 237.87247Q232.18744 237.87247 231.82806 238.23184Q231.48431 238.59122 231.42181 239.43497L229.51556 239.24747Q229.68744 237.65372 230.57806 236.96622Q231.48431 236.27872 232.84369 236.27872Q234.32806 236.27872 235.17181 237.07559Q236.01556 237.87247 236.01556 239.05997Q236.01556 239.74747 235.76556 240.35684Q235.53119 240.96622 235.01556 241.63809Q234.65619 242.07559 233.74994 242.91934Q232.84369 243.74747 232.59369 244.02872Q232.35931 244.29434 232.20306 244.55997L236.01556 244.55997ZM237.54681 238.79434Q237.54681 237.45059 238.14056 236.80997Q238.73431 236.15372 239.73431 236.15372Q240.78119 236.15372 241.37494 236.79434Q241.96869 237.43497 241.96869 238.79434Q241.96869 240.13809 241.37494 240.79434Q240.78119 241.43497 239.78119 241.43497Q238.73431 241.43497 238.14056 240.79434Q237.54681 240.15372 237.54681 238.79434ZM239.04681 238.77872Q239.04681 239.76309 239.26556 240.09122Q239.43744 240.34122 239.73431 240.34122Q240.04681 240.34122 240.21869 240.09122Q240.43744 239.76309 240.43744 238.77872Q240.43744 237.80997 240.21869 237.48184Q240.04681 237.21622 239.73431 237.21622Q239.43744 237.21622 239.26556 237.46622Q239.04681 237.80997 239.04681 238.77872ZM241.20306 246.73184L239.78119 246.73184L245.12494 236.15372L246.49994 236.15372L241.20306 246.73184ZM244.31244 244.09122Q244.31244 242.74747 244.89056 242.10684Q245.48431 241.45059 246.51556 241.45059Q247.54681 241.45059 248.14056 242.10684Q248.73431 242.74747 248.73431 244.09122Q248.73431 245.45059 248.14056 246.10684Q247.54681 246.74747 246.53119 246.74747Q245.48431 246.74747 244.89056 246.10684Q244.31244 245.45059 244.31244 244.09122ZM245.79681 244.09122Q245.79681 245.05997 246.03119 245.38809Q246.20306 245.63809 246.49994 245.63809Q246.81244 245.63809 246.96869 245.40372Q247.20306 245.05997 247.20306 244.09122Q247.20306 243.10684 246.98431 242.77872Q246.81244 242.52872 246.49994 242.52872Q246.18744 242.52872 246.03119 242.77872Q245.79681 243.10684 245.79681 244.09122Z" fill-rule="nonzero"/><path fill="#000000" d="M281.94104 112.1672L280.08167 112.37032Q280.00354 111.7922 279.70667 111.52657Q279.4254 111.24532 278.9723 111.24532Q278.3629 111.24532 277.94104 111.7922Q277.51917 112.33907 277.4098 114.07345Q278.12854 113.21407 279.20667 113.21407Q280.4098 113.21407 281.25354 114.13595Q282.1129 115.05782 282.1129 116.49532Q282.1129 118.0422 281.20667 118.9797Q280.31604 119.90157 278.89417 119.90157Q277.37854 119.90157 276.39417 118.7297Q275.4254 117.5422 275.4254 114.8547Q275.4254 112.1047 276.44104 110.88595Q277.45667 109.6672 279.0973 109.6672Q280.2379 109.6672 280.9723 110.30782Q281.7223 110.94845 281.94104 112.1672ZM277.58167 116.3547Q277.58167 117.2922 278.00354 117.80782Q278.44104 118.30782 278.9879 118.30782Q279.5348 118.30782 279.87854 117.90157Q280.2379 117.4797 280.2379 116.52657Q280.2379 115.5422 279.8473 115.08907Q279.4723 114.63595 278.89417 114.63595Q278.3473 114.63595 277.95667 115.07345Q277.58167 115.51095 277.58167 116.3547ZM283.83167 119.7297L283.83167 117.80782L285.75354 117.80782L285.75354 119.7297L283.83167 119.7297ZM290.6754 109.6672Q292.12854 109.6672 292.95667 110.69845Q293.9254 111.93282 293.9254 114.7922Q293.9254 117.63595 292.94104 118.87032Q292.12854 119.90157 290.6754 119.90157Q289.20667 119.90157 288.31604 118.77657Q287.4254 117.65157 287.4254 114.76095Q287.4254 111.93282 288.4098 110.69845Q289.2223 109.6672 290.6754 109.6672ZM290.6754 111.26095Q290.33167 111.26095 290.0504 111.4797Q289.7848 111.69845 289.62854 112.27657Q289.4254 113.02657 289.4254 114.7922Q289.4254 116.55782 289.5973 117.21407Q289.7848 117.87032 290.0504 118.08907Q290.33167 118.30782 290.6754 118.30782Q291.01917 118.30782 291.2848 118.08907Q291.56604 117.87032 291.7223 117.2922Q291.9254 116.55782 291.9254 114.7922Q291.9254 113.02657 291.7379 112.37032Q291.56604 111.69845 291.2848 111.4797Q291.01917 111.26095 290.6754 111.26095ZM295.44104 112.18282Q295.44104 110.83907 296.0348 110.19845Q296.62854 109.5422 297.62854 109.5422Q298.6754 109.5422 299.26917 110.18282Q299.8629 110.82345 299.8629 112.18282Q299.8629 113.52657 299.26917 114.18282Q298.6754 114.82345 297.6754 114.82345Q296.62854 114.82345 296.0348 114.18282Q295.44104 113.5422 295.44104 112.18282ZM296.94104 112.1672Q296.94104 113.15157 297.1598 113.4797Q297.33167 113.7297 297.62854 113.7297Q297.94104 113.7297 298.1129 113.4797Q298.33167 113.15157 298.33167 112.1672Q298.33167 111.19845 298.1129 110.87032Q297.94104 110.6047 297.62854 110.6047Q297.33167 110.6047 297.1598 110.8547Q296.94104 111.19845 296.94104 112.1672ZM299.0973 120.12032L297.6754 120.12032L303.01917 109.5422L304.39417 109.5422L299.0973 120.12032ZM302.20667 117.4797Q302.20667 116.13595 302.7848 115.49532Q303.37854 114.83907 304.4098 114.83907Q305.44104 114.83907 306.0348 115.49532Q306.62854 116.13595 306.62854 117.4797Q306.62854 118.83907 306.0348 119.49532Q305.44104 120.13595 304.4254 120.13595Q303.37854 120.13595 302.7848 119.49532Q302.20667 118.83907 302.20667 117.4797ZM303.69104 117.4797Q303.69104 118.44845 303.9254 118.77657Q304.0973 119.02657 304.39417 119.02657Q304.70667 119.02657 304.8629 118.7922Q305.0973 118.44845 305.0973 117.4797Q305.0973 116.49532 304.87854 116.1672Q304.70667 115.9172 304.39417 115.9172Q304.08167 115.9172 303.9254 116.1672Q303.69104 116.49532 303.69104 117.4797Z" fill-rule="nonzero"/><path fill="#3b82f6" d="M726.9 64.5C726.9 67.813705 724.2137 70.5 720.9 70.5C717.5863 70.5 714.9 67.813705 714.9 64.5C714.9 61.18629 717.5863 58.5 720.9 58.5C724.2137 58.5 726.9 61.18629 726.9 64.5Z" fill-rule="nonzero"/><path fill="#1a1a1a" d="M735.85315 68.5L735.85315 59.90625L742.0563 59.90625L742.0563 60.921875L736.9938 60.921875L736.9938 63.546875L741.7438 63.546875L741.7438 64.5625L736.9938 64.5625L736.9938 67.484375L742.2594 67.484375L742.2594 68.5L735.85315 68.5ZM743.6969 68.5L743.6969 62.28125L744.6344 62.28125L744.6344 63.15625Q745.3219 62.140625 746.6188 62.140625Q747.1813 62.140625 747.65 62.34375Q748.1344 62.546875 748.3688 62.875Q748.60315 63.203125 748.6969 63.640625Q748.7438 63.9375 748.7438 64.671875L748.7438 68.5L747.6969 68.5L747.6969 64.71875Q747.6969 64.0625 747.5719 63.75Q747.4469 63.4375 747.1344 63.25Q746.8219 63.046875 746.4 63.046875Q745.72815 63.046875 745.22815 63.484375Q744.7438 63.90625 744.7438 65.09375L744.7438 68.5L743.6969 68.5ZM750.4938 69.015625L751.525 69.171875Q751.5875 69.640625 751.8844 69.859375Q752.275 70.15625 752.9469 70.15625Q753.6813 70.15625 754.0719 69.859375Q754.47815 69.5625 754.6188 69.046875Q754.7125 68.71875 754.6969 67.6875Q754.0094 68.5 752.97815 68.5Q751.6969 68.5 750.9938 67.578125Q750.29065 66.640625 750.29065 65.359375Q750.29065 64.46875 750.60315 63.71875Q750.9313 62.953125 751.54065 62.546875Q752.15 62.140625 752.97815 62.140625Q754.0875 62.140625 754.8063 63.03125L754.8063 62.28125L755.775 62.28125L755.775 67.65625Q755.775 69.109375 755.47815 69.71875Q755.1813 70.328125 754.54065 70.671875Q753.9 71.03125 752.9625 71.03125Q751.85315 71.03125 751.16565 70.53125Q750.47815 70.03125 750.4938 69.015625ZM751.3688 65.28125Q751.3688 66.5 751.85315 67.0625Q752.3375 67.625 753.0719 67.625Q753.8063 67.625 754.29065 67.0625Q754.79065 66.5 754.79065 65.3125Q754.79065 64.171875 754.275 63.59375Q753.775 63.015625 753.0563 63.015625Q752.35315 63.015625 751.85315 63.59375Q751.3688 64.15625 751.3688 65.28125ZM757.66565 68.5L757.66565 59.90625L758.72815 59.90625L758.72815 68.5L757.66565 68.5ZM760.6969 61.125L760.6969 59.90625L761.7594 59.90625L761.7594 61.125L760.6969 61.125ZM760.6969 68.5L760.6969 62.28125L761.7594 62.28125L761.7594 68.5L760.6969 68.5ZM763.275 66.640625L764.3063 66.484375Q764.4 67.109375 764.79065 67.4375Q765.1969 67.765625 765.9313 67.765625Q766.65 67.765625 766.9938 67.484375Q767.35315 67.1875 767.35315 66.78125Q767.35315 66.421875 767.04065 66.21875Q766.8219 66.078125 765.9625 65.859375Q764.8063 65.5625 764.35315 65.359375Q763.91565 65.140625 763.6813 64.765625Q763.4469 64.390625 763.4469 63.921875Q763.4469 63.515625 763.6344 63.15625Q763.8219 62.796875 764.15 62.5625Q764.4 62.390625 764.8219 62.265625Q765.2438 62.140625 765.7438 62.140625Q766.4625 62.140625 767.0094 62.359375Q767.5719 62.5625 767.8375 62.921875Q768.10315 63.28125 768.1969 63.875L767.16565 64.015625Q767.10315 63.546875 766.7594 63.28125Q766.4313 63.0 765.8063 63.0Q765.0875 63.0 764.775 63.25Q764.4625 63.484375 764.4625 63.8125Q764.4625 64.015625 764.5875 64.171875Q764.72815 64.34375 764.9938 64.453125Q765.15 64.515625 765.9313 64.71875Q767.0563 65.03125 767.4938 65.21875Q767.9313 65.40625 768.1813 65.765625Q768.4313 66.125 768.4313 66.671875Q768.4313 67.203125 768.1188 67.671875Q767.8219 68.125 767.2438 68.390625Q766.66565 68.640625 765.9313 68.640625Q764.7125 68.640625 764.0719 68.140625Q763.4469 67.625 763.275 66.640625ZM770.6969 68.5L770.6969 59.90625L771.7438 59.90625L771.7438 62.984375Q772.47815 62.140625 773.60315 62.140625Q774.3063 62.140625 774.8063 62.421875Q775.3219 62.6875 775.54065 63.171875Q775.7594 63.640625 775.7594 64.5625L775.7594 68.5L774.7125 68.5L774.7125 64.5625Q774.7125 63.765625 774.3688 63.40625Q774.025 63.046875 773.4 63.046875Q772.9313 63.046875 772.5094 63.296875Q772.10315 63.53125 771.91565 63.953125Q771.7438 64.359375 771.7438 65.09375L771.7438 68.5L770.6969 68.5Z" fill-rule="nonzero"/><path fill="#ef4444" d="M726.9 88.5C726.9 91.813705 724.2137 94.5 720.9 94.5C717.5863 94.5 714.9 91.813705 714.9 88.5C714.9 85.186295 717.5863 82.5 720.9 82.5C724.2137 82.5 726.9 85.186295 726.9 88.5Z" fill-rule="nonzero"/><path fill="#1a1a1a" d="M739.85315 89.125L739.85315 88.125L743.47815 88.109375L743.47815 91.296875Q742.65 91.96875 741.7594 92.3125Q740.8688 92.640625 739.9313 92.640625Q738.66565 92.640625 737.6188 92.109375Q736.5875 91.5625 736.0563 90.546875Q735.54065 89.515625 735.54065 88.25Q735.54065 86.984375 736.0563 85.90625Q736.5875 84.8125 737.5719 84.296875Q738.5563 83.765625 739.8375 83.765625Q740.775 83.765625 741.525 84.0625Q742.275 84.359375 742.6969 84.90625Q743.1344 85.4375 743.35315 86.3125L742.3375 86.59375Q742.1344 85.9375 741.8375 85.5625Q741.5563 85.1875 741.025 84.96875Q740.4938 84.734375 739.85315 84.734375Q739.0719 84.734375 738.4938 84.96875Q737.9313 85.203125 737.5719 85.59375Q737.22815 85.984375 737.04065 86.453125Q736.7125 87.25 736.7125 88.171875Q736.7125 89.328125 737.10315 90.109375Q737.5094 90.875 738.2594 91.25Q739.0094 91.625 739.8688 91.625Q740.60315 91.625 741.3063 91.34375Q742.0094 91.046875 742.3688 90.734375L742.3688 89.125L739.85315 89.125ZM748.9469 90.5L750.04065 90.625Q749.79065 91.578125 749.0875 92.109375Q748.3844 92.640625 747.3063 92.640625Q745.9469 92.640625 745.1344 91.796875Q744.3375 90.953125 744.3375 89.4375Q744.3375 87.875 745.15 87.015625Q745.9625 86.140625 747.2438 86.140625Q748.4938 86.140625 749.275 86.984375Q750.0719 87.828125 750.0719 89.375Q750.0719 89.46875 750.0719 89.65625L745.4313 89.65625Q745.4938 90.6875 746.0094 91.234375Q746.525 91.765625 747.3063 91.765625Q747.8844 91.765625 748.29065 91.46875Q748.7125 91.15625 748.9469 90.5ZM745.4938 88.796875L748.9625 88.796875Q748.9 88.0 748.5719 87.609375Q748.0563 87.0 747.2594 87.0Q746.525 87.0 746.025 87.484375Q745.54065 87.96875 745.4938 88.796875ZM751.6813 92.5L751.6813 86.28125L752.6344 86.28125L752.6344 87.21875Q752.9938 86.5625 753.29065 86.359375Q753.60315 86.140625 753.97815 86.140625Q754.5094 86.140625 755.0563 86.46875L754.6969 87.453125Q754.3063 87.21875 753.9313 87.21875Q753.5719 87.21875 753.29065 87.4375Q753.025 87.640625 752.91565 88.015625Q752.72815 88.578125 752.72815 89.234375L752.72815 92.5L751.6813 92.5ZM755.6969 92.5L755.6969 86.28125L756.6344 86.28125L756.6344 87.15625Q756.9313 86.6875 757.41565 86.421875Q757.9 86.140625 758.525 86.140625Q759.2125 86.140625 759.65 86.421875Q760.10315 86.703125 760.275 87.21875Q761.025 86.140625 762.1969 86.140625Q763.1344 86.140625 763.6188 86.65625Q764.1188 87.15625 764.1188 88.234375L764.1188 92.5L763.0719 92.5L763.0719 88.578125Q763.0719 87.953125 762.9625 87.671875Q762.8688 87.390625 762.60315 87.21875Q762.3375 87.046875 761.9625 87.046875Q761.3063 87.046875 760.8688 87.484375Q760.4469 87.921875 760.4469 88.890625L760.4469 92.5L759.3844 92.5L759.3844 88.453125Q759.3844 87.75 759.1188 87.40625Q758.8688 87.046875 758.29065 87.046875Q757.8375 87.046875 757.4625 87.28125Q757.0875 87.515625 756.91565 87.96875Q756.7438 88.421875 756.7438 89.265625L756.7438 92.5L755.6969 92.5ZM770.7594 91.734375Q770.16565 92.234375 769.6188 92.4375Q769.0875 92.640625 768.4625 92.640625Q767.4313 92.640625 766.8844 92.140625Q766.3375 91.640625 766.3375 90.859375Q766.3375 90.40625 766.54065 90.03125Q766.7438 89.640625 767.0875 89.421875Q767.4313 89.1875 767.85315 89.078125Q768.15 88.984375 768.79065 88.90625Q770.0563 88.765625 770.66565 88.546875Q770.66565 88.328125 770.66565 88.28125Q770.66565 87.625 770.3688 87.359375Q769.9625 87.015625 769.16565 87.015625Q768.4313 87.015625 768.0719 87.28125Q767.7125 87.53125 767.54065 88.1875L766.5094 88.046875Q766.65 87.390625 766.97815 86.984375Q767.3063 86.578125 767.91565 86.359375Q768.525 86.140625 769.3219 86.140625Q770.1188 86.140625 770.6188 86.328125Q771.1188 86.515625 771.35315 86.796875Q771.5875 87.078125 771.6813 87.515625Q771.72815 87.78125 771.72815 88.484375L771.72815 89.890625Q771.72815 91.359375 771.79065 91.75Q771.8688 92.140625 772.0719 92.5L770.9625 92.5Q770.8063 92.171875 770.7594 91.734375ZM770.66565 89.375Q770.0875 89.609375 768.9469 89.78125Q768.29065 89.875 768.025 90.0Q767.7594 90.109375 767.60315 90.328125Q767.4625 90.546875 767.4625 90.828125Q767.4625 91.25 767.775 91.53125Q768.10315 91.8125 768.7125 91.8125Q769.3219 91.8125 769.79065 91.546875Q770.275 91.28125 770.4938 90.8125Q770.66565 90.453125 770.66565 89.765625L770.66565 89.375ZM773.6969 92.5L773.6969 86.28125L774.6344 86.28125L774.6344 87.15625Q775.3219 86.140625 776.6188 86.140625Q777.1813 86.140625 777.65 86.34375Q778.1344 86.546875 778.3688 86.875Q778.60315 87.203125 778.6969 87.640625Q778.7438 87.9375 778.7438 88.671875L778.7438 92.5L777.6969 92.5L777.6969 88.71875Q777.6969 88.0625 777.5719 87.75Q777.4469 87.4375 777.1344 87.25Q776.8219 87.046875 776.4 87.046875Q775.72815 87.046875 775.22815 87.484375Q774.7438 87.90625 774.7438 89.09375L774.7438 92.5L773.6969 92.5Z" fill-rule="nonzero"/><path fill="#f59e0b" d="M726.9 112.5C726.9 115.813705 724.2137 118.5 720.9 118.5C717.5863 118.5 714.9 115.813705 714.9 112.5C714.9 109.186295 717.5863 106.5 720.9 106.5C724.2137 106.5 726.9 109.186295 726.9 112.5Z" fill-rule="nonzero"/><path fill="#1a1a1a" d="M735.8375 116.5L735.8375 107.90625L739.65 107.90625Q740.8063 107.90625 741.4 108.140625Q741.9938 108.375 742.35315 108.96875Q742.7125 109.546875 742.7125 110.25Q742.7125 111.171875 742.1188 111.796875Q741.525 112.421875 740.29065 112.59375Q740.7438 112.8125 740.97815 113.015625Q741.47815 113.46875 741.91565 114.15625L743.41565 116.5L741.97815 116.5L740.85315 114.71875Q740.35315 113.9375 740.025 113.53125Q739.7125 113.125 739.4469 112.96875Q739.1969 112.796875 738.9313 112.71875Q738.7438 112.6875 738.3063 112.6875L736.97815 112.6875L736.97815 116.5L735.8375 116.5ZM736.97815 111.703125L739.4313 111.703125Q740.1969 111.703125 740.6344 111.546875Q741.0875 111.375 741.3063 111.03125Q741.54065 110.671875 741.54065 110.25Q741.54065 109.640625 741.0875 109.25Q740.65 108.859375 739.6969 108.859375L736.97815 108.859375L736.97815 111.703125ZM748.775 116.5L748.775 115.578125Q748.04065 116.640625 746.79065 116.640625Q746.2438 116.640625 745.7594 116.4375Q745.29065 116.21875 745.0563 115.90625Q744.8219 115.578125 744.72815 115.109375Q744.66565 114.8125 744.66565 114.125L744.66565 110.28125L745.72815 110.28125L745.72815 113.734375Q745.72815 114.546875 745.79065 114.84375Q745.8844 115.25 746.1969 115.5Q746.525 115.734375 747.0094 115.734375Q747.47815 115.734375 747.8844 115.5Q748.3063 115.25 748.47815 114.828125Q748.66565 114.40625 748.66565 113.609375L748.66565 110.28125L749.7125 110.28125L749.7125 116.5L748.775 116.5ZM751.275 114.640625L752.3063 114.484375Q752.4 115.109375 752.79065 115.4375Q753.1969 115.765625 753.9313 115.765625Q754.65 115.765625 754.9938 115.484375Q755.35315 115.1875 755.35315 114.78125Q755.35315 114.421875 755.04065 114.21875Q754.8219 114.078125 753.9625 113.859375Q752.8063 113.5625 752.35315 113.359375Q751.91565 113.140625 751.6813 112.765625Q751.4469 112.390625 751.4469 111.921875Q751.4469 111.515625 751.6344 111.15625Q751.8219 110.796875 752.15 110.5625Q752.4 110.390625 752.8219 110.265625Q753.2438 110.140625 753.7438 110.140625Q754.4625 110.140625 755.0094 110.359375Q755.5719 110.5625 755.8375 110.921875Q756.10315 111.28125 756.1969 111.875L755.16565 112.015625Q755.10315 111.546875 754.7594 111.28125Q754.4313 111.0 753.8063 111.0Q753.0875 111.0 752.775 111.25Q752.4625 111.484375 752.4625 111.8125Q752.4625 112.015625 752.5875 112.171875Q752.72815 112.34375 752.9938 112.453125Q753.15 112.515625 753.9313 112.71875Q755.0563 113.03125 755.4938 113.21875Q755.9313 113.40625 756.1813 113.765625Q756.4313 114.125 756.4313 114.671875Q756.4313 115.203125 756.1188 115.671875Q755.8219 116.125 755.2438 116.390625Q754.66565 116.640625 753.9313 116.640625Q752.7125 116.640625 752.0719 116.140625Q751.4469 115.625 751.275 114.640625ZM758.275 114.640625L759.3063 114.484375Q759.4 115.109375 759.79065 115.4375Q760.1969 115.765625 760.9313 115.765625Q761.65 115.765625 761.9938 115.484375Q762.35315 115.1875 762.35315 114.78125Q762.35315 114.421875 762.04065 114.21875Q761.8219 114.078125 760.9625 113.859375Q759.8063 113.5625 759.35315 113.359375Q758.91565 113.140625 758.6813 112.765625Q758.4469 112.390625 758.4469 111.921875Q758.4469 111.515625 758.6344 111.15625Q758.8219 110.796875 759.15 110.5625Q759.4 110.390625 759.8219 110.265625Q760.2438 110.140625 760.7438 110.140625Q761.4625 110.140625 762.0094 110.359375Q762.5719 110.5625 762.8375 110.921875Q763.10315 111.28125 763.1969 111.875L762.16565 112.015625Q762.10315 111.546875 761.7594 111.28125Q761.4313 111.0 760.8063 111.0Q760.0875 111.0 759.775 111.25Q759.4625 111.484375 759.4625 111.8125Q759.4625 112.015625 759.5875 112.171875Q759.72815 112.34375 759.9938 112.453125Q760.15 112.515625 760.9313 112.71875Q762.0563 113.03125 762.4938 113.21875Q762.9313 113.40625 763.1813 113.765625Q763.4313 114.125 763.4313 114.671875Q763.4313 115.203125 763.1188 115.671875Q762.8219 116.125 762.2438 116.390625Q761.66565 116.640625 760.9313 116.640625Q759.7125 116.640625 759.0719 116.140625Q758.4469 115.625 758.275 114.640625ZM765.6969 109.125L765.6969 107.90625L766.7594 107.90625L766.7594 109.125L765.6969 109.125ZM765.6969 116.5L765.6969 110.28125L766.7594 110.28125L766.7594 116.5L765.6969 116.5ZM772.7594 115.734375Q772.16565 116.234375 771.6188 116.4375Q771.0875 116.640625 770.4625 116.640625Q769.4313 116.640625 768.8844 116.140625Q768.3375 115.640625 768.3375 114.859375Q768.3375 114.40625 768.54065 114.03125Q768.7438 113.640625 769.0875 113.421875Q769.4313 113.1875 769.85315 113.078125Q770.15 112.984375 770.79065 112.90625Q772.0563 112.765625 772.66565 112.546875Q772.66565 112.328125 772.66565 112.28125Q772.66565 111.625 772.3688 111.359375Q771.9625 111.015625 771.16565 111.015625Q770.4313 111.015625 770.0719 111.28125Q769.7125 111.53125 769.54065 112.1875L768.5094 112.046875Q768.65 111.390625 768.97815 110.984375Q769.3063 110.578125 769.91565 110.359375Q770.525 110.140625 771.3219 110.140625Q772.1188 110.140625 772.6188 110.328125Q773.1188 110.515625 773.35315 110.796875Q773.5875 111.078125 773.6813 111.515625Q773.72815 111.78125 773.72815 112.484375L773.72815 113.890625Q773.72815 115.359375 773.79065 115.75Q773.8688 116.140625 774.0719 116.5L772.9625 116.5Q772.8063 116.171875 772.7594 115.734375ZM772.66565 113.375Q772.0875 113.609375 770.9469 113.78125Q770.29065 113.875 770.025 114.0Q769.7594 114.109375 769.60315 114.328125Q769.4625 114.546875 769.4625 114.828125Q769.4625 115.25 769.775 115.53125Q770.10315 115.8125 770.7125 115.8125Q771.3219 115.8125 771.79065 115.546875Q772.275 115.28125 772.4938 114.8125Q772.66565 114.453125 772.66565 113.765625L772.66565 113.375ZM775.6969 116.5L775.6969 110.28125L776.6344 110.28125L776.6344 111.15625Q777.3219 110.140625 778.6188 110.140625Q779.1813 110.140625 779.65 110.34375Q780.1344 110.546875 780.3688 110.875Q780.60315 111.203125 780.6969 111.640625Q780.7438 111.9375 780.7438 112.671875L780.7438 116.5L779.6969 116.5L779.6969 112.71875Q779.6969 112.0625 779.5719 111.75Q779.4469 111.4375 779.1344 111.25Q778.8219 111.046875 778.4 111.046875Q777.72815 111.046875 777.22815 111.484375Q776.7438 111.90625 776.7438 113.09375L776.7438 116.5L775.6969 116.5Z" fill-rule="nonzero"/><path fill="#84cc16" d="M726.9 136.5C726.9 139.8137 724.2137 142.5 720.9 142.5C717.5863 142.5 714.9 139.8137 714.9 136.5C714.9 133.1863 717.5863 130.5 720.9 130.5C724.2137 130.5 726.9 133.1863 726.9 136.5Z" fill-rule="nonzero"/><path fill="#1a1a1a" d="M735.2438 138.0625L736.275 137.92188Q736.3063 138.90625 736.6344 139.26562Q736.9625 139.625 737.5563 139.625Q737.97815 139.625 738.29065 139.4375Q738.60315 139.23438 738.7125 138.90625Q738.8375 138.5625 738.8375 137.82812L738.8375 131.90625L739.9625 131.90625L739.9625 137.76562Q739.9625 138.84375 739.6969 139.4375Q739.4469 140.03125 738.8844 140.34375Q738.3219 140.64062 737.5563 140.64062Q736.4313 140.64062 735.8219 140.0Q735.22815 139.34375 735.2438 138.0625ZM745.7594 139.73438Q745.16565 140.23438 744.6188 140.4375Q744.0875 140.64062 743.4625 140.64062Q742.4313 140.64062 741.8844 140.14062Q741.3375 139.64062 741.3375 138.85938Q741.3375 138.40625 741.54065 138.03125Q741.7438 137.64062 742.0875 137.42188Q742.4313 137.1875 742.85315 137.07812Q743.15 136.98438 743.79065 136.90625Q745.0563 136.76562 745.66565 136.54688Q745.66565 136.32812 745.66565 136.28125Q745.66565 135.625 745.3688 135.35938Q744.9625 135.01562 744.16565 135.01562Q743.4313 135.01562 743.0719 135.28125Q742.7125 135.53125 742.54065 136.1875L741.5094 136.04688Q741.65 135.39062 741.97815 134.98438Q742.3063 134.57812 742.91565 134.35938Q743.525 134.14062 744.3219 134.14062Q745.1188 134.14062 745.6188 134.32812Q746.1188 134.51562 746.35315 134.79688Q746.5875 135.07812 746.6813 135.51562Q746.72815 135.78125 746.72815 136.48438L746.72815 137.89062Q746.72815 139.35938 746.79065 139.75Q746.8688 140.14062 747.0719 140.5L745.9625 140.5Q745.8063 140.17188 745.7594 139.73438ZM745.66565 137.375Q745.0875 137.60938 743.9469 137.78125Q743.29065 137.875 743.025 138.0Q742.7594 138.10938 742.60315 138.32812Q742.4625 138.54688 742.4625 138.82812Q742.4625 139.25 742.775 139.53125Q743.10315 139.8125 743.7125 139.8125Q744.3219 139.8125 744.79065 139.54688Q745.275 139.28125 745.4938 138.8125Q745.66565 138.45312 745.66565 137.76562L745.66565 137.375ZM748.6969 142.89062L748.6969 134.28125L749.65 134.28125L749.65 135.07812Q749.9938 134.60938 750.41565 134.375Q750.85315 134.14062 751.4625 134.14062Q752.2594 134.14062 752.8688 134.54688Q753.47815 134.95312 753.775 135.70312Q754.0875 136.45312 754.0875 137.34375Q754.0875 138.29688 753.7438 139.0625Q753.41565 139.82812 752.7594 140.23438Q752.10315 140.64062 751.3844 140.64062Q750.85315 140.64062 750.4313 140.42188Q750.0094 140.1875 749.7438 139.85938L749.7438 142.89062L748.6969 142.89062ZM749.65 137.42188Q749.65 138.625 750.1344 139.20312Q750.6188 139.76562 751.3063 139.76562Q752.0094 139.76562 752.5094 139.17188Q753.0094 138.57812 753.0094 137.32812Q753.0094 136.14062 752.525 135.5625Q752.04065 134.96875 751.35315 134.96875Q750.6813 134.96875 750.16565 135.59375Q749.65 136.21875 749.65 137.42188ZM759.7594 139.73438Q759.16565 140.23438 758.6188 140.4375Q758.0875 140.64062 757.4625 140.64062Q756.4313 140.64062 755.8844 140.14062Q755.3375 139.64062 755.3375 138.85938Q755.3375 138.40625 755.54065 138.03125Q755.7438 137.64062 756.0875 137.42188Q756.4313 137.1875 756.85315 137.07812Q757.15 136.98438 757.79065 136.90625Q759.0563 136.76562 759.66565 136.54688Q759.66565 136.32812 759.66565 136.28125Q759.66565 135.625 759.3688 135.35938Q758.9625 135.01562 758.16565 135.01562Q757.4313 135.01562 757.0719 135.28125Q756.7125 135.53125 756.54065 136.1875L755.5094 136.04688Q755.65 135.39062 755.97815 134.98438Q756.3063 134.57812 756.91565 134.35938Q757.525 134.14062 758.3219 134.14062Q759.1188 134.14062 759.6188 134.32812Q760.1188 134.51562 760.35315 134.79688Q760.5875 135.07812 760.6813 135.51562Q760.72815 135.78125 760.72815 136.48438L760.72815 137.89062Q760.72815 139.35938 760.79065 139.75Q760.8688 140.14062 761.0719 140.5L759.9625 140.5Q759.8063 140.17188 759.7594 139.73438ZM759.66565 137.375Q759.0875 137.60938 757.9469 137.78125Q757.29065 137.875 757.025 138.0Q756.7594 138.10938 756.60315 138.32812Q756.4625 138.54688 756.4625 138.82812Q756.4625 139.25 756.775 139.53125Q757.10315 139.8125 757.7125 139.8125Q758.3219 139.8125 758.79065 139.54688Q759.275 139.28125 759.4938 138.8125Q759.66565 138.45312 759.66565 137.76562L759.66565 137.375ZM762.6969 140.5L762.6969 134.28125L763.6344 134.28125L763.6344 135.15625Q764.3219 134.14062 765.6188 134.14062Q766.1813 134.14062 766.65 134.34375Q767.1344 134.54688 767.3688 134.875Q767.60315 135.20312 767.6969 135.64062Q767.7438 135.9375 767.7438 136.67188L767.7438 140.5L766.6969 140.5L766.6969 136.71875Q766.6969 136.0625 766.5719 135.75Q766.4469 135.4375 766.1344 135.25Q765.8219 135.04688 765.4 135.04688Q764.72815 135.04688 764.22815 135.48438Q763.7438 135.90625 763.7438 137.09375L763.7438 140.5L762.6969 140.5ZM773.9469 138.5L775.04065 138.625Q774.79065 139.57812 774.0875 140.10938Q773.3844 140.64062 772.3063 140.64062Q770.9469 140.64062 770.1344 139.79688Q769.3375 138.95312 769.3375 137.4375Q769.3375 135.875 770.15 135.01562Q770.9625 134.14062 772.2438 134.14062Q773.4938 134.14062 774.275 134.98438Q775.0719 135.82812 775.0719 137.375Q775.0719 137.46875 775.0719 137.65625L770.4313 137.65625Q770.4938 138.6875 771.0094 139.23438Q771.525 139.76562 772.3063 139.76562Q772.8844 139.76562 773.29065 139.46875Q773.7125 139.15625 773.9469 138.5ZM770.4938 136.79688L773.9625 136.79688Q773.9 136.0 773.5719 135.60938Q773.0563 135.0 772.2594 135.0Q771.525 135.0 771.025 135.48438Q770.54065 135.96875 770.4938 136.79688ZM776.275 138.64062L777.3063 138.48438Q777.4 139.10938 777.79065 139.4375Q778.1969 139.76562 778.9313 139.76562Q779.65 139.76562 779.9938 139.48438Q780.35315 139.1875 780.35315 138.78125Q780.35315 138.42188 780.04065 138.21875Q779.8219 138.07812 778.9625 137.85938Q777.8063 137.5625 777.35315 137.35938Q776.91565 137.14062 776.6813 136.76562Q776.4469 136.39062 776.4469 135.92188Q776.4469 135.51562 776.6344 135.15625Q776.8219 134.79688 777.15 134.5625Q777.4 134.39062 777.8219 134.26562Q778.2438 134.14062 778.7438 134.14062Q779.4625 134.14062 780.0094 134.35938Q780.5719 134.5625 780.8375 134.92188Q781.10315 135.28125 781.1969 135.875L780.16565 136.01562Q780.10315 135.54688 779.7594 135.28125Q779.4313 135.0 778.8063 135.0Q778.0875 135.0 777.775 135.25Q777.4625 135.48438 777.4625 135.8125Q777.4625 136.01562 777.5875 136.17188Q777.72815 136.34375 777.9938 136.45312Q778.15 136.51562 778.9313 136.71875Q780.0563 137.03125 780.4938 137.21875Q780.9313 137.40625 781.1813 137.76562Q781.4313 138.125 781.4313 138.67188Q781.4313 139.20312 781.1188 139.67188Q780.8219 140.125 780.2438 140.39062Q779.66565 140.64062 778.9313 140.64062Q777.7125 140.64062 777.0719 140.14062Q776.4469 139.625 776.275 138.64062ZM787.9469 138.5L789.04065 138.625Q788.79065 139.57812 788.0875 140.10938Q787.3844 140.64062 786.3063 140.64062Q784.9469 140.64062 784.1344 139.79688Q783.3375 138.95312 783.3375 137.4375Q783.3375 135.875 784.15 135.01562Q784.9625 134.14062 786.2438 134.14062Q787.4938 134.14062 788.275 134.98438Q789.0719 135.82812 789.0719 137.375Q789.0719 137.46875 789.0719 137.65625L784.4313 137.65625Q784.4938 138.6875 785.0094 139.23438Q785.525 139.76562 786.3063 139.76562Q786.8844 139.76562 787.29065 139.46875Q787.7125 139.15625 787.9469 138.5ZM784.4938 136.79688L787.9625 136.79688Q787.9 136.0 787.5719 135.60938Q787.0563 135.0 786.2594 135.0Q785.525 135.0 785.025 135.48438Q784.54065 135.96875 784.4938 136.79688Z" fill-rule="nonzero"/><path fill="#d946ef" d="M726.9 160.5C726.9 163.8137 724.2137 166.5 720.9 166.5C717.5863 166.5 714.9 163.8137 714.9 160.5C714.9 157.1863 717.5863 154.5 720.9 154.5C724.2137 154.5 726.9 157.1863 726.9 160.5Z" fill-rule="nonzero"/><path fill="#1a1a1a" d="M735.8219 164.5L735.8219 155.90625L738.79065 155.90625Q739.79065 155.90625 740.3219 156.03125Q741.0563 156.20312 741.5719 156.64062Q742.2594 157.21875 742.5875 158.125Q742.9313 159.01562 742.9313 160.15625Q742.9313 161.14062 742.6969 161.89062Q742.47815 162.64062 742.1188 163.14062Q741.7594 163.64062 741.3219 163.92188Q740.9 164.20312 740.3063 164.35938Q739.7125 164.5 738.9313 164.5L735.8219 164.5ZM736.9625 163.48438L738.79065 163.48438Q739.65 163.48438 740.1344 163.32812Q740.6188 163.17188 740.9 162.875Q741.3063 162.48438 741.525 161.79688Q741.7594 161.10938 741.7594 160.14062Q741.7594 158.79688 741.3063 158.07812Q740.8688 157.34375 740.2438 157.09375Q739.775 156.92188 738.775 156.92188L736.9625 156.92188L736.9625 163.48438ZM748.775 164.5L748.775 163.57812Q748.04065 164.64062 746.79065 164.64062Q746.2438 164.64062 745.7594 164.4375Q745.29065 164.21875 745.0563 163.90625Q744.8219 163.57812 744.72815 163.10938Q744.66565 162.8125 744.66565 162.125L744.66565 158.28125L745.72815 158.28125L745.72815 161.73438Q745.72815 162.54688 745.79065 162.84375Q745.8844 163.25 746.1969 163.5Q746.525 163.73438 747.0094 163.73438Q747.47815 163.73438 747.8844 163.5Q748.3063 163.25 748.47815 162.82812Q748.66565 162.40625 748.66565 161.60938L748.66565 158.28125L749.7125 158.28125L749.7125 164.5L748.775 164.5ZM753.9938 163.5625L754.15 164.48438Q753.6969 164.57812 753.35315 164.57812Q752.775 164.57812 752.4625 164.40625Q752.15 164.21875 752.0094 163.92188Q751.8844 163.625 751.8844 162.67188L751.8844 159.09375L751.1188 159.09375L751.1188 158.28125L751.8844 158.28125L751.8844 156.73438L752.9313 156.10938L752.9313 158.28125L753.9938 158.28125L753.9938 159.09375L752.9313 159.09375L752.9313 162.73438Q752.9313 163.1875 752.97815 163.3125Q753.04065 163.4375 753.16565 163.51562Q753.29065 163.59375 753.525 163.59375Q753.7125 163.59375 753.9938 163.5625ZM758.7594 162.21875L759.79065 162.35938Q759.6188 163.42188 758.91565 164.03125Q758.2125 164.64062 757.1969 164.64062Q755.91565 164.64062 755.1344 163.8125Q754.3688 162.96875 754.3688 161.40625Q754.3688 160.40625 754.6969 159.65625Q755.04065 158.89062 755.7125 158.51562Q756.4 158.14062 757.2125 158.14062Q758.2125 158.14062 758.85315 158.65625Q759.5094 159.15625 759.6969 160.10938L758.66565 160.26562Q758.525 159.64062 758.15 159.32812Q757.775 159.0 757.2438 159.0Q756.4469 159.0 755.9469 159.57812Q755.4469 160.14062 755.4469 161.375Q755.4469 162.64062 755.9313 163.20312Q756.41565 163.76562 757.1813 163.76562Q757.8063 163.76562 758.2125 163.39062Q758.6344 163.01562 758.7594 162.21875ZM760.6969 164.5L760.6969 155.90625L761.7438 155.90625L761.7438 158.98438Q762.47815 158.14062 763.60315 158.14062Q764.3063 158.14062 764.8063 158.42188Q765.3219 158.6875 765.54065 159.17188Q765.7594 159.64062 765.7594 160.5625L765.7594 164.5L764.7125 164.5L764.7125 160.5625Q764.7125 159.76562 764.3688 159.40625Q764.025 159.04688 763.4 159.04688Q762.9313 159.04688 762.5094 159.29688Q762.10315 159.53125 761.91565 159.95312Q761.7438 160.35938 761.7438 161.09375L761.7438 164.5L760.6969 164.5Z" fill-rule="nonzero"/><path fill="#b7b7b7" d="M726.9 184.5C726.9 187.8137 724.2137 190.5 720.9 190.5C717.5863 190.5 714.9 187.8137 714.9 184.5C714.9 181.1863 717.5863 178.5 720.9 178.5C724.2137 178.5 726.9 181.1863 726.9 184.5Z" fill-rule="nonzero"/><path fill="#1a1a1a" d="M741.9625 185.48438L743.0875 185.78125Q742.72815 187.17188 741.8063 187.90625Q740.8844 188.64062 739.54065 188.64062Q738.15 188.64062 737.275 188.07812Q736.4 187.51562 735.9469 186.45312Q735.4938 185.375 735.4938 184.14062Q735.4938 182.79688 736.0094 181.79688Q736.525 180.79688 737.4625 180.28125Q738.41565 179.76562 739.5563 179.76562Q740.8375 179.76562 741.7125 180.42188Q742.60315 181.07812 742.9469 182.26562L741.8219 182.53125Q741.525 181.59375 740.9469 181.17188Q740.3844 180.73438 739.525 180.73438Q738.54065 180.73438 737.8688 181.21875Q737.2125 181.6875 736.9313 182.48438Q736.66565 183.28125 736.66565 184.14062Q736.66565 185.23438 736.97815 186.04688Q737.3063 186.85938 737.97815 187.26562Q738.65 187.67188 739.4469 187.67188Q740.4 187.67188 741.0563 187.125Q741.72815 186.57812 741.9625 185.48438ZM744.6969 188.5L744.6969 179.90625L745.7438 179.90625L745.7438 182.98438Q746.47815 182.14062 747.60315 182.14062Q748.3063 182.14062 748.8063 182.42188Q749.3219 182.6875 749.54065 183.17188Q749.7594 183.64062 749.7594 184.5625L749.7594 188.5L748.7125 188.5L748.7125 184.5625Q748.7125 183.76562 748.3688 183.40625Q748.025 183.04688 747.4 183.04688Q746.9313 183.04688 746.5094 183.29688Q746.10315 183.53125 745.91565 183.95312Q745.7438 184.35938 745.7438 185.09375L745.7438 188.5L744.6969 188.5ZM751.6969 181.125L751.6969 179.90625L752.7594 179.90625L752.7594 181.125L751.6969 181.125ZM751.6969 188.5L751.6969 182.28125L752.7594 182.28125L752.7594 188.5L751.6969 188.5ZM754.6969 188.5L754.6969 182.28125L755.6344 182.28125L755.6344 183.15625Q756.3219 182.14062 757.6188 182.14062Q758.1813 182.14062 758.65 182.34375Q759.1344 182.54688 759.3688 182.875Q759.60315 183.20312 759.6969 183.64062Q759.7438 183.9375 759.7438 184.67188L759.7438 188.5L758.6969 188.5L758.6969 184.71875Q758.6969 184.0625 758.5719 183.75Q758.4469 183.4375 758.1344 183.25Q757.8219 183.04688 757.4 183.04688Q756.72815 183.04688 756.22815 183.48438Q755.7438 183.90625 755.7438 185.09375L755.7438 188.5L754.6969 188.5ZM765.9469 186.5L767.04065 186.625Q766.79065 187.57812 766.0875 188.10938Q765.3844 188.64062 764.3063 188.64062Q762.9469 188.64062 762.1344 187.79688Q761.3375 186.95312 761.3375 185.4375Q761.3375 183.875 762.15 183.01562Q762.9625 182.14062 764.2438 182.14062Q765.4938 182.14062 766.275 182.98438Q767.0719 183.82812 767.0719 185.375Q767.0719 185.46875 767.0719 185.65625L762.4313 185.65625Q762.4938 186.6875 763.0094 187.23438Q763.525 187.76562 764.3063 187.76562Q764.8844 187.76562 765.29065 187.46875Q765.7125 187.15625 765.9469 186.5ZM762.4938 184.79688L765.9625 184.79688Q765.9 184.0 765.5719 183.60938Q765.0563 183.0 764.2594 183.0Q763.525 183.0 763.025 183.48438Q762.54065 183.96875 762.4938 184.79688ZM768.275 186.64062L769.3063 186.48438Q769.4 187.10938 769.79065 187.4375Q770.1969 187.76562 770.9313 187.76562Q771.65 187.76562 771.9938 187.48438Q772.35315 187.1875 772.35315 186.78125Q772.35315 186.42188 772.04065 186.21875Q771.8219 186.07812 770.9625 185.85938Q769.8063 185.5625 769.35315 185.35938Q768.91565 185.14062 768.6813 184.76562Q768.4469 184.39062 768.4469 183.92188Q768.4469 183.51562 768.6344 183.15625Q768.8219 182.79688 769.15 182.5625Q769.4 182.39062 769.8219 182.26562Q770.2438 182.14062 770.7438 182.14062Q771.4625 182.14062 772.0094 182.35938Q772.5719 182.5625 772.8375 182.92188Q773.10315 183.28125 773.1969 183.875L772.16565 184.01562Q772.10315 183.54688 771.7594 183.28125Q771.4313 183.0 770.8063 183.0Q770.0875 183.0 769.775 183.25Q769.4625 183.48438 769.4625 183.8125Q769.4625 184.01562 769.5875 184.17188Q769.72815 184.34375 769.9938 184.45312Q770.15 184.51562 770.9313 184.71875Q772.0563 185.03125 772.4938 185.21875Q772.9313 185.40625 773.1813 185.76562Q773.4313 186.125 773.4313 186.67188Q773.4313 187.20312 773.1188 187.67188Q772.8219 188.125 772.2438 188.39062Q771.66565 188.64062 770.9313 188.64062Q769.7125 188.64062 769.0719 188.14062Q768.4469 187.625 768.275 186.64062ZM779.9469 186.5L781.04065 186.625Q780.79065 187.57812 780.0875 188.10938Q779.3844 188.64062 778.3063 188.64062Q776.9469 188.64062 776.1344 187.79688Q775.3375 186.95312 775.3375 185.4375Q775.3375 183.875 776.15 183.01562Q776.9625 182.14062 778.2438 182.14062Q779.4938 182.14062 780.275 182.98438Q781.0719 183.82812 781.0719 185.375Q781.0719 185.46875 781.0719 185.65625L776.4313 185.65625Q776.4938 186.6875 777.0094 187.23438Q777.525 187.76562 778.3063 187.76562Q778.8844 187.76562 779.29065 187.46875Q779.7125 187.15625 779.9469 186.5ZM776.4938 184.79688L779.9625 184.79688Q779.9 184.0 779.5719 183.60938Q779.0563 183.0 778.2594 183.0Q777.525 183.0 777.025 183.48438Q776.54065 183.96875 776.4938 184.79688Z" fill-rule="nonzero"/><path fill="#7baaf7" d="M726.9 208.5C726.9 211.8137 724.2137 214.5 720.9 214.5C717.5863 214.5 714.9 211.8137 714.9 208.5C714.9 205.1863 717.5863 202.5 720.9 202.5C724.2137 202.5 726.9 205.1863 726.9 208.5Z" fill-rule="nonzero"/><path fill="#1a1a1a" d="M735.47815 208.3125Q735.47815 206.17188 736.6188 204.96875Q737.775 203.75 739.5875 203.75Q740.79065 203.75 741.7438 204.32812Q742.6969 204.89062 743.1969 205.90625Q743.6969 206.92188 743.6969 208.21875Q743.6969 209.51562 743.16565 210.54688Q742.6344 211.57812 741.66565 212.10938Q740.7125 212.64062 739.5875 212.64062Q738.3688 212.64062 737.41565 212.0625Q736.4625 211.46875 735.9625 210.46875Q735.47815 209.45312 735.47815 208.3125ZM736.65 208.32812Q736.65 209.89062 737.47815 210.78125Q738.3219 211.67188 739.5875 211.67188Q740.8688 211.67188 741.6969 210.78125Q742.525 209.875 742.525 208.20312Q742.525 207.15625 742.16565 206.375Q741.8219 205.59375 741.1344 205.17188Q740.4469 204.73438 739.60315 204.73438Q738.4 204.73438 737.525 205.5625Q736.65 206.39062 736.65 208.32812ZM746.9938 211.5625L747.15 212.48438Q746.6969 212.57812 746.35315 212.57812Q745.775 212.57812 745.4625 212.40625Q745.15 212.21875 745.0094 211.92188Q744.8844 211.625 744.8844 210.67188L744.8844 207.09375L744.1188 207.09375L744.1188 206.28125L744.8844 206.28125L744.8844 204.73438L745.9313 204.10938L745.9313 206.28125L746.9938 206.28125L746.9938 207.09375L745.9313 207.09375L745.9313 210.73438Q745.9313 211.1875 745.97815 211.3125Q746.04065 211.4375 746.16565 211.51562Q746.29065 211.59375 746.525 211.59375Q746.7125 211.59375 746.9938 211.5625ZM747.6969 212.5L747.6969 203.90625L748.7438 203.90625L748.7438 206.98438Q749.47815 206.14062 750.60315 206.14062Q751.3063 206.14062 751.8063 206.42188Q752.3219 206.6875 752.54065 207.17188Q752.7594 207.64062 752.7594 208.5625L752.7594 212.5L751.7125 212.5L751.7125 208.5625Q751.7125 207.76562 751.3688 207.40625Q751.025 207.04688 750.4 207.04688Q749.9313 207.04688 749.5094 207.29688Q749.10315 207.53125 748.91565 207.95312Q748.7438 208.35938 748.7438 209.09375L748.7438 212.5L747.6969 212.5ZM758.9469 210.5L760.04065 210.625Q759.79065 211.57812 759.0875 212.10938Q758.3844 212.64062 757.3063 212.64062Q755.9469 212.64062 755.1344 211.79688Q754.3375 210.95312 754.3375 209.4375Q754.3375 207.875 755.15 207.01562Q755.9625 206.14062 757.2438 206.14062Q758.4938 206.14062 759.275 206.98438Q760.0719 207.82812 760.0719 209.375Q760.0719 209.46875 760.0719 209.65625L755.4313 209.65625Q755.4938 210.6875 756.0094 211.23438Q756.525 211.76562 757.3063 211.76562Q757.8844 211.76562 758.29065 211.46875Q758.7125 211.15625 758.9469 210.5ZM755.4938 208.79688L758.9625 208.79688Q758.9 208.0 758.5719 207.60938Q758.0563 207.0 757.2594 207.0Q756.525 207.0 756.025 207.48438Q755.54065 207.96875 755.4938 208.79688ZM761.6813 212.5L761.6813 206.28125L762.6344 206.28125L762.6344 207.21875Q762.9938 206.5625 763.29065 206.35938Q763.60315 206.14062 763.97815 206.14062Q764.5094 206.14062 765.0563 206.46875L764.6969 207.45312Q764.3063 207.21875 763.9313 207.21875Q763.5719 207.21875 763.29065 207.4375Q763.025 207.64062 762.91565 208.01562Q762.72815 208.57812 762.72815 209.23438L762.72815 212.5L761.6813 212.5Z" fill-rule="nonzero"/><path fill="#757575" d="M326.96875 39.1L326.96875 24.787498L332.34375 24.787498Q333.98438 24.787498 334.96875 25.224998Q335.95312 25.646873 336.51562 26.553123Q337.07812 27.459373 337.07812 28.443748Q337.07812 29.365623 336.57812 30.178123Q336.09375 30.990623 335.07812 31.474998Q336.375 31.865623 337.07812 32.7875Q337.78125 33.69375 337.78125 34.94375Q337.78125 35.959373 337.34375 36.81875Q336.92188 37.678123 336.29688 38.146873Q335.67188 38.615623 334.73438 38.865623Q333.79688 39.1 332.42188 39.1L326.96875 39.1ZM328.85938 30.803123L331.95312 30.803123Q333.21875 30.803123 333.76562 30.631248Q334.48438 30.412498 334.84375 29.928123Q335.21875 29.428123 335.21875 28.662498Q335.21875 27.959373 334.875 27.412498Q334.53125 26.865623 333.89062 26.678123Q333.26562 26.474998 331.71875 26.474998L328.85938 26.474998L328.85938 30.803123ZM328.85938 37.4125L332.42188 37.4125Q333.34375 37.4125 333.71875 37.334373Q334.375 37.225 334.8125 36.959373Q335.25 36.678123 335.53125 36.1625Q335.8125 35.63125 335.8125 34.94375Q335.8125 34.146873 335.40625 33.553123Q335.0 32.959373 334.26562 32.725Q333.53125 32.490623 332.17188 32.490623L328.85938 32.490623L328.85938 37.4125ZM339.79688 39.1L339.79688 28.724998L341.375 28.724998L341.375 30.303123Q341.98438 29.193748 342.5 28.849998Q343.01562 28.490623 343.625 28.490623Q344.51562 28.490623 345.4375 29.053123L344.82812 30.693748Q344.1875 30.303123 343.54688 30.303123Q342.96875 30.303123 342.5 30.662498Q342.04688 31.006248 341.84375 31.615623Q341.5625 32.553123 341.5625 33.6625L341.5625 39.1L339.79688 39.1ZM346.17188 33.9125Q346.17188 31.037498 347.76562 29.646873Q349.10938 28.490623 351.03125 28.490623Q353.17188 28.490623 354.51562 29.896873Q355.875 31.303123 355.875 33.771873Q355.875 35.771873 355.28125 36.928123Q354.6875 38.06875 353.53125 38.709373Q352.39062 39.334373 351.03125 39.334373Q348.84375 39.334373 347.5 37.94375Q346.17188 36.5375 346.17188 33.9125ZM347.96875 33.9125Q347.96875 35.9125 348.82812 36.896873Q349.70312 37.88125 351.03125 37.88125Q352.34375 37.88125 353.20312 36.896873Q354.07812 35.896873 354.07812 33.85Q354.07812 31.928123 353.20312 30.943748Q352.32812 29.943748 351.03125 29.943748Q349.70312 29.943748 348.82812 30.943748Q347.96875 31.928123 347.96875 33.9125ZM359.73438 39.1L356.5625 28.724998L358.375 28.724998L360.03125 34.709373L360.64062 36.94375Q360.6875 36.771873 361.17188 34.803123L362.82812 28.724998L364.64062 28.724998L366.1875 34.740623L366.70312 36.725L367.29688 34.725L369.07812 28.724998L370.78125 28.724998L367.54688 39.1L365.71875 39.1L364.0625 32.88125L363.67188 31.115623L361.5625 39.1L359.73438 39.1ZM372.10938 36.00625L373.85938 35.725Q374.0 36.771873 374.67188 37.334373Q375.34375 37.88125 376.54688 37.88125Q377.75 37.88125 378.32812 37.396873Q378.92188 36.896873 378.92188 36.240623Q378.92188 35.646873 378.40625 35.303123Q378.04688 35.06875 376.60938 34.709373Q374.67188 34.209373 373.92188 33.865623Q373.1875 33.50625 372.79688 32.88125Q372.40625 32.240623 372.40625 31.474998Q372.40625 30.787498 372.71875 30.193748Q373.04688 29.599998 373.59375 29.209373Q374.0 28.912498 374.70312 28.709373Q375.42188 28.490623 376.23438 28.490623Q377.45312 28.490623 378.375 28.849998Q379.29688 29.193748 379.73438 29.803123Q380.17188 30.396873 380.34375 31.396873L378.625 31.631248Q378.5 30.834373 377.9375 30.396873Q377.375 29.943748 376.35938 29.943748Q375.14062 29.943748 374.625 30.349998Q374.10938 30.740623 374.10938 31.271873Q374.10938 31.615623 374.32812 31.896873Q374.53125 32.178123 375.0 32.365623Q375.26562 32.459373 376.54688 32.803123Q378.42188 33.303123 379.15625 33.63125Q379.89062 33.94375 380.3125 34.553123Q380.73438 35.146873 380.73438 36.053123Q380.73438 36.928123 380.21875 37.709373Q379.70312 38.490623 378.73438 38.9125Q377.76562 39.334373 376.54688 39.334373Q374.53125 39.334373 373.46875 38.490623Q372.40625 37.646873 372.10938 36.00625ZM389.92188 35.75625L391.73438 35.990623Q391.3125 37.56875 390.14062 38.459373Q388.98438 39.334373 387.17188 39.334373Q384.90625 39.334373 383.5625 37.94375Q382.23438 36.5375 382.23438 34.00625Q382.23438 31.381248 383.57812 29.943748Q384.92188 28.490623 387.07812 28.490623Q389.15625 28.490623 390.46875 29.912498Q391.79688 31.318748 391.79688 33.896873Q391.79688 34.053123 391.78125 34.365623L384.04688 34.365623Q384.14062 36.06875 385.01562 36.975Q385.89062 37.88125 387.1875 37.88125Q388.15625 37.88125 388.82812 37.38125Q389.51562 36.865623 389.92188 35.75625ZM384.14062 32.9125L389.9375 32.9125Q389.82812 31.615623 389.28125 30.959373Q388.4375 29.943748 387.09375 29.943748Q385.89062 29.943748 385.0625 30.756248Q384.23438 31.553123 384.14062 32.9125ZM393.79688 39.1L393.79688 28.724998L395.375 28.724998L395.375 30.303123Q395.98438 29.193748 396.5 28.849998Q397.01562 28.490623 397.625 28.490623Q398.51562 28.490623 399.4375 29.053123L398.82812 30.693748Q398.1875 30.303123 397.54688 30.303123Q396.96875 30.303123 396.5 30.662498Q396.04688 31.006248 395.84375 31.615623Q395.5625 32.553123 395.5625 33.6625L395.5625 39.1L393.79688 39.1ZM406.78125 39.1L406.78125 24.787498L408.53125 24.787498L408.53125 39.1L406.78125 39.1ZM417.59375 37.81875Q416.60938 38.646873 415.70312 38.990623Q414.79688 39.334373 413.76562 39.334373Q412.0625 39.334373 411.14062 38.50625Q410.21875 37.6625 410.21875 36.365623Q410.21875 35.6 410.5625 34.975Q410.92188 34.35 411.48438 33.975Q412.04688 33.584373 412.75 33.38125Q413.26562 33.25625 414.3125 33.115623Q416.4375 32.865623 417.4375 32.521873Q417.45312 32.1625 417.45312 32.053123Q417.45312 30.990623 416.95312 30.537498Q416.28125 29.943748 414.95312 29.943748Q413.70312 29.943748 413.10938 30.381248Q412.53125 30.818748 412.25 31.928123L410.53125 31.693748Q410.76562 30.584373 411.29688 29.912498Q411.82812 29.224998 412.84375 28.865623Q413.85938 28.490623 415.20312 28.490623Q416.53125 28.490623 417.35938 28.803123Q418.1875 29.115623 418.57812 29.599998Q418.96875 30.068748 419.125 30.787498Q419.21875 31.240623 419.21875 32.4125L419.21875 34.75625Q419.21875 37.209373 419.32812 37.865623Q419.4375 38.50625 419.78125 39.1L417.9375 39.1Q417.67188 38.553123 417.59375 37.81875ZM417.4375 33.896873Q416.48438 34.2875 414.5625 34.553123Q413.48438 34.709373 413.03125 34.9125Q412.59375 35.1 412.34375 35.475Q412.09375 35.85 412.09375 36.31875Q412.09375 37.021873 412.625 37.490623Q413.15625 37.959373 414.1875 37.959373Q415.20312 37.959373 415.98438 37.521873Q416.78125 37.06875 417.15625 36.303123Q417.4375 35.69375 417.4375 34.5375L417.4375 33.896873ZM421.8125 39.1L421.8125 28.724998L423.40625 28.724998L423.40625 30.209373Q424.54688 28.490623 426.70312 28.490623Q427.64062 28.490623 428.42188 28.834373Q429.21875 29.162498 429.60938 29.709373Q430.0 30.256248 430.15625 31.006248Q430.25 31.506248 430.25 32.725L430.25 39.1L428.48438 39.1L428.48438 32.7875Q428.48438 31.709373 428.28125 31.178123Q428.07812 30.646873 427.54688 30.334373Q427.03125 30.021873 426.32812 30.021873Q425.20312 30.021873 424.39062 30.740623Q423.57812 31.443748 423.57812 33.428123L423.57812 39.1L421.8125 39.1ZM431.5 39.959373L433.20312 40.209373Q433.3125 41.00625 433.79688 41.365623Q434.45312 41.85 435.59375 41.85Q436.8125 41.85 437.46875 41.365623Q438.14062 40.88125 438.375 40.00625Q438.51562 39.459373 438.5 37.740623Q437.34375 39.1 435.625 39.1Q433.48438 39.1 432.3125 37.553123Q431.14062 36.00625 431.14062 33.85Q431.14062 32.365623 431.67188 31.115623Q432.21875 29.865623 433.23438 29.178123Q434.26562 28.490623 435.64062 28.490623Q437.46875 28.490623 438.67188 29.974998L438.67188 28.724998L440.28125 28.724998L440.28125 37.69375Q440.28125 40.115623 439.78125 41.115623Q439.29688 42.13125 438.21875 42.709373Q437.15625 43.303123 435.59375 43.303123Q433.75 43.303123 432.59375 42.475Q431.45312 41.646873 431.5 39.959373ZM432.95312 33.725Q432.95312 35.771873 433.76562 36.709373Q434.57812 37.646873 435.79688 37.646873Q437.0 37.646873 437.8125 36.709373Q438.64062 35.771873 438.64062 33.7875Q438.64062 31.881248 437.79688 30.912498Q436.95312 29.943748 435.76562 29.943748Q434.59375 29.943748 433.76562 30.896873Q432.95312 31.849998 432.95312 33.725ZM449.60938 39.1L449.60938 37.56875Q448.40625 39.334373 446.32812 39.334373Q445.40625 39.334373 444.60938 38.990623Q443.8125 38.63125 443.42188 38.1Q443.04688 37.56875 442.89062 36.7875Q442.78125 36.271873 442.78125 35.146873L442.78125 28.724998L444.53125 28.724998L444.53125 34.475Q444.53125 35.85 444.64062 36.334373Q444.8125 37.021873 445.34375 37.428123Q445.89062 37.81875 446.67188 37.81875Q447.46875 37.81875 448.15625 37.4125Q448.85938 37.00625 449.14062 36.31875Q449.4375 35.615623 449.4375 34.2875L449.4375 28.724998L451.1875 28.724998L451.1875 39.1L449.60938 39.1ZM459.59375 37.81875Q458.60938 38.646873 457.70312 38.990623Q456.79688 39.334373 455.76562 39.334373Q454.0625 39.334373 453.14062 38.50625Q452.21875 37.6625 452.21875 36.365623Q452.21875 35.6 452.5625 34.975Q452.92188 34.35 453.48438 33.975Q454.04688 33.584373 454.75 33.38125Q455.26562 33.25625 456.3125 33.115623Q458.4375 32.865623 459.4375 32.521873Q459.45312 32.1625 459.45312 32.053123Q459.45312 30.990623 458.95312 30.537498Q458.28125 29.943748 456.95312 29.943748Q455.70312 29.943748 455.10938 30.381248Q454.53125 30.818748 454.25 31.928123L452.53125 31.693748Q452.76562 30.584373 453.29688 29.912498Q453.82812 29.224998 454.84375 28.865623Q455.85938 28.490623 457.20312 28.490623Q458.53125 28.490623 459.35938 28.803123Q460.1875 29.115623 460.57812 29.599998Q460.96875 30.068748 461.125 30.787498Q461.21875 31.240623 461.21875 32.4125L461.21875 34.75625Q461.21875 37.209373 461.32812 37.865623Q461.4375 38.50625 461.78125 39.1L459.9375 39.1Q459.67188 38.553123 459.59375 37.81875ZM459.4375 33.896873Q458.48438 34.2875 456.5625 34.553123Q455.48438 34.709373 455.03125 34.9125Q454.59375 35.1 454.34375 35.475Q454.09375 35.85 454.09375 36.31875Q454.09375 37.021873 454.625 37.490623Q455.15625 37.959373 456.1875 37.959373Q457.20312 37.959373 457.98438 37.521873Q458.78125 37.06875 459.15625 36.303123Q459.4375 35.69375 459.4375 34.5375L459.4375 33.896873ZM463.5 39.959373L465.20312 40.209373Q465.3125 41.00625 465.79688 41.365623Q466.45312 41.85 467.59375 41.85Q468.8125 41.85 469.46875 41.365623Q470.14062 40.88125 470.375 40.00625Q470.51562 39.459373 470.5 37.740623Q469.34375 39.1 467.625 39.1Q465.48438 39.1 464.3125 37.553123Q463.14062 36.00625 463.14062 33.85Q463.14062 32.365623 463.67188 31.115623Q464.21875 29.865623 465.23438 29.178123Q466.26562 28.490623 467.64062 28.490623Q469.46875 28.490623 470.67188 29.974998L470.67188 28.724998L472.28125 28.724998L472.28125 37.69375Q472.28125 40.115623 471.78125 41.115623Q471.29688 42.13125 470.21875 42.709373Q469.15625 43.303123 467.59375 43.303123Q465.75 43.303123 464.59375 42.475Q463.45312 41.646873 463.5 39.959373ZM464.95312 33.725Q464.95312 35.771873 465.76562 36.709373Q466.57812 37.646873 467.79688 37.646873Q469.0 37.646873 469.8125 36.709373Q470.64062 35.771873 470.64062 33.7875Q470.64062 31.881248 469.79688 30.912498Q468.95312 29.943748 467.76562 29.943748Q466.59375 29.943748 465.76562 30.896873Q464.95312 31.849998 464.95312 33.725ZM481.92188 35.75625L483.73438 35.990623Q483.3125 37.56875 482.14062 38.459373Q480.98438 39.334373 479.17188 39.334373Q476.90625 39.334373 475.5625 37.94375Q474.23438 36.5375 474.23438 34.00625Q474.23438 31.381248 475.57812 29.943748Q476.92188 28.490623 479.07812 28.490623Q481.15625 28.490623 482.46875 29.912498Q483.79688 31.318748 483.79688 33.896873Q483.79688 34.053123 483.78125 34.365623L476.04688 34.365623Q476.14062 36.06875 477.01562 36.975Q477.89062 37.88125 479.1875 37.88125Q480.15625 37.88125 480.82812 37.38125Q481.51562 36.865623 481.92188 35.75625ZM476.14062 32.9125L481.9375 32.9125Q481.82812 31.615623 481.28125 30.959373Q480.4375 29.943748 479.09375 29.943748Q477.89062 29.943748 477.0625 30.756248Q476.23438 31.553123 476.14062 32.9125Z" fill-rule="nonzero"/></svg>