<svg version="1.1" viewBox="0.0 0.0 810.0 402.0" fill="none" stroke="none" stroke-linecap="square" stroke-miterlimit="10" width="810" height="402" xmlns:xlink="http://www.w3.org/1999/xlink" xmlns="http://www.w3.org/2000/svg"><path fill="#ffffff" d="M0 0L810.0 0L810.0 402.0L0 402.0L0 0Z" fill-rule="nonzero"/><path fill="#f0abfc" d="M291.68668 57.5C363.80774 57.5 427.26617 105.12039 447.42297 174.36743C467.57977 243.61447 439.5928 317.8533 378.7388 356.5604L335.21274 288.1302C365.63974 268.77664 379.6332 231.65724 369.5548 197.03372C359.4764 162.41019 327.7472 138.6 291.68668 138.6Z" fill-rule="nonzero"/><path fill="#b7b7b7" d="M241.11119 57.169147C257.0587 52.07814 273.6982 49.486607 290.43863 49.486607L290.43863 130.58661C282.06842 130.58661 273.74866 131.88237 265.7749 134.42787Z" fill-rule="nonzero"/><path fill="#b6d7a8" d="M211.79536 78.539734C221.49724 73.04885 231.73933 68.57279 242.35924 65.18254L267.02295 142.44127C261.713 144.1364 256.59195 146.37442 251.74101 149.11987Z" fill-rule="nonzero"/><path fill="#d946ef" d="M184.60999 97.8664C192.98355 90.50708 202.0935 84.03062 211.79536 78.539734L251.74101 149.11987C246.89008 151.86531 242.33511 155.10355 238.14833 158.7832Z" fill-rule="nonzero"/><path fill="#93c5fd" d="M141.43692 280.80527C115.42764 216.8519 132.75188 143.44327 184.60999 97.8664L238.14833 158.7832C212.21927 181.57164 203.55716 218.27596 216.5618 250.25264Z" fill-rule="nonzero"/><path fill="#e879f9" d="M378.7388 356.5604C338.14685 382.37952 288.18814 388.84766 242.35924 374.21747C196.53035 359.58725 159.56035 325.36838 141.43692 280.80527L216.5618 250.25264C225.6235 272.53418 244.1085 289.64362 267.02295 296.95874C289.9374 304.27383 314.91678 301.03976 335.21274 288.1302Z" fill-rule="nonzero"/><path fill="#000000" d="M393.84827 190.70058L393.84827 188.68495L389.75452 188.68495L389.75452 186.99745L394.09827 180.63808L395.70764 180.63808L395.70764 186.99745L396.95764 186.99745L396.95764 188.68495L395.70764 188.68495L395.70764 190.70058L393.84827 190.70058ZM393.84827 186.99745L393.84827 183.57558L391.5514 186.99745L393.84827 186.99745ZM403.00452 190.70058L401.08264 190.70058L401.08264 183.4662Q400.02014 184.45058 398.59827 184.91933L398.59827 183.16933Q399.34827 182.93495 400.22327 182.24745Q401.1139 181.55995 401.44202 180.63808L403.00452 180.63808L403.00452 190.70058ZM406.4889 190.70058L406.4889 188.7787L408.41077 188.7787L408.41077 190.70058L406.4889 190.70058ZM413.33264 180.63808Q414.78577 180.63808 415.6139 181.66933Q416.58264 182.9037 416.58264 185.76308Q416.58264 188.60683 415.59827 189.8412Q414.78577 190.87245 413.33264 190.87245Q411.8639 190.87245 410.97327 189.74745Q410.08264 188.62245 410.08264 185.73183Q410.08264 182.9037 411.06702 181.66933Q411.87952 180.63808 413.33264 180.63808ZM413.33264 182.23183Q412.9889 182.23183 412.70764 182.45058Q412.44202 182.66933 412.28577 183.24745Q412.08264 183.99745 412.08264 185.76308Q412.08264 187.5287 412.25452 188.18495Q412.44202 188.8412 412.70764 189.05995Q412.9889 189.2787 413.33264 189.2787Q413.6764 189.2787 413.94202 189.05995Q414.22327 188.8412 414.37952 188.26308Q414.58264 187.5287 414.58264 185.76308Q414.58264 183.99745 414.39514 183.3412Q414.22327 182.66933 413.94202 182.45058Q413.6764 182.23183 413.33264 182.23183ZM418.09827 183.1537Q418.09827 181.80995 418.69202 181.16933Q419.28577 180.51308 420.28577 180.51308Q421.33264 180.51308 421.9264 181.1537Q422.52014 181.79433 422.52014 183.1537Q422.52014 184.49745 421.9264 185.1537Q421.33264 185.79433 420.33264 185.79433Q419.28577 185.79433 418.69202 185.1537Q418.09827 184.51308 418.09827 183.1537ZM419.59827 183.13808Q419.59827 184.12245 419.81702 184.45058Q419.9889 184.70058 420.28577 184.70058Q420.59827 184.70058 420.77014 184.45058Q420.9889 184.12245 420.9889 183.13808Q420.9889 182.16933 420.77014 181.8412Q420.59827 181.57558 420.28577 181.57558Q419.9889 181.57558 419.81702 181.82558Q419.59827 182.16933 419.59827 183.13808ZM421.75452 191.0912L420.33264 191.0912L425.6764 180.51308L427.0514 180.51308L421.75452 191.0912ZM424.8639 188.45058Q424.8639 187.10683 425.44202 186.4662Q426.03577 185.80995 427.06702 185.80995Q428.09827 185.80995 428.69202 186.4662Q429.28577 187.10683 429.28577 188.45058Q429.28577 189.80995 428.69202 190.4662Q428.09827 191.10683 427.08264 191.10683Q426.03577 191.10683 425.44202 190.4662Q424.8639 189.80995 424.8639 188.45058ZM426.34827 188.45058Q426.34827 189.41933 426.58264 189.74745Q426.75452 189.99745 427.0514 189.99745Q427.3639 189.99745 427.52014 189.76308Q427.75452 189.41933 427.75452 188.45058Q427.75452 187.4662 427.53577 187.13808Q427.3639 186.88808 427.0514 186.88808Q426.7389 186.88808 426.58264 187.13808Q426.34827 187.4662 426.34827 188.45058Z" fill-rule="nonzero"/><path fill="#000000" d="M241.35858 343.22565L241.35858 345.0069L234.6242 345.0069Q234.73358 343.99127 235.28046 343.08502Q235.82733 342.17877 237.45233 340.67877Q238.7492 339.47565 239.04608 339.03815Q239.4367 338.4444 239.4367 337.86627Q239.4367 337.22565 239.09296 336.8819Q238.7492 336.53815 238.13983 336.53815Q237.53046 336.53815 237.17108 336.89752Q236.82733 337.2569 236.76483 338.10065L234.85858 337.91315Q235.03046 336.3194 235.92108 335.6319Q236.82733 334.9444 238.1867 334.9444Q239.67108 334.9444 240.51483 335.74127Q241.35858 336.53815 241.35858 337.72565Q241.35858 338.41315 241.10858 339.02252Q240.8742 339.6319 240.35858 340.30377Q239.9992 340.74127 239.09296 341.58502Q238.1867 342.41315 237.9367 342.6944Q237.70233 342.96002 237.54608 343.22565L241.35858 343.22565ZM242.8742 336.91315L242.8742 335.11627L249.45233 335.11627L249.45233 336.52252Q248.6242 337.3194 247.78046 338.8194Q246.95233 340.30377 246.4992 341.99127Q246.0617 343.67877 246.07733 345.0069L244.21796 345.0069Q244.26483 342.92877 245.07733 340.77252Q245.88983 338.60065 247.2492 336.91315L242.8742 336.91315ZM251.28046 345.0069L251.28046 343.08502L253.20233 343.08502L253.20233 345.0069L251.28046 345.0069ZM254.92108 342.6944L256.78046 342.49127Q256.84296 343.05377 257.1242 343.33502Q257.42108 343.60065 257.88983 343.60065Q258.48358 343.60065 258.88983 343.05377Q259.3117 342.5069 259.4367 340.78815Q258.71796 341.61627 257.6242 341.61627Q256.4367 341.61627 255.57733 340.71002Q254.71796 339.80377 254.71796 338.33502Q254.71796 336.80377 255.6242 335.8819Q256.53046 334.9444 257.9367 334.9444Q259.46796 334.9444 260.4367 336.1319Q261.42108 337.30377 261.42108 340.0069Q261.42108 342.7569 260.38983 343.97565Q259.3742 345.17877 257.7492 345.17877Q256.57733 345.17877 255.84296 344.55377Q255.1242 343.92877 254.92108 342.6944ZM259.26483 338.49127Q259.26483 337.5694 258.82733 337.05377Q258.40546 336.53815 257.84296 336.53815Q257.3117 336.53815 256.95233 336.96002Q256.60858 337.3819 256.60858 338.33502Q256.60858 339.30377 256.98358 339.7569Q257.3742 340.21002 257.95233 340.21002Q258.4992 340.21002 258.8742 339.77252Q259.26483 339.33502 259.26483 338.49127ZM262.88983 337.46002Q262.88983 336.11627 263.48358 335.47565Q264.07733 334.8194 265.07733 334.8194Q266.1242 334.8194 266.71796 335.46002Q267.3117 336.10065 267.3117 337.46002Q267.3117 338.80377 266.71796 339.46002Q266.1242 340.10065 265.1242 340.10065Q264.07733 340.10065 263.48358 339.46002Q262.88983 338.8194 262.88983 337.46002ZM264.38983 337.4444Q264.38983 338.42877 264.60858 338.7569Q264.78046 339.0069 265.07733 339.0069Q265.38983 339.0069 265.5617 338.7569Q265.78046 338.42877 265.78046 337.4444Q265.78046 336.47565 265.5617 336.14752Q265.38983 335.8819 265.07733 335.8819Q264.78046 335.8819 264.60858 336.1319Q264.38983 336.47565 264.38983 337.4444ZM266.54608 345.39752L265.1242 345.39752L270.46796 334.8194L271.84296 334.8194L266.54608 345.39752ZM269.65546 342.7569Q269.65546 341.41315 270.23358 340.77252Q270.82733 340.11627 271.85858 340.11627Q272.88983 340.11627 273.48358 340.77252Q274.07733 341.41315 274.07733 342.7569Q274.07733 344.11627 273.48358 344.77252Q272.88983 345.41315 271.8742 345.41315Q270.82733 345.41315 270.23358 344.77252Q269.65546 344.11627 269.65546 342.7569ZM271.13983 342.7569Q271.13983 343.72565 271.3742 344.05377Q271.54608 344.30377 271.84296 344.30377Q272.15546 344.30377 272.3117 344.0694Q272.54608 343.72565 272.54608 342.7569Q272.54608 341.77252 272.32733 341.4444Q272.15546 341.1944 271.84296 341.1944Q271.53046 341.1944 271.3742 341.4444Q271.13983 341.77252 271.13983 342.7569Z" fill-rule="nonzero"/><path fill="#000000" d="M159.80469 196.75848L157.88281 196.75848L157.88281 189.52411Q156.82031 190.50848 155.39844 190.97723L155.39844 189.22723Q156.14844 188.99286 157.02344 188.30536Q157.91406 187.61786 158.24219 186.69598L159.80469 186.69598L159.80469 196.75848ZM162.92969 194.44598L164.78906 194.24286Q164.85156 194.80536 165.13281 195.08661Q165.42969 195.35223 165.89844 195.35223Q166.49219 195.35223 166.89844 194.80536Q167.32031 194.25848 167.44531 192.53973Q166.72656 193.36786 165.63281 193.36786Q164.44531 193.36786 163.58594 192.46161Q162.72656 191.55536 162.72656 190.08661Q162.72656 188.55536 163.63281 187.63348Q164.53906 186.69598 165.94531 186.69598Q167.47656 186.69598 168.44531 187.88348Q169.42969 189.05536 169.42969 191.75848Q169.42969 194.50848 168.39844 195.72723Q167.38281 196.93036 165.75781 196.93036Q164.58594 196.93036 163.85156 196.30536Q163.13281 195.68036 162.92969 194.44598ZM167.27344 190.24286Q167.27344 189.32098 166.83594 188.80536Q166.41406 188.28973 165.85156 188.28973Q165.32031 188.28973 164.96094 188.71161Q164.61719 189.13348 164.61719 190.08661Q164.61719 191.05536 164.99219 191.50848Q165.38281 191.96161 165.96094 191.96161Q166.50781 191.96161 166.88281 191.52411Q167.27344 191.08661 167.27344 190.24286ZM171.28906 196.75848L171.28906 194.83661L173.21094 194.83661L173.21094 196.75848L171.28906 196.75848ZM174.88281 188.66473L174.88281 186.86786L181.46094 186.86786L181.46094 188.27411Q180.63281 189.07098 179.78906 190.57098Q178.96094 192.05536 178.50781 193.74286Q178.07031 195.43036 178.08594 196.75848L176.22656 196.75848Q176.27344 194.68036 177.08594 192.52411Q177.89844 190.35223 179.25781 188.66473L174.88281 188.66473ZM182.89844 189.21161Q182.89844 187.86786 183.49219 187.22723Q184.08594 186.57098 185.08594 186.57098Q186.13281 186.57098 186.72656 187.21161Q187.32031 187.85223 187.32031 189.21161Q187.32031 190.55536 186.72656 191.21161Q186.13281 191.85223 185.13281 191.85223Q184.08594 191.85223 183.49219 191.21161Q182.89844 190.57098 182.89844 189.21161ZM184.39844 189.19598Q184.39844 190.18036 184.61719 190.50848Q184.78906 190.75848 185.08594 190.75848Q185.39844 190.75848 185.57031 190.50848Q185.78906 190.18036 185.78906 189.19598Q185.78906 188.22723 185.57031 187.89911Q185.39844 187.63348 185.08594 187.63348Q184.78906 187.63348 184.61719 187.88348Q184.39844 188.22723 184.39844 189.19598ZM186.55469 197.14911L185.13281 197.14911L190.47656 186.57098L191.85156 186.57098L186.55469 197.14911ZM189.66406 194.50848Q189.66406 193.16473 190.24219 192.52411Q190.83594 191.86786 191.86719 191.86786Q192.89844 191.86786 193.49219 192.52411Q194.08594 193.16473 194.08594 194.50848Q194.08594 195.86786 193.49219 196.52411Q192.89844 197.16473 191.88281 197.16473Q190.83594 197.16473 190.24219 196.52411Q189.66406 195.86786 189.66406 194.50848ZM191.14844 194.50848Q191.14844 195.47723 191.38281 195.80536Q191.55469 196.05536 191.85156 196.05536Q192.16406 196.05536 192.32031 195.82098Q192.55469 195.47723 192.55469 194.50848Q192.55469 193.52411 192.33594 193.19598Q192.16406 192.94598 191.85156 192.94598Q191.53906 192.94598 191.38281 193.19598Q191.14844 193.52411 191.14844 194.50848Z" fill-rule="nonzero"/><path fill="#000000" d="M259.61053 87.068665L259.61053 85.05304L255.51678 85.05304L255.51678 83.36554L259.86053 77.006165L261.4699 77.006165L261.4699 83.36554L262.7199 83.36554L262.7199 85.05304L261.4699 85.05304L261.4699 87.068665L259.61053 87.068665ZM259.61053 83.36554L259.61053 79.943665L257.31366 83.36554L259.61053 83.36554ZM264.25116 87.068665L264.25116 85.14679L266.17303 85.14679L266.17303 87.068665L264.25116 87.068665ZM267.89178 84.756165L269.75116 84.55304Q269.81366 85.11554 270.0949 85.39679Q270.39178 85.662415 270.86053 85.662415Q271.45428 85.662415 271.86053 85.11554Q272.2824 84.568665 272.4074 82.849915Q271.68866 83.67804 270.5949 83.67804Q269.4074 83.67804 268.54803 82.77179Q267.68866 81.86554 267.68866 80.39679Q267.68866 78.86554 268.5949 77.943665Q269.50116 77.006165 270.9074 77.006165Q272.43866 77.006165 273.4074 78.193665Q274.39178 79.36554 274.39178 82.068665Q274.39178 84.818665 273.36053 86.037415Q272.3449 87.24054 270.7199 87.24054Q269.54803 87.24054 268.81366 86.61554Q268.0949 85.99054 267.89178 84.756165ZM272.23553 80.55304Q272.23553 79.631165 271.79803 79.11554Q271.37616 78.599915 270.81366 78.599915Q270.2824 78.599915 269.92303 79.02179Q269.57928 79.443665 269.57928 80.39679Q269.57928 81.36554 269.95428 81.818665Q270.3449 82.27179 270.92303 82.27179Q271.4699 82.27179 271.8449 81.83429Q272.23553 81.39679 272.23553 80.55304ZM275.86053 79.52179Q275.86053 78.17804 276.45428 77.537415Q277.04803 76.881165 278.04803 76.881165Q279.0949 76.881165 279.68866 77.52179Q280.2824 78.162415 280.2824 79.52179Q280.2824 80.86554 279.68866 81.52179Q279.0949 82.162415 278.0949 82.162415Q277.04803 82.162415 276.45428 81.52179Q275.86053 80.881165 275.86053 79.52179ZM277.36053 79.506165Q277.36053 80.49054 277.57928 80.818665Q277.75116 81.068665 278.04803 81.068665Q278.36053 81.068665 278.5324 80.818665Q278.75116 80.49054 278.75116 79.506165Q278.75116 78.537415 278.5324 78.20929Q278.36053 77.943665 278.04803 77.943665Q277.75116 77.943665 277.57928 78.193665Q277.36053 78.537415 277.36053 79.506165ZM279.51678 87.45929L278.0949 87.45929L283.43866 76.881165L284.81366 76.881165L279.51678 87.45929ZM282.62616 84.818665Q282.62616 83.474915 283.20428 82.83429Q283.79803 82.17804 284.82928 82.17804Q285.86053 82.17804 286.45428 82.83429Q287.04803 83.474915 287.04803 84.818665Q287.04803 86.17804 286.45428 86.83429Q285.86053 87.474915 284.8449 87.474915Q283.79803 87.474915 283.20428 86.83429Q282.62616 86.17804 282.62616 84.818665ZM284.11053 84.818665Q284.11053 85.787415 284.3449 86.11554Q284.51678 86.36554 284.81366 86.36554Q285.12616 86.36554 285.2824 86.131165Q285.51678 85.787415 285.51678 84.818665Q285.51678 83.83429 285.29803 83.506165Q285.12616 83.256165 284.81366 83.256165Q284.50116 83.256165 284.3449 83.506165Q284.11053 83.83429 284.11053 84.818665Z" fill-rule="nonzero"/><path fill="#f0abfc" d="M596.9 64.5C596.9 67.813705 594.2137 70.5 590.9 70.5C587.5863 70.5 584.9 67.813705 584.9 64.5C584.9 61.18629 587.5863 58.5 590.9 58.5C594.2137 58.5 596.9 61.18629 596.9 64.5Z" fill-rule="nonzero"/><path fill="#1a1a1a" d="M605.8375 68.5L605.8375 59.90625L609.65 59.90625Q610.8063 59.90625 611.4 60.140625Q611.9938 60.375 612.35315 60.96875Q612.7125 61.546875 612.7125 62.25Q612.7125 63.171875 612.1188 63.796875Q611.525 64.421875 610.29065 64.59375Q610.7438 64.8125 610.97815 65.015625Q611.47815 65.46875 611.91565 66.15625L613.41565 68.5L611.97815 68.5L610.85315 66.71875Q610.35315 65.9375 610.025 65.53125Q609.7125 65.125 609.4469 64.96875Q609.1969 64.796875 608.9313 64.71875Q608.7438 64.6875 608.3063 64.6875L606.97815 64.6875L606.97815 68.5L605.8375 68.5ZM606.97815 63.703125L609.4313 63.703125Q610.1969 63.703125 610.6344 63.546875Q611.0875 63.375 611.3063 63.03125Q611.54065 62.671875 611.54065 62.25Q611.54065 61.640625 611.0875 61.25Q610.65 60.859375 609.6969 60.859375L606.97815 60.859375L606.97815 63.703125ZM618.7594 67.734375Q618.16565 68.234375 617.6188 68.4375Q617.0875 68.640625 616.4625 68.640625Q615.4313 68.640625 614.8844 68.140625Q614.3375 67.640625 614.3375 66.859375Q614.3375 66.40625 614.54065 66.03125Q614.7438 65.640625 615.0875 65.421875Q615.4313 65.1875 615.85315 65.078125Q616.15 64.984375 616.79065 64.90625Q618.0563 64.765625 618.66565 64.546875Q618.66565 64.328125 618.66565 64.28125Q618.66565 63.625 618.3688 63.359375Q617.9625 63.015625 617.16565 63.015625Q616.4313 63.015625 616.0719 63.28125Q615.7125 63.53125 615.54065 64.1875L614.5094 64.046875Q614.65 63.390625 614.97815 62.984375Q615.3063 62.578125 615.91565 62.359375Q616.525 62.140625 617.3219 62.140625Q618.1188 62.140625 618.6188 62.328125Q619.1188 62.515625 619.35315 62.796875Q619.5875 63.078125 619.6813 63.515625Q619.72815 63.78125 619.72815 64.484375L619.72815 65.890625Q619.72815 67.359375 619.79065 67.75Q619.8688 68.140625 620.0719 68.5L618.9625 68.5Q618.8063 68.171875 618.7594 67.734375ZM618.66565 65.375Q618.0875 65.609375 616.9469 65.78125Q616.29065 65.875 616.025 66.0Q615.7594 66.109375 615.60315 66.328125Q615.4625 66.546875 615.4625 66.828125Q615.4625 67.25 615.775 67.53125Q616.10315 67.8125 616.7125 67.8125Q617.3219 67.8125 617.79065 67.546875Q618.275 67.28125 618.4938 66.8125Q618.66565 66.453125 618.66565 65.765625L618.66565 65.375ZM621.6969 61.125L621.6969 59.90625L622.7594 59.90625L622.7594 61.125L621.6969 61.125ZM621.6969 68.5L621.6969 62.28125L622.7594 62.28125L622.7594 68.5L621.6969 68.5ZM624.6969 68.5L624.6969 62.28125L625.6344 62.28125L625.6344 63.15625Q626.3219 62.140625 627.6188 62.140625Q628.1813 62.140625 628.65 62.34375Q629.1344 62.546875 629.3688 62.875Q629.60315 63.203125 629.6969 63.640625Q629.7438 63.9375 629.7438 64.671875L629.7438 68.5L628.6969 68.5L628.6969 64.71875Q628.6969 64.0625 628.5719 63.75Q628.4469 63.4375 628.1344 63.25Q627.8219 63.046875 627.4 63.046875Q626.72815 63.046875 626.22815 63.484375Q625.7438 63.90625 625.7438 65.09375L625.7438 68.5L624.6969 68.5ZM632.66565 68.5L631.6813 68.5L631.6813 59.90625L632.7438 59.90625L632.7438 62.96875Q633.41565 62.140625 634.4469 62.140625Q635.025 62.140625 635.525 62.375Q636.04065 62.59375 636.3688 63.015625Q636.7125 63.4375 636.9 64.03125Q637.0875 64.625 637.0875 65.296875Q637.0875 66.890625 636.29065 67.765625Q635.4938 68.640625 634.4 68.640625Q633.29065 68.640625 632.66565 67.71875L632.66565 68.5ZM632.65 65.34375Q632.65 66.453125 632.9625 66.953125Q633.4625 67.765625 634.3063 67.765625Q634.9938 67.765625 635.4938 67.171875Q636.0094 66.578125 636.0094 65.375Q636.0094 64.15625 635.525 63.578125Q635.04065 63.0 634.35315 63.0Q633.66565 63.0 633.15 63.609375Q632.65 64.203125 632.65 65.34375ZM638.3063 65.390625Q638.3063 63.65625 639.2594 62.828125Q640.0563 62.140625 641.2125 62.140625Q642.4938 62.140625 643.3063 62.984375Q644.1344 63.8125 644.1344 65.296875Q644.1344 66.5 643.775 67.1875Q643.41565 67.875 642.7125 68.265625Q642.025 68.640625 641.2125 68.640625Q639.91565 68.640625 639.10315 67.8125Q638.3063 66.96875 638.3063 65.390625ZM639.3844 65.390625Q639.3844 66.578125 639.9 67.171875Q640.4313 67.765625 641.2125 67.765625Q642.0094 67.765625 642.525 67.171875Q643.04065 66.578125 643.04065 65.359375Q643.04065 64.203125 642.5094 63.609375Q641.9938 63.015625 641.2125 63.015625Q640.4313 63.015625 639.9 63.609375Q639.3844 64.1875 639.3844 65.390625ZM646.8375 68.5L644.9313 62.28125L646.025 62.28125L647.0094 65.875L647.3844 67.203125Q647.41565 67.109375 647.7125 65.921875L648.6969 62.28125L649.775 62.28125L650.7125 65.890625L651.025 67.078125L651.3844 65.875L652.4469 62.28125L653.47815 62.28125L651.525 68.5L650.4313 68.5L649.4469 64.765625L649.1969 63.71875L647.9469 68.5L646.8375 68.5ZM657.8219 68.5L657.8219 59.90625L661.0719 59.90625Q661.91565 59.90625 662.3688 59.984375Q663.0094 60.09375 663.4313 60.390625Q663.8688 60.6875 664.1188 61.21875Q664.3844 61.75 664.3844 62.390625Q664.3844 63.484375 663.6813 64.25Q662.9938 65.0 661.16565 65.0L658.9625 65.0L658.9625 68.5L657.8219 68.5ZM658.9625 64.0L661.1813 64.0Q662.29065 64.0 662.7438 63.59375Q663.2125 63.171875 663.2125 62.421875Q663.2125 61.890625 662.9313 61.515625Q662.66565 61.125 662.22815 61.0Q661.9313 60.921875 661.16565 60.921875L658.9625 60.921875L658.9625 64.0ZM669.7594 67.734375Q669.16565 68.234375 668.6188 68.4375Q668.0875 68.640625 667.4625 68.640625Q666.4313 68.640625 665.8844 68.140625Q665.3375 67.640625 665.3375 66.859375Q665.3375 66.40625 665.54065 66.03125Q665.7438 65.640625 666.0875 65.421875Q666.4313 65.1875 666.85315 65.078125Q667.15 64.984375 667.79065 64.90625Q669.0563 64.765625 669.66565 64.546875Q669.66565 64.328125 669.66565 64.28125Q669.66565 63.625 669.3688 63.359375Q668.9625 63.015625 668.16565 63.015625Q667.4313 63.015625 667.0719 63.28125Q666.7125 63.53125 666.54065 64.1875L665.5094 64.046875Q665.65 63.390625 665.97815 62.984375Q666.3063 62.578125 666.91565 62.359375Q667.525 62.140625 668.3219 62.140625Q669.1188 62.140625 669.6188 62.328125Q670.1188 62.515625 670.35315 62.796875Q670.5875 63.078125 670.6813 63.515625Q670.72815 63.78125 670.72815 64.484375L670.72815 65.890625Q670.72815 67.359375 670.79065 67.75Q670.8688 68.140625 671.0719 68.5L669.9625 68.5Q669.8063 68.171875 669.7594 67.734375ZM669.66565 65.375Q669.0875 65.609375 667.9469 65.78125Q667.29065 65.875 667.025 66.0Q666.7594 66.109375 666.60315 66.328125Q666.4625 66.546875 666.4625 66.828125Q666.4625 67.25 666.775 67.53125Q667.10315 67.8125 667.7125 67.8125Q668.3219 67.8125 668.79065 67.546875Q669.275 67.28125 669.4938 66.8125Q669.66565 66.453125 669.66565 65.765625L669.66565 65.375ZM672.66565 68.5L672.66565 59.90625L673.72815 59.90625L673.72815 68.5L672.66565 68.5ZM679.9469 66.5L681.04065 66.625Q680.79065 67.578125 680.0875 68.109375Q679.3844 68.640625 678.3063 68.640625Q676.9469 68.640625 676.1344 67.796875Q675.3375 66.953125 675.3375 65.4375Q675.3375 63.875 676.15 63.015625Q676.9625 62.140625 678.2438 62.140625Q679.4938 62.140625 680.275 62.984375Q681.0719 63.828125 681.0719 65.375Q681.0719 65.46875 681.0719 65.65625L676.4313 65.65625Q676.4938 66.6875 677.0094 67.234375Q677.525 67.765625 678.3063 67.765625Q678.8844 67.765625 679.29065 67.46875Q679.7125 67.15625 679.9469 66.5ZM676.4938 64.796875L679.9625 64.796875Q679.9 64.0 679.5719 63.609375Q679.0563 63.0 678.2594 63.0Q677.525 63.0 677.025 63.484375Q676.54065 63.96875 676.4938 64.796875ZM684.9938 67.5625L685.15 68.484375Q684.6969 68.578125 684.35315 68.578125Q683.775 68.578125 683.4625 68.40625Q683.15 68.21875 683.0094 67.921875Q682.8844 67.625 682.8844 66.671875L682.8844 63.09375L682.1188 63.09375L682.1188 62.28125L682.8844 62.28125L682.8844 60.734375L683.9313 60.109375L683.9313 62.28125L684.9938 62.28125L684.9938 63.09375L683.9313 63.09375L683.9313 66.734375Q683.9313 67.1875 683.97815 67.3125Q684.04065 67.4375 684.16565 67.515625Q684.29065 67.59375 684.525 67.59375Q684.7125 67.59375 684.9938 67.5625ZM687.9938 67.5625L688.15 68.484375Q687.6969 68.578125 687.35315 68.578125Q686.775 68.578125 686.4625 68.40625Q686.15 68.21875 686.0094 67.921875Q685.8844 67.625 685.8844 66.671875L685.8844 63.09375L685.1188 63.09375L685.1188 62.28125L685.8844 62.28125L685.8844 60.734375L686.9313 60.109375L686.9313 62.28125L687.9938 62.28125L687.9938 63.09375L686.9313 63.09375L686.9313 66.734375Q686.9313 67.1875 686.97815 67.3125Q687.04065 67.4375 687.16565 67.515625Q687.29065 67.59375 687.525 67.59375Q687.7125 67.59375 687.9938 67.5625ZM692.9469 66.5L694.04065 66.625Q693.79065 67.578125 693.0875 68.109375Q692.3844 68.640625 691.3063 68.640625Q689.9469 68.640625 689.1344 67.796875Q688.3375 66.953125 688.3375 65.4375Q688.3375 63.875 689.15 63.015625Q689.9625 62.140625 691.2438 62.140625Q692.4938 62.140625 693.275 62.984375Q694.0719 63.828125 694.0719 65.375Q694.0719 65.46875 694.0719 65.65625L689.4313 65.65625Q689.4938 66.6875 690.0094 67.234375Q690.525 67.765625 691.3063 67.765625Q691.8844 67.765625 692.29065 67.46875Q692.7125 67.15625 692.9469 66.5ZM689.4938 64.796875L692.9625 64.796875Q692.9 64.0 692.5719 63.609375Q692.0563 63.0 691.2594 63.0Q690.525 63.0 690.025 63.484375Q689.54065 63.96875 689.4938 64.796875Z" fill-rule="nonzero"/><path fill="#e879f9" d="M596.9 88.5C596.9 91.813705 594.2137 94.5 590.9 94.5C587.5863 94.5 584.9 91.813705 584.9 88.5C584.9 85.186295 587.5863 82.5 590.9 82.5C594.2137 82.5 596.9 85.186295 596.9 88.5Z" fill-rule="nonzero"/><path fill="#1a1a1a" d="M609.7594 91.734375Q609.16565 92.234375 608.6188 92.4375Q608.0875 92.640625 607.4625 92.640625Q606.4313 92.640625 605.8844 92.140625Q605.3375 91.640625 605.3375 90.859375Q605.3375 90.40625 605.54065 90.03125Q605.7438 89.640625 606.0875 89.421875Q606.4313 89.1875 606.85315 89.078125Q607.15 88.984375 607.79065 88.90625Q609.0563 88.765625 609.66565 88.546875Q609.66565 88.328125 609.66565 88.28125Q609.66565 87.625 609.3688 87.359375Q608.9625 87.015625 608.16565 87.015625Q607.4313 87.015625 607.0719 87.28125Q606.7125 87.53125 606.54065 88.1875L605.5094 88.046875Q605.65 87.390625 605.97815 86.984375Q606.3063 86.578125 606.91565 86.359375Q607.525 86.140625 608.3219 86.140625Q609.1188 86.140625 609.6188 86.328125Q610.1188 86.515625 610.35315 86.796875Q610.5875 87.078125 610.6813 87.515625Q610.72815 87.78125 610.72815 88.484375L610.72815 89.890625Q610.72815 91.359375 610.79065 91.75Q610.8688 92.140625 611.0719 92.5L609.9625 92.5Q609.8063 92.171875 609.7594 91.734375ZM609.66565 89.375Q609.0875 89.609375 607.9469 89.78125Q607.29065 89.875 607.025 90.0Q606.7594 90.109375 606.60315 90.328125Q606.4625 90.546875 606.4625 90.828125Q606.4625 91.25 606.775 91.53125Q607.10315 91.8125 607.7125 91.8125Q608.3219 91.8125 608.79065 91.546875Q609.275 91.28125 609.4938 90.8125Q609.66565 90.453125 609.66565 89.765625L609.66565 89.375ZM612.275 90.640625L613.3063 90.484375Q613.4 91.109375 613.79065 91.4375Q614.1969 91.765625 614.9313 91.765625Q615.65 91.765625 615.9938 91.484375Q616.35315 91.1875 616.35315 90.78125Q616.35315 90.421875 616.04065 90.21875Q615.8219 90.078125 614.9625 89.859375Q613.8063 89.5625 613.35315 89.359375Q612.91565 89.140625 612.6813 88.765625Q612.4469 88.390625 612.4469 87.921875Q612.4469 87.515625 612.6344 87.15625Q612.8219 86.796875 613.15 86.5625Q613.4 86.390625 613.8219 86.265625Q614.2438 86.140625 614.7438 86.140625Q615.4625 86.140625 616.0094 86.359375Q616.5719 86.5625 616.8375 86.921875Q617.10315 87.28125 617.1969 87.875L616.16565 88.015625Q616.10315 87.546875 615.7594 87.28125Q615.4313 87.0 614.8063 87.0Q614.0875 87.0 613.775 87.25Q613.4625 87.484375 613.4625 87.8125Q613.4625 88.015625 613.5875 88.171875Q613.72815 88.34375 613.9938 88.453125Q614.15 88.515625 614.9313 88.71875Q616.0563 89.03125 616.4938 89.21875Q616.9313 89.40625 617.1813 89.765625Q617.4313 90.125 617.4313 90.671875Q617.4313 91.203125 617.1188 91.671875Q616.8219 92.125 616.2438 92.390625Q615.66565 92.640625 614.9313 92.640625Q613.7125 92.640625 613.0719 92.140625Q612.4469 91.625 612.275 90.640625ZM621.9938 91.5625L622.15 92.484375Q621.6969 92.578125 621.35315 92.578125Q620.775 92.578125 620.4625 92.40625Q620.15 92.21875 620.0094 91.921875Q619.8844 91.625 619.8844 90.671875L619.8844 87.09375L619.1188 87.09375L619.1188 86.28125L619.8844 86.28125L619.8844 84.734375L620.9313 84.109375L620.9313 86.28125L621.9938 86.28125L621.9938 87.09375L620.9313 87.09375L620.9313 90.734375Q620.9313 91.1875 620.97815 91.3125Q621.04065 91.4375 621.16565 91.515625Q621.29065 91.59375 621.525 91.59375Q621.7125 91.59375 621.9938 91.5625ZM622.6813 92.5L622.6813 86.28125L623.6344 86.28125L623.6344 87.21875Q623.9938 86.5625 624.29065 86.359375Q624.60315 86.140625 624.97815 86.140625Q625.5094 86.140625 626.0563 86.46875L625.6969 87.453125Q625.3063 87.21875 624.9313 87.21875Q624.5719 87.21875 624.29065 87.4375Q624.025 87.640625 623.91565 88.015625Q623.72815 88.578125 623.72815 89.234375L623.72815 92.5L622.6813 92.5ZM626.3063 89.390625Q626.3063 87.65625 627.2594 86.828125Q628.0563 86.140625 629.2125 86.140625Q630.4938 86.140625 631.3063 86.984375Q632.1344 87.8125 632.1344 89.296875Q632.1344 90.5 631.775 91.1875Q631.41565 91.875 630.7125 92.265625Q630.025 92.640625 629.2125 92.640625Q627.91565 92.640625 627.10315 91.8125Q626.3063 90.96875 626.3063 89.390625ZM627.3844 89.390625Q627.3844 90.578125 627.9 91.171875Q628.4313 91.765625 629.2125 91.765625Q630.0094 91.765625 630.525 91.171875Q631.04065 90.578125 631.04065 89.359375Q631.04065 88.203125 630.5094 87.609375Q629.9938 87.015625 629.2125 87.015625Q628.4313 87.015625 627.9 87.609375Q627.3844 88.1875 627.3844 89.390625ZM633.275 89.921875L633.275 88.859375L636.525 88.859375L636.525 89.921875L633.275 89.921875ZM637.66565 92.5L637.66565 83.90625L638.72815 83.90625L638.72815 92.5L637.66565 92.5ZM640.3063 89.390625Q640.3063 87.65625 641.2594 86.828125Q642.0563 86.140625 643.2125 86.140625Q644.4938 86.140625 645.3063 86.984375Q646.1344 87.8125 646.1344 89.296875Q646.1344 90.5 645.775 91.1875Q645.41565 91.875 644.7125 92.265625Q644.025 92.640625 643.2125 92.640625Q641.91565 92.640625 641.10315 91.8125Q640.3063 90.96875 640.3063 89.390625ZM641.3844 89.390625Q641.3844 90.578125 641.9 91.171875Q642.4313 91.765625 643.2125 91.765625Q644.0094 91.765625 644.525 91.171875Q645.04065 90.578125 645.04065 89.359375Q645.04065 88.203125 644.5094 87.609375Q643.9938 87.015625 643.2125 87.015625Q642.4313 87.015625 641.9 87.609375Q641.3844 88.1875 641.3844 89.390625ZM651.7594 91.734375Q651.16565 92.234375 650.6188 92.4375Q650.0875 92.640625 649.4625 92.640625Q648.4313 92.640625 647.8844 92.140625Q647.3375 91.640625 647.3375 90.859375Q647.3375 90.40625 647.54065 90.03125Q647.7438 89.640625 648.0875 89.421875Q648.4313 89.1875 648.85315 89.078125Q649.15 88.984375 649.79065 88.90625Q651.0563 88.765625 651.66565 88.546875Q651.66565 88.328125 651.66565 88.28125Q651.66565 87.625 651.3688 87.359375Q650.9625 87.015625 650.16565 87.015625Q649.4313 87.015625 649.0719 87.28125Q648.7125 87.53125 648.54065 88.1875L647.5094 88.046875Q647.65 87.390625 647.97815 86.984375Q648.3063 86.578125 648.91565 86.359375Q649.525 86.140625 650.3219 86.140625Q651.1188 86.140625 651.6188 86.328125Q652.1188 86.515625 652.35315 86.796875Q652.5875 87.078125 652.6813 87.515625Q652.72815 87.78125 652.72815 88.484375L652.72815 89.890625Q652.72815 91.359375 652.79065 91.75Q652.8688 92.140625 653.0719 92.5L651.9625 92.5Q651.8063 92.171875 651.7594 91.734375ZM651.66565 89.375Q651.0875 89.609375 649.9469 89.78125Q649.29065 89.875 649.025 90.0Q648.7594 90.109375 648.60315 90.328125Q648.4625 90.546875 648.4625 90.828125Q648.4625 91.25 648.775 91.53125Q649.10315 91.8125 649.7125 91.8125Q650.3219 91.8125 650.79065 91.546875Q651.275 91.28125 651.4938 90.8125Q651.66565 90.453125 651.66565 89.765625L651.66565 89.375ZM658.72815 92.5L658.72815 91.71875Q658.1344 92.640625 656.9938 92.640625Q656.2438 92.640625 655.6188 92.234375Q654.9938 91.8125 654.65 91.078125Q654.3063 90.34375 654.3063 89.390625Q654.3063 88.46875 654.6188 87.703125Q654.9313 86.9375 655.5563 86.546875Q656.1813 86.140625 656.9469 86.140625Q657.5094 86.140625 657.9469 86.375Q658.3844 86.609375 658.66565 86.984375L658.66565 83.90625L659.7125 83.90625L659.7125 92.5L658.72815 92.5ZM655.4 89.390625Q655.4 90.59375 655.9 91.1875Q656.4 91.765625 657.0875 91.765625Q657.775 91.765625 658.2594 91.203125Q658.7438 90.640625 658.7438 89.484375Q658.7438 88.203125 658.2438 87.609375Q657.7594 87.015625 657.04065 87.015625Q656.3375 87.015625 655.8688 87.59375Q655.4 88.15625 655.4 89.390625ZM665.9469 90.5L667.04065 90.625Q666.79065 91.578125 666.0875 92.109375Q665.3844 92.640625 664.3063 92.640625Q662.9469 92.640625 662.1344 91.796875Q661.3375 90.953125 661.3375 89.4375Q661.3375 87.875 662.15 87.015625Q662.9625 86.140625 664.2438 86.140625Q665.4938 86.140625 666.275 86.984375Q667.0719 87.828125 667.0719 89.375Q667.0719 89.46875 667.0719 89.65625L662.4313 89.65625Q662.4938 90.6875 663.0094 91.234375Q663.525 91.765625 664.3063 91.765625Q664.8844 91.765625 665.29065 91.46875Q665.7125 91.15625 665.9469 90.5ZM662.4938 88.796875L665.9625 88.796875Q665.9 88.0 665.5719 87.609375Q665.0563 87.0 664.2594 87.0Q663.525 87.0 663.025 87.484375Q662.54065 87.96875 662.4938 88.796875ZM668.6813 92.5L668.6813 86.28125L669.6344 86.28125L669.6344 87.21875Q669.9938 86.5625 670.29065 86.359375Q670.60315 86.140625 670.97815 86.140625Q671.5094 86.140625 672.0563 86.46875L671.6969 87.453125Q671.3063 87.21875 670.9313 87.21875Q670.5719 87.21875 670.29065 87.4375Q670.025 87.640625 669.91565 88.015625Q669.72815 88.578125 669.72815 89.234375L669.72815 92.5L668.6813 92.5ZM672.275 89.921875L672.275 88.859375L675.525 88.859375L675.525 89.921875L672.275 89.921875ZM676.6969 94.890625L676.6969 86.28125L677.65 86.28125L677.65 87.078125Q677.9938 86.609375 678.41565 86.375Q678.85315 86.140625 679.4625 86.140625Q680.2594 86.140625 680.8688 86.546875Q681.47815 86.953125 681.775 87.703125Q682.0875 88.453125 682.0875 89.34375Q682.0875 90.296875 681.7438 91.0625Q681.41565 91.828125 680.7594 92.234375Q680.10315 92.640625 679.3844 92.640625Q678.85315 92.640625 678.4313 92.421875Q678.0094 92.1875 677.7438 91.859375L677.7438 94.890625L676.6969 94.890625ZM677.65 89.421875Q677.65 90.625 678.1344 91.203125Q678.6188 91.765625 679.3063 91.765625Q680.0094 91.765625 680.5094 91.171875Q681.0094 90.578125 681.0094 89.328125Q681.0094 88.140625 680.525 87.5625Q680.04065 86.96875 679.35315 86.96875Q678.6813 86.96875 678.16565 87.59375Q677.65 88.21875 677.65 89.421875ZM683.3063 89.390625Q683.3063 87.65625 684.2594 86.828125Q685.0563 86.140625 686.2125 86.140625Q687.4938 86.140625 688.3063 86.984375Q689.1344 87.8125 689.1344 89.296875Q689.1344 90.5 688.775 91.1875Q688.41565 91.875 687.7125 92.265625Q687.025 92.640625 686.2125 92.640625Q684.91565 92.640625 684.10315 91.8125Q683.3063 90.96875 683.3063 89.390625ZM684.3844 89.390625Q684.3844 90.578125 684.9 91.171875Q685.4313 91.765625 686.2125 91.765625Q687.0094 91.765625 687.525 91.171875Q688.04065 90.578125 688.04065 89.359375Q688.04065 88.203125 687.5094 87.609375Q686.9938 87.015625 686.2125 87.015625Q685.4313 87.015625 684.9 87.609375Q684.3844 88.1875 684.3844 89.390625ZM694.7594 90.21875L695.79065 90.359375Q695.6188 91.421875 694.91565 92.03125Q694.2125 92.640625 693.1969 92.640625Q691.91565 92.640625 691.1344 91.8125Q690.3688 90.96875 690.3688 89.40625Q690.3688 88.40625 690.6969 87.65625Q691.04065 86.890625 691.7125 86.515625Q692.4 86.140625 693.2125 86.140625Q694.2125 86.140625 694.85315 86.65625Q695.5094 87.15625 695.6969 88.109375L694.66565 88.265625Q694.525 87.640625 694.15 87.328125Q693.775 87.0 693.2438 87.0Q692.4469 87.0 691.9469 87.578125Q691.4469 88.140625 691.4469 89.375Q691.4469 90.640625 691.9313 91.203125Q692.41565 91.765625 693.1813 91.765625Q693.8063 91.765625 694.2125 91.390625Q694.6344 91.015625 694.7594 90.21875ZM696.6969 92.5L696.6969 83.90625L697.7594 83.90625L697.7594 88.8125L700.2438 86.28125L701.6188 86.28125L699.22815 88.578125L701.85315 92.5L700.5563 92.5L698.4938 89.3125L697.7594 90.03125L697.7594 92.5L696.6969 92.5ZM706.9469 90.5L708.04065 90.625Q707.79065 91.578125 707.0875 92.109375Q706.3844 92.640625 705.3063 92.640625Q703.9469 92.640625 703.1344 91.796875Q702.3375 90.953125 702.3375 89.4375Q702.3375 87.875 703.15 87.015625Q703.9625 86.140625 705.2438 86.140625Q706.4938 86.140625 707.275 86.984375Q708.0719 87.828125 708.0719 89.375Q708.0719 89.46875 708.0719 89.65625L703.4313 89.65625Q703.4938 90.6875 704.0094 91.234375Q704.525 91.765625 705.3063 91.765625Q705.8844 91.765625 706.29065 91.46875Q706.7125 91.15625 706.9469 90.5ZM703.4938 88.796875L706.9625 88.796875Q706.9 88.0 706.5719 87.609375Q706.0563 87.0 705.2594 87.0Q704.525 87.0 704.025 87.484375Q703.54065 87.96875 703.4938 88.796875ZM711.9938 91.5625L712.15 92.484375Q711.6969 92.578125 711.35315 92.578125Q710.775 92.578125 710.4625 92.40625Q710.15 92.21875 710.0094 91.921875Q709.8844 91.625 709.8844 90.671875L709.8844 87.09375L709.1188 87.09375L709.1188 86.28125L709.8844 86.28125L709.8844 84.734375L710.9313 84.109375L710.9313 86.28125L711.9938 86.28125L711.9938 87.09375L710.9313 87.09375L710.9313 90.734375Q710.9313 91.1875 710.97815 91.3125Q711.04065 91.4375 711.16565 91.515625Q711.29065 91.59375 711.525 91.59375Q711.7125 91.59375 711.9938 91.5625ZM713.66565 92.5L712.6813 92.5L712.6813 83.90625L713.7438 83.90625L713.7438 86.96875Q714.41565 86.140625 715.4469 86.140625Q716.025 86.140625 716.525 86.375Q717.04065 86.59375 717.3688 87.015625Q717.7125 87.4375 717.9 88.03125Q718.0875 88.625 718.0875 89.296875Q718.0875 90.890625 717.29065 91.765625Q716.4938 92.640625 715.4 92.640625Q714.29065 92.640625 713.66565 91.71875L713.66565 92.5ZM713.65 89.34375Q713.65 90.453125 713.9625 90.953125Q714.4625 91.765625 715.3063 91.765625Q715.9938 91.765625 716.4938 91.171875Q717.0094 90.578125 717.0094 89.375Q717.0094 88.15625 716.525 87.578125Q716.04065 87.0 715.35315 87.0Q714.66565 87.0 714.15 87.609375Q713.65 88.203125 713.65 89.34375ZM723.7594 91.734375Q723.16565 92.234375 722.6188 92.4375Q722.0875 92.640625 721.4625 92.640625Q720.4313 92.640625 719.8844 92.140625Q719.3375 91.640625 719.3375 90.859375Q719.3375 90.40625 719.54065 90.03125Q719.7438 89.640625 720.0875 89.421875Q720.4313 89.1875 720.85315 89.078125Q721.15 88.984375 721.79065 88.90625Q723.0563 88.765625 723.66565 88.546875Q723.66565 88.328125 723.66565 88.28125Q723.66565 87.625 723.3688 87.359375Q722.9625 87.015625 722.16565 87.015625Q721.4313 87.015625 721.0719 87.28125Q720.7125 87.53125 720.54065 88.1875L719.5094 88.046875Q719.65 87.390625 719.97815 86.984375Q720.3063 86.578125 720.91565 86.359375Q721.525 86.140625 722.3219 86.140625Q723.1188 86.140625 723.6188 86.328125Q724.1188 86.515625 724.35315 86.796875Q724.5875 87.078125 724.6813 87.515625Q724.72815 87.78125 724.72815 88.484375L724.72815 89.890625Q724.72815 91.359375 724.79065 91.75Q724.8688 92.140625 725.0719 92.5L723.9625 92.5Q723.8063 92.171875 723.7594 91.734375ZM723.66565 89.375Q723.0875 89.609375 721.9469 89.78125Q721.29065 89.875 721.025 90.0Q720.7594 90.109375 720.60315 90.328125Q720.4625 90.546875 720.4625 90.828125Q720.4625 91.25 720.775 91.53125Q721.10315 91.8125 721.7125 91.8125Q722.3219 91.8125 722.79065 91.546875Q723.275 91.28125 723.4938 90.8125Q723.66565 90.453125 723.66565 89.765625L723.66565 89.375ZM726.275 90.640625L727.3063 90.484375Q727.4 91.109375 727.79065 91.4375Q728.1969 91.765625 728.9313 91.765625Q729.65 91.765625 729.9938 91.484375Q730.35315 91.1875 730.35315 90.78125Q730.35315 90.421875 730.04065 90.21875Q729.8219 90.078125 728.9625 89.859375Q727.8063 89.5625 727.35315 89.359375Q726.91565 89.140625 726.6813 88.765625Q726.4469 88.390625 726.4469 87.921875Q726.4469 87.515625 726.6344 87.15625Q726.8219 86.796875 727.15 86.5625Q727.4 86.390625 727.8219 86.265625Q728.2438 86.140625 728.7438 86.140625Q729.4625 86.140625 730.0094 86.359375Q730.5719 86.5625 730.8375 86.921875Q731.10315 87.28125 731.1969 87.875L730.16565 88.015625Q730.10315 87.546875 729.7594 87.28125Q729.4313 87.0 728.8063 87.0Q728.0875 87.0 727.775 87.25Q727.4625 87.484375 727.4625 87.8125Q727.4625 88.015625 727.5875 88.171875Q727.72815 88.34375 727.9938 88.453125Q728.15 88.515625 728.9313 88.71875Q730.0563 89.03125 730.4938 89.21875Q730.9313 89.40625 731.1813 89.765625Q731.4313 90.125 731.4313 90.671875Q731.4313 91.203125 731.1188 91.671875Q730.8219 92.125 730.2438 92.390625Q729.66565 92.640625 728.9313 92.640625Q727.7125 92.640625 727.0719 92.140625Q726.4469 91.625 726.275 90.640625ZM737.9469 90.5L739.04065 90.625Q738.79065 91.578125 738.0875 92.109375Q737.3844 92.640625 736.3063 92.640625Q734.9469 92.640625 734.1344 91.796875Q733.3375 90.953125 733.3375 89.4375Q733.3375 87.875 734.15 87.015625Q734.9625 86.140625 736.2438 86.140625Q737.4938 86.140625 738.275 86.984375Q739.0719 87.828125 739.0719 89.375Q739.0719 89.46875 739.0719 89.65625L734.4313 89.65625Q734.4938 90.6875 735.0094 91.234375Q735.525 91.765625 736.3063 91.765625Q736.8844 91.765625 737.29065 91.46875Q737.7125 91.15625 737.9469 90.5ZM734.4938 88.796875L737.9625 88.796875Q737.9 88.0 737.5719 87.609375Q737.0563 87.0 736.2594 87.0Q735.525 87.0 735.025 87.484375Q734.54065 87.96875 734.4938 88.796875Z" fill-rule="nonzero"/><path fill="#93c5fd" d="M596.9 112.5C596.9 115.813705 594.2137 118.5 590.9 118.5C587.5863 118.5 584.9 115.813705 584.9 112.5C584.9 109.186295 587.5863 106.5 590.9 106.5C594.2137 106.5 596.9 109.186295 596.9 112.5Z" fill-rule="nonzero"/><path fill="#1a1a1a" d="M605.8844 116.5L605.8844 107.90625L611.6813 107.90625L611.6813 108.921875L607.025 108.921875L607.025 111.578125L611.0563 111.578125L611.0563 112.59375L607.025 112.59375L607.025 116.5L605.8844 116.5ZM612.3063 113.390625Q612.3063 111.65625 613.2594 110.828125Q614.0563 110.140625 615.2125 110.140625Q616.4938 110.140625 617.3063 110.984375Q618.1344 111.8125 618.1344 113.296875Q618.1344 114.5 617.775 115.1875Q617.41565 115.875 616.7125 116.265625Q616.025 116.640625 615.2125 116.640625Q613.91565 116.640625 613.10315 115.8125Q612.3063 114.96875 612.3063 113.390625ZM613.3844 113.390625Q613.3844 114.578125 613.9 115.171875Q614.4313 115.765625 615.2125 115.765625Q616.0094 115.765625 616.525 115.171875Q617.04065 114.578125 617.04065 113.359375Q617.04065 112.203125 616.5094 111.609375Q615.9938 111.015625 615.2125 111.015625Q614.4313 111.015625 613.9 111.609375Q613.3844 112.1875 613.3844 113.390625ZM619.6813 116.5L619.6813 110.28125L620.6344 110.28125L620.6344 111.21875Q620.9938 110.5625 621.29065 110.359375Q621.60315 110.140625 621.97815 110.140625Q622.5094 110.140625 623.0563 110.46875L622.6969 111.453125Q622.3063 111.21875 621.9313 111.21875Q621.5719 111.21875 621.29065 111.4375Q621.025 111.640625 620.91565 112.015625Q620.72815 112.578125 620.72815 113.234375L620.72815 116.5L619.6813 116.5ZM627.775 116.5L627.775 115.578125Q627.04065 116.640625 625.79065 116.640625Q625.2438 116.640625 624.7594 116.4375Q624.29065 116.21875 624.0563 115.90625Q623.8219 115.578125 623.72815 115.109375Q623.66565 114.8125 623.66565 114.125L623.66565 110.28125L624.72815 110.28125L624.72815 113.734375Q624.72815 114.546875 624.79065 114.84375Q624.8844 115.25 625.1969 115.5Q625.525 115.734375 626.0094 115.734375Q626.47815 115.734375 626.8844 115.5Q627.3063 115.25 627.47815 114.828125Q627.66565 114.40625 627.66565 113.609375L627.66565 110.28125L628.7125 110.28125L628.7125 116.5L627.775 116.5ZM630.6969 116.5L630.6969 110.28125L631.6344 110.28125L631.6344 111.15625Q631.9313 110.6875 632.41565 110.421875Q632.9 110.140625 633.525 110.140625Q634.2125 110.140625 634.65 110.421875Q635.10315 110.703125 635.275 111.21875Q636.025 110.140625 637.1969 110.140625Q638.1344 110.140625 638.6188 110.65625Q639.1188 111.15625 639.1188 112.234375L639.1188 116.5L638.0719 116.5L638.0719 112.578125Q638.0719 111.953125 637.9625 111.671875Q637.8688 111.390625 637.60315 111.21875Q637.3375 111.046875 636.9625 111.046875Q636.3063 111.046875 635.8688 111.484375Q635.4469 111.921875 635.4469 112.890625L635.4469 116.5L634.3844 116.5L634.3844 112.453125Q634.3844 111.75 634.1188 111.40625Q633.8688 111.046875 633.29065 111.046875Q632.8375 111.046875 632.4625 111.28125Q632.0875 111.515625 631.91565 111.96875Q631.7438 112.421875 631.7438 113.265625L631.7438 116.5L630.6969 116.5ZM644.9469 116.5L644.9469 111.09375L644.0094 111.09375L644.0094 110.28125L644.9469 110.28125L644.9469 109.609375Q644.9469 108.984375 645.0563 108.6875Q645.2125 108.265625 645.5875 108.015625Q645.97815 107.765625 646.66565 107.765625Q647.1188 107.765625 647.65 107.875L647.4938 108.78125Q647.16565 108.734375 646.8688 108.734375Q646.3844 108.734375 646.1813 108.9375Q645.9938 109.140625 645.9938 109.703125L645.9938 110.28125L647.2125 110.28125L647.2125 111.09375L645.9938 111.09375L645.9938 116.5L644.9469 116.5ZM651.775 116.5L651.775 115.578125Q651.04065 116.640625 649.79065 116.640625Q649.2438 116.640625 648.7594 116.4375Q648.29065 116.21875 648.0563 115.90625Q647.8219 115.578125 647.72815 115.109375Q647.66565 114.8125 647.66565 114.125L647.66565 110.28125L648.72815 110.28125L648.72815 113.734375Q648.72815 114.546875 648.79065 114.84375Q648.8844 115.25 649.1969 115.5Q649.525 115.734375 650.0094 115.734375Q650.47815 115.734375 650.8844 115.5Q651.3063 115.25 651.47815 114.828125Q651.66565 114.40625 651.66565 113.609375L651.66565 110.28125L652.7125 110.28125L652.7125 116.5L651.775 116.5ZM648.5563 109.0625L648.5563 107.859375L649.65 107.859375L649.65 109.0625L648.5563 109.0625ZM650.7438 109.0625L650.7438 107.859375L651.8375 107.859375L651.8375 109.0625L650.7438 109.0625ZM654.6813 116.5L654.6813 110.28125L655.6344 110.28125L655.6344 111.21875Q655.9938 110.5625 656.29065 110.359375Q656.60315 110.140625 656.97815 110.140625Q657.5094 110.140625 658.0563 110.46875L657.6969 111.453125Q657.3063 111.21875 656.9313 111.21875Q656.5719 111.21875 656.29065 111.4375Q656.025 111.640625 655.91565 112.015625Q655.72815 112.578125 655.72815 113.234375L655.72815 116.5L654.6813 116.5ZM660.8844 116.5L664.1813 107.90625L665.4 107.90625L668.91565 116.5L667.6344 116.5L666.6188 113.890625L663.04065 113.890625L662.0875 116.5L660.8844 116.5ZM663.3688 112.96875L666.275 112.96875L665.3844 110.59375Q664.9625 109.515625 664.775 108.8125Q664.60315 109.640625 664.3063 110.453125L663.3688 112.96875ZM668.6969 116.5L668.6969 110.28125L669.6344 110.28125L669.6344 111.15625Q670.3219 110.140625 671.6188 110.140625Q672.1813 110.140625 672.65 110.34375Q673.1344 110.546875 673.3688 110.875Q673.60315 111.203125 673.6969 111.640625Q673.7438 111.9375 673.7438 112.671875L673.7438 116.5L672.6969 116.5L672.6969 112.71875Q672.6969 112.0625 672.5719 111.75Q672.4469 111.4375 672.1344 111.25Q671.8219 111.046875 671.4 111.046875Q670.72815 111.046875 670.22815 111.484375Q669.7438 111.90625 669.7438 113.09375L669.7438 116.5L668.6969 116.5ZM677.9938 115.5625L678.15 116.484375Q677.6969 116.578125 677.35315 116.578125Q676.775 116.578125 676.4625 116.40625Q676.15 116.21875 676.0094 115.921875Q675.8844 115.625 675.8844 114.671875L675.8844 111.09375L675.1188 111.09375L675.1188 110.28125L675.8844 110.28125L675.8844 108.734375L676.9313 108.109375L676.9313 110.28125L677.9938 110.28125L677.9938 111.09375L676.9313 111.09375L676.9313 114.734375Q676.9313 115.1875 676.97815 115.3125Q677.04065 115.4375 677.16565 115.515625Q677.29065 115.59375 677.525 115.59375Q677.7125 115.59375 677.9938 115.5625ZM678.6969 109.125L678.6969 107.90625L679.7594 107.90625L679.7594 109.125L678.6969 109.125ZM678.6969 116.5L678.6969 110.28125L679.7594 110.28125L679.7594 116.5L678.6969 116.5ZM681.6969 116.5L681.6969 107.90625L682.7594 107.90625L682.7594 112.8125L685.2438 110.28125L686.6188 110.28125L684.22815 112.578125L686.85315 116.5L685.5563 116.5L683.4938 113.3125L682.7594 114.03125L682.7594 116.5L681.6969 116.5ZM691.9469 114.5L693.04065 114.625Q692.79065 115.578125 692.0875 116.109375Q691.3844 116.640625 690.3063 116.640625Q688.9469 116.640625 688.1344 115.796875Q687.3375 114.953125 687.3375 113.4375Q687.3375 111.875 688.15 111.015625Q688.9625 110.140625 690.2438 110.140625Q691.4938 110.140625 692.275 110.984375Q693.0719 111.828125 693.0719 113.375Q693.0719 113.46875 693.0719 113.65625L688.4313 113.65625Q688.4938 114.6875 689.0094 115.234375Q689.525 115.765625 690.3063 115.765625Q690.8844 115.765625 691.29065 115.46875Q691.7125 115.15625 691.9469 114.5ZM688.4938 112.796875L691.9625 112.796875Q691.9 112.0 691.5719 111.609375Q691.0563 111.0 690.2594 111.0Q689.525 111.0 689.025 111.484375Q688.54065 111.96875 688.4938 112.796875ZM701.775 116.5L701.775 115.578125Q701.04065 116.640625 699.79065 116.640625Q699.2438 116.640625 698.7594 116.4375Q698.29065 116.21875 698.0563 115.90625Q697.8219 115.578125 697.72815 115.109375Q697.66565 114.8125 697.66565 114.125L697.66565 110.28125L698.72815 110.28125L698.72815 113.734375Q698.72815 114.546875 698.79065 114.84375Q698.8844 115.25 699.1969 115.5Q699.525 115.734375 700.0094 115.734375Q700.47815 115.734375 700.8844 115.5Q701.3063 115.25 701.47815 114.828125Q701.66565 114.40625 701.66565 113.609375L701.66565 110.28125L702.7125 110.28125L702.7125 116.5L701.775 116.5ZM704.6969 116.5L704.6969 110.28125L705.6344 110.28125L705.6344 111.15625Q706.3219 110.140625 707.6188 110.140625Q708.1813 110.140625 708.65 110.34375Q709.1344 110.546875 709.3688 110.875Q709.60315 111.203125 709.6969 111.640625Q709.7438 111.9375 709.7438 112.671875L709.7438 116.5L708.6969 116.5L708.6969 112.71875Q708.6969 112.0625 708.5719 111.75Q708.4469 111.4375 708.1344 111.25Q707.8219 111.046875 707.4 111.046875Q706.72815 111.046875 706.22815 111.484375Q705.7438 111.90625 705.7438 113.09375L705.7438 116.5L704.6969 116.5ZM715.72815 116.5L715.72815 115.71875Q715.1344 116.640625 713.9938 116.640625Q713.2438 116.640625 712.6188 116.234375Q711.9938 115.8125 711.65 115.078125Q711.3063 114.34375 711.3063 113.390625Q711.3063 112.46875 711.6188 111.703125Q711.9313 110.9375 712.5563 110.546875Q713.1813 110.140625 713.9469 110.140625Q714.5094 110.140625 714.9469 110.375Q715.3844 110.609375 715.66565 110.984375L715.66565 107.90625L716.7125 107.90625L716.7125 116.5L715.72815 116.5ZM712.4 113.390625Q712.4 114.59375 712.9 115.1875Q713.4 115.765625 714.0875 115.765625Q714.775 115.765625 715.2594 115.203125Q715.7438 114.640625 715.7438 113.484375Q715.7438 112.203125 715.2438 111.609375Q714.7594 111.015625 714.04065 111.015625Q713.3375 111.015625 712.8688 111.59375Q712.4 112.15625 712.4 113.390625ZM725.85315 113.125L725.85315 112.125L729.47815 112.109375L729.47815 115.296875Q728.65 115.96875 727.7594 116.3125Q726.8688 116.640625 725.9313 116.640625Q724.66565 116.640625 723.6188 116.109375Q722.5875 115.5625 722.0563 114.546875Q721.54065 113.515625 721.54065 112.25Q721.54065 110.984375 722.0563 109.90625Q722.5875 108.8125 723.5719 108.296875Q724.5563 107.765625 725.8375 107.765625Q726.775 107.765625 727.525 108.0625Q728.275 108.359375 728.6969 108.90625Q729.1344 109.4375 729.35315 110.3125L728.3375 110.59375Q728.1344 109.9375 727.8375 109.5625Q727.5563 109.1875 727.025 108.96875Q726.4938 108.734375 725.85315 108.734375Q725.0719 108.734375 724.4938 108.96875Q723.9313 109.203125 723.5719 109.59375Q723.22815 109.984375 723.04065 110.453125Q722.7125 111.25 722.7125 112.171875Q722.7125 113.328125 723.10315 114.109375Q723.5094 114.875 724.2594 115.25Q725.0094 115.625 725.8688 115.625Q726.60315 115.625 727.3063 115.34375Q728.0094 115.046875 728.3688 114.734375L728.3688 113.125L725.85315 113.125ZM734.9469 114.5L736.04065 114.625Q735.79065 115.578125 735.0875 116.109375Q734.3844 116.640625 733.3063 116.640625Q731.9469 116.640625 731.1344 115.796875Q730.3375 114.953125 730.3375 113.4375Q730.3375 111.875 731.15 111.015625Q731.9625 110.140625 733.2438 110.140625Q734.4938 110.140625 735.275 110.984375Q736.0719 111.828125 736.0719 113.375Q736.0719 113.46875 736.0719 113.65625L731.4313 113.65625Q731.4938 114.6875 732.0094 115.234375Q732.525 115.765625 733.3063 115.765625Q733.8844 115.765625 734.29065 115.46875Q734.7125 115.15625 734.9469 114.5ZM731.4938 112.796875L734.9625 112.796875Q734.9 112.0 734.5719 111.609375Q734.0563 111.0 733.2594 111.0Q732.525 111.0 732.025 111.484375Q731.54065 111.96875 731.4938 112.796875ZM737.275 114.640625L738.3063 114.484375Q738.4 115.109375 738.79065 115.4375Q739.1969 115.765625 739.9313 115.765625Q740.65 115.765625 740.9938 115.484375Q741.35315 115.1875 741.35315 114.78125Q741.35315 114.421875 741.04065 114.21875Q740.8219 114.078125 739.9625 113.859375Q738.8063 113.5625 738.35315 113.359375Q737.91565 113.140625 737.6813 112.765625Q737.4469 112.390625 737.4469 111.921875Q737.4469 111.515625 737.6344 111.15625Q737.8219 110.796875 738.15 110.5625Q738.4 110.390625 738.8219 110.265625Q739.2438 110.140625 739.7438 110.140625Q740.4625 110.140625 741.0094 110.359375Q741.5719 110.5625 741.8375 110.921875Q742.10315 111.28125 742.1969 111.875L741.16565 112.015625Q741.10315 111.546875 740.7594 111.28125Q740.4313 111.0 739.8063 111.0Q739.0875 111.0 738.775 111.25Q738.4625 111.484375 738.4625 111.8125Q738.4625 112.015625 738.5875 112.171875Q738.72815 112.34375 738.9938 112.453125Q739.15 112.515625 739.9313 112.71875Q741.0563 113.03125 741.4938 113.21875Q741.9313 113.40625 742.1813 113.765625Q742.4313 114.125 742.4313 114.671875Q742.4313 115.203125 742.1188 115.671875Q741.8219 116.125 741.2438 116.390625Q740.66565 116.640625 739.9313 116.640625Q738.7125 116.640625 738.0719 116.140625Q737.4469 115.625 737.275 114.640625ZM748.9469 114.5L750.04065 114.625Q749.79065 115.578125 749.0875 116.109375Q748.3844 116.640625 747.3063 116.640625Q745.9469 116.640625 745.1344 115.796875Q744.3375 114.953125 744.3375 113.4375Q744.3375 111.875 745.15 111.015625Q745.9625 110.140625 747.2438 110.140625Q748.4938 110.140625 749.275 110.984375Q750.0719 111.828125 750.0719 113.375Q750.0719 113.46875 750.0719 113.65625L745.4313 113.65625Q745.4938 114.6875 746.0094 115.234375Q746.525 115.765625 747.3063 115.765625Q747.8844 115.765625 748.29065 115.46875Q748.7125 115.15625 748.9469 114.5ZM745.4938 112.796875L748.9625 112.796875Q748.9 112.0 748.5719 111.609375Q748.0563 111.0 747.2594 111.0Q746.525 111.0 746.025 111.484375Q745.54065 111.96875 745.4938 112.796875ZM751.66565 116.5L751.66565 107.90625L752.72815 107.90625L752.72815 116.5L751.66565 116.5ZM754.66565 116.5L754.66565 107.90625L755.72815 107.90625L755.72815 116.5L754.66565 116.5ZM757.275 114.640625L758.3063 114.484375Q758.4 115.109375 758.79065 115.4375Q759.1969 115.765625 759.9313 115.765625Q760.65 115.765625 760.9938 115.484375Q761.35315 115.1875 761.35315 114.78125Q761.35315 114.421875 761.04065 114.21875Q760.8219 114.078125 759.9625 113.859375Q758.8063 113.5625 758.35315 113.359375Q757.91565 113.140625 757.6813 112.765625Q757.4469 112.390625 757.4469 111.921875Q757.4469 111.515625 757.6344 111.15625Q757.8219 110.796875 758.15 110.5625Q758.4 110.390625 758.8219 110.265625Q759.2438 110.140625 759.7438 110.140625Q760.4625 110.140625 761.0094 110.359375Q761.5719 110.5625 761.8375 110.921875Q762.10315 111.28125 762.1969 111.875L761.16565 112.015625Q761.10315 111.546875 760.7594 111.28125Q760.4313 111.0 759.8063 111.0Q759.0875 111.0 758.775 111.25Q758.4625 111.484375 758.4625 111.8125Q758.4625 112.015625 758.5875 112.171875Q758.72815 112.34375 758.9938 112.453125Q759.15 112.515625 759.9313 112.71875Q761.0563 113.03125 761.4938 113.21875Q761.9313 113.40625 762.1813 113.765625Q762.4313 114.125 762.4313 114.671875Q762.4313 115.203125 762.1188 115.671875Q761.8219 116.125 761.2438 116.390625Q760.66565 116.640625 759.9313 116.640625Q758.7125 116.640625 758.0719 116.140625Q757.4469 115.625 757.275 114.640625ZM768.7594 114.21875L769.79065 114.359375Q769.6188 115.421875 768.91565 116.03125Q768.2125 116.640625 767.1969 116.640625Q765.91565 116.640625 765.1344 115.8125Q764.3688 114.96875 764.3688 113.40625Q764.3688 112.40625 764.6969 111.65625Q765.04065 110.890625 765.7125 110.515625Q766.4 110.140625 767.2125 110.140625Q768.2125 110.140625 768.85315 110.65625Q769.5094 111.15625 769.6969 112.109375L768.66565 112.265625Q768.525 111.640625 768.15 111.328125Q767.775 111.0 767.2438 111.0Q766.4469 111.0 765.9469 111.578125Q765.4469 112.140625 765.4469 113.375Q765.4469 114.640625 765.9313 115.203125Q766.41565 115.765625 767.1813 115.765625Q767.8063 115.765625 768.2125 115.390625Q768.6344 115.015625 768.7594 114.21875ZM770.6969 116.5L770.6969 107.90625L771.7438 107.90625L771.7438 110.984375Q772.47815 110.140625 773.60315 110.140625Q774.3063 110.140625 774.8063 110.421875Q775.3219 110.6875 775.54065 111.171875Q775.7594 111.640625 775.7594 112.5625L775.7594 116.5L774.7125 116.5L774.7125 112.5625Q774.7125 111.765625 774.3688 111.40625Q774.025 111.046875 773.4 111.046875Q772.9313 111.046875 772.5094 111.296875Q772.10315 111.53125 771.91565 111.953125Q771.7438 112.359375 771.7438 113.09375L771.7438 116.5L770.6969 116.5ZM781.7594 115.734375Q781.16565 116.234375 780.6188 116.4375Q780.0875 116.640625 779.4625 116.640625Q778.4313 116.640625 777.8844 116.140625Q777.3375 115.640625 777.3375 114.859375Q777.3375 114.40625 777.54065 114.03125Q777.7438 113.640625 778.0875 113.421875Q778.4313 113.1875 778.85315 113.078125Q779.15 112.984375 779.79065 112.90625Q781.0563 112.765625 781.66565 112.546875Q781.66565 112.328125 781.66565 112.28125Q781.66565 111.625 781.3688 111.359375Q780.9625 111.015625 780.16565 111.015625Q779.4313 111.015625 779.0719 111.28125Q778.7125 111.53125 778.54065 112.1875L777.5094 112.046875Q777.65 111.390625 777.97815 110.984375Q778.3063 110.578125 778.91565 110.359375Q779.525 110.140625 780.3219 110.140625Q781.1188 110.140625 781.6188 110.328125Q782.1188 110.515625 782.35315 110.796875Q782.5875 111.078125 782.6813 111.515625Q782.72815 111.78125 782.72815 112.484375L782.72815 113.890625Q782.72815 115.359375 782.79065 115.75Q782.8688 116.140625 783.0719 116.5L781.9625 116.5Q781.8063 116.171875 781.7594 115.734375ZM781.66565 113.375Q781.0875 113.609375 779.9469 113.78125Q779.29065 113.875 779.025 114.0Q778.7594 114.109375 778.60315 114.328125Q778.4625 114.546875 778.4625 114.828125Q778.4625 115.25 778.775 115.53125Q779.10315 115.8125 779.7125 115.8125Q780.3219 115.8125 780.79065 115.546875Q781.275 115.28125 781.4938 114.8125Q781.66565 114.453125 781.66565 113.765625L781.66565 113.375ZM784.9469 116.5L784.9469 111.09375L784.0094 111.09375L784.0094 110.28125L784.9469 110.28125L784.9469 109.609375Q784.9469 108.984375 785.0563 108.6875Q785.2125 108.265625 785.5875 108.015625Q785.97815 107.765625 786.66565 107.765625Q787.1188 107.765625 787.65 107.875L787.4938 108.78125Q787.16565 108.734375 786.8688 108.734375Q786.3844 108.734375 786.1813 108.9375Q785.9938 109.140625 785.9938 109.703125L785.9938 110.28125L787.2125 110.28125L787.2125 111.09375L785.9938 111.09375L785.9938 116.5L784.9469 116.5ZM789.9938 115.5625L790.15 116.484375Q789.6969 116.578125 789.35315 116.578125Q788.775 116.578125 788.4625 116.40625Q788.15 116.21875 788.0094 115.921875Q787.8844 115.625 787.8844 114.671875L787.8844 111.09375L787.1188 111.09375L787.1188 110.28125L787.8844 110.28125L787.8844 108.734375L788.9313 108.109375L788.9313 110.28125L789.9938 110.28125L789.9938 111.09375L788.9313 111.09375L788.9313 114.734375Q788.9313 115.1875 788.97815 115.3125Q789.04065 115.4375 789.16565 115.515625Q789.29065 115.59375 789.525 115.59375Q789.7125 115.59375 789.9938 115.5625Z" fill-rule="nonzero"/><path fill="#d946ef" d="M596.9 136.5C596.9 139.8137 594.2137 142.5 590.9 142.5C587.5863 142.5 584.9 139.8137 584.9 136.5C584.9 133.1863 587.5863 130.5 590.9 130.5C594.2137 130.5 596.9 133.1863 596.9 136.5Z" fill-rule="nonzero"/><path fill="#1a1a1a" d="M605.8375 140.5L605.8375 131.90625L609.65 131.90625Q610.8063 131.90625 611.4 132.14062Q611.9938 132.375 612.35315 132.96875Q612.7125 133.54688 612.7125 134.25Q612.7125 135.17188 612.1188 135.79688Q611.525 136.42188 610.29065 136.59375Q610.7438 136.8125 610.97815 137.01562Q611.47815 137.46875 611.91565 138.15625L613.41565 140.5L611.97815 140.5L610.85315 138.71875Q610.35315 137.9375 610.025 137.53125Q609.7125 137.125 609.4469 136.96875Q609.1969 136.79688 608.9313 136.71875Q608.7438 136.6875 608.3063 136.6875L606.97815 136.6875L606.97815 140.5L605.8375 140.5ZM606.97815 135.70312L609.4313 135.70312Q610.1969 135.70312 610.6344 135.54688Q611.0875 135.375 611.3063 135.03125Q611.54065 134.67188 611.54065 134.25Q611.54065 133.64062 611.0875 133.25Q610.65 132.85938 609.6969 132.85938L606.97815 132.85938L606.97815 135.70312ZM618.7594 139.73438Q618.16565 140.23438 617.6188 140.4375Q617.0875 140.64062 616.4625 140.64062Q615.4313 140.64062 614.8844 140.14062Q614.3375 139.64062 614.3375 138.85938Q614.3375 138.40625 614.54065 138.03125Q614.7438 137.64062 615.0875 137.42188Q615.4313 137.1875 615.85315 137.07812Q616.15 136.98438 616.79065 136.90625Q618.0563 136.76562 618.66565 136.54688Q618.66565 136.32812 618.66565 136.28125Q618.66565 135.625 618.3688 135.35938Q617.9625 135.01562 617.16565 135.01562Q616.4313 135.01562 616.0719 135.28125Q615.7125 135.53125 615.54065 136.1875L614.5094 136.04688Q614.65 135.39062 614.97815 134.98438Q615.3063 134.57812 615.91565 134.35938Q616.525 134.14062 617.3219 134.14062Q618.1188 134.14062 618.6188 134.32812Q619.1188 134.51562 619.35315 134.79688Q619.5875 135.07812 619.6813 135.51562Q619.72815 135.78125 619.72815 136.48438L619.72815 137.89062Q619.72815 139.35938 619.79065 139.75Q619.8688 140.14062 620.0719 140.5L618.9625 140.5Q618.8063 140.17188 618.7594 139.73438ZM618.66565 137.375Q618.0875 137.60938 616.9469 137.78125Q616.29065 137.875 616.025 138.0Q615.7594 138.10938 615.60315 138.32812Q615.4625 138.54688 615.4625 138.82812Q615.4625 139.25 615.775 139.53125Q616.10315 139.8125 616.7125 139.8125Q617.3219 139.8125 617.79065 139.54688Q618.275 139.28125 618.4938 138.8125Q618.66565 138.45312 618.66565 137.76562L618.66565 137.375ZM621.6969 140.5L621.6969 134.28125L622.6344 134.28125L622.6344 135.15625Q623.3219 134.14062 624.6188 134.14062Q625.1813 134.14062 625.65 134.34375Q626.1344 134.54688 626.3688 134.875Q626.60315 135.20312 626.6969 135.64062Q626.7438 135.9375 626.7438 136.67188L626.7438 140.5L625.6969 140.5L625.6969 136.71875Q625.6969 136.0625 625.5719 135.75Q625.4469 135.4375 625.1344 135.25Q624.8219 135.04688 624.4 135.04688Q623.72815 135.04688 623.22815 135.48438Q622.7438 135.90625 622.7438 137.09375L622.7438 140.5L621.6969 140.5ZM632.72815 140.5L632.72815 139.71875Q632.1344 140.64062 630.9938 140.64062Q630.2438 140.64062 629.6188 140.23438Q628.9938 139.8125 628.65 139.07812Q628.3063 138.34375 628.3063 137.39062Q628.3063 136.46875 628.6188 135.70312Q628.9313 134.9375 629.5563 134.54688Q630.1813 134.14062 630.9469 134.14062Q631.5094 134.14062 631.9469 134.375Q632.3844 134.60938 632.66565 134.98438L632.66565 131.90625L633.7125 131.90625L633.7125 140.5L632.72815 140.5ZM629.4 137.39062Q629.4 138.59375 629.9 139.1875Q630.4 139.76562 631.0875 139.76562Q631.775 139.76562 632.2594 139.20312Q632.7438 138.64062 632.7438 137.48438Q632.7438 136.20312 632.2438 135.60938Q631.7594 135.01562 631.04065 135.01562Q630.3375 135.01562 629.8688 135.59375Q629.4 136.15625 629.4 137.39062ZM635.3063 137.39062Q635.3063 135.65625 636.2594 134.82812Q637.0563 134.14062 638.2125 134.14062Q639.4938 134.14062 640.3063 134.98438Q641.1344 135.8125 641.1344 137.29688Q641.1344 138.5 640.775 139.1875Q640.41565 139.875 639.7125 140.26562Q639.025 140.64062 638.2125 140.64062Q636.91565 140.64062 636.10315 139.8125Q635.3063 138.96875 635.3063 137.39062ZM636.3844 137.39062Q636.3844 138.57812 636.9 139.17188Q637.4313 139.76562 638.2125 139.76562Q639.0094 139.76562 639.525 139.17188Q640.04065 138.57812 640.04065 137.35938Q640.04065 136.20312 639.5094 135.60938Q638.9938 135.01562 638.2125 135.01562Q637.4313 135.01562 636.9 135.60938Q636.3844 136.1875 636.3844 137.39062ZM642.6969 140.5L642.6969 134.28125L643.6344 134.28125L643.6344 135.15625Q643.9313 134.6875 644.41565 134.42188Q644.9 134.14062 645.525 134.14062Q646.2125 134.14062 646.65 134.42188Q647.10315 134.70312 647.275 135.21875Q648.025 134.14062 649.1969 134.14062Q650.1344 134.14062 650.6188 134.65625Q651.1188 135.15625 651.1188 136.23438L651.1188 140.5L650.0719 140.5L650.0719 136.57812Q650.0719 135.95312 649.9625 135.67188Q649.8688 135.39062 649.60315 135.21875Q649.3375 135.04688 648.9625 135.04688Q648.3063 135.04688 647.8688 135.48438Q647.4469 135.92188 647.4469 136.89062L647.4469 140.5L646.3844 140.5L646.3844 136.45312Q646.3844 135.75 646.1188 135.40625Q645.8688 135.04688 645.29065 135.04688Q644.8375 135.04688 644.4625 135.28125Q644.0875 135.51562 643.91565 135.96875Q643.7438 136.42188 643.7438 137.26562L643.7438 140.5L642.6969 140.5ZM653.4469 137.73438L654.5094 137.64062Q654.5875 138.29688 654.8688 138.70312Q655.15 139.10938 655.72815 139.375Q656.3219 139.625 657.0563 139.625Q657.6969 139.625 658.1969 139.4375Q658.6969 139.23438 658.9313 138.90625Q659.1813 138.5625 659.1813 138.17188Q659.1813 137.76562 658.9469 137.46875Q658.7125 137.15625 658.1813 136.95312Q657.8219 136.8125 656.6344 136.53125Q655.4625 136.25 654.9938 136.0Q654.3688 135.67188 654.0719 135.20312Q653.775 134.71875 653.775 134.125Q653.775 133.48438 654.1344 132.92188Q654.5094 132.34375 655.2125 132.0625Q655.9313 131.76562 656.79065 131.76562Q657.7438 131.76562 658.47815 132.07812Q659.2125 132.375 659.60315 132.98438Q659.9938 133.57812 660.025 134.32812L658.9313 134.40625Q658.8375 133.59375 658.3219 133.1875Q657.8219 132.76562 656.8375 132.76562Q655.8063 132.76562 655.3375 133.14062Q654.8688 133.51562 654.8688 134.04688Q654.8688 134.51562 655.1969 134.8125Q655.525 135.10938 656.9 135.42188Q658.29065 135.73438 658.8063 135.96875Q659.5563 136.32812 659.91565 136.85938Q660.275 137.375 660.275 138.07812Q660.275 138.76562 659.8844 139.375Q659.4938 139.96875 658.7594 140.3125Q658.025 140.64062 657.10315 140.64062Q655.9313 140.64062 655.1344 140.3125Q654.35315 139.96875 653.9 139.28125Q653.4625 138.59375 653.4469 137.73438ZM665.7594 139.73438Q665.16565 140.23438 664.6188 140.4375Q664.0875 140.64062 663.4625 140.64062Q662.4313 140.64062 661.8844 140.14062Q661.3375 139.64062 661.3375 138.85938Q661.3375 138.40625 661.54065 138.03125Q661.7438 137.64062 662.0875 137.42188Q662.4313 137.1875 662.85315 137.07812Q663.15 136.98438 663.79065 136.90625Q665.0563 136.76562 665.66565 136.54688Q665.66565 136.32812 665.66565 136.28125Q665.66565 135.625 665.3688 135.35938Q664.9625 135.01562 664.16565 135.01562Q663.4313 135.01562 663.0719 135.28125Q662.7125 135.53125 662.54065 136.1875L661.5094 136.04688Q661.65 135.39062 661.97815 134.98438Q662.3063 134.57812 662.91565 134.35938Q663.525 134.14062 664.3219 134.14062Q665.1188 134.14062 665.6188 134.32812Q666.1188 134.51562 666.35315 134.79688Q666.5875 135.07812 666.6813 135.51562Q666.72815 135.78125 666.72815 136.48438L666.72815 137.89062Q666.72815 139.35938 666.79065 139.75Q666.8688 140.14062 667.0719 140.5L665.9625 140.5Q665.8063 140.17188 665.7594 139.73438ZM665.66565 137.375Q665.0875 137.60938 663.9469 137.78125Q663.29065 137.875 663.025 138.0Q662.7594 138.10938 662.60315 138.32812Q662.4625 138.54688 662.4625 138.82812Q662.4625 139.25 662.775 139.53125Q663.10315 139.8125 663.7125 139.8125Q664.3219 139.8125 664.79065 139.54688Q665.275 139.28125 665.4938 138.8125Q665.66565 138.45312 665.66565 137.76562L665.66565 137.375ZM669.66565 140.5L668.6813 140.5L668.6813 131.90625L669.7438 131.90625L669.7438 134.96875Q670.41565 134.14062 671.4469 134.14062Q672.025 134.14062 672.525 134.375Q673.04065 134.59375 673.3688 135.01562Q673.7125 135.4375 673.9 136.03125Q674.0875 136.625 674.0875 137.29688Q674.0875 138.89062 673.29065 139.76562Q672.4938 140.64062 671.4 140.64062Q670.29065 140.64062 669.66565 139.71875L669.66565 140.5ZM669.65 137.34375Q669.65 138.45312 669.9625 138.95312Q670.4625 139.76562 671.3063 139.76562Q671.9938 139.76562 672.4938 139.17188Q673.0094 138.57812 673.0094 137.375Q673.0094 136.15625 672.525 135.57812Q672.04065 135.0 671.35315 135.0Q670.66565 135.0 670.15 135.60938Q669.65 136.20312 669.65 137.34375ZM679.9469 138.5L681.04065 138.625Q680.79065 139.57812 680.0875 140.10938Q679.3844 140.64062 678.3063 140.64062Q676.9469 140.64062 676.1344 139.79688Q675.3375 138.95312 675.3375 137.4375Q675.3375 135.875 676.15 135.01562Q676.9625 134.14062 678.2438 134.14062Q679.4938 134.14062 680.275 134.98438Q681.0719 135.82812 681.0719 137.375Q681.0719 137.46875 681.0719 137.65625L676.4313 137.65625Q676.4938 138.6875 677.0094 139.23438Q677.525 139.76562 678.3063 139.76562Q678.8844 139.76562 679.29065 139.46875Q679.7125 139.15625 679.9469 138.5ZM676.4938 136.79688L679.9625 136.79688Q679.9 136.0 679.5719 135.60938Q679.0563 135.0 678.2594 135.0Q677.525 135.0 677.025 135.48438Q676.54065 135.96875 676.4938 136.79688ZM682.6813 140.5L682.6813 134.28125L683.6344 134.28125L683.6344 135.21875Q683.9938 134.5625 684.29065 134.35938Q684.60315 134.14062 684.97815 134.14062Q685.5094 134.14062 686.0563 134.46875L685.6969 135.45312Q685.3063 135.21875 684.9313 135.21875Q684.5719 135.21875 684.29065 135.4375Q684.025 135.64062 683.91565 136.01562Q683.72815 136.57812 683.72815 137.23438L683.72815 140.5L682.6813 140.5Z" fill-rule="nonzero"/><path fill="#b6d7a8" d="M596.9 160.5C596.9 163.8137 594.2137 166.5 590.9 166.5C587.5863 166.5 584.9 163.8137 584.9 160.5C584.9 157.1863 587.5863 154.5 590.9 154.5C594.2137 154.5 596.9 157.1863 596.9 160.5Z" fill-rule="nonzero"/><path fill="#1a1a1a" d="M607.3219 164.5L605.04065 155.90625L606.2125 155.90625L607.525 161.54688Q607.72815 162.42188 607.8844 163.29688Q608.2125 161.92188 608.275 161.70312L609.9 155.90625L611.275 155.90625L612.5094 160.25Q612.9625 161.875 613.1813 163.29688Q613.3375 162.48438 613.60315 161.42188L614.9469 155.90625L616.0875 155.90625L613.7438 164.5L612.6344 164.5L610.8375 157.95312Q610.60315 157.14062 610.5563 156.95312Q610.4313 157.53125 610.3063 157.95312L608.4938 164.5L607.3219 164.5ZM616.3063 161.39062Q616.3063 159.65625 617.2594 158.82812Q618.0563 158.14062 619.2125 158.14062Q620.4938 158.14062 621.3063 158.98438Q622.1344 159.8125 622.1344 161.29688Q622.1344 162.5 621.775 163.1875Q621.41565 163.875 620.7125 164.26562Q620.025 164.64062 619.2125 164.64062Q617.91565 164.64062 617.10315 163.8125Q616.3063 162.96875 616.3063 161.39062ZM617.3844 161.39062Q617.3844 162.57812 617.9 163.17188Q618.4313 163.76562 619.2125 163.76562Q620.0094 163.76562 620.525 163.17188Q621.04065 162.57812 621.04065 161.35938Q621.04065 160.20312 620.5094 159.60938Q619.9938 159.01562 619.2125 159.01562Q618.4313 159.01562 617.9 159.60938Q617.3844 160.1875 617.3844 161.39062ZM623.6813 164.5L623.6813 158.28125L624.6344 158.28125L624.6344 159.21875Q624.9938 158.5625 625.29065 158.35938Q625.60315 158.14062 625.97815 158.14062Q626.5094 158.14062 627.0563 158.46875L626.6969 159.45312Q626.3063 159.21875 625.9313 159.21875Q625.5719 159.21875 625.29065 159.4375Q625.025 159.64062 624.91565 160.01562Q624.72815 160.57812 624.72815 161.23438L624.72815 164.5L623.6813 164.5ZM631.72815 164.5L631.72815 163.71875Q631.1344 164.64062 629.9938 164.64062Q629.2438 164.64062 628.6188 164.23438Q627.9938 163.8125 627.65 163.07812Q627.3063 162.34375 627.3063 161.39062Q627.3063 160.46875 627.6188 159.70312Q627.9313 158.9375 628.5563 158.54688Q629.1813 158.14062 629.9469 158.14062Q630.5094 158.14062 630.9469 158.375Q631.3844 158.60938 631.66565 158.98438L631.66565 155.90625L632.7125 155.90625L632.7125 164.5L631.72815 164.5ZM628.4 161.39062Q628.4 162.59375 628.9 163.1875Q629.4 163.76562 630.0875 163.76562Q630.775 163.76562 631.2594 163.20312Q631.7438 162.64062 631.7438 161.48438Q631.7438 160.20312 631.2438 159.60938Q630.7594 159.01562 630.04065 159.01562Q629.3375 159.01562 628.8688 159.59375Q628.4 160.15625 628.4 161.39062ZM640.9625 161.48438L642.0875 161.78125Q641.72815 163.17188 640.8063 163.90625Q639.8844 164.64062 638.54065 164.64062Q637.15 164.64062 636.275 164.07812Q635.4 163.51562 634.9469 162.45312Q634.4938 161.375 634.4938 160.14062Q634.4938 158.79688 635.0094 157.79688Q635.525 156.79688 636.4625 156.28125Q637.41565 155.76562 638.5563 155.76562Q639.8375 155.76562 640.7125 156.42188Q641.60315 157.07812 641.9469 158.26562L640.8219 158.53125Q640.525 157.59375 639.9469 157.17188Q639.3844 156.73438 638.525 156.73438Q637.54065 156.73438 636.8688 157.21875Q636.2125 157.6875 635.9313 158.48438Q635.66565 159.28125 635.66565 160.14062Q635.66565 161.23438 635.97815 162.04688Q636.3063 162.85938 636.97815 163.26562Q637.65 163.67188 638.4469 163.67188Q639.4 163.67188 640.0563 163.125Q640.72815 162.57812 640.9625 161.48438ZM643.3063 161.39062Q643.3063 159.65625 644.2594 158.82812Q645.0563 158.14062 646.2125 158.14062Q647.4938 158.14062 648.3063 158.98438Q649.1344 159.8125 649.1344 161.29688Q649.1344 162.5 648.775 163.1875Q648.41565 163.875 647.7125 164.26562Q647.025 164.64062 646.2125 164.64062Q644.91565 164.64062 644.10315 163.8125Q643.3063 162.96875 643.3063 161.39062ZM644.3844 161.39062Q644.3844 162.57812 644.9 163.17188Q645.4313 163.76562 646.2125 163.76562Q647.0094 163.76562 647.525 163.17188Q648.04065 162.57812 648.04065 161.35938Q648.04065 160.20312 647.5094 159.60938Q646.9938 159.01562 646.2125 159.01562Q645.4313 159.01562 644.9 159.60938Q644.3844 160.1875 644.3844 161.39062ZM654.7594 163.73438Q654.16565 164.23438 653.6188 164.4375Q653.0875 164.64062 652.4625 164.64062Q651.4313 164.64062 650.8844 164.14062Q650.3375 163.64062 650.3375 162.85938Q650.3375 162.40625 650.54065 162.03125Q650.7438 161.64062 651.0875 161.42188Q651.4313 161.1875 651.85315 161.07812Q652.15 160.98438 652.79065 160.90625Q654.0563 160.76562 654.66565 160.54688Q654.66565 160.32812 654.66565 160.28125Q654.66565 159.625 654.3688 159.35938Q653.9625 159.01562 653.16565 159.01562Q652.4313 159.01562 652.0719 159.28125Q651.7125 159.53125 651.54065 160.1875L650.5094 160.04688Q650.65 159.39062 650.97815 158.98438Q651.3063 158.57812 651.91565 158.35938Q652.525 158.14062 653.3219 158.14062Q654.1188 158.14062 654.6188 158.32812Q655.1188 158.51562 655.35315 158.79688Q655.5875 159.07812 655.6813 159.51562Q655.72815 159.78125 655.72815 160.48438L655.72815 161.89062Q655.72815 163.35938 655.79065 163.75Q655.8688 164.14062 656.0719 164.5L654.9625 164.5Q654.8063 164.17188 654.7594 163.73438ZM654.66565 161.375Q654.0875 161.60938 652.9469 161.78125Q652.29065 161.875 652.025 162.0Q651.7594 162.10938 651.60315 162.32812Q651.4625 162.54688 651.4625 162.82812Q651.4625 163.25 651.775 163.53125Q652.10315 163.8125 652.7125 163.8125Q653.3219 163.8125 653.79065 163.54688Q654.275 163.28125 654.4938 162.8125Q654.66565 162.45312 654.66565 161.76562L654.66565 161.375ZM661.7594 162.21875L662.79065 162.35938Q662.6188 163.42188 661.91565 164.03125Q661.2125 164.64062 660.1969 164.64062Q658.91565 164.64062 658.1344 163.8125Q657.3688 162.96875 657.3688 161.40625Q657.3688 160.40625 657.6969 159.65625Q658.04065 158.89062 658.7125 158.51562Q659.4 158.14062 660.2125 158.14062Q661.2125 158.14062 661.85315 158.65625Q662.5094 159.15625 662.6969 160.10938L661.66565 160.26562Q661.525 159.64062 661.15 159.32812Q660.775 159.0 660.2438 159.0Q659.4469 159.0 658.9469 159.57812Q658.4469 160.14062 658.4469 161.375Q658.4469 162.64062 658.9313 163.20312Q659.41565 163.76562 660.1813 163.76562Q660.8063 163.76562 661.2125 163.39062Q661.6344 163.01562 661.7594 162.21875ZM663.6969 164.5L663.6969 155.90625L664.7438 155.90625L664.7438 158.98438Q665.47815 158.14062 666.60315 158.14062Q667.3063 158.14062 667.8063 158.42188Q668.3219 158.6875 668.54065 159.17188Q668.7594 159.64062 668.7594 160.5625L668.7594 164.5L667.7125 164.5L667.7125 160.5625Q667.7125 159.76562 667.3688 159.40625Q667.025 159.04688 666.4 159.04688Q665.9313 159.04688 665.5094 159.29688Q665.10315 159.53125 664.91565 159.95312Q664.7438 160.35938 664.7438 161.09375L664.7438 164.5L663.6969 164.5Z" fill-rule="nonzero"/><path fill="#b7b7b7" d="M596.9 184.5C596.9 187.8137 594.2137 190.5 590.9 190.5C587.5863 190.5 584.9 187.8137 584.9 184.5C584.9 181.1863 587.5863 178.5 590.9 178.5C594.2137 178.5 596.9 181.1863 596.9 184.5Z" fill-rule="nonzero"/><path fill="#1a1a1a" d="M605.47815 184.3125Q605.47815 182.17188 606.6188 180.96875Q607.775 179.75 609.5875 179.75Q610.79065 179.75 611.7438 180.32812Q612.6969 180.89062 613.1969 181.90625Q613.6969 182.92188 613.6969 184.21875Q613.6969 185.51562 613.16565 186.54688Q612.6344 187.57812 611.66565 188.10938Q610.7125 188.64062 609.5875 188.64062Q608.3688 188.64062 607.41565 188.0625Q606.4625 187.46875 605.9625 186.46875Q605.47815 185.45312 605.47815 184.3125ZM606.65 184.32812Q606.65 185.89062 607.47815 186.78125Q608.3219 187.67188 609.5875 187.67188Q610.8688 187.67188 611.6969 186.78125Q612.525 185.875 612.525 184.20312Q612.525 183.15625 612.16565 182.375Q611.8219 181.59375 611.1344 181.17188Q610.4469 180.73438 609.60315 180.73438Q608.4 180.73438 607.525 181.5625Q606.65 182.39062 606.65 184.32812ZM616.9938 187.5625L617.15 188.48438Q616.6969 188.57812 616.35315 188.57812Q615.775 188.57812 615.4625 188.40625Q615.15 188.21875 615.0094 187.92188Q614.8844 187.625 614.8844 186.67188L614.8844 183.09375L614.1188 183.09375L614.1188 182.28125L614.8844 182.28125L614.8844 180.73438L615.9313 180.10938L615.9313 182.28125L616.9938 182.28125L616.9938 183.09375L615.9313 183.09375L615.9313 186.73438Q615.9313 187.1875 615.97815 187.3125Q616.04065 187.4375 616.16565 187.51562Q616.29065 187.59375 616.525 187.59375Q616.7125 187.59375 616.9938 187.5625ZM617.6969 188.5L617.6969 179.90625L618.7438 179.90625L618.7438 182.98438Q619.47815 182.14062 620.60315 182.14062Q621.3063 182.14062 621.8063 182.42188Q622.3219 182.6875 622.54065 183.17188Q622.7594 183.64062 622.7594 184.5625L622.7594 188.5L621.7125 188.5L621.7125 184.5625Q621.7125 183.76562 621.3688 183.40625Q621.025 183.04688 620.4 183.04688Q619.9313 183.04688 619.5094 183.29688Q619.10315 183.53125 618.91565 183.95312Q618.7438 184.35938 618.7438 185.09375L618.7438 188.5L617.6969 188.5ZM628.9469 186.5L630.04065 186.625Q629.79065 187.57812 629.0875 188.10938Q628.3844 188.64062 627.3063 188.64062Q625.9469 188.64062 625.1344 187.79688Q624.3375 186.95312 624.3375 185.4375Q624.3375 183.875 625.15 183.01562Q625.9625 182.14062 627.2438 182.14062Q628.4938 182.14062 629.275 182.98438Q630.0719 183.82812 630.0719 185.375Q630.0719 185.46875 630.0719 185.65625L625.4313 185.65625Q625.4938 186.6875 626.0094 187.23438Q626.525 187.76562 627.3063 187.76562Q627.8844 187.76562 628.29065 187.46875Q628.7125 187.15625 628.9469 186.5ZM625.4938 184.79688L628.9625 184.79688Q628.9 184.0 628.5719 183.60938Q628.0563 183.0 627.2594 183.0Q626.525 183.0 626.025 183.48438Q625.54065 183.96875 625.4938 184.79688ZM631.6813 188.5L631.6813 182.28125L632.6344 182.28125L632.6344 183.21875Q632.9938 182.5625 633.29065 182.35938Q633.60315 182.14062 633.97815 182.14062Q634.5094 182.14062 635.0563 182.46875L634.6969 183.45312Q634.3063 183.21875 633.9313 183.21875Q633.5719 183.21875 633.29065 183.4375Q633.025 183.64062 632.91565 184.01562Q632.72815 184.57812 632.72815 185.23438L632.72815 188.5L631.6813 188.5ZM635.275 186.64062L636.3063 186.48438Q636.4 187.10938 636.79065 187.4375Q637.1969 187.76562 637.9313 187.76562Q638.65 187.76562 638.9938 187.48438Q639.35315 187.1875 639.35315 186.78125Q639.35315 186.42188 639.04065 186.21875Q638.8219 186.07812 637.9625 185.85938Q636.8063 185.5625 636.35315 185.35938Q635.91565 185.14062 635.6813 184.76562Q635.4469 184.39062 635.4469 183.92188Q635.4469 183.51562 635.6344 183.15625Q635.8219 182.79688 636.15 182.5625Q636.4 182.39062 636.8219 182.26562Q637.2438 182.14062 637.7438 182.14062Q638.4625 182.14062 639.0094 182.35938Q639.5719 182.5625 639.8375 182.92188Q640.10315 183.28125 640.1969 183.875L639.16565 184.01562Q639.10315 183.54688 638.7594 183.28125Q638.4313 183.0 637.8063 183.0Q637.0875 183.0 636.775 183.25Q636.4625 183.48438 636.4625 183.8125Q636.4625 184.01562 636.5875 184.17188Q636.72815 184.34375 636.9938 184.45312Q637.15 184.51562 637.9313 184.71875Q639.0563 185.03125 639.4938 185.21875Q639.9313 185.40625 640.1813 185.76562Q640.4313 186.125 640.4313 186.67188Q640.4313 187.20312 640.1188 187.67188Q639.8219 188.125 639.2438 188.39062Q638.66565 188.64062 637.9313 188.64062Q636.7125 188.64062 636.0719 188.14062Q635.4469 187.625 635.275 186.64062Z" fill-rule="nonzero"/><path fill="#757575" d="M307.6875 39.1L307.6875 26.474998L302.96875 26.474998L302.96875 24.787498L314.3125 24.787498L314.3125 26.474998L309.57812 26.474998L309.57812 39.1L307.6875 39.1ZM315.17188 33.9125Q315.17188 31.037498 316.76562 29.646873Q318.10938 28.490623 320.03125 28.490623Q322.17188 28.490623 323.51562 29.896873Q324.875 31.303123 324.875 33.771873Q324.875 35.771873 324.28125 36.928123Q323.6875 38.06875 322.53125 38.709373Q321.39062 39.334373 320.03125 39.334373Q317.84375 39.334373 316.5 37.94375Q315.17188 36.5375 315.17188 33.9125ZM316.96875 33.9125Q316.96875 35.9125 317.82812 36.896873Q318.70312 37.88125 320.03125 37.88125Q321.34375 37.88125 322.20312 36.896873Q323.07812 35.896873 323.07812 33.85Q323.07812 31.928123 322.20312 30.943748Q321.32812 29.943748 320.03125 29.943748Q318.70312 29.943748 317.82812 30.943748Q316.96875 31.928123 316.96875 33.9125ZM326.8125 43.06875L326.8125 28.724998L328.42188 28.724998L328.42188 30.068748Q328.98438 29.287498 329.6875 28.896873Q330.40625 28.490623 331.42188 28.490623Q332.75 28.490623 333.76562 29.178123Q334.78125 29.865623 335.29688 31.115623Q335.82812 32.35 335.82812 33.834373Q335.82812 35.428123 335.25 36.709373Q334.6875 37.975 333.59375 38.6625Q332.5 39.334373 331.29688 39.334373Q330.42188 39.334373 329.71875 38.959373Q329.03125 38.584373 328.57812 38.021873L328.57812 43.06875L326.8125 43.06875ZM328.40625 33.975Q328.40625 35.975 329.21875 36.928123Q330.03125 37.88125 331.1875 37.88125Q332.35938 37.88125 333.1875 36.896873Q334.03125 35.9125 334.03125 33.81875Q334.03125 31.849998 333.20312 30.865623Q332.39062 29.865623 331.26562 29.865623Q330.14062 29.865623 329.26562 30.928123Q328.40625 31.974998 328.40625 33.975ZM343.32812 35.35L345.17188 35.19375Q345.375 36.5375 346.125 37.225Q346.875 37.896873 347.9375 37.896873Q349.20312 37.896873 350.07812 36.94375Q350.95312 35.990623 350.95312 34.396873Q350.95312 32.896873 350.10938 32.0375Q349.26562 31.162498 347.90625 31.162498Q347.04688 31.162498 346.35938 31.553123Q345.6875 31.928123 345.29688 32.553123L343.64062 32.334373L345.03125 24.974998L352.15625 24.974998L352.15625 26.662498L346.4375 26.662498L345.67188 30.506248Q346.95312 29.599998 348.375 29.599998Q350.25 29.599998 351.53125 30.912498Q352.82812 32.209373 352.82812 34.240623Q352.82812 36.19375 351.6875 37.6Q350.3125 39.35 347.9375 39.35Q345.98438 39.35 344.73438 38.25625Q343.5 37.1625 343.32812 35.35ZM360.8125 43.06875L360.8125 28.724998L362.42188 28.724998L362.42188 30.068748Q362.98438 29.287498 363.6875 28.896873Q364.40625 28.490623 365.42188 28.490623Q366.75 28.490623 367.76562 29.178123Q368.78125 29.865623 369.29688 31.115623Q369.82812 32.35 369.82812 33.834373Q369.82812 35.428123 369.25 36.709373Q368.6875 37.975 367.59375 38.6625Q366.5 39.334373 365.29688 39.334373Q364.42188 39.334373 363.71875 38.959373Q363.03125 38.584373 362.57812 38.021873L362.57812 43.06875L360.8125 43.06875ZM362.40625 33.975Q362.40625 35.975 363.21875 36.928123Q364.03125 37.88125 365.1875 37.88125Q366.35938 37.88125 367.1875 36.896873Q368.03125 35.9125 368.03125 33.81875Q368.03125 31.849998 367.20312 30.865623Q366.39062 29.865623 365.26562 29.865623Q364.14062 29.865623 363.26562 30.928123Q362.40625 31.974998 362.40625 33.975ZM371.79688 39.1L371.79688 28.724998L373.375 28.724998L373.375 30.303123Q373.98438 29.193748 374.5 28.849998Q375.01562 28.490623 375.625 28.490623Q376.51562 28.490623 377.4375 29.053123L376.82812 30.693748Q376.1875 30.303123 375.54688 30.303123Q374.96875 30.303123 374.5 30.662498Q374.04688 31.006248 373.84375 31.615623Q373.5625 32.553123 373.5625 33.6625L373.5625 39.1L371.79688 39.1ZM378.17188 33.9125Q378.17188 31.037498 379.76562 29.646873Q381.10938 28.490623 383.03125 28.490623Q385.17188 28.490623 386.51562 29.896873Q387.875 31.303123 387.875 33.771873Q387.875 35.771873 387.28125 36.928123Q386.6875 38.06875 385.53125 38.709373Q384.39062 39.334373 383.03125 39.334373Q380.84375 39.334373 379.5 37.94375Q378.17188 36.5375 378.17188 33.9125ZM379.96875 33.9125Q379.96875 35.9125 380.82812 36.896873Q381.70312 37.88125 383.03125 37.88125Q384.34375 37.88125 385.20312 36.896873Q386.07812 35.896873 386.07812 33.85Q386.07812 31.928123 385.20312 30.943748Q384.32812 29.943748 383.03125 29.943748Q381.70312 29.943748 380.82812 30.943748Q379.96875 31.928123 379.96875 33.9125ZM389.8125 26.818748L389.8125 24.787498L391.5625 24.787498L391.5625 26.818748L389.8125 26.818748ZM387.57812 43.13125L387.90625 41.63125Q388.4375 41.771873 388.75 41.771873Q389.28125 41.771873 389.54688 41.4125Q389.8125 41.053123 389.8125 39.63125L389.8125 28.724998L391.5625 28.724998L391.5625 39.6625Q391.5625 41.584373 391.0625 42.334373Q390.4375 43.303123 388.95312 43.303123Q388.25 43.303123 387.57812 43.13125ZM400.92188 35.75625L402.73438 35.990623Q402.3125 37.56875 401.14062 38.459373Q399.98438 39.334373 398.17188 39.334373Q395.90625 39.334373 394.5625 37.94375Q393.23438 36.5375 393.23438 34.00625Q393.23438 31.381248 394.57812 29.943748Q395.92188 28.490623 398.07812 28.490623Q400.15625 28.490623 401.46875 29.912498Q402.79688 31.318748 402.79688 33.896873Q402.79688 34.053123 402.78125 34.365623L395.04688 34.365623Q395.14062 36.06875 396.01562 36.975Q396.89062 37.88125 398.1875 37.88125Q399.15625 37.88125 399.82812 37.38125Q400.51562 36.865623 400.92188 35.75625ZM395.14062 32.9125L400.9375 32.9125Q400.82812 31.615623 400.28125 30.959373Q399.4375 29.943748 398.09375 29.943748Q396.89062 29.943748 396.0625 30.756248Q395.23438 31.553123 395.14062 32.9125ZM411.59375 35.303123L413.3125 35.521873Q413.03125 37.31875 411.85938 38.334373Q410.70312 39.334373 409.0 39.334373Q406.875 39.334373 405.57812 37.94375Q404.28125 36.553123 404.28125 33.959373Q404.28125 32.271873 404.82812 31.021873Q405.39062 29.756248 406.53125 29.131248Q407.67188 28.490623 409.01562 28.490623Q410.70312 28.490623 411.76562 29.349998Q412.84375 30.209373 413.15625 31.771873L411.4375 32.0375Q411.20312 30.990623 410.57812 30.474998Q409.95312 29.943748 409.07812 29.943748Q407.75 29.943748 406.92188 30.896873Q406.09375 31.849998 406.09375 33.896873Q406.09375 35.990623 406.89062 36.94375Q407.6875 37.88125 408.98438 37.88125Q410.01562 37.88125 410.70312 37.25625Q411.40625 36.615623 411.59375 35.303123ZM418.65625 37.521873L418.90625 39.084373Q418.17188 39.240623 417.57812 39.240623Q416.625 39.240623 416.09375 38.94375Q415.57812 38.63125 415.35938 38.146873Q415.14062 37.646873 415.14062 36.06875L415.14062 30.099998L413.85938 30.099998L413.85938 28.724998L415.14062 28.724998L415.14062 26.162498L416.89062 25.099998L416.89062 28.724998L418.65625 28.724998L418.65625 30.099998L416.89062 30.099998L416.89062 36.1625Q416.89062 36.9125 416.98438 37.13125Q417.07812 37.334373 417.28125 37.475Q417.5 37.6 417.89062 37.6Q418.17188 37.6 418.65625 37.521873ZM420.10938 36.00625L421.85938 35.725Q422.0 36.771873 422.67188 37.334373Q423.34375 37.88125 424.54688 37.88125Q425.75 37.88125 426.32812 37.396873Q426.92188 36.896873 426.92188 36.240623Q426.92188 35.646873 426.40625 35.303123Q426.04688 35.06875 424.60938 34.709373Q422.67188 34.209373 421.92188 33.865623Q421.1875 33.50625 420.79688 32.88125Q420.40625 32.240623 420.40625 31.474998Q420.40625 30.787498 420.71875 30.193748Q421.04688 29.599998 421.59375 29.209373Q422.0 28.912498 422.70312 28.709373Q423.42188 28.490623 424.23438 28.490623Q425.45312 28.490623 426.375 28.849998Q427.29688 29.193748 427.73438 29.803123Q428.17188 30.396873 428.34375 31.396873L426.625 31.631248Q426.5 30.834373 425.9375 30.396873Q425.375 29.943748 424.35938 29.943748Q423.14062 29.943748 422.625 30.349998Q422.10938 30.740623 422.10938 31.271873Q422.10938 31.615623 422.32812 31.896873Q422.53125 32.178123 423.0 32.365623Q423.26562 32.459373 424.54688 32.803123Q426.42188 33.303123 427.15625 33.63125Q427.89062 33.94375 428.3125 34.553123Q428.73438 35.146873 428.73438 36.053123Q428.73438 36.928123 428.21875 37.709373Q427.70312 38.490623 426.73438 38.9125Q425.76562 39.334373 424.54688 39.334373Q422.53125 39.334373 421.46875 38.490623Q420.40625 37.646873 420.10938 36.00625ZM438.4375 39.1L436.8125 39.1L436.8125 24.787498L438.5625 24.787498L438.5625 29.896873Q439.6875 28.490623 441.40625 28.490623Q442.35938 28.490623 443.21875 28.881248Q444.07812 29.271873 444.625 29.974998Q445.17188 30.662498 445.48438 31.646873Q445.79688 32.63125 445.79688 33.75625Q445.79688 36.428123 444.48438 37.88125Q443.17188 39.334373 441.32812 39.334373Q439.48438 39.334373 438.4375 37.803123L438.4375 39.1ZM438.42188 33.834373Q438.42188 35.69375 438.92188 36.5375Q439.76562 37.88125 441.17188 37.88125Q442.32812 37.88125 443.15625 36.88125Q444.0 35.88125 444.0 33.896873Q444.0 31.865623 443.1875 30.912498Q442.39062 29.943748 441.25 29.943748Q440.09375 29.943748 439.25 30.943748Q438.42188 31.943748 438.42188 33.834373ZM447.73438 43.1L447.54688 41.44375Q448.125 41.6 448.54688 41.6Q449.14062 41.6 449.48438 41.396873Q449.84375 41.209373 450.0625 40.865623Q450.23438 40.6 450.60938 39.553123Q450.65625 39.396873 450.76562 39.115623L446.82812 28.724998L448.71875 28.724998L450.875 34.740623Q451.29688 35.88125 451.625 37.13125Q451.9375 35.928123 452.34375 34.771873L454.5625 28.724998L456.32812 28.724998L452.375 39.271873Q451.75 40.990623 451.39062 41.63125Q450.92188 42.50625 450.3125 42.896873Q449.71875 43.303123 448.875 43.303123Q448.35938 43.303123 447.73438 43.1ZM466.70312 39.1L462.75 28.724998L464.60938 28.724998L466.84375 34.94375Q467.20312 35.94375 467.5 37.021873Q467.73438 36.209373 468.15625 35.053123L470.45312 28.724998L472.26562 28.724998L468.34375 39.1L466.70312 39.1ZM472.82812 26.803123L472.82812 24.787498L474.59375 24.787498L474.59375 26.803123L472.82812 26.803123ZM472.82812 39.1L472.82812 28.724998L474.59375 28.724998L474.59375 39.1L472.82812 39.1ZM483.92188 35.75625L485.73438 35.990623Q485.3125 37.56875 484.14062 38.459373Q482.98438 39.334373 481.17188 39.334373Q478.90625 39.334373 477.5625 37.94375Q476.23438 36.5375 476.23438 34.00625Q476.23438 31.381248 477.57812 29.943748Q478.92188 28.490623 481.07812 28.490623Q483.15625 28.490623 484.46875 29.912498Q485.79688 31.318748 485.79688 33.896873Q485.79688 34.053123 485.78125 34.365623L478.04688 34.365623Q478.14062 36.06875 479.01562 36.975Q479.89062 37.88125 481.1875 37.88125Q482.15625 37.88125 482.82812 37.38125Q483.51562 36.865623 483.92188 35.75625ZM478.14062 32.9125L483.9375 32.9125Q483.82812 31.615623 483.28125 30.959373Q482.4375 29.943748 481.09375 29.943748Q479.89062 29.943748 479.0625 30.756248Q478.23438 31.553123 478.14062 32.9125ZM489.73438 39.1L486.5625 28.724998L488.375 28.724998L490.03125 34.709373L490.64062 36.94375Q490.6875 36.771873 491.17188 34.803123L492.82812 28.724998L494.64062 28.724998L496.1875 34.740623L496.70312 36.725L497.29688 34.725L499.07812 28.724998L500.78125 28.724998L497.54688 39.1L495.71875 39.1L494.0625 32.88125L493.67188 31.115623L491.5625 39.1L489.73438 39.1ZM502.10938 36.00625L503.85938 35.725Q504.0 36.771873 504.67188 37.334373Q505.34375 37.88125 506.54688 37.88125Q507.75 37.88125 508.32812 37.396873Q508.92188 36.896873 508.92188 36.240623Q508.92188 35.646873 508.40625 35.303123Q508.04688 35.06875 506.60938 34.709373Q504.67188 34.209373 503.92188 33.865623Q503.1875 33.50625 502.79688 32.88125Q502.40625 32.240623 502.40625 31.474998Q502.40625 30.787498 502.71875 30.193748Q503.04688 29.599998 503.59375 29.209373Q504.0 28.912498 504.70312 28.709373Q505.42188 28.490623 506.23438 28.490623Q507.45312 28.490623 508.375 28.849998Q509.29688 29.193748 509.73438 29.803123Q510.17188 30.396873 510.34375 31.396873L508.625 31.631248Q508.5 30.834373 507.9375 30.396873Q507.375 29.943748 506.35938 29.943748Q505.14062 29.943748 504.625 30.349998Q504.10938 30.740623 504.10938 31.271873Q504.10938 31.615623 504.32812 31.896873Q504.53125 32.178123 505.0 32.365623Q505.26562 32.459373 506.54688 32.803123Q508.42188 33.303123 509.15625 33.63125Q509.89062 33.94375 510.3125 34.553123Q510.73438 35.146873 510.73438 36.053123Q510.73438 36.928123 510.21875 37.709373Q509.70312 38.490623 508.73438 38.9125Q507.76562 39.334373 506.54688 39.334373Q504.53125 39.334373 503.46875 38.490623Q502.40625 37.646873 502.10938 36.00625Z" fill-rule="nonzero"/></svg>