<?xml version="1.0" encoding="UTF-8"?>
<svg id="Ebene_1" data-name="Ebene 1" xmlns="http://www.w3.org/2000/svg" xmlns:xlink="http://www.w3.org/1999/xlink" viewBox="0 0 200 200">
  <defs>
    <linearGradient id="Unbenannter_Verlauf_2" data-name="Unbenannter Verlauf 2" x1="20.7649" y1="102" x2="179.2351" y2="102" gradientTransform="translate(0 202) scale(1 -1)" gradientUnits="userSpaceOnUse">
      <stop offset=".0601" stop-color="#2981cc"/>
      <stop offset=".8632" stop-color="#6d28d9"/>
    </linearGradient>
  </defs>
  <path d="M106.1267,33.9398c0-21.1545,8.4934-26.6623,17.5082-23.1648,9.4619,3.6707,17.316,13.8162,17.316,26.6098s-7.6464,19.7199-17.316,19.7199-17.5082-2.1967-17.5082-23.1648ZM76.365,57.1047c9.6695,0,17.5082-2.1963,17.5082-23.1648.0001-21.1545-8.4932-26.6623-17.5082-23.1648-9.4619,3.6707-17.3159,13.8162-17.3159,26.6098s7.6464,19.7199,17.3159,19.7199ZM167.8053,39.1434c-12.763,4.0488-18.7337,16.2769-19.9667,23.5266-1.8914,11.1204,7.1694,17.3217,15.6949,17.3217s13.025-5.8175,15.206-16.8846c1.9821-10.0586-2.0443-26.7839-10.9342-23.9637ZM52.1614,62.6697c-1.233-7.2498-7.2039-19.4778-19.9669-23.5266-8.8896-2.82-12.9161,13.9054-10.934,23.9638,2.1809,11.0671,6.6804,16.8846,15.2059,16.8846s17.5863-6.2016,15.695-17.3219h0ZM77.0364,99.6312c15.676-13.5891,39.4-11.8972,52.989,3.7788l18.5895-16.1422c-11.8153-13.6209-28.9613-21.4427-46.9928-21.4374-34.3438.0102-62.1764,27.8596-62.1663,62.2031.0102,34.3436,27.8596,62.1764,62.2031,62.1662,18.0188-.0035,35.1498-7.8241,46.9559-21.4362l-18.5895-16.1434c-1.1683,1.3477-2.4311,2.6104-3.7788,3.7788-15.676,13.5891-39.4,11.8972-52.989-3.7788s-11.8972-39.4,3.7788-52.989h.0001Z" style="fill: url(#Unbenannter_Verlauf_2);"/>
</svg>