<?xml version="1.0" encoding="UTF-8" standalone="no"?>
<svg
   id="Ebene_1"
   data-name="Ebene 1"
   viewBox="0 0 200 200"
   version="1.1"
   width="200"
   height="200"
   xmlns="http://www.w3.org/2000/svg"
   xmlns:svg="http://www.w3.org/2000/svg">
  <defs
     id="defs2">
    <linearGradient
       id="Unbenannter_Verlauf_2"
       data-name="Unbenannter Verlauf 2"
       x1="28.188614"
       y1="135.48621"
       x2="171.8114"
       y2="68.513802"
       gradientTransform="matrix(1,0,0,-1,0,202)"
       gradientUnits="userSpaceOnUse">
      <stop
         offset="0.0601"
         stop-color="#2981cc"
         id="stop1"
         style="stop-color:#38bdf8;stop-opacity:1;" />
      <stop
         offset="0.86320001"
         stop-color="#6d28d9"
         id="stop2"
         style="stop-color:#8b5cf6;stop-opacity:1;" />
    </linearGradient>
  </defs>
  <rect
     style="fill:#ffffff;fill-opacity:1"
     id="rect2"
     width="200"
     height="200"
     x="0"
     y="0"
     rx="30"
     ry="30" />
  <path
     d="m 106.1267,33.9398 c 0,-21.1545 8.4934,-26.6623 17.5082,-23.1648 9.4619,3.6707 17.316,13.8162 17.316,26.6098 0,12.7936 -7.6464,19.7199 -17.316,19.7199 -9.6696,0 -17.5082,-2.1967 -17.5082,-23.1648 z M 76.365,57.1047 c 9.6695,0 17.5082,-2.1963 17.5082,-23.1648 C 93.8733,12.7854 85.38,7.2776 76.365,10.7751 66.9031,14.4458 59.0491,24.5913 59.0491,37.3849 c 0,12.7936 7.6464,19.7199 17.3159,19.7199 z m 91.4403,-17.9613 c -12.763,4.0488 -18.7337,16.2769 -19.9667,23.5266 -1.8914,11.1204 7.1694,17.3217 15.6949,17.3217 8.5255,0 13.025,-5.8175 15.206,-16.8846 1.9821,-10.0586 -2.0443,-26.7839 -10.9342,-23.9637 z M 52.1614,62.6697 c -1.233,-7.2498 -7.2039,-19.4778 -19.9669,-23.5266 -8.8896,-2.82 -12.9161,13.9054 -10.934,23.9638 2.1809,11.0671 6.6804,16.8846 15.2059,16.8846 8.5255,0 17.5863,-6.2016 15.695,-17.3219 v 0 z m 24.875,36.9615 c 15.676,-13.5891 39.4,-11.8972 52.989,3.7788 L 148.6149,87.2678 C 136.7996,73.6469 119.6536,65.8251 101.6221,65.8304 67.2783,65.8406 39.4457,93.69 39.4558,128.0335 c 0.0102,34.3436 27.8596,62.1764 62.2031,62.1662 18.0188,-0.004 35.1498,-7.8241 46.9559,-21.4362 l -18.5895,-16.1434 c -1.1683,1.3477 -2.4311,2.6104 -3.7788,3.7788 -15.676,13.5891 -39.4,11.8972 -52.989,-3.7788 -13.589,-15.676 -11.8972,-39.4 3.7788,-52.989 h 1e-4 z"
     style="fill:url(#Unbenannter_Verlauf_2)"
     id="path2" />
</svg>
