<svg xmlns="http://www.w3.org/2000/svg" width="200" height="200" viewBox="0 0 200 200"><defs><linearGradient id="a" x1="28.189" x2="171.811" y1="135.486" y2="68.514" gradientTransform="matrix(1 0 0 -1 0 202)" gradientUnits="userSpaceOnUse"><stop offset=".06" stop-color="#2981cc" style="stop-color:#38bdf8;stop-opacity:1"/><stop offset=".863" stop-color="#6d28d9" style="stop-color:#8b5cf6;stop-opacity:1"/></linearGradient></defs><rect width="200" height="200" rx="30" ry="30" style="fill:#fff;fill-opacity:1"/><path d="M106.127 33.94c0-21.155 8.493-26.662 17.508-23.165 9.462 3.67 17.316 13.816 17.316 26.61s-7.647 19.72-17.316 19.72c-9.67 0-17.508-2.197-17.508-23.165M76.365 57.105c9.67 0 17.508-2.197 17.508-23.165 0-21.155-8.493-26.662-17.508-23.165-9.462 3.67-17.316 13.816-17.316 26.61s7.647 19.72 17.316 19.72m91.44-17.962c-12.763 4.05-18.733 16.277-19.966 23.527-1.892 11.12 7.169 17.322 15.694 17.322s13.025-5.818 15.206-16.885c1.983-10.058-2.044-26.784-10.934-23.964M52.161 62.67c-1.233-7.25-7.204-19.478-19.966-23.527-8.89-2.82-12.917 13.906-10.934 23.964 2.18 11.067 6.68 16.885 15.205 16.885S54.053 73.79 52.161 62.67m24.875 36.96c15.676-13.589 39.4-11.897 52.99 3.779l18.589-16.142a62.2 62.2 0 0 0-46.993-21.438c-34.344.01-62.176 27.86-62.166 62.204s27.86 62.176 62.203 62.166a62.17 62.17 0 0 0 46.956-21.436l-18.59-16.144a37.6 37.6 0 0 1-3.778 3.779c-15.676 13.589-39.4 11.897-52.99-3.779-13.588-15.676-11.897-39.4 3.78-52.989" style="fill:url(#a)"/></svg>