<?xml version="1.0" standalone="no"?>
<!DOCTYPE svg PUBLIC "-//W3C//DTD SVG 20010904//EN"
 "http://www.w3.org/TR/2001/REC-SVG-20010904/DTD/svg10.dtd">
<svg version="1.0" xmlns="http://www.w3.org/2000/svg"
 width="700.000000pt" height="700.000000pt" viewBox="0 0 700.000000 700.000000"
 preserveAspectRatio="xMidYMid meet">
<metadata>
Created by potrace 1.14, written by Peter Selinger 2001-2017
</metadata>
<g transform="translate(0.000000,700.000000) scale(0.100000,-0.100000)"
fill="#000000" stroke="none">
<path d="M2785 6619 c-212 -30 -463 -234 -587 -475 -85 -166 -118 -311 -113
-504 7 -265 100 -452 280 -567 95 -60 198 -85 345 -84 204 2 309 37 405 135
89 92 139 229 162 446 14 130 7 431 -13 533 -2 12 -8 45 -13 72 -57 304 -239
477 -466 444z"/>
<path d="M4087 6618 c-117 -25 -215 -114 -278 -254 -65 -144 -93 -313 -93
-579 -1 -144 8 -286 19 -318 3 -7 6 -23 9 -37 37 -225 164 -380 343 -420 98
-23 226 -29 328 -16 60 7 167 45 215 75 103 64 201 189 239 304 40 120 46 159
44 317 -1 109 -6 153 -26 231 -23 88 -51 165 -79 213 -5 11 -22 40 -36 65 -62
113 -186 241 -307 318 -129 82 -280 123 -378 101z"/>
<path d="M1005 5602 c-144 -69 -243 -315 -249 -617 -5 -229 85 -515 204 -647
139 -156 395 -187 615 -76 328 165 362 539 87 953 -170 256 -511 456 -657 387z"/>
<path d="M5823 5601 c-244 -88 -441 -270 -568 -526 -171 -344 -128 -630 117
-782 82 -50 100 -58 178 -78 256 -64 470 30 578 255 145 300 153 680 22 955
-80 168 -188 226 -327 176z"/>
<path d="M3385 4678 c-33 -3 -87 -9 -119 -12 -146 -16 -389 -83 -556 -154
-396 -169 -742 -463 -976 -832 -65 -103 -174 -315 -174 -341 0 -8 -4 -19 -9
-24 -9 -10 -67 -176 -75 -217 -3 -13 -10 -41 -16 -63 -13 -52 -38 -195 -47
-270 -10 -79 -10 -382 -1 -465 9 -75 25 -174 32 -198 3 -10 7 -28 10 -42 22
-130 121 -399 199 -545 44 -82 171 -271 230 -344 90 -110 224 -242 337 -332
277 -221 663 -390 990 -435 25 -3 48 -8 52 -10 12 -7 209 -18 318 -17 156 1
297 18 480 58 159 35 445 149 575 229 107 66 240 159 300 210 79 66 245 233
245 245 0 5 -15 20 -32 34 -32 24 -50 39 -113 95 -17 15 -93 81 -170 147 -77
66 -145 124 -151 130 -6 5 -35 31 -65 57 -30 25 -65 55 -78 67 -13 12 -27 21
-30 21 -4 0 -29 -24 -57 -53 -155 -162 -371 -287 -598 -346 -124 -32 -159 -36
-346 -35 -155 0 -187 3 -283 27 -422 105 -750 389 -910 787 -139 348 -118 751
60 1088 25 48 49 89 54 90 5 2 9 8 9 14 0 20 102 143 187 225 183 179 437 306
693 347 94 15 341 16 420 1 261 -48 500 -169 685 -347 45 -43 85 -78 89 -78 4
0 13 6 20 13 7 6 39 35 72 62 32 28 130 113 219 190 88 77 197 171 243 210 45
38 82 74 82 78 0 15 -182 192 -267 260 -336 270 -738 434 -1158 473 -98 9
-298 10 -370 2z"/>
</g>
</svg>
