<svg version="1.1" viewBox="0.0 0.0 810.0 401.0" fill="none" stroke="none" stroke-linecap="square" stroke-miterlimit="10" width="810" height="401" xmlns:xlink="http://www.w3.org/1999/xlink" xmlns="http://www.w3.org/2000/svg"><path fill="#ffffff" d="M0 0L810.0 0L810.0 401.0L0 401.0L0 0Z" fill-rule="nonzero"/><path fill="#f59e0b" d="M341.96906 57.627C344.71564 57.4868 347.4654 57.416668 350.21555 57.416668L350.21555 138.3C348.84045 138.3 347.4656 138.33507 346.09232 138.40517Z" fill-rule="nonzero"/><path fill="#ef4444" d="M254.59833 88.70038C280.06546 70.0382 310.43713 59.23652 341.96906 57.627L346.09232 138.40517C330.32635 139.20993 315.1405 144.61076 302.40695 153.94186Z" fill-rule="nonzero"/><path fill="#2563eb" d="M350.21555 57.416668C429.7249 57.416668 497.44662 115.19676 509.96472 193.7145C522.4828 272.23224 476.08557 348.20633 400.51794 372.93027C324.95035 397.65424 242.6189 363.79715 206.3058 293.06458C169.9927 222.332 190.46512 135.69685 254.59833 88.70038L302.40695 153.94186C270.34033 177.4401 260.10413 220.75768 278.26068 256.12396C296.41724 291.49023 337.58295 308.4188 375.36676 296.0568C413.15054 283.69482 436.34918 245.70778 430.09012 206.44891C423.8311 167.19005 389.97025 138.3 350.21555 138.3Z" fill-rule="nonzero"/><path fill="#000000" d="M372.57172 338.30328Q371.82172 337.99078 371.47797 337.4439Q371.14984 336.8814 371.14984 336.22516Q371.14984 335.11578 371.9311 334.3814Q372.71234 333.64703 374.14984 333.64703Q375.57172 333.64703 376.3686 334.3814Q377.16547 335.11578 377.16547 336.22516Q377.16547 336.92828 376.79047 337.47516Q376.4311 338.02203 375.77484 338.30328Q376.6186 338.6314 377.04047 339.28766Q377.47797 339.92828 377.47797 340.7564Q377.47797 342.14703 376.58734 343.02203Q375.71234 343.8814 374.2436 343.8814Q372.8686 343.8814 371.96234 343.16266Q370.88422 342.3189 370.88422 340.85016Q370.88422 340.03766 371.29047 339.36578Q371.69672 338.67828 372.57172 338.30328ZM372.96234 336.36578Q372.96234 336.9439 373.27484 337.27203Q373.60297 337.58453 374.14984 337.58453Q374.69672 337.58453 375.02484 337.2564Q375.35297 336.92828 375.35297 336.36578Q375.35297 335.8189 375.02484 335.5064Q374.69672 335.17828 374.16547 335.17828Q373.6186 335.17828 373.29047 335.5064Q372.96234 335.83453 372.96234 336.36578ZM372.79047 340.66266Q372.79047 341.45953 373.19672 341.89703Q373.60297 342.33453 374.21234 342.33453Q374.8061 342.33453 375.1811 341.91266Q375.57172 341.49078 375.57172 340.67828Q375.57172 339.97516 375.1811 339.55328Q374.79047 339.11578 374.1811 339.11578Q373.47797 339.11578 373.13422 339.61578Q372.79047 340.10016 372.79047 340.66266ZM378.96234 341.39703L380.82172 341.1939Q380.88422 341.7564 381.16547 342.03766Q381.46234 342.30328 381.9311 342.30328Q382.52484 342.30328 382.9311 341.7564Q383.35297 341.20953 383.47797 339.49078Q382.75922 340.3189 381.66547 340.3189Q380.47797 340.3189 379.6186 339.41266Q378.75922 338.5064 378.75922 337.03766Q378.75922 335.5064 379.66547 334.58453Q380.57172 333.64703 381.97797 333.64703Q383.50922 333.64703 384.47797 334.83453Q385.46234 336.0064 385.46234 338.70953Q385.46234 341.45953 384.4311 342.67828Q383.41547 343.8814 381.79047 343.8814Q380.6186 343.8814 379.88422 343.2564Q379.16547 342.6314 378.96234 341.39703ZM383.3061 337.1939Q383.3061 336.27203 382.8686 335.7564Q382.44672 335.24078 381.88422 335.24078Q381.35297 335.24078 380.9936 335.66266Q380.64984 336.08453 380.64984 337.03766Q380.64984 338.0064 381.02484 338.45953Q381.41547 338.91266 381.9936 338.91266Q382.54047 338.91266 382.91547 338.47516Q383.3061 338.03766 383.3061 337.1939ZM387.32172 343.70953L387.32172 341.78766L389.2436 341.78766L389.2436 343.70953L387.32172 343.70953ZM390.96234 341.39703L392.82172 341.1939Q392.88422 341.7564 393.16547 342.03766Q393.46234 342.30328 393.9311 342.30328Q394.52484 342.30328 394.9311 341.7564Q395.35297 341.20953 395.47797 339.49078Q394.75922 340.3189 393.66547 340.3189Q392.47797 340.3189 391.6186 339.41266Q390.75922 338.5064 390.75922 337.03766Q390.75922 335.5064 391.66547 334.58453Q392.57172 333.64703 393.97797 333.64703Q395.50922 333.64703 396.47797 334.83453Q397.46234 336.0064 397.46234 338.70953Q397.46234 341.45953 396.4311 342.67828Q395.41547 343.8814 393.79047 343.8814Q392.6186 343.8814 391.88422 343.2564Q391.16547 342.6314 390.96234 341.39703ZM395.3061 337.1939Q395.3061 336.27203 394.8686 335.7564Q394.44672 335.24078 393.88422 335.24078Q393.35297 335.24078 392.9936 335.66266Q392.64984 336.08453 392.64984 337.03766Q392.64984 338.0064 393.02484 338.45953Q393.41547 338.91266 393.9936 338.91266Q394.54047 338.91266 394.91547 338.47516Q395.3061 338.03766 395.3061 337.1939ZM398.9311 336.16266Q398.9311 334.8189 399.52484 334.17828Q400.1186 333.52203 401.1186 333.52203Q402.16547 333.52203 402.75922 334.16266Q403.35297 334.80328 403.35297 336.16266Q403.35297 337.5064 402.75922 338.16266Q402.16547 338.80328 401.16547 338.80328Q400.1186 338.80328 399.52484 338.16266Q398.9311 337.52203 398.9311 336.16266ZM400.4311 336.14703Q400.4311 337.1314 400.64984 337.45953Q400.82172 337.70953 401.1186 337.70953Q401.4311 337.70953 401.60297 337.45953Q401.82172 337.1314 401.82172 336.14703Q401.82172 335.17828 401.60297 334.85016Q401.4311 334.58453 401.1186 334.58453Q400.82172 334.58453 400.64984 334.83453Q400.4311 335.17828 400.4311 336.14703ZM402.58734 344.10016L401.16547 344.10016L406.50922 333.52203L407.88422 333.52203L402.58734 344.10016ZM405.69672 341.45953Q405.69672 340.11578 406.27484 339.47516Q406.8686 338.8189 407.89984 338.8189Q408.9311 338.8189 409.52484 339.47516Q410.1186 340.11578 410.1186 341.45953Q410.1186 342.8189 409.52484 343.47516Q408.9311 344.11578 407.91547 344.11578Q406.8686 344.11578 406.27484 343.47516Q405.69672 342.8189 405.69672 341.45953ZM407.1811 341.45953Q407.1811 342.42828 407.41547 342.7564Q407.58734 343.0064 407.88422 343.0064Q408.19672 343.0064 408.35297 342.77203Q408.58734 342.42828 408.58734 341.45953Q408.58734 340.47516 408.3686 340.14703Q408.19672 339.89703 407.88422 339.89703Q407.57172 339.89703 407.41547 340.14703Q407.1811 340.47516 407.1811 341.45953Z" fill-rule="nonzero"/><path fill="#000000" d="M293.25436 102.08503L295.11374 101.881905Q295.17624 102.444405 295.4575 102.725655Q295.75436 102.99128 296.2231 102.99128Q296.81686 102.99128 297.2231 102.444405Q297.645 101.89753 297.77 100.17878Q297.05124 101.006905 295.9575 101.006905Q294.77 101.006905 293.9106 100.100655Q293.05124 99.194405 293.05124 97.725655Q293.05124 96.194405 293.9575 95.27253Q294.86374 94.33503 296.27 94.33503Q297.80124 94.33503 298.77 95.52253Q299.75436 96.694405 299.75436 99.39753Q299.75436 102.14753 298.7231 103.36628Q297.7075 104.569405 296.0825 104.569405Q294.9106 104.569405 294.17624 103.944405Q293.4575 103.319405 293.25436 102.08503ZM297.5981 97.881905Q297.5981 96.96003 297.1606 96.444405Q296.73874 95.92878 296.17624 95.92878Q295.645 95.92878 295.2856 96.350655Q294.94186 96.77253 294.94186 97.725655Q294.94186 98.694405 295.31686 99.14753Q295.7075 99.600655 296.2856 99.600655Q296.8325 99.600655 297.2075 99.163155Q297.5981 98.725655 297.5981 97.881905ZM301.61374 104.39753L301.61374 102.475655L303.5356 102.475655L303.5356 104.39753L301.61374 104.39753ZM305.145 101.74128L307.00436 101.506905Q307.0825 102.225655 307.4731 102.600655Q307.86374 102.975655 308.42624 102.975655Q309.02 102.975655 309.42624 102.52253Q309.8325 102.069405 309.8325 101.30378Q309.8325 100.58503 309.44186 100.163155Q309.05124 99.74128 308.48874 99.74128Q308.11374 99.74128 307.61374 99.881905L307.81686 98.319405Q308.5981 98.33503 309.00436 97.975655Q309.42624 97.61628 309.42624 97.02253Q309.42624 96.52253 309.11374 96.225655Q308.81686 95.913155 308.31686 95.913155Q307.8325 95.913155 307.4731 96.256905Q307.12936 96.600655 307.05124 97.256905L305.2856 96.96003Q305.4731 96.038155 305.8325 95.506905Q306.2075 94.96003 306.87936 94.64753Q307.55124 94.33503 308.37936 94.33503Q309.7856 94.33503 310.645 95.24128Q311.3481 95.975655 311.3481 96.89753Q311.3481 98.225655 309.9106 99.006905Q310.77 99.194405 311.2856 99.83503Q311.80124 100.475655 311.80124 101.381905Q311.80124 102.71003 310.8325 103.64753Q309.86374 104.569405 308.44186 104.569405Q307.0825 104.569405 306.17624 103.788155Q305.2856 103.006905 305.145 101.74128ZM313.2231 96.850655Q313.2231 95.506905 313.81686 94.86628Q314.4106 94.21003 315.4106 94.21003Q316.4575 94.21003 317.05124 94.850655Q317.645 95.49128 317.645 96.850655Q317.645 98.194405 317.05124 98.850655Q316.4575 99.49128 315.4575 99.49128Q314.4106 99.49128 313.81686 98.850655Q313.2231 98.21003 313.2231 96.850655ZM314.7231 96.83503Q314.7231 97.819405 314.94186 98.14753Q315.11374 98.39753 315.4106 98.39753Q315.7231 98.39753 315.895 98.14753Q316.11374 97.819405 316.11374 96.83503Q316.11374 95.86628 315.895 95.538155Q315.7231 95.27253 315.4106 95.27253Q315.11374 95.27253 314.94186 95.52253Q314.7231 95.86628 314.7231 96.83503ZM316.87936 104.788155L315.4575 104.788155L320.80124 94.21003L322.17624 94.21003L316.87936 104.788155ZM319.98874 102.14753Q319.98874 100.80378 320.56686 100.163155Q321.1606 99.506905 322.19186 99.506905Q323.2231 99.506905 323.81686 100.163155Q324.4106 100.80378 324.4106 102.14753Q324.4106 103.506905 323.81686 104.163155Q323.2231 104.80378 322.2075 104.80378Q321.1606 104.80378 320.56686 104.163155Q319.98874 103.506905 319.98874 102.14753ZM321.4731 102.14753Q321.4731 103.11628 321.7075 103.444405Q321.87936 103.694405 322.17624 103.694405Q322.48874 103.694405 322.645 103.46003Q322.87936 103.11628 322.87936 102.14753Q322.87936 101.163155 322.6606 100.83503Q322.48874 100.58503 322.17624 100.58503Q321.86374 100.58503 321.7075 100.83503Q321.4731 101.163155 321.4731 102.14753Z" fill-rule="nonzero"/><path fill="#2563eb" d="M713.95 64.416664C713.95 67.73038 711.26373 70.416664 707.95 70.416664C704.6363 70.416664 701.95 67.73038 701.95 64.416664C701.95 61.10296 704.6363 58.416668 707.95 58.416668C711.26373 58.416668 713.95 61.10296 713.95 64.416664Z" fill-rule="nonzero"/><path fill="#1a1a1a" d="M722.8719 68.416664L722.8719 59.822914L725.84064 59.822914Q726.84064 59.822914 727.3719 59.947914Q728.10626 60.11979 728.6219 60.55729Q729.3094 61.135414 729.6375 62.041664Q729.98126 62.93229 729.98126 64.072914Q729.98126 65.05729 729.7469 65.80729Q729.52814 66.55729 729.16876 67.05729Q728.8094 67.55729 728.3719 67.83854Q727.95 68.11979 727.35626 68.27604Q726.7625 68.416664 725.98126 68.416664L722.8719 68.416664ZM724.0125 67.40104L725.84064 67.40104Q726.7 67.40104 727.1844 67.24479Q727.66876 67.08854 727.95 66.791664Q728.35626 66.40104 728.575 65.71354Q728.8094 65.02604 728.8094 64.05729Q728.8094 62.71354 728.35626 61.99479Q727.91876 61.260414 727.29376 61.010414Q726.825 60.83854 725.825 60.83854L724.0125 60.83854L724.0125 67.40104ZM735.9969 66.416664L737.09064 66.541664Q736.84064 67.49479 736.1375 68.02604Q735.4344 68.55729 734.35626 68.55729Q732.9969 68.55729 732.1844 67.71354Q731.3875 66.86979 731.3875 65.354164Q731.3875 63.791664 732.2 62.93229Q733.0125 62.05729 734.29376 62.05729Q735.54376 62.05729 736.325 62.90104Q737.1219 63.74479 737.1219 65.291664Q737.1219 65.385414 737.1219 65.572914L732.48126 65.572914Q732.54376 66.604164 733.0594 67.15104Q733.575 67.68229 734.35626 67.68229Q734.9344 67.68229 735.34064 67.385414Q735.7625 67.072914 735.9969 66.416664ZM732.54376 64.71354L736.0125 64.71354Q735.95 63.916664 735.6219 63.52604Q735.10626 62.916664 734.3094 62.916664Q733.575 62.916664 733.075 63.40104Q732.59064 63.885414 732.54376 64.71354ZM738.325 66.55729L739.35626 66.40104Q739.45 67.02604 739.84064 67.354164Q740.2469 67.68229 740.98126 67.68229Q741.7 67.68229 742.04376 67.40104Q742.40314 67.104164 742.40314 66.697914Q742.40314 66.33854 742.09064 66.135414Q741.8719 65.99479 741.0125 65.77604Q739.85626 65.479164 739.40314 65.27604Q738.96564 65.05729 738.73126 64.68229Q738.4969 64.30729 738.4969 63.83854Q738.4969 63.43229 738.6844 63.072914Q738.8719 62.71354 739.2 62.479164Q739.45 62.30729 739.8719 62.18229Q740.29376 62.05729 740.79376 62.05729Q741.5125 62.05729 742.0594 62.27604Q742.6219 62.479164 742.8875 62.83854Q743.15314 63.197914 743.2469 63.791664L742.21564 63.93229Q742.15314 63.46354 741.8094 63.197914Q741.48126 62.916664 740.85626 62.916664Q740.1375 62.916664 739.825 63.166664Q739.5125 63.40104 739.5125 63.729164Q739.5125 63.93229 739.6375 64.08854Q739.77814 64.260414 740.04376 64.36979Q740.2 64.43229 740.98126 64.635414Q742.10626 64.947914 742.54376 65.135414Q742.98126 65.322914 743.23126 65.68229Q743.48126 66.041664 743.48126 66.58854Q743.48126 67.11979 743.16876 67.58854Q742.8719 68.041664 742.29376 68.30729Q741.71564 68.55729 740.98126 68.55729Q739.7625 68.55729 739.1219 68.05729Q738.4969 67.541664 738.325 66.55729ZM745.7469 68.416664L745.7469 59.822914L746.8094 59.822914L746.8094 64.729164L749.29376 62.197914L750.66876 62.197914L748.27814 64.49479L750.90314 68.416664L749.60626 68.416664L747.54376 65.229164L746.8094 65.947914L746.8094 68.416664L745.7469 68.416664ZM754.04376 67.479164L754.2 68.40104Q753.7469 68.49479 753.40314 68.49479Q752.825 68.49479 752.5125 68.322914Q752.2 68.135414 752.0594 67.83854Q751.9344 67.541664 751.9344 66.58854L751.9344 63.010414L751.16876 63.010414L751.16876 62.197914L751.9344 62.197914L751.9344 60.65104L752.98126 60.02604L752.98126 62.197914L754.04376 62.197914L754.04376 63.010414L752.98126 63.010414L752.98126 66.65104Q752.98126 67.104164 753.02814 67.229164Q753.09064 67.354164 753.21564 67.43229Q753.34064 67.510414 753.575 67.510414Q753.7625 67.510414 754.04376 67.479164ZM754.35626 65.30729Q754.35626 63.572914 755.3094 62.74479Q756.10626 62.05729 757.2625 62.05729Q758.54376 62.05729 759.35626 62.90104Q760.1844 63.729164 760.1844 65.21354Q760.1844 66.416664 759.825 67.104164Q759.46564 67.791664 758.7625 68.18229Q758.075 68.55729 757.2625 68.55729Q755.96564 68.55729 755.15314 67.729164Q754.35626 66.885414 754.35626 65.30729ZM755.4344 65.30729Q755.4344 66.49479 755.95 67.08854Q756.48126 67.68229 757.2625 67.68229Q758.0594 67.68229 758.575 67.08854Q759.09064 66.49479 759.09064 65.27604Q759.09064 64.11979 758.5594 63.52604Q758.04376 62.93229 757.2625 62.93229Q756.48126 62.93229 755.95 63.52604Q755.4344 64.104164 755.4344 65.30729ZM761.7469 70.80729L761.7469 62.197914L762.7 62.197914L762.7 62.99479Q763.04376 62.52604 763.46564 62.291664Q763.90314 62.05729 764.5125 62.05729Q765.3094 62.05729 765.91876 62.46354Q766.52814 62.86979 766.825 63.61979Q767.1375 64.36979 767.1375 65.260414Q767.1375 66.21354 766.79376 66.979164Q766.46564 67.74479 765.8094 68.15104Q765.15314 68.55729 764.4344 68.55729Q763.90314 68.55729 763.48126 68.33854Q763.0594 68.104164 762.79376 67.77604L762.79376 70.80729L761.7469 70.80729ZM762.7 65.33854Q762.7 66.541664 763.1844 67.11979Q763.66876 67.68229 764.35626 67.68229Q765.0594 67.68229 765.5594 67.08854Q766.0594 66.49479 766.0594 65.24479Q766.0594 64.05729 765.575 63.479164Q765.09064 62.885414 764.40314 62.885414Q763.73126 62.885414 763.21564 63.510414Q762.7 64.135414 762.7 65.33854Z" fill-rule="nonzero"/><path fill="#ef4444" d="M713.95 88.416664C713.95 91.73038 711.26373 94.416664 707.95 94.416664C704.6363 94.416664 701.95 91.73038 701.95 88.416664C701.95 85.10296 704.6363 82.416664 707.95 82.416664C711.26373 82.416664 713.95 85.10296 713.95 88.416664Z" fill-rule="nonzero"/><path fill="#1a1a1a" d="M722.4969 89.65104L723.5594 89.55729Q723.6375 90.21354 723.91876 90.61979Q724.2 91.02604 724.77814 91.291664Q725.3719 91.541664 726.10626 91.541664Q726.7469 91.541664 727.2469 91.354164Q727.7469 91.15104 727.98126 90.822914Q728.23126 90.479164 728.23126 90.08854Q728.23126 89.68229 727.9969 89.385414Q727.7625 89.072914 727.23126 88.86979Q726.8719 88.729164 725.6844 88.447914Q724.5125 88.166664 724.04376 87.916664Q723.41876 87.58854 723.1219 87.11979Q722.825 86.635414 722.825 86.041664Q722.825 85.40104 723.1844 84.83854Q723.5594 84.260414 724.2625 83.979164Q724.98126 83.68229 725.84064 83.68229Q726.79376 83.68229 727.52814 83.99479Q728.2625 84.291664 728.65314 84.90104Q729.04376 85.49479 729.075 86.24479L727.98126 86.322914Q727.8875 85.510414 727.3719 85.104164Q726.8719 84.68229 725.8875 84.68229Q724.85626 84.68229 724.3875 85.05729Q723.91876 85.43229 723.91876 85.96354Q723.91876 86.43229 724.2469 86.729164Q724.575 87.02604 725.95 87.33854Q727.34064 87.65104 727.85626 87.885414Q728.60626 88.24479 728.96564 88.77604Q729.325 89.291664 729.325 89.99479Q729.325 90.68229 728.9344 91.291664Q728.54376 91.885414 727.8094 92.229164Q727.075 92.55729 726.15314 92.55729Q724.98126 92.55729 724.1844 92.229164Q723.40314 91.885414 722.95 91.197914Q722.5125 90.510414 722.4969 89.65104ZM730.7469 92.416664L730.7469 86.197914L731.6844 86.197914L731.6844 87.072914Q731.98126 86.604164 732.46564 86.33854Q732.95 86.05729 733.575 86.05729Q734.2625 86.05729 734.7 86.33854Q735.15314 86.61979 735.325 87.135414Q736.075 86.05729 737.2469 86.05729Q738.1844 86.05729 738.66876 86.572914Q739.16876 87.072914 739.16876 88.15104L739.16876 92.416664L738.1219 92.416664L738.1219 88.49479Q738.1219 87.86979 738.0125 87.58854Q737.91876 87.30729 737.65314 87.135414Q737.3875 86.96354 737.0125 86.96354Q736.35626 86.96354 735.91876 87.40104Q735.4969 87.83854 735.4969 88.80729L735.4969 92.416664L734.4344 92.416664L734.4344 88.36979Q734.4344 87.666664 734.16876 87.322914Q733.91876 86.96354 733.34064 86.96354Q732.8875 86.96354 732.5125 87.197914Q732.1375 87.43229 731.96564 87.885414Q731.79376 88.33854 731.79376 89.18229L731.79376 92.416664L730.7469 92.416664ZM745.8094 91.65104Q745.21564 92.15104 744.66876 92.354164Q744.1375 92.55729 743.5125 92.55729Q742.48126 92.55729 741.9344 92.05729Q741.3875 91.55729 741.3875 90.77604Q741.3875 90.322914 741.59064 89.947914Q741.79376 89.55729 742.1375 89.33854Q742.48126 89.104164 742.90314 88.99479Q743.2 88.90104 743.84064 88.822914Q745.10626 88.68229 745.71564 88.46354Q745.71564 88.24479 745.71564 88.197914Q745.71564 87.541664 745.41876 87.27604Q745.0125 86.93229 744.21564 86.93229Q743.48126 86.93229 743.1219 87.197914Q742.7625 87.447914 742.59064 88.104164L741.5594 87.96354Q741.7 87.30729 742.02814 86.90104Q742.35626 86.49479 742.96564 86.27604Q743.575 86.05729 744.3719 86.05729Q745.16876 86.05729 745.66876 86.24479Q746.16876 86.43229 746.40314 86.71354Q746.6375 86.99479 746.73126 87.43229Q746.77814 87.697914 746.77814 88.40104L746.77814 89.80729Q746.77814 91.27604 746.84064 91.666664Q746.91876 92.05729 747.1219 92.416664L746.0125 92.416664Q745.85626 92.08854 745.8094 91.65104ZM745.71564 89.291664Q745.1375 89.52604 743.9969 89.697914Q743.34064 89.791664 743.075 89.916664Q742.8094 90.02604 742.65314 90.24479Q742.5125 90.46354 742.5125 90.74479Q742.5125 91.166664 742.825 91.447914Q743.15314 91.729164 743.7625 91.729164Q744.3719 91.729164 744.84064 91.46354Q745.325 91.197914 745.54376 90.729164Q745.71564 90.36979 745.71564 89.68229L745.71564 89.291664ZM748.73126 92.416664L748.73126 86.197914L749.6844 86.197914L749.6844 87.135414Q750.04376 86.479164 750.34064 86.27604Q750.65314 86.05729 751.02814 86.05729Q751.5594 86.05729 752.10626 86.385414L751.7469 87.36979Q751.35626 87.135414 750.98126 87.135414Q750.6219 87.135414 750.34064 87.354164Q750.075 87.55729 749.96564 87.93229Q749.77814 88.49479 749.77814 89.15104L749.77814 92.416664L748.73126 92.416664ZM755.04376 91.479164L755.2 92.40104Q754.7469 92.49479 754.40314 92.49479Q753.825 92.49479 753.5125 92.322914Q753.2 92.135414 753.0594 91.83854Q752.9344 91.541664 752.9344 90.58854L752.9344 87.010414L752.16876 87.010414L752.16876 86.197914L752.9344 86.197914L752.9344 84.65104L753.98126 84.02604L753.98126 86.197914L755.04376 86.197914L755.04376 87.010414L753.98126 87.010414L753.98126 90.65104Q753.98126 91.104164 754.02814 91.229164Q754.09064 91.354164 754.21564 91.43229Q754.34064 91.510414 754.575 91.510414Q754.7625 91.510414 755.04376 91.479164ZM755.7469 94.80729L755.7469 86.197914L756.7 86.197914L756.7 86.99479Q757.04376 86.52604 757.46564 86.291664Q757.90314 86.05729 758.5125 86.05729Q759.3094 86.05729 759.91876 86.46354Q760.52814 86.86979 760.825 87.61979Q761.1375 88.36979 761.1375 89.260414Q761.1375 90.21354 760.79376 90.979164Q760.46564 91.74479 759.8094 92.15104Q759.15314 92.55729 758.4344 92.55729Q757.90314 92.55729 757.48126 92.33854Q757.0594 92.104164 756.79376 91.77604L756.79376 94.80729L755.7469 94.80729ZM756.7 89.33854Q756.7 90.541664 757.1844 91.11979Q757.66876 91.68229 758.35626 91.68229Q759.0594 91.68229 759.5594 91.08854Q760.0594 90.49479 760.0594 89.24479Q760.0594 88.05729 759.575 87.479164Q759.09064 86.885414 758.40314 86.885414Q757.73126 86.885414 757.21564 87.510414Q756.7 88.135414 756.7 89.33854ZM762.7469 92.416664L762.7469 83.822914L763.79376 83.822914L763.79376 86.90104Q764.52814 86.05729 765.65314 86.05729Q766.35626 86.05729 766.85626 86.33854Q767.3719 86.604164 767.59064 87.08854Q767.8094 87.55729 767.8094 88.479164L767.8094 92.416664L766.7625 92.416664L766.7625 88.479164Q766.7625 87.68229 766.41876 87.322914Q766.075 86.96354 765.45 86.96354Q764.98126 86.96354 764.5594 87.21354Q764.15314 87.447914 763.96564 87.86979Q763.79376 88.27604 763.79376 89.010414L763.79376 92.416664L762.7469 92.416664ZM769.35626 89.30729Q769.35626 87.572914 770.3094 86.74479Q771.10626 86.05729 772.2625 86.05729Q773.54376 86.05729 774.35626 86.90104Q775.1844 87.729164 775.1844 89.21354Q775.1844 90.416664 774.825 91.104164Q774.46564 91.791664 773.7625 92.18229Q773.075 92.55729 772.2625 92.55729Q770.96564 92.55729 770.15314 91.729164Q769.35626 90.885414 769.35626 89.30729ZM770.4344 89.30729Q770.4344 90.49479 770.95 91.08854Q771.48126 91.68229 772.2625 91.68229Q773.0594 91.68229 773.575 91.08854Q774.09064 90.49479 774.09064 89.27604Q774.09064 88.11979 773.5594 87.52604Q773.04376 86.93229 772.2625 86.93229Q771.48126 86.93229 770.95 87.52604Q770.4344 88.104164 770.4344 89.30729ZM776.7469 92.416664L776.7469 86.197914L777.6844 86.197914L777.6844 87.072914Q778.3719 86.05729 779.66876 86.05729Q780.23126 86.05729 780.7 86.260414Q781.1844 86.46354 781.41876 86.791664Q781.65314 87.11979 781.7469 87.55729Q781.79376 87.854164 781.79376 88.58854L781.79376 92.416664L780.7469 92.416664L780.7469 88.635414Q780.7469 87.979164 780.6219 87.666664Q780.4969 87.354164 780.1844 87.166664Q779.8719 86.96354 779.45 86.96354Q778.77814 86.96354 778.27814 87.40104Q777.79376 87.822914 777.79376 89.010414L777.79376 92.416664L776.7469 92.416664ZM787.9969 90.416664L789.09064 90.541664Q788.84064 91.49479 788.1375 92.02604Q787.4344 92.55729 786.35626 92.55729Q784.9969 92.55729 784.1844 91.71354Q783.3875 90.86979 783.3875 89.354164Q783.3875 87.791664 784.2 86.93229Q785.0125 86.05729 786.29376 86.05729Q787.54376 86.05729 788.325 86.90104Q789.1219 87.74479 789.1219 89.291664Q789.1219 89.385414 789.1219 89.572914L784.48126 89.572914Q784.54376 90.604164 785.0594 91.15104Q785.575 91.68229 786.35626 91.68229Q786.9344 91.68229 787.34064 91.385414Q787.7625 91.072914 787.9969 90.416664ZM784.54376 88.71354L788.0125 88.71354Q787.95 87.916664 787.6219 87.52604Q787.10626 86.916664 786.3094 86.916664Q785.575 86.916664 785.075 87.40104Q784.59064 87.885414 784.54376 88.71354Z" fill-rule="nonzero"/><path fill="#f59e0b" d="M713.95 112.416664C713.95 115.73038 711.26373 118.416664 707.95 118.416664C704.6363 118.416664 701.95 115.73038 701.95 112.416664C701.95 109.10296 704.6363 106.416664 707.95 106.416664C711.26373 106.416664 713.95 109.10296 713.95 112.416664Z" fill-rule="nonzero"/><path fill="#1a1a1a" d="M725.0594 116.416664L725.0594 108.83854L722.23126 108.83854L722.23126 107.822914L729.04376 107.822914L729.04376 108.83854L726.2 108.83854L726.2 116.416664L725.0594 116.416664ZM733.8094 115.65104Q733.21564 116.15104 732.66876 116.354164Q732.1375 116.55729 731.5125 116.55729Q730.48126 116.55729 729.9344 116.05729Q729.3875 115.55729 729.3875 114.77604Q729.3875 114.322914 729.59064 113.947914Q729.79376 113.55729 730.1375 113.33854Q730.48126 113.104164 730.90314 112.99479Q731.2 112.90104 731.84064 112.822914Q733.10626 112.68229 733.71564 112.46354Q733.71564 112.24479 733.71564 112.197914Q733.71564 111.541664 733.41876 111.27604Q733.0125 110.93229 732.21564 110.93229Q731.48126 110.93229 731.1219 111.197914Q730.7625 111.447914 730.59064 112.104164L729.5594 111.96354Q729.7 111.30729 730.02814 110.90104Q730.35626 110.49479 730.96564 110.27604Q731.575 110.05729 732.3719 110.05729Q733.16876 110.05729 733.66876 110.24479Q734.16876 110.43229 734.40314 110.71354Q734.6375 110.99479 734.73126 111.43229Q734.77814 111.697914 734.77814 112.40104L734.77814 113.80729Q734.77814 115.27604 734.84064 115.666664Q734.91876 116.05729 735.1219 116.416664L734.0125 116.416664Q733.85626 116.08854 733.8094 115.65104ZM733.71564 113.291664Q733.1375 113.52604 731.9969 113.697914Q731.34064 113.791664 731.075 113.916664Q730.8094 114.02604 730.65314 114.24479Q730.5125 114.46354 730.5125 114.74479Q730.5125 115.166664 730.825 115.447914Q731.15314 115.729164 731.7625 115.729164Q732.3719 115.729164 732.84064 115.46354Q733.325 115.197914 733.54376 114.729164Q733.71564 114.36979 733.71564 113.68229L733.71564 113.291664ZM737.71564 116.416664L736.73126 116.416664L736.73126 107.822914L737.79376 107.822914L737.79376 110.885414Q738.46564 110.05729 739.4969 110.05729Q740.075 110.05729 740.575 110.291664Q741.09064 110.510414 741.41876 110.93229Q741.7625 111.354164 741.95 111.947914Q742.1375 112.541664 742.1375 113.21354Q742.1375 114.80729 741.34064 115.68229Q740.54376 116.55729 739.45 116.55729Q738.34064 116.55729 737.71564 115.635414L737.71564 116.416664ZM737.7 113.260414Q737.7 114.36979 738.0125 114.86979Q738.5125 115.68229 739.35626 115.68229Q740.04376 115.68229 740.54376 115.08854Q741.0594 114.49479 741.0594 113.291664Q741.0594 112.072914 740.575 111.49479Q740.09064 110.916664 739.40314 110.916664Q738.71564 110.916664 738.2 111.52604Q737.7 112.11979 737.7 113.260414ZM743.71564 116.416664L743.71564 107.822914L744.77814 107.822914L744.77814 116.416664L743.71564 116.416664ZM750.9969 114.416664L752.09064 114.541664Q751.84064 115.49479 751.1375 116.02604Q750.4344 116.55729 749.35626 116.55729Q747.9969 116.55729 747.1844 115.71354Q746.3875 114.86979 746.3875 113.354164Q746.3875 111.791664 747.2 110.93229Q748.0125 110.05729 749.29376 110.05729Q750.54376 110.05729 751.325 110.90104Q752.1219 111.74479 752.1219 113.291664Q752.1219 113.385414 752.1219 113.572914L747.48126 113.572914Q747.54376 114.604164 748.0594 115.15104Q748.575 115.68229 749.35626 115.68229Q749.9344 115.68229 750.34064 115.385414Q750.7625 115.072914 750.9969 114.416664ZM747.54376 112.71354L751.0125 112.71354Q750.95 111.916664 750.6219 111.52604Q750.10626 110.916664 749.3094 110.916664Q748.575 110.916664 748.075 111.40104Q747.59064 111.885414 747.54376 112.71354ZM756.04376 115.479164L756.2 116.40104Q755.7469 116.49479 755.40314 116.49479Q754.825 116.49479 754.5125 116.322914Q754.2 116.135414 754.0594 115.83854Q753.9344 115.541664 753.9344 114.58854L753.9344 111.010414L753.16876 111.010414L753.16876 110.197914L753.9344 110.197914L753.9344 108.65104L754.98126 108.02604L754.98126 110.197914L756.04376 110.197914L756.04376 111.010414L754.98126 111.010414L754.98126 114.65104Q754.98126 115.104164 755.02814 115.229164Q755.09064 115.354164 755.21564 115.43229Q755.34064 115.510414 755.575 115.510414Q755.7625 115.510414 756.04376 115.479164Z" fill-rule="nonzero"/><path fill="#757575" d="M355.04688 39.05L355.04688 24.7375L359.96875 24.7375Q361.64062 24.7375 362.53125 24.940624Q363.75 25.221874 364.625 25.95625Q365.75 26.925 366.3125 28.409374Q366.875 29.89375 366.875 31.815624Q366.875 33.440624 366.5 34.70625Q366.125 35.95625 365.51562 36.784374Q364.92188 37.6125 364.21875 38.096874Q363.51562 38.565624 362.51562 38.815624Q361.51562 39.05 360.20312 39.05L355.04688 39.05ZM356.9375 37.3625L360.0 37.3625Q361.40625 37.3625 362.20312 37.096874Q363.01562 36.83125 363.5 36.346874Q364.17188 35.675 364.54688 34.55Q364.92188 33.409374 364.92188 31.784374Q364.92188 29.534374 364.1875 28.33125Q363.45312 27.128124 362.39062 26.721874Q361.64062 26.425 359.95312 26.425L356.9375 26.425L356.9375 37.3625ZM375.92188 35.70625L377.73438 35.940624Q377.3125 37.51875 376.14062 38.409374Q374.98438 39.284374 373.17188 39.284374Q370.90625 39.284374 369.5625 37.89375Q368.23438 36.4875 368.23438 33.95625Q368.23438 31.33125 369.57812 29.89375Q370.92188 28.440624 373.07812 28.440624Q375.15625 28.440624 376.46875 29.8625Q377.79688 31.26875 377.79688 33.846874Q377.79688 34.003124 377.78125 34.315624L370.04688 34.315624Q370.14062 36.01875 371.01562 36.925Q371.89062 37.83125 373.1875 37.83125Q374.15625 37.83125 374.82812 37.33125Q375.51562 36.815624 375.92188 35.70625ZM370.14062 32.8625L375.9375 32.8625Q375.82812 31.565624 375.28125 30.909374Q374.4375 29.89375 373.09375 29.89375Q371.89062 29.89375 371.0625 30.70625Q370.23438 31.503124 370.14062 32.8625ZM382.70312 39.05L378.75 28.675L380.60938 28.675L382.84375 34.89375Q383.20312 35.89375 383.5 36.971874Q383.73438 36.159374 384.15625 35.003124L386.45312 28.675L388.26562 28.675L384.34375 39.05L382.70312 39.05ZM388.82812 26.753124L388.82812 24.7375L390.59375 24.7375L390.59375 26.753124L388.82812 26.753124ZM388.82812 39.05L388.82812 28.675L390.59375 28.675L390.59375 39.05L388.82812 39.05ZM399.59375 35.253124L401.3125 35.471874Q401.03125 37.26875 399.85938 38.284374Q398.70312 39.284374 397.0 39.284374Q394.875 39.284374 393.57812 37.89375Q392.28125 36.503124 392.28125 33.909374Q392.28125 32.221874 392.82812 30.971874Q393.39062 29.70625 394.53125 29.08125Q395.67188 28.440624 397.01562 28.440624Q398.70312 28.440624 399.76562 29.3Q400.84375 30.159374 401.15625 31.721874L399.4375 31.9875Q399.20312 30.940624 398.57812 30.425Q397.95312 29.89375 397.07812 29.89375Q395.75 29.89375 394.92188 30.846874Q394.09375 31.8 394.09375 33.846874Q394.09375 35.940624 394.89062 36.89375Q395.6875 37.83125 396.98438 37.83125Q398.01562 37.83125 398.70312 37.20625Q399.40625 36.565624 399.59375 35.253124ZM409.92188 35.70625L411.73438 35.940624Q411.3125 37.51875 410.14062 38.409374Q408.98438 39.284374 407.17188 39.284374Q404.90625 39.284374 403.5625 37.89375Q402.23438 36.4875 402.23438 33.95625Q402.23438 31.33125 403.57812 29.89375Q404.92188 28.440624 407.07812 28.440624Q409.15625 28.440624 410.46875 29.8625Q411.79688 31.26875 411.79688 33.846874Q411.79688 34.003124 411.78125 34.315624L404.04688 34.315624Q404.14062 36.01875 405.01562 36.925Q405.89062 37.83125 407.1875 37.83125Q408.15625 37.83125 408.82812 37.33125Q409.51562 36.815624 409.92188 35.70625ZM404.14062 32.8625L409.9375 32.8625Q409.82812 31.565624 409.28125 30.909374Q408.4375 29.89375 407.09375 29.89375Q405.89062 29.89375 405.0625 30.70625Q404.23438 31.503124 404.14062 32.8625ZM423.65625 37.471874L423.90625 39.034374Q423.17188 39.190624 422.57812 39.190624Q421.625 39.190624 421.09375 38.89375Q420.57812 38.58125 420.35938 38.096874Q420.14062 37.596874 420.14062 36.01875L420.14062 30.05L418.85938 30.05L418.85938 28.675L420.14062 28.675L420.14062 26.1125L421.89062 25.05L421.89062 28.675L423.65625 28.675L423.65625 30.05L421.89062 30.05L421.89062 36.1125Q421.89062 36.8625 421.98438 37.08125Q422.07812 37.284374 422.28125 37.425Q422.5 37.55 422.89062 37.55Q423.17188 37.55 423.65625 37.471874ZM425.73438 43.05L425.54688 41.39375Q426.125 41.55 426.54688 41.55Q427.14062 41.55 427.48438 41.346874Q427.84375 41.159374 428.0625 40.815624Q428.23438 40.55 428.60938 39.503124Q428.65625 39.346874 428.76562 39.065624L424.82812 28.675L426.71875 28.675L428.875 34.690624Q429.29688 35.83125 429.625 37.08125Q429.9375 35.878124 430.34375 34.721874L432.5625 28.675L434.32812 28.675L430.375 39.221874Q429.75 40.940624 429.39062 41.58125Q428.92188 42.45625 428.3125 42.846874Q427.71875 43.253124 426.875 43.253124Q426.35938 43.253124 425.73438 43.05ZM435.8125 43.01875L435.8125 28.675L437.42188 28.675L437.42188 30.01875Q437.98438 29.2375 438.6875 28.846874Q439.40625 28.440624 440.42188 28.440624Q441.75 28.440624 442.76562 29.128124Q443.78125 29.815624 444.29688 31.065624Q444.82812 32.3 444.82812 33.784374Q444.82812 35.378124 444.25 36.659374Q443.6875 37.925 442.59375 38.6125Q441.5 39.284374 440.29688 39.284374Q439.42188 39.284374 438.71875 38.909374Q438.03125 38.534374 437.57812 37.971874L437.57812 43.01875L435.8125 43.01875ZM437.40625 33.925Q437.40625 35.925 438.21875 36.878124Q439.03125 37.83125 440.1875 37.83125Q441.35938 37.83125 442.1875 36.846874Q443.03125 35.8625 443.03125 33.76875Q443.03125 31.8 442.20312 30.815624Q441.39062 29.815624 440.26562 29.815624Q439.14062 29.815624 438.26562 30.878124Q437.40625 31.925 437.40625 33.925ZM453.92188 35.70625L455.73438 35.940624Q455.3125 37.51875 454.14062 38.409374Q452.98438 39.284374 451.17188 39.284374Q448.90625 39.284374 447.5625 37.89375Q446.23438 36.4875 446.23438 33.95625Q446.23438 31.33125 447.57812 29.89375Q448.92188 28.440624 451.07812 28.440624Q453.15625 28.440624 454.46875 29.8625Q455.79688 31.26875 455.79688 33.846874Q455.79688 34.003124 455.78125 34.315624L448.04688 34.315624Q448.14062 36.01875 449.01562 36.925Q449.89062 37.83125 451.1875 37.83125Q452.15625 37.83125 452.82812 37.33125Q453.51562 36.815624 453.92188 35.70625ZM448.14062 32.8625L453.9375 32.8625Q453.82812 31.565624 453.28125 30.909374Q452.4375 29.89375 451.09375 29.89375Q449.89062 29.89375 449.0625 30.70625Q448.23438 31.503124 448.14062 32.8625Z" fill-rule="nonzero"/></svg>