<svg version="1.1" viewBox="0.0 0.0 810.0 401.0" fill="none" stroke="none" stroke-linecap="square" stroke-miterlimit="10" width="810" height="401" xmlns:xlink="http://www.w3.org/1999/xlink" xmlns="http://www.w3.org/2000/svg"><path fill="#ffffff" d="M0 0L810.0 0L810.0 401.0L0 401.0L0 0Z" fill-rule="nonzero"/><path fill="#a3a3a3" d="M288.17554 74.59287C310.68863 63.29822 335.5281 57.416668 360.71555 57.416668L360.71555 138.3C348.12183 138.3 335.7021 141.24078 324.44556 146.8881Z" fill-rule="nonzero"/><path fill="#d946ef" d="M266.2262 87.88134C273.17926 82.87768 280.51877 78.43422 288.17554 74.59287L324.44556 146.8881C320.61716 148.80878 316.94742 151.0305 313.47086 153.53233Z" fill-rule="nonzero"/><path fill="#22c55e" d="M232.14511 121.00954C241.81241 108.34903 253.29669 97.18584 266.2262 87.88134L313.47086 153.53233C307.00613 158.18459 301.26398 163.76619 296.43033 170.09644Z" fill-rule="nonzero"/><path fill="#f59e0b" d="M209.1629 162.61261C214.73349 147.68901 222.4778 133.67004 232.14511 121.00954L296.43033 170.09644C291.59668 176.4267 287.72452 183.43617 284.93924 190.89798Z" fill-rule="nonzero"/><path fill="#ef4444" d="M205.1538 263.55667C195.67986 230.34344 197.08476 194.96988 209.1629 162.61261L284.93924 190.89798C278.90015 207.0766 278.19772 224.7634 282.93466 241.37001Z" fill-rule="nonzero"/><path fill="#2563eb" d="M367.1718 62.288822C450.71634 62.288822 520.51807 125.907295 528.24506 209.09372C535.9721 292.28015 479.08228 367.66675 396.96707 383.05453C314.8519 398.44232 234.5267 348.76883 211.61005 268.42883L289.39093 246.24216C300.84924 286.41217 341.01184 311.2489 382.06946 303.55502C423.12704 295.8611 451.57196 258.16782 447.70844 216.5746C443.84494 174.9814 408.94406 143.17215 367.1718 143.17215Z" fill-rule="nonzero"/><path fill="#000000" d="M445.60938 294.0441L445.60938 292.24722L452.1875 292.24722L452.1875 293.65347Q451.35938 294.45035 450.51562 295.95035Q449.6875 297.43472 449.23438 299.12222Q448.79688 300.80972 448.8125 302.13785L446.95312 302.13785Q447.0 300.05972 447.8125 297.90347Q448.625 295.7316 449.98438 294.0441L445.60938 294.0441ZM456.85938 292.07535Q458.3125 292.07535 459.14062 293.1066Q460.10938 294.34097 460.10938 297.20035Q460.10938 300.0441 459.125 301.27847Q458.3125 302.30972 456.85938 302.30972Q455.39062 302.30972 454.5 301.18472Q453.60938 300.05972 453.60938 297.1691Q453.60938 294.34097 454.59375 293.1066Q455.40625 292.07535 456.85938 292.07535ZM456.85938 293.6691Q456.51562 293.6691 456.23438 293.88785Q455.96875 294.1066 455.8125 294.68472Q455.60938 295.43472 455.60938 297.20035Q455.60938 298.96597 455.78125 299.62222Q455.96875 300.27847 456.23438 300.49722Q456.51562 300.71597 456.85938 300.71597Q457.20312 300.71597 457.46875 300.49722Q457.75 300.27847 457.90625 299.70035Q458.10938 298.96597 458.10938 297.20035Q458.10938 295.43472 457.92188 294.77847Q457.75 294.1066 457.46875 293.88785Q457.20312 293.6691 456.85938 293.6691ZM462.01562 302.13785L462.01562 300.21597L463.9375 300.21597L463.9375 302.13785L462.01562 302.13785ZM472.125 294.57535L470.26562 294.77847Q470.1875 294.20035 469.89062 293.93472Q469.60938 293.65347 469.15625 293.65347Q468.54688 293.65347 468.125 294.20035Q467.70312 294.74722 467.59375 296.4816Q468.3125 295.62222 469.39062 295.62222Q470.59375 295.62222 471.4375 296.5441Q472.29688 297.46597 472.29688 298.90347Q472.29688 300.45035 471.39062 301.38785Q470.5 302.30972 469.07812 302.30972Q467.5625 302.30972 466.57812 301.13785Q465.60938 299.95035 465.60938 297.26285Q465.60938 294.51285 466.625 293.2941Q467.64062 292.07535 469.28125 292.07535Q470.42188 292.07535 471.15625 292.71597Q471.90625 293.3566 472.125 294.57535ZM467.76562 298.76285Q467.76562 299.70035 468.1875 300.21597Q468.625 300.71597 469.17188 300.71597Q469.71875 300.71597 470.0625 300.30972Q470.42188 299.88785 470.42188 298.93472Q470.42188 297.95035 470.03125 297.49722Q469.65625 297.0441 469.07812 297.0441Q468.53125 297.0441 468.14062 297.4816Q467.76562 297.9191 467.76562 298.76285ZM473.625 294.59097Q473.625 293.24722 474.21875 292.6066Q474.8125 291.95035 475.8125 291.95035Q476.85938 291.95035 477.45312 292.59097Q478.04688 293.2316 478.04688 294.59097Q478.04688 295.93472 477.45312 296.59097Q476.85938 297.2316 475.85938 297.2316Q474.8125 297.2316 474.21875 296.59097Q473.625 295.95035 473.625 294.59097ZM475.125 294.57535Q475.125 295.55972 475.34375 295.88785Q475.51562 296.13785 475.8125 296.13785Q476.125 296.13785 476.29688 295.88785Q476.51562 295.55972 476.51562 294.57535Q476.51562 293.6066 476.29688 293.27847Q476.125 293.01285 475.8125 293.01285Q475.51562 293.01285 475.34375 293.26285Q475.125 293.6066 475.125 294.57535ZM477.28125 302.52847L475.85938 302.52847L481.20312 291.95035L482.57812 291.95035L477.28125 302.52847ZM480.39062 299.88785Q480.39062 298.5441 480.96875 297.90347Q481.5625 297.24722 482.59375 297.24722Q483.625 297.24722 484.21875 297.90347Q484.8125 298.5441 484.8125 299.88785Q484.8125 301.24722 484.21875 301.90347Q483.625 302.5441 482.60938 302.5441Q481.5625 302.5441 480.96875 301.90347Q480.39062 301.24722 480.39062 299.88785ZM481.875 299.88785Q481.875 300.8566 482.10938 301.18472Q482.28125 301.43472 482.57812 301.43472Q482.89062 301.43472 483.04688 301.20035Q483.28125 300.8566 483.28125 299.88785Q483.28125 298.90347 483.0625 298.57535Q482.89062 298.32535 482.57812 298.32535Q482.26562 298.32535 482.10938 298.57535Q481.875 298.90347 481.875 299.88785Z" fill-rule="nonzero"/><path fill="#000000" d="M223.28 219.26048L221.35812 219.26048L221.35812 212.02611Q220.29562 213.01048 218.87375 213.47923L218.87375 211.72923Q219.62375 211.49486 220.49875 210.80736Q221.38937 210.11986 221.7175 209.19798L223.28 209.19798L223.28 219.26048ZM229.60812 209.19798Q231.06125 209.19798 231.88937 210.22923Q232.85812 211.46361 232.85812 214.32298Q232.85812 217.16673 231.87375 218.40111Q231.06125 219.43236 229.60812 219.43236Q228.13937 219.43236 227.24875 218.30736Q226.35812 217.18236 226.35812 214.29173Q226.35812 211.46361 227.3425 210.22923Q228.155 209.19798 229.60812 209.19798ZM229.60812 210.79173Q229.26437 210.79173 228.98312 211.01048Q228.7175 211.22923 228.56125 211.80736Q228.35812 212.55736 228.35812 214.32298Q228.35812 216.08861 228.53 216.74486Q228.7175 217.40111 228.98312 217.61986Q229.26437 217.83861 229.60812 217.83861Q229.95187 217.83861 230.2175 217.61986Q230.49875 217.40111 230.655 216.82298Q230.85812 216.08861 230.85812 214.32298Q230.85812 212.55736 230.67062 211.90111Q230.49875 211.22923 230.2175 211.01048Q229.95187 210.79173 229.60812 210.79173ZM234.76437 219.26048L234.76437 217.33861L236.68625 217.33861L236.68625 219.26048L234.76437 219.26048ZM243.28 219.26048L241.35812 219.26048L241.35812 212.02611Q240.29562 213.01048 238.87375 213.47923L238.87375 211.72923Q239.62375 211.49486 240.49875 210.80736Q241.38937 210.11986 241.7175 209.19798L243.28 209.19798L243.28 219.26048ZM246.37375 211.71361Q246.37375 210.36986 246.9675 209.72923Q247.56125 209.07298 248.56125 209.07298Q249.60812 209.07298 250.20187 209.71361Q250.79562 210.35423 250.79562 211.71361Q250.79562 213.05736 250.20187 213.71361Q249.60812 214.35423 248.60812 214.35423Q247.56125 214.35423 246.9675 213.71361Q246.37375 213.07298 246.37375 211.71361ZM247.87375 211.69798Q247.87375 212.68236 248.0925 213.01048Q248.26437 213.26048 248.56125 213.26048Q248.87375 213.26048 249.04562 213.01048Q249.26437 212.68236 249.26437 211.69798Q249.26437 210.72923 249.04562 210.40111Q248.87375 210.13548 248.56125 210.13548Q248.26437 210.13548 248.0925 210.38548Q247.87375 210.72923 247.87375 211.69798ZM250.03 219.65111L248.60812 219.65111L253.95187 209.07298L255.32687 209.07298L250.03 219.65111ZM253.13937 217.01048Q253.13937 215.66673 253.7175 215.02611Q254.31125 214.36986 255.3425 214.36986Q256.37375 214.36986 256.9675 215.02611Q257.56125 215.66673 257.56125 217.01048Q257.56125 218.36986 256.9675 219.02611Q256.37375 219.66673 255.35812 219.66673Q254.31125 219.66673 253.7175 219.02611Q253.13937 218.36986 253.13937 217.01048ZM254.62375 217.01048Q254.62375 217.97923 254.85812 218.30736Q255.03 218.55736 255.32687 218.55736Q255.63937 218.55736 255.79562 218.32298Q256.03 217.97923 256.03 217.01048Q256.03 216.02611 255.81125 215.69798Q255.63937 215.44798 255.32687 215.44798Q255.01437 215.44798 254.85812 215.69798Q254.62375 216.02611 254.62375 217.01048Z" fill-rule="nonzero"/><path fill="#000000" d="M242.69745 164.86629L242.69745 162.85066L238.6037 162.85066L238.6037 161.16316L242.94745 154.80379L244.55682 154.80379L244.55682 161.16316L245.80682 161.16316L245.80682 162.85066L244.55682 162.85066L244.55682 164.86629L242.69745 164.86629ZM242.69745 161.16316L242.69745 157.74129L240.40057 161.16316L242.69745 161.16316ZM247.33807 164.86629L247.33807 162.94441L249.25995 162.94441L249.25995 164.86629L247.33807 164.86629ZM250.93182 156.77254L250.93182 154.97566L257.50995 154.97566L257.50995 156.38191Q256.68182 157.17879 255.83807 158.67879Q255.00995 160.16316 254.55682 161.85066Q254.11932 163.53816 254.13495 164.86629L252.27557 164.86629Q252.32245 162.78816 253.13495 160.63191Q253.94745 158.46004 255.30682 156.77254L250.93182 156.77254ZM258.94745 157.31941Q258.94745 155.97566 259.5412 155.33504Q260.13495 154.67879 261.13495 154.67879Q262.18182 154.67879 262.77557 155.31941Q263.36932 155.96004 263.36932 157.31941Q263.36932 158.66316 262.77557 159.31941Q262.18182 159.96004 261.18182 159.96004Q260.13495 159.96004 259.5412 159.31941Q258.94745 158.67879 258.94745 157.31941ZM260.44745 157.30379Q260.44745 158.28816 260.6662 158.61629Q260.83807 158.86629 261.13495 158.86629Q261.44745 158.86629 261.61932 158.61629Q261.83807 158.28816 261.83807 157.30379Q261.83807 156.33504 261.61932 156.00691Q261.44745 155.74129 261.13495 155.74129Q260.83807 155.74129 260.6662 155.99129Q260.44745 156.33504 260.44745 157.30379ZM262.6037 165.25691L261.18182 165.25691L266.52557 154.67879L267.90057 154.67879L262.6037 165.25691ZM265.71307 162.61629Q265.71307 161.27254 266.2912 160.63191Q266.88495 159.97566 267.9162 159.97566Q268.94745 159.97566 269.5412 160.63191Q270.13495 161.27254 270.13495 162.61629Q270.13495 163.97566 269.5412 164.63191Q268.94745 165.27254 267.93182 165.27254Q266.88495 165.27254 266.2912 164.63191Q265.71307 163.97566 265.71307 162.61629ZM267.19745 162.61629Q267.19745 163.58504 267.43182 163.91316Q267.6037 164.16316 267.90057 164.16316Q268.21307 164.16316 268.36932 163.92879Q268.6037 163.58504 268.6037 162.61629Q268.6037 161.63191 268.38495 161.30379Q268.21307 161.05379 267.90057 161.05379Q267.58807 161.05379 267.43182 161.30379Q267.19745 161.63191 267.19745 162.61629Z" fill-rule="nonzero"/><path fill="#000000" d="M264.61688 136.26721L264.61688 134.25159L260.52313 134.25159L260.52313 132.56409L264.86688 126.20471L266.47626 126.20471L266.47626 132.56409L267.72626 132.56409L267.72626 134.25159L266.47626 134.25159L266.47626 136.26721L264.61688 136.26721ZM264.61688 132.56409L264.61688 129.14221L262.32 132.56409L264.61688 132.56409ZM269.2575 136.26721L269.2575 134.34534L271.17938 134.34534L271.17938 136.26721L269.2575 136.26721ZM272.85126 128.17346L272.85126 126.37659L279.42938 126.37659L279.42938 127.78284Q278.60126 128.57971 277.7575 130.07971Q276.92938 131.56409 276.47626 133.25159Q276.03876 134.93909 276.05438 136.26721L274.195 136.26721Q274.24188 134.18909 275.05438 132.03284Q275.86688 129.86096 277.22626 128.17346L272.85126 128.17346ZM280.86688 128.72034Q280.86688 127.37659 281.46063 126.73596Q282.05438 126.07971 283.05438 126.07971Q284.10126 126.07971 284.695 126.72034Q285.28876 127.36096 285.28876 128.72034Q285.28876 130.06409 284.695 130.72034Q284.10126 131.36096 283.10126 131.36096Q282.05438 131.36096 281.46063 130.72034Q280.86688 130.07971 280.86688 128.72034ZM282.36688 128.70471Q282.36688 129.68909 282.58563 130.01721Q282.7575 130.26721 283.05438 130.26721Q283.36688 130.26721 283.53876 130.01721Q283.7575 129.68909 283.7575 128.70471Q283.7575 127.73596 283.53876 127.40784Q283.36688 127.14221 283.05438 127.14221Q282.7575 127.14221 282.58563 127.39221Q282.36688 127.73596 282.36688 128.70471ZM284.52313 136.65784L283.10126 136.65784L288.445 126.07971L289.82 126.07971L284.52313 136.65784ZM287.6325 134.01721Q287.6325 132.67346 288.21063 132.03284Q288.80438 131.37659 289.83563 131.37659Q290.86688 131.37659 291.46063 132.03284Q292.05438 132.67346 292.05438 134.01721Q292.05438 135.37659 291.46063 136.03284Q290.86688 136.67346 289.85126 136.67346Q288.80438 136.67346 288.21063 136.03284Q287.6325 135.37659 287.6325 134.01721ZM289.11688 134.01721Q289.11688 134.98596 289.35126 135.31409Q289.52313 135.56409 289.82 135.56409Q290.1325 135.56409 290.28876 135.32971Q290.52313 134.98596 290.52313 134.01721Q290.52313 133.03284 290.30438 132.70471Q290.1325 132.45471 289.82 132.45471Q289.5075 132.45471 289.35126 132.70471Q289.11688 133.03284 289.11688 134.01721Z" fill-rule="nonzero"/><path fill="#000000" d="M316.5517 90.41476L316.5517 88.61788L323.12982 88.61788L323.12982 90.02413Q322.3017 90.82101 321.45795 92.32101Q320.62982 93.80538 320.1767 95.49288Q319.7392 97.18038 319.75482 98.50851L317.89545 98.50851Q317.94232 96.43038 318.75482 94.27413Q319.56732 92.10226 320.9267 90.41476L316.5517 90.41476ZM324.95795 98.50851L324.95795 96.58663L326.87982 96.58663L326.87982 98.50851L324.95795 98.50851ZM332.31732 98.50851L332.31732 96.49288L328.22357 96.49288L328.22357 94.80538L332.56732 88.44601L334.1767 88.44601L334.1767 94.80538L335.4267 94.80538L335.4267 96.49288L334.1767 96.49288L334.1767 98.50851L332.31732 98.50851ZM332.31732 94.80538L332.31732 91.38351L330.02045 94.80538L332.31732 94.80538ZM336.56732 90.96163Q336.56732 89.61788 337.16107 88.97726Q337.75482 88.32101 338.75482 88.32101Q339.8017 88.32101 340.39545 88.96163Q340.9892 89.60226 340.9892 90.96163Q340.9892 92.30538 340.39545 92.96163Q339.8017 93.60226 338.8017 93.60226Q337.75482 93.60226 337.16107 92.96163Q336.56732 92.32101 336.56732 90.96163ZM338.06732 90.94601Q338.06732 91.93038 338.28607 92.25851Q338.45795 92.50851 338.75482 92.50851Q339.06732 92.50851 339.2392 92.25851Q339.45795 91.93038 339.45795 90.94601Q339.45795 89.97726 339.2392 89.64913Q339.06732 89.38351 338.75482 89.38351Q338.45795 89.38351 338.28607 89.63351Q338.06732 89.97726 338.06732 90.94601ZM340.22357 98.89913L338.8017 98.89913L344.14545 88.32101L345.52045 88.32101L340.22357 98.89913ZM343.33295 96.25851Q343.33295 94.91476 343.91107 94.27413Q344.50482 93.61788 345.53607 93.61788Q346.56732 93.61788 347.16107 94.27413Q347.75482 94.91476 347.75482 96.25851Q347.75482 97.61788 347.16107 98.27413Q346.56732 98.91476 345.5517 98.91476Q344.50482 98.91476 343.91107 98.27413Q343.33295 97.61788 343.33295 96.25851ZM344.81732 96.25851Q344.81732 97.22726 345.0517 97.55538Q345.22357 97.80538 345.52045 97.80538Q345.83295 97.80538 345.9892 97.57101Q346.22357 97.22726 346.22357 96.25851Q346.22357 95.27413 346.00482 94.94601Q345.83295 94.69601 345.52045 94.69601Q345.20795 94.69601 345.0517 94.94601Q344.81732 95.27413 344.81732 96.25851Z" fill-rule="nonzero"/><path fill="#2563eb" d="M734.95 64.416664C734.95 67.73038 732.26373 70.416664 728.95 70.416664C725.6363 70.416664 722.95 67.73038 722.95 64.416664C722.95 61.10296 725.6363 58.416668 728.95 58.416668C732.26373 58.416668 734.95 61.10296 734.95 64.416664Z" fill-rule="nonzero"/><path fill="#1a1a1a" d="M743.90314 68.416664L743.90314 59.822914L750.10626 59.822914L750.10626 60.83854L745.04376 60.83854L745.04376 63.46354L749.79376 63.46354L749.79376 64.479164L745.04376 64.479164L745.04376 67.40104L750.3094 67.40104L750.3094 68.416664L743.90314 68.416664ZM751.7469 68.416664L751.7469 62.197914L752.6844 62.197914L752.6844 63.072914Q753.3719 62.05729 754.66876 62.05729Q755.23126 62.05729 755.7 62.260414Q756.1844 62.46354 756.41876 62.791664Q756.65314 63.11979 756.7469 63.55729Q756.79376 63.854164 756.79376 64.58854L756.79376 68.416664L755.7469 68.416664L755.7469 64.635414Q755.7469 63.979164 755.6219 63.666664Q755.4969 63.354164 755.1844 63.166664Q754.8719 62.96354 754.45 62.96354Q753.77814 62.96354 753.27814 63.40104Q752.79376 63.822914 752.79376 65.010414L752.79376 68.416664L751.7469 68.416664ZM758.54376 68.93229L759.575 69.08854Q759.6375 69.55729 759.9344 69.77604Q760.325 70.072914 760.9969 70.072914Q761.73126 70.072914 762.1219 69.77604Q762.52814 69.479164 762.66876 68.96354Q762.7625 68.635414 762.7469 67.604164Q762.0594 68.416664 761.02814 68.416664Q759.7469 68.416664 759.04376 67.49479Q758.34064 66.55729 758.34064 65.27604Q758.34064 64.385414 758.65314 63.635414Q758.98126 62.86979 759.59064 62.46354Q760.2 62.05729 761.02814 62.05729Q762.1375 62.05729 762.85626 62.947914L762.85626 62.197914L763.825 62.197914L763.825 67.572914Q763.825 69.02604 763.52814 69.635414Q763.23126 70.24479 762.59064 70.58854Q761.95 70.947914 761.0125 70.947914Q759.90314 70.947914 759.21564 70.447914Q758.52814 69.947914 758.54376 68.93229ZM759.41876 65.197914Q759.41876 66.416664 759.90314 66.979164Q760.3875 67.541664 761.1219 67.541664Q761.85626 67.541664 762.34064 66.979164Q762.84064 66.416664 762.84064 65.229164Q762.84064 64.08854 762.325 63.510414Q761.825 62.93229 761.10626 62.93229Q760.40314 62.93229 759.90314 63.510414Q759.41876 64.072914 759.41876 65.197914ZM765.71564 68.416664L765.71564 59.822914L766.77814 59.822914L766.77814 68.416664L765.71564 68.416664ZM768.7469 61.041664L768.7469 59.822914L769.8094 59.822914L769.8094 61.041664L768.7469 61.041664ZM768.7469 68.416664L768.7469 62.197914L769.8094 62.197914L769.8094 68.416664L768.7469 68.416664ZM771.325 66.55729L772.35626 66.40104Q772.45 67.02604 772.84064 67.354164Q773.2469 67.68229 773.98126 67.68229Q774.7 67.68229 775.04376 67.40104Q775.40314 67.104164 775.40314 66.697914Q775.40314 66.33854 775.09064 66.135414Q774.8719 65.99479 774.0125 65.77604Q772.85626 65.479164 772.40314 65.27604Q771.96564 65.05729 771.73126 64.68229Q771.4969 64.30729 771.4969 63.83854Q771.4969 63.43229 771.6844 63.072914Q771.8719 62.71354 772.2 62.479164Q772.45 62.30729 772.8719 62.18229Q773.29376 62.05729 773.79376 62.05729Q774.5125 62.05729 775.0594 62.27604Q775.6219 62.479164 775.8875 62.83854Q776.15314 63.197914 776.2469 63.791664L775.21564 63.93229Q775.15314 63.46354 774.8094 63.197914Q774.48126 62.916664 773.85626 62.916664Q773.1375 62.916664 772.825 63.166664Q772.5125 63.40104 772.5125 63.729164Q772.5125 63.93229 772.6375 64.08854Q772.77814 64.260414 773.04376 64.36979Q773.2 64.43229 773.98126 64.635414Q775.10626 64.947914 775.54376 65.135414Q775.98126 65.322914 776.23126 65.68229Q776.48126 66.041664 776.48126 66.58854Q776.48126 67.11979 776.16876 67.58854Q775.8719 68.041664 775.29376 68.30729Q774.71564 68.55729 773.98126 68.55729Q772.7625 68.55729 772.1219 68.05729Q771.4969 67.541664 771.325 66.55729ZM778.7469 68.416664L778.7469 59.822914L779.79376 59.822914L779.79376 62.90104Q780.52814 62.05729 781.65314 62.05729Q782.35626 62.05729 782.85626 62.33854Q783.3719 62.604164 783.59064 63.08854Q783.8094 63.55729 783.8094 64.479164L783.8094 68.416664L782.7625 68.416664L782.7625 64.479164Q782.7625 63.68229 782.41876 63.322914Q782.075 62.96354 781.45 62.96354Q780.98126 62.96354 780.5594 63.21354Q780.15314 63.447914 779.96564 63.86979Q779.79376 64.27604 779.79376 65.010414L779.79376 68.416664L778.7469 68.416664Z" fill-rule="nonzero"/><path fill="#ef4444" d="M734.95 88.416664C734.95 91.73038 732.26373 94.416664 728.95 94.416664C725.6363 94.416664 722.95 91.73038 722.95 88.416664C722.95 85.10296 725.6363 82.416664 728.95 82.416664C732.26373 82.416664 734.95 85.10296 734.95 88.416664Z" fill-rule="nonzero"/><path fill="#1a1a1a" d="M747.90314 89.041664L747.90314 88.041664L751.52814 88.02604L751.52814 91.21354Q750.7 91.885414 749.8094 92.229164Q748.91876 92.55729 747.98126 92.55729Q746.71564 92.55729 745.66876 92.02604Q744.6375 91.479164 744.10626 90.46354Q743.59064 89.43229 743.59064 88.166664Q743.59064 86.90104 744.10626 85.822914Q744.6375 84.729164 745.6219 84.21354Q746.60626 83.68229 747.8875 83.68229Q748.825 83.68229 749.575 83.979164Q750.325 84.27604 750.7469 84.822914Q751.1844 85.354164 751.40314 86.229164L750.3875 86.510414Q750.1844 85.854164 749.8875 85.479164Q749.60626 85.104164 749.075 84.885414Q748.54376 84.65104 747.90314 84.65104Q747.1219 84.65104 746.54376 84.885414Q745.98126 85.11979 745.6219 85.510414Q745.27814 85.90104 745.09064 86.36979Q744.7625 87.166664 744.7625 88.08854Q744.7625 89.24479 745.15314 90.02604Q745.5594 90.791664 746.3094 91.166664Q747.0594 91.541664 747.91876 91.541664Q748.65314 91.541664 749.35626 91.260414Q750.0594 90.96354 750.41876 90.65104L750.41876 89.041664L747.90314 89.041664ZM756.9969 90.416664L758.09064 90.541664Q757.84064 91.49479 757.1375 92.02604Q756.4344 92.55729 755.35626 92.55729Q753.9969 92.55729 753.1844 91.71354Q752.3875 90.86979 752.3875 89.354164Q752.3875 87.791664 753.2 86.93229Q754.0125 86.05729 755.29376 86.05729Q756.54376 86.05729 757.325 86.90104Q758.1219 87.74479 758.1219 89.291664Q758.1219 89.385414 758.1219 89.572914L753.48126 89.572914Q753.54376 90.604164 754.0594 91.15104Q754.575 91.68229 755.35626 91.68229Q755.9344 91.68229 756.34064 91.385414Q756.7625 91.072914 756.9969 90.416664ZM753.54376 88.71354L757.0125 88.71354Q756.95 87.916664 756.6219 87.52604Q756.10626 86.916664 755.3094 86.916664Q754.575 86.916664 754.075 87.40104Q753.59064 87.885414 753.54376 88.71354ZM759.73126 92.416664L759.73126 86.197914L760.6844 86.197914L760.6844 87.135414Q761.04376 86.479164 761.34064 86.27604Q761.65314 86.05729 762.02814 86.05729Q762.5594 86.05729 763.10626 86.385414L762.7469 87.36979Q762.35626 87.135414 761.98126 87.135414Q761.6219 87.135414 761.34064 87.354164Q761.075 87.55729 760.96564 87.93229Q760.77814 88.49479 760.77814 89.15104L760.77814 92.416664L759.73126 92.416664ZM763.7469 92.416664L763.7469 86.197914L764.6844 86.197914L764.6844 87.072914Q764.98126 86.604164 765.46564 86.33854Q765.95 86.05729 766.575 86.05729Q767.2625 86.05729 767.7 86.33854Q768.15314 86.61979 768.325 87.135414Q769.075 86.05729 770.2469 86.05729Q771.1844 86.05729 771.66876 86.572914Q772.16876 87.072914 772.16876 88.15104L772.16876 92.416664L771.1219 92.416664L771.1219 88.49479Q771.1219 87.86979 771.0125 87.58854Q770.91876 87.30729 770.65314 87.135414Q770.3875 86.96354 770.0125 86.96354Q769.35626 86.96354 768.91876 87.40104Q768.4969 87.83854 768.4969 88.80729L768.4969 92.416664L767.4344 92.416664L767.4344 88.36979Q767.4344 87.666664 767.16876 87.322914Q766.91876 86.96354 766.34064 86.96354Q765.8875 86.96354 765.5125 87.197914Q765.1375 87.43229 764.96564 87.885414Q764.79376 88.33854 764.79376 89.18229L764.79376 92.416664L763.7469 92.416664ZM778.8094 91.65104Q778.21564 92.15104 777.66876 92.354164Q777.1375 92.55729 776.5125 92.55729Q775.48126 92.55729 774.9344 92.05729Q774.3875 91.55729 774.3875 90.77604Q774.3875 90.322914 774.59064 89.947914Q774.79376 89.55729 775.1375 89.33854Q775.48126 89.104164 775.90314 88.99479Q776.2 88.90104 776.84064 88.822914Q778.10626 88.68229 778.71564 88.46354Q778.71564 88.24479 778.71564 88.197914Q778.71564 87.541664 778.41876 87.27604Q778.0125 86.93229 777.21564 86.93229Q776.48126 86.93229 776.1219 87.197914Q775.7625 87.447914 775.59064 88.104164L774.5594 87.96354Q774.7 87.30729 775.02814 86.90104Q775.35626 86.49479 775.96564 86.27604Q776.575 86.05729 777.3719 86.05729Q778.16876 86.05729 778.66876 86.24479Q779.16876 86.43229 779.40314 86.71354Q779.6375 86.99479 779.73126 87.43229Q779.77814 87.697914 779.77814 88.40104L779.77814 89.80729Q779.77814 91.27604 779.84064 91.666664Q779.91876 92.05729 780.1219 92.416664L779.0125 92.416664Q778.85626 92.08854 778.8094 91.65104ZM778.71564 89.291664Q778.1375 89.52604 776.9969 89.697914Q776.34064 89.791664 776.075 89.916664Q775.8094 90.02604 775.65314 90.24479Q775.5125 90.46354 775.5125 90.74479Q775.5125 91.166664 775.825 91.447914Q776.15314 91.729164 776.7625 91.729164Q777.3719 91.729164 777.84064 91.46354Q778.325 91.197914 778.54376 90.729164Q778.71564 90.36979 778.71564 89.68229L778.71564 89.291664ZM781.7469 92.416664L781.7469 86.197914L782.6844 86.197914L782.6844 87.072914Q783.3719 86.05729 784.66876 86.05729Q785.23126 86.05729 785.7 86.260414Q786.1844 86.46354 786.41876 86.791664Q786.65314 87.11979 786.7469 87.55729Q786.79376 87.854164 786.79376 88.58854L786.79376 92.416664L785.7469 92.416664L785.7469 88.635414Q785.7469 87.979164 785.6219 87.666664Q785.4969 87.354164 785.1844 87.166664Q784.8719 86.96354 784.45 86.96354Q783.77814 86.96354 783.27814 87.40104Q782.79376 87.822914 782.79376 89.010414L782.79376 92.416664L781.7469 92.416664Z" fill-rule="nonzero"/><path fill="#f59e0b" d="M734.95 112.416664C734.95 115.73038 732.26373 118.416664 728.95 118.416664C725.6363 118.416664 722.95 115.73038 722.95 112.416664C722.95 109.10296 725.6363 106.416664 728.95 106.416664C732.26373 106.416664 734.95 109.10296 734.95 112.416664Z" fill-rule="nonzero"/><path fill="#1a1a1a" d="M750.0125 113.40104L751.1375 113.697914Q750.77814 115.08854 749.85626 115.822914Q748.9344 116.55729 747.59064 116.55729Q746.2 116.55729 745.325 115.99479Q744.45 115.43229 743.9969 114.36979Q743.54376 113.291664 743.54376 112.05729Q743.54376 110.71354 744.0594 109.71354Q744.575 108.71354 745.5125 108.197914Q746.46564 107.68229 747.60626 107.68229Q748.8875 107.68229 749.7625 108.33854Q750.65314 108.99479 750.9969 110.18229L749.8719 110.447914Q749.575 109.510414 748.9969 109.08854Q748.4344 108.65104 747.575 108.65104Q746.59064 108.65104 745.91876 109.135414Q745.2625 109.604164 744.98126 110.40104Q744.71564 111.197914 744.71564 112.05729Q744.71564 113.15104 745.02814 113.96354Q745.35626 114.77604 746.02814 115.18229Q746.7 115.58854 747.4969 115.58854Q748.45 115.58854 749.10626 115.041664Q749.77814 114.49479 750.0125 113.40104ZM752.7469 116.416664L752.7469 107.822914L753.79376 107.822914L753.79376 110.90104Q754.52814 110.05729 755.65314 110.05729Q756.35626 110.05729 756.85626 110.33854Q757.3719 110.604164 757.59064 111.08854Q757.8094 111.55729 757.8094 112.479164L757.8094 116.416664L756.7625 116.416664L756.7625 112.479164Q756.7625 111.68229 756.41876 111.322914Q756.075 110.96354 755.45 110.96354Q754.98126 110.96354 754.5594 111.21354Q754.15314 111.447914 753.96564 111.86979Q753.79376 112.27604 753.79376 113.010414L753.79376 116.416664L752.7469 116.416664ZM759.7469 109.041664L759.7469 107.822914L760.8094 107.822914L760.8094 109.041664L759.7469 109.041664ZM759.7469 116.416664L759.7469 110.197914L760.8094 110.197914L760.8094 116.416664L759.7469 116.416664ZM762.7469 116.416664L762.7469 110.197914L763.6844 110.197914L763.6844 111.072914Q764.3719 110.05729 765.66876 110.05729Q766.23126 110.05729 766.7 110.260414Q767.1844 110.46354 767.41876 110.791664Q767.65314 111.11979 767.7469 111.55729Q767.79376 111.854164 767.79376 112.58854L767.79376 116.416664L766.7469 116.416664L766.7469 112.635414Q766.7469 111.979164 766.6219 111.666664Q766.4969 111.354164 766.1844 111.166664Q765.8719 110.96354 765.45 110.96354Q764.77814 110.96354 764.27814 111.40104Q763.79376 111.822914 763.79376 113.010414L763.79376 116.416664L762.7469 116.416664ZM773.9969 114.416664L775.09064 114.541664Q774.84064 115.49479 774.1375 116.02604Q773.4344 116.55729 772.35626 116.55729Q770.9969 116.55729 770.1844 115.71354Q769.3875 114.86979 769.3875 113.354164Q769.3875 111.791664 770.2 110.93229Q771.0125 110.05729 772.29376 110.05729Q773.54376 110.05729 774.325 110.90104Q775.1219 111.74479 775.1219 113.291664Q775.1219 113.385414 775.1219 113.572914L770.48126 113.572914Q770.54376 114.604164 771.0594 115.15104Q771.575 115.68229 772.35626 115.68229Q772.9344 115.68229 773.34064 115.385414Q773.7625 115.072914 773.9969 114.416664ZM770.54376 112.71354L774.0125 112.71354Q773.95 111.916664 773.6219 111.52604Q773.10626 110.916664 772.3094 110.916664Q771.575 110.916664 771.075 111.40104Q770.59064 111.885414 770.54376 112.71354ZM776.325 114.55729L777.35626 114.40104Q777.45 115.02604 777.84064 115.354164Q778.2469 115.68229 778.98126 115.68229Q779.7 115.68229 780.04376 115.40104Q780.40314 115.104164 780.40314 114.697914Q780.40314 114.33854 780.09064 114.135414Q779.8719 113.99479 779.0125 113.77604Q777.85626 113.479164 777.40314 113.27604Q776.96564 113.05729 776.73126 112.68229Q776.4969 112.30729 776.4969 111.83854Q776.4969 111.43229 776.6844 111.072914Q776.8719 110.71354 777.2 110.479164Q777.45 110.30729 777.8719 110.18229Q778.29376 110.05729 778.79376 110.05729Q779.5125 110.05729 780.0594 110.27604Q780.6219 110.479164 780.8875 110.83854Q781.15314 111.197914 781.2469 111.791664L780.21564 111.93229Q780.15314 111.46354 779.8094 111.197914Q779.48126 110.916664 778.85626 110.916664Q778.1375 110.916664 777.825 111.166664Q777.5125 111.40104 777.5125 111.729164Q777.5125 111.93229 777.6375 112.08854Q777.77814 112.260414 778.04376 112.36979Q778.2 112.43229 778.98126 112.635414Q780.10626 112.947914 780.54376 113.135414Q780.98126 113.322914 781.23126 113.68229Q781.48126 114.041664 781.48126 114.58854Q781.48126 115.11979 781.16876 115.58854Q780.8719 116.041664 780.29376 116.30729Q779.71564 116.55729 778.98126 116.55729Q777.7625 116.55729 777.1219 116.05729Q776.4969 115.541664 776.325 114.55729ZM787.9969 114.416664L789.09064 114.541664Q788.84064 115.49479 788.1375 116.02604Q787.4344 116.55729 786.35626 116.55729Q784.9969 116.55729 784.1844 115.71354Q783.3875 114.86979 783.3875 113.354164Q783.3875 111.791664 784.2 110.93229Q785.0125 110.05729 786.29376 110.05729Q787.54376 110.05729 788.325 110.90104Q789.1219 111.74479 789.1219 113.291664Q789.1219 113.385414 789.1219 113.572914L784.48126 113.572914Q784.54376 114.604164 785.0594 115.15104Q785.575 115.68229 786.35626 115.68229Q786.9344 115.68229 787.34064 115.385414Q787.7625 115.072914 787.9969 114.416664ZM784.54376 112.71354L788.0125 112.71354Q787.95 111.916664 787.6219 111.52604Q787.10626 110.916664 786.3094 110.916664Q785.575 110.916664 785.075 111.40104Q784.59064 111.885414 784.54376 112.71354Z" fill-rule="nonzero"/><path fill="#22c55e" d="M734.95 136.41667C734.95 139.73038 732.26373 142.41667 728.95 142.41667C725.6363 142.41667 722.95 139.73038 722.95 136.41667C722.95 133.10295 725.6363 130.41667 728.95 130.41667C732.26373 130.41667 734.95 133.10295 734.95 136.41667Z" fill-rule="nonzero"/><path fill="#1a1a1a" d="M743.8875 140.41667L743.8875 131.82292L747.7 131.82292Q748.85626 131.82292 749.45 132.0573Q750.04376 132.29167 750.40314 132.88542Q750.7625 133.46355 750.7625 134.16667Q750.7625 135.08855 750.16876 135.71355Q749.575 136.33855 748.34064 136.51042Q748.79376 136.72917 749.02814 136.9323Q749.52814 137.38542 749.96564 138.07292L751.46564 140.41667L750.02814 140.41667L748.90314 138.63542Q748.40314 137.85417 748.075 137.44792Q747.7625 137.04167 747.4969 136.88542Q747.2469 136.71355 746.98126 136.63542Q746.79376 136.60417 746.35626 136.60417L745.02814 136.60417L745.02814 140.41667L743.8875 140.41667ZM745.02814 135.6198L747.48126 135.6198Q748.2469 135.6198 748.6844 135.46355Q749.1375 135.29167 749.35626 134.94792Q749.59064 134.58855 749.59064 134.16667Q749.59064 133.5573 749.1375 133.16667Q748.7 132.77605 747.7469 132.77605L745.02814 132.77605L745.02814 135.6198ZM756.825 140.41667L756.825 139.4948Q756.09064 140.5573 754.84064 140.5573Q754.29376 140.5573 753.8094 140.35417Q753.34064 140.13542 753.10626 139.82292Q752.8719 139.4948 752.77814 139.02605Q752.71564 138.72917 752.71564 138.04167L752.71564 134.19792L753.77814 134.19792L753.77814 137.65105Q753.77814 138.46355 753.84064 138.76042Q753.9344 139.16667 754.2469 139.41667Q754.575 139.65105 755.0594 139.65105Q755.52814 139.65105 755.9344 139.41667Q756.35626 139.16667 756.52814 138.7448Q756.71564 138.32292 756.71564 137.52605L756.71564 134.19792L757.7625 134.19792L757.7625 140.41667L756.825 140.41667ZM759.325 138.5573L760.35626 138.40105Q760.45 139.02605 760.84064 139.35417Q761.2469 139.6823 761.98126 139.6823Q762.7 139.6823 763.04376 139.40105Q763.40314 139.10417 763.40314 138.69792Q763.40314 138.33855 763.09064 138.13542Q762.8719 137.9948 762.0125 137.77605Q760.85626 137.47917 760.40314 137.27605Q759.96564 137.0573 759.73126 136.6823Q759.4969 136.3073 759.4969 135.83855Q759.4969 135.4323 759.6844 135.07292Q759.8719 134.71355 760.2 134.47917Q760.45 134.3073 760.8719 134.1823Q761.29376 134.0573 761.79376 134.0573Q762.5125 134.0573 763.0594 134.27605Q763.6219 134.47917 763.8875 134.83855Q764.15314 135.19792 764.2469 135.79167L763.21564 135.9323Q763.15314 135.46355 762.8094 135.19792Q762.48126 134.91667 761.85626 134.91667Q761.1375 134.91667 760.825 135.16667Q760.5125 135.40105 760.5125 135.72917Q760.5125 135.9323 760.6375 136.08855Q760.77814 136.26042 761.04376 136.3698Q761.2 136.4323 761.98126 136.63542Q763.10626 136.94792 763.54376 137.13542Q763.98126 137.32292 764.23126 137.6823Q764.48126 138.04167 764.48126 138.58855Q764.48126 139.1198 764.16876 139.58855Q763.8719 140.04167 763.29376 140.3073Q762.71564 140.5573 761.98126 140.5573Q760.7625 140.5573 760.1219 140.0573Q759.4969 139.54167 759.325 138.5573ZM766.325 138.5573L767.35626 138.40105Q767.45 139.02605 767.84064 139.35417Q768.2469 139.6823 768.98126 139.6823Q769.7 139.6823 770.04376 139.40105Q770.40314 139.10417 770.40314 138.69792Q770.40314 138.33855 770.09064 138.13542Q769.8719 137.9948 769.0125 137.77605Q767.85626 137.47917 767.40314 137.27605Q766.96564 137.0573 766.73126 136.6823Q766.4969 136.3073 766.4969 135.83855Q766.4969 135.4323 766.6844 135.07292Q766.8719 134.71355 767.2 134.47917Q767.45 134.3073 767.8719 134.1823Q768.29376 134.0573 768.79376 134.0573Q769.5125 134.0573 770.0594 134.27605Q770.6219 134.47917 770.8875 134.83855Q771.15314 135.19792 771.2469 135.79167L770.21564 135.9323Q770.15314 135.46355 769.8094 135.19792Q769.48126 134.91667 768.85626 134.91667Q768.1375 134.91667 767.825 135.16667Q767.5125 135.40105 767.5125 135.72917Q767.5125 135.9323 767.6375 136.08855Q767.77814 136.26042 768.04376 136.3698Q768.2 136.4323 768.98126 136.63542Q770.10626 136.94792 770.54376 137.13542Q770.98126 137.32292 771.23126 137.6823Q771.48126 138.04167 771.48126 138.58855Q771.48126 139.1198 771.16876 139.58855Q770.8719 140.04167 770.29376 140.3073Q769.71564 140.5573 768.98126 140.5573Q767.7625 140.5573 767.1219 140.0573Q766.4969 139.54167 766.325 138.5573ZM773.7469 133.04167L773.7469 131.82292L774.8094 131.82292L774.8094 133.04167L773.7469 133.04167ZM773.7469 140.41667L773.7469 134.19792L774.8094 134.19792L774.8094 140.41667L773.7469 140.41667ZM780.8094 139.65105Q780.21564 140.15105 779.66876 140.35417Q779.1375 140.5573 778.5125 140.5573Q777.48126 140.5573 776.9344 140.0573Q776.3875 139.5573 776.3875 138.77605Q776.3875 138.32292 776.59064 137.94792Q776.79376 137.5573 777.1375 137.33855Q777.48126 137.10417 777.90314 136.9948Q778.2 136.90105 778.84064 136.82292Q780.10626 136.6823 780.71564 136.46355Q780.71564 136.2448 780.71564 136.19792Q780.71564 135.54167 780.41876 135.27605Q780.0125 134.9323 779.21564 134.9323Q778.48126 134.9323 778.1219 135.19792Q777.7625 135.44792 777.59064 136.10417L776.5594 135.96355Q776.7 135.3073 777.02814 134.90105Q777.35626 134.4948 777.96564 134.27605Q778.575 134.0573 779.3719 134.0573Q780.16876 134.0573 780.66876 134.2448Q781.16876 134.4323 781.40314 134.71355Q781.6375 134.9948 781.73126 135.4323Q781.77814 135.69792 781.77814 136.40105L781.77814 137.8073Q781.77814 139.27605 781.84064 139.66667Q781.91876 140.0573 782.1219 140.41667L781.0125 140.41667Q780.85626 140.08855 780.8094 139.65105ZM780.71564 137.29167Q780.1375 137.52605 778.9969 137.69792Q778.34064 137.79167 778.075 137.91667Q777.8094 138.02605 777.65314 138.2448Q777.5125 138.46355 777.5125 138.7448Q777.5125 139.16667 777.825 139.44792Q778.15314 139.72917 778.7625 139.72917Q779.3719 139.72917 779.84064 139.46355Q780.325 139.19792 780.54376 138.72917Q780.71564 138.3698 780.71564 137.6823L780.71564 137.29167ZM783.7469 140.41667L783.7469 134.19792L784.6844 134.19792L784.6844 135.07292Q785.3719 134.0573 786.66876 134.0573Q787.23126 134.0573 787.7 134.26042Q788.1844 134.46355 788.41876 134.79167Q788.65314 135.1198 788.7469 135.5573Q788.79376 135.85417 788.79376 136.58855L788.79376 140.41667L787.7469 140.41667L787.7469 136.63542Q787.7469 135.97917 787.6219 135.66667Q787.4969 135.35417 787.1844 135.16667Q786.8719 134.96355 786.45 134.96355Q785.77814 134.96355 785.27814 135.40105Q784.79376 135.82292 784.79376 137.01042L784.79376 140.41667L783.7469 140.41667Z" fill-rule="nonzero"/><path fill="#d946ef" d="M734.95 160.41667C734.95 163.73038 732.26373 166.41667 728.95 166.41667C725.6363 166.41667 722.95 163.73038 722.95 160.41667C722.95 157.10295 725.6363 154.41667 728.95 154.41667C732.26373 154.41667 734.95 157.10295 734.95 160.41667Z" fill-rule="nonzero"/><path fill="#1a1a1a" d="M743.4969 161.65105L744.5594 161.5573Q744.6375 162.21355 744.91876 162.6198Q745.2 163.02605 745.77814 163.29167Q746.3719 163.54167 747.10626 163.54167Q747.7469 163.54167 748.2469 163.35417Q748.7469 163.15105 748.98126 162.82292Q749.23126 162.47917 749.23126 162.08855Q749.23126 161.6823 748.9969 161.38542Q748.7625 161.07292 748.23126 160.8698Q747.8719 160.72917 746.6844 160.44792Q745.5125 160.16667 745.04376 159.91667Q744.41876 159.58855 744.1219 159.1198Q743.825 158.63542 743.825 158.04167Q743.825 157.40105 744.1844 156.83855Q744.5594 156.26042 745.2625 155.97917Q745.98126 155.6823 746.84064 155.6823Q747.79376 155.6823 748.52814 155.9948Q749.2625 156.29167 749.65314 156.90105Q750.04376 157.4948 750.075 158.2448L748.98126 158.32292Q748.8875 157.51042 748.3719 157.10417Q747.8719 156.6823 746.8875 156.6823Q745.85626 156.6823 745.3875 157.0573Q744.91876 157.4323 744.91876 157.96355Q744.91876 158.4323 745.2469 158.72917Q745.575 159.02605 746.95 159.33855Q748.34064 159.65105 748.85626 159.88542Q749.60626 160.2448 749.96564 160.77605Q750.325 161.29167 750.325 161.9948Q750.325 162.6823 749.9344 163.29167Q749.54376 163.88542 748.8094 164.22917Q748.075 164.5573 747.15314 164.5573Q745.98126 164.5573 745.1844 164.22917Q744.40314 163.88542 743.95 163.19792Q743.5125 162.51042 743.4969 161.65105ZM751.7469 166.8073L751.7469 158.19792L752.7 158.19792L752.7 158.9948Q753.04376 158.52605 753.46564 158.29167Q753.90314 158.0573 754.5125 158.0573Q755.3094 158.0573 755.91876 158.46355Q756.52814 158.8698 756.825 159.6198Q757.1375 160.3698 757.1375 161.26042Q757.1375 162.21355 756.79376 162.97917Q756.46564 163.7448 755.8094 164.15105Q755.15314 164.5573 754.4344 164.5573Q753.90314 164.5573 753.48126 164.33855Q753.0594 164.10417 752.79376 163.77605L752.79376 166.8073L751.7469 166.8073ZM752.7 161.33855Q752.7 162.54167 753.1844 163.1198Q753.66876 163.6823 754.35626 163.6823Q755.0594 163.6823 755.5594 163.08855Q756.0594 162.4948 756.0594 161.2448Q756.0594 160.0573 755.575 159.47917Q755.09064 158.88542 754.40314 158.88542Q753.73126 158.88542 753.21564 159.51042Q752.7 160.13542 752.7 161.33855ZM762.8094 163.65105Q762.21564 164.15105 761.66876 164.35417Q761.1375 164.5573 760.5125 164.5573Q759.48126 164.5573 758.9344 164.0573Q758.3875 163.5573 758.3875 162.77605Q758.3875 162.32292 758.59064 161.94792Q758.79376 161.5573 759.1375 161.33855Q759.48126 161.10417 759.90314 160.9948Q760.2 160.90105 760.84064 160.82292Q762.10626 160.6823 762.71564 160.46355Q762.71564 160.2448 762.71564 160.19792Q762.71564 159.54167 762.41876 159.27605Q762.0125 158.9323 761.21564 158.9323Q760.48126 158.9323 760.1219 159.19792Q759.7625 159.44792 759.59064 160.10417L758.5594 159.96355Q758.7 159.3073 759.02814 158.90105Q759.35626 158.4948 759.96564 158.27605Q760.575 158.0573 761.3719 158.0573Q762.16876 158.0573 762.66876 158.2448Q763.16876 158.4323 763.40314 158.71355Q763.6375 158.9948 763.73126 159.4323Q763.77814 159.69792 763.77814 160.40105L763.77814 161.8073Q763.77814 163.27605 763.84064 163.66667Q763.91876 164.0573 764.1219 164.41667L763.0125 164.41667Q762.85626 164.08855 762.8094 163.65105ZM762.71564 161.29167Q762.1375 161.52605 760.9969 161.69792Q760.34064 161.79167 760.075 161.91667Q759.8094 162.02605 759.65314 162.2448Q759.5125 162.46355 759.5125 162.7448Q759.5125 163.16667 759.825 163.44792Q760.15314 163.72917 760.7625 163.72917Q761.3719 163.72917 761.84064 163.46355Q762.325 163.19792 762.54376 162.72917Q762.71564 162.3698 762.71564 161.6823L762.71564 161.29167ZM765.7469 164.41667L765.7469 158.19792L766.6844 158.19792L766.6844 159.07292Q767.3719 158.0573 768.66876 158.0573Q769.23126 158.0573 769.7 158.26042Q770.1844 158.46355 770.41876 158.79167Q770.65314 159.1198 770.7469 159.5573Q770.79376 159.85417 770.79376 160.58855L770.79376 164.41667L769.7469 164.41667L769.7469 160.63542Q769.7469 159.97917 769.6219 159.66667Q769.4969 159.35417 769.1844 159.16667Q768.8719 158.96355 768.45 158.96355Q767.77814 158.96355 767.27814 159.40105Q766.79376 159.82292 766.79376 161.01042L766.79376 164.41667L765.7469 164.41667ZM772.7469 157.04167L772.7469 155.82292L773.8094 155.82292L773.8094 157.04167L772.7469 157.04167ZM772.7469 164.41667L772.7469 158.19792L773.8094 158.19792L773.8094 164.41667L772.7469 164.41667ZM775.325 162.5573L776.35626 162.40105Q776.45 163.02605 776.84064 163.35417Q777.2469 163.6823 777.98126 163.6823Q778.7 163.6823 779.04376 163.40105Q779.40314 163.10417 779.40314 162.69792Q779.40314 162.33855 779.09064 162.13542Q778.8719 161.9948 778.0125 161.77605Q776.85626 161.47917 776.40314 161.27605Q775.96564 161.0573 775.73126 160.6823Q775.4969 160.3073 775.4969 159.83855Q775.4969 159.4323 775.6844 159.07292Q775.8719 158.71355 776.2 158.47917Q776.45 158.3073 776.8719 158.1823Q777.29376 158.0573 777.79376 158.0573Q778.5125 158.0573 779.0594 158.27605Q779.6219 158.47917 779.8875 158.83855Q780.15314 159.19792 780.2469 159.79167L779.21564 159.9323Q779.15314 159.46355 778.8094 159.19792Q778.48126 158.91667 777.85626 158.91667Q777.1375 158.91667 776.825 159.16667Q776.5125 159.40105 776.5125 159.72917Q776.5125 159.9323 776.6375 160.08855Q776.77814 160.26042 777.04376 160.3698Q777.2 160.4323 777.98126 160.63542Q779.10626 160.94792 779.54376 161.13542Q779.98126 161.32292 780.23126 161.6823Q780.48126 162.04167 780.48126 162.58855Q780.48126 163.1198 780.16876 163.58855Q779.8719 164.04167 779.29376 164.3073Q778.71564 164.5573 777.98126 164.5573Q776.7625 164.5573 776.1219 164.0573Q775.4969 163.54167 775.325 162.5573ZM782.7469 164.41667L782.7469 155.82292L783.79376 155.82292L783.79376 158.90105Q784.52814 158.0573 785.65314 158.0573Q786.35626 158.0573 786.85626 158.33855Q787.3719 158.60417 787.59064 159.08855Q787.8094 159.5573 787.8094 160.47917L787.8094 164.41667L786.7625 164.41667L786.7625 160.47917Q786.7625 159.6823 786.41876 159.32292Q786.075 158.96355 785.45 158.96355Q784.98126 158.96355 784.5594 159.21355Q784.15314 159.44792 783.96564 159.8698Q783.79376 160.27605 783.79376 161.01042L783.79376 164.41667L782.7469 164.41667Z" fill-rule="nonzero"/><path fill="#a3a3a3" d="M734.95 184.41667C734.95 187.73038 732.26373 190.41667 728.95 190.41667C725.6363 190.41667 722.95 187.73038 722.95 184.41667C722.95 181.10295 725.6363 178.41667 728.95 178.41667C732.26373 178.41667 734.95 181.10295 734.95 184.41667Z" fill-rule="nonzero"/><path fill="#1a1a1a" d="M743.52814 184.22917Q743.52814 182.08855 744.66876 180.88542Q745.825 179.66667 747.6375 179.66667Q748.84064 179.66667 749.79376 180.2448Q750.7469 180.8073 751.2469 181.82292Q751.7469 182.83855 751.7469 184.13542Q751.7469 185.4323 751.21564 186.46355Q750.6844 187.4948 749.71564 188.02605Q748.7625 188.5573 747.6375 188.5573Q746.41876 188.5573 745.46564 187.97917Q744.5125 187.38542 744.0125 186.38542Q743.52814 185.3698 743.52814 184.22917ZM744.7 184.2448Q744.7 185.8073 745.52814 186.69792Q746.3719 187.58855 747.6375 187.58855Q748.91876 187.58855 749.7469 186.69792Q750.575 185.79167 750.575 184.1198Q750.575 183.07292 750.21564 182.29167Q749.8719 181.51042 749.1844 181.08855Q748.4969 180.65105 747.65314 180.65105Q746.45 180.65105 745.575 181.47917Q744.7 182.3073 744.7 184.2448ZM755.04376 187.47917L755.2 188.40105Q754.7469 188.4948 754.40314 188.4948Q753.825 188.4948 753.5125 188.32292Q753.2 188.13542 753.0594 187.83855Q752.9344 187.54167 752.9344 186.58855L752.9344 183.01042L752.16876 183.01042L752.16876 182.19792L752.9344 182.19792L752.9344 180.65105L753.98126 180.02605L753.98126 182.19792L755.04376 182.19792L755.04376 183.01042L753.98126 183.01042L753.98126 186.65105Q753.98126 187.10417 754.02814 187.22917Q754.09064 187.35417 754.21564 187.4323Q754.34064 187.51042 754.575 187.51042Q754.7625 187.51042 755.04376 187.47917ZM755.7469 188.41667L755.7469 179.82292L756.79376 179.82292L756.79376 182.90105Q757.52814 182.0573 758.65314 182.0573Q759.35626 182.0573 759.85626 182.33855Q760.3719 182.60417 760.59064 183.08855Q760.8094 183.5573 760.8094 184.47917L760.8094 188.41667L759.7625 188.41667L759.7625 184.47917Q759.7625 183.6823 759.41876 183.32292Q759.075 182.96355 758.45 182.96355Q757.98126 182.96355 757.5594 183.21355Q757.15314 183.44792 756.96564 183.8698Q756.79376 184.27605 756.79376 185.01042L756.79376 188.41667L755.7469 188.41667ZM766.9969 186.41667L768.09064 186.54167Q767.84064 187.4948 767.1375 188.02605Q766.4344 188.5573 765.35626 188.5573Q763.9969 188.5573 763.1844 187.71355Q762.3875 186.8698 762.3875 185.35417Q762.3875 183.79167 763.2 182.9323Q764.0125 182.0573 765.29376 182.0573Q766.54376 182.0573 767.325 182.90105Q768.1219 183.7448 768.1219 185.29167Q768.1219 185.38542 768.1219 185.57292L763.48126 185.57292Q763.54376 186.60417 764.0594 187.15105Q764.575 187.6823 765.35626 187.6823Q765.9344 187.6823 766.34064 187.38542Q766.7625 187.07292 766.9969 186.41667ZM763.54376 184.71355L767.0125 184.71355Q766.95 183.91667 766.6219 183.52605Q766.10626 182.91667 765.3094 182.91667Q764.575 182.91667 764.075 183.40105Q763.59064 183.88542 763.54376 184.71355ZM769.73126 188.41667L769.73126 182.19792L770.6844 182.19792L770.6844 183.13542Q771.04376 182.47917 771.34064 182.27605Q771.65314 182.0573 772.02814 182.0573Q772.5594 182.0573 773.10626 182.38542L772.7469 183.3698Q772.35626 183.13542 771.98126 183.13542Q771.6219 183.13542 771.34064 183.35417Q771.075 183.5573 770.96564 183.9323Q770.77814 184.4948 770.77814 185.15105L770.77814 188.41667L769.73126 188.41667Z" fill-rule="nonzero"/><path fill="#757575" d="M326.96875 39.05L326.96875 24.7375L332.34375 24.7375Q333.98438 24.7375 334.96875 25.175Q335.95312 25.596874 336.51562 26.503124Q337.07812 27.409374 337.07812 28.39375Q337.07812 29.315624 336.57812 30.128124Q336.09375 30.940624 335.07812 31.425Q336.375 31.815624 337.07812 32.7375Q337.78125 33.64375 337.78125 34.89375Q337.78125 35.909374 337.34375 36.76875Q336.92188 37.628124 336.29688 38.096874Q335.67188 38.565624 334.73438 38.815624Q333.79688 39.05 332.42188 39.05L326.96875 39.05ZM328.85938 30.753124L331.95312 30.753124Q333.21875 30.753124 333.76562 30.58125Q334.48438 30.3625 334.84375 29.878124Q335.21875 29.378124 335.21875 28.6125Q335.21875 27.909374 334.875 27.3625Q334.53125 26.815624 333.89062 26.628124Q333.26562 26.425 331.71875 26.425L328.85938 26.425L328.85938 30.753124ZM328.85938 37.3625L332.42188 37.3625Q333.34375 37.3625 333.71875 37.284374Q334.375 37.175 334.8125 36.909374Q335.25 36.628124 335.53125 36.1125Q335.8125 35.58125 335.8125 34.89375Q335.8125 34.096874 335.40625 33.503124Q335.0 32.909374 334.26562 32.675Q333.53125 32.440624 332.17188 32.440624L328.85938 32.440624L328.85938 37.3625ZM339.79688 39.05L339.79688 28.675L341.375 28.675L341.375 30.253124Q341.98438 29.14375 342.5 28.8Q343.01562 28.440624 343.625 28.440624Q344.51562 28.440624 345.4375 29.003124L344.82812 30.64375Q344.1875 30.253124 343.54688 30.253124Q342.96875 30.253124 342.5 30.6125Q342.04688 30.95625 341.84375 31.565624Q341.5625 32.503124 341.5625 33.6125L341.5625 39.05L339.79688 39.05ZM346.17188 33.8625Q346.17188 30.9875 347.76562 29.596874Q349.10938 28.440624 351.03125 28.440624Q353.17188 28.440624 354.51562 29.846874Q355.875 31.253124 355.875 33.721874Q355.875 35.721874 355.28125 36.878124Q354.6875 38.01875 353.53125 38.659374Q352.39062 39.284374 351.03125 39.284374Q348.84375 39.284374 347.5 37.89375Q346.17188 36.4875 346.17188 33.8625ZM347.96875 33.8625Q347.96875 35.8625 348.82812 36.846874Q349.70312 37.83125 351.03125 37.83125Q352.34375 37.83125 353.20312 36.846874Q354.07812 35.846874 354.07812 33.8Q354.07812 31.878124 353.20312 30.89375Q352.32812 29.89375 351.03125 29.89375Q349.70312 29.89375 348.82812 30.89375Q347.96875 31.878124 347.96875 33.8625ZM359.73438 39.05L356.5625 28.675L358.375 28.675L360.03125 34.659374L360.64062 36.89375Q360.6875 36.721874 361.17188 34.753124L362.82812 28.675L364.64062 28.675L366.1875 34.690624L366.70312 36.675L367.29688 34.675L369.07812 28.675L370.78125 28.675L367.54688 39.05L365.71875 39.05L364.0625 32.83125L363.67188 31.065624L361.5625 39.05L359.73438 39.05ZM372.10938 35.95625L373.85938 35.675Q374.0 36.721874 374.67188 37.284374Q375.34375 37.83125 376.54688 37.83125Q377.75 37.83125 378.32812 37.346874Q378.92188 36.846874 378.92188 36.190624Q378.92188 35.596874 378.40625 35.253124Q378.04688 35.01875 376.60938 34.659374Q374.67188 34.159374 373.92188 33.815624Q373.1875 33.45625 372.79688 32.83125Q372.40625 32.190624 372.40625 31.425Q372.40625 30.7375 372.71875 30.14375Q373.04688 29.55 373.59375 29.159374Q374.0 28.8625 374.70312 28.659374Q375.42188 28.440624 376.23438 28.440624Q377.45312 28.440624 378.375 28.8Q379.29688 29.14375 379.73438 29.753124Q380.17188 30.346874 380.34375 31.346874L378.625 31.58125Q378.5 30.784374 377.9375 30.346874Q377.375 29.89375 376.35938 29.89375Q375.14062 29.89375 374.625 30.3Q374.10938 30.690624 374.10938 31.221874Q374.10938 31.565624 374.32812 31.846874Q374.53125 32.128124 375.0 32.315624Q375.26562 32.409374 376.54688 32.753124Q378.42188 33.253124 379.15625 33.58125Q379.89062 33.89375 380.3125 34.503124Q380.73438 35.096874 380.73438 36.003124Q380.73438 36.878124 380.21875 37.659374Q379.70312 38.440624 378.73438 38.8625Q377.76562 39.284374 376.54688 39.284374Q374.53125 39.284374 373.46875 38.440624Q372.40625 37.596874 372.10938 35.95625ZM389.92188 35.70625L391.73438 35.940624Q391.3125 37.51875 390.14062 38.409374Q388.98438 39.284374 387.17188 39.284374Q384.90625 39.284374 383.5625 37.89375Q382.23438 36.4875 382.23438 33.95625Q382.23438 31.33125 383.57812 29.89375Q384.92188 28.440624 387.07812 28.440624Q389.15625 28.440624 390.46875 29.8625Q391.79688 31.26875 391.79688 33.846874Q391.79688 34.003124 391.78125 34.315624L384.04688 34.315624Q384.14062 36.01875 385.01562 36.925Q385.89062 37.83125 387.1875 37.83125Q388.15625 37.83125 388.82812 37.33125Q389.51562 36.815624 389.92188 35.70625ZM384.14062 32.8625L389.9375 32.8625Q389.82812 31.565624 389.28125 30.909374Q388.4375 29.89375 387.09375 29.89375Q385.89062 29.89375 385.0625 30.70625Q384.23438 31.503124 384.14062 32.8625ZM393.79688 39.05L393.79688 28.675L395.375 28.675L395.375 30.253124Q395.98438 29.14375 396.5 28.8Q397.01562 28.440624 397.625 28.440624Q398.51562 28.440624 399.4375 29.003124L398.82812 30.64375Q398.1875 30.253124 397.54688 30.253124Q396.96875 30.253124 396.5 30.6125Q396.04688 30.95625 395.84375 31.565624Q395.5625 32.503124 395.5625 33.6125L395.5625 39.05L393.79688 39.05ZM406.78125 39.05L406.78125 24.7375L408.53125 24.7375L408.53125 39.05L406.78125 39.05ZM417.59375 37.76875Q416.60938 38.596874 415.70312 38.940624Q414.79688 39.284374 413.76562 39.284374Q412.0625 39.284374 411.14062 38.45625Q410.21875 37.6125 410.21875 36.315624Q410.21875 35.55 410.5625 34.925Q410.92188 34.3 411.48438 33.925Q412.04688 33.534374 412.75 33.33125Q413.26562 33.20625 414.3125 33.065624Q416.4375 32.815624 417.4375 32.471874Q417.45312 32.1125 417.45312 32.003124Q417.45312 30.940624 416.95312 30.4875Q416.28125 29.89375 414.95312 29.89375Q413.70312 29.89375 413.10938 30.33125Q412.53125 30.76875 412.25 31.878124L410.53125 31.64375Q410.76562 30.534374 411.29688 29.8625Q411.82812 29.175 412.84375 28.815624Q413.85938 28.440624 415.20312 28.440624Q416.53125 28.440624 417.35938 28.753124Q418.1875 29.065624 418.57812 29.55Q418.96875 30.01875 419.125 30.7375Q419.21875 31.190624 419.21875 32.3625L419.21875 34.70625Q419.21875 37.159374 419.32812 37.815624Q419.4375 38.45625 419.78125 39.05L417.9375 39.05Q417.67188 38.503124 417.59375 37.76875ZM417.4375 33.846874Q416.48438 34.2375 414.5625 34.503124Q413.48438 34.659374 413.03125 34.8625Q412.59375 35.05 412.34375 35.425Q412.09375 35.8 412.09375 36.26875Q412.09375 36.971874 412.625 37.440624Q413.15625 37.909374 414.1875 37.909374Q415.20312 37.909374 415.98438 37.471874Q416.78125 37.01875 417.15625 36.253124Q417.4375 35.64375 417.4375 34.4875L417.4375 33.846874ZM421.8125 39.05L421.8125 28.675L423.40625 28.675L423.40625 30.159374Q424.54688 28.440624 426.70312 28.440624Q427.64062 28.440624 428.42188 28.784374Q429.21875 29.1125 429.60938 29.659374Q430.0 30.20625 430.15625 30.95625Q430.25 31.45625 430.25 32.675L430.25 39.05L428.48438 39.05L428.48438 32.7375Q428.48438 31.659374 428.28125 31.128124Q428.07812 30.596874 427.54688 30.284374Q427.03125 29.971874 426.32812 29.971874Q425.20312 29.971874 424.39062 30.690624Q423.57812 31.39375 423.57812 33.378124L423.57812 39.05L421.8125 39.05ZM431.5 39.909374L433.20312 40.159374Q433.3125 40.95625 433.79688 41.315624Q434.45312 41.8 435.59375 41.8Q436.8125 41.8 437.46875 41.315624Q438.14062 40.83125 438.375 39.95625Q438.51562 39.409374 438.5 37.690624Q437.34375 39.05 435.625 39.05Q433.48438 39.05 432.3125 37.503124Q431.14062 35.95625 431.14062 33.8Q431.14062 32.315624 431.67188 31.065624Q432.21875 29.815624 433.23438 29.128124Q434.26562 28.440624 435.64062 28.440624Q437.46875 28.440624 438.67188 29.925L438.67188 28.675L440.28125 28.675L440.28125 37.64375Q440.28125 40.065624 439.78125 41.065624Q439.29688 42.08125 438.21875 42.659374Q437.15625 43.253124 435.59375 43.253124Q433.75 43.253124 432.59375 42.425Q431.45312 41.596874 431.5 39.909374ZM432.95312 33.675Q432.95312 35.721874 433.76562 36.659374Q434.57812 37.596874 435.79688 37.596874Q437.0 37.596874 437.8125 36.659374Q438.64062 35.721874 438.64062 33.7375Q438.64062 31.83125 437.79688 30.8625Q436.95312 29.89375 435.76562 29.89375Q434.59375 29.89375 433.76562 30.846874Q432.95312 31.8 432.95312 33.675ZM449.60938 39.05L449.60938 37.51875Q448.40625 39.284374 446.32812 39.284374Q445.40625 39.284374 444.60938 38.940624Q443.8125 38.58125 443.42188 38.05Q443.04688 37.51875 442.89062 36.7375Q442.78125 36.221874 442.78125 35.096874L442.78125 28.675L444.53125 28.675L444.53125 34.425Q444.53125 35.8 444.64062 36.284374Q444.8125 36.971874 445.34375 37.378124Q445.89062 37.76875 446.67188 37.76875Q447.46875 37.76875 448.15625 37.3625Q448.85938 36.95625 449.14062 36.26875Q449.4375 35.565624 449.4375 34.2375L449.4375 28.675L451.1875 28.675L451.1875 39.05L449.60938 39.05ZM459.59375 37.76875Q458.60938 38.596874 457.70312 38.940624Q456.79688 39.284374 455.76562 39.284374Q454.0625 39.284374 453.14062 38.45625Q452.21875 37.6125 452.21875 36.315624Q452.21875 35.55 452.5625 34.925Q452.92188 34.3 453.48438 33.925Q454.04688 33.534374 454.75 33.33125Q455.26562 33.20625 456.3125 33.065624Q458.4375 32.815624 459.4375 32.471874Q459.45312 32.1125 459.45312 32.003124Q459.45312 30.940624 458.95312 30.4875Q458.28125 29.89375 456.95312 29.89375Q455.70312 29.89375 455.10938 30.33125Q454.53125 30.76875 454.25 31.878124L452.53125 31.64375Q452.76562 30.534374 453.29688 29.8625Q453.82812 29.175 454.84375 28.815624Q455.85938 28.440624 457.20312 28.440624Q458.53125 28.440624 459.35938 28.753124Q460.1875 29.065624 460.57812 29.55Q460.96875 30.01875 461.125 30.7375Q461.21875 31.190624 461.21875 32.3625L461.21875 34.70625Q461.21875 37.159374 461.32812 37.815624Q461.4375 38.45625 461.78125 39.05L459.9375 39.05Q459.67188 38.503124 459.59375 37.76875ZM459.4375 33.846874Q458.48438 34.2375 456.5625 34.503124Q455.48438 34.659374 455.03125 34.8625Q454.59375 35.05 454.34375 35.425Q454.09375 35.8 454.09375 36.26875Q454.09375 36.971874 454.625 37.440624Q455.15625 37.909374 456.1875 37.909374Q457.20312 37.909374 457.98438 37.471874Q458.78125 37.01875 459.15625 36.253124Q459.4375 35.64375 459.4375 34.4875L459.4375 33.846874ZM463.5 39.909374L465.20312 40.159374Q465.3125 40.95625 465.79688 41.315624Q466.45312 41.8 467.59375 41.8Q468.8125 41.8 469.46875 41.315624Q470.14062 40.83125 470.375 39.95625Q470.51562 39.409374 470.5 37.690624Q469.34375 39.05 467.625 39.05Q465.48438 39.05 464.3125 37.503124Q463.14062 35.95625 463.14062 33.8Q463.14062 32.315624 463.67188 31.065624Q464.21875 29.815624 465.23438 29.128124Q466.26562 28.440624 467.64062 28.440624Q469.46875 28.440624 470.67188 29.925L470.67188 28.675L472.28125 28.675L472.28125 37.64375Q472.28125 40.065624 471.78125 41.065624Q471.29688 42.08125 470.21875 42.659374Q469.15625 43.253124 467.59375 43.253124Q465.75 43.253124 464.59375 42.425Q463.45312 41.596874 463.5 39.909374ZM464.95312 33.675Q464.95312 35.721874 465.76562 36.659374Q466.57812 37.596874 467.79688 37.596874Q469.0 37.596874 469.8125 36.659374Q470.64062 35.721874 470.64062 33.7375Q470.64062 31.83125 469.79688 30.8625Q468.95312 29.89375 467.76562 29.89375Q466.59375 29.89375 465.76562 30.846874Q464.95312 31.8 464.95312 33.675ZM481.92188 35.70625L483.73438 35.940624Q483.3125 37.51875 482.14062 38.409374Q480.98438 39.284374 479.17188 39.284374Q476.90625 39.284374 475.5625 37.89375Q474.23438 36.4875 474.23438 33.95625Q474.23438 31.33125 475.57812 29.89375Q476.92188 28.440624 479.07812 28.440624Q481.15625 28.440624 482.46875 29.8625Q483.79688 31.26875 483.79688 33.846874Q483.79688 34.003124 483.78125 34.315624L476.04688 34.315624Q476.14062 36.01875 477.01562 36.925Q477.89062 37.83125 479.1875 37.83125Q480.15625 37.83125 480.82812 37.33125Q481.51562 36.815624 481.92188 35.70625ZM476.14062 32.8625L481.9375 32.8625Q481.82812 31.565624 481.28125 30.909374Q480.4375 29.89375 479.09375 29.89375Q477.89062 29.89375 477.0625 30.70625Q476.23438 31.503124 476.14062 32.8625Z" fill-rule="nonzero"/></svg>