<svg version="1.1" viewBox="0.0 0.0 810.0 402.0" fill="none" stroke="none" stroke-linecap="square" stroke-miterlimit="10" width="810" height="402" xmlns:xlink="http://www.w3.org/1999/xlink" xmlns="http://www.w3.org/2000/svg"><path fill="#ffffff" d="M0 0L810.0 0L810.0 402.0L0 402.0L0 0Z" fill-rule="nonzero"/><path fill="#2563eb" d="M356.18668 65.61C445.76724 65.61 518.38666 138.22942 518.38666 227.81C518.38666 317.3906 445.76724 390.01 356.18668 390.01C266.60608 390.01 193.98666 317.3906 193.98666 227.81C193.98666 138.22942 266.60608 65.61 356.18668 65.61L356.18668 146.71C311.39636 146.71 275.08667 183.01971 275.08667 227.81C275.08667 272.60028 311.39636 308.91 356.18668 308.91C400.97696 308.91 437.28665 272.60028 437.28665 227.81C437.28665 183.01971 400.97696 146.71 356.18668 146.71Z" fill-rule="nonzero"/><path fill="#ffffff" d="M338.7023 365.9769L336.78043 365.9769L336.78043 358.74252Q335.71793 359.7269 334.29605 360.19565L334.29605 358.44565Q335.04605 358.21127 335.92105 357.52377Q336.81168 356.83627 337.1398 355.9144L338.7023 355.9144L338.7023 365.9769ZM345.03043 355.9144Q346.48355 355.9144 347.31168 356.94565Q348.28043 358.18002 348.28043 361.0394Q348.28043 363.88315 347.29605 365.11752Q346.48355 366.14877 345.03043 366.14877Q343.56168 366.14877 342.67105 365.02377Q341.78043 363.89877 341.78043 361.00815Q341.78043 358.18002 342.7648 356.94565Q343.5773 355.9144 345.03043 355.9144ZM345.03043 357.50815Q344.68668 357.50815 344.40543 357.7269Q344.1398 357.94565 343.98355 358.52377Q343.78043 359.27377 343.78043 361.0394Q343.78043 362.80502 343.9523 363.46127Q344.1398 364.11752 344.40543 364.33627Q344.68668 364.55502 345.03043 364.55502Q345.37418 364.55502 345.6398 364.33627Q345.92105 364.11752 346.0773 363.5394Q346.28043 362.80502 346.28043 361.0394Q346.28043 359.27377 346.09293 358.61752Q345.92105 357.94565 345.6398 357.7269Q345.37418 357.50815 345.03043 357.50815ZM353.03043 355.9144Q354.48355 355.9144 355.31168 356.94565Q356.28043 358.18002 356.28043 361.0394Q356.28043 363.88315 355.29605 365.11752Q354.48355 366.14877 353.03043 366.14877Q351.56168 366.14877 350.67105 365.02377Q349.78043 363.89877 349.78043 361.00815Q349.78043 358.18002 350.7648 356.94565Q351.5773 355.9144 353.03043 355.9144ZM353.03043 357.50815Q352.68668 357.50815 352.40543 357.7269Q352.1398 357.94565 351.98355 358.52377Q351.78043 359.27377 351.78043 361.0394Q351.78043 362.80502 351.9523 363.46127Q352.1398 364.11752 352.40543 364.33627Q352.68668 364.55502 353.03043 364.55502Q353.37418 364.55502 353.6398 364.33627Q353.92105 364.11752 354.0773 363.5394Q354.28043 362.80502 354.28043 361.0394Q354.28043 359.27377 354.09293 358.61752Q353.92105 357.94565 353.6398 357.7269Q353.37418 357.50815 353.03043 357.50815ZM358.18668 365.9769L358.18668 364.05502L360.10855 364.05502L360.10855 365.9769L358.18668 365.9769ZM365.03043 355.9144Q366.48355 355.9144 367.31168 356.94565Q368.28043 358.18002 368.28043 361.0394Q368.28043 363.88315 367.29605 365.11752Q366.48355 366.14877 365.03043 366.14877Q363.56168 366.14877 362.67105 365.02377Q361.78043 363.89877 361.78043 361.00815Q361.78043 358.18002 362.7648 356.94565Q363.5773 355.9144 365.03043 355.9144ZM365.03043 357.50815Q364.68668 357.50815 364.40543 357.7269Q364.1398 357.94565 363.98355 358.52377Q363.78043 359.27377 363.78043 361.0394Q363.78043 362.80502 363.9523 363.46127Q364.1398 364.11752 364.40543 364.33627Q364.68668 364.55502 365.03043 364.55502Q365.37418 364.55502 365.6398 364.33627Q365.92105 364.11752 366.0773 363.5394Q366.28043 362.80502 366.28043 361.0394Q366.28043 359.27377 366.09293 358.61752Q365.92105 357.94565 365.6398 357.7269Q365.37418 357.50815 365.03043 357.50815ZM369.79605 358.43002Q369.79605 357.08627 370.3898 356.44565Q370.98355 355.7894 371.98355 355.7894Q373.03043 355.7894 373.62418 356.43002Q374.21793 357.07065 374.21793 358.43002Q374.21793 359.77377 373.62418 360.43002Q373.03043 361.07065 372.03043 361.07065Q370.98355 361.07065 370.3898 360.43002Q369.79605 359.7894 369.79605 358.43002ZM371.29605 358.4144Q371.29605 359.39877 371.5148 359.7269Q371.68668 359.9769 371.98355 359.9769Q372.29605 359.9769 372.46793 359.7269Q372.68668 359.39877 372.68668 358.4144Q372.68668 357.44565 372.46793 357.11752Q372.29605 356.8519 371.98355 356.8519Q371.68668 356.8519 371.5148 357.1019Q371.29605 357.44565 371.29605 358.4144ZM373.4523 366.36752L372.03043 366.36752L377.37418 355.7894L378.74918 355.7894L373.4523 366.36752ZM376.56168 363.7269Q376.56168 362.38315 377.1398 361.74252Q377.73355 361.08627 378.7648 361.08627Q379.79605 361.08627 380.3898 361.74252Q380.98355 362.38315 380.98355 363.7269Q380.98355 365.08627 380.3898 365.74252Q379.79605 366.38315 378.78043 366.38315Q377.73355 366.38315 377.1398 365.74252Q376.56168 365.08627 376.56168 363.7269ZM378.04605 363.7269Q378.04605 364.69565 378.28043 365.02377Q378.4523 365.27377 378.74918 365.27377Q379.06168 365.27377 379.21793 365.0394Q379.4523 364.69565 379.4523 363.7269Q379.4523 362.74252 379.23355 362.4144Q379.06168 362.1644 378.74918 362.1644Q378.43668 362.1644 378.28043 362.4144Q378.04605 362.74252 378.04605 363.7269Z" fill-rule="nonzero"/><path fill="#2563eb" d="M725.9 64.5C725.9 67.813705 723.2137 70.5 719.9 70.5C716.5863 70.5 713.9 67.813705 713.9 64.5C713.9 61.18629 716.5863 58.5 719.9 58.5C723.2137 58.5 725.9 61.18629 725.9 64.5Z" fill-rule="nonzero"/><path fill="#1a1a1a" d="M734.4469 65.734375L735.5094 65.640625Q735.5875 66.296875 735.8688 66.703125Q736.15 67.109375 736.72815 67.375Q737.3219 67.625 738.0563 67.625Q738.6969 67.625 739.1969 67.4375Q739.6969 67.234375 739.9313 66.90625Q740.1813 66.5625 740.1813 66.171875Q740.1813 65.765625 739.9469 65.46875Q739.7125 65.15625 739.1813 64.953125Q738.8219 64.8125 737.6344 64.53125Q736.4625 64.25 735.9938 64.0Q735.3688 63.671875 735.0719 63.203125Q734.775 62.71875 734.775 62.125Q734.775 61.484375 735.1344 60.921875Q735.5094 60.34375 736.2125 60.0625Q736.9313 59.765625 737.79065 59.765625Q738.7438 59.765625 739.47815 60.078125Q740.2125 60.375 740.60315 60.984375Q740.9938 61.578125 741.025 62.328125L739.9313 62.40625Q739.8375 61.59375 739.3219 61.1875Q738.8219 60.765625 737.8375 60.765625Q736.8063 60.765625 736.3375 61.140625Q735.8688 61.515625 735.8688 62.046875Q735.8688 62.515625 736.1969 62.8125Q736.525 63.109375 737.9 63.421875Q739.29065 63.734375 739.8063 63.96875Q740.5563 64.328125 740.91565 64.859375Q741.275 65.375 741.275 66.078125Q741.275 66.765625 740.8844 67.375Q740.4938 67.96875 739.7594 68.3125Q739.025 68.640625 738.10315 68.640625Q736.9313 68.640625 736.1344 68.3125Q735.35315 67.96875 734.9 67.28125Q734.4625 66.59375 734.4469 65.734375ZM746.7594 67.734375Q746.16565 68.234375 745.6188 68.4375Q745.0875 68.640625 744.4625 68.640625Q743.4313 68.640625 742.8844 68.140625Q742.3375 67.640625 742.3375 66.859375Q742.3375 66.40625 742.54065 66.03125Q742.7438 65.640625 743.0875 65.421875Q743.4313 65.1875 743.85315 65.078125Q744.15 64.984375 744.79065 64.90625Q746.0563 64.765625 746.66565 64.546875Q746.66565 64.328125 746.66565 64.28125Q746.66565 63.625 746.3688 63.359375Q745.9625 63.015625 745.16565 63.015625Q744.4313 63.015625 744.0719 63.28125Q743.7125 63.53125 743.54065 64.1875L742.5094 64.046875Q742.65 63.390625 742.97815 62.984375Q743.3063 62.578125 743.91565 62.359375Q744.525 62.140625 745.3219 62.140625Q746.1188 62.140625 746.6188 62.328125Q747.1188 62.515625 747.35315 62.796875Q747.5875 63.078125 747.6813 63.515625Q747.72815 63.78125 747.72815 64.484375L747.72815 65.890625Q747.72815 67.359375 747.79065 67.75Q747.8688 68.140625 748.0719 68.5L746.9625 68.5Q746.8063 68.171875 746.7594 67.734375ZM746.66565 65.375Q746.0875 65.609375 744.9469 65.78125Q744.29065 65.875 744.025 66.0Q743.7594 66.109375 743.60315 66.328125Q743.4625 66.546875 743.4625 66.828125Q743.4625 67.25 743.775 67.53125Q744.10315 67.8125 744.7125 67.8125Q745.3219 67.8125 745.79065 67.546875Q746.275 67.28125 746.4938 66.8125Q746.66565 66.453125 746.66565 65.765625L746.66565 65.375ZM749.6969 68.5L749.6969 62.28125L750.6344 62.28125L750.6344 63.15625Q751.3219 62.140625 752.6188 62.140625Q753.1813 62.140625 753.65 62.34375Q754.1344 62.546875 754.3688 62.875Q754.60315 63.203125 754.6969 63.640625Q754.7438 63.9375 754.7438 64.671875L754.7438 68.5L753.6969 68.5L753.6969 64.71875Q753.6969 64.0625 753.5719 63.75Q753.4469 63.4375 753.1344 63.25Q752.8219 63.046875 752.4 63.046875Q751.72815 63.046875 751.22815 63.484375Q750.7438 63.90625 750.7438 65.09375L750.7438 68.5L749.6969 68.5ZM756.275 66.640625L757.3063 66.484375Q757.4 67.109375 757.79065 67.4375Q758.1969 67.765625 758.9313 67.765625Q759.65 67.765625 759.9938 67.484375Q760.35315 67.1875 760.35315 66.78125Q760.35315 66.421875 760.04065 66.21875Q759.8219 66.078125 758.9625 65.859375Q757.8063 65.5625 757.35315 65.359375Q756.91565 65.140625 756.6813 64.765625Q756.4469 64.390625 756.4469 63.921875Q756.4469 63.515625 756.6344 63.15625Q756.8219 62.796875 757.15 62.5625Q757.4 62.390625 757.8219 62.265625Q758.2438 62.140625 758.7438 62.140625Q759.4625 62.140625 760.0094 62.359375Q760.5719 62.5625 760.8375 62.921875Q761.10315 63.28125 761.1969 63.875L760.16565 64.015625Q760.10315 63.546875 759.7594 63.28125Q759.4313 63.0 758.8063 63.0Q758.0875 63.0 757.775 63.25Q757.4625 63.484375 757.4625 63.8125Q757.4625 64.015625 757.5875 64.171875Q757.72815 64.34375 757.9938 64.453125Q758.15 64.515625 758.9313 64.71875Q760.0563 65.03125 760.4938 65.21875Q760.9313 65.40625 761.1813 65.765625Q761.4313 66.125 761.4313 66.671875Q761.4313 67.203125 761.1188 67.671875Q760.8219 68.125 760.2438 68.390625Q759.66565 68.640625 758.9313 68.640625Q757.7125 68.640625 757.0719 68.140625Q756.4469 67.625 756.275 66.640625ZM766.275 66.640625L767.3063 66.484375Q767.4 67.109375 767.79065 67.4375Q768.1969 67.765625 768.9313 67.765625Q769.65 67.765625 769.9938 67.484375Q770.35315 67.1875 770.35315 66.78125Q770.35315 66.421875 770.04065 66.21875Q769.8219 66.078125 768.9625 65.859375Q767.8063 65.5625 767.35315 65.359375Q766.91565 65.140625 766.6813 64.765625Q766.4469 64.390625 766.4469 63.921875Q766.4469 63.515625 766.6344 63.15625Q766.8219 62.796875 767.15 62.5625Q767.4 62.390625 767.8219 62.265625Q768.2438 62.140625 768.7438 62.140625Q769.4625 62.140625 770.0094 62.359375Q770.5719 62.5625 770.8375 62.921875Q771.10315 63.28125 771.1969 63.875L770.16565 64.015625Q770.10315 63.546875 769.7594 63.28125Q769.4313 63.0 768.8063 63.0Q768.0875 63.0 767.775 63.25Q767.4625 63.484375 767.4625 63.8125Q767.4625 64.015625 767.5875 64.171875Q767.72815 64.34375 767.9938 64.453125Q768.15 64.515625 768.9313 64.71875Q770.0563 65.03125 770.4938 65.21875Q770.9313 65.40625 771.1813 65.765625Q771.4313 66.125 771.4313 66.671875Q771.4313 67.203125 771.1188 67.671875Q770.8219 68.125 770.2438 68.390625Q769.66565 68.640625 768.9313 68.640625Q767.7125 68.640625 767.0719 68.140625Q766.4469 67.625 766.275 66.640625ZM777.9469 66.5L779.04065 66.625Q778.79065 67.578125 778.0875 68.109375Q777.3844 68.640625 776.3063 68.640625Q774.9469 68.640625 774.1344 67.796875Q773.3375 66.953125 773.3375 65.4375Q773.3375 63.875 774.15 63.015625Q774.9625 62.140625 776.2438 62.140625Q777.4938 62.140625 778.275 62.984375Q779.0719 63.828125 779.0719 65.375Q779.0719 65.46875 779.0719 65.65625L774.4313 65.65625Q774.4938 66.6875 775.0094 67.234375Q775.525 67.765625 776.3063 67.765625Q776.8844 67.765625 777.29065 67.46875Q777.7125 67.15625 777.9469 66.5ZM774.4938 64.796875L777.9625 64.796875Q777.9 64.0 777.5719 63.609375Q777.0563 63.0 776.2594 63.0Q775.525 63.0 775.025 63.484375Q774.54065 63.96875 774.4938 64.796875ZM780.6813 68.5L780.6813 62.28125L781.6344 62.28125L781.6344 63.21875Q781.9938 62.5625 782.29065 62.359375Q782.60315 62.140625 782.97815 62.140625Q783.5094 62.140625 784.0563 62.46875L783.6969 63.453125Q783.3063 63.21875 782.9313 63.21875Q782.5719 63.21875 782.29065 63.4375Q782.025 63.640625 781.91565 64.015625Q781.72815 64.578125 781.72815 65.234375L781.72815 68.5L780.6813 68.5ZM784.6969 61.125L784.6969 59.90625L785.7594 59.90625L785.7594 61.125L784.6969 61.125ZM784.6969 68.5L784.6969 62.28125L785.7594 62.28125L785.7594 68.5L784.6969 68.5ZM787.9469 68.5L787.9469 63.09375L787.0094 63.09375L787.0094 62.28125L787.9469 62.28125L787.9469 61.609375Q787.9469 60.984375 788.0563 60.6875Q788.2125 60.265625 788.5875 60.015625Q788.97815 59.765625 789.66565 59.765625Q790.1188 59.765625 790.65 59.875L790.4938 60.78125Q790.16565 60.734375 789.8688 60.734375Q789.3844 60.734375 789.1813 60.9375Q788.9938 61.140625 788.9938 61.703125L788.9938 62.28125L790.2125 62.28125L790.2125 63.09375L788.9938 63.09375L788.9938 68.5L787.9469 68.5Z" fill-rule="nonzero"/><path fill="#757575" d="M275.40625 34.50625L277.1875 34.35Q277.3125 35.4125 277.76562 36.1Q278.23438 36.7875 279.20312 37.225Q280.1875 37.646873 281.42188 37.646873Q282.5 37.646873 283.32812 37.334373Q284.15625 37.00625 284.5625 36.44375Q284.96875 35.88125 284.96875 35.209373Q284.96875 34.5375 284.57812 34.0375Q284.1875 33.5375 283.29688 33.19375Q282.71875 32.959373 280.73438 32.490623Q278.76562 32.021873 277.98438 31.599998Q276.95312 31.068748 276.45312 30.271873Q275.95312 29.474998 275.95312 28.490623Q275.95312 27.396873 276.5625 26.459373Q277.17188 25.521873 278.35938 25.037498Q279.54688 24.537498 280.98438 24.537498Q282.57812 24.537498 283.79688 25.053123Q285.01562 25.568748 285.65625 26.568748Q286.3125 27.553123 286.35938 28.818748L284.54688 28.959373Q284.40625 27.599998 283.5625 26.912498Q282.71875 26.209373 281.0625 26.209373Q279.34375 26.209373 278.54688 26.849998Q277.76562 27.474998 277.76562 28.349998Q277.76562 29.131248 278.32812 29.631248Q278.875 30.131248 281.1875 30.646873Q283.5 31.162498 284.35938 31.553123Q285.60938 32.13125 286.20312 33.021873Q286.79688 33.896873 286.79688 35.053123Q286.79688 36.19375 286.14062 37.209373Q285.48438 38.225 284.25 38.7875Q283.03125 39.35 281.5 39.35Q279.5625 39.35 278.25 38.7875Q276.9375 38.209373 276.1875 37.06875Q275.4375 35.928123 275.40625 34.50625ZM295.59375 37.81875Q294.60938 38.646873 293.70312 38.990623Q292.79688 39.334373 291.76562 39.334373Q290.0625 39.334373 289.14062 38.50625Q288.21875 37.6625 288.21875 36.365623Q288.21875 35.6 288.5625 34.975Q288.92188 34.35 289.48438 33.975Q290.04688 33.584373 290.75 33.38125Q291.26562 33.25625 292.3125 33.115623Q294.4375 32.865623 295.4375 32.521873Q295.45312 32.1625 295.45312 32.053123Q295.45312 30.990623 294.95312 30.537498Q294.28125 29.943748 292.95312 29.943748Q291.70312 29.943748 291.10938 30.381248Q290.53125 30.818748 290.25 31.928123L288.53125 31.693748Q288.76562 30.584373 289.29688 29.912498Q289.82812 29.224998 290.84375 28.865623Q291.85938 28.490623 293.20312 28.490623Q294.53125 28.490623 295.35938 28.803123Q296.1875 29.115623 296.57812 29.599998Q296.96875 30.068748 297.125 30.787498Q297.21875 31.240623 297.21875 32.4125L297.21875 34.75625Q297.21875 37.209373 297.32812 37.865623Q297.4375 38.50625 297.78125 39.1L295.9375 39.1Q295.67188 38.553123 295.59375 37.81875ZM295.4375 33.896873Q294.48438 34.2875 292.5625 34.553123Q291.48438 34.709373 291.03125 34.9125Q290.59375 35.1 290.34375 35.475Q290.09375 35.85 290.09375 36.31875Q290.09375 37.021873 290.625 37.490623Q291.15625 37.959373 292.1875 37.959373Q293.20312 37.959373 293.98438 37.521873Q294.78125 37.06875 295.15625 36.303123Q295.4375 35.69375 295.4375 34.5375L295.4375 33.896873ZM299.8125 39.1L299.8125 28.724998L301.40625 28.724998L301.40625 30.209373Q302.54688 28.490623 304.70312 28.490623Q305.64062 28.490623 306.42188 28.834373Q307.21875 29.162498 307.60938 29.709373Q308.0 30.256248 308.15625 31.006248Q308.25 31.506248 308.25 32.725L308.25 39.1L306.48438 39.1L306.48438 32.7875Q306.48438 31.709373 306.28125 31.178123Q306.07812 30.646873 305.54688 30.334373Q305.03125 30.021873 304.32812 30.021873Q303.20312 30.021873 302.39062 30.740623Q301.57812 31.443748 301.57812 33.428123L301.57812 39.1L299.8125 39.1ZM309.10938 36.00625L310.85938 35.725Q311.0 36.771873 311.67188 37.334373Q312.34375 37.88125 313.54688 37.88125Q314.75 37.88125 315.32812 37.396873Q315.92188 36.896873 315.92188 36.240623Q315.92188 35.646873 315.40625 35.303123Q315.04688 35.06875 313.60938 34.709373Q311.67188 34.209373 310.92188 33.865623Q310.1875 33.50625 309.79688 32.88125Q309.40625 32.240623 309.40625 31.474998Q309.40625 30.787498 309.71875 30.193748Q310.04688 29.599998 310.59375 29.209373Q311.0 28.912498 311.70312 28.709373Q312.42188 28.490623 313.23438 28.490623Q314.45312 28.490623 315.375 28.849998Q316.29688 29.193748 316.73438 29.803123Q317.17188 30.396873 317.34375 31.396873L315.625 31.631248Q315.5 30.834373 314.9375 30.396873Q314.375 29.943748 313.35938 29.943748Q312.14062 29.943748 311.625 30.349998Q311.10938 30.740623 311.10938 31.271873Q311.10938 31.615623 311.32812 31.896873Q311.53125 32.178123 312.0 32.365623Q312.26562 32.459373 313.54688 32.803123Q315.42188 33.303123 316.15625 33.63125Q316.89062 33.94375 317.3125 34.553123Q317.73438 35.146873 317.73438 36.053123Q317.73438 36.928123 317.21875 37.709373Q316.70312 38.490623 315.73438 38.9125Q314.76562 39.334373 313.54688 39.334373Q311.53125 39.334373 310.46875 38.490623Q309.40625 37.646873 309.10938 36.00625ZM325.10938 36.00625L326.85938 35.725Q327.0 36.771873 327.67188 37.334373Q328.34375 37.88125 329.54688 37.88125Q330.75 37.88125 331.32812 37.396873Q331.92188 36.896873 331.92188 36.240623Q331.92188 35.646873 331.40625 35.303123Q331.04688 35.06875 329.60938 34.709373Q327.67188 34.209373 326.92188 33.865623Q326.1875 33.50625 325.79688 32.88125Q325.40625 32.240623 325.40625 31.474998Q325.40625 30.787498 325.71875 30.193748Q326.04688 29.599998 326.59375 29.209373Q327.0 28.912498 327.70312 28.709373Q328.42188 28.490623 329.23438 28.490623Q330.45312 28.490623 331.375 28.849998Q332.29688 29.193748 332.73438 29.803123Q333.17188 30.396873 333.34375 31.396873L331.625 31.631248Q331.5 30.834373 330.9375 30.396873Q330.375 29.943748 329.35938 29.943748Q328.14062 29.943748 327.625 30.349998Q327.10938 30.740623 327.10938 31.271873Q327.10938 31.615623 327.32812 31.896873Q327.53125 32.178123 328.0 32.365623Q328.26562 32.459373 329.54688 32.803123Q331.42188 33.303123 332.15625 33.63125Q332.89062 33.94375 333.3125 34.553123Q333.73438 35.146873 333.73438 36.053123Q333.73438 36.928123 333.21875 37.709373Q332.70312 38.490623 331.73438 38.9125Q330.76562 39.334373 329.54688 39.334373Q327.53125 39.334373 326.46875 38.490623Q325.40625 37.646873 325.10938 36.00625ZM342.92188 35.75625L344.73438 35.990623Q344.3125 37.56875 343.14062 38.459373Q341.98438 39.334373 340.17188 39.334373Q337.90625 39.334373 336.5625 37.94375Q335.23438 36.5375 335.23438 34.00625Q335.23438 31.381248 336.57812 29.943748Q337.92188 28.490623 340.07812 28.490623Q342.15625 28.490623 343.46875 29.912498Q344.79688 31.318748 344.79688 33.896873Q344.79688 34.053123 344.78125 34.365623L337.04688 34.365623Q337.14062 36.06875 338.01562 36.975Q338.89062 37.88125 340.1875 37.88125Q341.15625 37.88125 341.82812 37.38125Q342.51562 36.865623 342.92188 35.75625ZM337.14062 32.9125L342.9375 32.9125Q342.82812 31.615623 342.28125 30.959373Q341.4375 29.943748 340.09375 29.943748Q338.89062 29.943748 338.0625 30.756248Q337.23438 31.553123 337.14062 32.9125ZM346.79688 39.1L346.79688 28.724998L348.375 28.724998L348.375 30.303123Q348.98438 29.193748 349.5 28.849998Q350.01562 28.490623 350.625 28.490623Q351.51562 28.490623 352.4375 29.053123L351.82812 30.693748Q351.1875 30.303123 350.54688 30.303123Q349.96875 30.303123 349.5 30.662498Q349.04688 31.006248 348.84375 31.615623Q348.5625 32.553123 348.5625 33.6625L348.5625 39.1L346.79688 39.1ZM353.82812 26.803123L353.82812 24.787498L355.59375 24.787498L355.59375 26.803123L353.82812 26.803123ZM353.82812 39.1L353.82812 28.724998L355.59375 28.724998L355.59375 39.1L353.82812 39.1ZM358.23438 39.1L358.23438 30.099998L356.6875 30.099998L356.6875 28.724998L358.23438 28.724998L358.23438 27.631248Q358.23438 26.584373 358.42188 26.068748Q358.67188 25.381248 359.3125 24.959373Q359.95312 24.537498 361.10938 24.537498Q361.85938 24.537498 362.75 24.709373L362.48438 26.240623Q361.9375 26.146873 361.45312 26.146873Q360.65625 26.146873 360.3125 26.490623Q359.98438 26.834373 359.98438 27.771873L359.98438 28.724998L362.01562 28.724998L362.01562 30.099998L359.98438 30.099998L359.98438 39.1L358.23438 39.1ZM372.70312 39.1L368.75 28.724998L370.60938 28.724998L372.84375 34.94375Q373.20312 35.94375 373.5 37.021873Q373.73438 36.209373 374.15625 35.053123L376.45312 28.724998L378.26562 28.724998L374.34375 39.1L372.70312 39.1ZM378.10938 36.00625L379.85938 35.725Q380.0 36.771873 380.67188 37.334373Q381.34375 37.88125 382.54688 37.88125Q383.75 37.88125 384.32812 37.396873Q384.92188 36.896873 384.92188 36.240623Q384.92188 35.646873 384.40625 35.303123Q384.04688 35.06875 382.60938 34.709373Q380.67188 34.209373 379.92188 33.865623Q379.1875 33.50625 378.79688 32.88125Q378.40625 32.240623 378.40625 31.474998Q378.40625 30.787498 378.71875 30.193748Q379.04688 29.599998 379.59375 29.209373Q380.0 28.912498 380.70312 28.709373Q381.42188 28.490623 382.23438 28.490623Q383.45312 28.490623 384.375 28.849998Q385.29688 29.193748 385.73438 29.803123Q386.17188 30.396873 386.34375 31.396873L384.625 31.631248Q384.5 30.834373 383.9375 30.396873Q383.375 29.943748 382.35938 29.943748Q381.14062 29.943748 380.625 30.349998Q380.10938 30.740623 380.10938 31.271873Q380.10938 31.615623 380.32812 31.896873Q380.53125 32.178123 381.0 32.365623Q381.26562 32.459373 382.54688 32.803123Q384.42188 33.303123 385.15625 33.63125Q385.89062 33.94375 386.3125 34.553123Q386.73438 35.146873 386.73438 36.053123Q386.73438 36.928123 386.21875 37.709373Q385.70312 38.490623 384.73438 38.9125Q383.76562 39.334373 382.54688 39.334373Q380.53125 39.334373 379.46875 38.490623Q378.40625 37.646873 378.10938 36.00625ZM389.3125 39.1L389.3125 37.1L391.3125 37.1L391.3125 39.1L389.3125 39.1ZM400.10938 36.00625L401.85938 35.725Q402.0 36.771873 402.67188 37.334373Q403.34375 37.88125 404.54688 37.88125Q405.75 37.88125 406.32812 37.396873Q406.92188 36.896873 406.92188 36.240623Q406.92188 35.646873 406.40625 35.303123Q406.04688 35.06875 404.60938 34.709373Q402.67188 34.209373 401.92188 33.865623Q401.1875 33.50625 400.79688 32.88125Q400.40625 32.240623 400.40625 31.474998Q400.40625 30.787498 400.71875 30.193748Q401.04688 29.599998 401.59375 29.209373Q402.0 28.912498 402.70312 28.709373Q403.42188 28.490623 404.23438 28.490623Q405.45312 28.490623 406.375 28.849998Q407.29688 29.193748 407.73438 29.803123Q408.17188 30.396873 408.34375 31.396873L406.625 31.631248Q406.5 30.834373 405.9375 30.396873Q405.375 29.943748 404.35938 29.943748Q403.14062 29.943748 402.625 30.349998Q402.10938 30.740623 402.10938 31.271873Q402.10938 31.615623 402.32812 31.896873Q402.53125 32.178123 403.0 32.365623Q403.26562 32.459373 404.54688 32.803123Q406.42188 33.303123 407.15625 33.63125Q407.89062 33.94375 408.3125 34.553123Q408.73438 35.146873 408.73438 36.053123Q408.73438 36.928123 408.21875 37.709373Q407.70312 38.490623 406.73438 38.9125Q405.76562 39.334373 404.54688 39.334373Q402.53125 39.334373 401.46875 38.490623Q400.40625 37.646873 400.10938 36.00625ZM417.92188 35.75625L419.73438 35.990623Q419.3125 37.56875 418.14062 38.459373Q416.98438 39.334373 415.17188 39.334373Q412.90625 39.334373 411.5625 37.94375Q410.23438 36.5375 410.23438 34.00625Q410.23438 31.381248 411.57812 29.943748Q412.92188 28.490623 415.07812 28.490623Q417.15625 28.490623 418.46875 29.912498Q419.79688 31.318748 419.79688 33.896873Q419.79688 34.053123 419.78125 34.365623L412.04688 34.365623Q412.14062 36.06875 413.01562 36.975Q413.89062 37.88125 415.1875 37.88125Q416.15625 37.88125 416.82812 37.38125Q417.51562 36.865623 417.92188 35.75625ZM412.14062 32.9125L417.9375 32.9125Q417.82812 31.615623 417.28125 30.959373Q416.4375 29.943748 415.09375 29.943748Q413.89062 29.943748 413.0625 30.756248Q412.23438 31.553123 412.14062 32.9125ZM421.79688 39.1L421.79688 28.724998L423.375 28.724998L423.375 30.303123Q423.98438 29.193748 424.5 28.849998Q425.01562 28.490623 425.625 28.490623Q426.51562 28.490623 427.4375 29.053123L426.82812 30.693748Q426.1875 30.303123 425.54688 30.303123Q424.96875 30.303123 424.5 30.662498Q424.04688 31.006248 423.84375 31.615623Q423.5625 32.553123 423.5625 33.6625L423.5625 39.1L421.79688 39.1ZM428.82812 26.803123L428.82812 24.787498L430.59375 24.787498L430.59375 26.803123L428.82812 26.803123ZM428.82812 39.1L428.82812 28.724998L430.59375 28.724998L430.59375 39.1L428.82812 39.1ZM433.23438 39.1L433.23438 30.099998L431.6875 30.099998L431.6875 28.724998L433.23438 28.724998L433.23438 27.631248Q433.23438 26.584373 433.42188 26.068748Q433.67188 25.381248 434.3125 24.959373Q434.95312 24.537498 436.10938 24.537498Q436.85938 24.537498 437.75 24.709373L437.48438 26.240623Q436.9375 26.146873 436.45312 26.146873Q435.65625 26.146873 435.3125 26.490623Q434.98438 26.834373 434.98438 27.771873L434.98438 28.724998L437.01562 28.724998L437.01562 30.099998L434.98438 30.099998L434.98438 39.1L433.23438 39.1ZM451.59375 37.81875Q450.60938 38.646873 449.70312 38.990623Q448.79688 39.334373 447.76562 39.334373Q446.0625 39.334373 445.14062 38.50625Q444.21875 37.6625 444.21875 36.365623Q444.21875 35.6 444.5625 34.975Q444.92188 34.35 445.48438 33.975Q446.04688 33.584373 446.75 33.38125Q447.26562 33.25625 448.3125 33.115623Q450.4375 32.865623 451.4375 32.521873Q451.45312 32.1625 451.45312 32.053123Q451.45312 30.990623 450.95312 30.537498Q450.28125 29.943748 448.95312 29.943748Q447.70312 29.943748 447.10938 30.381248Q446.53125 30.818748 446.25 31.928123L444.53125 31.693748Q444.76562 30.584373 445.29688 29.912498Q445.82812 29.224998 446.84375 28.865623Q447.85938 28.490623 449.20312 28.490623Q450.53125 28.490623 451.35938 28.803123Q452.1875 29.115623 452.57812 29.599998Q452.96875 30.068748 453.125 30.787498Q453.21875 31.240623 453.21875 32.4125L453.21875 34.75625Q453.21875 37.209373 453.32812 37.865623Q453.4375 38.50625 453.78125 39.1L451.9375 39.1Q451.67188 38.553123 451.59375 37.81875ZM451.4375 33.896873Q450.48438 34.2875 448.5625 34.553123Q447.48438 34.709373 447.03125 34.9125Q446.59375 35.1 446.34375 35.475Q446.09375 35.85 446.09375 36.31875Q446.09375 37.021873 446.625 37.490623Q447.15625 37.959373 448.1875 37.959373Q449.20312 37.959373 449.98438 37.521873Q450.78125 37.06875 451.15625 36.303123Q451.4375 35.69375 451.4375 34.5375L451.4375 33.896873ZM455.79688 39.1L455.79688 28.724998L457.375 28.724998L457.375 30.303123Q457.98438 29.193748 458.5 28.849998Q459.01562 28.490623 459.625 28.490623Q460.51562 28.490623 461.4375 29.053123L460.82812 30.693748Q460.1875 30.303123 459.54688 30.303123Q458.96875 30.303123 458.5 30.662498Q458.04688 31.006248 457.84375 31.615623Q457.5625 32.553123 457.5625 33.6625L457.5625 39.1L455.79688 39.1ZM466.65625 37.521873L466.90625 39.084373Q466.17188 39.240623 465.57812 39.240623Q464.625 39.240623 464.09375 38.94375Q463.57812 38.63125 463.35938 38.146873Q463.14062 37.646873 463.14062 36.06875L463.14062 30.099998L461.85938 30.099998L461.85938 28.724998L463.14062 28.724998L463.14062 26.162498L464.89062 25.099998L464.89062 28.724998L466.65625 28.724998L466.65625 30.099998L464.89062 30.099998L464.89062 36.1625Q464.89062 36.9125 464.98438 37.13125Q465.07812 37.334373 465.28125 37.475Q465.5 37.6 465.89062 37.6Q466.17188 37.6 466.65625 37.521873ZM468.82812 26.803123L468.82812 24.787498L470.59375 24.787498L470.59375 26.803123L468.82812 26.803123ZM468.82812 39.1L468.82812 28.724998L470.59375 28.724998L470.59375 39.1L468.82812 39.1ZM479.59375 35.303123L481.3125 35.521873Q481.03125 37.31875 479.85938 38.334373Q478.70312 39.334373 477.0 39.334373Q474.875 39.334373 473.57812 37.94375Q472.28125 36.553123 472.28125 33.959373Q472.28125 32.271873 472.82812 31.021873Q473.39062 29.756248 474.53125 29.131248Q475.67188 28.490623 477.01562 28.490623Q478.70312 28.490623 479.76562 29.349998Q480.84375 30.209373 481.15625 31.771873L479.4375 32.0375Q479.20312 30.990623 478.57812 30.474998Q477.95312 29.943748 477.07812 29.943748Q475.75 29.943748 474.92188 30.896873Q474.09375 31.849998 474.09375 33.896873Q474.09375 35.990623 474.89062 36.94375Q475.6875 37.88125 476.98438 37.88125Q478.01562 37.88125 478.70312 37.25625Q479.40625 36.615623 479.59375 35.303123ZM482.78125 39.1L482.78125 24.787498L484.53125 24.787498L484.53125 39.1L482.78125 39.1ZM493.92188 35.75625L495.73438 35.990623Q495.3125 37.56875 494.14062 38.459373Q492.98438 39.334373 491.17188 39.334373Q488.90625 39.334373 487.5625 37.94375Q486.23438 36.5375 486.23438 34.00625Q486.23438 31.381248 487.57812 29.943748Q488.92188 28.490623 491.07812 28.490623Q493.15625 28.490623 494.46875 29.912498Q495.79688 31.318748 495.79688 33.896873Q495.79688 34.053123 495.78125 34.365623L488.04688 34.365623Q488.14062 36.06875 489.01562 36.975Q489.89062 37.88125 491.1875 37.88125Q492.15625 37.88125 492.82812 37.38125Q493.51562 36.865623 493.92188 35.75625ZM488.14062 32.9125L493.9375 32.9125Q493.82812 31.615623 493.28125 30.959373Q492.4375 29.943748 491.09375 29.943748Q489.89062 29.943748 489.0625 30.756248Q488.23438 31.553123 488.14062 32.9125ZM504.23438 39.1L504.23438 30.099998L502.6875 30.099998L502.6875 28.724998L504.23438 28.724998L504.23438 27.631248Q504.23438 26.584373 504.42188 26.068748Q504.67188 25.381248 505.3125 24.959373Q505.95312 24.537498 507.10938 24.537498Q507.85938 24.537498 508.75 24.709373L508.48438 26.240623Q507.9375 26.146873 507.45312 26.146873Q506.65625 26.146873 506.3125 26.490623Q505.98438 26.834373 505.98438 27.771873L505.98438 28.724998L508.01562 28.724998L508.01562 30.099998L505.98438 30.099998L505.98438 39.1L504.23438 39.1ZM509.17188 33.9125Q509.17188 31.037498 510.76562 29.646873Q512.1094 28.490623 514.03125 28.490623Q516.1719 28.490623 517.5156 29.896873Q518.875 31.303123 518.875 33.771873Q518.875 35.771873 518.28125 36.928123Q517.6875 38.06875 516.53125 38.709373Q515.3906 39.334373 514.03125 39.334373Q511.84375 39.334373 510.5 37.94375Q509.17188 36.5375 509.17188 33.9125ZM510.96875 33.9125Q510.96875 35.9125 511.82812 36.896873Q512.7031 37.88125 514.03125 37.88125Q515.34375 37.88125 516.2031 36.896873Q517.0781 35.896873 517.0781 33.85Q517.0781 31.928123 516.2031 30.943748Q515.3281 29.943748 514.03125 29.943748Q512.7031 29.943748 511.82812 30.943748Q510.96875 31.928123 510.96875 33.9125ZM520.8125 39.1L520.8125 28.724998L522.40625 28.724998L522.40625 30.209373Q523.5469 28.490623 525.7031 28.490623Q526.6406 28.490623 527.4219 28.834373Q528.21875 29.162498 528.6094 29.709373Q529.0 30.256248 529.15625 31.006248Q529.25 31.506248 529.25 32.725L529.25 39.1L527.4844 39.1L527.4844 32.7875Q527.4844 31.709373 527.28125 31.178123Q527.0781 30.646873 526.5469 30.334373Q526.03125 30.021873 525.3281 30.021873Q524.2031 30.021873 523.3906 30.740623Q522.5781 31.443748 522.5781 33.428123L522.5781 39.1L520.8125 39.1ZM534.65625 37.521873L534.90625 39.084373Q534.1719 39.240623 533.5781 39.240623Q532.625 39.240623 532.09375 38.94375Q531.5781 38.63125 531.3594 38.146873Q531.1406 37.646873 531.1406 36.06875L531.1406 30.099998L529.8594 30.099998L529.8594 28.724998L531.1406 28.724998L531.1406 26.162498L532.8906 25.099998L532.8906 28.724998L534.65625 28.724998L534.65625 30.099998L532.8906 30.099998L532.8906 36.1625Q532.8906 36.9125 532.9844 37.13125Q533.0781 37.334373 533.28125 37.475Q533.5 37.6 533.8906 37.6Q534.1719 37.6 534.65625 37.521873Z" fill-rule="nonzero"/></svg>