<svg version="1.1" viewBox="0.0 0.0 810.0 402.0" fill="none" stroke="none" stroke-linecap="square" stroke-miterlimit="10" width="810" height="402" xmlns:xlink="http://www.w3.org/1999/xlink" xmlns="http://www.w3.org/2000/svg"><path fill="#ffffff" d="M0 0L810.0 0L810.0 402.0L0 402.0L0 0Z" fill-rule="nonzero"/><path fill="#434343" d="M209.83684 177.71954C228.83742 106.80839 293.09735 57.5 366.51 57.5L366.51 138.6C329.80368 138.6 297.6737 163.2542 288.1734 198.70978Z" fill-rule="nonzero"/><path fill="#b7b7b7" d="M371.44705 63.934097C440.93472 63.934097 502.70303 108.19664 525.0391 173.99661C547.3752 239.79659 525.31647 312.5146 470.18817 354.816C415.05988 397.11743 339.11044 399.60376 281.33356 360.99847C223.55667 322.3932 196.78915 251.27359 214.77388 184.15364L293.11047 205.14388C284.1181 238.70384 297.50186 274.26364 326.39032 293.56628C355.27875 312.86893 393.25348 311.62576 420.8176 290.47504C448.38174 269.32434 459.41113 232.96535 448.2431 200.06535C437.07504 167.16536 406.1909 145.03409 371.44705 145.03409Z" fill-rule="nonzero"/><path fill="#ffffff" d="M427.09662 319.5518L427.09662 317.7549L433.67474 317.7549L433.67474 319.16116Q432.84662 319.95804 432.00287 321.45804Q431.17474 322.9424 430.72162 324.6299Q430.28412 326.3174 430.29974 327.64554L428.44037 327.64554Q428.48724 325.5674 429.29974 323.41116Q430.11224 321.2393 431.47162 319.5518L427.09662 319.5518ZM435.1435 325.33304L437.00287 325.1299Q437.06537 325.6924 437.34662 325.97366Q437.6435 326.2393 438.11224 326.2393Q438.706 326.2393 439.11224 325.6924Q439.53412 325.14554 439.65912 323.4268Q438.94037 324.2549 437.84662 324.2549Q436.65912 324.2549 435.79974 323.34866Q434.94037 322.4424 434.94037 320.97366Q434.94037 319.4424 435.84662 318.52054Q436.75287 317.58304 438.15912 317.58304Q439.69037 317.58304 440.65912 318.77054Q441.6435 319.9424 441.6435 322.64554Q441.6435 325.39554 440.61224 326.6143Q439.59662 327.8174 437.97162 327.8174Q436.79974 327.8174 436.06537 327.1924Q435.34662 326.5674 435.1435 325.33304ZM439.48724 321.1299Q439.48724 320.20804 439.04974 319.6924Q438.62787 319.1768 438.06537 319.1768Q437.53412 319.1768 437.17474 319.59866Q436.831 320.02054 436.831 320.97366Q436.831 321.9424 437.206 322.39554Q437.59662 322.84866 438.17474 322.84866Q438.72162 322.84866 439.09662 322.41116Q439.48724 321.97366 439.48724 321.1299ZM443.50287 327.64554L443.50287 325.72366L445.42474 325.72366L445.42474 327.64554L443.50287 327.64554ZM453.581 325.8643L453.581 327.64554L446.84662 327.64554Q446.956 326.6299 447.50287 325.72366Q448.04974 324.8174 449.67474 323.3174Q450.97162 322.1143 451.2685 321.6768Q451.65912 321.08304 451.65912 320.5049Q451.65912 319.8643 451.31537 319.52054Q450.97162 319.1768 450.36224 319.1768Q449.75287 319.1768 449.3935 319.53616Q449.04974 319.89554 448.98724 320.7393L447.081 320.5518Q447.25287 318.95804 448.1435 318.27054Q449.04974 317.58304 450.40912 317.58304Q451.8935 317.58304 452.73724 318.3799Q453.581 319.1768 453.581 320.3643Q453.581 321.0518 453.331 321.66116Q453.09662 322.27054 452.581 322.9424Q452.22162 323.3799 451.31537 324.22366Q450.40912 325.0518 450.15912 325.33304Q449.92474 325.59866 449.7685 325.8643L453.581 325.8643ZM455.11224 320.09866Q455.11224 318.7549 455.706 318.1143Q456.29974 317.45804 457.29974 317.45804Q458.34662 317.45804 458.94037 318.09866Q459.53412 318.7393 459.53412 320.09866Q459.53412 321.4424 458.94037 322.09866Q458.34662 322.7393 457.34662 322.7393Q456.29974 322.7393 455.706 322.09866Q455.11224 321.45804 455.11224 320.09866ZM456.61224 320.08304Q456.61224 321.0674 456.831 321.39554Q457.00287 321.64554 457.29974 321.64554Q457.61224 321.64554 457.78412 321.39554Q458.00287 321.0674 458.00287 320.08304Q458.00287 319.1143 457.78412 318.78616Q457.61224 318.52054 457.29974 318.52054Q457.00287 318.52054 456.831 318.77054Q456.61224 319.1143 456.61224 320.08304ZM458.7685 328.03616L457.34662 328.03616L462.69037 317.45804L464.06537 317.45804L458.7685 328.03616ZM461.87787 325.39554Q461.87787 324.0518 462.456 323.41116Q463.04974 322.7549 464.081 322.7549Q465.11224 322.7549 465.706 323.41116Q466.29974 324.0518 466.29974 325.39554Q466.29974 326.7549 465.706 327.41116Q465.11224 328.0518 464.09662 328.0518Q463.04974 328.0518 462.456 327.41116Q461.87787 326.7549 461.87787 325.39554ZM463.36224 325.39554Q463.36224 326.3643 463.59662 326.6924Q463.7685 326.9424 464.06537 326.9424Q464.37787 326.9424 464.53412 326.70804Q464.7685 326.3643 464.7685 325.39554Q464.7685 324.41116 464.54974 324.08304Q464.37787 323.83304 464.06537 323.83304Q463.75287 323.83304 463.59662 324.08304Q463.36224 324.41116 463.36224 325.39554Z" fill-rule="nonzero"/><path fill="#ffffff" d="M280.5323 126.40732L280.5323 128.18857L273.7979 128.18857Q273.9073 127.17294 274.45416 126.26669Q275.00104 125.36044 276.62604 123.86044Q277.9229 122.65732 278.2198 122.21982Q278.6104 121.62607 278.6104 121.04794Q278.6104 120.40732 278.26666 120.06357Q277.9229 119.71982 277.31354 119.71982Q276.70416 119.71982 276.3448 120.07919Q276.00104 120.43857 275.93854 121.28232L274.0323 121.09482Q274.20416 119.50107 275.0948 118.81357Q276.00104 118.12607 277.3604 118.12607Q278.8448 118.12607 279.68854 118.92294Q280.5323 119.71982 280.5323 120.90732Q280.5323 121.59482 280.2823 122.20419Q280.0479 122.81357 279.5323 123.48544Q279.1729 123.92294 278.26666 124.76669Q277.3604 125.59482 277.1104 125.87607Q276.87604 126.14169 276.7198 126.40732L280.5323 126.40732ZM285.2979 118.12607Q286.75104 118.12607 287.57916 119.15732Q288.5479 120.39169 288.5479 123.25107Q288.5479 126.09482 287.56354 127.32919Q286.75104 128.36044 285.2979 128.36044Q283.82916 128.36044 282.93854 127.23544Q282.0479 126.11044 282.0479 123.21982Q282.0479 120.39169 283.0323 119.15732Q283.8448 118.12607 285.2979 118.12607ZM285.2979 119.71982Q284.95416 119.71982 284.6729 119.93857Q284.4073 120.15732 284.25104 120.73544Q284.0479 121.48544 284.0479 123.25107Q284.0479 125.01669 284.2198 125.67294Q284.4073 126.32919 284.6729 126.54794Q284.95416 126.76669 285.2979 126.76669Q285.64166 126.76669 285.9073 126.54794Q286.18854 126.32919 286.3448 125.75107Q286.5479 125.01669 286.5479 123.25107Q286.5479 121.48544 286.3604 120.82919Q286.18854 120.15732 285.9073 119.93857Q285.64166 119.71982 285.2979 119.71982ZM290.45416 128.18857L290.45416 126.26669L292.37604 126.26669L292.37604 128.18857L290.45416 128.18857ZM295.70416 122.78232Q294.95416 122.46982 294.6104 121.92294Q294.2823 121.36044 294.2823 120.70419Q294.2823 119.59482 295.06354 118.86044Q295.8448 118.12607 297.2823 118.12607Q298.70416 118.12607 299.50104 118.86044Q300.2979 119.59482 300.2979 120.70419Q300.2979 121.40732 299.9229 121.95419Q299.56354 122.50107 298.9073 122.78232Q299.75104 123.11044 300.1729 123.76669Q300.6104 124.40732 300.6104 125.23544Q300.6104 126.62607 299.7198 127.50107Q298.8448 128.36044 297.37604 128.36044Q296.00104 128.36044 295.0948 127.64169Q294.01666 126.79794 294.01666 125.32919Q294.01666 124.51669 294.4229 123.84482Q294.82916 123.15732 295.70416 122.78232ZM296.0948 120.84482Q296.0948 121.42294 296.4073 121.75107Q296.7354 122.06357 297.2823 122.06357Q297.82916 122.06357 298.1573 121.73544Q298.4854 121.40732 298.4854 120.84482Q298.4854 120.29794 298.1573 119.98544Q297.82916 119.65732 297.2979 119.65732Q296.75104 119.65732 296.4229 119.98544Q296.0948 120.31357 296.0948 120.84482ZM295.9229 125.14169Q295.9229 125.93857 296.32916 126.37607Q296.7354 126.81357 297.3448 126.81357Q297.93854 126.81357 298.31354 126.39169Q298.70416 125.96982 298.70416 125.15732Q298.70416 124.45419 298.31354 124.03232Q297.9229 123.59482 297.31354 123.59482Q296.6104 123.59482 296.26666 124.09482Q295.9229 124.57919 295.9229 125.14169ZM302.06354 120.64169Q302.06354 119.29794 302.6573 118.65732Q303.25104 118.00107 304.25104 118.00107Q305.2979 118.00107 305.89166 118.64169Q306.4854 119.28232 306.4854 120.64169Q306.4854 121.98544 305.89166 122.64169Q305.2979 123.28232 304.2979 123.28232Q303.25104 123.28232 302.6573 122.64169Q302.06354 122.00107 302.06354 120.64169ZM303.56354 120.62607Q303.56354 121.61044 303.7823 121.93857Q303.95416 122.18857 304.25104 122.18857Q304.56354 122.18857 304.7354 121.93857Q304.95416 121.61044 304.95416 120.62607Q304.95416 119.65732 304.7354 119.32919Q304.56354 119.06357 304.25104 119.06357Q303.95416 119.06357 303.7823 119.31357Q303.56354 119.65732 303.56354 120.62607ZM305.7198 128.5792L304.2979 128.5792L309.64166 118.00107L311.01666 118.00107L305.7198 128.5792ZM308.82916 125.93857Q308.82916 124.59482 309.4073 123.95419Q310.00104 123.29794 311.0323 123.29794Q312.06354 123.29794 312.6573 123.95419Q313.25104 124.59482 313.25104 125.93857Q313.25104 127.29794 312.6573 127.95419Q312.06354 128.59482 311.0479 128.59482Q310.00104 128.59482 309.4073 127.95419Q308.82916 127.29794 308.82916 125.93857ZM310.31354 125.93857Q310.31354 126.90732 310.5479 127.23544Q310.7198 127.48544 311.01666 127.48544Q311.32916 127.48544 311.4854 127.25107Q311.7198 126.90732 311.7198 125.93857Q311.7198 124.95419 311.50104 124.62607Q311.32916 124.37607 311.01666 124.37607Q310.70416 124.37607 310.5479 124.62607Q310.31354 124.95419 310.31354 125.93857Z" fill-rule="nonzero"/><path fill="#b7b7b7" d="M746.5467 64.5C746.5467 67.813705 743.86035 70.5 740.5467 70.5C737.233 70.5 734.5467 67.813705 734.5467 64.5C734.5467 61.18629 737.233 58.5 740.5467 58.5C743.86035 58.5 746.5467 61.18629 746.5467 64.5Z" fill-rule="nonzero"/><path fill="#1a1a1a" d="M755.4217 68.5L755.4217 59.90625L756.5623 59.90625L756.5623 67.484375L760.7967 67.484375L760.7967 68.5L755.4217 68.5ZM762.34357 61.125L762.34357 59.90625L763.40607 59.90625L763.40607 61.125L762.34357 61.125ZM762.34357 68.5L762.34357 62.28125L763.40607 62.28125L763.40607 68.5L762.34357 68.5ZM765.14044 69.015625L766.1717 69.171875Q766.2342 69.640625 766.53107 69.859375Q766.9217 70.15625 767.59357 70.15625Q768.32794 70.15625 768.71857 69.859375Q769.1248 69.5625 769.26544 69.046875Q769.3592 68.71875 769.34357 67.6875Q768.65607 68.5 767.6248 68.5Q766.34357 68.5 765.64044 67.578125Q764.9373 66.640625 764.9373 65.359375Q764.9373 64.46875 765.2498 63.71875Q765.57794 62.953125 766.1873 62.546875Q766.7967 62.140625 767.6248 62.140625Q768.7342 62.140625 769.45294 63.03125L769.45294 62.28125L770.4217 62.28125L770.4217 67.65625Q770.4217 69.109375 770.1248 69.71875Q769.82794 70.328125 769.1873 70.671875Q768.5467 71.03125 767.6092 71.03125Q766.4998 71.03125 765.8123 70.53125Q765.1248 70.03125 765.14044 69.015625ZM766.01544 65.28125Q766.01544 66.5 766.4998 67.0625Q766.9842 67.625 767.71857 67.625Q768.45294 67.625 768.9373 67.0625Q769.4373 66.5 769.4373 65.3125Q769.4373 64.171875 768.9217 63.59375Q768.4217 63.015625 767.70294 63.015625Q766.9998 63.015625 766.4998 63.59375Q766.01544 64.15625 766.01544 65.28125ZM772.34357 68.5L772.34357 59.90625L773.39044 59.90625L773.39044 62.984375Q774.1248 62.140625 775.2498 62.140625Q775.95294 62.140625 776.45294 62.421875Q776.96857 62.6875 777.1873 63.171875Q777.40607 63.640625 777.40607 64.5625L777.40607 68.5L776.3592 68.5L776.3592 64.5625Q776.3592 63.765625 776.01544 63.40625Q775.6717 63.046875 775.0467 63.046875Q774.57794 63.046875 774.15607 63.296875Q773.7498 63.53125 773.5623 63.953125Q773.39044 64.359375 773.39044 65.09375L773.39044 68.5L772.34357 68.5ZM781.64044 67.5625L781.7967 68.484375Q781.34357 68.578125 780.9998 68.578125Q780.4217 68.578125 780.1092 68.40625Q779.7967 68.21875 779.65607 67.921875Q779.53107 67.625 779.53107 66.671875L779.53107 63.09375L778.76544 63.09375L778.76544 62.28125L779.53107 62.28125L779.53107 60.734375L780.57794 60.109375L780.57794 62.28125L781.64044 62.28125L781.64044 63.09375L780.57794 63.09375L780.57794 66.734375Q780.57794 67.1875 780.6248 67.3125Q780.6873 67.4375 780.8123 67.515625Q780.9373 67.59375 781.1717 67.59375Q781.3592 67.59375 781.64044 67.5625Z" fill-rule="nonzero"/><path fill="#434343" d="M746.5467 88.5C746.5467 91.813705 743.86035 94.5 740.5467 94.5C737.233 94.5 734.5467 91.813705 734.5467 88.5C734.5467 85.186295 737.233 82.5 740.5467 82.5C743.86035 82.5 746.5467 85.186295 746.5467 88.5Z" fill-rule="nonzero"/><path fill="#1a1a1a" d="M755.46857 92.5L755.46857 83.90625L758.4373 83.90625Q759.4373 83.90625 759.96857 84.03125Q760.70294 84.203125 761.21857 84.640625Q761.90607 85.21875 762.2342 86.125Q762.57794 87.015625 762.57794 88.15625Q762.57794 89.140625 762.34357 89.890625Q762.1248 90.640625 761.76544 91.140625Q761.40607 91.640625 760.96857 91.921875Q760.5467 92.203125 759.95294 92.359375Q759.3592 92.5 758.57794 92.5L755.46857 92.5ZM756.6092 91.484375L758.4373 91.484375Q759.2967 91.484375 759.78107 91.328125Q760.26544 91.171875 760.5467 90.875Q760.95294 90.484375 761.1717 89.796875Q761.40607 89.109375 761.40607 88.140625Q761.40607 86.796875 760.95294 86.078125Q760.51544 85.34375 759.89044 85.09375Q759.4217 84.921875 758.4217 84.921875L756.6092 84.921875L756.6092 91.484375ZM768.40607 91.734375Q767.8123 92.234375 767.26544 92.4375Q766.7342 92.640625 766.1092 92.640625Q765.07794 92.640625 764.53107 92.140625Q763.9842 91.640625 763.9842 90.859375Q763.9842 90.40625 764.1873 90.03125Q764.39044 89.640625 764.7342 89.421875Q765.07794 89.1875 765.4998 89.078125Q765.7967 88.984375 766.4373 88.90625Q767.70294 88.765625 768.3123 88.546875Q768.3123 88.328125 768.3123 88.28125Q768.3123 87.625 768.01544 87.359375Q767.6092 87.015625 766.8123 87.015625Q766.07794 87.015625 765.71857 87.28125Q765.3592 87.53125 765.1873 88.1875L764.15607 88.046875Q764.2967 87.390625 764.6248 86.984375Q764.95294 86.578125 765.5623 86.359375Q766.1717 86.140625 766.96857 86.140625Q767.76544 86.140625 768.26544 86.328125Q768.76544 86.515625 768.9998 86.796875Q769.2342 87.078125 769.32794 87.515625Q769.3748 87.78125 769.3748 88.484375L769.3748 89.890625Q769.3748 91.359375 769.4373 91.75Q769.51544 92.140625 769.71857 92.5L768.6092 92.5Q768.45294 92.171875 768.40607 91.734375ZM768.3123 89.375Q767.7342 89.609375 766.59357 89.78125Q765.9373 89.875 765.6717 90.0Q765.40607 90.109375 765.2498 90.328125Q765.1092 90.546875 765.1092 90.828125Q765.1092 91.25 765.4217 91.53125Q765.7498 91.8125 766.3592 91.8125Q766.96857 91.8125 767.4373 91.546875Q767.9217 91.28125 768.14044 90.8125Q768.3123 90.453125 768.3123 89.765625L768.3123 89.375ZM771.32794 92.5L771.32794 86.28125L772.28107 86.28125L772.28107 87.21875Q772.64044 86.5625 772.9373 86.359375Q773.2498 86.140625 773.6248 86.140625Q774.15607 86.140625 774.70294 86.46875L774.34357 87.453125Q773.95294 87.21875 773.57794 87.21875Q773.21857 87.21875 772.9373 87.4375Q772.6717 87.640625 772.5623 88.015625Q772.3748 88.578125 772.3748 89.234375L772.3748 92.5L771.32794 92.5ZM775.34357 92.5L775.34357 83.90625L776.40607 83.90625L776.40607 88.8125L778.89044 86.28125L780.26544 86.28125L777.8748 88.578125L780.4998 92.5L779.20294 92.5L777.14044 89.3125L776.40607 90.03125L776.40607 92.5L775.34357 92.5Z" fill-rule="nonzero"/><path fill="#757575" d="M317.46875 39.1L317.46875 24.787498L319.35938 24.787498L319.35938 37.4125L326.40625 37.4125L326.40625 39.1L317.46875 39.1ZM328.32812 26.803123L328.32812 24.787498L330.09375 24.787498L330.09375 26.803123L328.32812 26.803123ZM328.32812 39.1L328.32812 28.724998L330.09375 28.724998L330.09375 39.1L328.32812 39.1ZM332.0 39.959373L333.70312 40.209373Q333.8125 41.00625 334.29688 41.365623Q334.95312 41.85 336.09375 41.85Q337.3125 41.85 337.96875 41.365623Q338.64062 40.88125 338.875 40.00625Q339.01562 39.459373 339.0 37.740623Q337.84375 39.1 336.125 39.1Q333.98438 39.1 332.8125 37.553123Q331.64062 36.00625 331.64062 33.85Q331.64062 32.365623 332.17188 31.115623Q332.71875 29.865623 333.73438 29.178123Q334.76562 28.490623 336.14062 28.490623Q337.96875 28.490623 339.17188 29.974998L339.17188 28.724998L340.78125 28.724998L340.78125 37.69375Q340.78125 40.115623 340.28125 41.115623Q339.79688 42.13125 338.71875 42.709373Q337.65625 43.303123 336.09375 43.303123Q334.25 43.303123 333.09375 42.475Q331.95312 41.646873 332.0 39.959373ZM333.45312 33.725Q333.45312 35.771873 334.26562 36.709373Q335.07812 37.646873 336.29688 37.646873Q337.5 37.646873 338.3125 36.709373Q339.14062 35.771873 339.14062 33.7875Q339.14062 31.881248 338.29688 30.912498Q337.45312 29.943748 336.26562 29.943748Q335.09375 29.943748 334.26562 30.896873Q333.45312 31.849998 333.45312 33.725ZM343.3125 39.1L343.3125 24.787498L345.07812 24.787498L345.07812 29.912498Q346.3125 28.490623 348.1875 28.490623Q349.32812 28.490623 350.17188 28.943748Q351.03125 29.396873 351.39062 30.209373Q351.76562 31.006248 351.76562 32.521873L351.76562 39.1L350.01562 39.1L350.01562 32.521873Q350.01562 31.209373 349.4375 30.615623Q348.85938 30.006248 347.82812 30.006248Q347.04688 30.006248 346.34375 30.412498Q345.65625 30.818748 345.35938 31.521873Q345.07812 32.209373 345.07812 33.428123L345.07812 39.1L343.3125 39.1ZM357.15625 37.521873L357.40625 39.084373Q356.67188 39.240623 356.07812 39.240623Q355.125 39.240623 354.59375 38.94375Q354.07812 38.63125 353.85938 38.146873Q353.64062 37.646873 353.64062 36.06875L353.64062 30.099998L352.35938 30.099998L352.35938 28.724998L353.64062 28.724998L353.64062 26.162498L355.39062 25.099998L355.39062 28.724998L357.15625 28.724998L357.15625 30.099998L355.39062 30.099998L355.39062 36.1625Q355.39062 36.9125 355.48438 37.13125Q355.57812 37.334373 355.78125 37.475Q356.0 37.6 356.39062 37.6Q356.67188 37.6 357.15625 37.521873ZM368.20312 39.1L364.25 28.724998L366.10938 28.724998L368.34375 34.94375Q368.70312 35.94375 369.0 37.021873Q369.23438 36.209373 369.65625 35.053123L371.95312 28.724998L373.76562 28.724998L369.84375 39.1L368.20312 39.1ZM373.60938 36.00625L375.35938 35.725Q375.5 36.771873 376.17188 37.334373Q376.84375 37.88125 378.04688 37.88125Q379.25 37.88125 379.82812 37.396873Q380.42188 36.896873 380.42188 36.240623Q380.42188 35.646873 379.90625 35.303123Q379.54688 35.06875 378.10938 34.709373Q376.17188 34.209373 375.42188 33.865623Q374.6875 33.50625 374.29688 32.88125Q373.90625 32.240623 373.90625 31.474998Q373.90625 30.787498 374.21875 30.193748Q374.54688 29.599998 375.09375 29.209373Q375.5 28.912498 376.20312 28.709373Q376.92188 28.490623 377.73438 28.490623Q378.95312 28.490623 379.875 28.849998Q380.79688 29.193748 381.23438 29.803123Q381.67188 30.396873 381.84375 31.396873L380.125 31.631248Q380.0 30.834373 379.4375 30.396873Q378.875 29.943748 377.85938 29.943748Q376.64062 29.943748 376.125 30.349998Q375.60938 30.740623 375.60938 31.271873Q375.60938 31.615623 375.82812 31.896873Q376.03125 32.178123 376.5 32.365623Q376.76562 32.459373 378.04688 32.803123Q379.92188 33.303123 380.65625 33.63125Q381.39062 33.94375 381.8125 34.553123Q382.23438 35.146873 382.23438 36.053123Q382.23438 36.928123 381.71875 37.709373Q381.20312 38.490623 380.23438 38.9125Q379.26562 39.334373 378.04688 39.334373Q376.03125 39.334373 374.96875 38.490623Q373.90625 37.646873 373.60938 36.00625ZM384.8125 39.1L384.8125 37.1L386.8125 37.1L386.8125 39.1L384.8125 39.1ZM403.04688 39.1L403.04688 37.7875Q402.0625 39.334373 400.14062 39.334373Q398.90625 39.334373 397.85938 38.646873Q396.82812 37.959373 396.25 36.740623Q395.6875 35.521873 395.6875 33.928123Q395.6875 32.365623 396.20312 31.099998Q396.71875 29.834373 397.75 29.162498Q398.79688 28.490623 400.0625 28.490623Q401.0 28.490623 401.73438 28.896873Q402.46875 29.287498 402.9375 29.912498L402.9375 24.787498L404.67188 24.787498L404.67188 39.1L403.04688 39.1ZM397.48438 33.928123Q397.48438 35.9125 398.32812 36.896873Q399.17188 37.88125 400.3125 37.88125Q401.46875 37.88125 402.26562 36.94375Q403.07812 36.00625 403.07812 34.06875Q403.07812 31.943748 402.25 30.943748Q401.4375 29.943748 400.23438 29.943748Q399.0625 29.943748 398.26562 30.912498Q397.48438 31.865623 397.48438 33.928123ZM414.09375 37.81875Q413.10938 38.646873 412.20312 38.990623Q411.29688 39.334373 410.26562 39.334373Q408.5625 39.334373 407.64062 38.50625Q406.71875 37.6625 406.71875 36.365623Q406.71875 35.6 407.0625 34.975Q407.42188 34.35 407.98438 33.975Q408.54688 33.584373 409.25 33.38125Q409.76562 33.25625 410.8125 33.115623Q412.9375 32.865623 413.9375 32.521873Q413.95312 32.1625 413.95312 32.053123Q413.95312 30.990623 413.45312 30.537498Q412.78125 29.943748 411.45312 29.943748Q410.20312 29.943748 409.60938 30.381248Q409.03125 30.818748 408.75 31.928123L407.03125 31.693748Q407.26562 30.584373 407.79688 29.912498Q408.32812 29.224998 409.34375 28.865623Q410.35938 28.490623 411.70312 28.490623Q413.03125 28.490623 413.85938 28.803123Q414.6875 29.115623 415.07812 29.599998Q415.46875 30.068748 415.625 30.787498Q415.71875 31.240623 415.71875 32.4125L415.71875 34.75625Q415.71875 37.209373 415.82812 37.865623Q415.9375 38.50625 416.28125 39.1L414.4375 39.1Q414.17188 38.553123 414.09375 37.81875ZM413.9375 33.896873Q412.98438 34.2875 411.0625 34.553123Q409.98438 34.709373 409.53125 34.9125Q409.09375 35.1 408.84375 35.475Q408.59375 35.85 408.59375 36.31875Q408.59375 37.021873 409.125 37.490623Q409.65625 37.959373 410.6875 37.959373Q411.70312 37.959373 412.48438 37.521873Q413.28125 37.06875 413.65625 36.303123Q413.9375 35.69375 413.9375 34.5375L413.9375 33.896873ZM418.29688 39.1L418.29688 28.724998L419.875 28.724998L419.875 30.303123Q420.48438 29.193748 421.0 28.849998Q421.51562 28.490623 422.125 28.490623Q423.01562 28.490623 423.9375 29.053123L423.32812 30.693748Q422.6875 30.303123 422.04688 30.303123Q421.46875 30.303123 421.0 30.662498Q420.54688 31.006248 420.34375 31.615623Q420.0625 32.553123 420.0625 33.6625L420.0625 39.1L418.29688 39.1ZM425.32812 39.1L425.32812 24.787498L427.09375 24.787498L427.09375 32.94375L431.25 28.724998L433.51562 28.724998L429.5625 32.56875L433.92188 39.1L431.75 39.1L428.32812 33.803123L427.09375 34.990623L427.09375 39.1L425.32812 39.1ZM445.15625 37.521873L445.40625 39.084373Q444.67188 39.240623 444.07812 39.240623Q443.125 39.240623 442.59375 38.94375Q442.07812 38.63125 441.85938 38.146873Q441.64062 37.646873 441.64062 36.06875L441.64062 30.099998L440.35938 30.099998L440.35938 28.724998L441.64062 28.724998L441.64062 26.162498L443.39062 25.099998L443.39062 28.724998L445.15625 28.724998L445.15625 30.099998L443.39062 30.099998L443.39062 36.1625Q443.39062 36.9125 443.48438 37.13125Q443.57812 37.334373 443.78125 37.475Q444.0 37.6 444.39062 37.6Q444.67188 37.6 445.15625 37.521873ZM447.3125 39.1L447.3125 24.787498L449.07812 24.787498L449.07812 29.912498Q450.3125 28.490623 452.1875 28.490623Q453.32812 28.490623 454.17188 28.943748Q455.03125 29.396873 455.39062 30.209373Q455.76562 31.006248 455.76562 32.521873L455.76562 39.1L454.01562 39.1L454.01562 32.521873Q454.01562 31.209373 453.4375 30.615623Q452.85938 30.006248 451.82812 30.006248Q451.04688 30.006248 450.34375 30.412498Q449.65625 30.818748 449.35938 31.521873Q449.07812 32.209373 449.07812 33.428123L449.07812 39.1L447.3125 39.1ZM464.42188 35.75625L466.23438 35.990623Q465.8125 37.56875 464.64062 38.459373Q463.48438 39.334373 461.67188 39.334373Q459.40625 39.334373 458.0625 37.94375Q456.73438 36.5375 456.73438 34.00625Q456.73438 31.381248 458.07812 29.943748Q459.42188 28.490623 461.57812 28.490623Q463.65625 28.490623 464.96875 29.912498Q466.29688 31.318748 466.29688 33.896873Q466.29688 34.053123 466.28125 34.365623L458.54688 34.365623Q458.64062 36.06875 459.51562 36.975Q460.39062 37.88125 461.6875 37.88125Q462.65625 37.88125 463.32812 37.38125Q464.01562 36.865623 464.42188 35.75625ZM458.64062 32.9125L464.4375 32.9125Q464.32812 31.615623 463.78125 30.959373Q462.9375 29.943748 461.59375 29.943748Q460.39062 29.943748 459.5625 30.756248Q458.73438 31.553123 458.64062 32.9125ZM468.3125 39.1L468.3125 28.724998L469.89062 28.724998L469.89062 30.178123Q470.375 29.428123 471.1875 28.959373Q472.0 28.490623 473.03125 28.490623Q474.1875 28.490623 474.92188 28.974998Q475.65625 29.443748 475.96875 30.303123Q477.20312 28.490623 479.17188 28.490623Q480.71875 28.490623 481.54688 29.349998Q482.375 30.209373 482.375 31.974998L482.375 39.1L480.625 39.1L480.625 32.56875Q480.625 31.506248 480.45312 31.053123Q480.28125 30.584373 479.82812 30.303123Q479.39062 30.021873 478.78125 30.021873Q477.6875 30.021873 476.95312 30.756248Q476.23438 31.474998 476.23438 33.06875L476.23438 39.1L474.48438 39.1L474.48438 32.365623Q474.48438 31.193748 474.04688 30.615623Q473.625 30.021873 472.64062 30.021873Q471.90625 30.021873 471.26562 30.412498Q470.64062 30.803123 470.35938 31.553123Q470.07812 32.303123 470.07812 33.725L470.07812 39.1L468.3125 39.1ZM491.42188 35.75625L493.23438 35.990623Q492.8125 37.56875 491.64062 38.459373Q490.48438 39.334373 488.67188 39.334373Q486.40625 39.334373 485.0625 37.94375Q483.73438 36.5375 483.73438 34.00625Q483.73438 31.381248 485.07812 29.943748Q486.42188 28.490623 488.57812 28.490623Q490.65625 28.490623 491.96875 29.912498Q493.29688 31.318748 493.29688 33.896873Q493.29688 34.053123 493.28125 34.365623L485.54688 34.365623Q485.64062 36.06875 486.51562 36.975Q487.39062 37.88125 488.6875 37.88125Q489.65625 37.88125 490.32812 37.38125Q491.01562 36.865623 491.42188 35.75625ZM485.64062 32.9125L491.4375 32.9125Q491.32812 31.615623 490.78125 30.959373Q489.9375 29.943748 488.59375 29.943748Q487.39062 29.943748 486.5625 30.756248Q485.73438 31.553123 485.64062 32.9125Z" fill-rule="nonzero"/></svg>