<svg version="1.1" viewBox="0.0 0.0 810.0 402.0" fill="none" stroke="none" stroke-linecap="square" stroke-miterlimit="10" width="810" height="402" xmlns:xlink="http://www.w3.org/1999/xlink" xmlns="http://www.w3.org/2000/svg"><path fill="#ffffff" d="M0 0L810.0 0L810.0 402.0L0 402.0L0 0Z" fill-rule="nonzero"/><path fill="#a3a3a3" d="M337.84384 59.116547C345.41052 58.040195 353.04382 57.5 360.68668 57.5L360.68668 138.6C356.86523 138.6 353.04858 138.8701 349.26526 139.40828Z" fill-rule="nonzero"/><path fill="#d946ef" d="M328.8089 60.663376C331.80536 60.062756 334.8182 59.54694 337.84384 59.116547L349.26526 139.40828C347.75244 139.62347 346.24603 139.88138 344.74777 140.18169Z" fill-rule="nonzero"/><path fill="#22c55e" d="M311.073 65.274216C316.89334 63.404263 322.81476 61.864857 328.8089 60.663376L344.74777 140.18169C341.7507 140.78242 338.79 141.55212 335.87982 142.4871Z" fill-rule="nonzero"/><path fill="#f59e0b" d="M279.03595 79.55008C289.16757 73.647446 299.90936 68.86085 311.073 65.274216L335.87982 142.4871C330.298 144.28043 324.92712 146.67372 319.8613 149.62505Z" fill-rule="nonzero"/><path fill="#ef4444" d="M194.66008 185.02019C203.36688 138.76228 231.73904 98.56811 272.4103 74.8732L313.2357 144.94817C292.90005 156.79562 278.71396 176.8927 274.36057 200.02165Z" fill-rule="nonzero"/><path fill="#2563eb" d="M365.86383 63.742527C434.22357 63.742527 495.2456 106.601616 518.44104 170.9058C541.6364 235.20999 522.02563 307.15445 469.40695 350.79306C416.78827 394.43167 342.45782 400.39612 283.5539 365.70633C224.64996 331.0165 193.81802 263.1197 206.46288 195.93959L286.16336 210.94106C279.84094 244.5311 295.2569 278.47952 324.70886 295.82443C354.16083 313.1693 391.32605 310.1871 417.6354 288.3678C443.94473 266.5485 453.75012 230.57626 442.1524 198.42416C430.55472 166.27208 400.0437 144.84253 365.86383 144.84253Z" fill-rule="nonzero"/><path fill="#000000" d="M425.11493 316.4867L425.11493 314.68982L431.69305 314.68982L431.69305 316.09607Q430.86493 316.89294 430.02118 318.39294Q429.19305 319.87732 428.73993 321.56482Q428.30243 323.25232 428.31805 324.58044L426.45868 324.58044Q426.50555 322.50232 427.31805 320.34607Q428.13055 318.1742 429.48993 316.4867L425.11493 316.4867ZM434.77118 319.1742Q434.02118 318.8617 433.67743 318.31482Q433.3493 317.75232 433.3493 317.09607Q433.3493 315.9867 434.13055 315.25232Q434.9118 314.51794 436.3493 314.51794Q437.77118 314.51794 438.56805 315.25232Q439.36493 315.9867 439.36493 317.09607Q439.36493 317.7992 438.98993 318.34607Q438.63055 318.89294 437.9743 319.1742Q438.81805 319.50232 439.23993 320.15857Q439.67743 320.7992 439.67743 321.62732Q439.67743 323.01794 438.7868 323.89294Q437.9118 324.75232 436.44305 324.75232Q435.06805 324.75232 434.1618 324.03357Q433.08368 323.18982 433.08368 321.72107Q433.08368 320.90857 433.48993 320.2367Q433.89618 319.5492 434.77118 319.1742ZM435.1618 317.2367Q435.1618 317.81482 435.4743 318.14294Q435.80243 318.45544 436.3493 318.45544Q436.89618 318.45544 437.2243 318.12732Q437.55243 317.7992 437.55243 317.2367Q437.55243 316.68982 437.2243 316.37732Q436.89618 316.0492 436.36493 316.0492Q435.81805 316.0492 435.48993 316.37732Q435.1618 316.70544 435.1618 317.2367ZM434.98993 321.53357Q434.98993 322.33044 435.39618 322.76794Q435.80243 323.20544 436.4118 323.20544Q437.00555 323.20544 437.38055 322.78357Q437.77118 322.3617 437.77118 321.5492Q437.77118 320.84607 437.38055 320.4242Q436.98993 319.9867 436.38055 319.9867Q435.67743 319.9867 435.33368 320.4867Q434.98993 320.97107 434.98993 321.53357ZM441.52118 324.58044L441.52118 322.65857L443.44305 322.65857L443.44305 324.58044L441.52118 324.58044ZM448.36493 314.51794Q449.81805 314.51794 450.64618 315.5492Q451.61493 316.78357 451.61493 319.64294Q451.61493 322.4867 450.63055 323.72107Q449.81805 324.75232 448.36493 324.75232Q446.89618 324.75232 446.00555 323.62732Q445.11493 322.50232 445.11493 319.6117Q445.11493 316.78357 446.0993 315.5492Q446.9118 314.51794 448.36493 314.51794ZM448.36493 316.1117Q448.02118 316.1117 447.73993 316.33044Q447.4743 316.5492 447.31805 317.12732Q447.11493 317.87732 447.11493 319.64294Q447.11493 321.40857 447.2868 322.06482Q447.4743 322.72107 447.73993 322.93982Q448.02118 323.15857 448.36493 323.15857Q448.70868 323.15857 448.9743 322.93982Q449.25555 322.72107 449.4118 322.14294Q449.61493 321.40857 449.61493 319.64294Q449.61493 317.87732 449.42743 317.22107Q449.25555 316.5492 448.9743 316.33044Q448.70868 316.1117 448.36493 316.1117ZM453.13055 317.03357Q453.13055 315.68982 453.7243 315.0492Q454.31805 314.39294 455.31805 314.39294Q456.36493 314.39294 456.95868 315.03357Q457.55243 315.6742 457.55243 317.03357Q457.55243 318.37732 456.95868 319.03357Q456.36493 319.6742 455.36493 319.6742Q454.31805 319.6742 453.7243 319.03357Q453.13055 318.39294 453.13055 317.03357ZM454.63055 317.01794Q454.63055 318.00232 454.8493 318.33044Q455.02118 318.58044 455.31805 318.58044Q455.63055 318.58044 455.80243 318.33044Q456.02118 318.00232 456.02118 317.01794Q456.02118 316.0492 455.80243 315.72107Q455.63055 315.45544 455.31805 315.45544Q455.02118 315.45544 454.8493 315.70544Q454.63055 316.0492 454.63055 317.01794ZM456.7868 324.97107L455.36493 324.97107L460.70868 314.39294L462.08368 314.39294L456.7868 324.97107ZM459.89618 322.33044Q459.89618 320.9867 460.4743 320.34607Q461.06805 319.68982 462.0993 319.68982Q463.13055 319.68982 463.7243 320.34607Q464.31805 320.9867 464.31805 322.33044Q464.31805 323.68982 463.7243 324.34607Q463.13055 324.9867 462.11493 324.9867Q461.06805 324.9867 460.4743 324.34607Q459.89618 323.68982 459.89618 322.33044ZM461.38055 322.33044Q461.38055 323.2992 461.61493 323.62732Q461.7868 323.87732 462.08368 323.87732Q462.39618 323.87732 462.55243 323.64294Q462.7868 323.2992 462.7868 322.33044Q462.7868 321.34607 462.56805 321.01794Q462.39618 320.76794 462.08368 320.76794Q461.77118 320.76794 461.61493 321.01794Q461.38055 321.34607 461.38055 322.33044Z" fill-rule="nonzero"/><path fill="#000000" d="M241.19228 149.86996L239.2704 149.86996L239.2704 142.63559Q238.2079 143.61996 236.78603 144.08871L236.78603 142.33871Q237.53603 142.10434 238.41103 141.41684Q239.30165 140.72934 239.62978 139.80746L241.19228 139.80746L241.19228 149.86996ZM244.2079 147.21371L246.06728 146.97934Q246.1454 147.69809 246.53603 148.07309Q246.92665 148.44809 247.48915 148.44809Q248.0829 148.44809 248.48915 147.99496Q248.8954 147.54184 248.8954 146.77621Q248.8954 146.05746 248.50478 145.63559Q248.11415 145.21371 247.55165 145.21371Q247.17665 145.21371 246.67665 145.35434L246.87978 143.79184Q247.66103 143.80746 248.06728 143.44809Q248.48915 143.08871 248.48915 142.49496Q248.48915 141.99496 248.17665 141.69809Q247.87978 141.38559 247.37978 141.38559Q246.8954 141.38559 246.53603 141.72934Q246.19228 142.07309 246.11415 142.72934L244.34853 142.43246Q244.53603 141.51059 244.8954 140.97934Q245.2704 140.43246 245.94228 140.11996Q246.61415 139.80746 247.44228 139.80746Q248.84853 139.80746 249.7079 140.71371Q250.41103 141.44809 250.41103 142.36996Q250.41103 143.69809 248.97353 144.47934Q249.8329 144.66684 250.34853 145.30746Q250.86415 145.94809 250.86415 146.85434Q250.86415 148.18246 249.8954 149.11996Q248.92665 150.04184 247.50478 150.04184Q246.1454 150.04184 245.23915 149.26059Q244.34853 148.47934 244.2079 147.21371ZM252.67665 149.86996L252.67665 147.94809L254.59853 147.94809L254.59853 149.86996L252.67665 149.86996ZM262.786 142.30746L260.92664 142.51059Q260.8485 141.93246 260.55164 141.66684Q260.2704 141.38559 259.81726 141.38559Q259.2079 141.38559 258.786 141.93246Q258.36414 142.47934 258.25476 144.21371Q258.9735 143.35434 260.05164 143.35434Q261.25476 143.35434 262.0985 144.27621Q262.9579 145.19809 262.9579 146.63559Q262.9579 148.18246 262.05164 149.11996Q261.161 150.04184 259.73914 150.04184Q258.2235 150.04184 257.23914 148.86996Q256.2704 147.68246 256.2704 144.99496Q256.2704 142.24496 257.286 141.02621Q258.30164 139.80746 259.94226 139.80746Q261.0829 139.80746 261.81726 140.44809Q262.56726 141.08871 262.786 142.30746ZM258.42664 146.49496Q258.42664 147.43246 258.8485 147.94809Q259.286 148.44809 259.8329 148.44809Q260.37976 148.44809 260.7235 148.04184Q261.0829 147.61996 261.0829 146.66684Q261.0829 145.68246 260.69226 145.22934Q260.31726 144.77621 259.73914 144.77621Q259.19226 144.77621 258.80164 145.21371Q258.42664 145.65121 258.42664 146.49496ZM264.286 142.32309Q264.286 140.97934 264.87976 140.33871Q265.4735 139.68246 266.4735 139.68246Q267.5204 139.68246 268.11414 140.32309Q268.7079 140.96371 268.7079 142.32309Q268.7079 143.66684 268.11414 144.32309Q267.5204 144.96371 266.5204 144.96371Q265.4735 144.96371 264.87976 144.32309Q264.286 143.68246 264.286 142.32309ZM265.786 142.30746Q265.786 143.29184 266.00476 143.61996Q266.17664 143.86996 266.4735 143.86996Q266.786 143.86996 266.9579 143.61996Q267.17664 143.29184 267.17664 142.30746Q267.17664 141.33871 266.9579 141.01059Q266.786 140.74496 266.4735 140.74496Q266.17664 140.74496 266.00476 140.99496Q265.786 141.33871 265.786 142.30746ZM267.94226 150.26059L266.5204 150.26059L271.86414 139.68246L273.23914 139.68246L267.94226 150.26059ZM271.05164 147.61996Q271.05164 146.27621 271.62976 145.63559Q272.2235 144.97934 273.25476 144.97934Q274.286 144.97934 274.87976 145.63559Q275.4735 146.27621 275.4735 147.61996Q275.4735 148.97934 274.87976 149.63559Q274.286 150.27621 273.2704 150.27621Q272.2235 150.27621 271.62976 149.63559Q271.05164 148.97934 271.05164 147.61996ZM272.536 147.61996Q272.536 148.58871 272.7704 148.91684Q272.94226 149.16684 273.23914 149.16684Q273.55164 149.16684 273.7079 148.93246Q273.94226 148.58871 273.94226 147.61996Q273.94226 146.63559 273.7235 146.30746Q273.55164 146.05746 273.23914 146.05746Q272.92664 146.05746 272.7704 146.30746Q272.536 146.63559 272.536 147.61996Z" fill-rule="nonzero"/><path fill="#2563eb" d="M734.9 64.5C734.9 67.813705 732.2137 70.5 728.9 70.5C725.5863 70.5 722.9 67.813705 722.9 64.5C722.9 61.18629 725.5863 58.5 728.9 58.5C732.2137 58.5 734.9 61.18629 734.9 64.5Z" fill-rule="nonzero"/><path fill="#1a1a1a" d="M743.85315 68.5L743.85315 59.90625L750.0563 59.90625L750.0563 60.921875L744.9938 60.921875L744.9938 63.546875L749.7438 63.546875L749.7438 64.5625L744.9938 64.5625L744.9938 67.484375L750.2594 67.484375L750.2594 68.5L743.85315 68.5ZM751.6969 68.5L751.6969 62.28125L752.6344 62.28125L752.6344 63.15625Q753.3219 62.140625 754.6188 62.140625Q755.1813 62.140625 755.65 62.34375Q756.1344 62.546875 756.3688 62.875Q756.60315 63.203125 756.6969 63.640625Q756.7438 63.9375 756.7438 64.671875L756.7438 68.5L755.6969 68.5L755.6969 64.71875Q755.6969 64.0625 755.5719 63.75Q755.4469 63.4375 755.1344 63.25Q754.8219 63.046875 754.4 63.046875Q753.72815 63.046875 753.22815 63.484375Q752.7438 63.90625 752.7438 65.09375L752.7438 68.5L751.6969 68.5ZM758.4938 69.015625L759.525 69.171875Q759.5875 69.640625 759.8844 69.859375Q760.275 70.15625 760.9469 70.15625Q761.6813 70.15625 762.0719 69.859375Q762.47815 69.5625 762.6188 69.046875Q762.7125 68.71875 762.6969 67.6875Q762.0094 68.5 760.97815 68.5Q759.6969 68.5 758.9938 67.578125Q758.29065 66.640625 758.29065 65.359375Q758.29065 64.46875 758.60315 63.71875Q758.9313 62.953125 759.54065 62.546875Q760.15 62.140625 760.97815 62.140625Q762.0875 62.140625 762.8063 63.03125L762.8063 62.28125L763.775 62.28125L763.775 67.65625Q763.775 69.109375 763.47815 69.71875Q763.1813 70.328125 762.54065 70.671875Q761.9 71.03125 760.9625 71.03125Q759.85315 71.03125 759.16565 70.53125Q758.47815 70.03125 758.4938 69.015625ZM759.3688 65.28125Q759.3688 66.5 759.85315 67.0625Q760.3375 67.625 761.0719 67.625Q761.8063 67.625 762.29065 67.0625Q762.79065 66.5 762.79065 65.3125Q762.79065 64.171875 762.275 63.59375Q761.775 63.015625 761.0563 63.015625Q760.35315 63.015625 759.85315 63.59375Q759.3688 64.15625 759.3688 65.28125ZM765.66565 68.5L765.66565 59.90625L766.72815 59.90625L766.72815 68.5L765.66565 68.5ZM768.6969 61.125L768.6969 59.90625L769.7594 59.90625L769.7594 61.125L768.6969 61.125ZM768.6969 68.5L768.6969 62.28125L769.7594 62.28125L769.7594 68.5L768.6969 68.5ZM771.275 66.640625L772.3063 66.484375Q772.4 67.109375 772.79065 67.4375Q773.1969 67.765625 773.9313 67.765625Q774.65 67.765625 774.9938 67.484375Q775.35315 67.1875 775.35315 66.78125Q775.35315 66.421875 775.04065 66.21875Q774.8219 66.078125 773.9625 65.859375Q772.8063 65.5625 772.35315 65.359375Q771.91565 65.140625 771.6813 64.765625Q771.4469 64.390625 771.4469 63.921875Q771.4469 63.515625 771.6344 63.15625Q771.8219 62.796875 772.15 62.5625Q772.4 62.390625 772.8219 62.265625Q773.2438 62.140625 773.7438 62.140625Q774.4625 62.140625 775.0094 62.359375Q775.5719 62.5625 775.8375 62.921875Q776.10315 63.28125 776.1969 63.875L775.16565 64.015625Q775.10315 63.546875 774.7594 63.28125Q774.4313 63.0 773.8063 63.0Q773.0875 63.0 772.775 63.25Q772.4625 63.484375 772.4625 63.8125Q772.4625 64.015625 772.5875 64.171875Q772.72815 64.34375 772.9938 64.453125Q773.15 64.515625 773.9313 64.71875Q775.0563 65.03125 775.4938 65.21875Q775.9313 65.40625 776.1813 65.765625Q776.4313 66.125 776.4313 66.671875Q776.4313 67.203125 776.1188 67.671875Q775.8219 68.125 775.2438 68.390625Q774.66565 68.640625 773.9313 68.640625Q772.7125 68.640625 772.0719 68.140625Q771.4469 67.625 771.275 66.640625ZM778.6969 68.5L778.6969 59.90625L779.7438 59.90625L779.7438 62.984375Q780.47815 62.140625 781.60315 62.140625Q782.3063 62.140625 782.8063 62.421875Q783.3219 62.6875 783.54065 63.171875Q783.7594 63.640625 783.7594 64.5625L783.7594 68.5L782.7125 68.5L782.7125 64.5625Q782.7125 63.765625 782.3688 63.40625Q782.025 63.046875 781.4 63.046875Q780.9313 63.046875 780.5094 63.296875Q780.10315 63.53125 779.91565 63.953125Q779.7438 64.359375 779.7438 65.09375L779.7438 68.5L778.6969 68.5Z" fill-rule="nonzero"/><path fill="#ef4444" d="M734.9 88.5C734.9 91.813705 732.2137 94.5 728.9 94.5C725.5863 94.5 722.9 91.813705 722.9 88.5C722.9 85.186295 725.5863 82.5 728.9 82.5C732.2137 82.5 734.9 85.186295 734.9 88.5Z" fill-rule="nonzero"/><path fill="#1a1a1a" d="M747.85315 89.125L747.85315 88.125L751.47815 88.109375L751.47815 91.296875Q750.65 91.96875 749.7594 92.3125Q748.8688 92.640625 747.9313 92.640625Q746.66565 92.640625 745.6188 92.109375Q744.5875 91.5625 744.0563 90.546875Q743.54065 89.515625 743.54065 88.25Q743.54065 86.984375 744.0563 85.90625Q744.5875 84.8125 745.5719 84.296875Q746.5563 83.765625 747.8375 83.765625Q748.775 83.765625 749.525 84.0625Q750.275 84.359375 750.6969 84.90625Q751.1344 85.4375 751.35315 86.3125L750.3375 86.59375Q750.1344 85.9375 749.8375 85.5625Q749.5563 85.1875 749.025 84.96875Q748.4938 84.734375 747.85315 84.734375Q747.0719 84.734375 746.4938 84.96875Q745.9313 85.203125 745.5719 85.59375Q745.22815 85.984375 745.04065 86.453125Q744.7125 87.25 744.7125 88.171875Q744.7125 89.328125 745.10315 90.109375Q745.5094 90.875 746.2594 91.25Q747.0094 91.625 747.8688 91.625Q748.60315 91.625 749.3063 91.34375Q750.0094 91.046875 750.3688 90.734375L750.3688 89.125L747.85315 89.125ZM756.9469 90.5L758.04065 90.625Q757.79065 91.578125 757.0875 92.109375Q756.3844 92.640625 755.3063 92.640625Q753.9469 92.640625 753.1344 91.796875Q752.3375 90.953125 752.3375 89.4375Q752.3375 87.875 753.15 87.015625Q753.9625 86.140625 755.2438 86.140625Q756.4938 86.140625 757.275 86.984375Q758.0719 87.828125 758.0719 89.375Q758.0719 89.46875 758.0719 89.65625L753.4313 89.65625Q753.4938 90.6875 754.0094 91.234375Q754.525 91.765625 755.3063 91.765625Q755.8844 91.765625 756.29065 91.46875Q756.7125 91.15625 756.9469 90.5ZM753.4938 88.796875L756.9625 88.796875Q756.9 88.0 756.5719 87.609375Q756.0563 87.0 755.2594 87.0Q754.525 87.0 754.025 87.484375Q753.54065 87.96875 753.4938 88.796875ZM759.6813 92.5L759.6813 86.28125L760.6344 86.28125L760.6344 87.21875Q760.9938 86.5625 761.29065 86.359375Q761.60315 86.140625 761.97815 86.140625Q762.5094 86.140625 763.0563 86.46875L762.6969 87.453125Q762.3063 87.21875 761.9313 87.21875Q761.5719 87.21875 761.29065 87.4375Q761.025 87.640625 760.91565 88.015625Q760.72815 88.578125 760.72815 89.234375L760.72815 92.5L759.6813 92.5ZM763.6969 92.5L763.6969 86.28125L764.6344 86.28125L764.6344 87.15625Q764.9313 86.6875 765.41565 86.421875Q765.9 86.140625 766.525 86.140625Q767.2125 86.140625 767.65 86.421875Q768.10315 86.703125 768.275 87.21875Q769.025 86.140625 770.1969 86.140625Q771.1344 86.140625 771.6188 86.65625Q772.1188 87.15625 772.1188 88.234375L772.1188 92.5L771.0719 92.5L771.0719 88.578125Q771.0719 87.953125 770.9625 87.671875Q770.8688 87.390625 770.60315 87.21875Q770.3375 87.046875 769.9625 87.046875Q769.3063 87.046875 768.8688 87.484375Q768.4469 87.921875 768.4469 88.890625L768.4469 92.5L767.3844 92.5L767.3844 88.453125Q767.3844 87.75 767.1188 87.40625Q766.8688 87.046875 766.29065 87.046875Q765.8375 87.046875 765.4625 87.28125Q765.0875 87.515625 764.91565 87.96875Q764.7438 88.421875 764.7438 89.265625L764.7438 92.5L763.6969 92.5ZM778.7594 91.734375Q778.16565 92.234375 777.6188 92.4375Q777.0875 92.640625 776.4625 92.640625Q775.4313 92.640625 774.8844 92.140625Q774.3375 91.640625 774.3375 90.859375Q774.3375 90.40625 774.54065 90.03125Q774.7438 89.640625 775.0875 89.421875Q775.4313 89.1875 775.85315 89.078125Q776.15 88.984375 776.79065 88.90625Q778.0563 88.765625 778.66565 88.546875Q778.66565 88.328125 778.66565 88.28125Q778.66565 87.625 778.3688 87.359375Q777.9625 87.015625 777.16565 87.015625Q776.4313 87.015625 776.0719 87.28125Q775.7125 87.53125 775.54065 88.1875L774.5094 88.046875Q774.65 87.390625 774.97815 86.984375Q775.3063 86.578125 775.91565 86.359375Q776.525 86.140625 777.3219 86.140625Q778.1188 86.140625 778.6188 86.328125Q779.1188 86.515625 779.35315 86.796875Q779.5875 87.078125 779.6813 87.515625Q779.72815 87.78125 779.72815 88.484375L779.72815 89.890625Q779.72815 91.359375 779.79065 91.75Q779.8688 92.140625 780.0719 92.5L778.9625 92.5Q778.8063 92.171875 778.7594 91.734375ZM778.66565 89.375Q778.0875 89.609375 776.9469 89.78125Q776.29065 89.875 776.025 90.0Q775.7594 90.109375 775.60315 90.328125Q775.4625 90.546875 775.4625 90.828125Q775.4625 91.25 775.775 91.53125Q776.10315 91.8125 776.7125 91.8125Q777.3219 91.8125 777.79065 91.546875Q778.275 91.28125 778.4938 90.8125Q778.66565 90.453125 778.66565 89.765625L778.66565 89.375ZM781.6969 92.5L781.6969 86.28125L782.6344 86.28125L782.6344 87.15625Q783.3219 86.140625 784.6188 86.140625Q785.1813 86.140625 785.65 86.34375Q786.1344 86.546875 786.3688 86.875Q786.60315 87.203125 786.6969 87.640625Q786.7438 87.9375 786.7438 88.671875L786.7438 92.5L785.6969 92.5L785.6969 88.71875Q785.6969 88.0625 785.5719 87.75Q785.4469 87.4375 785.1344 87.25Q784.8219 87.046875 784.4 87.046875Q783.72815 87.046875 783.22815 87.484375Q782.7438 87.90625 782.7438 89.09375L782.7438 92.5L781.6969 92.5Z" fill-rule="nonzero"/><path fill="#f59e0b" d="M734.9 112.5C734.9 115.813705 732.2137 118.5 728.9 118.5C725.5863 118.5 722.9 115.813705 722.9 112.5C722.9 109.186295 725.5863 106.5 728.9 106.5C732.2137 106.5 734.9 109.186295 734.9 112.5Z" fill-rule="nonzero"/><path fill="#1a1a1a" d="M743.8375 116.5L743.8375 107.90625L747.65 107.90625Q748.8063 107.90625 749.4 108.140625Q749.9938 108.375 750.35315 108.96875Q750.7125 109.546875 750.7125 110.25Q750.7125 111.171875 750.1188 111.796875Q749.525 112.421875 748.29065 112.59375Q748.7438 112.8125 748.97815 113.015625Q749.47815 113.46875 749.91565 114.15625L751.41565 116.5L749.97815 116.5L748.85315 114.71875Q748.35315 113.9375 748.025 113.53125Q747.7125 113.125 747.4469 112.96875Q747.1969 112.796875 746.9313 112.71875Q746.7438 112.6875 746.3063 112.6875L744.97815 112.6875L744.97815 116.5L743.8375 116.5ZM744.97815 111.703125L747.4313 111.703125Q748.1969 111.703125 748.6344 111.546875Q749.0875 111.375 749.3063 111.03125Q749.54065 110.671875 749.54065 110.25Q749.54065 109.640625 749.0875 109.25Q748.65 108.859375 747.6969 108.859375L744.97815 108.859375L744.97815 111.703125ZM756.775 116.5L756.775 115.578125Q756.04065 116.640625 754.79065 116.640625Q754.2438 116.640625 753.7594 116.4375Q753.29065 116.21875 753.0563 115.90625Q752.8219 115.578125 752.72815 115.109375Q752.66565 114.8125 752.66565 114.125L752.66565 110.28125L753.72815 110.28125L753.72815 113.734375Q753.72815 114.546875 753.79065 114.84375Q753.8844 115.25 754.1969 115.5Q754.525 115.734375 755.0094 115.734375Q755.47815 115.734375 755.8844 115.5Q756.3063 115.25 756.47815 114.828125Q756.66565 114.40625 756.66565 113.609375L756.66565 110.28125L757.7125 110.28125L757.7125 116.5L756.775 116.5ZM759.275 114.640625L760.3063 114.484375Q760.4 115.109375 760.79065 115.4375Q761.1969 115.765625 761.9313 115.765625Q762.65 115.765625 762.9938 115.484375Q763.35315 115.1875 763.35315 114.78125Q763.35315 114.421875 763.04065 114.21875Q762.8219 114.078125 761.9625 113.859375Q760.8063 113.5625 760.35315 113.359375Q759.91565 113.140625 759.6813 112.765625Q759.4469 112.390625 759.4469 111.921875Q759.4469 111.515625 759.6344 111.15625Q759.8219 110.796875 760.15 110.5625Q760.4 110.390625 760.8219 110.265625Q761.2438 110.140625 761.7438 110.140625Q762.4625 110.140625 763.0094 110.359375Q763.5719 110.5625 763.8375 110.921875Q764.10315 111.28125 764.1969 111.875L763.16565 112.015625Q763.10315 111.546875 762.7594 111.28125Q762.4313 111.0 761.8063 111.0Q761.0875 111.0 760.775 111.25Q760.4625 111.484375 760.4625 111.8125Q760.4625 112.015625 760.5875 112.171875Q760.72815 112.34375 760.9938 112.453125Q761.15 112.515625 761.9313 112.71875Q763.0563 113.03125 763.4938 113.21875Q763.9313 113.40625 764.1813 113.765625Q764.4313 114.125 764.4313 114.671875Q764.4313 115.203125 764.1188 115.671875Q763.8219 116.125 763.2438 116.390625Q762.66565 116.640625 761.9313 116.640625Q760.7125 116.640625 760.0719 116.140625Q759.4469 115.625 759.275 114.640625ZM766.275 114.640625L767.3063 114.484375Q767.4 115.109375 767.79065 115.4375Q768.1969 115.765625 768.9313 115.765625Q769.65 115.765625 769.9938 115.484375Q770.35315 115.1875 770.35315 114.78125Q770.35315 114.421875 770.04065 114.21875Q769.8219 114.078125 768.9625 113.859375Q767.8063 113.5625 767.35315 113.359375Q766.91565 113.140625 766.6813 112.765625Q766.4469 112.390625 766.4469 111.921875Q766.4469 111.515625 766.6344 111.15625Q766.8219 110.796875 767.15 110.5625Q767.4 110.390625 767.8219 110.265625Q768.2438 110.140625 768.7438 110.140625Q769.4625 110.140625 770.0094 110.359375Q770.5719 110.5625 770.8375 110.921875Q771.10315 111.28125 771.1969 111.875L770.16565 112.015625Q770.10315 111.546875 769.7594 111.28125Q769.4313 111.0 768.8063 111.0Q768.0875 111.0 767.775 111.25Q767.4625 111.484375 767.4625 111.8125Q767.4625 112.015625 767.5875 112.171875Q767.72815 112.34375 767.9938 112.453125Q768.15 112.515625 768.9313 112.71875Q770.0563 113.03125 770.4938 113.21875Q770.9313 113.40625 771.1813 113.765625Q771.4313 114.125 771.4313 114.671875Q771.4313 115.203125 771.1188 115.671875Q770.8219 116.125 770.2438 116.390625Q769.66565 116.640625 768.9313 116.640625Q767.7125 116.640625 767.0719 116.140625Q766.4469 115.625 766.275 114.640625ZM773.6969 109.125L773.6969 107.90625L774.7594 107.90625L774.7594 109.125L773.6969 109.125ZM773.6969 116.5L773.6969 110.28125L774.7594 110.28125L774.7594 116.5L773.6969 116.5ZM780.7594 115.734375Q780.16565 116.234375 779.6188 116.4375Q779.0875 116.640625 778.4625 116.640625Q777.4313 116.640625 776.8844 116.140625Q776.3375 115.640625 776.3375 114.859375Q776.3375 114.40625 776.54065 114.03125Q776.7438 113.640625 777.0875 113.421875Q777.4313 113.1875 777.85315 113.078125Q778.15 112.984375 778.79065 112.90625Q780.0563 112.765625 780.66565 112.546875Q780.66565 112.328125 780.66565 112.28125Q780.66565 111.625 780.3688 111.359375Q779.9625 111.015625 779.16565 111.015625Q778.4313 111.015625 778.0719 111.28125Q777.7125 111.53125 777.54065 112.1875L776.5094 112.046875Q776.65 111.390625 776.97815 110.984375Q777.3063 110.578125 777.91565 110.359375Q778.525 110.140625 779.3219 110.140625Q780.1188 110.140625 780.6188 110.328125Q781.1188 110.515625 781.35315 110.796875Q781.5875 111.078125 781.6813 111.515625Q781.72815 111.78125 781.72815 112.484375L781.72815 113.890625Q781.72815 115.359375 781.79065 115.75Q781.8688 116.140625 782.0719 116.5L780.9625 116.5Q780.8063 116.171875 780.7594 115.734375ZM780.66565 113.375Q780.0875 113.609375 778.9469 113.78125Q778.29065 113.875 778.025 114.0Q777.7594 114.109375 777.60315 114.328125Q777.4625 114.546875 777.4625 114.828125Q777.4625 115.25 777.775 115.53125Q778.10315 115.8125 778.7125 115.8125Q779.3219 115.8125 779.79065 115.546875Q780.275 115.28125 780.4938 114.8125Q780.66565 114.453125 780.66565 113.765625L780.66565 113.375ZM783.6969 116.5L783.6969 110.28125L784.6344 110.28125L784.6344 111.15625Q785.3219 110.140625 786.6188 110.140625Q787.1813 110.140625 787.65 110.34375Q788.1344 110.546875 788.3688 110.875Q788.60315 111.203125 788.6969 111.640625Q788.7438 111.9375 788.7438 112.671875L788.7438 116.5L787.6969 116.5L787.6969 112.71875Q787.6969 112.0625 787.5719 111.75Q787.4469 111.4375 787.1344 111.25Q786.8219 111.046875 786.4 111.046875Q785.72815 111.046875 785.22815 111.484375Q784.7438 111.90625 784.7438 113.09375L784.7438 116.5L783.6969 116.5Z" fill-rule="nonzero"/><path fill="#22c55e" d="M734.9 136.5C734.9 139.8137 732.2137 142.5 728.9 142.5C725.5863 142.5 722.9 139.8137 722.9 136.5C722.9 133.1863 725.5863 130.5 728.9 130.5C732.2137 130.5 734.9 133.1863 734.9 136.5Z" fill-rule="nonzero"/><path fill="#1a1a1a" d="M749.9625 137.48438L751.0875 137.78125Q750.72815 139.17188 749.8063 139.90625Q748.8844 140.64062 747.54065 140.64062Q746.15 140.64062 745.275 140.07812Q744.4 139.51562 743.9469 138.45312Q743.4938 137.375 743.4938 136.14062Q743.4938 134.79688 744.0094 133.79688Q744.525 132.79688 745.4625 132.28125Q746.41565 131.76562 747.5563 131.76562Q748.8375 131.76562 749.7125 132.42188Q750.60315 133.07812 750.9469 134.26562L749.8219 134.53125Q749.525 133.59375 748.9469 133.17188Q748.3844 132.73438 747.525 132.73438Q746.54065 132.73438 745.8688 133.21875Q745.2125 133.6875 744.9313 134.48438Q744.66565 135.28125 744.66565 136.14062Q744.66565 137.23438 744.97815 138.04688Q745.3063 138.85938 745.97815 139.26562Q746.65 139.67188 747.4469 139.67188Q748.4 139.67188 749.0563 139.125Q749.72815 138.57812 749.9625 137.48438ZM752.6969 140.5L752.6969 131.90625L753.7438 131.90625L753.7438 134.98438Q754.47815 134.14062 755.60315 134.14062Q756.3063 134.14062 756.8063 134.42188Q757.3219 134.6875 757.54065 135.17188Q757.7594 135.64062 757.7594 136.5625L757.7594 140.5L756.7125 140.5L756.7125 136.5625Q756.7125 135.76562 756.3688 135.40625Q756.025 135.04688 755.4 135.04688Q754.9313 135.04688 754.5094 135.29688Q754.10315 135.53125 753.91565 135.95312Q753.7438 136.35938 753.7438 137.09375L753.7438 140.5L752.6969 140.5ZM759.6969 133.125L759.6969 131.90625L760.7594 131.90625L760.7594 133.125L759.6969 133.125ZM759.6969 140.5L759.6969 134.28125L760.7594 134.28125L760.7594 140.5L759.6969 140.5ZM762.6969 140.5L762.6969 134.28125L763.6344 134.28125L763.6344 135.15625Q764.3219 134.14062 765.6188 134.14062Q766.1813 134.14062 766.65 134.34375Q767.1344 134.54688 767.3688 134.875Q767.60315 135.20312 767.6969 135.64062Q767.7438 135.9375 767.7438 136.67188L767.7438 140.5L766.6969 140.5L766.6969 136.71875Q766.6969 136.0625 766.5719 135.75Q766.4469 135.4375 766.1344 135.25Q765.8219 135.04688 765.4 135.04688Q764.72815 135.04688 764.22815 135.48438Q763.7438 135.90625 763.7438 137.09375L763.7438 140.5L762.6969 140.5ZM773.9469 138.5L775.04065 138.625Q774.79065 139.57812 774.0875 140.10938Q773.3844 140.64062 772.3063 140.64062Q770.9469 140.64062 770.1344 139.79688Q769.3375 138.95312 769.3375 137.4375Q769.3375 135.875 770.15 135.01562Q770.9625 134.14062 772.2438 134.14062Q773.4938 134.14062 774.275 134.98438Q775.0719 135.82812 775.0719 137.375Q775.0719 137.46875 775.0719 137.65625L770.4313 137.65625Q770.4938 138.6875 771.0094 139.23438Q771.525 139.76562 772.3063 139.76562Q772.8844 139.76562 773.29065 139.46875Q773.7125 139.15625 773.9469 138.5ZM770.4938 136.79688L773.9625 136.79688Q773.9 136.0 773.5719 135.60938Q773.0563 135.0 772.2594 135.0Q771.525 135.0 771.025 135.48438Q770.54065 135.96875 770.4938 136.79688ZM776.275 138.64062L777.3063 138.48438Q777.4 139.10938 777.79065 139.4375Q778.1969 139.76562 778.9313 139.76562Q779.65 139.76562 779.9938 139.48438Q780.35315 139.1875 780.35315 138.78125Q780.35315 138.42188 780.04065 138.21875Q779.8219 138.07812 778.9625 137.85938Q777.8063 137.5625 777.35315 137.35938Q776.91565 137.14062 776.6813 136.76562Q776.4469 136.39062 776.4469 135.92188Q776.4469 135.51562 776.6344 135.15625Q776.8219 134.79688 777.15 134.5625Q777.4 134.39062 777.8219 134.26562Q778.2438 134.14062 778.7438 134.14062Q779.4625 134.14062 780.0094 134.35938Q780.5719 134.5625 780.8375 134.92188Q781.10315 135.28125 781.1969 135.875L780.16565 136.01562Q780.10315 135.54688 779.7594 135.28125Q779.4313 135.0 778.8063 135.0Q778.0875 135.0 777.775 135.25Q777.4625 135.48438 777.4625 135.8125Q777.4625 136.01562 777.5875 136.17188Q777.72815 136.34375 777.9938 136.45312Q778.15 136.51562 778.9313 136.71875Q780.0563 137.03125 780.4938 137.21875Q780.9313 137.40625 781.1813 137.76562Q781.4313 138.125 781.4313 138.67188Q781.4313 139.20312 781.1188 139.67188Q780.8219 140.125 780.2438 140.39062Q779.66565 140.64062 778.9313 140.64062Q777.7125 140.64062 777.0719 140.14062Q776.4469 139.625 776.275 138.64062ZM787.9469 138.5L789.04065 138.625Q788.79065 139.57812 788.0875 140.10938Q787.3844 140.64062 786.3063 140.64062Q784.9469 140.64062 784.1344 139.79688Q783.3375 138.95312 783.3375 137.4375Q783.3375 135.875 784.15 135.01562Q784.9625 134.14062 786.2438 134.14062Q787.4938 134.14062 788.275 134.98438Q789.0719 135.82812 789.0719 137.375Q789.0719 137.46875 789.0719 137.65625L784.4313 137.65625Q784.4938 138.6875 785.0094 139.23438Q785.525 139.76562 786.3063 139.76562Q786.8844 139.76562 787.29065 139.46875Q787.7125 139.15625 787.9469 138.5ZM784.4938 136.79688L787.9625 136.79688Q787.9 136.0 787.5719 135.60938Q787.0563 135.0 786.2594 135.0Q785.525 135.0 785.025 135.48438Q784.54065 135.96875 784.4938 136.79688Z" fill-rule="nonzero"/><path fill="#d946ef" d="M734.9 160.5C734.9 163.8137 732.2137 166.5 728.9 166.5C725.5863 166.5 722.9 163.8137 722.9 160.5C722.9 157.1863 725.5863 154.5 728.9 154.5C732.2137 154.5 734.9 157.1863 734.9 160.5Z" fill-rule="nonzero"/><path fill="#1a1a1a" d="M743.4469 161.73438L744.5094 161.64062Q744.5875 162.29688 744.8688 162.70312Q745.15 163.10938 745.72815 163.375Q746.3219 163.625 747.0563 163.625Q747.6969 163.625 748.1969 163.4375Q748.6969 163.23438 748.9313 162.90625Q749.1813 162.5625 749.1813 162.17188Q749.1813 161.76562 748.9469 161.46875Q748.7125 161.15625 748.1813 160.95312Q747.8219 160.8125 746.6344 160.53125Q745.4625 160.25 744.9938 160.0Q744.3688 159.67188 744.0719 159.20312Q743.775 158.71875 743.775 158.125Q743.775 157.48438 744.1344 156.92188Q744.5094 156.34375 745.2125 156.0625Q745.9313 155.76562 746.79065 155.76562Q747.7438 155.76562 748.47815 156.07812Q749.2125 156.375 749.60315 156.98438Q749.9938 157.57812 750.025 158.32812L748.9313 158.40625Q748.8375 157.59375 748.3219 157.1875Q747.8219 156.76562 746.8375 156.76562Q745.8063 156.76562 745.3375 157.14062Q744.8688 157.51562 744.8688 158.04688Q744.8688 158.51562 745.1969 158.8125Q745.525 159.10938 746.9 159.42188Q748.29065 159.73438 748.8063 159.96875Q749.5563 160.32812 749.91565 160.85938Q750.275 161.375 750.275 162.07812Q750.275 162.76562 749.8844 163.375Q749.4938 163.96875 748.7594 164.3125Q748.025 164.64062 747.10315 164.64062Q745.9313 164.64062 745.1344 164.3125Q744.35315 163.96875 743.9 163.28125Q743.4625 162.59375 743.4469 161.73438ZM751.6969 166.89062L751.6969 158.28125L752.65 158.28125L752.65 159.07812Q752.9938 158.60938 753.41565 158.375Q753.85315 158.14062 754.4625 158.14062Q755.2594 158.14062 755.8688 158.54688Q756.47815 158.95312 756.775 159.70312Q757.0875 160.45312 757.0875 161.34375Q757.0875 162.29688 756.7438 163.0625Q756.41565 163.82812 755.7594 164.23438Q755.10315 164.64062 754.3844 164.64062Q753.85315 164.64062 753.4313 164.42188Q753.0094 164.1875 752.7438 163.85938L752.7438 166.89062L751.6969 166.89062ZM752.65 161.42188Q752.65 162.625 753.1344 163.20312Q753.6188 163.76562 754.3063 163.76562Q755.0094 163.76562 755.5094 163.17188Q756.0094 162.57812 756.0094 161.32812Q756.0094 160.14062 755.525 159.5625Q755.04065 158.96875 754.35315 158.96875Q753.6813 158.96875 753.16565 159.59375Q752.65 160.21875 752.65 161.42188ZM762.7594 163.73438Q762.16565 164.23438 761.6188 164.4375Q761.0875 164.64062 760.4625 164.64062Q759.4313 164.64062 758.8844 164.14062Q758.3375 163.64062 758.3375 162.85938Q758.3375 162.40625 758.54065 162.03125Q758.7438 161.64062 759.0875 161.42188Q759.4313 161.1875 759.85315 161.07812Q760.15 160.98438 760.79065 160.90625Q762.0563 160.76562 762.66565 160.54688Q762.66565 160.32812 762.66565 160.28125Q762.66565 159.625 762.3688 159.35938Q761.9625 159.01562 761.16565 159.01562Q760.4313 159.01562 760.0719 159.28125Q759.7125 159.53125 759.54065 160.1875L758.5094 160.04688Q758.65 159.39062 758.97815 158.98438Q759.3063 158.57812 759.91565 158.35938Q760.525 158.14062 761.3219 158.14062Q762.1188 158.14062 762.6188 158.32812Q763.1188 158.51562 763.35315 158.79688Q763.5875 159.07812 763.6813 159.51562Q763.72815 159.78125 763.72815 160.48438L763.72815 161.89062Q763.72815 163.35938 763.79065 163.75Q763.8688 164.14062 764.0719 164.5L762.9625 164.5Q762.8063 164.17188 762.7594 163.73438ZM762.66565 161.375Q762.0875 161.60938 760.9469 161.78125Q760.29065 161.875 760.025 162.0Q759.7594 162.10938 759.60315 162.32812Q759.4625 162.54688 759.4625 162.82812Q759.4625 163.25 759.775 163.53125Q760.10315 163.8125 760.7125 163.8125Q761.3219 163.8125 761.79065 163.54688Q762.275 163.28125 762.4938 162.8125Q762.66565 162.45312 762.66565 161.76562L762.66565 161.375ZM765.6969 164.5L765.6969 158.28125L766.6344 158.28125L766.6344 159.15625Q767.3219 158.14062 768.6188 158.14062Q769.1813 158.14062 769.65 158.34375Q770.1344 158.54688 770.3688 158.875Q770.60315 159.20312 770.6969 159.64062Q770.7438 159.9375 770.7438 160.67188L770.7438 164.5L769.6969 164.5L769.6969 160.71875Q769.6969 160.0625 769.5719 159.75Q769.4469 159.4375 769.1344 159.25Q768.8219 159.04688 768.4 159.04688Q767.72815 159.04688 767.22815 159.48438Q766.7438 159.90625 766.7438 161.09375L766.7438 164.5L765.6969 164.5ZM772.6969 157.125L772.6969 155.90625L773.7594 155.90625L773.7594 157.125L772.6969 157.125ZM772.6969 164.5L772.6969 158.28125L773.7594 158.28125L773.7594 164.5L772.6969 164.5ZM775.275 162.64062L776.3063 162.48438Q776.4 163.10938 776.79065 163.4375Q777.1969 163.76562 777.9313 163.76562Q778.65 163.76562 778.9938 163.48438Q779.35315 163.1875 779.35315 162.78125Q779.35315 162.42188 779.04065 162.21875Q778.8219 162.07812 777.9625 161.85938Q776.8063 161.5625 776.35315 161.35938Q775.91565 161.14062 775.6813 160.76562Q775.4469 160.39062 775.4469 159.92188Q775.4469 159.51562 775.6344 159.15625Q775.8219 158.79688 776.15 158.5625Q776.4 158.39062 776.8219 158.26562Q777.2438 158.14062 777.7438 158.14062Q778.4625 158.14062 779.0094 158.35938Q779.5719 158.5625 779.8375 158.92188Q780.10315 159.28125 780.1969 159.875L779.16565 160.01562Q779.10315 159.54688 778.7594 159.28125Q778.4313 159.0 777.8063 159.0Q777.0875 159.0 776.775 159.25Q776.4625 159.48438 776.4625 159.8125Q776.4625 160.01562 776.5875 160.17188Q776.72815 160.34375 776.9938 160.45312Q777.15 160.51562 777.9313 160.71875Q779.0563 161.03125 779.4938 161.21875Q779.9313 161.40625 780.1813 161.76562Q780.4313 162.125 780.4313 162.67188Q780.4313 163.20312 780.1188 163.67188Q779.8219 164.125 779.2438 164.39062Q778.66565 164.64062 777.9313 164.64062Q776.7125 164.64062 776.0719 164.14062Q775.4469 163.625 775.275 162.64062ZM782.6969 164.5L782.6969 155.90625L783.7438 155.90625L783.7438 158.98438Q784.47815 158.14062 785.60315 158.14062Q786.3063 158.14062 786.8063 158.42188Q787.3219 158.6875 787.54065 159.17188Q787.7594 159.64062 787.7594 160.5625L787.7594 164.5L786.7125 164.5L786.7125 160.5625Q786.7125 159.76562 786.3688 159.40625Q786.025 159.04688 785.4 159.04688Q784.9313 159.04688 784.5094 159.29688Q784.10315 159.53125 783.91565 159.95312Q783.7438 160.35938 783.7438 161.09375L783.7438 164.5L782.6969 164.5Z" fill-rule="nonzero"/><path fill="#a3a3a3" d="M734.9 184.5C734.9 187.8137 732.2137 190.5 728.9 190.5C725.5863 190.5 722.9 187.8137 722.9 184.5C722.9 181.1863 725.5863 178.5 728.9 178.5C732.2137 178.5 734.9 181.1863 734.9 184.5Z" fill-rule="nonzero"/><path fill="#1a1a1a" d="M743.47815 184.3125Q743.47815 182.17188 744.6188 180.96875Q745.775 179.75 747.5875 179.75Q748.79065 179.75 749.7438 180.32812Q750.6969 180.89062 751.1969 181.90625Q751.6969 182.92188 751.6969 184.21875Q751.6969 185.51562 751.16565 186.54688Q750.6344 187.57812 749.66565 188.10938Q748.7125 188.64062 747.5875 188.64062Q746.3688 188.64062 745.41565 188.0625Q744.4625 187.46875 743.9625 186.46875Q743.47815 185.45312 743.47815 184.3125ZM744.65 184.32812Q744.65 185.89062 745.47815 186.78125Q746.3219 187.67188 747.5875 187.67188Q748.8688 187.67188 749.6969 186.78125Q750.525 185.875 750.525 184.20312Q750.525 183.15625 750.16565 182.375Q749.8219 181.59375 749.1344 181.17188Q748.4469 180.73438 747.60315 180.73438Q746.4 180.73438 745.525 181.5625Q744.65 182.39062 744.65 184.32812ZM754.9938 187.5625L755.15 188.48438Q754.6969 188.57812 754.35315 188.57812Q753.775 188.57812 753.4625 188.40625Q753.15 188.21875 753.0094 187.92188Q752.8844 187.625 752.8844 186.67188L752.8844 183.09375L752.1188 183.09375L752.1188 182.28125L752.8844 182.28125L752.8844 180.73438L753.9313 180.10938L753.9313 182.28125L754.9938 182.28125L754.9938 183.09375L753.9313 183.09375L753.9313 186.73438Q753.9313 187.1875 753.97815 187.3125Q754.04065 187.4375 754.16565 187.51562Q754.29065 187.59375 754.525 187.59375Q754.7125 187.59375 754.9938 187.5625ZM755.6969 188.5L755.6969 179.90625L756.7438 179.90625L756.7438 182.98438Q757.47815 182.14062 758.60315 182.14062Q759.3063 182.14062 759.8063 182.42188Q760.3219 182.6875 760.54065 183.17188Q760.7594 183.64062 760.7594 184.5625L760.7594 188.5L759.7125 188.5L759.7125 184.5625Q759.7125 183.76562 759.3688 183.40625Q759.025 183.04688 758.4 183.04688Q757.9313 183.04688 757.5094 183.29688Q757.10315 183.53125 756.91565 183.95312Q756.7438 184.35938 756.7438 185.09375L756.7438 188.5L755.6969 188.5ZM766.9469 186.5L768.04065 186.625Q767.79065 187.57812 767.0875 188.10938Q766.3844 188.64062 765.3063 188.64062Q763.9469 188.64062 763.1344 187.79688Q762.3375 186.95312 762.3375 185.4375Q762.3375 183.875 763.15 183.01562Q763.9625 182.14062 765.2438 182.14062Q766.4938 182.14062 767.275 182.98438Q768.0719 183.82812 768.0719 185.375Q768.0719 185.46875 768.0719 185.65625L763.4313 185.65625Q763.4938 186.6875 764.0094 187.23438Q764.525 187.76562 765.3063 187.76562Q765.8844 187.76562 766.29065 187.46875Q766.7125 187.15625 766.9469 186.5ZM763.4938 184.79688L766.9625 184.79688Q766.9 184.0 766.5719 183.60938Q766.0563 183.0 765.2594 183.0Q764.525 183.0 764.025 183.48438Q763.54065 183.96875 763.4938 184.79688ZM769.6813 188.5L769.6813 182.28125L770.6344 182.28125L770.6344 183.21875Q770.9938 182.5625 771.29065 182.35938Q771.60315 182.14062 771.97815 182.14062Q772.5094 182.14062 773.0563 182.46875L772.6969 183.45312Q772.3063 183.21875 771.9313 183.21875Q771.5719 183.21875 771.29065 183.4375Q771.025 183.64062 770.91565 184.01562Q770.72815 184.57812 770.72815 185.23438L770.72815 188.5L769.6813 188.5Z" fill-rule="nonzero"/><path fill="#757575" d="M326.96875 39.1L326.96875 24.787498L332.34375 24.787498Q333.98438 24.787498 334.96875 25.224998Q335.95312 25.646873 336.51562 26.553123Q337.07812 27.459373 337.07812 28.443748Q337.07812 29.365623 336.57812 30.178123Q336.09375 30.990623 335.07812 31.474998Q336.375 31.865623 337.07812 32.7875Q337.78125 33.69375 337.78125 34.94375Q337.78125 35.959373 337.34375 36.81875Q336.92188 37.678123 336.29688 38.146873Q335.67188 38.615623 334.73438 38.865623Q333.79688 39.1 332.42188 39.1L326.96875 39.1ZM328.85938 30.803123L331.95312 30.803123Q333.21875 30.803123 333.76562 30.631248Q334.48438 30.412498 334.84375 29.928123Q335.21875 29.428123 335.21875 28.662498Q335.21875 27.959373 334.875 27.412498Q334.53125 26.865623 333.89062 26.678123Q333.26562 26.474998 331.71875 26.474998L328.85938 26.474998L328.85938 30.803123ZM328.85938 37.4125L332.42188 37.4125Q333.34375 37.4125 333.71875 37.334373Q334.375 37.225 334.8125 36.959373Q335.25 36.678123 335.53125 36.1625Q335.8125 35.63125 335.8125 34.94375Q335.8125 34.146873 335.40625 33.553123Q335.0 32.959373 334.26562 32.725Q333.53125 32.490623 332.17188 32.490623L328.85938 32.490623L328.85938 37.4125ZM339.79688 39.1L339.79688 28.724998L341.375 28.724998L341.375 30.303123Q341.98438 29.193748 342.5 28.849998Q343.01562 28.490623 343.625 28.490623Q344.51562 28.490623 345.4375 29.053123L344.82812 30.693748Q344.1875 30.303123 343.54688 30.303123Q342.96875 30.303123 342.5 30.662498Q342.04688 31.006248 341.84375 31.615623Q341.5625 32.553123 341.5625 33.6625L341.5625 39.1L339.79688 39.1ZM346.17188 33.9125Q346.17188 31.037498 347.76562 29.646873Q349.10938 28.490623 351.03125 28.490623Q353.17188 28.490623 354.51562 29.896873Q355.875 31.303123 355.875 33.771873Q355.875 35.771873 355.28125 36.928123Q354.6875 38.06875 353.53125 38.709373Q352.39062 39.334373 351.03125 39.334373Q348.84375 39.334373 347.5 37.94375Q346.17188 36.5375 346.17188 33.9125ZM347.96875 33.9125Q347.96875 35.9125 348.82812 36.896873Q349.70312 37.88125 351.03125 37.88125Q352.34375 37.88125 353.20312 36.896873Q354.07812 35.896873 354.07812 33.85Q354.07812 31.928123 353.20312 30.943748Q352.32812 29.943748 351.03125 29.943748Q349.70312 29.943748 348.82812 30.943748Q347.96875 31.928123 347.96875 33.9125ZM359.73438 39.1L356.5625 28.724998L358.375 28.724998L360.03125 34.709373L360.64062 36.94375Q360.6875 36.771873 361.17188 34.803123L362.82812 28.724998L364.64062 28.724998L366.1875 34.740623L366.70312 36.725L367.29688 34.725L369.07812 28.724998L370.78125 28.724998L367.54688 39.1L365.71875 39.1L364.0625 32.88125L363.67188 31.115623L361.5625 39.1L359.73438 39.1ZM372.10938 36.00625L373.85938 35.725Q374.0 36.771873 374.67188 37.334373Q375.34375 37.88125 376.54688 37.88125Q377.75 37.88125 378.32812 37.396873Q378.92188 36.896873 378.92188 36.240623Q378.92188 35.646873 378.40625 35.303123Q378.04688 35.06875 376.60938 34.709373Q374.67188 34.209373 373.92188 33.865623Q373.1875 33.50625 372.79688 32.88125Q372.40625 32.240623 372.40625 31.474998Q372.40625 30.787498 372.71875 30.193748Q373.04688 29.599998 373.59375 29.209373Q374.0 28.912498 374.70312 28.709373Q375.42188 28.490623 376.23438 28.490623Q377.45312 28.490623 378.375 28.849998Q379.29688 29.193748 379.73438 29.803123Q380.17188 30.396873 380.34375 31.396873L378.625 31.631248Q378.5 30.834373 377.9375 30.396873Q377.375 29.943748 376.35938 29.943748Q375.14062 29.943748 374.625 30.349998Q374.10938 30.740623 374.10938 31.271873Q374.10938 31.615623 374.32812 31.896873Q374.53125 32.178123 375.0 32.365623Q375.26562 32.459373 376.54688 32.803123Q378.42188 33.303123 379.15625 33.63125Q379.89062 33.94375 380.3125 34.553123Q380.73438 35.146873 380.73438 36.053123Q380.73438 36.928123 380.21875 37.709373Q379.70312 38.490623 378.73438 38.9125Q377.76562 39.334373 376.54688 39.334373Q374.53125 39.334373 373.46875 38.490623Q372.40625 37.646873 372.10938 36.00625ZM389.92188 35.75625L391.73438 35.990623Q391.3125 37.56875 390.14062 38.459373Q388.98438 39.334373 387.17188 39.334373Q384.90625 39.334373 383.5625 37.94375Q382.23438 36.5375 382.23438 34.00625Q382.23438 31.381248 383.57812 29.943748Q384.92188 28.490623 387.07812 28.490623Q389.15625 28.490623 390.46875 29.912498Q391.79688 31.318748 391.79688 33.896873Q391.79688 34.053123 391.78125 34.365623L384.04688 34.365623Q384.14062 36.06875 385.01562 36.975Q385.89062 37.88125 387.1875 37.88125Q388.15625 37.88125 388.82812 37.38125Q389.51562 36.865623 389.92188 35.75625ZM384.14062 32.9125L389.9375 32.9125Q389.82812 31.615623 389.28125 30.959373Q388.4375 29.943748 387.09375 29.943748Q385.89062 29.943748 385.0625 30.756248Q384.23438 31.553123 384.14062 32.9125ZM393.79688 39.1L393.79688 28.724998L395.375 28.724998L395.375 30.303123Q395.98438 29.193748 396.5 28.849998Q397.01562 28.490623 397.625 28.490623Q398.51562 28.490623 399.4375 29.053123L398.82812 30.693748Q398.1875 30.303123 397.54688 30.303123Q396.96875 30.303123 396.5 30.662498Q396.04688 31.006248 395.84375 31.615623Q395.5625 32.553123 395.5625 33.6625L395.5625 39.1L393.79688 39.1ZM406.78125 39.1L406.78125 24.787498L408.53125 24.787498L408.53125 39.1L406.78125 39.1ZM417.59375 37.81875Q416.60938 38.646873 415.70312 38.990623Q414.79688 39.334373 413.76562 39.334373Q412.0625 39.334373 411.14062 38.50625Q410.21875 37.6625 410.21875 36.365623Q410.21875 35.6 410.5625 34.975Q410.92188 34.35 411.48438 33.975Q412.04688 33.584373 412.75 33.38125Q413.26562 33.25625 414.3125 33.115623Q416.4375 32.865623 417.4375 32.521873Q417.45312 32.1625 417.45312 32.053123Q417.45312 30.990623 416.95312 30.537498Q416.28125 29.943748 414.95312 29.943748Q413.70312 29.943748 413.10938 30.381248Q412.53125 30.818748 412.25 31.928123L410.53125 31.693748Q410.76562 30.584373 411.29688 29.912498Q411.82812 29.224998 412.84375 28.865623Q413.85938 28.490623 415.20312 28.490623Q416.53125 28.490623 417.35938 28.803123Q418.1875 29.115623 418.57812 29.599998Q418.96875 30.068748 419.125 30.787498Q419.21875 31.240623 419.21875 32.4125L419.21875 34.75625Q419.21875 37.209373 419.32812 37.865623Q419.4375 38.50625 419.78125 39.1L417.9375 39.1Q417.67188 38.553123 417.59375 37.81875ZM417.4375 33.896873Q416.48438 34.2875 414.5625 34.553123Q413.48438 34.709373 413.03125 34.9125Q412.59375 35.1 412.34375 35.475Q412.09375 35.85 412.09375 36.31875Q412.09375 37.021873 412.625 37.490623Q413.15625 37.959373 414.1875 37.959373Q415.20312 37.959373 415.98438 37.521873Q416.78125 37.06875 417.15625 36.303123Q417.4375 35.69375 417.4375 34.5375L417.4375 33.896873ZM421.8125 39.1L421.8125 28.724998L423.40625 28.724998L423.40625 30.209373Q424.54688 28.490623 426.70312 28.490623Q427.64062 28.490623 428.42188 28.834373Q429.21875 29.162498 429.60938 29.709373Q430.0 30.256248 430.15625 31.006248Q430.25 31.506248 430.25 32.725L430.25 39.1L428.48438 39.1L428.48438 32.7875Q428.48438 31.709373 428.28125 31.178123Q428.07812 30.646873 427.54688 30.334373Q427.03125 30.021873 426.32812 30.021873Q425.20312 30.021873 424.39062 30.740623Q423.57812 31.443748 423.57812 33.428123L423.57812 39.1L421.8125 39.1ZM431.5 39.959373L433.20312 40.209373Q433.3125 41.00625 433.79688 41.365623Q434.45312 41.85 435.59375 41.85Q436.8125 41.85 437.46875 41.365623Q438.14062 40.88125 438.375 40.00625Q438.51562 39.459373 438.5 37.740623Q437.34375 39.1 435.625 39.1Q433.48438 39.1 432.3125 37.553123Q431.14062 36.00625 431.14062 33.85Q431.14062 32.365623 431.67188 31.115623Q432.21875 29.865623 433.23438 29.178123Q434.26562 28.490623 435.64062 28.490623Q437.46875 28.490623 438.67188 29.974998L438.67188 28.724998L440.28125 28.724998L440.28125 37.69375Q440.28125 40.115623 439.78125 41.115623Q439.29688 42.13125 438.21875 42.709373Q437.15625 43.303123 435.59375 43.303123Q433.75 43.303123 432.59375 42.475Q431.45312 41.646873 431.5 39.959373ZM432.95312 33.725Q432.95312 35.771873 433.76562 36.709373Q434.57812 37.646873 435.79688 37.646873Q437.0 37.646873 437.8125 36.709373Q438.64062 35.771873 438.64062 33.7875Q438.64062 31.881248 437.79688 30.912498Q436.95312 29.943748 435.76562 29.943748Q434.59375 29.943748 433.76562 30.896873Q432.95312 31.849998 432.95312 33.725ZM449.60938 39.1L449.60938 37.56875Q448.40625 39.334373 446.32812 39.334373Q445.40625 39.334373 444.60938 38.990623Q443.8125 38.63125 443.42188 38.1Q443.04688 37.56875 442.89062 36.7875Q442.78125 36.271873 442.78125 35.146873L442.78125 28.724998L444.53125 28.724998L444.53125 34.475Q444.53125 35.85 444.64062 36.334373Q444.8125 37.021873 445.34375 37.428123Q445.89062 37.81875 446.67188 37.81875Q447.46875 37.81875 448.15625 37.4125Q448.85938 37.00625 449.14062 36.31875Q449.4375 35.615623 449.4375 34.2875L449.4375 28.724998L451.1875 28.724998L451.1875 39.1L449.60938 39.1ZM459.59375 37.81875Q458.60938 38.646873 457.70312 38.990623Q456.79688 39.334373 455.76562 39.334373Q454.0625 39.334373 453.14062 38.50625Q452.21875 37.6625 452.21875 36.365623Q452.21875 35.6 452.5625 34.975Q452.92188 34.35 453.48438 33.975Q454.04688 33.584373 454.75 33.38125Q455.26562 33.25625 456.3125 33.115623Q458.4375 32.865623 459.4375 32.521873Q459.45312 32.1625 459.45312 32.053123Q459.45312 30.990623 458.95312 30.537498Q458.28125 29.943748 456.95312 29.943748Q455.70312 29.943748 455.10938 30.381248Q454.53125 30.818748 454.25 31.928123L452.53125 31.693748Q452.76562 30.584373 453.29688 29.912498Q453.82812 29.224998 454.84375 28.865623Q455.85938 28.490623 457.20312 28.490623Q458.53125 28.490623 459.35938 28.803123Q460.1875 29.115623 460.57812 29.599998Q460.96875 30.068748 461.125 30.787498Q461.21875 31.240623 461.21875 32.4125L461.21875 34.75625Q461.21875 37.209373 461.32812 37.865623Q461.4375 38.50625 461.78125 39.1L459.9375 39.1Q459.67188 38.553123 459.59375 37.81875ZM459.4375 33.896873Q458.48438 34.2875 456.5625 34.553123Q455.48438 34.709373 455.03125 34.9125Q454.59375 35.1 454.34375 35.475Q454.09375 35.85 454.09375 36.31875Q454.09375 37.021873 454.625 37.490623Q455.15625 37.959373 456.1875 37.959373Q457.20312 37.959373 457.98438 37.521873Q458.78125 37.06875 459.15625 36.303123Q459.4375 35.69375 459.4375 34.5375L459.4375 33.896873ZM463.5 39.959373L465.20312 40.209373Q465.3125 41.00625 465.79688 41.365623Q466.45312 41.85 467.59375 41.85Q468.8125 41.85 469.46875 41.365623Q470.14062 40.88125 470.375 40.00625Q470.51562 39.459373 470.5 37.740623Q469.34375 39.1 467.625 39.1Q465.48438 39.1 464.3125 37.553123Q463.14062 36.00625 463.14062 33.85Q463.14062 32.365623 463.67188 31.115623Q464.21875 29.865623 465.23438 29.178123Q466.26562 28.490623 467.64062 28.490623Q469.46875 28.490623 470.67188 29.974998L470.67188 28.724998L472.28125 28.724998L472.28125 37.69375Q472.28125 40.115623 471.78125 41.115623Q471.29688 42.13125 470.21875 42.709373Q469.15625 43.303123 467.59375 43.303123Q465.75 43.303123 464.59375 42.475Q463.45312 41.646873 463.5 39.959373ZM464.95312 33.725Q464.95312 35.771873 465.76562 36.709373Q466.57812 37.646873 467.79688 37.646873Q469.0 37.646873 469.8125 36.709373Q470.64062 35.771873 470.64062 33.7875Q470.64062 31.881248 469.79688 30.912498Q468.95312 29.943748 467.76562 29.943748Q466.59375 29.943748 465.76562 30.896873Q464.95312 31.849998 464.95312 33.725ZM481.92188 35.75625L483.73438 35.990623Q483.3125 37.56875 482.14062 38.459373Q480.98438 39.334373 479.17188 39.334373Q476.90625 39.334373 475.5625 37.94375Q474.23438 36.5375 474.23438 34.00625Q474.23438 31.381248 475.57812 29.943748Q476.92188 28.490623 479.07812 28.490623Q481.15625 28.490623 482.46875 29.912498Q483.79688 31.318748 483.79688 33.896873Q483.79688 34.053123 483.78125 34.365623L476.04688 34.365623Q476.14062 36.06875 477.01562 36.975Q477.89062 37.88125 479.1875 37.88125Q480.15625 37.88125 480.82812 37.38125Q481.51562 36.865623 481.92188 35.75625ZM476.14062 32.9125L481.9375 32.9125Q481.82812 31.615623 481.28125 30.959373Q480.4375 29.943748 479.09375 29.943748Q477.89062 29.943748 477.0625 30.756248Q476.23438 31.553123 476.14062 32.9125Z" fill-rule="nonzero"/></svg>