<svg version="1.1" viewBox="0.0 0.0 810.0 402.0" fill="none" stroke="none" stroke-linecap="square" stroke-miterlimit="10" width="810" height="402" xmlns:xlink="http://www.w3.org/1999/xlink" xmlns="http://www.w3.org/2000/svg"><path fill="#ffffff" d="M0 0L810.0 0L810.0 402.0L0 402.0L0 0Z" fill-rule="nonzero"/><path fill="#f0abfc" d="M291.68668 57.5C339.82227 57.5 385.47128 78.87984 416.2883 115.857475L353.9875 167.77873C338.57898 149.28992 315.75446 138.6 291.68668 138.6Z" fill-rule="nonzero"/><path fill="#93c5fd" d="M416.2883 115.857475C446.00974 151.52051 459.0253 198.20956 452.0401 244.10535L371.86337 231.90266C375.356 208.95479 368.8482 185.61026 353.9875 167.77873Z" fill-rule="nonzero"/><path fill="#86efac" d="M452.0401 244.10535C446.58347 279.95773 429.2692 312.94727 402.863 337.80447L347.27484 278.75223C360.47794 266.32364 369.13507 249.82887 371.86337 231.90266Z" fill-rule="nonzero"/><path fill="#e879f9" d="M402.863 337.80447C382.5345 356.9405 357.6108 370.50546 330.50366 377.18677L311.09515 298.4434C324.64874 295.10272 337.11057 288.32025 347.27484 278.75223Z" fill-rule="nonzero"/><path fill="#a3a3a3" d="M249.57924 377.43146C168.47235 360.02087 113.57348 284.21854 122.32765 201.72722C131.08183 119.235886 200.66742 56.644154 283.62195 56.644154L283.62195 137.74416C242.14468 137.74416 207.3519 169.04002 202.97481 210.28569C198.59772 251.53136 226.04715 289.43253 266.6006 298.13782Z" fill-rule="nonzero"/><path fill="#d946ef" d="M330.50366 377.18677C306.6149 383.07483 281.69968 383.45117 257.64395 378.2873L274.6653 298.99365C286.69318 301.5756 299.1508 301.38742 311.09515 298.4434Z" fill-rule="nonzero"/><path fill="#000000" d="M330.74484 112.51408L328.82297 112.51408L328.82297 105.2797Q327.76047 106.26408 326.3386 106.73283L326.3386 104.98283Q327.0886 104.74845 327.9636 104.06095Q328.85422 103.37345 329.18234 102.45158L330.74484 102.45158L330.74484 112.51408ZM333.76047 109.85783L335.61984 109.62345Q335.69797 110.3422 336.0886 110.7172Q336.47922 111.0922 337.04172 111.0922Q337.63547 111.0922 338.04172 110.63908Q338.44797 110.18595 338.44797 109.42033Q338.44797 108.70158 338.05734 108.2797Q337.66672 107.85783 337.10422 107.85783Q336.72922 107.85783 336.22922 107.99845L336.43234 106.43595Q337.2136 106.45158 337.61984 106.0922Q338.04172 105.73283 338.04172 105.13908Q338.04172 104.63908 337.72922 104.3422Q337.43234 104.0297 336.93234 104.0297Q336.44797 104.0297 336.0886 104.37345Q335.74484 104.7172 335.66672 105.37345L333.9011 105.07658Q334.0886 104.1547 334.44797 103.62345Q334.82297 103.07658 335.49484 102.76408Q336.16672 102.45158 336.99484 102.45158Q338.4011 102.45158 339.26047 103.35783Q339.9636 104.0922 339.9636 105.01408Q339.9636 106.3422 338.5261 107.12345Q339.38547 107.31095 339.9011 107.95158Q340.41672 108.5922 340.41672 109.49845Q340.41672 110.82658 339.44797 111.76408Q338.47922 112.68595 337.05734 112.68595Q335.69797 112.68595 334.79172 111.9047Q333.9011 111.12345 333.76047 109.85783ZM342.22922 112.51408L342.22922 110.5922L344.1511 110.5922L344.1511 112.51408L342.22922 112.51408ZM345.86984 110.20158L347.72922 109.99845Q347.79172 110.56095 348.07297 110.8422Q348.36984 111.10783 348.8386 111.10783Q349.43234 111.10783 349.8386 110.56095Q350.26047 110.01408 350.38547 108.29533Q349.66672 109.12345 348.57297 109.12345Q347.38547 109.12345 346.5261 108.2172Q345.66672 107.31095 345.66672 105.8422Q345.66672 104.31095 346.57297 103.38908Q347.47922 102.45158 348.88547 102.45158Q350.41672 102.45158 351.38547 103.63908Q352.36984 104.81095 352.36984 107.51408Q352.36984 110.26408 351.3386 111.48283Q350.32297 112.68595 348.69797 112.68595Q347.5261 112.68595 346.79172 112.06095Q346.07297 111.43595 345.86984 110.20158ZM350.2136 105.99845Q350.2136 105.07658 349.7761 104.56095Q349.35422 104.04533 348.79172 104.04533Q348.26047 104.04533 347.9011 104.4672Q347.55734 104.88908 347.55734 105.8422Q347.55734 106.81095 347.93234 107.26408Q348.32297 107.7172 348.9011 107.7172Q349.44797 107.7172 349.82297 107.2797Q350.2136 106.8422 350.2136 105.99845ZM353.8386 104.9672Q353.8386 103.62345 354.43234 102.98283Q355.0261 102.32658 356.0261 102.32658Q357.07297 102.32658 357.66672 102.9672Q358.26047 103.60783 358.26047 104.9672Q358.26047 106.31095 357.66672 106.9672Q357.07297 107.60783 356.07297 107.60783Q355.0261 107.60783 354.43234 106.9672Q353.8386 106.32658 353.8386 104.9672ZM355.3386 104.95158Q355.3386 105.93595 355.55734 106.26408Q355.72922 106.51408 356.0261 106.51408Q356.3386 106.51408 356.51047 106.26408Q356.72922 105.93595 356.72922 104.95158Q356.72922 103.98283 356.51047 103.6547Q356.3386 103.38908 356.0261 103.38908Q355.72922 103.38908 355.55734 103.63908Q355.3386 103.98283 355.3386 104.95158ZM357.49484 112.9047L356.07297 112.9047L361.41672 102.32658L362.79172 102.32658L357.49484 112.9047ZM360.60422 110.26408Q360.60422 108.92033 361.18234 108.2797Q361.7761 107.62345 362.80734 107.62345Q363.8386 107.62345 364.43234 108.2797Q365.0261 108.92033 365.0261 110.26408Q365.0261 111.62345 364.43234 112.2797Q363.8386 112.92033 362.82297 112.92033Q361.7761 112.92033 361.18234 112.2797Q360.60422 111.62345 360.60422 110.26408ZM362.0886 110.26408Q362.0886 111.23283 362.32297 111.56095Q362.49484 111.81095 362.79172 111.81095Q363.10422 111.81095 363.26047 111.57658Q363.49484 111.23283 363.49484 110.26408Q363.49484 109.2797 363.2761 108.95158Q363.10422 108.70158 362.79172 108.70158Q362.47922 108.70158 362.32297 108.95158Q362.0886 109.2797 362.0886 110.26408Z" fill-rule="nonzero"/><path fill="#000000" d="M395.3842 192.0331L393.4623 192.0331L393.4623 184.79872Q392.3998 185.7831 390.97794 186.25185L390.97794 184.50185Q391.72794 184.26747 392.60294 183.57997Q393.49356 182.89247 393.8217 181.9706L395.3842 181.9706L395.3842 192.0331ZM398.3998 189.37685L400.2592 189.14247Q400.3373 189.86122 400.72794 190.23622Q401.11856 190.61122 401.68106 190.61122Q402.2748 190.61122 402.68106 190.1581Q403.0873 189.70497 403.0873 188.93935Q403.0873 188.2206 402.6967 187.79872Q402.30606 187.37685 401.74356 187.37685Q401.36856 187.37685 400.86856 187.51747L401.0717 185.95497Q401.85294 185.9706 402.2592 185.61122Q402.68106 185.25185 402.68106 184.6581Q402.68106 184.1581 402.36856 183.86122Q402.0717 183.54872 401.5717 183.54872Q401.0873 183.54872 400.72794 183.89247Q400.3842 184.23622 400.30606 184.89247L398.54044 184.5956Q398.72794 183.67372 399.0873 183.14247Q399.4623 182.5956 400.1342 182.2831Q400.80606 181.9706 401.6342 181.9706Q403.04044 181.9706 403.8998 182.87685Q404.60294 183.61122 404.60294 184.5331Q404.60294 185.86122 403.16544 186.64247Q404.0248 186.82997 404.54044 187.4706Q405.05606 188.11122 405.05606 189.01747Q405.05606 190.3456 404.0873 191.2831Q403.11856 192.20497 401.6967 192.20497Q400.3373 192.20497 399.43106 191.42372Q398.54044 190.64247 398.3998 189.37685ZM406.86856 192.0331L406.86856 190.11122L408.79044 190.11122L408.79044 192.0331L406.86856 192.0331ZM410.49356 189.45497L412.3998 189.25185Q412.49356 189.9081 412.8842 190.2831Q413.29044 190.6581 413.8217 190.6581Q414.41544 190.6581 414.8373 190.17372Q415.2592 189.68935 415.2592 188.70497Q415.2592 187.7831 414.8373 187.32997Q414.43106 186.86122 413.7592 186.86122Q412.93106 186.86122 412.2748 187.5956L410.72794 187.36122L411.7123 182.14247L416.79044 182.14247L416.79044 183.93935L413.16544 183.93935L412.86856 185.64247Q413.5092 185.32997 414.18106 185.32997Q415.4467 185.32997 416.3373 186.26747Q417.22794 187.18935 417.22794 188.67372Q417.22794 189.9081 416.5092 190.87685Q415.54044 192.20497 413.80606 192.20497Q412.41544 192.20497 411.54044 191.4706Q410.66544 190.7206 410.49356 189.45497ZM418.47794 184.48622Q418.47794 183.14247 419.0717 182.50185Q419.66544 181.8456 420.66544 181.8456Q421.7123 181.8456 422.30606 182.48622Q422.8998 183.12685 422.8998 184.48622Q422.8998 185.82997 422.30606 186.48622Q421.7123 187.12685 420.7123 187.12685Q419.66544 187.12685 419.0717 186.48622Q418.47794 185.8456 418.47794 184.48622ZM419.97794 184.4706Q419.97794 185.45497 420.1967 185.7831Q420.36856 186.0331 420.66544 186.0331Q420.97794 186.0331 421.1498 185.7831Q421.36856 185.45497 421.36856 184.4706Q421.36856 183.50185 421.1498 183.17372Q420.97794 182.9081 420.66544 182.9081Q420.36856 182.9081 420.1967 183.1581Q419.97794 183.50185 419.97794 184.4706ZM422.1342 192.42372L420.7123 192.42372L426.05606 181.8456L427.43106 181.8456L422.1342 192.42372ZM425.24356 189.7831Q425.24356 188.43935 425.8217 187.79872Q426.41544 187.14247 427.4467 187.14247Q428.47794 187.14247 429.0717 187.79872Q429.66544 188.43935 429.66544 189.7831Q429.66544 191.14247 429.0717 191.79872Q428.47794 192.43935 427.4623 192.43935Q426.41544 192.43935 425.8217 191.79872Q425.24356 191.14247 425.24356 189.7831ZM426.72794 189.7831Q426.72794 190.75185 426.9623 191.07997Q427.1342 191.32997 427.43106 191.32997Q427.74356 191.32997 427.8998 191.0956Q428.1342 190.75185 428.1342 189.7831Q428.1342 188.79872 427.91544 188.4706Q427.74356 188.2206 427.43106 188.2206Q427.11856 188.2206 426.9623 188.4706Q426.72794 188.79872 426.72794 189.7831Z" fill-rule="nonzero"/><path fill="#000000" d="M385.91803 281.23358L383.99615 281.23358L383.99615 273.9992Q382.93365 274.98358 381.51178 275.45233L381.51178 273.70233Q382.26178 273.46796 383.13678 272.78046Q384.0274 272.09296 384.35553 271.17108L385.91803 271.17108L385.91803 281.23358ZM392.24615 271.17108Q393.69928 271.17108 394.5274 272.20233Q395.49615 273.4367 395.49615 276.29608Q395.49615 279.13983 394.51178 280.3742Q393.69928 281.40546 392.24615 281.40546Q390.7774 281.40546 389.88678 280.28046Q388.99615 279.15546 388.99615 276.26483Q388.99615 273.4367 389.98053 272.20233Q390.79303 271.17108 392.24615 271.17108ZM392.24615 272.76483Q391.9024 272.76483 391.62115 272.98358Q391.35553 273.20233 391.19928 273.78046Q390.99615 274.53046 390.99615 276.29608Q390.99615 278.0617 391.16803 278.71796Q391.35553 279.3742 391.62115 279.59296Q391.9024 279.8117 392.24615 279.8117Q392.5899 279.8117 392.85553 279.59296Q393.13678 279.3742 393.29303 278.79608Q393.49615 278.0617 393.49615 276.29608Q393.49615 274.53046 393.30865 273.8742Q393.13678 273.20233 392.85553 272.98358Q392.5899 272.76483 392.24615 272.76483ZM397.4024 281.23358L397.4024 279.3117L399.32428 279.3117L399.32428 281.23358L397.4024 281.23358ZM407.51178 273.67108L405.6524 273.8742Q405.57428 273.29608 405.2774 273.03046Q404.99615 272.7492 404.54303 272.7492Q403.93365 272.7492 403.51178 273.29608Q403.0899 273.84296 402.98053 275.57733Q403.69928 274.71796 404.7774 274.71796Q405.98053 274.71796 406.82428 275.63983Q407.68365 276.5617 407.68365 277.9992Q407.68365 279.54608 406.7774 280.48358Q405.88678 281.40546 404.4649 281.40546Q402.94928 281.40546 401.9649 280.23358Q400.99615 279.04608 400.99615 276.35858Q400.99615 273.60858 402.01178 272.38983Q403.0274 271.17108 404.66803 271.17108Q405.80865 271.17108 406.54303 271.8117Q407.29303 272.45233 407.51178 273.67108ZM403.1524 277.85858Q403.1524 278.79608 403.57428 279.3117Q404.01178 279.8117 404.55865 279.8117Q405.10553 279.8117 405.44928 279.40546Q405.80865 278.98358 405.80865 278.03046Q405.80865 277.04608 405.41803 276.59296Q405.04303 276.13983 404.4649 276.13983Q403.91803 276.13983 403.5274 276.57733Q403.1524 277.01483 403.1524 277.85858ZM409.01178 273.6867Q409.01178 272.34296 409.60553 271.70233Q410.19928 271.04608 411.19928 271.04608Q412.24615 271.04608 412.8399 271.6867Q413.43365 272.32733 413.43365 273.6867Q413.43365 275.03046 412.8399 275.6867Q412.24615 276.32733 411.24615 276.32733Q410.19928 276.32733 409.60553 275.6867Q409.01178 275.04608 409.01178 273.6867ZM410.51178 273.67108Q410.51178 274.65546 410.73053 274.98358Q410.9024 275.23358 411.19928 275.23358Q411.51178 275.23358 411.68365 274.98358Q411.9024 274.65546 411.9024 273.67108Q411.9024 272.70233 411.68365 272.3742Q411.51178 272.10858 411.19928 272.10858Q410.9024 272.10858 410.73053 272.35858Q410.51178 272.70233 410.51178 273.67108ZM412.66803 281.6242L411.24615 281.6242L416.5899 271.04608L417.9649 271.04608L412.66803 281.6242ZM415.7774 278.98358Q415.7774 277.63983 416.35553 276.9992Q416.94928 276.34296 417.98053 276.34296Q419.01178 276.34296 419.60553 276.9992Q420.19928 277.63983 420.19928 278.98358Q420.19928 280.34296 419.60553 280.9992Q419.01178 281.63983 417.99615 281.63983Q416.94928 281.63983 416.35553 280.9992Q415.7774 280.34296 415.7774 278.98358ZM417.26178 278.98358Q417.26178 279.95233 417.49615 280.28046Q417.66803 280.53046 417.9649 280.53046Q418.2774 280.53046 418.43365 280.29608Q418.66803 279.95233 418.66803 278.98358Q418.66803 277.9992 418.44928 277.67108Q418.2774 277.42108 417.9649 277.42108Q417.6524 277.42108 417.49615 277.67108Q417.26178 277.9992 417.26178 278.98358Z" fill-rule="nonzero"/><path fill="#000000" d="M338.80038 329.28476Q338.05038 328.97226 337.70663 328.42538Q337.3785 327.86288 337.3785 327.20663Q337.3785 326.09726 338.15976 325.36288Q338.941 324.6285 340.3785 324.6285Q341.80038 324.6285 342.59726 325.36288Q343.39413 326.09726 343.39413 327.20663Q343.39413 327.90976 343.01913 328.45663Q342.65976 329.0035 342.0035 329.28476Q342.84726 329.61288 343.26913 330.26913Q343.70663 330.90976 343.70663 331.73788Q343.70663 333.1285 342.816 334.0035Q341.941 334.86288 340.47226 334.86288Q339.09726 334.86288 338.191 334.14413Q337.11288 333.30038 337.11288 331.83163Q337.11288 331.01913 337.51913 330.34726Q337.92538 329.65976 338.80038 329.28476ZM339.191 327.34726Q339.191 327.92538 339.5035 328.2535Q339.83163 328.566 340.3785 328.566Q340.92538 328.566 341.2535 328.23788Q341.58163 327.90976 341.58163 327.34726Q341.58163 326.80038 341.2535 326.48788Q340.92538 326.15976 340.39413 326.15976Q339.84726 326.15976 339.51913 326.48788Q339.191 326.816 339.191 327.34726ZM339.01913 331.64413Q339.01913 332.441 339.42538 332.8785Q339.83163 333.316 340.441 333.316Q341.03476 333.316 341.40976 332.89413Q341.80038 332.47226 341.80038 331.65976Q341.80038 330.95663 341.40976 330.53476Q341.01913 330.09726 340.40976 330.09726Q339.70663 330.09726 339.36288 330.59726Q339.01913 331.08163 339.01913 331.64413ZM345.55038 334.691L345.55038 332.76913L347.47226 332.76913L347.47226 334.691L345.55038 334.691ZM355.6285 332.90976L355.6285 334.691L348.89413 334.691Q349.0035 333.67538 349.55038 332.76913Q350.09726 331.86288 351.72226 330.36288Q353.01913 329.15976 353.316 328.72226Q353.70663 328.1285 353.70663 327.55038Q353.70663 326.90976 353.36288 326.566Q353.01913 326.22226 352.40976 326.22226Q351.80038 326.22226 351.441 326.58163Q351.09726 326.941 351.03476 327.78476L349.1285 327.59726Q349.30038 326.0035 350.191 325.316Q351.09726 324.6285 352.45663 324.6285Q353.941 324.6285 354.78476 325.42538Q355.6285 326.22226 355.6285 327.40976Q355.6285 328.09726 355.3785 328.70663Q355.14413 329.316 354.6285 329.98788Q354.26913 330.42538 353.36288 331.26913Q352.45663 332.09726 352.20663 332.3785Q351.97226 332.64413 351.816 332.90976L355.6285 332.90976ZM357.15976 327.14413Q357.15976 325.80038 357.7535 325.15976Q358.34726 324.5035 359.34726 324.5035Q360.39413 324.5035 360.98788 325.14413Q361.58163 325.78476 361.58163 327.14413Q361.58163 328.48788 360.98788 329.14413Q360.39413 329.78476 359.39413 329.78476Q358.34726 329.78476 357.7535 329.14413Q357.15976 328.5035 357.15976 327.14413ZM358.65976 327.1285Q358.65976 328.11288 358.8785 328.441Q359.05038 328.691 359.34726 328.691Q359.65976 328.691 359.83163 328.441Q360.05038 328.11288 360.05038 327.1285Q360.05038 326.15976 359.83163 325.83163Q359.65976 325.566 359.34726 325.566Q359.05038 325.566 358.8785 325.816Q358.65976 326.15976 358.65976 327.1285ZM360.816 335.08163L359.39413 335.08163L364.73788 324.5035L366.11288 324.5035L360.816 335.08163ZM363.92538 332.441Q363.92538 331.09726 364.5035 330.45663Q365.09726 329.80038 366.1285 329.80038Q367.15976 329.80038 367.7535 330.45663Q368.34726 331.09726 368.34726 332.441Q368.34726 333.80038 367.7535 334.45663Q367.15976 335.09726 366.14413 335.09726Q365.09726 335.09726 364.5035 334.45663Q363.92538 333.80038 363.92538 332.441ZM365.40976 332.441Q365.40976 333.40976 365.64413 333.73788Q365.816 333.98788 366.11288 333.98788Q366.42538 333.98788 366.58163 333.7535Q366.816 333.40976 366.816 332.441Q366.816 331.45663 366.59726 331.1285Q366.42538 330.8785 366.11288 330.8785Q365.80038 330.8785 365.64413 331.1285Q365.40976 331.45663 365.40976 332.441Z" fill-rule="nonzero"/><path fill="#000000" d="M279.31256 351.1412L279.31256 349.34433L285.8907 349.34433L285.8907 350.75058Q285.06256 351.54745 284.2188 353.04745Q283.3907 354.53183 282.93756 356.21933Q282.50006 357.90683 282.5157 359.23495L280.6563 359.23495Q280.7032 357.15683 281.5157 355.00058Q282.3282 352.8287 283.68756 351.1412L279.31256 351.1412ZM287.7188 359.23495L287.7188 357.31308L289.6407 357.31308L289.6407 359.23495L287.7188 359.23495ZM297.79694 357.4537L297.79694 359.23495L291.06256 359.23495Q291.17194 358.21933 291.7188 357.31308Q292.2657 356.40683 293.8907 354.90683Q295.18756 353.7037 295.48444 353.2662Q295.87506 352.67245 295.87506 352.09433Q295.87506 351.4537 295.5313 351.10995Q295.18756 350.7662 294.5782 350.7662Q293.9688 350.7662 293.60944 351.12558Q293.2657 351.48495 293.2032 352.3287L291.29694 352.1412Q291.4688 350.54745 292.35944 349.85995Q293.2657 349.17245 294.62506 349.17245Q296.10944 349.17245 296.9532 349.96933Q297.79694 350.7662 297.79694 351.9537Q297.79694 352.6412 297.54694 353.25058Q297.31256 353.85995 296.79694 354.53183Q296.43756 354.96933 295.5313 355.81308Q294.62506 356.6412 294.37506 356.92245Q294.1407 357.18808 293.98444 357.4537L297.79694 357.4537ZM299.3282 351.68808Q299.3282 350.34433 299.92194 349.7037Q300.5157 349.04745 301.5157 349.04745Q302.56256 349.04745 303.1563 349.68808Q303.75006 350.3287 303.75006 351.68808Q303.75006 353.03183 303.1563 353.68808Q302.56256 354.3287 301.56256 354.3287Q300.5157 354.3287 299.92194 353.68808Q299.3282 353.04745 299.3282 351.68808ZM300.8282 351.67245Q300.8282 352.65683 301.04694 352.98495Q301.2188 353.23495 301.5157 353.23495Q301.8282 353.23495 302.00006 352.98495Q302.2188 352.65683 302.2188 351.67245Q302.2188 350.7037 302.00006 350.37558Q301.8282 350.10995 301.5157 350.10995Q301.2188 350.10995 301.04694 350.35995Q300.8282 350.7037 300.8282 351.67245ZM302.98444 359.62558L301.56256 359.62558L306.9063 349.04745L308.2813 349.04745L302.98444 359.62558ZM306.0938 356.98495Q306.0938 355.6412 306.67194 355.00058Q307.2657 354.34433 308.29694 354.34433Q309.3282 354.34433 309.92194 355.00058Q310.5157 355.6412 310.5157 356.98495Q310.5157 358.34433 309.92194 359.00058Q309.3282 359.6412 308.31256 359.6412Q307.2657 359.6412 306.67194 359.00058Q306.0938 358.34433 306.0938 356.98495ZM307.5782 356.98495Q307.5782 357.9537 307.81256 358.28183Q307.98444 358.53183 308.2813 358.53183Q308.5938 358.53183 308.75006 358.29745Q308.98444 357.9537 308.98444 356.98495Q308.98444 356.00058 308.7657 355.67245Q308.5938 355.42245 308.2813 355.42245Q307.9688 355.42245 307.81256 355.67245Q307.5782 356.00058 307.5782 356.98495Z" fill-rule="nonzero"/><path fill="#000000" d="M146.3332 210.82845L146.3332 208.81282L142.23946 208.81282L142.23946 207.12532L146.5832 200.76595L148.19258 200.76595L148.19258 207.12532L149.44258 207.12532L149.44258 208.81282L148.19258 208.81282L148.19258 210.82845L146.3332 210.82845ZM146.3332 207.12532L146.3332 203.70345L144.03633 207.12532L146.3332 207.12532ZM157.0832 203.26595L155.22383 203.46907Q155.1457 202.89095 154.84883 202.62532Q154.56758 202.34407 154.11446 202.34407Q153.50508 202.34407 153.0832 202.89095Q152.66133 203.43782 152.55196 205.1722Q153.2707 204.31282 154.34883 204.31282Q155.55196 204.31282 156.3957 205.2347Q157.25508 206.15657 157.25508 207.59407Q157.25508 209.14095 156.34883 210.07845Q155.4582 211.00032 154.03633 211.00032Q152.5207 211.00032 151.53633 209.82845Q150.56758 208.64095 150.56758 205.95345Q150.56758 203.20345 151.5832 201.9847Q152.59883 200.76595 154.23946 200.76595Q155.38008 200.76595 156.11446 201.40657Q156.86446 202.0472 157.0832 203.26595ZM152.72383 207.45345Q152.72383 208.39095 153.1457 208.90657Q153.5832 209.40657 154.13008 209.40657Q154.67696 209.40657 155.0207 209.00032Q155.38008 208.57845 155.38008 207.62532Q155.38008 206.64095 154.98946 206.18782Q154.61446 205.7347 154.03633 205.7347Q153.48946 205.7347 153.09883 206.1722Q152.72383 206.6097 152.72383 207.45345ZM158.97383 210.82845L158.97383 208.90657L160.8957 208.90657L160.8957 210.82845L158.97383 210.82845ZM169.0832 203.26595L167.22383 203.46907Q167.1457 202.89095 166.84883 202.62532Q166.56758 202.34407 166.11446 202.34407Q165.50508 202.34407 165.0832 202.89095Q164.66133 203.43782 164.55196 205.1722Q165.2707 204.31282 166.34883 204.31282Q167.55196 204.31282 168.3957 205.2347Q169.25508 206.15657 169.25508 207.59407Q169.25508 209.14095 168.34883 210.07845Q167.4582 211.00032 166.03633 211.00032Q164.5207 211.00032 163.53633 209.82845Q162.56758 208.64095 162.56758 205.95345Q162.56758 203.20345 163.5832 201.9847Q164.59883 200.76595 166.23946 200.76595Q167.38008 200.76595 168.11446 201.40657Q168.86446 202.0472 169.0832 203.26595ZM164.72383 207.45345Q164.72383 208.39095 165.1457 208.90657Q165.5832 209.40657 166.13008 209.40657Q166.67696 209.40657 167.0207 209.00032Q167.38008 208.57845 167.38008 207.62532Q167.38008 206.64095 166.98946 206.18782Q166.61446 205.7347 166.03633 205.7347Q165.48946 205.7347 165.09883 206.1722Q164.72383 206.6097 164.72383 207.45345ZM170.5832 203.28157Q170.5832 201.93782 171.17696 201.2972Q171.7707 200.64095 172.7707 200.64095Q173.81758 200.64095 174.41133 201.28157Q175.00508 201.9222 175.00508 203.28157Q175.00508 204.62532 174.41133 205.28157Q173.81758 205.9222 172.81758 205.9222Q171.7707 205.9222 171.17696 205.28157Q170.5832 204.64095 170.5832 203.28157ZM172.0832 203.26595Q172.0832 204.25032 172.30196 204.57845Q172.47383 204.82845 172.7707 204.82845Q173.0832 204.82845 173.25508 204.57845Q173.47383 204.25032 173.47383 203.26595Q173.47383 202.2972 173.25508 201.96907Q173.0832 201.70345 172.7707 201.70345Q172.47383 201.70345 172.30196 201.95345Q172.0832 202.2972 172.0832 203.26595ZM174.23946 211.21907L172.81758 211.21907L178.16133 200.64095L179.53633 200.64095L174.23946 211.21907ZM177.34883 208.57845Q177.34883 207.2347 177.92696 206.59407Q178.5207 205.93782 179.55196 205.93782Q180.5832 205.93782 181.17696 206.59407Q181.7707 207.2347 181.7707 208.57845Q181.7707 209.93782 181.17696 210.59407Q180.5832 211.2347 179.56758 211.2347Q178.5207 211.2347 177.92696 210.59407Q177.34883 209.93782 177.34883 208.57845ZM178.8332 208.57845Q178.8332 209.5472 179.06758 209.87532Q179.23946 210.12532 179.53633 210.12532Q179.84883 210.12532 180.00508 209.89095Q180.23946 209.5472 180.23946 208.57845Q180.23946 207.59407 180.0207 207.26595Q179.84883 207.01595 179.53633 207.01595Q179.22383 207.01595 179.06758 207.26595Q178.8332 207.59407 178.8332 208.57845Z" fill-rule="nonzero"/><path fill="#f0abfc" d="M596.9 64.5C596.9 67.813705 594.2137 70.5 590.9 70.5C587.5863 70.5 584.9 67.813705 584.9 64.5C584.9 61.18629 587.5863 58.5 590.9 58.5C594.2137 58.5 596.9 61.18629 596.9 64.5Z" fill-rule="nonzero"/><path fill="#1a1a1a" d="M605.8375 68.5L605.8375 59.90625L609.65 59.90625Q610.8063 59.90625 611.4 60.140625Q611.9938 60.375 612.35315 60.96875Q612.7125 61.546875 612.7125 62.25Q612.7125 63.171875 612.1188 63.796875Q611.525 64.421875 610.29065 64.59375Q610.7438 64.8125 610.97815 65.015625Q611.47815 65.46875 611.91565 66.15625L613.41565 68.5L611.97815 68.5L610.85315 66.71875Q610.35315 65.9375 610.025 65.53125Q609.7125 65.125 609.4469 64.96875Q609.1969 64.796875 608.9313 64.71875Q608.7438 64.6875 608.3063 64.6875L606.97815 64.6875L606.97815 68.5L605.8375 68.5ZM606.97815 63.703125L609.4313 63.703125Q610.1969 63.703125 610.6344 63.546875Q611.0875 63.375 611.3063 63.03125Q611.54065 62.671875 611.54065 62.25Q611.54065 61.640625 611.0875 61.25Q610.65 60.859375 609.6969 60.859375L606.97815 60.859375L606.97815 63.703125ZM618.7594 67.734375Q618.16565 68.234375 617.6188 68.4375Q617.0875 68.640625 616.4625 68.640625Q615.4313 68.640625 614.8844 68.140625Q614.3375 67.640625 614.3375 66.859375Q614.3375 66.40625 614.54065 66.03125Q614.7438 65.640625 615.0875 65.421875Q615.4313 65.1875 615.85315 65.078125Q616.15 64.984375 616.79065 64.90625Q618.0563 64.765625 618.66565 64.546875Q618.66565 64.328125 618.66565 64.28125Q618.66565 63.625 618.3688 63.359375Q617.9625 63.015625 617.16565 63.015625Q616.4313 63.015625 616.0719 63.28125Q615.7125 63.53125 615.54065 64.1875L614.5094 64.046875Q614.65 63.390625 614.97815 62.984375Q615.3063 62.578125 615.91565 62.359375Q616.525 62.140625 617.3219 62.140625Q618.1188 62.140625 618.6188 62.328125Q619.1188 62.515625 619.35315 62.796875Q619.5875 63.078125 619.6813 63.515625Q619.72815 63.78125 619.72815 64.484375L619.72815 65.890625Q619.72815 67.359375 619.79065 67.75Q619.8688 68.140625 620.0719 68.5L618.9625 68.5Q618.8063 68.171875 618.7594 67.734375ZM618.66565 65.375Q618.0875 65.609375 616.9469 65.78125Q616.29065 65.875 616.025 66.0Q615.7594 66.109375 615.60315 66.328125Q615.4625 66.546875 615.4625 66.828125Q615.4625 67.25 615.775 67.53125Q616.10315 67.8125 616.7125 67.8125Q617.3219 67.8125 617.79065 67.546875Q618.275 67.28125 618.4938 66.8125Q618.66565 66.453125 618.66565 65.765625L618.66565 65.375ZM621.6969 61.125L621.6969 59.90625L622.7594 59.90625L622.7594 61.125L621.6969 61.125ZM621.6969 68.5L621.6969 62.28125L622.7594 62.28125L622.7594 68.5L621.6969 68.5ZM624.6969 68.5L624.6969 62.28125L625.6344 62.28125L625.6344 63.15625Q626.3219 62.140625 627.6188 62.140625Q628.1813 62.140625 628.65 62.34375Q629.1344 62.546875 629.3688 62.875Q629.60315 63.203125 629.6969 63.640625Q629.7438 63.9375 629.7438 64.671875L629.7438 68.5L628.6969 68.5L628.6969 64.71875Q628.6969 64.0625 628.5719 63.75Q628.4469 63.4375 628.1344 63.25Q627.8219 63.046875 627.4 63.046875Q626.72815 63.046875 626.22815 63.484375Q625.7438 63.90625 625.7438 65.09375L625.7438 68.5L624.6969 68.5ZM632.66565 68.5L631.6813 68.5L631.6813 59.90625L632.7438 59.90625L632.7438 62.96875Q633.41565 62.140625 634.4469 62.140625Q635.025 62.140625 635.525 62.375Q636.04065 62.59375 636.3688 63.015625Q636.7125 63.4375 636.9 64.03125Q637.0875 64.625 637.0875 65.296875Q637.0875 66.890625 636.29065 67.765625Q635.4938 68.640625 634.4 68.640625Q633.29065 68.640625 632.66565 67.71875L632.66565 68.5ZM632.65 65.34375Q632.65 66.453125 632.9625 66.953125Q633.4625 67.765625 634.3063 67.765625Q634.9938 67.765625 635.4938 67.171875Q636.0094 66.578125 636.0094 65.375Q636.0094 64.15625 635.525 63.578125Q635.04065 63.0 634.35315 63.0Q633.66565 63.0 633.15 63.609375Q632.65 64.203125 632.65 65.34375ZM638.3063 65.390625Q638.3063 63.65625 639.2594 62.828125Q640.0563 62.140625 641.2125 62.140625Q642.4938 62.140625 643.3063 62.984375Q644.1344 63.8125 644.1344 65.296875Q644.1344 66.5 643.775 67.1875Q643.41565 67.875 642.7125 68.265625Q642.025 68.640625 641.2125 68.640625Q639.91565 68.640625 639.10315 67.8125Q638.3063 66.96875 638.3063 65.390625ZM639.3844 65.390625Q639.3844 66.578125 639.9 67.171875Q640.4313 67.765625 641.2125 67.765625Q642.0094 67.765625 642.525 67.171875Q643.04065 66.578125 643.04065 65.359375Q643.04065 64.203125 642.5094 63.609375Q641.9938 63.015625 641.2125 63.015625Q640.4313 63.015625 639.9 63.609375Q639.3844 64.1875 639.3844 65.390625ZM646.8375 68.5L644.9313 62.28125L646.025 62.28125L647.0094 65.875L647.3844 67.203125Q647.41565 67.109375 647.7125 65.921875L648.6969 62.28125L649.775 62.28125L650.7125 65.890625L651.025 67.078125L651.3844 65.875L652.4469 62.28125L653.47815 62.28125L651.525 68.5L650.4313 68.5L649.4469 64.765625L649.1969 63.71875L647.9469 68.5L646.8375 68.5ZM657.8219 68.5L657.8219 59.90625L661.0719 59.90625Q661.91565 59.90625 662.3688 59.984375Q663.0094 60.09375 663.4313 60.390625Q663.8688 60.6875 664.1188 61.21875Q664.3844 61.75 664.3844 62.390625Q664.3844 63.484375 663.6813 64.25Q662.9938 65.0 661.16565 65.0L658.9625 65.0L658.9625 68.5L657.8219 68.5ZM658.9625 64.0L661.1813 64.0Q662.29065 64.0 662.7438 63.59375Q663.2125 63.171875 663.2125 62.421875Q663.2125 61.890625 662.9313 61.515625Q662.66565 61.125 662.22815 61.0Q661.9313 60.921875 661.16565 60.921875L658.9625 60.921875L658.9625 64.0ZM669.7594 67.734375Q669.16565 68.234375 668.6188 68.4375Q668.0875 68.640625 667.4625 68.640625Q666.4313 68.640625 665.8844 68.140625Q665.3375 67.640625 665.3375 66.859375Q665.3375 66.40625 665.54065 66.03125Q665.7438 65.640625 666.0875 65.421875Q666.4313 65.1875 666.85315 65.078125Q667.15 64.984375 667.79065 64.90625Q669.0563 64.765625 669.66565 64.546875Q669.66565 64.328125 669.66565 64.28125Q669.66565 63.625 669.3688 63.359375Q668.9625 63.015625 668.16565 63.015625Q667.4313 63.015625 667.0719 63.28125Q666.7125 63.53125 666.54065 64.1875L665.5094 64.046875Q665.65 63.390625 665.97815 62.984375Q666.3063 62.578125 666.91565 62.359375Q667.525 62.140625 668.3219 62.140625Q669.1188 62.140625 669.6188 62.328125Q670.1188 62.515625 670.35315 62.796875Q670.5875 63.078125 670.6813 63.515625Q670.72815 63.78125 670.72815 64.484375L670.72815 65.890625Q670.72815 67.359375 670.79065 67.75Q670.8688 68.140625 671.0719 68.5L669.9625 68.5Q669.8063 68.171875 669.7594 67.734375ZM669.66565 65.375Q669.0875 65.609375 667.9469 65.78125Q667.29065 65.875 667.025 66.0Q666.7594 66.109375 666.60315 66.328125Q666.4625 66.546875 666.4625 66.828125Q666.4625 67.25 666.775 67.53125Q667.10315 67.8125 667.7125 67.8125Q668.3219 67.8125 668.79065 67.546875Q669.275 67.28125 669.4938 66.8125Q669.66565 66.453125 669.66565 65.765625L669.66565 65.375ZM672.66565 68.5L672.66565 59.90625L673.72815 59.90625L673.72815 68.5L672.66565 68.5ZM679.9469 66.5L681.04065 66.625Q680.79065 67.578125 680.0875 68.109375Q679.3844 68.640625 678.3063 68.640625Q676.9469 68.640625 676.1344 67.796875Q675.3375 66.953125 675.3375 65.4375Q675.3375 63.875 676.15 63.015625Q676.9625 62.140625 678.2438 62.140625Q679.4938 62.140625 680.275 62.984375Q681.0719 63.828125 681.0719 65.375Q681.0719 65.46875 681.0719 65.65625L676.4313 65.65625Q676.4938 66.6875 677.0094 67.234375Q677.525 67.765625 678.3063 67.765625Q678.8844 67.765625 679.29065 67.46875Q679.7125 67.15625 679.9469 66.5ZM676.4938 64.796875L679.9625 64.796875Q679.9 64.0 679.5719 63.609375Q679.0563 63.0 678.2594 63.0Q677.525 63.0 677.025 63.484375Q676.54065 63.96875 676.4938 64.796875ZM684.9938 67.5625L685.15 68.484375Q684.6969 68.578125 684.35315 68.578125Q683.775 68.578125 683.4625 68.40625Q683.15 68.21875 683.0094 67.921875Q682.8844 67.625 682.8844 66.671875L682.8844 63.09375L682.1188 63.09375L682.1188 62.28125L682.8844 62.28125L682.8844 60.734375L683.9313 60.109375L683.9313 62.28125L684.9938 62.28125L684.9938 63.09375L683.9313 63.09375L683.9313 66.734375Q683.9313 67.1875 683.97815 67.3125Q684.04065 67.4375 684.16565 67.515625Q684.29065 67.59375 684.525 67.59375Q684.7125 67.59375 684.9938 67.5625ZM687.9938 67.5625L688.15 68.484375Q687.6969 68.578125 687.35315 68.578125Q686.775 68.578125 686.4625 68.40625Q686.15 68.21875 686.0094 67.921875Q685.8844 67.625 685.8844 66.671875L685.8844 63.09375L685.1188 63.09375L685.1188 62.28125L685.8844 62.28125L685.8844 60.734375L686.9313 60.109375L686.9313 62.28125L687.9938 62.28125L687.9938 63.09375L686.9313 63.09375L686.9313 66.734375Q686.9313 67.1875 686.97815 67.3125Q687.04065 67.4375 687.16565 67.515625Q687.29065 67.59375 687.525 67.59375Q687.7125 67.59375 687.9938 67.5625ZM692.9469 66.5L694.04065 66.625Q693.79065 67.578125 693.0875 68.109375Q692.3844 68.640625 691.3063 68.640625Q689.9469 68.640625 689.1344 67.796875Q688.3375 66.953125 688.3375 65.4375Q688.3375 63.875 689.15 63.015625Q689.9625 62.140625 691.2438 62.140625Q692.4938 62.140625 693.275 62.984375Q694.0719 63.828125 694.0719 65.375Q694.0719 65.46875 694.0719 65.65625L689.4313 65.65625Q689.4938 66.6875 690.0094 67.234375Q690.525 67.765625 691.3063 67.765625Q691.8844 67.765625 692.29065 67.46875Q692.7125 67.15625 692.9469 66.5ZM689.4938 64.796875L692.9625 64.796875Q692.9 64.0 692.5719 63.609375Q692.0563 63.0 691.2594 63.0Q690.525 63.0 690.025 63.484375Q689.54065 63.96875 689.4938 64.796875Z" fill-rule="nonzero"/><path fill="#93c5fd" d="M596.9 88.5C596.9 91.813705 594.2137 94.5 590.9 94.5C587.5863 94.5 584.9 91.813705 584.9 88.5C584.9 85.186295 587.5863 82.5 590.9 82.5C594.2137 82.5 596.9 85.186295 596.9 88.5Z" fill-rule="nonzero"/><path fill="#1a1a1a" d="M605.8844 92.5L605.8844 83.90625L611.6813 83.90625L611.6813 84.921875L607.025 84.921875L607.025 87.578125L611.0563 87.578125L611.0563 88.59375L607.025 88.59375L607.025 92.5L605.8844 92.5ZM612.3063 89.390625Q612.3063 87.65625 613.2594 86.828125Q614.0563 86.140625 615.2125 86.140625Q616.4938 86.140625 617.3063 86.984375Q618.1344 87.8125 618.1344 89.296875Q618.1344 90.5 617.775 91.1875Q617.41565 91.875 616.7125 92.265625Q616.025 92.640625 615.2125 92.640625Q613.91565 92.640625 613.10315 91.8125Q612.3063 90.96875 612.3063 89.390625ZM613.3844 89.390625Q613.3844 90.578125 613.9 91.171875Q614.4313 91.765625 615.2125 91.765625Q616.0094 91.765625 616.525 91.171875Q617.04065 90.578125 617.04065 89.359375Q617.04065 88.203125 616.5094 87.609375Q615.9938 87.015625 615.2125 87.015625Q614.4313 87.015625 613.9 87.609375Q613.3844 88.1875 613.3844 89.390625ZM619.6813 92.5L619.6813 86.28125L620.6344 86.28125L620.6344 87.21875Q620.9938 86.5625 621.29065 86.359375Q621.60315 86.140625 621.97815 86.140625Q622.5094 86.140625 623.0563 86.46875L622.6969 87.453125Q622.3063 87.21875 621.9313 87.21875Q621.5719 87.21875 621.29065 87.4375Q621.025 87.640625 620.91565 88.015625Q620.72815 88.578125 620.72815 89.234375L620.72815 92.5L619.6813 92.5ZM627.775 92.5L627.775 91.578125Q627.04065 92.640625 625.79065 92.640625Q625.2438 92.640625 624.7594 92.4375Q624.29065 92.21875 624.0563 91.90625Q623.8219 91.578125 623.72815 91.109375Q623.66565 90.8125 623.66565 90.125L623.66565 86.28125L624.72815 86.28125L624.72815 89.734375Q624.72815 90.546875 624.79065 90.84375Q624.8844 91.25 625.1969 91.5Q625.525 91.734375 626.0094 91.734375Q626.47815 91.734375 626.8844 91.5Q627.3063 91.25 627.47815 90.828125Q627.66565 90.40625 627.66565 89.609375L627.66565 86.28125L628.7125 86.28125L628.7125 92.5L627.775 92.5ZM630.6969 92.5L630.6969 86.28125L631.6344 86.28125L631.6344 87.15625Q631.9313 86.6875 632.41565 86.421875Q632.9 86.140625 633.525 86.140625Q634.2125 86.140625 634.65 86.421875Q635.10315 86.703125 635.275 87.21875Q636.025 86.140625 637.1969 86.140625Q638.1344 86.140625 638.6188 86.65625Q639.1188 87.15625 639.1188 88.234375L639.1188 92.5L638.0719 92.5L638.0719 88.578125Q638.0719 87.953125 637.9625 87.671875Q637.8688 87.390625 637.60315 87.21875Q637.3375 87.046875 636.9625 87.046875Q636.3063 87.046875 635.8688 87.484375Q635.4469 87.921875 635.4469 88.890625L635.4469 92.5L634.3844 92.5L634.3844 88.453125Q634.3844 87.75 634.1188 87.40625Q633.8688 87.046875 633.29065 87.046875Q632.8375 87.046875 632.4625 87.28125Q632.0875 87.515625 631.91565 87.96875Q631.7438 88.421875 631.7438 89.265625L631.7438 92.5L630.6969 92.5ZM644.9469 92.5L644.9469 87.09375L644.0094 87.09375L644.0094 86.28125L644.9469 86.28125L644.9469 85.609375Q644.9469 84.984375 645.0563 84.6875Q645.2125 84.265625 645.5875 84.015625Q645.97815 83.765625 646.66565 83.765625Q647.1188 83.765625 647.65 83.875L647.4938 84.78125Q647.16565 84.734375 646.8688 84.734375Q646.3844 84.734375 646.1813 84.9375Q645.9938 85.140625 645.9938 85.703125L645.9938 86.28125L647.2125 86.28125L647.2125 87.09375L645.9938 87.09375L645.9938 92.5L644.9469 92.5ZM651.775 92.5L651.775 91.578125Q651.04065 92.640625 649.79065 92.640625Q649.2438 92.640625 648.7594 92.4375Q648.29065 92.21875 648.0563 91.90625Q647.8219 91.578125 647.72815 91.109375Q647.66565 90.8125 647.66565 90.125L647.66565 86.28125L648.72815 86.28125L648.72815 89.734375Q648.72815 90.546875 648.79065 90.84375Q648.8844 91.25 649.1969 91.5Q649.525 91.734375 650.0094 91.734375Q650.47815 91.734375 650.8844 91.5Q651.3063 91.25 651.47815 90.828125Q651.66565 90.40625 651.66565 89.609375L651.66565 86.28125L652.7125 86.28125L652.7125 92.5L651.775 92.5ZM648.5563 85.0625L648.5563 83.859375L649.65 83.859375L649.65 85.0625L648.5563 85.0625ZM650.7438 85.0625L650.7438 83.859375L651.8375 83.859375L651.8375 85.0625L650.7438 85.0625ZM654.6813 92.5L654.6813 86.28125L655.6344 86.28125L655.6344 87.21875Q655.9938 86.5625 656.29065 86.359375Q656.60315 86.140625 656.97815 86.140625Q657.5094 86.140625 658.0563 86.46875L657.6969 87.453125Q657.3063 87.21875 656.9313 87.21875Q656.5719 87.21875 656.29065 87.4375Q656.025 87.640625 655.91565 88.015625Q655.72815 88.578125 655.72815 89.234375L655.72815 92.5L654.6813 92.5ZM660.8844 92.5L664.1813 83.90625L665.4 83.90625L668.91565 92.5L667.6344 92.5L666.6188 89.890625L663.04065 89.890625L662.0875 92.5L660.8844 92.5ZM663.3688 88.96875L666.275 88.96875L665.3844 86.59375Q664.9625 85.515625 664.775 84.8125Q664.60315 85.640625 664.3063 86.453125L663.3688 88.96875ZM668.6969 92.5L668.6969 86.28125L669.6344 86.28125L669.6344 87.15625Q670.3219 86.140625 671.6188 86.140625Q672.1813 86.140625 672.65 86.34375Q673.1344 86.546875 673.3688 86.875Q673.60315 87.203125 673.6969 87.640625Q673.7438 87.9375 673.7438 88.671875L673.7438 92.5L672.6969 92.5L672.6969 88.71875Q672.6969 88.0625 672.5719 87.75Q672.4469 87.4375 672.1344 87.25Q671.8219 87.046875 671.4 87.046875Q670.72815 87.046875 670.22815 87.484375Q669.7438 87.90625 669.7438 89.09375L669.7438 92.5L668.6969 92.5ZM677.9938 91.5625L678.15 92.484375Q677.6969 92.578125 677.35315 92.578125Q676.775 92.578125 676.4625 92.40625Q676.15 92.21875 676.0094 91.921875Q675.8844 91.625 675.8844 90.671875L675.8844 87.09375L675.1188 87.09375L675.1188 86.28125L675.8844 86.28125L675.8844 84.734375L676.9313 84.109375L676.9313 86.28125L677.9938 86.28125L677.9938 87.09375L676.9313 87.09375L676.9313 90.734375Q676.9313 91.1875 676.97815 91.3125Q677.04065 91.4375 677.16565 91.515625Q677.29065 91.59375 677.525 91.59375Q677.7125 91.59375 677.9938 91.5625ZM678.6969 85.125L678.6969 83.90625L679.7594 83.90625L679.7594 85.125L678.6969 85.125ZM678.6969 92.5L678.6969 86.28125L679.7594 86.28125L679.7594 92.5L678.6969 92.5ZM681.6969 92.5L681.6969 83.90625L682.7594 83.90625L682.7594 88.8125L685.2438 86.28125L686.6188 86.28125L684.22815 88.578125L686.85315 92.5L685.5563 92.5L683.4938 89.3125L682.7594 90.03125L682.7594 92.5L681.6969 92.5ZM691.9469 90.5L693.04065 90.625Q692.79065 91.578125 692.0875 92.109375Q691.3844 92.640625 690.3063 92.640625Q688.9469 92.640625 688.1344 91.796875Q687.3375 90.953125 687.3375 89.4375Q687.3375 87.875 688.15 87.015625Q688.9625 86.140625 690.2438 86.140625Q691.4938 86.140625 692.275 86.984375Q693.0719 87.828125 693.0719 89.375Q693.0719 89.46875 693.0719 89.65625L688.4313 89.65625Q688.4938 90.6875 689.0094 91.234375Q689.525 91.765625 690.3063 91.765625Q690.8844 91.765625 691.29065 91.46875Q691.7125 91.15625 691.9469 90.5ZM688.4938 88.796875L691.9625 88.796875Q691.9 88.0 691.5719 87.609375Q691.0563 87.0 690.2594 87.0Q689.525 87.0 689.025 87.484375Q688.54065 87.96875 688.4938 88.796875ZM701.775 92.5L701.775 91.578125Q701.04065 92.640625 699.79065 92.640625Q699.2438 92.640625 698.7594 92.4375Q698.29065 92.21875 698.0563 91.90625Q697.8219 91.578125 697.72815 91.109375Q697.66565 90.8125 697.66565 90.125L697.66565 86.28125L698.72815 86.28125L698.72815 89.734375Q698.72815 90.546875 698.79065 90.84375Q698.8844 91.25 699.1969 91.5Q699.525 91.734375 700.0094 91.734375Q700.47815 91.734375 700.8844 91.5Q701.3063 91.25 701.47815 90.828125Q701.66565 90.40625 701.66565 89.609375L701.66565 86.28125L702.7125 86.28125L702.7125 92.5L701.775 92.5ZM704.6969 92.5L704.6969 86.28125L705.6344 86.28125L705.6344 87.15625Q706.3219 86.140625 707.6188 86.140625Q708.1813 86.140625 708.65 86.34375Q709.1344 86.546875 709.3688 86.875Q709.60315 87.203125 709.6969 87.640625Q709.7438 87.9375 709.7438 88.671875L709.7438 92.5L708.6969 92.5L708.6969 88.71875Q708.6969 88.0625 708.5719 87.75Q708.4469 87.4375 708.1344 87.25Q707.8219 87.046875 707.4 87.046875Q706.72815 87.046875 706.22815 87.484375Q705.7438 87.90625 705.7438 89.09375L705.7438 92.5L704.6969 92.5ZM715.72815 92.5L715.72815 91.71875Q715.1344 92.640625 713.9938 92.640625Q713.2438 92.640625 712.6188 92.234375Q711.9938 91.8125 711.65 91.078125Q711.3063 90.34375 711.3063 89.390625Q711.3063 88.46875 711.6188 87.703125Q711.9313 86.9375 712.5563 86.546875Q713.1813 86.140625 713.9469 86.140625Q714.5094 86.140625 714.9469 86.375Q715.3844 86.609375 715.66565 86.984375L715.66565 83.90625L716.7125 83.90625L716.7125 92.5L715.72815 92.5ZM712.4 89.390625Q712.4 90.59375 712.9 91.1875Q713.4 91.765625 714.0875 91.765625Q714.775 91.765625 715.2594 91.203125Q715.7438 90.640625 715.7438 89.484375Q715.7438 88.203125 715.2438 87.609375Q714.7594 87.015625 714.04065 87.015625Q713.3375 87.015625 712.8688 87.59375Q712.4 88.15625 712.4 89.390625ZM725.85315 89.125L725.85315 88.125L729.47815 88.109375L729.47815 91.296875Q728.65 91.96875 727.7594 92.3125Q726.8688 92.640625 725.9313 92.640625Q724.66565 92.640625 723.6188 92.109375Q722.5875 91.5625 722.0563 90.546875Q721.54065 89.515625 721.54065 88.25Q721.54065 86.984375 722.0563 85.90625Q722.5875 84.8125 723.5719 84.296875Q724.5563 83.765625 725.8375 83.765625Q726.775 83.765625 727.525 84.0625Q728.275 84.359375 728.6969 84.90625Q729.1344 85.4375 729.35315 86.3125L728.3375 86.59375Q728.1344 85.9375 727.8375 85.5625Q727.5563 85.1875 727.025 84.96875Q726.4938 84.734375 725.85315 84.734375Q725.0719 84.734375 724.4938 84.96875Q723.9313 85.203125 723.5719 85.59375Q723.22815 85.984375 723.04065 86.453125Q722.7125 87.25 722.7125 88.171875Q722.7125 89.328125 723.10315 90.109375Q723.5094 90.875 724.2594 91.25Q725.0094 91.625 725.8688 91.625Q726.60315 91.625 727.3063 91.34375Q728.0094 91.046875 728.3688 90.734375L728.3688 89.125L725.85315 89.125ZM734.9469 90.5L736.04065 90.625Q735.79065 91.578125 735.0875 92.109375Q734.3844 92.640625 733.3063 92.640625Q731.9469 92.640625 731.1344 91.796875Q730.3375 90.953125 730.3375 89.4375Q730.3375 87.875 731.15 87.015625Q731.9625 86.140625 733.2438 86.140625Q734.4938 86.140625 735.275 86.984375Q736.0719 87.828125 736.0719 89.375Q736.0719 89.46875 736.0719 89.65625L731.4313 89.65625Q731.4938 90.6875 732.0094 91.234375Q732.525 91.765625 733.3063 91.765625Q733.8844 91.765625 734.29065 91.46875Q734.7125 91.15625 734.9469 90.5ZM731.4938 88.796875L734.9625 88.796875Q734.9 88.0 734.5719 87.609375Q734.0563 87.0 733.2594 87.0Q732.525 87.0 732.025 87.484375Q731.54065 87.96875 731.4938 88.796875ZM737.275 90.640625L738.3063 90.484375Q738.4 91.109375 738.79065 91.4375Q739.1969 91.765625 739.9313 91.765625Q740.65 91.765625 740.9938 91.484375Q741.35315 91.1875 741.35315 90.78125Q741.35315 90.421875 741.04065 90.21875Q740.8219 90.078125 739.9625 89.859375Q738.8063 89.5625 738.35315 89.359375Q737.91565 89.140625 737.6813 88.765625Q737.4469 88.390625 737.4469 87.921875Q737.4469 87.515625 737.6344 87.15625Q737.8219 86.796875 738.15 86.5625Q738.4 86.390625 738.8219 86.265625Q739.2438 86.140625 739.7438 86.140625Q740.4625 86.140625 741.0094 86.359375Q741.5719 86.5625 741.8375 86.921875Q742.10315 87.28125 742.1969 87.875L741.16565 88.015625Q741.10315 87.546875 740.7594 87.28125Q740.4313 87.0 739.8063 87.0Q739.0875 87.0 738.775 87.25Q738.4625 87.484375 738.4625 87.8125Q738.4625 88.015625 738.5875 88.171875Q738.72815 88.34375 738.9938 88.453125Q739.15 88.515625 739.9313 88.71875Q741.0563 89.03125 741.4938 89.21875Q741.9313 89.40625 742.1813 89.765625Q742.4313 90.125 742.4313 90.671875Q742.4313 91.203125 742.1188 91.671875Q741.8219 92.125 741.2438 92.390625Q740.66565 92.640625 739.9313 92.640625Q738.7125 92.640625 738.0719 92.140625Q737.4469 91.625 737.275 90.640625ZM748.9469 90.5L750.04065 90.625Q749.79065 91.578125 749.0875 92.109375Q748.3844 92.640625 747.3063 92.640625Q745.9469 92.640625 745.1344 91.796875Q744.3375 90.953125 744.3375 89.4375Q744.3375 87.875 745.15 87.015625Q745.9625 86.140625 747.2438 86.140625Q748.4938 86.140625 749.275 86.984375Q750.0719 87.828125 750.0719 89.375Q750.0719 89.46875 750.0719 89.65625L745.4313 89.65625Q745.4938 90.6875 746.0094 91.234375Q746.525 91.765625 747.3063 91.765625Q747.8844 91.765625 748.29065 91.46875Q748.7125 91.15625 748.9469 90.5ZM745.4938 88.796875L748.9625 88.796875Q748.9 88.0 748.5719 87.609375Q748.0563 87.0 747.2594 87.0Q746.525 87.0 746.025 87.484375Q745.54065 87.96875 745.4938 88.796875ZM751.66565 92.5L751.66565 83.90625L752.72815 83.90625L752.72815 92.5L751.66565 92.5ZM754.66565 92.5L754.66565 83.90625L755.72815 83.90625L755.72815 92.5L754.66565 92.5ZM757.275 90.640625L758.3063 90.484375Q758.4 91.109375 758.79065 91.4375Q759.1969 91.765625 759.9313 91.765625Q760.65 91.765625 760.9938 91.484375Q761.35315 91.1875 761.35315 90.78125Q761.35315 90.421875 761.04065 90.21875Q760.8219 90.078125 759.9625 89.859375Q758.8063 89.5625 758.35315 89.359375Q757.91565 89.140625 757.6813 88.765625Q757.4469 88.390625 757.4469 87.921875Q757.4469 87.515625 757.6344 87.15625Q757.8219 86.796875 758.15 86.5625Q758.4 86.390625 758.8219 86.265625Q759.2438 86.140625 759.7438 86.140625Q760.4625 86.140625 761.0094 86.359375Q761.5719 86.5625 761.8375 86.921875Q762.10315 87.28125 762.1969 87.875L761.16565 88.015625Q761.10315 87.546875 760.7594 87.28125Q760.4313 87.0 759.8063 87.0Q759.0875 87.0 758.775 87.25Q758.4625 87.484375 758.4625 87.8125Q758.4625 88.015625 758.5875 88.171875Q758.72815 88.34375 758.9938 88.453125Q759.15 88.515625 759.9313 88.71875Q761.0563 89.03125 761.4938 89.21875Q761.9313 89.40625 762.1813 89.765625Q762.4313 90.125 762.4313 90.671875Q762.4313 91.203125 762.1188 91.671875Q761.8219 92.125 761.2438 92.390625Q760.66565 92.640625 759.9313 92.640625Q758.7125 92.640625 758.0719 92.140625Q757.4469 91.625 757.275 90.640625ZM768.7594 90.21875L769.79065 90.359375Q769.6188 91.421875 768.91565 92.03125Q768.2125 92.640625 767.1969 92.640625Q765.91565 92.640625 765.1344 91.8125Q764.3688 90.96875 764.3688 89.40625Q764.3688 88.40625 764.6969 87.65625Q765.04065 86.890625 765.7125 86.515625Q766.4 86.140625 767.2125 86.140625Q768.2125 86.140625 768.85315 86.65625Q769.5094 87.15625 769.6969 88.109375L768.66565 88.265625Q768.525 87.640625 768.15 87.328125Q767.775 87.0 767.2438 87.0Q766.4469 87.0 765.9469 87.578125Q765.4469 88.140625 765.4469 89.375Q765.4469 90.640625 765.9313 91.203125Q766.41565 91.765625 767.1813 91.765625Q767.8063 91.765625 768.2125 91.390625Q768.6344 91.015625 768.7594 90.21875ZM770.6969 92.5L770.6969 83.90625L771.7438 83.90625L771.7438 86.984375Q772.47815 86.140625 773.60315 86.140625Q774.3063 86.140625 774.8063 86.421875Q775.3219 86.6875 775.54065 87.171875Q775.7594 87.640625 775.7594 88.5625L775.7594 92.5L774.7125 92.5L774.7125 88.5625Q774.7125 87.765625 774.3688 87.40625Q774.025 87.046875 773.4 87.046875Q772.9313 87.046875 772.5094 87.296875Q772.10315 87.53125 771.91565 87.953125Q771.7438 88.359375 771.7438 89.09375L771.7438 92.5L770.6969 92.5ZM781.7594 91.734375Q781.16565 92.234375 780.6188 92.4375Q780.0875 92.640625 779.4625 92.640625Q778.4313 92.640625 777.8844 92.140625Q777.3375 91.640625 777.3375 90.859375Q777.3375 90.40625 777.54065 90.03125Q777.7438 89.640625 778.0875 89.421875Q778.4313 89.1875 778.85315 89.078125Q779.15 88.984375 779.79065 88.90625Q781.0563 88.765625 781.66565 88.546875Q781.66565 88.328125 781.66565 88.28125Q781.66565 87.625 781.3688 87.359375Q780.9625 87.015625 780.16565 87.015625Q779.4313 87.015625 779.0719 87.28125Q778.7125 87.53125 778.54065 88.1875L777.5094 88.046875Q777.65 87.390625 777.97815 86.984375Q778.3063 86.578125 778.91565 86.359375Q779.525 86.140625 780.3219 86.140625Q781.1188 86.140625 781.6188 86.328125Q782.1188 86.515625 782.35315 86.796875Q782.5875 87.078125 782.6813 87.515625Q782.72815 87.78125 782.72815 88.484375L782.72815 89.890625Q782.72815 91.359375 782.79065 91.75Q782.8688 92.140625 783.0719 92.5L781.9625 92.5Q781.8063 92.171875 781.7594 91.734375ZM781.66565 89.375Q781.0875 89.609375 779.9469 89.78125Q779.29065 89.875 779.025 90.0Q778.7594 90.109375 778.60315 90.328125Q778.4625 90.546875 778.4625 90.828125Q778.4625 91.25 778.775 91.53125Q779.10315 91.8125 779.7125 91.8125Q780.3219 91.8125 780.79065 91.546875Q781.275 91.28125 781.4938 90.8125Q781.66565 90.453125 781.66565 89.765625L781.66565 89.375ZM784.9469 92.5L784.9469 87.09375L784.0094 87.09375L784.0094 86.28125L784.9469 86.28125L784.9469 85.609375Q784.9469 84.984375 785.0563 84.6875Q785.2125 84.265625 785.5875 84.015625Q785.97815 83.765625 786.66565 83.765625Q787.1188 83.765625 787.65 83.875L787.4938 84.78125Q787.16565 84.734375 786.8688 84.734375Q786.3844 84.734375 786.1813 84.9375Q785.9938 85.140625 785.9938 85.703125L785.9938 86.28125L787.2125 86.28125L787.2125 87.09375L785.9938 87.09375L785.9938 92.5L784.9469 92.5ZM789.9938 91.5625L790.15 92.484375Q789.6969 92.578125 789.35315 92.578125Q788.775 92.578125 788.4625 92.40625Q788.15 92.21875 788.0094 91.921875Q787.8844 91.625 787.8844 90.671875L787.8844 87.09375L787.1188 87.09375L787.1188 86.28125L787.8844 86.28125L787.8844 84.734375L788.9313 84.109375L788.9313 86.28125L789.9938 86.28125L789.9938 87.09375L788.9313 87.09375L788.9313 90.734375Q788.9313 91.1875 788.97815 91.3125Q789.04065 91.4375 789.16565 91.515625Q789.29065 91.59375 789.525 91.59375Q789.7125 91.59375 789.9938 91.5625Z" fill-rule="nonzero"/><path fill="#86efac" d="M596.9 112.5C596.9 115.813705 594.2137 118.5 590.9 118.5C587.5863 118.5 584.9 115.813705 584.9 112.5C584.9 109.186295 587.5863 106.5 590.9 106.5C594.2137 106.5 596.9 109.186295 596.9 112.5Z" fill-rule="nonzero"/><path fill="#1a1a1a" d="M611.9625 113.484375L613.0875 113.78125Q612.72815 115.171875 611.8063 115.90625Q610.8844 116.640625 609.54065 116.640625Q608.15 116.640625 607.275 116.078125Q606.4 115.515625 605.9469 114.453125Q605.4938 113.375 605.4938 112.140625Q605.4938 110.796875 606.0094 109.796875Q606.525 108.796875 607.4625 108.28125Q608.41565 107.765625 609.5563 107.765625Q610.8375 107.765625 611.7125 108.421875Q612.60315 109.078125 612.9469 110.265625L611.8219 110.53125Q611.525 109.59375 610.9469 109.171875Q610.3844 108.734375 609.525 108.734375Q608.54065 108.734375 607.8688 109.21875Q607.2125 109.6875 606.9313 110.484375Q606.66565 111.28125 606.66565 112.140625Q606.66565 113.234375 606.97815 114.046875Q607.3063 114.859375 607.97815 115.265625Q608.65 115.671875 609.4469 115.671875Q610.4 115.671875 611.0563 115.125Q611.72815 114.578125 611.9625 113.484375ZM618.7594 115.734375Q618.16565 116.234375 617.6188 116.4375Q617.0875 116.640625 616.4625 116.640625Q615.4313 116.640625 614.8844 116.140625Q614.3375 115.640625 614.3375 114.859375Q614.3375 114.40625 614.54065 114.03125Q614.7438 113.640625 615.0875 113.421875Q615.4313 113.1875 615.85315 113.078125Q616.15 112.984375 616.79065 112.90625Q618.0563 112.765625 618.66565 112.546875Q618.66565 112.328125 618.66565 112.28125Q618.66565 111.625 618.3688 111.359375Q617.9625 111.015625 617.16565 111.015625Q616.4313 111.015625 616.0719 111.28125Q615.7125 111.53125 615.54065 112.1875L614.5094 112.046875Q614.65 111.390625 614.97815 110.984375Q615.3063 110.578125 615.91565 110.359375Q616.525 110.140625 617.3219 110.140625Q618.1188 110.140625 618.6188 110.328125Q619.1188 110.515625 619.35315 110.796875Q619.5875 111.078125 619.6813 111.515625Q619.72815 111.78125 619.72815 112.484375L619.72815 113.890625Q619.72815 115.359375 619.79065 115.75Q619.8688 116.140625 620.0719 116.5L618.9625 116.5Q618.8063 116.171875 618.7594 115.734375ZM618.66565 113.375Q618.0875 113.609375 616.9469 113.78125Q616.29065 113.875 616.025 114.0Q615.7594 114.109375 615.60315 114.328125Q615.4625 114.546875 615.4625 114.828125Q615.4625 115.25 615.775 115.53125Q616.10315 115.8125 616.7125 115.8125Q617.3219 115.8125 617.79065 115.546875Q618.275 115.28125 618.4938 114.8125Q618.66565 114.453125 618.66565 113.765625L618.66565 113.375ZM621.6813 116.5L621.6813 110.28125L622.6344 110.28125L622.6344 111.21875Q622.9938 110.5625 623.29065 110.359375Q623.60315 110.140625 623.97815 110.140625Q624.5094 110.140625 625.0563 110.46875L624.6969 111.453125Q624.3063 111.21875 623.9313 111.21875Q623.5719 111.21875 623.29065 111.4375Q623.025 111.640625 622.91565 112.015625Q622.72815 112.578125 622.72815 113.234375L622.72815 116.5L621.6813 116.5ZM629.72815 116.5L629.72815 115.71875Q629.1344 116.640625 627.9938 116.640625Q627.2438 116.640625 626.6188 116.234375Q625.9938 115.8125 625.65 115.078125Q625.3063 114.34375 625.3063 113.390625Q625.3063 112.46875 625.6188 111.703125Q625.9313 110.9375 626.5563 110.546875Q627.1813 110.140625 627.9469 110.140625Q628.5094 110.140625 628.9469 110.375Q629.3844 110.609375 629.66565 110.984375L629.66565 107.90625L630.7125 107.90625L630.7125 116.5L629.72815 116.5ZM626.4 113.390625Q626.4 114.59375 626.9 115.1875Q627.4 115.765625 628.0875 115.765625Q628.775 115.765625 629.2594 115.203125Q629.7438 114.640625 629.7438 113.484375Q629.7438 112.203125 629.2438 111.609375Q628.7594 111.015625 628.04065 111.015625Q627.3375 111.015625 626.8688 111.59375Q626.4 112.15625 626.4 113.390625ZM632.4469 113.734375L633.5094 113.640625Q633.5875 114.296875 633.8688 114.703125Q634.15 115.109375 634.72815 115.375Q635.3219 115.625 636.0563 115.625Q636.6969 115.625 637.1969 115.4375Q637.6969 115.234375 637.9313 114.90625Q638.1813 114.5625 638.1813 114.171875Q638.1813 113.765625 637.9469 113.46875Q637.7125 113.15625 637.1813 112.953125Q636.8219 112.8125 635.6344 112.53125Q634.4625 112.25 633.9938 112.0Q633.3688 111.671875 633.0719 111.203125Q632.775 110.71875 632.775 110.125Q632.775 109.484375 633.1344 108.921875Q633.5094 108.34375 634.2125 108.0625Q634.9313 107.765625 635.79065 107.765625Q636.7438 107.765625 637.47815 108.078125Q638.2125 108.375 638.60315 108.984375Q638.9938 109.578125 639.025 110.328125L637.9313 110.40625Q637.8375 109.59375 637.3219 109.1875Q636.8219 108.765625 635.8375 108.765625Q634.8063 108.765625 634.3375 109.140625Q633.8688 109.515625 633.8688 110.046875Q633.8688 110.515625 634.1969 110.8125Q634.525 111.109375 635.9 111.421875Q637.29065 111.734375 637.8063 111.96875Q638.5563 112.328125 638.91565 112.859375Q639.275 113.375 639.275 114.078125Q639.275 114.765625 638.8844 115.375Q638.4938 115.96875 637.7594 116.3125Q637.025 116.640625 636.10315 116.640625Q634.9313 116.640625 634.1344 116.3125Q633.35315 115.96875 632.9 115.28125Q632.4625 114.59375 632.4469 113.734375ZM642.9938 115.5625L643.15 116.484375Q642.6969 116.578125 642.35315 116.578125Q641.775 116.578125 641.4625 116.40625Q641.15 116.21875 641.0094 115.921875Q640.8844 115.625 640.8844 114.671875L640.8844 111.09375L640.1188 111.09375L640.1188 110.28125L640.8844 110.28125L640.8844 108.734375L641.9313 108.109375L641.9313 110.28125L642.9938 110.28125L642.9938 111.09375L641.9313 111.09375L641.9313 114.734375Q641.9313 115.1875 641.97815 115.3125Q642.04065 115.4375 642.16565 115.515625Q642.29065 115.59375 642.525 115.59375Q642.7125 115.59375 642.9938 115.5625ZM643.3063 113.390625Q643.3063 111.65625 644.2594 110.828125Q645.0563 110.140625 646.2125 110.140625Q647.4938 110.140625 648.3063 110.984375Q649.1344 111.8125 649.1344 113.296875Q649.1344 114.5 648.775 115.1875Q648.41565 115.875 647.7125 116.265625Q647.025 116.640625 646.2125 116.640625Q644.91565 116.640625 644.10315 115.8125Q643.3063 114.96875 643.3063 113.390625ZM644.3844 113.390625Q644.3844 114.578125 644.9 115.171875Q645.4313 115.765625 646.2125 115.765625Q647.0094 115.765625 647.525 115.171875Q648.04065 114.578125 648.04065 113.359375Q648.04065 112.203125 647.5094 111.609375Q646.9938 111.015625 646.2125 111.015625Q645.4313 111.015625 644.9 111.609375Q644.3844 112.1875 644.3844 113.390625ZM650.6813 116.5L650.6813 110.28125L651.6344 110.28125L651.6344 111.21875Q651.9938 110.5625 652.29065 110.359375Q652.60315 110.140625 652.97815 110.140625Q653.5094 110.140625 654.0563 110.46875L653.6969 111.453125Q653.3063 111.21875 652.9313 111.21875Q652.5719 111.21875 652.29065 111.4375Q652.025 111.640625 651.91565 112.015625Q651.72815 112.578125 651.72815 113.234375L651.72815 116.5L650.6813 116.5ZM658.9469 114.5L660.04065 114.625Q659.79065 115.578125 659.0875 116.109375Q658.3844 116.640625 657.3063 116.640625Q655.9469 116.640625 655.1344 115.796875Q654.3375 114.953125 654.3375 113.4375Q654.3375 111.875 655.15 111.015625Q655.9625 110.140625 657.2438 110.140625Q658.4938 110.140625 659.275 110.984375Q660.0719 111.828125 660.0719 113.375Q660.0719 113.46875 660.0719 113.65625L655.4313 113.65625Q655.4938 114.6875 656.0094 115.234375Q656.525 115.765625 657.3063 115.765625Q657.8844 115.765625 658.29065 115.46875Q658.7125 115.15625 658.9469 114.5ZM655.4938 112.796875L658.9625 112.796875Q658.9 112.0 658.5719 111.609375Q658.0563 111.0 657.2594 111.0Q656.525 111.0 656.025 111.484375Q655.54065 111.96875 655.4938 112.796875Z" fill-rule="nonzero"/><path fill="#e879f9" d="M596.9 136.5C596.9 139.8137 594.2137 142.5 590.9 142.5C587.5863 142.5 584.9 139.8137 584.9 136.5C584.9 133.1863 587.5863 130.5 590.9 130.5C594.2137 130.5 596.9 133.1863 596.9 136.5Z" fill-rule="nonzero"/><path fill="#1a1a1a" d="M609.7594 139.73438Q609.16565 140.23438 608.6188 140.4375Q608.0875 140.64062 607.4625 140.64062Q606.4313 140.64062 605.8844 140.14062Q605.3375 139.64062 605.3375 138.85938Q605.3375 138.40625 605.54065 138.03125Q605.7438 137.64062 606.0875 137.42188Q606.4313 137.1875 606.85315 137.07812Q607.15 136.98438 607.79065 136.90625Q609.0563 136.76562 609.66565 136.54688Q609.66565 136.32812 609.66565 136.28125Q609.66565 135.625 609.3688 135.35938Q608.9625 135.01562 608.16565 135.01562Q607.4313 135.01562 607.0719 135.28125Q606.7125 135.53125 606.54065 136.1875L605.5094 136.04688Q605.65 135.39062 605.97815 134.98438Q606.3063 134.57812 606.91565 134.35938Q607.525 134.14062 608.3219 134.14062Q609.1188 134.14062 609.6188 134.32812Q610.1188 134.51562 610.35315 134.79688Q610.5875 135.07812 610.6813 135.51562Q610.72815 135.78125 610.72815 136.48438L610.72815 137.89062Q610.72815 139.35938 610.79065 139.75Q610.8688 140.14062 611.0719 140.5L609.9625 140.5Q609.8063 140.17188 609.7594 139.73438ZM609.66565 137.375Q609.0875 137.60938 607.9469 137.78125Q607.29065 137.875 607.025 138.0Q606.7594 138.10938 606.60315 138.32812Q606.4625 138.54688 606.4625 138.82812Q606.4625 139.25 606.775 139.53125Q607.10315 139.8125 607.7125 139.8125Q608.3219 139.8125 608.79065 139.54688Q609.275 139.28125 609.4938 138.8125Q609.66565 138.45312 609.66565 137.76562L609.66565 137.375ZM612.275 138.64062L613.3063 138.48438Q613.4 139.10938 613.79065 139.4375Q614.1969 139.76562 614.9313 139.76562Q615.65 139.76562 615.9938 139.48438Q616.35315 139.1875 616.35315 138.78125Q616.35315 138.42188 616.04065 138.21875Q615.8219 138.07812 614.9625 137.85938Q613.8063 137.5625 613.35315 137.35938Q612.91565 137.14062 612.6813 136.76562Q612.4469 136.39062 612.4469 135.92188Q612.4469 135.51562 612.6344 135.15625Q612.8219 134.79688 613.15 134.5625Q613.4 134.39062 613.8219 134.26562Q614.2438 134.14062 614.7438 134.14062Q615.4625 134.14062 616.0094 134.35938Q616.5719 134.5625 616.8375 134.92188Q617.10315 135.28125 617.1969 135.875L616.16565 136.01562Q616.10315 135.54688 615.7594 135.28125Q615.4313 135.0 614.8063 135.0Q614.0875 135.0 613.775 135.25Q613.4625 135.48438 613.4625 135.8125Q613.4625 136.01562 613.5875 136.17188Q613.72815 136.34375 613.9938 136.45312Q614.15 136.51562 614.9313 136.71875Q616.0563 137.03125 616.4938 137.21875Q616.9313 137.40625 617.1813 137.76562Q617.4313 138.125 617.4313 138.67188Q617.4313 139.20312 617.1188 139.67188Q616.8219 140.125 616.2438 140.39062Q615.66565 140.64062 614.9313 140.64062Q613.7125 140.64062 613.0719 140.14062Q612.4469 139.625 612.275 138.64062ZM621.9938 139.5625L622.15 140.48438Q621.6969 140.57812 621.35315 140.57812Q620.775 140.57812 620.4625 140.40625Q620.15 140.21875 620.0094 139.92188Q619.8844 139.625 619.8844 138.67188L619.8844 135.09375L619.1188 135.09375L619.1188 134.28125L619.8844 134.28125L619.8844 132.73438L620.9313 132.10938L620.9313 134.28125L621.9938 134.28125L621.9938 135.09375L620.9313 135.09375L620.9313 138.73438Q620.9313 139.1875 620.97815 139.3125Q621.04065 139.4375 621.16565 139.51562Q621.29065 139.59375 621.525 139.59375Q621.7125 139.59375 621.9938 139.5625ZM622.6813 140.5L622.6813 134.28125L623.6344 134.28125L623.6344 135.21875Q623.9938 134.5625 624.29065 134.35938Q624.60315 134.14062 624.97815 134.14062Q625.5094 134.14062 626.0563 134.46875L625.6969 135.45312Q625.3063 135.21875 624.9313 135.21875Q624.5719 135.21875 624.29065 135.4375Q624.025 135.64062 623.91565 136.01562Q623.72815 136.57812 623.72815 137.23438L623.72815 140.5L622.6813 140.5ZM626.3063 137.39062Q626.3063 135.65625 627.2594 134.82812Q628.0563 134.14062 629.2125 134.14062Q630.4938 134.14062 631.3063 134.98438Q632.1344 135.8125 632.1344 137.29688Q632.1344 138.5 631.775 139.1875Q631.41565 139.875 630.7125 140.26562Q630.025 140.64062 629.2125 140.64062Q627.91565 140.64062 627.10315 139.8125Q626.3063 138.96875 626.3063 137.39062ZM627.3844 137.39062Q627.3844 138.57812 627.9 139.17188Q628.4313 139.76562 629.2125 139.76562Q630.0094 139.76562 630.525 139.17188Q631.04065 138.57812 631.04065 137.35938Q631.04065 136.20312 630.5094 135.60938Q629.9938 135.01562 629.2125 135.01562Q628.4313 135.01562 627.9 135.60938Q627.3844 136.1875 627.3844 137.39062ZM633.275 137.92188L633.275 136.85938L636.525 136.85938L636.525 137.92188L633.275 137.92188ZM637.66565 140.5L637.66565 131.90625L638.72815 131.90625L638.72815 140.5L637.66565 140.5ZM640.3063 137.39062Q640.3063 135.65625 641.2594 134.82812Q642.0563 134.14062 643.2125 134.14062Q644.4938 134.14062 645.3063 134.98438Q646.1344 135.8125 646.1344 137.29688Q646.1344 138.5 645.775 139.1875Q645.41565 139.875 644.7125 140.26562Q644.025 140.64062 643.2125 140.64062Q641.91565 140.64062 641.10315 139.8125Q640.3063 138.96875 640.3063 137.39062ZM641.3844 137.39062Q641.3844 138.57812 641.9 139.17188Q642.4313 139.76562 643.2125 139.76562Q644.0094 139.76562 644.525 139.17188Q645.04065 138.57812 645.04065 137.35938Q645.04065 136.20312 644.5094 135.60938Q643.9938 135.01562 643.2125 135.01562Q642.4313 135.01562 641.9 135.60938Q641.3844 136.1875 641.3844 137.39062ZM651.7594 139.73438Q651.16565 140.23438 650.6188 140.4375Q650.0875 140.64062 649.4625 140.64062Q648.4313 140.64062 647.8844 140.14062Q647.3375 139.64062 647.3375 138.85938Q647.3375 138.40625 647.54065 138.03125Q647.7438 137.64062 648.0875 137.42188Q648.4313 137.1875 648.85315 137.07812Q649.15 136.98438 649.79065 136.90625Q651.0563 136.76562 651.66565 136.54688Q651.66565 136.32812 651.66565 136.28125Q651.66565 135.625 651.3688 135.35938Q650.9625 135.01562 650.16565 135.01562Q649.4313 135.01562 649.0719 135.28125Q648.7125 135.53125 648.54065 136.1875L647.5094 136.04688Q647.65 135.39062 647.97815 134.98438Q648.3063 134.57812 648.91565 134.35938Q649.525 134.14062 650.3219 134.14062Q651.1188 134.14062 651.6188 134.32812Q652.1188 134.51562 652.35315 134.79688Q652.5875 135.07812 652.6813 135.51562Q652.72815 135.78125 652.72815 136.48438L652.72815 137.89062Q652.72815 139.35938 652.79065 139.75Q652.8688 140.14062 653.0719 140.5L651.9625 140.5Q651.8063 140.17188 651.7594 139.73438ZM651.66565 137.375Q651.0875 137.60938 649.9469 137.78125Q649.29065 137.875 649.025 138.0Q648.7594 138.10938 648.60315 138.32812Q648.4625 138.54688 648.4625 138.82812Q648.4625 139.25 648.775 139.53125Q649.10315 139.8125 649.7125 139.8125Q650.3219 139.8125 650.79065 139.54688Q651.275 139.28125 651.4938 138.8125Q651.66565 138.45312 651.66565 137.76562L651.66565 137.375ZM658.72815 140.5L658.72815 139.71875Q658.1344 140.64062 656.9938 140.64062Q656.2438 140.64062 655.6188 140.23438Q654.9938 139.8125 654.65 139.07812Q654.3063 138.34375 654.3063 137.39062Q654.3063 136.46875 654.6188 135.70312Q654.9313 134.9375 655.5563 134.54688Q656.1813 134.14062 656.9469 134.14062Q657.5094 134.14062 657.9469 134.375Q658.3844 134.60938 658.66565 134.98438L658.66565 131.90625L659.7125 131.90625L659.7125 140.5L658.72815 140.5ZM655.4 137.39062Q655.4 138.59375 655.9 139.1875Q656.4 139.76562 657.0875 139.76562Q657.775 139.76562 658.2594 139.20312Q658.7438 138.64062 658.7438 137.48438Q658.7438 136.20312 658.2438 135.60938Q657.7594 135.01562 657.04065 135.01562Q656.3375 135.01562 655.8688 135.59375Q655.4 136.15625 655.4 137.39062ZM665.9469 138.5L667.04065 138.625Q666.79065 139.57812 666.0875 140.10938Q665.3844 140.64062 664.3063 140.64062Q662.9469 140.64062 662.1344 139.79688Q661.3375 138.95312 661.3375 137.4375Q661.3375 135.875 662.15 135.01562Q662.9625 134.14062 664.2438 134.14062Q665.4938 134.14062 666.275 134.98438Q667.0719 135.82812 667.0719 137.375Q667.0719 137.46875 667.0719 137.65625L662.4313 137.65625Q662.4938 138.6875 663.0094 139.23438Q663.525 139.76562 664.3063 139.76562Q664.8844 139.76562 665.29065 139.46875Q665.7125 139.15625 665.9469 138.5ZM662.4938 136.79688L665.9625 136.79688Q665.9 136.0 665.5719 135.60938Q665.0563 135.0 664.2594 135.0Q663.525 135.0 663.025 135.48438Q662.54065 135.96875 662.4938 136.79688ZM668.6813 140.5L668.6813 134.28125L669.6344 134.28125L669.6344 135.21875Q669.9938 134.5625 670.29065 134.35938Q670.60315 134.14062 670.97815 134.14062Q671.5094 134.14062 672.0563 134.46875L671.6969 135.45312Q671.3063 135.21875 670.9313 135.21875Q670.5719 135.21875 670.29065 135.4375Q670.025 135.64062 669.91565 136.01562Q669.72815 136.57812 669.72815 137.23438L669.72815 140.5L668.6813 140.5ZM672.275 137.92188L672.275 136.85938L675.525 136.85938L675.525 137.92188L672.275 137.92188ZM676.6969 142.89062L676.6969 134.28125L677.65 134.28125L677.65 135.07812Q677.9938 134.60938 678.41565 134.375Q678.85315 134.14062 679.4625 134.14062Q680.2594 134.14062 680.8688 134.54688Q681.47815 134.95312 681.775 135.70312Q682.0875 136.45312 682.0875 137.34375Q682.0875 138.29688 681.7438 139.0625Q681.41565 139.82812 680.7594 140.23438Q680.10315 140.64062 679.3844 140.64062Q678.85315 140.64062 678.4313 140.42188Q678.0094 140.1875 677.7438 139.85938L677.7438 142.89062L676.6969 142.89062ZM677.65 137.42188Q677.65 138.625 678.1344 139.20312Q678.6188 139.76562 679.3063 139.76562Q680.0094 139.76562 680.5094 139.17188Q681.0094 138.57812 681.0094 137.32812Q681.0094 136.14062 680.525 135.5625Q680.04065 134.96875 679.35315 134.96875Q678.6813 134.96875 678.16565 135.59375Q677.65 136.21875 677.65 137.42188ZM683.3063 137.39062Q683.3063 135.65625 684.2594 134.82812Q685.0563 134.14062 686.2125 134.14062Q687.4938 134.14062 688.3063 134.98438Q689.1344 135.8125 689.1344 137.29688Q689.1344 138.5 688.775 139.1875Q688.41565 139.875 687.7125 140.26562Q687.025 140.64062 686.2125 140.64062Q684.91565 140.64062 684.10315 139.8125Q683.3063 138.96875 683.3063 137.39062ZM684.3844 137.39062Q684.3844 138.57812 684.9 139.17188Q685.4313 139.76562 686.2125 139.76562Q687.0094 139.76562 687.525 139.17188Q688.04065 138.57812 688.04065 137.35938Q688.04065 136.20312 687.5094 135.60938Q686.9938 135.01562 686.2125 135.01562Q685.4313 135.01562 684.9 135.60938Q684.3844 136.1875 684.3844 137.39062ZM694.7594 138.21875L695.79065 138.35938Q695.6188 139.42188 694.91565 140.03125Q694.2125 140.64062 693.1969 140.64062Q691.91565 140.64062 691.1344 139.8125Q690.3688 138.96875 690.3688 137.40625Q690.3688 136.40625 690.6969 135.65625Q691.04065 134.89062 691.7125 134.51562Q692.4 134.14062 693.2125 134.14062Q694.2125 134.14062 694.85315 134.65625Q695.5094 135.15625 695.6969 136.10938L694.66565 136.26562Q694.525 135.64062 694.15 135.32812Q693.775 135.0 693.2438 135.0Q692.4469 135.0 691.9469 135.57812Q691.4469 136.14062 691.4469 137.375Q691.4469 138.64062 691.9313 139.20312Q692.41565 139.76562 693.1813 139.76562Q693.8063 139.76562 694.2125 139.39062Q694.6344 139.01562 694.7594 138.21875ZM696.6969 140.5L696.6969 131.90625L697.7594 131.90625L697.7594 136.8125L700.2438 134.28125L701.6188 134.28125L699.22815 136.57812L701.85315 140.5L700.5563 140.5L698.4938 137.3125L697.7594 138.03125L697.7594 140.5L696.6969 140.5ZM706.9469 138.5L708.04065 138.625Q707.79065 139.57812 707.0875 140.10938Q706.3844 140.64062 705.3063 140.64062Q703.9469 140.64062 703.1344 139.79688Q702.3375 138.95312 702.3375 137.4375Q702.3375 135.875 703.15 135.01562Q703.9625 134.14062 705.2438 134.14062Q706.4938 134.14062 707.275 134.98438Q708.0719 135.82812 708.0719 137.375Q708.0719 137.46875 708.0719 137.65625L703.4313 137.65625Q703.4938 138.6875 704.0094 139.23438Q704.525 139.76562 705.3063 139.76562Q705.8844 139.76562 706.29065 139.46875Q706.7125 139.15625 706.9469 138.5ZM703.4938 136.79688L706.9625 136.79688Q706.9 136.0 706.5719 135.60938Q706.0563 135.0 705.2594 135.0Q704.525 135.0 704.025 135.48438Q703.54065 135.96875 703.4938 136.79688ZM711.9938 139.5625L712.15 140.48438Q711.6969 140.57812 711.35315 140.57812Q710.775 140.57812 710.4625 140.40625Q710.15 140.21875 710.0094 139.92188Q709.8844 139.625 709.8844 138.67188L709.8844 135.09375L709.1188 135.09375L709.1188 134.28125L709.8844 134.28125L709.8844 132.73438L710.9313 132.10938L710.9313 134.28125L711.9938 134.28125L711.9938 135.09375L710.9313 135.09375L710.9313 138.73438Q710.9313 139.1875 710.97815 139.3125Q711.04065 139.4375 711.16565 139.51562Q711.29065 139.59375 711.525 139.59375Q711.7125 139.59375 711.9938 139.5625ZM713.66565 140.5L712.6813 140.5L712.6813 131.90625L713.7438 131.90625L713.7438 134.96875Q714.41565 134.14062 715.4469 134.14062Q716.025 134.14062 716.525 134.375Q717.04065 134.59375 717.3688 135.01562Q717.7125 135.4375 717.9 136.03125Q718.0875 136.625 718.0875 137.29688Q718.0875 138.89062 717.29065 139.76562Q716.4938 140.64062 715.4 140.64062Q714.29065 140.64062 713.66565 139.71875L713.66565 140.5ZM713.65 137.34375Q713.65 138.45312 713.9625 138.95312Q714.4625 139.76562 715.3063 139.76562Q715.9938 139.76562 716.4938 139.17188Q717.0094 138.57812 717.0094 137.375Q717.0094 136.15625 716.525 135.57812Q716.04065 135.0 715.35315 135.0Q714.66565 135.0 714.15 135.60938Q713.65 136.20312 713.65 137.34375ZM723.7594 139.73438Q723.16565 140.23438 722.6188 140.4375Q722.0875 140.64062 721.4625 140.64062Q720.4313 140.64062 719.8844 140.14062Q719.3375 139.64062 719.3375 138.85938Q719.3375 138.40625 719.54065 138.03125Q719.7438 137.64062 720.0875 137.42188Q720.4313 137.1875 720.85315 137.07812Q721.15 136.98438 721.79065 136.90625Q723.0563 136.76562 723.66565 136.54688Q723.66565 136.32812 723.66565 136.28125Q723.66565 135.625 723.3688 135.35938Q722.9625 135.01562 722.16565 135.01562Q721.4313 135.01562 721.0719 135.28125Q720.7125 135.53125 720.54065 136.1875L719.5094 136.04688Q719.65 135.39062 719.97815 134.98438Q720.3063 134.57812 720.91565 134.35938Q721.525 134.14062 722.3219 134.14062Q723.1188 134.14062 723.6188 134.32812Q724.1188 134.51562 724.35315 134.79688Q724.5875 135.07812 724.6813 135.51562Q724.72815 135.78125 724.72815 136.48438L724.72815 137.89062Q724.72815 139.35938 724.79065 139.75Q724.8688 140.14062 725.0719 140.5L723.9625 140.5Q723.8063 140.17188 723.7594 139.73438ZM723.66565 137.375Q723.0875 137.60938 721.9469 137.78125Q721.29065 137.875 721.025 138.0Q720.7594 138.10938 720.60315 138.32812Q720.4625 138.54688 720.4625 138.82812Q720.4625 139.25 720.775 139.53125Q721.10315 139.8125 721.7125 139.8125Q722.3219 139.8125 722.79065 139.54688Q723.275 139.28125 723.4938 138.8125Q723.66565 138.45312 723.66565 137.76562L723.66565 137.375ZM726.275 138.64062L727.3063 138.48438Q727.4 139.10938 727.79065 139.4375Q728.1969 139.76562 728.9313 139.76562Q729.65 139.76562 729.9938 139.48438Q730.35315 139.1875 730.35315 138.78125Q730.35315 138.42188 730.04065 138.21875Q729.8219 138.07812 728.9625 137.85938Q727.8063 137.5625 727.35315 137.35938Q726.91565 137.14062 726.6813 136.76562Q726.4469 136.39062 726.4469 135.92188Q726.4469 135.51562 726.6344 135.15625Q726.8219 134.79688 727.15 134.5625Q727.4 134.39062 727.8219 134.26562Q728.2438 134.14062 728.7438 134.14062Q729.4625 134.14062 730.0094 134.35938Q730.5719 134.5625 730.8375 134.92188Q731.10315 135.28125 731.1969 135.875L730.16565 136.01562Q730.10315 135.54688 729.7594 135.28125Q729.4313 135.0 728.8063 135.0Q728.0875 135.0 727.775 135.25Q727.4625 135.48438 727.4625 135.8125Q727.4625 136.01562 727.5875 136.17188Q727.72815 136.34375 727.9938 136.45312Q728.15 136.51562 728.9313 136.71875Q730.0563 137.03125 730.4938 137.21875Q730.9313 137.40625 731.1813 137.76562Q731.4313 138.125 731.4313 138.67188Q731.4313 139.20312 731.1188 139.67188Q730.8219 140.125 730.2438 140.39062Q729.66565 140.64062 728.9313 140.64062Q727.7125 140.64062 727.0719 140.14062Q726.4469 139.625 726.275 138.64062ZM737.9469 138.5L739.04065 138.625Q738.79065 139.57812 738.0875 140.10938Q737.3844 140.64062 736.3063 140.64062Q734.9469 140.64062 734.1344 139.79688Q733.3375 138.95312 733.3375 137.4375Q733.3375 135.875 734.15 135.01562Q734.9625 134.14062 736.2438 134.14062Q737.4938 134.14062 738.275 134.98438Q739.0719 135.82812 739.0719 137.375Q739.0719 137.46875 739.0719 137.65625L734.4313 137.65625Q734.4938 138.6875 735.0094 139.23438Q735.525 139.76562 736.3063 139.76562Q736.8844 139.76562 737.29065 139.46875Q737.7125 139.15625 737.9469 138.5ZM734.4938 136.79688L737.9625 136.79688Q737.9 136.0 737.5719 135.60938Q737.0563 135.0 736.2594 135.0Q735.525 135.0 735.025 135.48438Q734.54065 135.96875 734.4938 136.79688Z" fill-rule="nonzero"/><path fill="#d946ef" d="M596.9 160.5C596.9 163.8137 594.2137 166.5 590.9 166.5C587.5863 166.5 584.9 163.8137 584.9 160.5C584.9 157.1863 587.5863 154.5 590.9 154.5C594.2137 154.5 596.9 157.1863 596.9 160.5Z" fill-rule="nonzero"/><path fill="#1a1a1a" d="M605.8375 164.5L605.8375 155.90625L609.65 155.90625Q610.8063 155.90625 611.4 156.14062Q611.9938 156.375 612.35315 156.96875Q612.7125 157.54688 612.7125 158.25Q612.7125 159.17188 612.1188 159.79688Q611.525 160.42188 610.29065 160.59375Q610.7438 160.8125 610.97815 161.01562Q611.47815 161.46875 611.91565 162.15625L613.41565 164.5L611.97815 164.5L610.85315 162.71875Q610.35315 161.9375 610.025 161.53125Q609.7125 161.125 609.4469 160.96875Q609.1969 160.79688 608.9313 160.71875Q608.7438 160.6875 608.3063 160.6875L606.97815 160.6875L606.97815 164.5L605.8375 164.5ZM606.97815 159.70312L609.4313 159.70312Q610.1969 159.70312 610.6344 159.54688Q611.0875 159.375 611.3063 159.03125Q611.54065 158.67188 611.54065 158.25Q611.54065 157.64062 611.0875 157.25Q610.65 156.85938 609.6969 156.85938L606.97815 156.85938L606.97815 159.70312ZM618.7594 163.73438Q618.16565 164.23438 617.6188 164.4375Q617.0875 164.64062 616.4625 164.64062Q615.4313 164.64062 614.8844 164.14062Q614.3375 163.64062 614.3375 162.85938Q614.3375 162.40625 614.54065 162.03125Q614.7438 161.64062 615.0875 161.42188Q615.4313 161.1875 615.85315 161.07812Q616.15 160.98438 616.79065 160.90625Q618.0563 160.76562 618.66565 160.54688Q618.66565 160.32812 618.66565 160.28125Q618.66565 159.625 618.3688 159.35938Q617.9625 159.01562 617.16565 159.01562Q616.4313 159.01562 616.0719 159.28125Q615.7125 159.53125 615.54065 160.1875L614.5094 160.04688Q614.65 159.39062 614.97815 158.98438Q615.3063 158.57812 615.91565 158.35938Q616.525 158.14062 617.3219 158.14062Q618.1188 158.14062 618.6188 158.32812Q619.1188 158.51562 619.35315 158.79688Q619.5875 159.07812 619.6813 159.51562Q619.72815 159.78125 619.72815 160.48438L619.72815 161.89062Q619.72815 163.35938 619.79065 163.75Q619.8688 164.14062 620.0719 164.5L618.9625 164.5Q618.8063 164.17188 618.7594 163.73438ZM618.66565 161.375Q618.0875 161.60938 616.9469 161.78125Q616.29065 161.875 616.025 162.0Q615.7594 162.10938 615.60315 162.32812Q615.4625 162.54688 615.4625 162.82812Q615.4625 163.25 615.775 163.53125Q616.10315 163.8125 616.7125 163.8125Q617.3219 163.8125 617.79065 163.54688Q618.275 163.28125 618.4938 162.8125Q618.66565 162.45312 618.66565 161.76562L618.66565 161.375ZM621.6969 164.5L621.6969 158.28125L622.6344 158.28125L622.6344 159.15625Q623.3219 158.14062 624.6188 158.14062Q625.1813 158.14062 625.65 158.34375Q626.1344 158.54688 626.3688 158.875Q626.60315 159.20312 626.6969 159.64062Q626.7438 159.9375 626.7438 160.67188L626.7438 164.5L625.6969 164.5L625.6969 160.71875Q625.6969 160.0625 625.5719 159.75Q625.4469 159.4375 625.1344 159.25Q624.8219 159.04688 624.4 159.04688Q623.72815 159.04688 623.22815 159.48438Q622.7438 159.90625 622.7438 161.09375L622.7438 164.5L621.6969 164.5ZM632.72815 164.5L632.72815 163.71875Q632.1344 164.64062 630.9938 164.64062Q630.2438 164.64062 629.6188 164.23438Q628.9938 163.8125 628.65 163.07812Q628.3063 162.34375 628.3063 161.39062Q628.3063 160.46875 628.6188 159.70312Q628.9313 158.9375 629.5563 158.54688Q630.1813 158.14062 630.9469 158.14062Q631.5094 158.14062 631.9469 158.375Q632.3844 158.60938 632.66565 158.98438L632.66565 155.90625L633.7125 155.90625L633.7125 164.5L632.72815 164.5ZM629.4 161.39062Q629.4 162.59375 629.9 163.1875Q630.4 163.76562 631.0875 163.76562Q631.775 163.76562 632.2594 163.20312Q632.7438 162.64062 632.7438 161.48438Q632.7438 160.20312 632.2438 159.60938Q631.7594 159.01562 631.04065 159.01562Q630.3375 159.01562 629.8688 159.59375Q629.4 160.15625 629.4 161.39062ZM635.3063 161.39062Q635.3063 159.65625 636.2594 158.82812Q637.0563 158.14062 638.2125 158.14062Q639.4938 158.14062 640.3063 158.98438Q641.1344 159.8125 641.1344 161.29688Q641.1344 162.5 640.775 163.1875Q640.41565 163.875 639.7125 164.26562Q639.025 164.64062 638.2125 164.64062Q636.91565 164.64062 636.10315 163.8125Q635.3063 162.96875 635.3063 161.39062ZM636.3844 161.39062Q636.3844 162.57812 636.9 163.17188Q637.4313 163.76562 638.2125 163.76562Q639.0094 163.76562 639.525 163.17188Q640.04065 162.57812 640.04065 161.35938Q640.04065 160.20312 639.5094 159.60938Q638.9938 159.01562 638.2125 159.01562Q637.4313 159.01562 636.9 159.60938Q636.3844 160.1875 636.3844 161.39062ZM642.6969 164.5L642.6969 158.28125L643.6344 158.28125L643.6344 159.15625Q643.9313 158.6875 644.41565 158.42188Q644.9 158.14062 645.525 158.14062Q646.2125 158.14062 646.65 158.42188Q647.10315 158.70312 647.275 159.21875Q648.025 158.14062 649.1969 158.14062Q650.1344 158.14062 650.6188 158.65625Q651.1188 159.15625 651.1188 160.23438L651.1188 164.5L650.0719 164.5L650.0719 160.57812Q650.0719 159.95312 649.9625 159.67188Q649.8688 159.39062 649.60315 159.21875Q649.3375 159.04688 648.9625 159.04688Q648.3063 159.04688 647.8688 159.48438Q647.4469 159.92188 647.4469 160.89062L647.4469 164.5L646.3844 164.5L646.3844 160.45312Q646.3844 159.75 646.1188 159.40625Q645.8688 159.04688 645.29065 159.04688Q644.8375 159.04688 644.4625 159.28125Q644.0875 159.51562 643.91565 159.96875Q643.7438 160.42188 643.7438 161.26562L643.7438 164.5L642.6969 164.5ZM653.4469 161.73438L654.5094 161.64062Q654.5875 162.29688 654.8688 162.70312Q655.15 163.10938 655.72815 163.375Q656.3219 163.625 657.0563 163.625Q657.6969 163.625 658.1969 163.4375Q658.6969 163.23438 658.9313 162.90625Q659.1813 162.5625 659.1813 162.17188Q659.1813 161.76562 658.9469 161.46875Q658.7125 161.15625 658.1813 160.95312Q657.8219 160.8125 656.6344 160.53125Q655.4625 160.25 654.9938 160.0Q654.3688 159.67188 654.0719 159.20312Q653.775 158.71875 653.775 158.125Q653.775 157.48438 654.1344 156.92188Q654.5094 156.34375 655.2125 156.0625Q655.9313 155.76562 656.79065 155.76562Q657.7438 155.76562 658.47815 156.07812Q659.2125 156.375 659.60315 156.98438Q659.9938 157.57812 660.025 158.32812L658.9313 158.40625Q658.8375 157.59375 658.3219 157.1875Q657.8219 156.76562 656.8375 156.76562Q655.8063 156.76562 655.3375 157.14062Q654.8688 157.51562 654.8688 158.04688Q654.8688 158.51562 655.1969 158.8125Q655.525 159.10938 656.9 159.42188Q658.29065 159.73438 658.8063 159.96875Q659.5563 160.32812 659.91565 160.85938Q660.275 161.375 660.275 162.07812Q660.275 162.76562 659.8844 163.375Q659.4938 163.96875 658.7594 164.3125Q658.025 164.64062 657.10315 164.64062Q655.9313 164.64062 655.1344 164.3125Q654.35315 163.96875 653.9 163.28125Q653.4625 162.59375 653.4469 161.73438ZM665.7594 163.73438Q665.16565 164.23438 664.6188 164.4375Q664.0875 164.64062 663.4625 164.64062Q662.4313 164.64062 661.8844 164.14062Q661.3375 163.64062 661.3375 162.85938Q661.3375 162.40625 661.54065 162.03125Q661.7438 161.64062 662.0875 161.42188Q662.4313 161.1875 662.85315 161.07812Q663.15 160.98438 663.79065 160.90625Q665.0563 160.76562 665.66565 160.54688Q665.66565 160.32812 665.66565 160.28125Q665.66565 159.625 665.3688 159.35938Q664.9625 159.01562 664.16565 159.01562Q663.4313 159.01562 663.0719 159.28125Q662.7125 159.53125 662.54065 160.1875L661.5094 160.04688Q661.65 159.39062 661.97815 158.98438Q662.3063 158.57812 662.91565 158.35938Q663.525 158.14062 664.3219 158.14062Q665.1188 158.14062 665.6188 158.32812Q666.1188 158.51562 666.35315 158.79688Q666.5875 159.07812 666.6813 159.51562Q666.72815 159.78125 666.72815 160.48438L666.72815 161.89062Q666.72815 163.35938 666.79065 163.75Q666.8688 164.14062 667.0719 164.5L665.9625 164.5Q665.8063 164.17188 665.7594 163.73438ZM665.66565 161.375Q665.0875 161.60938 663.9469 161.78125Q663.29065 161.875 663.025 162.0Q662.7594 162.10938 662.60315 162.32812Q662.4625 162.54688 662.4625 162.82812Q662.4625 163.25 662.775 163.53125Q663.10315 163.8125 663.7125 163.8125Q664.3219 163.8125 664.79065 163.54688Q665.275 163.28125 665.4938 162.8125Q665.66565 162.45312 665.66565 161.76562L665.66565 161.375ZM669.66565 164.5L668.6813 164.5L668.6813 155.90625L669.7438 155.90625L669.7438 158.96875Q670.41565 158.14062 671.4469 158.14062Q672.025 158.14062 672.525 158.375Q673.04065 158.59375 673.3688 159.01562Q673.7125 159.4375 673.9 160.03125Q674.0875 160.625 674.0875 161.29688Q674.0875 162.89062 673.29065 163.76562Q672.4938 164.64062 671.4 164.64062Q670.29065 164.64062 669.66565 163.71875L669.66565 164.5ZM669.65 161.34375Q669.65 162.45312 669.9625 162.95312Q670.4625 163.76562 671.3063 163.76562Q671.9938 163.76562 672.4938 163.17188Q673.0094 162.57812 673.0094 161.375Q673.0094 160.15625 672.525 159.57812Q672.04065 159.0 671.35315 159.0Q670.66565 159.0 670.15 159.60938Q669.65 160.20312 669.65 161.34375ZM679.9469 162.5L681.04065 162.625Q680.79065 163.57812 680.0875 164.10938Q679.3844 164.64062 678.3063 164.64062Q676.9469 164.64062 676.1344 163.79688Q675.3375 162.95312 675.3375 161.4375Q675.3375 159.875 676.15 159.01562Q676.9625 158.14062 678.2438 158.14062Q679.4938 158.14062 680.275 158.98438Q681.0719 159.82812 681.0719 161.375Q681.0719 161.46875 681.0719 161.65625L676.4313 161.65625Q676.4938 162.6875 677.0094 163.23438Q677.525 163.76562 678.3063 163.76562Q678.8844 163.76562 679.29065 163.46875Q679.7125 163.15625 679.9469 162.5ZM676.4938 160.79688L679.9625 160.79688Q679.9 160.0 679.5719 159.60938Q679.0563 159.0 678.2594 159.0Q677.525 159.0 677.025 159.48438Q676.54065 159.96875 676.4938 160.79688ZM682.6813 164.5L682.6813 158.28125L683.6344 158.28125L683.6344 159.21875Q683.9938 158.5625 684.29065 158.35938Q684.60315 158.14062 684.97815 158.14062Q685.5094 158.14062 686.0563 158.46875L685.6969 159.45312Q685.3063 159.21875 684.9313 159.21875Q684.5719 159.21875 684.29065 159.4375Q684.025 159.64062 683.91565 160.01562Q683.72815 160.57812 683.72815 161.23438L683.72815 164.5L682.6813 164.5Z" fill-rule="nonzero"/><path fill="#a3a3a3" d="M596.9 184.5C596.9 187.8137 594.2137 190.5 590.9 190.5C587.5863 190.5 584.9 187.8137 584.9 184.5C584.9 181.1863 587.5863 178.5 590.9 178.5C594.2137 178.5 596.9 181.1863 596.9 184.5Z" fill-rule="nonzero"/><path fill="#1a1a1a" d="M605.47815 184.3125Q605.47815 182.17188 606.6188 180.96875Q607.775 179.75 609.5875 179.75Q610.79065 179.75 611.7438 180.32812Q612.6969 180.89062 613.1969 181.90625Q613.6969 182.92188 613.6969 184.21875Q613.6969 185.51562 613.16565 186.54688Q612.6344 187.57812 611.66565 188.10938Q610.7125 188.64062 609.5875 188.64062Q608.3688 188.64062 607.41565 188.0625Q606.4625 187.46875 605.9625 186.46875Q605.47815 185.45312 605.47815 184.3125ZM606.65 184.32812Q606.65 185.89062 607.47815 186.78125Q608.3219 187.67188 609.5875 187.67188Q610.8688 187.67188 611.6969 186.78125Q612.525 185.875 612.525 184.20312Q612.525 183.15625 612.16565 182.375Q611.8219 181.59375 611.1344 181.17188Q610.4469 180.73438 609.60315 180.73438Q608.4 180.73438 607.525 181.5625Q606.65 182.39062 606.65 184.32812ZM616.9938 187.5625L617.15 188.48438Q616.6969 188.57812 616.35315 188.57812Q615.775 188.57812 615.4625 188.40625Q615.15 188.21875 615.0094 187.92188Q614.8844 187.625 614.8844 186.67188L614.8844 183.09375L614.1188 183.09375L614.1188 182.28125L614.8844 182.28125L614.8844 180.73438L615.9313 180.10938L615.9313 182.28125L616.9938 182.28125L616.9938 183.09375L615.9313 183.09375L615.9313 186.73438Q615.9313 187.1875 615.97815 187.3125Q616.04065 187.4375 616.16565 187.51562Q616.29065 187.59375 616.525 187.59375Q616.7125 187.59375 616.9938 187.5625ZM617.6969 188.5L617.6969 179.90625L618.7438 179.90625L618.7438 182.98438Q619.47815 182.14062 620.60315 182.14062Q621.3063 182.14062 621.8063 182.42188Q622.3219 182.6875 622.54065 183.17188Q622.7594 183.64062 622.7594 184.5625L622.7594 188.5L621.7125 188.5L621.7125 184.5625Q621.7125 183.76562 621.3688 183.40625Q621.025 183.04688 620.4 183.04688Q619.9313 183.04688 619.5094 183.29688Q619.10315 183.53125 618.91565 183.95312Q618.7438 184.35938 618.7438 185.09375L618.7438 188.5L617.6969 188.5ZM628.9469 186.5L630.04065 186.625Q629.79065 187.57812 629.0875 188.10938Q628.3844 188.64062 627.3063 188.64062Q625.9469 188.64062 625.1344 187.79688Q624.3375 186.95312 624.3375 185.4375Q624.3375 183.875 625.15 183.01562Q625.9625 182.14062 627.2438 182.14062Q628.4938 182.14062 629.275 182.98438Q630.0719 183.82812 630.0719 185.375Q630.0719 185.46875 630.0719 185.65625L625.4313 185.65625Q625.4938 186.6875 626.0094 187.23438Q626.525 187.76562 627.3063 187.76562Q627.8844 187.76562 628.29065 187.46875Q628.7125 187.15625 628.9469 186.5ZM625.4938 184.79688L628.9625 184.79688Q628.9 184.0 628.5719 183.60938Q628.0563 183.0 627.2594 183.0Q626.525 183.0 626.025 183.48438Q625.54065 183.96875 625.4938 184.79688ZM631.6813 188.5L631.6813 182.28125L632.6344 182.28125L632.6344 183.21875Q632.9938 182.5625 633.29065 182.35938Q633.60315 182.14062 633.97815 182.14062Q634.5094 182.14062 635.0563 182.46875L634.6969 183.45312Q634.3063 183.21875 633.9313 183.21875Q633.5719 183.21875 633.29065 183.4375Q633.025 183.64062 632.91565 184.01562Q632.72815 184.57812 632.72815 185.23438L632.72815 188.5L631.6813 188.5ZM635.275 186.64062L636.3063 186.48438Q636.4 187.10938 636.79065 187.4375Q637.1969 187.76562 637.9313 187.76562Q638.65 187.76562 638.9938 187.48438Q639.35315 187.1875 639.35315 186.78125Q639.35315 186.42188 639.04065 186.21875Q638.8219 186.07812 637.9625 185.85938Q636.8063 185.5625 636.35315 185.35938Q635.91565 185.14062 635.6813 184.76562Q635.4469 184.39062 635.4469 183.92188Q635.4469 183.51562 635.6344 183.15625Q635.8219 182.79688 636.15 182.5625Q636.4 182.39062 636.8219 182.26562Q637.2438 182.14062 637.7438 182.14062Q638.4625 182.14062 639.0094 182.35938Q639.5719 182.5625 639.8375 182.92188Q640.10315 183.28125 640.1969 183.875L639.16565 184.01562Q639.10315 183.54688 638.7594 183.28125Q638.4313 183.0 637.8063 183.0Q637.0875 183.0 636.775 183.25Q636.4625 183.48438 636.4625 183.8125Q636.4625 184.01562 636.5875 184.17188Q636.72815 184.34375 636.9938 184.45312Q637.15 184.51562 637.9313 184.71875Q639.0563 185.03125 639.4938 185.21875Q639.9313 185.40625 640.1813 185.76562Q640.4313 186.125 640.4313 186.67188Q640.4313 187.20312 640.1188 187.67188Q639.8219 188.125 639.2438 188.39062Q638.66565 188.64062 637.9313 188.64062Q636.7125 188.64062 636.0719 188.14062Q635.4469 187.625 635.275 186.64062Z" fill-rule="nonzero"/><path fill="#757575" d="M307.6875 39.1L307.6875 26.474998L302.96875 26.474998L302.96875 24.787498L314.3125 24.787498L314.3125 26.474998L309.57812 26.474998L309.57812 39.1L307.6875 39.1ZM315.17188 33.9125Q315.17188 31.037498 316.76562 29.646873Q318.10938 28.490623 320.03125 28.490623Q322.17188 28.490623 323.51562 29.896873Q324.875 31.303123 324.875 33.771873Q324.875 35.771873 324.28125 36.928123Q323.6875 38.06875 322.53125 38.709373Q321.39062 39.334373 320.03125 39.334373Q317.84375 39.334373 316.5 37.94375Q315.17188 36.5375 315.17188 33.9125ZM316.96875 33.9125Q316.96875 35.9125 317.82812 36.896873Q318.70312 37.88125 320.03125 37.88125Q321.34375 37.88125 322.20312 36.896873Q323.07812 35.896873 323.07812 33.85Q323.07812 31.928123 322.20312 30.943748Q321.32812 29.943748 320.03125 29.943748Q318.70312 29.943748 317.82812 30.943748Q316.96875 31.928123 316.96875 33.9125ZM326.8125 43.06875L326.8125 28.724998L328.42188 28.724998L328.42188 30.068748Q328.98438 29.287498 329.6875 28.896873Q330.40625 28.490623 331.42188 28.490623Q332.75 28.490623 333.76562 29.178123Q334.78125 29.865623 335.29688 31.115623Q335.82812 32.35 335.82812 33.834373Q335.82812 35.428123 335.25 36.709373Q334.6875 37.975 333.59375 38.6625Q332.5 39.334373 331.29688 39.334373Q330.42188 39.334373 329.71875 38.959373Q329.03125 38.584373 328.57812 38.021873L328.57812 43.06875L326.8125 43.06875ZM328.40625 33.975Q328.40625 35.975 329.21875 36.928123Q330.03125 37.88125 331.1875 37.88125Q332.35938 37.88125 333.1875 36.896873Q334.03125 35.9125 334.03125 33.81875Q334.03125 31.849998 333.20312 30.865623Q332.39062 29.865623 331.26562 29.865623Q330.14062 29.865623 329.26562 30.928123Q328.40625 31.974998 328.40625 33.975ZM343.32812 35.35L345.17188 35.19375Q345.375 36.5375 346.125 37.225Q346.875 37.896873 347.9375 37.896873Q349.20312 37.896873 350.07812 36.94375Q350.95312 35.990623 350.95312 34.396873Q350.95312 32.896873 350.10938 32.0375Q349.26562 31.162498 347.90625 31.162498Q347.04688 31.162498 346.35938 31.553123Q345.6875 31.928123 345.29688 32.553123L343.64062 32.334373L345.03125 24.974998L352.15625 24.974998L352.15625 26.662498L346.4375 26.662498L345.67188 30.506248Q346.95312 29.599998 348.375 29.599998Q350.25 29.599998 351.53125 30.912498Q352.82812 32.209373 352.82812 34.240623Q352.82812 36.19375 351.6875 37.6Q350.3125 39.35 347.9375 39.35Q345.98438 39.35 344.73438 38.25625Q343.5 37.1625 343.32812 35.35ZM360.8125 43.06875L360.8125 28.724998L362.42188 28.724998L362.42188 30.068748Q362.98438 29.287498 363.6875 28.896873Q364.40625 28.490623 365.42188 28.490623Q366.75 28.490623 367.76562 29.178123Q368.78125 29.865623 369.29688 31.115623Q369.82812 32.35 369.82812 33.834373Q369.82812 35.428123 369.25 36.709373Q368.6875 37.975 367.59375 38.6625Q366.5 39.334373 365.29688 39.334373Q364.42188 39.334373 363.71875 38.959373Q363.03125 38.584373 362.57812 38.021873L362.57812 43.06875L360.8125 43.06875ZM362.40625 33.975Q362.40625 35.975 363.21875 36.928123Q364.03125 37.88125 365.1875 37.88125Q366.35938 37.88125 367.1875 36.896873Q368.03125 35.9125 368.03125 33.81875Q368.03125 31.849998 367.20312 30.865623Q366.39062 29.865623 365.26562 29.865623Q364.14062 29.865623 363.26562 30.928123Q362.40625 31.974998 362.40625 33.975ZM371.79688 39.1L371.79688 28.724998L373.375 28.724998L373.375 30.303123Q373.98438 29.193748 374.5 28.849998Q375.01562 28.490623 375.625 28.490623Q376.51562 28.490623 377.4375 29.053123L376.82812 30.693748Q376.1875 30.303123 375.54688 30.303123Q374.96875 30.303123 374.5 30.662498Q374.04688 31.006248 373.84375 31.615623Q373.5625 32.553123 373.5625 33.6625L373.5625 39.1L371.79688 39.1ZM378.17188 33.9125Q378.17188 31.037498 379.76562 29.646873Q381.10938 28.490623 383.03125 28.490623Q385.17188 28.490623 386.51562 29.896873Q387.875 31.303123 387.875 33.771873Q387.875 35.771873 387.28125 36.928123Q386.6875 38.06875 385.53125 38.709373Q384.39062 39.334373 383.03125 39.334373Q380.84375 39.334373 379.5 37.94375Q378.17188 36.5375 378.17188 33.9125ZM379.96875 33.9125Q379.96875 35.9125 380.82812 36.896873Q381.70312 37.88125 383.03125 37.88125Q384.34375 37.88125 385.20312 36.896873Q386.07812 35.896873 386.07812 33.85Q386.07812 31.928123 385.20312 30.943748Q384.32812 29.943748 383.03125 29.943748Q381.70312 29.943748 380.82812 30.943748Q379.96875 31.928123 379.96875 33.9125ZM389.8125 26.818748L389.8125 24.787498L391.5625 24.787498L391.5625 26.818748L389.8125 26.818748ZM387.57812 43.13125L387.90625 41.63125Q388.4375 41.771873 388.75 41.771873Q389.28125 41.771873 389.54688 41.4125Q389.8125 41.053123 389.8125 39.63125L389.8125 28.724998L391.5625 28.724998L391.5625 39.6625Q391.5625 41.584373 391.0625 42.334373Q390.4375 43.303123 388.95312 43.303123Q388.25 43.303123 387.57812 43.13125ZM400.92188 35.75625L402.73438 35.990623Q402.3125 37.56875 401.14062 38.459373Q399.98438 39.334373 398.17188 39.334373Q395.90625 39.334373 394.5625 37.94375Q393.23438 36.5375 393.23438 34.00625Q393.23438 31.381248 394.57812 29.943748Q395.92188 28.490623 398.07812 28.490623Q400.15625 28.490623 401.46875 29.912498Q402.79688 31.318748 402.79688 33.896873Q402.79688 34.053123 402.78125 34.365623L395.04688 34.365623Q395.14062 36.06875 396.01562 36.975Q396.89062 37.88125 398.1875 37.88125Q399.15625 37.88125 399.82812 37.38125Q400.51562 36.865623 400.92188 35.75625ZM395.14062 32.9125L400.9375 32.9125Q400.82812 31.615623 400.28125 30.959373Q399.4375 29.943748 398.09375 29.943748Q396.89062 29.943748 396.0625 30.756248Q395.23438 31.553123 395.14062 32.9125ZM411.59375 35.303123L413.3125 35.521873Q413.03125 37.31875 411.85938 38.334373Q410.70312 39.334373 409.0 39.334373Q406.875 39.334373 405.57812 37.94375Q404.28125 36.553123 404.28125 33.959373Q404.28125 32.271873 404.82812 31.021873Q405.39062 29.756248 406.53125 29.131248Q407.67188 28.490623 409.01562 28.490623Q410.70312 28.490623 411.76562 29.349998Q412.84375 30.209373 413.15625 31.771873L411.4375 32.0375Q411.20312 30.990623 410.57812 30.474998Q409.95312 29.943748 409.07812 29.943748Q407.75 29.943748 406.92188 30.896873Q406.09375 31.849998 406.09375 33.896873Q406.09375 35.990623 406.89062 36.94375Q407.6875 37.88125 408.98438 37.88125Q410.01562 37.88125 410.70312 37.25625Q411.40625 36.615623 411.59375 35.303123ZM418.65625 37.521873L418.90625 39.084373Q418.17188 39.240623 417.57812 39.240623Q416.625 39.240623 416.09375 38.94375Q415.57812 38.63125 415.35938 38.146873Q415.14062 37.646873 415.14062 36.06875L415.14062 30.099998L413.85938 30.099998L413.85938 28.724998L415.14062 28.724998L415.14062 26.162498L416.89062 25.099998L416.89062 28.724998L418.65625 28.724998L418.65625 30.099998L416.89062 30.099998L416.89062 36.1625Q416.89062 36.9125 416.98438 37.13125Q417.07812 37.334373 417.28125 37.475Q417.5 37.6 417.89062 37.6Q418.17188 37.6 418.65625 37.521873ZM420.10938 36.00625L421.85938 35.725Q422.0 36.771873 422.67188 37.334373Q423.34375 37.88125 424.54688 37.88125Q425.75 37.88125 426.32812 37.396873Q426.92188 36.896873 426.92188 36.240623Q426.92188 35.646873 426.40625 35.303123Q426.04688 35.06875 424.60938 34.709373Q422.67188 34.209373 421.92188 33.865623Q421.1875 33.50625 420.79688 32.88125Q420.40625 32.240623 420.40625 31.474998Q420.40625 30.787498 420.71875 30.193748Q421.04688 29.599998 421.59375 29.209373Q422.0 28.912498 422.70312 28.709373Q423.42188 28.490623 424.23438 28.490623Q425.45312 28.490623 426.375 28.849998Q427.29688 29.193748 427.73438 29.803123Q428.17188 30.396873 428.34375 31.396873L426.625 31.631248Q426.5 30.834373 425.9375 30.396873Q425.375 29.943748 424.35938 29.943748Q423.14062 29.943748 422.625 30.349998Q422.10938 30.740623 422.10938 31.271873Q422.10938 31.615623 422.32812 31.896873Q422.53125 32.178123 423.0 32.365623Q423.26562 32.459373 424.54688 32.803123Q426.42188 33.303123 427.15625 33.63125Q427.89062 33.94375 428.3125 34.553123Q428.73438 35.146873 428.73438 36.053123Q428.73438 36.928123 428.21875 37.709373Q427.70312 38.490623 426.73438 38.9125Q425.76562 39.334373 424.54688 39.334373Q422.53125 39.334373 421.46875 38.490623Q420.40625 37.646873 420.10938 36.00625ZM438.4375 39.1L436.8125 39.1L436.8125 24.787498L438.5625 24.787498L438.5625 29.896873Q439.6875 28.490623 441.40625 28.490623Q442.35938 28.490623 443.21875 28.881248Q444.07812 29.271873 444.625 29.974998Q445.17188 30.662498 445.48438 31.646873Q445.79688 32.63125 445.79688 33.75625Q445.79688 36.428123 444.48438 37.88125Q443.17188 39.334373 441.32812 39.334373Q439.48438 39.334373 438.4375 37.803123L438.4375 39.1ZM438.42188 33.834373Q438.42188 35.69375 438.92188 36.5375Q439.76562 37.88125 441.17188 37.88125Q442.32812 37.88125 443.15625 36.88125Q444.0 35.88125 444.0 33.896873Q444.0 31.865623 443.1875 30.912498Q442.39062 29.943748 441.25 29.943748Q440.09375 29.943748 439.25 30.943748Q438.42188 31.943748 438.42188 33.834373ZM447.73438 43.1L447.54688 41.44375Q448.125 41.6 448.54688 41.6Q449.14062 41.6 449.48438 41.396873Q449.84375 41.209373 450.0625 40.865623Q450.23438 40.6 450.60938 39.553123Q450.65625 39.396873 450.76562 39.115623L446.82812 28.724998L448.71875 28.724998L450.875 34.740623Q451.29688 35.88125 451.625 37.13125Q451.9375 35.928123 452.34375 34.771873L454.5625 28.724998L456.32812 28.724998L452.375 39.271873Q451.75 40.990623 451.39062 41.63125Q450.92188 42.50625 450.3125 42.896873Q449.71875 43.303123 448.875 43.303123Q448.35938 43.303123 447.73438 43.1ZM466.70312 39.1L462.75 28.724998L464.60938 28.724998L466.84375 34.94375Q467.20312 35.94375 467.5 37.021873Q467.73438 36.209373 468.15625 35.053123L470.45312 28.724998L472.26562 28.724998L468.34375 39.1L466.70312 39.1ZM472.82812 26.803123L472.82812 24.787498L474.59375 24.787498L474.59375 26.803123L472.82812 26.803123ZM472.82812 39.1L472.82812 28.724998L474.59375 28.724998L474.59375 39.1L472.82812 39.1ZM483.92188 35.75625L485.73438 35.990623Q485.3125 37.56875 484.14062 38.459373Q482.98438 39.334373 481.17188 39.334373Q478.90625 39.334373 477.5625 37.94375Q476.23438 36.5375 476.23438 34.00625Q476.23438 31.381248 477.57812 29.943748Q478.92188 28.490623 481.07812 28.490623Q483.15625 28.490623 484.46875 29.912498Q485.79688 31.318748 485.79688 33.896873Q485.79688 34.053123 485.78125 34.365623L478.04688 34.365623Q478.14062 36.06875 479.01562 36.975Q479.89062 37.88125 481.1875 37.88125Q482.15625 37.88125 482.82812 37.38125Q483.51562 36.865623 483.92188 35.75625ZM478.14062 32.9125L483.9375 32.9125Q483.82812 31.615623 483.28125 30.959373Q482.4375 29.943748 481.09375 29.943748Q479.89062 29.943748 479.0625 30.756248Q478.23438 31.553123 478.14062 32.9125ZM489.73438 39.1L486.5625 28.724998L488.375 28.724998L490.03125 34.709373L490.64062 36.94375Q490.6875 36.771873 491.17188 34.803123L492.82812 28.724998L494.64062 28.724998L496.1875 34.740623L496.70312 36.725L497.29688 34.725L499.07812 28.724998L500.78125 28.724998L497.54688 39.1L495.71875 39.1L494.0625 32.88125L493.67188 31.115623L491.5625 39.1L489.73438 39.1ZM502.10938 36.00625L503.85938 35.725Q504.0 36.771873 504.67188 37.334373Q505.34375 37.88125 506.54688 37.88125Q507.75 37.88125 508.32812 37.396873Q508.92188 36.896873 508.92188 36.240623Q508.92188 35.646873 508.40625 35.303123Q508.04688 35.06875 506.60938 34.709373Q504.67188 34.209373 503.92188 33.865623Q503.1875 33.50625 502.79688 32.88125Q502.40625 32.240623 502.40625 31.474998Q502.40625 30.787498 502.71875 30.193748Q503.04688 29.599998 503.59375 29.209373Q504.0 28.912498 504.70312 28.709373Q505.42188 28.490623 506.23438 28.490623Q507.45312 28.490623 508.375 28.849998Q509.29688 29.193748 509.73438 29.803123Q510.17188 30.396873 510.34375 31.396873L508.625 31.631248Q508.5 30.834373 507.9375 30.396873Q507.375 29.943748 506.35938 29.943748Q505.14062 29.943748 504.625 30.349998Q504.10938 30.740623 504.10938 31.271873Q504.10938 31.615623 504.32812 31.896873Q504.53125 32.178123 505.0 32.365623Q505.26562 32.459373 506.54688 32.803123Q508.42188 33.303123 509.15625 33.63125Q509.89062 33.94375 510.3125 34.553123Q510.73438 35.146873 510.73438 36.053123Q510.73438 36.928123 510.21875 37.709373Q509.70312 38.490623 508.73438 38.9125Q507.76562 39.334373 506.54688 39.334373Q504.53125 39.334373 503.46875 38.490623Q502.40625 37.646873 502.10938 36.00625Z" fill-rule="nonzero"/></svg>