<svg version="1.1" viewBox="0.0 0.0 810.0 402.0" fill="none" stroke="none" stroke-linecap="square" stroke-miterlimit="10" width="810" height="402" xmlns:xlink="http://www.w3.org/1999/xlink" xmlns="http://www.w3.org/2000/svg"><path fill="#ffffff" d="M0 0L810.0 0L810.0 402.0L0 402.0L0 0Z" fill-rule="nonzero"/><path fill="#f59e0b" d="M340.79898 57.771893C343.92493 57.590668 347.05548 57.5 350.18668 57.5L350.18668 138.6C348.62106 138.6 347.0558 138.64534 345.49283 138.73595Z" fill-rule="nonzero"/><path fill="#ef4444" d="M202.5558 152.51393C227.48819 97.72893 280.70834 61.25561 340.79898 57.771893L345.49283 138.73595C315.4475 140.4778 288.83743 158.71446 276.37125 186.10696Z" fill-rule="nonzero"/><path fill="#2563eb" d="M350.18668 57.5C422.14737 57.5 485.505 104.91267 505.8014 173.95178C526.0978 242.99089 498.47995 317.14886 437.96838 356.0936C377.45682 395.0383 298.52005 389.4579 244.08931 342.38736C189.65855 295.31683 172.74843 218.01097 202.5558 152.51393L276.37125 186.10696C261.46756 218.85548 269.9226 257.50842 297.138 281.04367C324.35336 304.57895 363.82175 307.36914 394.0775 287.8968C424.3333 268.42444 438.1422 231.34544 427.99402 196.82588C417.84583 162.30634 386.16702 138.6 350.18668 138.6Z" fill-rule="nonzero"/><path fill="#000000" d="M399.42465 321.82465Q398.67465 321.51215 398.3309 320.96527Q398.00278 320.40277 398.00278 319.74652Q398.00278 318.63715 398.78403 317.90277Q399.56528 317.1684 401.00278 317.1684Q402.42465 317.1684 403.22153 317.90277Q404.0184 318.63715 404.0184 319.74652Q404.0184 320.44965 403.6434 320.99652Q403.28403 321.5434 402.62778 321.82465Q403.47153 322.15277 403.8934 322.80902Q404.3309 323.44965 404.3309 324.27777Q404.3309 325.6684 403.44028 326.5434Q402.56528 327.40277 401.09653 327.40277Q399.72153 327.40277 398.81528 326.68402Q397.73715 325.84027 397.73715 324.37152Q397.73715 323.55902 398.1434 322.88715Q398.54965 322.19965 399.42465 321.82465ZM399.81528 319.88715Q399.81528 320.46527 400.12778 320.7934Q400.4559 321.1059 401.00278 321.1059Q401.54965 321.1059 401.87778 320.77777Q402.2059 320.44965 402.2059 319.88715Q402.2059 319.34027 401.87778 319.02777Q401.54965 318.69965 401.0184 318.69965Q400.47153 318.69965 400.1434 319.02777Q399.81528 319.3559 399.81528 319.88715ZM399.6434 324.18402Q399.6434 324.9809 400.04965 325.4184Q400.4559 325.8559 401.06528 325.8559Q401.65903 325.8559 402.03403 325.43402Q402.42465 325.01215 402.42465 324.19965Q402.42465 323.49652 402.03403 323.07465Q401.6434 322.63715 401.03403 322.63715Q400.3309 322.63715 399.98715 323.13715Q399.6434 323.62152 399.6434 324.18402ZM410.69028 327.2309L408.7684 327.2309L408.7684 319.99652Q407.7059 320.9809 406.28403 321.44965L406.28403 319.69965Q407.03403 319.46527 407.90903 318.77777Q408.79965 318.09027 409.12778 317.1684L410.69028 317.1684L410.69028 327.2309ZM414.17465 327.2309L414.17465 325.30902L416.09653 325.30902L416.09653 327.2309L414.17465 327.2309ZM419.42465 321.82465Q418.67465 321.51215 418.3309 320.96527Q418.00278 320.40277 418.00278 319.74652Q418.00278 318.63715 418.78403 317.90277Q419.56528 317.1684 421.00278 317.1684Q422.42465 317.1684 423.22153 317.90277Q424.0184 318.63715 424.0184 319.74652Q424.0184 320.44965 423.6434 320.99652Q423.28403 321.5434 422.62778 321.82465Q423.47153 322.15277 423.8934 322.80902Q424.3309 323.44965 424.3309 324.27777Q424.3309 325.6684 423.44028 326.5434Q422.56528 327.40277 421.09653 327.40277Q419.72153 327.40277 418.81528 326.68402Q417.73715 325.84027 417.73715 324.37152Q417.73715 323.55902 418.1434 322.88715Q418.54965 322.19965 419.42465 321.82465ZM419.81528 319.88715Q419.81528 320.46527 420.12778 320.7934Q420.4559 321.1059 421.00278 321.1059Q421.54965 321.1059 421.87778 320.77777Q422.2059 320.44965 422.2059 319.88715Q422.2059 319.34027 421.87778 319.02777Q421.54965 318.69965 421.0184 318.69965Q420.47153 318.69965 420.1434 319.02777Q419.81528 319.3559 419.81528 319.88715ZM419.6434 324.18402Q419.6434 324.9809 420.04965 325.4184Q420.4559 325.8559 421.06528 325.8559Q421.65903 325.8559 422.03403 325.43402Q422.42465 325.01215 422.42465 324.19965Q422.42465 323.49652 422.03403 323.07465Q421.6434 322.63715 421.03403 322.63715Q420.3309 322.63715 419.98715 323.13715Q419.6434 323.62152 419.6434 324.18402ZM425.78403 319.68402Q425.78403 318.34027 426.37778 317.69965Q426.97153 317.0434 427.97153 317.0434Q429.0184 317.0434 429.61215 317.68402Q430.2059 318.32465 430.2059 319.68402Q430.2059 321.02777 429.61215 321.68402Q429.0184 322.32465 428.0184 322.32465Q426.97153 322.32465 426.37778 321.68402Q425.78403 321.0434 425.78403 319.68402ZM427.28403 319.6684Q427.28403 320.65277 427.50278 320.9809Q427.67465 321.2309 427.97153 321.2309Q428.28403 321.2309 428.4559 320.9809Q428.67465 320.65277 428.67465 319.6684Q428.67465 318.69965 428.4559 318.37152Q428.28403 318.1059 427.97153 318.1059Q427.67465 318.1059 427.50278 318.3559Q427.28403 318.69965 427.28403 319.6684ZM429.44028 327.62152L428.0184 327.62152L433.36215 317.0434L434.73715 317.0434L429.44028 327.62152ZM432.54965 324.9809Q432.54965 323.63715 433.12778 322.99652Q433.72153 322.34027 434.75278 322.34027Q435.78403 322.34027 436.37778 322.99652Q436.97153 323.63715 436.97153 324.9809Q436.97153 326.34027 436.37778 326.99652Q435.78403 327.63715 434.7684 327.63715Q433.72153 327.63715 433.12778 326.99652Q432.54965 326.34027 432.54965 324.9809ZM434.03403 324.9809Q434.03403 325.94965 434.2684 326.27777Q434.44028 326.52777 434.73715 326.52777Q435.04965 326.52777 435.2059 326.2934Q435.44028 325.94965 435.44028 324.9809Q435.44028 323.99652 435.22153 323.6684Q435.04965 323.4184 434.73715 323.4184Q434.42465 323.4184 434.2684 323.6684Q434.03403 323.99652 434.03403 324.9809Z" fill-rule="nonzero"/><path fill="#000000" d="M267.93207 124.3537L266.0102 124.3537L266.0102 117.11932Q264.9477 118.1037 263.52582 118.57245L263.52582 116.82245Q264.27582 116.58807 265.15082 115.90057Q266.04144 115.21307 266.36957 114.2912L267.93207 114.2912L267.93207 124.3537ZM271.0102 116.25995L271.0102 114.46307L277.58832 114.46307L277.58832 115.86932Q276.7602 116.6662 275.91644 118.1662Q275.08832 119.65057 274.6352 121.33807Q274.1977 123.02557 274.21332 124.3537L272.35394 124.3537Q272.40082 122.27557 273.21332 120.11932Q274.02582 117.94745 275.3852 116.25995L271.0102 116.25995ZM279.41644 124.3537L279.41644 122.43182L281.33832 122.43182L281.33832 124.3537L279.41644 124.3537ZM282.9477 121.69745L284.80707 121.46307Q284.8852 122.18182 285.27582 122.55682Q285.66644 122.93182 286.22894 122.93182Q286.8227 122.93182 287.22894 122.4787Q287.6352 122.02557 287.6352 121.25995Q287.6352 120.5412 287.24457 120.11932Q286.85394 119.69745 286.29144 119.69745Q285.91644 119.69745 285.41644 119.83807L285.61957 118.27557Q286.40082 118.2912 286.80707 117.93182Q287.22894 117.57245 287.22894 116.9787Q287.22894 116.4787 286.91644 116.18182Q286.61957 115.86932 286.11957 115.86932Q285.6352 115.86932 285.27582 116.21307Q284.93207 116.55682 284.85394 117.21307L283.08832 116.9162Q283.27582 115.99432 283.6352 115.46307Q284.0102 114.9162 284.68207 114.6037Q285.35394 114.2912 286.18207 114.2912Q287.58832 114.2912 288.4477 115.19745Q289.15082 115.93182 289.15082 116.8537Q289.15082 118.18182 287.71332 118.96307Q288.5727 119.15057 289.08832 119.7912Q289.60394 120.43182 289.60394 121.33807Q289.60394 122.6662 288.6352 123.6037Q287.66644 124.52557 286.24457 124.52557Q284.8852 124.52557 283.97894 123.74432Q283.08832 122.96307 282.9477 121.69745ZM291.02582 116.80682Q291.02582 115.46307 291.61957 114.82245Q292.21332 114.1662 293.21332 114.1662Q294.2602 114.1662 294.85394 114.80682Q295.4477 115.44745 295.4477 116.80682Q295.4477 118.15057 294.85394 118.80682Q294.2602 119.44745 293.2602 119.44745Q292.21332 119.44745 291.61957 118.80682Q291.02582 118.1662 291.02582 116.80682ZM292.52582 116.7912Q292.52582 117.77557 292.74457 118.1037Q292.91644 118.3537 293.21332 118.3537Q293.52582 118.3537 293.6977 118.1037Q293.91644 117.77557 293.91644 116.7912Q293.91644 115.82245 293.6977 115.49432Q293.52582 115.2287 293.21332 115.2287Q292.91644 115.2287 292.74457 115.4787Q292.52582 115.82245 292.52582 116.7912ZM294.68207 124.74432L293.2602 124.74432L298.60394 114.1662L299.97894 114.1662L294.68207 124.74432ZM297.79144 122.1037Q297.79144 120.75995 298.36957 120.11932Q298.96332 119.46307 299.99457 119.46307Q301.02582 119.46307 301.61957 120.11932Q302.21332 120.75995 302.21332 122.1037Q302.21332 123.46307 301.61957 124.11932Q301.02582 124.75995 300.0102 124.75995Q298.96332 124.75995 298.36957 124.11932Q297.79144 123.46307 297.79144 122.1037ZM299.27582 122.1037Q299.27582 123.07245 299.5102 123.40057Q299.68207 123.65057 299.97894 123.65057Q300.29144 123.65057 300.4477 123.4162Q300.68207 123.07245 300.68207 122.1037Q300.68207 121.11932 300.46332 120.7912Q300.29144 120.5412 299.97894 120.5412Q299.66644 120.5412 299.5102 120.7912Q299.27582 121.11932 299.27582 122.1037Z" fill-rule="nonzero"/><path fill="#2563eb" d="M713.9 64.5C713.9 67.813705 711.2137 70.5 707.9 70.5C704.5863 70.5 701.9 67.813705 701.9 64.5C701.9 61.18629 704.5863 58.5 707.9 58.5C711.2137 58.5 713.9 61.18629 713.9 64.5Z" fill-rule="nonzero"/><path fill="#1a1a1a" d="M722.8219 68.5L722.8219 59.90625L725.79065 59.90625Q726.79065 59.90625 727.3219 60.03125Q728.0563 60.203125 728.5719 60.640625Q729.2594 61.21875 729.5875 62.125Q729.9313 63.015625 729.9313 64.15625Q729.9313 65.140625 729.6969 65.890625Q729.47815 66.640625 729.1188 67.140625Q728.7594 67.640625 728.3219 67.921875Q727.9 68.203125 727.3063 68.359375Q726.7125 68.5 725.9313 68.5L722.8219 68.5ZM723.9625 67.484375L725.79065 67.484375Q726.65 67.484375 727.1344 67.328125Q727.6188 67.171875 727.9 66.875Q728.3063 66.484375 728.525 65.796875Q728.7594 65.109375 728.7594 64.140625Q728.7594 62.796875 728.3063 62.078125Q727.8688 61.34375 727.2438 61.09375Q726.775 60.921875 725.775 60.921875L723.9625 60.921875L723.9625 67.484375ZM735.9469 66.5L737.04065 66.625Q736.79065 67.578125 736.0875 68.109375Q735.3844 68.640625 734.3063 68.640625Q732.9469 68.640625 732.1344 67.796875Q731.3375 66.953125 731.3375 65.4375Q731.3375 63.875 732.15 63.015625Q732.9625 62.140625 734.2438 62.140625Q735.4938 62.140625 736.275 62.984375Q737.0719 63.828125 737.0719 65.375Q737.0719 65.46875 737.0719 65.65625L732.4313 65.65625Q732.4938 66.6875 733.0094 67.234375Q733.525 67.765625 734.3063 67.765625Q734.8844 67.765625 735.29065 67.46875Q735.7125 67.15625 735.9469 66.5ZM732.4938 64.796875L735.9625 64.796875Q735.9 64.0 735.5719 63.609375Q735.0563 63.0 734.2594 63.0Q733.525 63.0 733.025 63.484375Q732.54065 63.96875 732.4938 64.796875ZM738.275 66.640625L739.3063 66.484375Q739.4 67.109375 739.79065 67.4375Q740.1969 67.765625 740.9313 67.765625Q741.65 67.765625 741.9938 67.484375Q742.35315 67.1875 742.35315 66.78125Q742.35315 66.421875 742.04065 66.21875Q741.8219 66.078125 740.9625 65.859375Q739.8063 65.5625 739.35315 65.359375Q738.91565 65.140625 738.6813 64.765625Q738.4469 64.390625 738.4469 63.921875Q738.4469 63.515625 738.6344 63.15625Q738.8219 62.796875 739.15 62.5625Q739.4 62.390625 739.8219 62.265625Q740.2438 62.140625 740.7438 62.140625Q741.4625 62.140625 742.0094 62.359375Q742.5719 62.5625 742.8375 62.921875Q743.10315 63.28125 743.1969 63.875L742.16565 64.015625Q742.10315 63.546875 741.7594 63.28125Q741.4313 63.0 740.8063 63.0Q740.0875 63.0 739.775 63.25Q739.4625 63.484375 739.4625 63.8125Q739.4625 64.015625 739.5875 64.171875Q739.72815 64.34375 739.9938 64.453125Q740.15 64.515625 740.9313 64.71875Q742.0563 65.03125 742.4938 65.21875Q742.9313 65.40625 743.1813 65.765625Q743.4313 66.125 743.4313 66.671875Q743.4313 67.203125 743.1188 67.671875Q742.8219 68.125 742.2438 68.390625Q741.66565 68.640625 740.9313 68.640625Q739.7125 68.640625 739.0719 68.140625Q738.4469 67.625 738.275 66.640625ZM745.6969 68.5L745.6969 59.90625L746.7594 59.90625L746.7594 64.8125L749.2438 62.28125L750.6188 62.28125L748.22815 64.578125L750.85315 68.5L749.5563 68.5L747.4938 65.3125L746.7594 66.03125L746.7594 68.5L745.6969 68.5ZM753.9938 67.5625L754.15 68.484375Q753.6969 68.578125 753.35315 68.578125Q752.775 68.578125 752.4625 68.40625Q752.15 68.21875 752.0094 67.921875Q751.8844 67.625 751.8844 66.671875L751.8844 63.09375L751.1188 63.09375L751.1188 62.28125L751.8844 62.28125L751.8844 60.734375L752.9313 60.109375L752.9313 62.28125L753.9938 62.28125L753.9938 63.09375L752.9313 63.09375L752.9313 66.734375Q752.9313 67.1875 752.97815 67.3125Q753.04065 67.4375 753.16565 67.515625Q753.29065 67.59375 753.525 67.59375Q753.7125 67.59375 753.9938 67.5625ZM754.3063 65.390625Q754.3063 63.65625 755.2594 62.828125Q756.0563 62.140625 757.2125 62.140625Q758.4938 62.140625 759.3063 62.984375Q760.1344 63.8125 760.1344 65.296875Q760.1344 66.5 759.775 67.1875Q759.41565 67.875 758.7125 68.265625Q758.025 68.640625 757.2125 68.640625Q755.91565 68.640625 755.10315 67.8125Q754.3063 66.96875 754.3063 65.390625ZM755.3844 65.390625Q755.3844 66.578125 755.9 67.171875Q756.4313 67.765625 757.2125 67.765625Q758.0094 67.765625 758.525 67.171875Q759.04065 66.578125 759.04065 65.359375Q759.04065 64.203125 758.5094 63.609375Q757.9938 63.015625 757.2125 63.015625Q756.4313 63.015625 755.9 63.609375Q755.3844 64.1875 755.3844 65.390625ZM761.6969 70.890625L761.6969 62.28125L762.65 62.28125L762.65 63.078125Q762.9938 62.609375 763.41565 62.375Q763.85315 62.140625 764.4625 62.140625Q765.2594 62.140625 765.8688 62.546875Q766.47815 62.953125 766.775 63.703125Q767.0875 64.453125 767.0875 65.34375Q767.0875 66.296875 766.7438 67.0625Q766.41565 67.828125 765.7594 68.234375Q765.10315 68.640625 764.3844 68.640625Q763.85315 68.640625 763.4313 68.421875Q763.0094 68.1875 762.7438 67.859375L762.7438 70.890625L761.6969 70.890625ZM762.65 65.421875Q762.65 66.625 763.1344 67.203125Q763.6188 67.765625 764.3063 67.765625Q765.0094 67.765625 765.5094 67.171875Q766.0094 66.578125 766.0094 65.328125Q766.0094 64.140625 765.525 63.5625Q765.04065 62.96875 764.35315 62.96875Q763.6813 62.96875 763.16565 63.59375Q762.65 64.21875 762.65 65.421875Z" fill-rule="nonzero"/><path fill="#ef4444" d="M713.9 88.5C713.9 91.813705 711.2137 94.5 707.9 94.5C704.5863 94.5 701.9 91.813705 701.9 88.5C701.9 85.186295 704.5863 82.5 707.9 82.5C711.2137 82.5 713.9 85.186295 713.9 88.5Z" fill-rule="nonzero"/><path fill="#1a1a1a" d="M722.4469 89.734375L723.5094 89.640625Q723.5875 90.296875 723.8688 90.703125Q724.15 91.109375 724.72815 91.375Q725.3219 91.625 726.0563 91.625Q726.6969 91.625 727.1969 91.4375Q727.6969 91.234375 727.9313 90.90625Q728.1813 90.5625 728.1813 90.171875Q728.1813 89.765625 727.9469 89.46875Q727.7125 89.15625 727.1813 88.953125Q726.8219 88.8125 725.6344 88.53125Q724.4625 88.25 723.9938 88.0Q723.3688 87.671875 723.0719 87.203125Q722.775 86.71875 722.775 86.125Q722.775 85.484375 723.1344 84.921875Q723.5094 84.34375 724.2125 84.0625Q724.9313 83.765625 725.79065 83.765625Q726.7438 83.765625 727.47815 84.078125Q728.2125 84.375 728.60315 84.984375Q728.9938 85.578125 729.025 86.328125L727.9313 86.40625Q727.8375 85.59375 727.3219 85.1875Q726.8219 84.765625 725.8375 84.765625Q724.8063 84.765625 724.3375 85.140625Q723.8688 85.515625 723.8688 86.046875Q723.8688 86.515625 724.1969 86.8125Q724.525 87.109375 725.9 87.421875Q727.29065 87.734375 727.8063 87.96875Q728.5563 88.328125 728.91565 88.859375Q729.275 89.375 729.275 90.078125Q729.275 90.765625 728.8844 91.375Q728.4938 91.96875 727.7594 92.3125Q727.025 92.640625 726.10315 92.640625Q724.9313 92.640625 724.1344 92.3125Q723.35315 91.96875 722.9 91.28125Q722.4625 90.59375 722.4469 89.734375ZM730.6969 92.5L730.6969 86.28125L731.6344 86.28125L731.6344 87.15625Q731.9313 86.6875 732.41565 86.421875Q732.9 86.140625 733.525 86.140625Q734.2125 86.140625 734.65 86.421875Q735.10315 86.703125 735.275 87.21875Q736.025 86.140625 737.1969 86.140625Q738.1344 86.140625 738.6188 86.65625Q739.1188 87.15625 739.1188 88.234375L739.1188 92.5L738.0719 92.5L738.0719 88.578125Q738.0719 87.953125 737.9625 87.671875Q737.8688 87.390625 737.60315 87.21875Q737.3375 87.046875 736.9625 87.046875Q736.3063 87.046875 735.8688 87.484375Q735.4469 87.921875 735.4469 88.890625L735.4469 92.5L734.3844 92.5L734.3844 88.453125Q734.3844 87.75 734.1188 87.40625Q733.8688 87.046875 733.29065 87.046875Q732.8375 87.046875 732.4625 87.28125Q732.0875 87.515625 731.91565 87.96875Q731.7438 88.421875 731.7438 89.265625L731.7438 92.5L730.6969 92.5ZM745.7594 91.734375Q745.16565 92.234375 744.6188 92.4375Q744.0875 92.640625 743.4625 92.640625Q742.4313 92.640625 741.8844 92.140625Q741.3375 91.640625 741.3375 90.859375Q741.3375 90.40625 741.54065 90.03125Q741.7438 89.640625 742.0875 89.421875Q742.4313 89.1875 742.85315 89.078125Q743.15 88.984375 743.79065 88.90625Q745.0563 88.765625 745.66565 88.546875Q745.66565 88.328125 745.66565 88.28125Q745.66565 87.625 745.3688 87.359375Q744.9625 87.015625 744.16565 87.015625Q743.4313 87.015625 743.0719 87.28125Q742.7125 87.53125 742.54065 88.1875L741.5094 88.046875Q741.65 87.390625 741.97815 86.984375Q742.3063 86.578125 742.91565 86.359375Q743.525 86.140625 744.3219 86.140625Q745.1188 86.140625 745.6188 86.328125Q746.1188 86.515625 746.35315 86.796875Q746.5875 87.078125 746.6813 87.515625Q746.72815 87.78125 746.72815 88.484375L746.72815 89.890625Q746.72815 91.359375 746.79065 91.75Q746.8688 92.140625 747.0719 92.5L745.9625 92.5Q745.8063 92.171875 745.7594 91.734375ZM745.66565 89.375Q745.0875 89.609375 743.9469 89.78125Q743.29065 89.875 743.025 90.0Q742.7594 90.109375 742.60315 90.328125Q742.4625 90.546875 742.4625 90.828125Q742.4625 91.25 742.775 91.53125Q743.10315 91.8125 743.7125 91.8125Q744.3219 91.8125 744.79065 91.546875Q745.275 91.28125 745.4938 90.8125Q745.66565 90.453125 745.66565 89.765625L745.66565 89.375ZM748.6813 92.5L748.6813 86.28125L749.6344 86.28125L749.6344 87.21875Q749.9938 86.5625 750.29065 86.359375Q750.60315 86.140625 750.97815 86.140625Q751.5094 86.140625 752.0563 86.46875L751.6969 87.453125Q751.3063 87.21875 750.9313 87.21875Q750.5719 87.21875 750.29065 87.4375Q750.025 87.640625 749.91565 88.015625Q749.72815 88.578125 749.72815 89.234375L749.72815 92.5L748.6813 92.5ZM754.9938 91.5625L755.15 92.484375Q754.6969 92.578125 754.35315 92.578125Q753.775 92.578125 753.4625 92.40625Q753.15 92.21875 753.0094 91.921875Q752.8844 91.625 752.8844 90.671875L752.8844 87.09375L752.1188 87.09375L752.1188 86.28125L752.8844 86.28125L752.8844 84.734375L753.9313 84.109375L753.9313 86.28125L754.9938 86.28125L754.9938 87.09375L753.9313 87.09375L753.9313 90.734375Q753.9313 91.1875 753.97815 91.3125Q754.04065 91.4375 754.16565 91.515625Q754.29065 91.59375 754.525 91.59375Q754.7125 91.59375 754.9938 91.5625ZM755.6969 94.890625L755.6969 86.28125L756.65 86.28125L756.65 87.078125Q756.9938 86.609375 757.41565 86.375Q757.85315 86.140625 758.4625 86.140625Q759.2594 86.140625 759.8688 86.546875Q760.47815 86.953125 760.775 87.703125Q761.0875 88.453125 761.0875 89.34375Q761.0875 90.296875 760.7438 91.0625Q760.41565 91.828125 759.7594 92.234375Q759.10315 92.640625 758.3844 92.640625Q757.85315 92.640625 757.4313 92.421875Q757.0094 92.1875 756.7438 91.859375L756.7438 94.890625L755.6969 94.890625ZM756.65 89.421875Q756.65 90.625 757.1344 91.203125Q757.6188 91.765625 758.3063 91.765625Q759.0094 91.765625 759.5094 91.171875Q760.0094 90.578125 760.0094 89.328125Q760.0094 88.140625 759.525 87.5625Q759.04065 86.96875 758.35315 86.96875Q757.6813 86.96875 757.16565 87.59375Q756.65 88.21875 756.65 89.421875ZM762.6969 92.5L762.6969 83.90625L763.7438 83.90625L763.7438 86.984375Q764.47815 86.140625 765.60315 86.140625Q766.3063 86.140625 766.8063 86.421875Q767.3219 86.6875 767.54065 87.171875Q767.7594 87.640625 767.7594 88.5625L767.7594 92.5L766.7125 92.5L766.7125 88.5625Q766.7125 87.765625 766.3688 87.40625Q766.025 87.046875 765.4 87.046875Q764.9313 87.046875 764.5094 87.296875Q764.10315 87.53125 763.91565 87.953125Q763.7438 88.359375 763.7438 89.09375L763.7438 92.5L762.6969 92.5ZM769.3063 89.390625Q769.3063 87.65625 770.2594 86.828125Q771.0563 86.140625 772.2125 86.140625Q773.4938 86.140625 774.3063 86.984375Q775.1344 87.8125 775.1344 89.296875Q775.1344 90.5 774.775 91.1875Q774.41565 91.875 773.7125 92.265625Q773.025 92.640625 772.2125 92.640625Q770.91565 92.640625 770.10315 91.8125Q769.3063 90.96875 769.3063 89.390625ZM770.3844 89.390625Q770.3844 90.578125 770.9 91.171875Q771.4313 91.765625 772.2125 91.765625Q773.0094 91.765625 773.525 91.171875Q774.04065 90.578125 774.04065 89.359375Q774.04065 88.203125 773.5094 87.609375Q772.9938 87.015625 772.2125 87.015625Q771.4313 87.015625 770.9 87.609375Q770.3844 88.1875 770.3844 89.390625ZM776.6969 92.5L776.6969 86.28125L777.6344 86.28125L777.6344 87.15625Q778.3219 86.140625 779.6188 86.140625Q780.1813 86.140625 780.65 86.34375Q781.1344 86.546875 781.3688 86.875Q781.60315 87.203125 781.6969 87.640625Q781.7438 87.9375 781.7438 88.671875L781.7438 92.5L780.6969 92.5L780.6969 88.71875Q780.6969 88.0625 780.5719 87.75Q780.4469 87.4375 780.1344 87.25Q779.8219 87.046875 779.4 87.046875Q778.72815 87.046875 778.22815 87.484375Q777.7438 87.90625 777.7438 89.09375L777.7438 92.5L776.6969 92.5ZM787.9469 90.5L789.04065 90.625Q788.79065 91.578125 788.0875 92.109375Q787.3844 92.640625 786.3063 92.640625Q784.9469 92.640625 784.1344 91.796875Q783.3375 90.953125 783.3375 89.4375Q783.3375 87.875 784.15 87.015625Q784.9625 86.140625 786.2438 86.140625Q787.4938 86.140625 788.275 86.984375Q789.0719 87.828125 789.0719 89.375Q789.0719 89.46875 789.0719 89.65625L784.4313 89.65625Q784.4938 90.6875 785.0094 91.234375Q785.525 91.765625 786.3063 91.765625Q786.8844 91.765625 787.29065 91.46875Q787.7125 91.15625 787.9469 90.5ZM784.4938 88.796875L787.9625 88.796875Q787.9 88.0 787.5719 87.609375Q787.0563 87.0 786.2594 87.0Q785.525 87.0 785.025 87.484375Q784.54065 87.96875 784.4938 88.796875Z" fill-rule="nonzero"/><path fill="#f59e0b" d="M713.9 112.5C713.9 115.813705 711.2137 118.5 707.9 118.5C704.5863 118.5 701.9 115.813705 701.9 112.5C701.9 109.186295 704.5863 106.5 707.9 106.5C711.2137 106.5 713.9 109.186295 713.9 112.5Z" fill-rule="nonzero"/><path fill="#1a1a1a" d="M725.0094 116.5L725.0094 108.921875L722.1813 108.921875L722.1813 107.90625L728.9938 107.90625L728.9938 108.921875L726.15 108.921875L726.15 116.5L725.0094 116.5ZM733.7594 115.734375Q733.16565 116.234375 732.6188 116.4375Q732.0875 116.640625 731.4625 116.640625Q730.4313 116.640625 729.8844 116.140625Q729.3375 115.640625 729.3375 114.859375Q729.3375 114.40625 729.54065 114.03125Q729.7438 113.640625 730.0875 113.421875Q730.4313 113.1875 730.85315 113.078125Q731.15 112.984375 731.79065 112.90625Q733.0563 112.765625 733.66565 112.546875Q733.66565 112.328125 733.66565 112.28125Q733.66565 111.625 733.3688 111.359375Q732.9625 111.015625 732.16565 111.015625Q731.4313 111.015625 731.0719 111.28125Q730.7125 111.53125 730.54065 112.1875L729.5094 112.046875Q729.65 111.390625 729.97815 110.984375Q730.3063 110.578125 730.91565 110.359375Q731.525 110.140625 732.3219 110.140625Q733.1188 110.140625 733.6188 110.328125Q734.1188 110.515625 734.35315 110.796875Q734.5875 111.078125 734.6813 111.515625Q734.72815 111.78125 734.72815 112.484375L734.72815 113.890625Q734.72815 115.359375 734.79065 115.75Q734.8688 116.140625 735.0719 116.5L733.9625 116.5Q733.8063 116.171875 733.7594 115.734375ZM733.66565 113.375Q733.0875 113.609375 731.9469 113.78125Q731.29065 113.875 731.025 114.0Q730.7594 114.109375 730.60315 114.328125Q730.4625 114.546875 730.4625 114.828125Q730.4625 115.25 730.775 115.53125Q731.10315 115.8125 731.7125 115.8125Q732.3219 115.8125 732.79065 115.546875Q733.275 115.28125 733.4938 114.8125Q733.66565 114.453125 733.66565 113.765625L733.66565 113.375ZM737.66565 116.5L736.6813 116.5L736.6813 107.90625L737.7438 107.90625L737.7438 110.96875Q738.41565 110.140625 739.4469 110.140625Q740.025 110.140625 740.525 110.375Q741.04065 110.59375 741.3688 111.015625Q741.7125 111.4375 741.9 112.03125Q742.0875 112.625 742.0875 113.296875Q742.0875 114.890625 741.29065 115.765625Q740.4938 116.640625 739.4 116.640625Q738.29065 116.640625 737.66565 115.71875L737.66565 116.5ZM737.65 113.34375Q737.65 114.453125 737.9625 114.953125Q738.4625 115.765625 739.3063 115.765625Q739.9938 115.765625 740.4938 115.171875Q741.0094 114.578125 741.0094 113.375Q741.0094 112.15625 740.525 111.578125Q740.04065 111.0 739.35315 111.0Q738.66565 111.0 738.15 111.609375Q737.65 112.203125 737.65 113.34375ZM743.66565 116.5L743.66565 107.90625L744.72815 107.90625L744.72815 116.5L743.66565 116.5ZM750.9469 114.5L752.04065 114.625Q751.79065 115.578125 751.0875 116.109375Q750.3844 116.640625 749.3063 116.640625Q747.9469 116.640625 747.1344 115.796875Q746.3375 114.953125 746.3375 113.4375Q746.3375 111.875 747.15 111.015625Q747.9625 110.140625 749.2438 110.140625Q750.4938 110.140625 751.275 110.984375Q752.0719 111.828125 752.0719 113.375Q752.0719 113.46875 752.0719 113.65625L747.4313 113.65625Q747.4938 114.6875 748.0094 115.234375Q748.525 115.765625 749.3063 115.765625Q749.8844 115.765625 750.29065 115.46875Q750.7125 115.15625 750.9469 114.5ZM747.4938 112.796875L750.9625 112.796875Q750.9 112.0 750.5719 111.609375Q750.0563 111.0 749.2594 111.0Q748.525 111.0 748.025 111.484375Q747.54065 111.96875 747.4938 112.796875ZM755.9938 115.5625L756.15 116.484375Q755.6969 116.578125 755.35315 116.578125Q754.775 116.578125 754.4625 116.40625Q754.15 116.21875 754.0094 115.921875Q753.8844 115.625 753.8844 114.671875L753.8844 111.09375L753.1188 111.09375L753.1188 110.28125L753.8844 110.28125L753.8844 108.734375L754.9313 108.109375L754.9313 110.28125L755.9938 110.28125L755.9938 111.09375L754.9313 111.09375L754.9313 114.734375Q754.9313 115.1875 754.97815 115.3125Q755.04065 115.4375 755.16565 115.515625Q755.29065 115.59375 755.525 115.59375Q755.7125 115.59375 755.9938 115.5625Z" fill-rule="nonzero"/><path fill="#757575" d="M355.04688 39.1L355.04688 24.787498L359.96875 24.787498Q361.64062 24.787498 362.53125 24.990623Q363.75 25.271873 364.625 26.006248Q365.75 26.974998 366.3125 28.459373Q366.875 29.943748 366.875 31.865623Q366.875 33.490623 366.5 34.75625Q366.125 36.00625 365.51562 36.834373Q364.92188 37.6625 364.21875 38.146873Q363.51562 38.615623 362.51562 38.865623Q361.51562 39.1 360.20312 39.1L355.04688 39.1ZM356.9375 37.4125L360.0 37.4125Q361.40625 37.4125 362.20312 37.146873Q363.01562 36.88125 363.5 36.396873Q364.17188 35.725 364.54688 34.6Q364.92188 33.459373 364.92188 31.834373Q364.92188 29.584373 364.1875 28.381248Q363.45312 27.178123 362.39062 26.771873Q361.64062 26.474998 359.95312 26.474998L356.9375 26.474998L356.9375 37.4125ZM375.92188 35.75625L377.73438 35.990623Q377.3125 37.56875 376.14062 38.459373Q374.98438 39.334373 373.17188 39.334373Q370.90625 39.334373 369.5625 37.94375Q368.23438 36.5375 368.23438 34.00625Q368.23438 31.381248 369.57812 29.943748Q370.92188 28.490623 373.07812 28.490623Q375.15625 28.490623 376.46875 29.912498Q377.79688 31.318748 377.79688 33.896873Q377.79688 34.053123 377.78125 34.365623L370.04688 34.365623Q370.14062 36.06875 371.01562 36.975Q371.89062 37.88125 373.1875 37.88125Q374.15625 37.88125 374.82812 37.38125Q375.51562 36.865623 375.92188 35.75625ZM370.14062 32.9125L375.9375 32.9125Q375.82812 31.615623 375.28125 30.959373Q374.4375 29.943748 373.09375 29.943748Q371.89062 29.943748 371.0625 30.756248Q370.23438 31.553123 370.14062 32.9125ZM382.70312 39.1L378.75 28.724998L380.60938 28.724998L382.84375 34.94375Q383.20312 35.94375 383.5 37.021873Q383.73438 36.209373 384.15625 35.053123L386.45312 28.724998L388.26562 28.724998L384.34375 39.1L382.70312 39.1ZM388.82812 26.803123L388.82812 24.787498L390.59375 24.787498L390.59375 26.803123L388.82812 26.803123ZM388.82812 39.1L388.82812 28.724998L390.59375 28.724998L390.59375 39.1L388.82812 39.1ZM399.59375 35.303123L401.3125 35.521873Q401.03125 37.31875 399.85938 38.334373Q398.70312 39.334373 397.0 39.334373Q394.875 39.334373 393.57812 37.94375Q392.28125 36.553123 392.28125 33.959373Q392.28125 32.271873 392.82812 31.021873Q393.39062 29.756248 394.53125 29.131248Q395.67188 28.490623 397.01562 28.490623Q398.70312 28.490623 399.76562 29.349998Q400.84375 30.209373 401.15625 31.771873L399.4375 32.0375Q399.20312 30.990623 398.57812 30.474998Q397.95312 29.943748 397.07812 29.943748Q395.75 29.943748 394.92188 30.896873Q394.09375 31.849998 394.09375 33.896873Q394.09375 35.990623 394.89062 36.94375Q395.6875 37.88125 396.98438 37.88125Q398.01562 37.88125 398.70312 37.25625Q399.40625 36.615623 399.59375 35.303123ZM409.92188 35.75625L411.73438 35.990623Q411.3125 37.56875 410.14062 38.459373Q408.98438 39.334373 407.17188 39.334373Q404.90625 39.334373 403.5625 37.94375Q402.23438 36.5375 402.23438 34.00625Q402.23438 31.381248 403.57812 29.943748Q404.92188 28.490623 407.07812 28.490623Q409.15625 28.490623 410.46875 29.912498Q411.79688 31.318748 411.79688 33.896873Q411.79688 34.053123 411.78125 34.365623L404.04688 34.365623Q404.14062 36.06875 405.01562 36.975Q405.89062 37.88125 407.1875 37.88125Q408.15625 37.88125 408.82812 37.38125Q409.51562 36.865623 409.92188 35.75625ZM404.14062 32.9125L409.9375 32.9125Q409.82812 31.615623 409.28125 30.959373Q408.4375 29.943748 407.09375 29.943748Q405.89062 29.943748 405.0625 30.756248Q404.23438 31.553123 404.14062 32.9125ZM423.65625 37.521873L423.90625 39.084373Q423.17188 39.240623 422.57812 39.240623Q421.625 39.240623 421.09375 38.94375Q420.57812 38.63125 420.35938 38.146873Q420.14062 37.646873 420.14062 36.06875L420.14062 30.099998L418.85938 30.099998L418.85938 28.724998L420.14062 28.724998L420.14062 26.162498L421.89062 25.099998L421.89062 28.724998L423.65625 28.724998L423.65625 30.099998L421.89062 30.099998L421.89062 36.1625Q421.89062 36.9125 421.98438 37.13125Q422.07812 37.334373 422.28125 37.475Q422.5 37.6 422.89062 37.6Q423.17188 37.6 423.65625 37.521873ZM425.73438 43.1L425.54688 41.44375Q426.125 41.6 426.54688 41.6Q427.14062 41.6 427.48438 41.396873Q427.84375 41.209373 428.0625 40.865623Q428.23438 40.6 428.60938 39.553123Q428.65625 39.396873 428.76562 39.115623L424.82812 28.724998L426.71875 28.724998L428.875 34.740623Q429.29688 35.88125 429.625 37.13125Q429.9375 35.928123 430.34375 34.771873L432.5625 28.724998L434.32812 28.724998L430.375 39.271873Q429.75 40.990623 429.39062 41.63125Q428.92188 42.50625 428.3125 42.896873Q427.71875 43.303123 426.875 43.303123Q426.35938 43.303123 425.73438 43.1ZM435.8125 43.06875L435.8125 28.724998L437.42188 28.724998L437.42188 30.068748Q437.98438 29.287498 438.6875 28.896873Q439.40625 28.490623 440.42188 28.490623Q441.75 28.490623 442.76562 29.178123Q443.78125 29.865623 444.29688 31.115623Q444.82812 32.35 444.82812 33.834373Q444.82812 35.428123 444.25 36.709373Q443.6875 37.975 442.59375 38.6625Q441.5 39.334373 440.29688 39.334373Q439.42188 39.334373 438.71875 38.959373Q438.03125 38.584373 437.57812 38.021873L437.57812 43.06875L435.8125 43.06875ZM437.40625 33.975Q437.40625 35.975 438.21875 36.928123Q439.03125 37.88125 440.1875 37.88125Q441.35938 37.88125 442.1875 36.896873Q443.03125 35.9125 443.03125 33.81875Q443.03125 31.849998 442.20312 30.865623Q441.39062 29.865623 440.26562 29.865623Q439.14062 29.865623 438.26562 30.928123Q437.40625 31.974998 437.40625 33.975ZM453.92188 35.75625L455.73438 35.990623Q455.3125 37.56875 454.14062 38.459373Q452.98438 39.334373 451.17188 39.334373Q448.90625 39.334373 447.5625 37.94375Q446.23438 36.5375 446.23438 34.00625Q446.23438 31.381248 447.57812 29.943748Q448.92188 28.490623 451.07812 28.490623Q453.15625 28.490623 454.46875 29.912498Q455.79688 31.318748 455.79688 33.896873Q455.79688 34.053123 455.78125 34.365623L448.04688 34.365623Q448.14062 36.06875 449.01562 36.975Q449.89062 37.88125 451.1875 37.88125Q452.15625 37.88125 452.82812 37.38125Q453.51562 36.865623 453.92188 35.75625ZM448.14062 32.9125L453.9375 32.9125Q453.82812 31.615623 453.28125 30.959373Q452.4375 29.943748 451.09375 29.943748Q449.89062 29.943748 449.0625 30.756248Q448.23438 31.553123 448.14062 32.9125Z" fill-rule="nonzero"/></svg>