<svg version="1.1" viewBox="0.0 0.0 1037.0 402.0" fill="none" stroke="none" stroke-linecap="square" stroke-miterlimit="10" width="1037" height="402" xmlns:xlink="http://www.w3.org/1999/xlink" xmlns="http://www.w3.org/2000/svg"><path fill="#ffffff" d="M0 0L1037.0 0L1037.0 402.0L0 402.0L0 0Z" fill-rule="nonzero"/><path stroke="#333333" stroke-width="1.0" stroke-linecap="butt" d="M79.5 329.5L1016.5 329.5" fill-rule="nonzero"/><path stroke="#cccccc" stroke-width="1.0" stroke-linecap="butt" d="M79.5 241.5L1016.5 241.5" fill-rule="nonzero"/><path stroke="#cccccc" stroke-width="1.0" stroke-linecap="butt" d="M79.5 152.5L1016.5 152.5" fill-rule="nonzero"/><path stroke="#cccccc" stroke-width="1.0" stroke-linecap="butt" d="M79.5 64.5L1016.5 64.5" fill-rule="nonzero"/><clipPath id="id_0"><path d="M79.1 64.5L1016.9 64.5L1016.9 329.9L79.1 329.9L79.1 64.5Z" clip-rule="nonzero"/></clipPath><path stroke="#000000" stroke-width="2.0" stroke-linecap="butt" stroke-opacity="0.0" clip-path="url(#id_0)" d="M155.0 330.0L106.0 330.0L106.0 291.0C106.0 289.89542 106.89543 289.0 108.0 289.0L153.0 289.0C154.10457 289.0 155.0 289.89542 155.0 291.0Z" fill-rule="nonzero"/><path fill="#2563eb" clip-path="url(#id_0)" d="M155.0 330.0L106.0 330.0L106.0 291.0C106.0 289.89542 106.89543 289.0 108.0 289.0L153.0 289.0C154.10457 289.0 155.0 289.89542 155.0 291.0Z" fill-rule="nonzero"/><path stroke="#000000" stroke-width="2.0" stroke-linecap="butt" stroke-opacity="0.0" clip-path="url(#id_0)" d="M231.0 330.0L182.0 330.0L182.0 235.0C182.0 233.89543 182.89543 233.0 184.0 233.0L229.0 233.0C230.10457 233.0 231.0 233.89543 231.0 235.0Z" fill-rule="nonzero"/><path fill="#2563eb" clip-path="url(#id_0)" d="M231.0 330.0L182.0 330.0L182.0 235.0C182.0 233.89543 182.89543 233.0 184.0 233.0L229.0 233.0C230.10457 233.0 231.0 233.89543 231.0 235.0Z" fill-rule="nonzero"/><path stroke="#000000" stroke-width="2.0" stroke-linecap="butt" stroke-opacity="0.0" clip-path="url(#id_0)" d="M307.0 330.0L258.0 330.0L258.0 222.0C258.0 220.89543 258.89542 220.0 260.0 220.0L305.0 220.0C306.10458 220.0 307.0 220.89543 307.0 222.0Z" fill-rule="nonzero"/><path fill="#2563eb" clip-path="url(#id_0)" d="M307.0 330.0L258.0 330.0L258.0 222.0C258.0 220.89543 258.89542 220.0 260.0 220.0L305.0 220.0C306.10458 220.0 307.0 220.89543 307.0 222.0Z" fill-rule="nonzero"/><path stroke="#000000" stroke-width="2.0" stroke-linecap="butt" stroke-opacity="0.0" clip-path="url(#id_0)" d="M383.0 330.0L334.0 330.0L334.0 254.0C334.0 252.89543 334.89542 252.0 336.0 252.0L381.0 252.0C382.10458 252.0 383.0 252.89543 383.0 254.0Z" fill-rule="nonzero"/><path fill="#2563eb" clip-path="url(#id_0)" d="M383.0 330.0L334.0 330.0L334.0 254.0C334.0 252.89543 334.89542 252.0 336.0 252.0L381.0 252.0C382.10458 252.0 383.0 252.89543 383.0 254.0Z" fill-rule="nonzero"/><path stroke="#000000" stroke-width="2.0" stroke-linecap="butt" stroke-opacity="0.0" clip-path="url(#id_0)" d="M459.0 330.0L410.0 330.0L410.0 166.0C410.0 164.89543 410.89542 164.0 412.0 164.0L457.0 164.0C458.10458 164.0 459.0 164.89543 459.0 166.0Z" fill-rule="nonzero"/><path fill="#2563eb" clip-path="url(#id_0)" d="M459.0 330.0L410.0 330.0L410.0 166.0C410.0 164.89543 410.89542 164.0 412.0 164.0L457.0 164.0C458.10458 164.0 459.0 164.89543 459.0 166.0Z" fill-rule="nonzero"/><path stroke="#000000" stroke-width="2.0" stroke-linecap="butt" stroke-opacity="0.0" clip-path="url(#id_0)" d="M535.0 330.0L486.0 330.0L486.0 148.0C486.0 146.89543 486.89542 146.0 488.0 146.0L533.0 146.0C534.10455 146.0 535.0 146.89543 535.0 148.0Z" fill-rule="nonzero"/><path fill="#2563eb" clip-path="url(#id_0)" d="M535.0 330.0L486.0 330.0L486.0 148.0C486.0 146.89543 486.89542 146.0 488.0 146.0L533.0 146.0C534.10455 146.0 535.0 146.89543 535.0 148.0Z" fill-rule="nonzero"/><path stroke="#000000" stroke-width="2.0" stroke-linecap="butt" stroke-opacity="0.0" clip-path="url(#id_0)" d="M611.0 330.0L562.0 330.0L562.0 107.0C562.0 105.89543 562.89545 105.0 564.0 105.0L609.0 105.0C610.10455 105.0 611.0 105.89543 611.0 107.0Z" fill-rule="nonzero"/><path fill="#2563eb" clip-path="url(#id_0)" d="M611.0 330.0L562.0 330.0L562.0 107.0C562.0 105.89543 562.89545 105.0 564.0 105.0L609.0 105.0C610.10455 105.0 611.0 105.89543 611.0 107.0Z" fill-rule="nonzero"/><path stroke="#000000" stroke-width="2.0" stroke-linecap="butt" stroke-opacity="0.0" clip-path="url(#id_0)" d="M687.0 330.0L638.0 330.0L638.0 240.0C638.0 238.89543 638.89545 238.0 640.0 238.0L685.0 238.0C686.10455 238.0 687.0 238.89543 687.0 240.0Z" fill-rule="nonzero"/><path fill="#2563eb" clip-path="url(#id_0)" d="M687.0 330.0L638.0 330.0L638.0 240.0C638.0 238.89543 638.89545 238.0 640.0 238.0L685.0 238.0C686.10455 238.0 687.0 238.89543 687.0 240.0Z" fill-rule="nonzero"/><path stroke="#000000" stroke-width="2.0" stroke-linecap="butt" stroke-opacity="0.0" clip-path="url(#id_0)" d="M763.0 330.0L714.0 330.0L714.0 203.0C714.0 201.89543 714.89545 201.0 716.0 201.0L761.0 201.0C762.10455 201.0 763.0 201.89543 763.0 203.0Z" fill-rule="nonzero"/><path fill="#2563eb" clip-path="url(#id_0)" d="M763.0 330.0L714.0 330.0L714.0 203.0C714.0 201.89543 714.89545 201.0 716.0 201.0L761.0 201.0C762.10455 201.0 763.0 201.89543 763.0 203.0Z" fill-rule="nonzero"/><path stroke="#000000" stroke-width="2.0" stroke-linecap="butt" stroke-opacity="0.0" clip-path="url(#id_0)" d="M839.0 330.0L790.0 330.0L790.0 219.0C790.0 217.89543 790.89545 217.0 792.0 217.0L837.0 217.0C838.10455 217.0 839.0 217.89543 839.0 219.0Z" fill-rule="nonzero"/><path fill="#2563eb" clip-path="url(#id_0)" d="M839.0 330.0L790.0 330.0L790.0 219.0C790.0 217.89543 790.89545 217.0 792.0 217.0L837.0 217.0C838.10455 217.0 839.0 217.89543 839.0 219.0Z" fill-rule="nonzero"/><path stroke="#000000" stroke-width="2.0" stroke-linecap="butt" stroke-opacity="0.0" clip-path="url(#id_0)" d="M915.0 330.0L866.0 330.0L866.0 233.0C866.0 231.89543 866.89545 231.0 868.0 231.0L913.0 231.0C914.10455 231.0 915.0 231.89543 915.0 233.0Z" fill-rule="nonzero"/><path fill="#2563eb" clip-path="url(#id_0)" d="M915.0 330.0L866.0 330.0L866.0 233.0C866.0 231.89543 866.89545 231.0 868.0 231.0L913.0 231.0C914.10455 231.0 915.0 231.89543 915.0 233.0Z" fill-rule="nonzero"/><path stroke="#000000" stroke-width="2.0" stroke-linecap="butt" stroke-opacity="0.0" clip-path="url(#id_0)" d="M991.0 330.0L942.0 330.0L942.0 91.0C942.0 89.89543 942.89545 89.0 944.0 89.0L989.0 89.0C990.10455 89.0 991.0 89.89543 991.0 91.0Z" fill-rule="nonzero"/><path fill="#2563eb" clip-path="url(#id_0)" d="M991.0 330.0L942.0 330.0L942.0 91.0C942.0 89.89543 942.89545 89.0 944.0 89.0L989.0 89.0C990.10455 89.0 991.0 89.89543 991.0 91.0Z" fill-rule="nonzero"/><path fill="#000000" d="M532.3906 378.9L532.3906 370.30624L534.1094 370.30624L536.1406 376.38437Q536.4219 377.24374 536.5469 377.66562Q536.6875 377.19687 537.0 376.29062L539.0625 370.30624L540.59375 370.30624L540.59375 378.9L539.5 378.9L539.5 371.7125L537.0 378.9L535.96875 378.9L533.4844 371.5875L533.4844 378.9L532.3906 378.9ZM540.90625 375.79062Q540.90625 374.05624 541.8594 373.22812Q542.65625 372.54062 543.8125 372.54062Q545.09375 372.54062 545.90625 373.38437Q546.7344 374.2125 546.7344 375.69687Q546.7344 376.9 546.375 377.5875Q546.0156 378.275 545.3125 378.66562Q544.625 379.04062 543.8125 379.04062Q542.5156 379.04062 541.7031 378.2125Q540.90625 377.36874 540.90625 375.79062ZM541.9844 375.79062Q541.9844 376.97812 542.5 377.57187Q543.03125 378.16562 543.8125 378.16562Q544.6094 378.16562 545.125 377.57187Q545.6406 376.97812 545.6406 375.75937Q545.6406 374.60312 545.1094 374.00937Q544.59375 373.41562 543.8125 373.41562Q543.03125 373.41562 542.5 374.00937Q541.9844 374.5875 541.9844 375.79062ZM548.2969 378.9L548.2969 372.68124L549.2344 372.68124L549.2344 373.55624Q549.9219 372.54062 551.21875 372.54062Q551.78125 372.54062 552.25 372.74374Q552.7344 372.94687 552.96875 373.275Q553.2031 373.60312 553.2969 374.04062Q553.34375 374.3375 553.34375 375.07187L553.34375 378.9L552.2969 378.9L552.2969 375.11874Q552.2969 374.4625 552.1719 374.15Q552.0469 373.8375 551.7344 373.65Q551.4219 373.44687 551.0 373.44687Q550.3281 373.44687 549.8281 373.88437Q549.34375 374.30624 549.34375 375.49374L549.34375 378.9L548.2969 378.9ZM557.59375 377.9625L557.75 378.88437Q557.2969 378.97812 556.9531 378.97812Q556.375 378.97812 556.0625 378.80624Q555.75 378.61874 555.6094 378.32187Q555.4844 378.025 555.4844 377.07187L555.4844 373.49374L554.71875 373.49374L554.71875 372.68124L555.4844 372.68124L555.4844 371.13437L556.53125 370.50937L556.53125 372.68124L557.59375 372.68124L557.59375 373.49374L556.53125 373.49374L556.53125 377.13437Q556.53125 377.5875 556.5781 377.7125Q556.6406 377.8375 556.7656 377.91562Q556.8906 377.99374 557.125 377.99374Q557.3125 377.99374 557.59375 377.9625ZM558.2969 378.9L558.2969 370.30624L559.34375 370.30624L559.34375 373.38437Q560.0781 372.54062 561.2031 372.54062Q561.90625 372.54062 562.40625 372.82187Q562.9219 373.0875 563.1406 373.57187Q563.3594 374.04062 563.3594 374.9625L563.3594 378.9L562.3125 378.9L562.3125 374.9625Q562.3125 374.16562 561.96875 373.80624Q561.625 373.44687 561.0 373.44687Q560.53125 373.44687 560.1094 373.69687Q559.7031 373.93124 559.5156 374.35312Q559.34375 374.75937 559.34375 375.49374L559.34375 378.9L558.2969 378.9Z" fill-rule="nonzero"/><path fill="#000000" d="M31.099995 215.325L22.506245 218.65312L22.506245 217.41875L28.756245 215.18437Q29.506245 214.91875 30.162495 214.73125Q29.45937 214.52812 28.756245 214.2625L22.506245 211.95L22.506245 210.79375L31.099995 214.15312L31.099995 215.325ZM23.724995 210.90312L22.506245 210.90312L22.506245 209.84062L23.724995 209.84062L23.724995 210.90312ZM31.099995 210.90312L24.881245 210.90312L24.881245 209.84062L31.099995 209.84062L31.099995 210.90312ZM29.24062 208.325L29.08437 207.29375Q29.70937 207.2 30.037495 206.80937Q30.36562 206.40312 30.36562 205.66875Q30.36562 204.95 30.08437 204.60625Q29.787495 204.24687 29.381245 204.24687Q29.02187 204.24687 28.818745 204.55937Q28.67812 204.77812 28.45937 205.6375Q28.162495 206.79375 27.95937 207.24687Q27.74062 207.68437 27.36562 207.91875Q26.99062 208.15312 26.52187 208.15312Q26.11562 208.15312 25.756245 207.96562Q25.39687 207.77812 25.162495 207.45Q24.99062 207.2 24.86562 206.77812Q24.74062 206.35625 24.74062 205.85625Q24.74062 205.1375 24.95937 204.59062Q25.162495 204.02812 25.52187 203.7625Q25.881245 203.49687 26.474995 203.40312L26.61562 204.43437Q26.14687 204.49687 25.881245 204.84062Q25.599995 205.16875 25.599995 205.79375Q25.599995 206.5125 25.849995 206.825Q26.08437 207.1375 26.412495 207.1375Q26.61562 207.1375 26.77187 207.0125Q26.943745 206.87187 27.05312 206.60625Q27.11562 206.45 27.318745 205.66875Q27.631245 204.54375 27.818745 204.10625Q28.006245 203.66875 28.36562 203.41875Q28.724995 203.16875 29.27187 203.16875Q29.80312 203.16875 30.27187 203.48125Q30.724995 203.77812 30.99062 204.35625Q31.24062 204.93437 31.24062 205.66875Q31.24062 206.8875 30.74062 207.52812Q30.224995 208.15312 29.24062 208.325ZM23.724995 200.90312L22.506245 200.90312L22.506245 199.84062L23.724995 199.84062L23.724995 200.90312ZM31.099995 200.90312L24.881245 200.90312L24.881245 199.84062L31.099995 199.84062L31.099995 200.90312ZM30.162495 195.60625L31.08437 195.45Q31.17812 195.90312 31.17812 196.24687Q31.17812 196.825 31.006245 197.1375Q30.818745 197.45 30.52187 197.59062Q30.224995 197.71562 29.27187 197.71562L25.693745 197.71562L25.693745 198.48125L24.881245 198.48125L24.881245 197.71562L23.33437 197.71562L22.70937 196.66875L24.881245 196.66875L24.881245 195.60625L25.693745 195.60625L25.693745 196.66875L29.33437 196.66875Q29.787495 196.66875 29.912495 196.62187Q30.037495 196.55937 30.11562 196.43437Q30.193745 196.30937 30.193745 196.075Q30.193745 195.8875 30.162495 195.60625ZM29.24062 195.325L29.08437 194.29375Q29.70937 194.2 30.037495 193.80937Q30.36562 193.40312 30.36562 192.66875Q30.36562 191.95 30.08437 191.60625Q29.787495 191.24687 29.381245 191.24687Q29.02187 191.24687 28.818745 191.55937Q28.67812 191.77812 28.45937 192.6375Q28.162495 193.79375 27.95937 194.24687Q27.74062 194.68437 27.36562 194.91875Q26.99062 195.15312 26.52187 195.15312Q26.11562 195.15312 25.756245 194.96562Q25.39687 194.77812 25.162495 194.45Q24.99062 194.2 24.86562 193.77812Q24.74062 193.35625 24.74062 192.85625Q24.74062 192.1375 24.95937 191.59062Q25.162495 191.02812 25.52187 190.7625Q25.881245 190.49687 26.474995 190.40312L26.61562 191.43437Q26.14687 191.49687 25.881245 191.84062Q25.599995 192.16875 25.599995 192.79375Q25.599995 193.5125 25.849995 193.825Q26.08437 194.1375 26.412495 194.1375Q26.61562 194.1375 26.77187 194.0125Q26.943745 193.87187 27.05312 193.60625Q27.11562 193.45 27.318745 192.66875Q27.631245 191.54375 27.818745 191.10625Q28.006245 190.66875 28.36562 190.41875Q28.724995 190.16875 29.27187 190.16875Q29.80312 190.16875 30.27187 190.48125Q30.724995 190.77812 30.99062 191.35625Q31.24062 191.93437 31.24062 192.66875Q31.24062 193.8875 30.74062 194.52812Q30.224995 195.15312 29.24062 195.325Z" fill-rule="nonzero"/><path fill="#000000" d="M66.6 329.66562Q66.6 328.13437 66.9125 327.2125Q67.225 326.275 67.83437 325.775Q68.45937 325.275 69.39687 325.275Q70.08437 325.275 70.6 325.55624Q71.13125 325.8375 71.475 326.36874Q71.81875 326.88437 72.00625 327.63437Q72.19375 328.38437 72.19375 329.66562Q72.19375 331.18124 71.88125 332.10312Q71.58437 333.025 70.95937 333.54062Q70.35 334.04062 69.39687 334.04062Q68.1625 334.04062 67.44375 333.15Q66.6 332.0875 66.6 329.66562ZM67.67812 329.66562Q67.67812 331.775 68.17812 332.47812Q68.67812 333.18124 69.39687 333.18124Q70.13125 333.18124 70.61562 332.47812Q71.11562 331.775 71.11562 329.66562Q71.11562 327.54062 70.61562 326.85312Q70.13125 326.15 69.38125 326.15Q68.6625 326.15 68.225 326.75937Q67.67812 327.54062 67.67812 329.66562Z" fill-rule="nonzero"/><path fill="#000000" d="M59.6 243.18333L60.709373 243.08958Q60.834373 243.90208 61.271873 244.30833Q61.725 244.71458 62.365623 244.71458Q63.115623 244.71458 63.646873 244.13646Q64.17812 243.55833 64.17812 242.62083Q64.17812 241.71458 63.6625 241.19896Q63.1625 240.66771 62.334373 240.66771Q61.834373 240.66771 61.4125 240.90208Q61.00625 241.13646 60.771873 241.49583L59.7875 241.37083L60.615623 236.96458L64.89687 236.96458L64.89687 237.96458L61.459373 237.96458L61.00625 240.27708Q61.771873 239.73021 62.615623 239.73021Q63.740623 239.73021 64.50625 240.51146Q65.2875 241.29271 65.2875 242.52708Q65.2875 243.68333 64.61562 244.54271Q63.7875 245.57396 62.365623 245.57396Q61.19375 245.57396 60.44375 244.91771Q59.709373 244.26146 59.6 243.18333ZM66.6 241.19896Q66.6 239.66771 66.9125 238.74583Q67.225 237.80833 67.83437 237.30833Q68.45937 236.80833 69.39687 236.80833Q70.08437 236.80833 70.6 237.08958Q71.13125 237.37083 71.475 237.90208Q71.81875 238.41771 72.00625 239.16771Q72.19375 239.91771 72.19375 241.19896Q72.19375 242.71458 71.88125 243.63646Q71.58437 244.55833 70.95937 245.07396Q70.35 245.57396 69.39687 245.57396Q68.1625 245.57396 67.44375 244.68333Q66.6 243.62083 66.6 241.19896ZM67.67812 241.19896Q67.67812 243.30833 68.17812 244.01146Q68.67812 244.71458 69.39687 244.71458Q70.13125 244.71458 70.61562 244.01146Q71.11562 243.30833 71.11562 241.19896Q71.11562 239.07396 70.61562 238.38646Q70.13125 237.68333 69.38125 237.68333Q68.6625 237.68333 68.225 238.29271Q67.67812 239.07396 67.67812 241.19896Z" fill-rule="nonzero"/><path fill="#000000" d="M56.56875 156.96666L55.521873 156.96666L55.521873 150.24791Q55.13125 150.60728 54.50625 150.98228Q53.896873 151.34166 53.4125 151.51353L53.4125 150.49791Q54.2875 150.07603 54.94375 149.49791Q55.615623 148.90416 55.896873 148.34166L56.56875 148.34166L56.56875 156.96666ZM59.6 152.73228Q59.6 151.20103 59.9125 150.27916Q60.225 149.34166 60.834373 148.84166Q61.459373 148.34166 62.396873 148.34166Q63.084373 148.34166 63.6 148.62291Q64.13125 148.90416 64.475 149.43541Q64.81875 149.95103 65.00625 150.70103Q65.19375 151.45103 65.19375 152.73228Q65.19375 154.24791 64.88125 155.16978Q64.58437 156.09166 63.959373 156.60728Q63.35 157.10728 62.396873 157.10728Q61.1625 157.10728 60.44375 156.21666Q59.6 155.15416 59.6 152.73228ZM60.678123 152.73228Q60.678123 154.84166 61.178123 155.54478Q61.678123 156.24791 62.396873 156.24791Q63.13125 156.24791 63.615623 155.54478Q64.11562 154.84166 64.11562 152.73228Q64.11562 150.60728 63.615623 149.91978Q63.13125 149.21666 62.38125 149.21666Q61.6625 149.21666 61.225 149.82603Q60.678123 150.60728 60.678123 152.73228ZM66.6 152.73228Q66.6 151.20103 66.9125 150.27916Q67.225 149.34166 67.83437 148.84166Q68.45937 148.34166 69.39687 148.34166Q70.08437 148.34166 70.6 148.62291Q71.13125 148.90416 71.475 149.43541Q71.81875 149.95103 72.00625 150.70103Q72.19375 151.45103 72.19375 152.73228Q72.19375 154.24791 71.88125 155.16978Q71.58437 156.09166 70.95937 156.60728Q70.35 157.10728 69.39687 157.10728Q68.1625 157.10728 67.44375 156.21666Q66.6 155.15416 66.6 152.73228ZM67.67812 152.73228Q67.67812 154.84166 68.17812 155.54478Q68.67812 156.24791 69.39687 156.24791Q70.13125 156.24791 70.61562 155.54478Q71.11562 154.84166 71.11562 152.73228Q71.11562 150.60728 70.61562 149.91978Q70.13125 149.21666 69.38125 149.21666Q68.6625 149.21666 68.225 149.82603Q67.67812 150.60728 67.67812 152.73228Z" fill-rule="nonzero"/><path fill="#000000" d="M56.56875 68.5L55.521873 68.5L55.521873 61.78125Q55.13125 62.140625 54.50625 62.515625Q53.896873 62.875 53.4125 63.046875L53.4125 62.03125Q54.2875 61.609375 54.94375 61.03125Q55.615623 60.4375 55.896873 59.875L56.56875 59.875L56.56875 68.5ZM59.6 66.25L60.709373 66.15625Q60.834373 66.96875 61.271873 67.375Q61.725 67.78125 62.365623 67.78125Q63.115623 67.78125 63.646873 67.203125Q64.17812 66.625 64.17812 65.6875Q64.17812 64.78125 63.6625 64.265625Q63.1625 63.734375 62.334373 63.734375Q61.834373 63.734375 61.4125 63.96875Q61.00625 64.203125 60.771873 64.5625L59.7875 64.4375L60.615623 60.03125L64.89687 60.03125L64.89687 61.03125L61.459373 61.03125L61.00625 63.34375Q61.771873 62.796875 62.615623 62.796875Q63.740623 62.796875 64.50625 63.578125Q65.2875 64.359375 65.2875 65.59375Q65.2875 66.75 64.61562 67.609375Q63.7875 68.640625 62.365623 68.640625Q61.19375 68.640625 60.44375 67.984375Q59.709373 67.328125 59.6 66.25ZM66.6 64.265625Q66.6 62.734375 66.9125 61.8125Q67.225 60.875 67.83437 60.375Q68.45937 59.875 69.39687 59.875Q70.08437 59.875 70.6 60.15625Q71.13125 60.4375 71.475 60.96875Q71.81875 61.484375 72.00625 62.234375Q72.19375 62.984375 72.19375 64.265625Q72.19375 65.78125 71.88125 66.703125Q71.58437 67.625 70.95937 68.140625Q70.35 68.640625 69.39687 68.640625Q68.1625 68.640625 67.44375 67.75Q66.6 66.6875 66.6 64.265625ZM67.67812 64.265625Q67.67812 66.375 68.17812 67.078125Q68.67812 67.78125 69.39687 67.78125Q70.13125 67.78125 70.61562 67.078125Q71.11562 66.375 71.11562 64.265625Q71.11562 62.140625 70.61562 61.453125Q70.13125 60.75 69.38125 60.75Q68.6625 60.75 68.225 61.359375Q67.67812 62.140625 67.67812 64.265625Z" fill-rule="nonzero"/><path fill="#000000" d="M109.20003 344.4625L110.23128 344.32187Q110.26253 345.30624 110.59065 345.66562Q110.91878 346.025 111.51253 346.025Q111.9344 346.025 112.2469 345.8375Q112.5594 345.63437 112.66878 345.30624Q112.79378 344.9625 112.79378 344.22812L112.79378 338.30624L113.91878 338.30624L113.91878 344.16562Q113.91878 345.24374 113.65315 345.8375Q113.40315 346.43124 112.84065 346.74374Q112.27815 347.04062 111.51253 347.04062Q110.38753 347.04062 109.77815 346.4Q109.1844 345.74374 109.20003 344.4625ZM119.71565 346.13437Q119.1219 346.63437 118.57503 346.8375Q118.04378 347.04062 117.41878 347.04062Q116.38753 347.04062 115.84065 346.54062Q115.29378 346.04062 115.29378 345.25937Q115.29378 344.80624 115.4969 344.43124Q115.70003 344.04062 116.04378 343.82187Q116.38753 343.5875 116.8094 343.47812Q117.10628 343.38437 117.7469 343.30624Q119.01253 343.16562 119.6219 342.94687Q119.6219 342.72812 119.6219 342.68124Q119.6219 342.025 119.32503 341.75937Q118.91878 341.41562 118.1219 341.41562Q117.38753 341.41562 117.02815 341.68124Q116.66878 341.93124 116.4969 342.5875L115.46565 342.44687Q115.60628 341.79062 115.9344 341.38437Q116.26253 340.97812 116.8719 340.75937Q117.48128 340.54062 118.27815 340.54062Q119.07503 340.54062 119.57503 340.72812Q120.07503 340.91562 120.3094 341.19687Q120.54378 341.47812 120.63753 341.91562Q120.6844 342.18124 120.6844 342.88437L120.6844 344.29062Q120.6844 345.75937 120.7469 346.15Q120.82503 346.54062 121.02815 346.9L119.91878 346.9Q119.76253 346.57187 119.71565 346.13437ZM119.6219 343.775Q119.04378 344.00937 117.90315 344.18124Q117.2469 344.275 116.98128 344.4Q116.71565 344.50937 116.5594 344.72812Q116.41878 344.94687 116.41878 345.22812Q116.41878 345.65 116.73128 345.93124Q117.0594 346.2125 117.66878 346.2125Q118.27815 346.2125 118.7469 345.94687Q119.23128 345.68124 119.45003 345.2125Q119.6219 344.85312 119.6219 344.16562L119.6219 343.775ZM122.65315 346.9L122.65315 340.68124L123.59065 340.68124L123.59065 341.55624Q124.27815 340.54062 125.57503 340.54062Q126.13753 340.54062 126.60628 340.74374Q127.09065 340.94687 127.32503 341.275Q127.5594 341.60312 127.65315 342.04062Q127.70003 342.3375 127.70003 343.07187L127.70003 346.9L126.65315 346.9L126.65315 343.11874Q126.65315 342.4625 126.52815 342.15Q126.40315 341.8375 126.09065 341.65Q125.77815 341.44687 125.35628 341.44687Q124.6844 341.44687 124.1844 341.88437Q123.70003 342.30624 123.70003 343.49374L123.70003 346.9L122.65315 346.9ZM133.73128 346.9L133.73128 345.97812Q132.9969 347.04062 131.7469 347.04062Q131.20003 347.04062 130.71565 346.8375Q130.2469 346.61874 130.01253 346.30624Q129.77815 345.97812 129.6844 345.50937Q129.6219 345.2125 129.6219 344.525L129.6219 340.68124L130.6844 340.68124L130.6844 344.13437Q130.6844 344.94687 130.7469 345.24374Q130.84065 345.65 131.15315 345.9Q131.48128 346.13437 131.96565 346.13437Q132.4344 346.13437 132.84065 345.9Q133.26253 345.65 133.4344 345.22812Q133.6219 344.80624 133.6219 344.00937L133.6219 340.68124L134.66878 340.68124L134.66878 346.9L133.73128 346.9ZM140.71565 346.13437Q140.1219 346.63437 139.57503 346.8375Q139.04378 347.04062 138.41878 347.04062Q137.38753 347.04062 136.84065 346.54062Q136.29378 346.04062 136.29378 345.25937Q136.29378 344.80624 136.4969 344.43124Q136.70003 344.04062 137.04378 343.82187Q137.38753 343.5875 137.8094 343.47812Q138.10628 343.38437 138.7469 343.30624Q140.01253 343.16562 140.6219 342.94687Q140.6219 342.72812 140.6219 342.68124Q140.6219 342.025 140.32503 341.75937Q139.91878 341.41562 139.1219 341.41562Q138.38753 341.41562 138.02815 341.68124Q137.66878 341.93124 137.4969 342.5875L136.46565 342.44687Q136.60628 341.79062 136.9344 341.38437Q137.26253 340.97812 137.8719 340.75937Q138.48128 340.54062 139.27815 340.54062Q140.07503 340.54062 140.57503 340.72812Q141.07503 340.91562 141.3094 341.19687Q141.54378 341.47812 141.63753 341.91562Q141.6844 342.18124 141.6844 342.88437L141.6844 344.29062Q141.6844 345.75937 141.7469 346.15Q141.82503 346.54062 142.02815 346.9L140.91878 346.9Q140.76253 346.57187 140.71565 346.13437ZM140.6219 343.775Q140.04378 344.00937 138.90315 344.18124Q138.2469 344.275 137.98128 344.4Q137.71565 344.50937 137.5594 344.72812Q137.41878 344.94687 137.41878 345.22812Q137.41878 345.65 137.73128 345.93124Q138.0594 346.2125 138.66878 346.2125Q139.27815 346.2125 139.7469 345.94687Q140.23128 345.68124 140.45003 345.2125Q140.6219 344.85312 140.6219 344.16562L140.6219 343.775ZM143.63753 346.9L143.63753 340.68124L144.59065 340.68124L144.59065 341.61874Q144.95003 340.9625 145.2469 340.75937Q145.5594 340.54062 145.9344 340.54062Q146.46565 340.54062 147.01253 340.86874L146.65315 341.85312Q146.26253 341.61874 145.88753 341.61874Q145.52815 341.61874 145.2469 341.8375Q144.98128 342.04062 144.8719 342.41562Q144.6844 342.97812 144.6844 343.63437L144.6844 346.9L143.63753 346.9ZM147.60628 349.29062L147.48128 348.30624Q147.82503 348.4 148.09065 348.4Q148.4344 348.4 148.63753 348.275Q148.85628 348.16562 148.9969 347.9625Q149.09065 347.79062 149.32503 347.16562Q149.34065 347.0875 149.41878 346.91562L147.04378 340.68124L148.1844 340.68124L149.48128 344.275Q149.73128 344.9625 149.9344 345.72812Q150.1219 344.99374 150.3719 344.30624L151.70003 340.68124L152.7469 340.68124L150.38753 347.00937Q149.9969 348.025 149.79378 348.41562Q149.51253 348.94687 149.13753 349.18124Q148.77815 349.43124 148.27815 349.43124Q147.98128 349.43124 147.60628 349.29062Z" fill-rule="nonzero"/><path fill="#000000" d="M183.27588 346.9L183.27588 338.30624L189.07275 338.30624L189.07275 339.32187L184.4165 339.32187L184.4165 341.97812L188.44775 341.97812L188.44775 342.99374L184.4165 342.99374L184.4165 346.9L183.27588 346.9ZM194.33838 344.9L195.43213 345.025Q195.18213 345.97812 194.479 346.50937Q193.77588 347.04062 192.69775 347.04062Q191.33838 347.04062 190.52588 346.19687Q189.729 345.35312 189.729 343.8375Q189.729 342.275 190.5415 341.41562Q191.354 340.54062 192.63525 340.54062Q193.88525 340.54062 194.6665 341.38437Q195.46338 342.22812 195.46338 343.775Q195.46338 343.86874 195.46338 344.05624L190.82275 344.05624Q190.88525 345.0875 191.40088 345.63437Q191.9165 346.16562 192.69775 346.16562Q193.27588 346.16562 193.68213 345.86874Q194.104 345.55624 194.33838 344.9ZM190.88525 343.19687L194.354 343.19687Q194.2915 342.4 193.96338 342.00937Q193.44775 341.4 192.65088 341.4Q191.9165 341.4 191.4165 341.88437Q190.93213 342.36874 190.88525 343.19687ZM198.05713 346.9L197.07275 346.9L197.07275 338.30624L198.13525 338.30624L198.13525 341.36874Q198.80713 340.54062 199.83838 340.54062Q200.4165 340.54062 200.9165 340.775Q201.43213 340.99374 201.76025 341.41562Q202.104 341.8375 202.2915 342.43124Q202.479 343.025 202.479 343.69687Q202.479 345.29062 201.68213 346.16562Q200.88525 347.04062 199.7915 347.04062Q198.68213 347.04062 198.05713 346.11874L198.05713 346.9ZM198.0415 343.74374Q198.0415 344.85312 198.354 345.35312Q198.854 346.16562 199.69775 346.16562Q200.38525 346.16562 200.88525 345.57187Q201.40088 344.97812 201.40088 343.775Q201.40088 342.55624 200.9165 341.97812Q200.43213 341.4 199.74463 341.4Q199.05713 341.4 198.5415 342.00937Q198.0415 342.60312 198.0415 343.74374ZM204.07275 346.9L204.07275 340.68124L205.02588 340.68124L205.02588 341.61874Q205.38525 340.9625 205.68213 340.75937Q205.99463 340.54062 206.36963 340.54062Q206.90088 340.54062 207.44775 340.86874L207.08838 341.85312Q206.69775 341.61874 206.32275 341.61874Q205.96338 341.61874 205.68213 341.8375Q205.4165 342.04062 205.30713 342.41562Q205.11963 342.97812 205.11963 343.63437L205.11963 346.9L204.07275 346.9ZM212.1665 346.9L212.1665 345.97812Q211.43213 347.04062 210.18213 347.04062Q209.63525 347.04062 209.15088 346.8375Q208.68213 346.61874 208.44775 346.30624Q208.21338 345.97812 208.11963 345.50937Q208.05713 345.2125 208.05713 344.525L208.05713 340.68124L209.11963 340.68124L209.11963 344.13437Q209.11963 344.94687 209.18213 345.24374Q209.27588 345.65 209.58838 345.9Q209.9165 346.13437 210.40088 346.13437Q210.86963 346.13437 211.27588 345.9Q211.69775 345.65 211.86963 345.22812Q212.05713 344.80624 212.05713 344.00937L212.05713 340.68124L213.104 340.68124L213.104 346.9L212.1665 346.9ZM219.15088 346.13437Q218.55713 346.63437 218.01025 346.8375Q217.479 347.04062 216.854 347.04062Q215.82275 347.04062 215.27588 346.54062Q214.729 346.04062 214.729 345.25937Q214.729 344.80624 214.93213 344.43124Q215.13525 344.04062 215.479 343.82187Q215.82275 343.5875 216.24463 343.47812Q216.5415 343.38437 217.18213 343.30624Q218.44775 343.16562 219.05713 342.94687Q219.05713 342.72812 219.05713 342.68124Q219.05713 342.025 218.76025 341.75937Q218.354 341.41562 217.55713 341.41562Q216.82275 341.41562 216.46338 341.68124Q216.104 341.93124 215.93213 342.5875L214.90088 342.44687Q215.0415 341.79062 215.36963 341.38437Q215.69775 340.97812 216.30713 340.75937Q216.9165 340.54062 217.71338 340.54062Q218.51025 340.54062 219.01025 340.72812Q219.51025 340.91562 219.74463 341.19687Q219.979 341.47812 220.07275 341.91562Q220.11963 342.18124 220.11963 342.88437L220.11963 344.29062Q220.11963 345.75937 220.18213 346.15Q220.26025 346.54062 220.46338 346.9L219.354 346.9Q219.19775 346.57187 219.15088 346.13437ZM219.05713 343.775Q218.479 344.00937 217.33838 344.18124Q216.68213 344.275 216.4165 344.4Q216.15088 344.50937 215.99463 344.72812Q215.854 344.94687 215.854 345.22812Q215.854 345.65 216.1665 345.93124Q216.49463 346.2125 217.104 346.2125Q217.71338 346.2125 218.18213 345.94687Q218.6665 345.68124 218.88525 345.2125Q219.05713 344.85312 219.05713 344.16562L219.05713 343.775ZM222.07275 346.9L222.07275 340.68124L223.02588 340.68124L223.02588 341.61874Q223.38525 340.9625 223.68213 340.75937Q223.99463 340.54062 224.36963 340.54062Q224.90088 340.54062 225.44775 340.86874L225.08838 341.85312Q224.69775 341.61874 224.32275 341.61874Q223.96338 341.61874 223.68213 341.8375Q223.4165 342.04062 223.30713 342.41562Q223.11963 342.97812 223.11963 343.63437L223.11963 346.9L222.07275 346.9ZM226.0415 349.29062L225.9165 348.30624Q226.26025 348.4 226.52588 348.4Q226.86963 348.4 227.07275 348.275Q227.2915 348.16562 227.43213 347.9625Q227.52588 347.79062 227.76025 347.16562Q227.77588 347.0875 227.854 346.91562L225.479 340.68124L226.61963 340.68124L227.9165 344.275Q228.1665 344.9625 228.36963 345.72812Q228.55713 344.99374 228.80713 344.30624L230.13525 340.68124L231.18213 340.68124L228.82275 347.00937Q228.43213 348.025 228.229 348.41562Q227.94775 348.94687 227.57275 349.18124Q227.21338 349.43124 226.71338 349.43124Q226.4165 349.43124 226.0415 349.29062Z" fill-rule="nonzero"/><path fill="#000000" d="M266.61734 346.9L266.61734 338.30624L268.3361 338.30624L270.36734 344.38437Q270.6486 345.24374 270.7736 345.66562Q270.9142 345.19687 271.2267 344.29062L273.2892 338.30624L274.82047 338.30624L274.82047 346.9L273.7267 346.9L273.7267 339.7125L271.2267 346.9L270.19547 346.9L267.7111 339.5875L267.7111 346.9L266.61734 346.9ZM279.5861 346.13437Q278.99234 346.63437 278.44547 346.8375Q277.9142 347.04062 277.2892 347.04062Q276.25797 347.04062 275.7111 346.54062Q275.1642 346.04062 275.1642 345.25937Q275.1642 344.80624 275.36734 344.43124Q275.57047 344.04062 275.9142 343.82187Q276.25797 343.5875 276.67984 343.47812Q276.9767 343.38437 277.61734 343.30624Q278.88297 343.16562 279.49234 342.94687Q279.49234 342.72812 279.49234 342.68124Q279.49234 342.025 279.19547 341.75937Q278.7892 341.41562 277.99234 341.41562Q277.25797 341.41562 276.8986 341.68124Q276.5392 341.93124 276.36734 342.5875L275.3361 342.44687Q275.4767 341.79062 275.80484 341.38437Q276.13297 340.97812 276.74234 340.75937Q277.3517 340.54062 278.1486 340.54062Q278.94547 340.54062 279.44547 340.72812Q279.94547 340.91562 280.17984 341.19687Q280.4142 341.47812 280.50797 341.91562Q280.55484 342.18124 280.55484 342.88437L280.55484 344.29062Q280.55484 345.75937 280.61734 346.15Q280.69547 346.54062 280.8986 346.9L279.7892 346.9Q279.63297 346.57187 279.5861 346.13437ZM279.49234 343.775Q278.9142 344.00937 277.7736 344.18124Q277.11734 344.275 276.8517 344.4Q276.5861 344.50937 276.42984 344.72812Q276.2892 344.94687 276.2892 345.22812Q276.2892 345.65 276.6017 345.93124Q276.92984 346.2125 277.5392 346.2125Q278.1486 346.2125 278.61734 345.94687Q279.1017 345.68124 279.32047 345.2125Q279.49234 344.85312 279.49234 344.16562L279.49234 343.775ZM282.50797 346.9L282.50797 340.68124L283.4611 340.68124L283.4611 341.61874Q283.82047 340.9625 284.11734 340.75937Q284.42984 340.54062 284.80484 340.54062Q285.3361 340.54062 285.88297 340.86874L285.5236 341.85312Q285.13297 341.61874 284.75797 341.61874Q284.3986 341.61874 284.11734 341.8375Q283.8517 342.04062 283.74234 342.41562Q283.55484 342.97812 283.55484 343.63437L283.55484 346.9L282.50797 346.9ZM290.5861 344.61874L291.61734 344.75937Q291.44547 345.82187 290.74234 346.43124Q290.0392 347.04062 289.0236 347.04062Q287.74234 347.04062 286.9611 346.2125Q286.19547 345.36874 286.19547 343.80624Q286.19547 342.80624 286.5236 342.05624Q286.86734 341.29062 287.5392 340.91562Q288.2267 340.54062 289.0392 340.54062Q290.0392 340.54062 290.67984 341.05624Q291.3361 341.55624 291.5236 342.50937L290.49234 342.66562Q290.3517 342.04062 289.9767 341.72812Q289.6017 341.4 289.07047 341.4Q288.2736 341.4 287.7736 341.97812Q287.2736 342.54062 287.2736 343.775Q287.2736 345.04062 287.75797 345.60312Q288.24234 346.16562 289.00797 346.16562Q289.63297 346.16562 290.0392 345.79062Q290.4611 345.41562 290.5861 344.61874ZM292.5236 346.9L292.5236 338.30624L293.57047 338.30624L293.57047 341.38437Q294.30484 340.54062 295.42984 340.54062Q296.13297 340.54062 296.63297 340.82187Q297.1486 341.0875 297.36734 341.57187Q297.5861 342.04062 297.5861 342.9625L297.5861 346.9L296.5392 346.9L296.5392 342.9625Q296.5392 342.16562 296.19547 341.80624Q295.8517 341.44687 295.2267 341.44687Q294.75797 341.44687 294.3361 341.69687Q293.92984 341.93124 293.74234 342.35312Q293.57047 342.75937 293.57047 343.49374L293.57047 346.9L292.5236 346.9Z" fill-rule="nonzero"/><path fill="#000000" d="M346.14633 346.9L349.4432 338.30624L350.66196 338.30624L354.17758 346.9L352.89633 346.9L351.8807 344.29062L348.30258 344.29062L347.34946 346.9L346.14633 346.9ZM348.6307 343.36874L351.53696 343.36874L350.64633 340.99374Q350.22446 339.91562 350.03696 339.2125Q349.86508 340.04062 349.5682 340.85312L348.6307 343.36874ZM353.95883 349.29062L353.95883 340.68124L354.91196 340.68124L354.91196 341.47812Q355.2557 341.00937 355.67758 340.775Q356.11508 340.54062 356.72446 340.54062Q357.52133 340.54062 358.1307 340.94687Q358.74008 341.35312 359.03696 342.10312Q359.34946 342.85312 359.34946 343.74374Q359.34946 344.69687 359.0057 345.4625Q358.67758 346.22812 358.02133 346.63437Q357.36508 347.04062 356.64633 347.04062Q356.11508 347.04062 355.6932 346.82187Q355.27133 346.5875 355.0057 346.25937L355.0057 349.29062L353.95883 349.29062ZM354.91196 343.82187Q354.91196 345.025 355.39633 345.60312Q355.8807 346.16562 356.5682 346.16562Q357.27133 346.16562 357.77133 345.57187Q358.27133 344.97812 358.27133 343.72812Q358.27133 342.54062 357.78696 341.9625Q357.30258 341.36874 356.61508 341.36874Q355.9432 341.36874 355.42758 341.99374Q354.91196 342.61874 354.91196 343.82187ZM360.9432 346.9L360.9432 340.68124L361.89633 340.68124L361.89633 341.61874Q362.2557 340.9625 362.55258 340.75937Q362.86508 340.54062 363.24008 340.54062Q363.77133 340.54062 364.3182 340.86874L363.95883 341.85312Q363.5682 341.61874 363.1932 341.61874Q362.83383 341.61874 362.55258 341.8375Q362.28696 342.04062 362.17758 342.41562Q361.99008 342.97812 361.99008 343.63437L361.99008 346.9L360.9432 346.9ZM364.95883 339.525L364.95883 338.30624L366.02133 338.30624L366.02133 339.525L364.95883 339.525ZM364.95883 346.9L364.95883 340.68124L366.02133 340.68124L366.02133 346.9L364.95883 346.9ZM367.92758 346.9L367.92758 338.30624L368.99008 338.30624L368.99008 346.9L367.92758 346.9Z" fill-rule="nonzero"/><path fill="#000000" d="M424.4878 346.9L424.4878 338.30624L426.20654 338.30624L428.2378 344.38437Q428.51904 345.24374 428.64404 345.66562Q428.78467 345.19687 429.09717 344.29062L431.15967 338.30624L432.69092 338.30624L432.69092 346.9L431.59717 346.9L431.59717 339.7125L429.09717 346.9L428.06592 346.9L425.58154 339.5875L425.58154 346.9L424.4878 346.9ZM437.45654 346.13437Q436.8628 346.63437 436.31592 346.8375Q435.78467 347.04062 435.15967 347.04062Q434.12842 347.04062 433.58154 346.54062Q433.03467 346.04062 433.03467 345.25937Q433.03467 344.80624 433.2378 344.43124Q433.44092 344.04062 433.78467 343.82187Q434.12842 343.5875 434.5503 343.47812Q434.84717 343.38437 435.4878 343.30624Q436.75342 343.16562 437.3628 342.94687Q437.3628 342.72812 437.3628 342.68124Q437.3628 342.025 437.06592 341.75937Q436.65967 341.41562 435.8628 341.41562Q435.12842 341.41562 434.76904 341.68124Q434.40967 341.93124 434.2378 342.5875L433.20654 342.44687Q433.34717 341.79062 433.6753 341.38437Q434.00342 340.97812 434.6128 340.75937Q435.22217 340.54062 436.01904 340.54062Q436.81592 340.54062 437.31592 340.72812Q437.81592 340.91562 438.0503 341.19687Q438.28467 341.47812 438.37842 341.91562Q438.4253 342.18124 438.4253 342.88437L438.4253 344.29062Q438.4253 345.75937 438.4878 346.15Q438.56592 346.54062 438.76904 346.9L437.65967 346.9Q437.50342 346.57187 437.45654 346.13437ZM437.3628 343.775Q436.78467 344.00937 435.64404 344.18124Q434.9878 344.275 434.72217 344.4Q434.45654 344.50937 434.3003 344.72812Q434.15967 344.94687 434.15967 345.22812Q434.15967 345.65 434.47217 345.93124Q434.8003 346.2125 435.40967 346.2125Q436.01904 346.2125 436.4878 345.94687Q436.97217 345.68124 437.19092 345.2125Q437.3628 344.85312 437.3628 344.16562L437.3628 343.775ZM440.34717 349.29062L440.22217 348.30624Q440.56592 348.4 440.83154 348.4Q441.1753 348.4 441.37842 348.275Q441.59717 348.16562 441.7378 347.9625Q441.83154 347.79062 442.06592 347.16562Q442.08154 347.0875 442.15967 346.91562L439.78467 340.68124L440.9253 340.68124L442.22217 344.275Q442.47217 344.9625 442.6753 345.72812Q442.8628 344.99374 443.1128 344.30624L444.44092 340.68124L445.4878 340.68124L443.12842 347.00937Q442.7378 348.025 442.53467 348.41562Q442.25342 348.94687 441.87842 349.18124Q441.51904 349.43124 441.01904 349.43124Q440.72217 349.43124 440.34717 349.29062Z" fill-rule="nonzero"/><path fill="#000000" d="M496.87613 344.4625L497.90738 344.32187Q497.93863 345.30624 498.26675 345.66562Q498.59488 346.025 499.18863 346.025Q499.6105 346.025 499.923 345.8375Q500.2355 345.63437 500.34488 345.30624Q500.46988 344.9625 500.46988 344.22812L500.46988 338.30624L501.59488 338.30624L501.59488 344.16562Q501.59488 345.24374 501.32925 345.8375Q501.07925 346.43124 500.51675 346.74374Q499.95425 347.04062 499.18863 347.04062Q498.06363 347.04062 497.45425 346.4Q496.8605 345.74374 496.87613 344.4625ZM507.40738 346.9L507.40738 345.97812Q506.673 347.04062 505.423 347.04062Q504.87613 347.04062 504.39175 346.8375Q503.923 346.61874 503.68863 346.30624Q503.45425 345.97812 503.3605 345.50937Q503.298 345.2125 503.298 344.525L503.298 340.68124L504.3605 340.68124L504.3605 344.13437Q504.3605 344.94687 504.423 345.24374Q504.51675 345.65 504.82925 345.9Q505.15738 346.13437 505.64175 346.13437Q506.1105 346.13437 506.51675 345.9Q506.93863 345.65 507.1105 345.22812Q507.298 344.80624 507.298 344.00937L507.298 340.68124L508.34488 340.68124L508.34488 346.9L507.40738 346.9ZM510.32925 346.9L510.32925 340.68124L511.26675 340.68124L511.26675 341.55624Q511.95425 340.54062 513.2511 340.54062Q513.8136 340.54062 514.28235 340.74374Q514.7667 340.94687 515.0011 341.275Q515.2355 341.60312 515.3292 342.04062Q515.3761 342.3375 515.3761 343.07187L515.3761 346.9L514.3292 346.9L514.3292 343.11874Q514.3292 342.4625 514.2042 342.15Q514.0792 341.8375 513.7667 341.65Q513.4542 341.44687 513.03235 341.44687Q512.3605 341.44687 511.8605 341.88437Q511.37613 342.30624 511.37613 343.49374L511.37613 346.9L510.32925 346.9ZM521.5792 344.9L522.673 345.025Q522.423 345.97812 521.71985 346.50937Q521.0167 347.04062 519.9386 347.04062Q518.5792 347.04062 517.7667 346.19687Q516.96985 345.35312 516.96985 343.8375Q516.96985 342.275 517.78235 341.41562Q518.59485 340.54062 519.8761 340.54062Q521.1261 340.54062 521.90735 341.38437Q522.7042 342.22812 522.7042 343.775Q522.7042 343.86874 522.7042 344.05624L518.0636 344.05624Q518.1261 345.0875 518.6417 345.63437Q519.15735 346.16562 519.9386 346.16562Q520.5167 346.16562 520.923 345.86874Q521.34485 345.55624 521.5792 344.9ZM518.1261 343.19687L521.59485 343.19687Q521.53235 342.4 521.2042 342.00937Q520.6886 341.4 519.8917 341.4Q519.15735 341.4 518.65735 341.88437Q518.173 342.36874 518.1261 343.19687Z" fill-rule="nonzero"/><path fill="#000000" d="M575.81134 344.4625L576.8426 344.32187Q576.87384 345.30624 577.20197 345.66562Q577.5301 346.025 578.12384 346.025Q578.5457 346.025 578.8582 345.8375Q579.1707 345.63437 579.2801 345.30624Q579.4051 344.9625 579.4051 344.22812L579.4051 338.30624L580.5301 338.30624L580.5301 344.16562Q580.5301 345.24374 580.26447 345.8375Q580.01447 346.43124 579.45197 346.74374Q578.88947 347.04062 578.12384 347.04062Q576.99884 347.04062 576.38947 346.4Q575.7957 345.74374 575.81134 344.4625ZM586.3426 346.9L586.3426 345.97812Q585.6082 347.04062 584.3582 347.04062Q583.81134 347.04062 583.32697 346.8375Q582.8582 346.61874 582.62384 346.30624Q582.38947 345.97812 582.2957 345.50937Q582.2332 345.2125 582.2332 344.525L582.2332 340.68124L583.2957 340.68124L583.2957 344.13437Q583.2957 344.94687 583.3582 345.24374Q583.45197 345.65 583.76447 345.9Q584.0926 346.13437 584.57697 346.13437Q585.0457 346.13437 585.45197 345.9Q585.87384 345.65 586.0457 345.22812Q586.2332 344.80624 586.2332 344.00937L586.2332 340.68124L587.2801 340.68124L587.2801 346.9L586.3426 346.9ZM589.2332 346.9L589.2332 338.30624L590.2957 338.30624L590.2957 346.9L589.2332 346.9ZM592.2176 349.29062L592.0926 348.30624Q592.43634 348.4 592.70197 348.4Q593.0457 348.4 593.24884 348.275Q593.4676 348.16562 593.6082 347.9625Q593.70197 347.79062 593.93634 347.16562Q593.95197 347.0875 594.0301 346.91562L591.6551 340.68124L592.7957 340.68124L594.0926 344.275Q594.3426 344.9625 594.5457 345.72812Q594.7332 344.99374 594.9832 344.30624L596.31134 340.68124L597.3582 340.68124L594.99884 347.00937Q594.6082 348.025 594.4051 348.41562Q594.12384 348.94687 593.74884 349.18124Q593.38947 349.43124 592.88947 349.43124Q592.5926 349.43124 592.2176 349.29062Z" fill-rule="nonzero"/><path fill="#000000" d="M642.8872 346.9L646.1841 338.30624L647.40283 338.30624L650.91846 346.9L649.6372 346.9L648.6216 344.29062L645.04346 344.29062L644.09033 346.9L642.8872 346.9ZM645.3716 343.36874L648.27783 343.36874L647.3872 340.99374Q646.96533 339.91562 646.77783 339.2125Q646.60596 340.04062 646.3091 340.85312L645.3716 343.36874ZM654.77783 346.9L654.77783 345.97812Q654.04346 347.04062 652.79346 347.04062Q652.2466 347.04062 651.7622 346.8375Q651.29346 346.61874 651.0591 346.30624Q650.8247 345.97812 650.73096 345.50937Q650.66846 345.2125 650.66846 344.525L650.66846 340.68124L651.73096 340.68124L651.73096 344.13437Q651.73096 344.94687 651.79346 345.24374Q651.8872 345.65 652.1997 345.9Q652.52783 346.13437 653.0122 346.13437Q653.48096 346.13437 653.8872 345.9Q654.3091 345.65 654.48096 345.22812Q654.66846 344.80624 654.66846 344.00937L654.66846 340.68124L655.71533 340.68124L655.71533 346.9L654.77783 346.9ZM657.4966 347.41562L658.52783 347.57187Q658.59033 348.04062 658.8872 348.25937Q659.27783 348.55624 659.9497 348.55624Q660.6841 348.55624 661.0747 348.25937Q661.48096 347.9625 661.6216 347.44687Q661.71533 347.11874 661.6997 346.0875Q661.0122 346.9 659.98096 346.9Q658.6997 346.9 657.9966 345.97812Q657.29346 345.04062 657.29346 343.75937Q657.29346 342.86874 657.60596 342.11874Q657.9341 341.35312 658.54346 340.94687Q659.15283 340.54062 659.98096 340.54062Q661.09033 340.54062 661.8091 341.43124L661.8091 340.68124L662.77783 340.68124L662.77783 346.05624Q662.77783 347.50937 662.48096 348.11874Q662.1841 348.72812 661.54346 349.07187Q660.90283 349.43124 659.96533 349.43124Q658.85596 349.43124 658.16846 348.93124Q657.48096 348.43124 657.4966 347.41562ZM658.3716 343.68124Q658.3716 344.9 658.85596 345.4625Q659.34033 346.025 660.0747 346.025Q660.8091 346.025 661.29346 345.4625Q661.79346 344.9 661.79346 343.7125Q661.79346 342.57187 661.27783 341.99374Q660.77783 341.41562 660.0591 341.41562Q659.35596 341.41562 658.85596 341.99374Q658.3716 342.55624 658.3716 343.68124ZM668.77783 346.9L668.77783 345.97812Q668.04346 347.04062 666.79346 347.04062Q666.2466 347.04062 665.7622 346.8375Q665.29346 346.61874 665.0591 346.30624Q664.8247 345.97812 664.73096 345.50937Q664.66846 345.2125 664.66846 344.525L664.66846 340.68124L665.73096 340.68124L665.73096 344.13437Q665.73096 344.94687 665.79346 345.24374Q665.8872 345.65 666.1997 345.9Q666.52783 346.13437 667.0122 346.13437Q667.48096 346.13437 667.8872 345.9Q668.3091 345.65 668.48096 345.22812Q668.66846 344.80624 668.66846 344.00937L668.66846 340.68124L669.71533 340.68124L669.71533 346.9L668.77783 346.9ZM671.27783 345.04062L672.3091 344.88437Q672.40283 345.50937 672.79346 345.8375Q673.1997 346.16562 673.9341 346.16562Q674.65283 346.16562 674.9966 345.88437Q675.35596 345.5875 675.35596 345.18124Q675.35596 344.82187 675.04346 344.61874Q674.8247 344.47812 673.96533 344.25937Q672.8091 343.9625 672.35596 343.75937Q671.91846 343.54062 671.6841 343.16562Q671.4497 342.79062 671.4497 342.32187Q671.4497 341.91562 671.6372 341.55624Q671.8247 341.19687 672.15283 340.9625Q672.40283 340.79062 672.8247 340.66562Q673.2466 340.54062 673.7466 340.54062Q674.46533 340.54062 675.0122 340.75937Q675.5747 340.9625 675.84033 341.32187Q676.10596 341.68124 676.1997 342.275L675.16846 342.41562Q675.10596 341.94687 674.7622 341.68124Q674.4341 341.4 673.8091 341.4Q673.09033 341.4 672.77783 341.65Q672.46533 341.88437 672.46533 342.2125Q672.46533 342.41562 672.59033 342.57187Q672.73096 342.74374 672.9966 342.85312Q673.15283 342.91562 673.9341 343.11874Q675.0591 343.43124 675.4966 343.61874Q675.9341 343.80624 676.1841 344.16562Q676.4341 344.525 676.4341 345.07187Q676.4341 345.60312 676.1216 346.07187Q675.8247 346.525 675.2466 346.79062Q674.66846 347.04062 673.9341 347.04062Q672.71533 347.04062 672.0747 346.54062Q671.4497 346.025 671.27783 345.04062ZM680.9966 345.9625L681.15283 346.88437Q680.6997 346.97812 680.35596 346.97812Q679.77783 346.97812 679.46533 346.80624Q679.15283 346.61874 679.0122 346.32187Q678.8872 346.025 678.8872 345.07187L678.8872 341.49374L678.1216 341.49374L678.1216 340.68124L678.8872 340.68124L678.8872 339.13437L679.9341 338.50937L679.9341 340.68124L680.9966 340.68124L680.9966 341.49374L679.9341 341.49374L679.9341 345.13437Q679.9341 345.5875 679.98096 345.7125Q680.04346 345.8375 680.16846 345.91562Q680.29346 345.99374 680.52783 345.99374Q680.71533 345.99374 680.9966 345.9625Z" fill-rule="nonzero"/><path fill="#000000" d="M707.88495 344.13437L708.94745 344.04062Q709.0256 344.69687 709.3068 345.10312Q709.5881 345.50937 710.1662 345.775Q710.75995 346.025 711.4943 346.025Q712.13495 346.025 712.63495 345.8375Q713.13495 345.63437 713.3693 345.30624Q713.6193 344.9625 713.6193 344.57187Q713.6193 344.16562 713.38495 343.86874Q713.1506 343.55624 712.6193 343.35312Q712.25995 343.2125 711.07245 342.93124Q709.9006 342.65 709.4318 342.4Q708.8068 342.07187 708.50995 341.60312Q708.2131 341.11874 708.2131 340.525Q708.2131 339.88437 708.57245 339.32187Q708.94745 338.74374 709.6506 338.4625Q710.3693 338.16562 711.2287 338.16562Q712.1818 338.16562 712.9162 338.47812Q713.6506 338.775 714.0412 339.38437Q714.4318 339.97812 714.4631 340.72812L713.3693 340.80624Q713.2756 339.99374 712.75995 339.5875Q712.25995 339.16562 711.2756 339.16562Q710.2443 339.16562 709.7756 339.54062Q709.3068 339.91562 709.3068 340.44687Q709.3068 340.91562 709.63495 341.2125Q709.9631 341.50937 711.3381 341.82187Q712.7287 342.13437 713.2443 342.36874Q713.9943 342.72812 714.3537 343.25937Q714.7131 343.775 714.7131 344.47812Q714.7131 345.16562 714.32245 345.775Q713.9318 346.36874 713.19745 346.7125Q712.4631 347.04062 711.5412 347.04062Q710.3693 347.04062 709.57245 346.7125Q708.7912 346.36874 708.3381 345.68124Q707.9006 344.99374 707.88495 344.13437ZM720.38495 344.9L721.4787 345.025Q721.2287 345.97812 720.5256 346.50937Q719.82245 347.04062 718.7443 347.04062Q717.38495 347.04062 716.57245 346.19687Q715.7756 345.35312 715.7756 343.8375Q715.7756 342.275 716.5881 341.41562Q717.4006 340.54062 718.6818 340.54062Q719.9318 340.54062 720.7131 341.38437Q721.50995 342.22812 721.50995 343.775Q721.50995 343.86874 721.50995 344.05624L716.8693 344.05624Q716.9318 345.0875 717.44745 345.63437Q717.9631 346.16562 718.7443 346.16562Q719.32245 346.16562 719.7287 345.86874Q720.1506 345.55624 720.38495 344.9ZM716.9318 343.19687L720.4006 343.19687Q720.3381 342.4 720.00995 342.00937Q719.4943 341.4 718.69745 341.4Q717.9631 341.4 717.4631 341.88437Q716.9787 342.36874 716.9318 343.19687ZM723.13495 349.29062L723.13495 340.68124L724.0881 340.68124L724.0881 341.47812Q724.4318 341.00937 724.8537 340.775Q725.2912 340.54062 725.9006 340.54062Q726.69745 340.54062 727.3068 340.94687Q727.9162 341.35312 728.2131 342.10312Q728.5256 342.85312 728.5256 343.74374Q728.5256 344.69687 728.1818 345.4625Q727.8537 346.22812 727.19745 346.63437Q726.5412 347.04062 725.82245 347.04062Q725.2912 347.04062 724.8693 346.82187Q724.44745 346.5875 724.1818 346.25937L724.1818 349.29062L723.13495 349.29062ZM724.0881 343.82187Q724.0881 345.025 724.57245 345.60312Q725.0568 346.16562 725.7443 346.16562Q726.44745 346.16562 726.94745 345.57187Q727.44745 344.97812 727.44745 343.72812Q727.44745 342.54062 726.9631 341.9625Q726.4787 341.36874 725.7912 341.36874Q725.1193 341.36874 724.6037 341.99374Q724.0881 342.61874 724.0881 343.82187ZM732.4318 345.9625L732.5881 346.88437Q732.13495 346.97812 731.7912 346.97812Q731.2131 346.97812 730.9006 346.80624Q730.5881 346.61874 730.44745 346.32187Q730.32245 346.025 730.32245 345.07187L730.32245 341.49374L729.5568 341.49374L729.5568 340.68124L730.32245 340.68124L730.32245 339.13437L731.3693 338.50937L731.3693 340.68124L732.4318 340.68124L732.4318 341.49374L731.3693 341.49374L731.3693 345.13437Q731.3693 345.5875 731.4162 345.7125Q731.4787 345.8375 731.6037 345.91562Q731.7287 345.99374 731.9631 345.99374Q732.1506 345.99374 732.4318 345.9625ZM737.38495 344.9L738.4787 345.025Q738.2287 345.97812 737.5256 346.50937Q736.82245 347.04062 735.7443 347.04062Q734.38495 347.04062 733.57245 346.19687Q732.7756 345.35312 732.7756 343.8375Q732.7756 342.275 733.5881 341.41562Q734.4006 340.54062 735.6818 340.54062Q736.9318 340.54062 737.7131 341.38437Q738.50995 342.22812 738.50995 343.775Q738.50995 343.86874 738.50995 344.05624L733.8693 344.05624Q733.9318 345.0875 734.44745 345.63437Q734.9631 346.16562 735.7443 346.16562Q736.32245 346.16562 736.7287 345.86874Q737.1506 345.55624 737.38495 344.9ZM733.9318 343.19687L737.4006 343.19687Q737.3381 342.4 737.00995 342.00937Q736.4943 341.4 735.69745 341.4Q734.9631 341.4 734.4631 341.88437Q733.9787 342.36874 733.9318 343.19687ZM740.13495 346.9L740.13495 340.68124L741.07245 340.68124L741.07245 341.55624Q741.3693 341.0875 741.8537 340.82187Q742.3381 340.54062 742.9631 340.54062Q743.6506 340.54062 744.0881 340.82187Q744.5412 341.10312 744.7131 341.61874Q745.4631 340.54062 746.63495 340.54062Q747.57245 340.54062 748.0568 341.05624Q748.5568 341.55624 748.5568 342.63437L748.5568 346.9L747.50995 346.9L747.50995 342.97812Q747.50995 342.35312 747.4006 342.07187Q747.3068 341.79062 747.0412 341.61874Q746.7756 341.44687 746.4006 341.44687Q745.7443 341.44687 745.3068 341.88437Q744.88495 342.32187 744.88495 343.29062L744.88495 346.9L743.82245 346.9L743.82245 342.85312Q743.82245 342.15 743.5568 341.80624Q743.3068 341.44687 742.7287 341.44687Q742.2756 341.44687 741.9006 341.68124Q741.5256 341.91562 741.3537 342.36874Q741.1818 342.82187 741.1818 343.66562L741.1818 346.9L740.13495 346.9ZM752.1037 346.9L751.1193 346.9L751.1193 338.30624L752.1818 338.30624L752.1818 341.36874Q752.8537 340.54062 753.88495 340.54062Q754.4631 340.54062 754.9631 340.775Q755.4787 340.99374 755.8068 341.41562Q756.1506 341.8375 756.3381 342.43124Q756.5256 343.025 756.5256 343.69687Q756.5256 345.29062 755.7287 346.16562Q754.9318 347.04062 753.8381 347.04062Q752.7287 347.04062 752.1037 346.11874L752.1037 346.9ZM752.0881 343.74374Q752.0881 344.85312 752.4006 345.35312Q752.9006 346.16562 753.7443 346.16562Q754.4318 346.16562 754.9318 345.57187Q755.44745 344.97812 755.44745 343.775Q755.44745 342.55624 754.9631 341.97812Q754.4787 341.4 753.7912 341.4Q753.1037 341.4 752.5881 342.00937Q752.0881 342.60312 752.0881 343.74374ZM762.38495 344.9L763.4787 345.025Q763.2287 345.97812 762.5256 346.50937Q761.82245 347.04062 760.7443 347.04062Q759.38495 347.04062 758.57245 346.19687Q757.7756 345.35312 757.7756 343.8375Q757.7756 342.275 758.5881 341.41562Q759.4006 340.54062 760.6818 340.54062Q761.9318 340.54062 762.7131 341.38437Q763.50995 342.22812 763.50995 343.775Q763.50995 343.86874 763.50995 344.05624L758.8693 344.05624Q758.9318 345.0875 759.44745 345.63437Q759.9631 346.16562 760.7443 346.16562Q761.32245 346.16562 761.7287 345.86874Q762.1506 345.55624 762.38495 344.9ZM758.9318 343.19687L762.4006 343.19687Q762.3381 342.4 762.00995 342.00937Q761.4943 341.4 760.69745 341.4Q759.9631 341.4 759.4631 341.88437Q758.9787 342.36874 758.9318 343.19687ZM765.1193 346.9L765.1193 340.68124L766.07245 340.68124L766.07245 341.61874Q766.4318 340.9625 766.7287 340.75937Q767.0412 340.54062 767.4162 340.54062Q767.94745 340.54062 768.4943 340.86874L768.13495 341.85312Q767.7443 341.61874 767.3693 341.61874Q767.00995 341.61874 766.7287 341.8375Q766.4631 342.04062 766.3537 342.41562Q766.1662 342.97812 766.1662 343.63437L766.1662 346.9L765.1193 346.9Z" fill-rule="nonzero"/><path fill="#000000" d="M792.8514 342.7125Q792.8514 340.57187 793.992 339.36874Q795.14825 338.15 796.96075 338.15Q798.1639 338.15 799.117 338.72812Q800.0701 339.29062 800.5701 340.30624Q801.0701 341.32187 801.0701 342.61874Q801.0701 343.91562 800.5389 344.94687Q800.0076 345.97812 799.0389 346.50937Q798.08575 347.04062 796.96075 347.04062Q795.742 347.04062 794.7889 346.4625Q793.83575 345.86874 793.33575 344.86874Q792.8514 343.85312 792.8514 342.7125ZM794.02325 342.72812Q794.02325 344.29062 794.8514 345.18124Q795.6951 346.07187 796.96075 346.07187Q798.242 346.07187 799.0701 345.18124Q799.89825 344.275 799.89825 342.60312Q799.89825 341.55624 799.5389 340.775Q799.1951 339.99374 798.5076 339.57187Q797.8201 339.13437 796.9764 339.13437Q795.77325 339.13437 794.89825 339.9625Q794.02325 340.79062 794.02325 342.72812ZM806.1326 344.61874L807.1639 344.75937Q806.992 345.82187 806.2889 346.43124Q805.58575 347.04062 804.5701 347.04062Q803.2889 347.04062 802.5076 346.2125Q801.742 345.36874 801.742 343.80624Q801.742 342.80624 802.0701 342.05624Q802.4139 341.29062 803.08575 340.91562Q803.77325 340.54062 804.58575 340.54062Q805.58575 340.54062 806.2264 341.05624Q806.8826 341.55624 807.0701 342.50937L806.0389 342.66562Q805.89825 342.04062 805.52325 341.72812Q805.14825 341.4 804.617 341.4Q803.8201 341.4 803.3201 341.97812Q802.8201 342.54062 802.8201 343.775Q802.8201 345.04062 803.3045 345.60312Q803.7889 346.16562 804.5545 346.16562Q805.1795 346.16562 805.58575 345.79062Q806.0076 345.41562 806.1326 344.61874ZM810.367 345.9625L810.52325 346.88437Q810.0701 346.97812 809.7264 346.97812Q809.14825 346.97812 808.83575 346.80624Q808.52325 346.61874 808.3826 346.32187Q808.2576 346.025 808.2576 345.07187L808.2576 341.49374L807.492 341.49374L807.492 340.68124L808.2576 340.68124L808.2576 339.13437L809.3045 338.50937L809.3045 340.68124L810.367 340.68124L810.367 341.49374L809.3045 341.49374L809.3045 345.13437Q809.3045 345.5875 809.3514 345.7125Q809.4139 345.8375 809.5389 345.91562Q809.6639 345.99374 809.89825 345.99374Q810.08575 345.99374 810.367 345.9625ZM810.6795 343.79062Q810.6795 342.05624 811.6326 341.22812Q812.4295 340.54062 813.58575 340.54062Q814.867 340.54062 815.6795 341.38437Q816.5076 342.2125 816.5076 343.69687Q816.5076 344.9 816.14825 345.5875Q815.7889 346.275 815.08575 346.66562Q814.39825 347.04062 813.58575 347.04062Q812.2889 347.04062 811.4764 346.2125Q810.6795 345.36874 810.6795 343.79062ZM811.7576 343.79062Q811.7576 344.97812 812.27325 345.57187Q812.8045 346.16562 813.58575 346.16562Q814.3826 346.16562 814.89825 345.57187Q815.4139 344.97812 815.4139 343.75937Q815.4139 342.60312 814.8826 342.00937Q814.367 341.41562 813.58575 341.41562Q812.8045 341.41562 812.27325 342.00937Q811.7576 342.5875 811.7576 343.79062ZM819.0389 346.9L818.0545 346.9L818.0545 338.30624L819.117 338.30624L819.117 341.36874Q819.7889 340.54062 820.8201 340.54062Q821.39825 340.54062 821.89825 340.775Q822.4139 340.99374 822.742 341.41562Q823.08575 341.8375 823.27325 342.43124Q823.46075 343.025 823.46075 343.69687Q823.46075 345.29062 822.6639 346.16562Q821.867 347.04062 820.77325 347.04062Q819.6639 347.04062 819.0389 346.11874L819.0389 346.9ZM819.02325 343.74374Q819.02325 344.85312 819.33575 345.35312Q819.83575 346.16562 820.6795 346.16562Q821.367 346.16562 821.867 345.57187Q822.3826 344.97812 822.3826 343.775Q822.3826 342.55624 821.89825 341.97812Q821.4139 341.4 820.7264 341.4Q820.0389 341.4 819.52325 342.00937Q819.02325 342.60312 819.02325 343.74374ZM829.3201 344.9L830.4139 345.025Q830.1639 345.97812 829.46075 346.50937Q828.7576 347.04062 827.6795 347.04062Q826.3201 347.04062 825.5076 346.19687Q824.71075 345.35312 824.71075 343.8375Q824.71075 342.275 825.52325 341.41562Q826.33575 340.54062 827.617 340.54062Q828.867 340.54062 829.64825 341.38437Q830.4451 342.22812 830.4451 343.775Q830.4451 343.86874 830.4451 344.05624L825.8045 344.05624Q825.867 345.0875 826.3826 345.63437Q826.89825 346.16562 827.6795 346.16562Q828.2576 346.16562 828.6639 345.86874Q829.08575 345.55624 829.3201 344.9ZM825.867 343.19687L829.33575 343.19687Q829.27325 342.4 828.9451 342.00937Q828.4295 341.4 827.6326 341.4Q826.89825 341.4 826.39825 341.88437Q825.9139 342.36874 825.867 343.19687ZM832.0545 346.9L832.0545 340.68124L833.0076 340.68124L833.0076 341.61874Q833.367 340.9625 833.6639 340.75937Q833.9764 340.54062 834.3514 340.54062Q834.8826 340.54062 835.4295 340.86874L835.0701 341.85312Q834.6795 341.61874 834.3045 341.61874Q833.9451 341.61874 833.6639 341.8375Q833.39825 342.04062 833.2889 342.41562Q833.1014 342.97812 833.1014 343.63437L833.1014 346.9L832.0545 346.9Z" fill-rule="nonzero"/><path fill="#000000" d="M862.1304 346.9L862.1304 338.30624L863.2866 338.30624L867.80225 345.05624L867.80225 338.30624L868.896 338.30624L868.896 346.9L867.7241 346.9L863.2085 340.15L863.2085 346.9L862.1304 346.9ZM870.61475 343.79062Q870.61475 342.05624 871.5679 341.22812Q872.36475 340.54062 873.521 340.54062Q874.80225 340.54062 875.61475 341.38437Q876.4429 342.2125 876.4429 343.69687Q876.4429 344.9 876.0835 345.5875Q875.7241 346.275 875.021 346.66562Q874.3335 347.04062 873.521 347.04062Q872.2241 347.04062 871.4116 346.2125Q870.61475 345.36874 870.61475 343.79062ZM871.6929 343.79062Q871.6929 344.97812 872.2085 345.57187Q872.73975 346.16562 873.521 346.16562Q874.3179 346.16562 874.8335 345.57187Q875.3491 344.97812 875.3491 343.75937Q875.3491 342.60312 874.8179 342.00937Q874.30225 341.41562 873.521 341.41562Q872.73975 341.41562 872.2085 342.00937Q871.6929 342.5875 871.6929 343.79062ZM879.7241 346.9L877.36475 340.68124L878.4741 340.68124L879.8179 344.4Q880.021 345.00937 880.2085 345.65Q880.3491 345.16562 880.5991 344.47812L881.98975 340.68124L883.0679 340.68124L880.7085 346.9L879.7241 346.9ZM887.2554 344.9L888.3491 345.025Q888.0991 345.97812 887.396 346.50937Q886.6929 347.04062 885.61475 347.04062Q884.2554 347.04062 883.4429 346.19687Q882.646 345.35312 882.646 343.8375Q882.646 342.275 883.4585 341.41562Q884.271 340.54062 885.55225 340.54062Q886.80225 340.54062 887.5835 341.38437Q888.3804 342.22812 888.3804 343.775Q888.3804 343.86874 888.3804 344.05624L883.73975 344.05624Q883.80225 345.0875 884.3179 345.63437Q884.8335 346.16562 885.61475 346.16562Q886.1929 346.16562 886.5991 345.86874Q887.021 345.55624 887.2554 344.9ZM883.80225 343.19687L887.271 343.19687Q887.2085 342.4 886.8804 342.00937Q886.36475 341.4 885.5679 341.4Q884.8335 341.4 884.3335 341.88437Q883.8491 342.36874 883.80225 343.19687ZM890.0054 346.9L890.0054 340.68124L890.9429 340.68124L890.9429 341.55624Q891.23975 341.0875 891.7241 340.82187Q892.2085 340.54062 892.8335 340.54062Q893.521 340.54062 893.9585 340.82187Q894.4116 341.10312 894.5835 341.61874Q895.3335 340.54062 896.5054 340.54062Q897.4429 340.54062 897.92725 341.05624Q898.42725 341.55624 898.42725 342.63437L898.42725 346.9L897.3804 346.9L897.3804 342.97812Q897.3804 342.35312 897.271 342.07187Q897.17725 341.79062 896.9116 341.61874Q896.646 341.44687 896.271 341.44687Q895.61475 341.44687 895.17725 341.88437Q894.7554 342.32187 894.7554 343.29062L894.7554 346.9L893.6929 346.9L893.6929 342.85312Q893.6929 342.15 893.42725 341.80624Q893.17725 341.44687 892.5991 341.44687Q892.146 341.44687 891.771 341.68124Q891.396 341.91562 891.2241 342.36874Q891.05225 342.82187 891.05225 343.66562L891.05225 346.9L890.0054 346.9ZM901.9741 346.9L900.98975 346.9L900.98975 338.30624L902.05225 338.30624L902.05225 341.36874Q902.7241 340.54062 903.7554 340.54062Q904.3335 340.54062 904.8335 340.775Q905.3491 340.99374 905.67725 341.41562Q906.021 341.8375 906.2085 342.43124Q906.396 343.025 906.396 343.69687Q906.396 345.29062 905.5991 346.16562Q904.80225 347.04062 903.7085 347.04062Q902.5991 347.04062 901.9741 346.11874L901.9741 346.9ZM901.9585 343.74374Q901.9585 344.85312 902.271 345.35312Q902.771 346.16562 903.61475 346.16562Q904.30225 346.16562 904.80225 345.57187Q905.3179 344.97812 905.3179 343.775Q905.3179 342.55624 904.8335 341.97812Q904.3491 341.4 903.6616 341.4Q902.9741 341.4 902.4585 342.00937Q901.9585 342.60312 901.9585 343.74374ZM912.2554 344.9L913.3491 345.025Q913.0991 345.97812 912.396 346.50937Q911.6929 347.04062 910.61475 347.04062Q909.2554 347.04062 908.4429 346.19687Q907.646 345.35312 907.646 343.8375Q907.646 342.275 908.4585 341.41562Q909.271 340.54062 910.55225 340.54062Q911.80225 340.54062 912.5835 341.38437Q913.3804 342.22812 913.3804 343.775Q913.3804 343.86874 913.3804 344.05624L908.73975 344.05624Q908.80225 345.0875 909.3179 345.63437Q909.8335 346.16562 910.61475 346.16562Q911.1929 346.16562 911.5991 345.86874Q912.021 345.55624 912.2554 344.9ZM908.80225 343.19687L912.271 343.19687Q912.2085 342.4 911.8804 342.00937Q911.36475 341.4 910.5679 341.4Q909.8335 341.4 909.3335 341.88437Q908.8491 342.36874 908.80225 343.19687ZM914.98975 346.9L914.98975 340.68124L915.9429 340.68124L915.9429 341.61874Q916.30225 340.9625 916.5991 340.75937Q916.9116 340.54062 917.2866 340.54062Q917.8179 340.54062 918.36475 340.86874L918.0054 341.85312Q917.61475 341.61874 917.23975 341.61874Q916.8804 341.61874 916.5991 341.8375Q916.3335 342.04062 916.2241 342.41562Q916.0366 342.97812 916.0366 343.63437L916.0366 346.9L914.98975 346.9Z" fill-rule="nonzero"/><path fill="#000000" d="M937.5656 346.9L937.5656 338.30624L940.53436 338.30624Q941.53436 338.30624 942.0656 338.43124Q942.8 338.60312 943.3156 339.04062Q944.0031 339.61874 944.33124 340.525Q944.675 341.41562 944.675 342.55624Q944.675 343.54062 944.4406 344.29062Q944.22186 345.04062 943.8625 345.54062Q943.5031 346.04062 943.0656 346.32187Q942.64374 346.60312 942.05 346.75937Q941.45624 346.9 940.675 346.9L937.5656 346.9ZM938.70624 345.88437L940.53436 345.88437Q941.39374 345.88437 941.8781 345.72812Q942.3625 345.57187 942.64374 345.275Q943.05 344.88437 943.26874 344.19687Q943.5031 343.50937 943.5031 342.54062Q943.5031 341.19687 943.05 340.47812Q942.6125 339.74374 941.9875 339.49374Q941.51874 339.32187 940.51874 339.32187L938.70624 339.32187L938.70624 345.88437ZM950.6906 344.9L951.78436 345.025Q951.53436 345.97812 950.83124 346.50937Q950.1281 347.04062 949.05 347.04062Q947.6906 347.04062 946.8781 346.19687Q946.08124 345.35312 946.08124 343.8375Q946.08124 342.275 946.89374 341.41562Q947.70624 340.54062 948.9875 340.54062Q950.2375 340.54062 951.01874 341.38437Q951.8156 342.22812 951.8156 343.775Q951.8156 343.86874 951.8156 344.05624L947.175 344.05624Q947.2375 345.0875 947.7531 345.63437Q948.26874 346.16562 949.05 346.16562Q949.6281 346.16562 950.03436 345.86874Q950.45624 345.55624 950.6906 344.9ZM947.2375 343.19687L950.70624 343.19687Q950.64374 342.4 950.3156 342.00937Q949.8 341.4 949.0031 341.4Q948.26874 341.4 947.76874 341.88437Q947.28436 342.36874 947.2375 343.19687ZM957.5031 344.61874L958.53436 344.75937Q958.3625 345.82187 957.65936 346.43124Q956.95624 347.04062 955.9406 347.04062Q954.65936 347.04062 953.8781 346.2125Q953.1125 345.36874 953.1125 343.80624Q953.1125 342.80624 953.4406 342.05624Q953.78436 341.29062 954.45624 340.91562Q955.14374 340.54062 955.95624 340.54062Q956.95624 340.54062 957.59686 341.05624Q958.2531 341.55624 958.4406 342.50937L957.40936 342.66562Q957.26874 342.04062 956.89374 341.72812Q956.51874 341.4 955.9875 341.4Q955.1906 341.4 954.6906 341.97812Q954.1906 342.54062 954.1906 343.775Q954.1906 345.04062 954.675 345.60312Q955.15936 346.16562 955.925 346.16562Q956.55 346.16562 956.95624 345.79062Q957.3781 345.41562 957.5031 344.61874ZM963.6906 344.9L964.78436 345.025Q964.53436 345.97812 963.83124 346.50937Q963.1281 347.04062 962.05 347.04062Q960.6906 347.04062 959.8781 346.19687Q959.08124 345.35312 959.08124 343.8375Q959.08124 342.275 959.89374 341.41562Q960.70624 340.54062 961.9875 340.54062Q963.2375 340.54062 964.01874 341.38437Q964.8156 342.22812 964.8156 343.775Q964.8156 343.86874 964.8156 344.05624L960.175 344.05624Q960.2375 345.0875 960.7531 345.63437Q961.26874 346.16562 962.05 346.16562Q962.6281 346.16562 963.03436 345.86874Q963.45624 345.55624 963.6906 344.9ZM960.2375 343.19687L963.70624 343.19687Q963.64374 342.4 963.3156 342.00937Q962.8 341.4 962.0031 341.4Q961.26874 341.4 960.76874 341.88437Q960.28436 342.36874 960.2375 343.19687ZM966.4406 346.9L966.4406 340.68124L967.3781 340.68124L967.3781 341.55624Q967.675 341.0875 968.15936 340.82187Q968.64374 340.54062 969.26874 340.54062Q969.95624 340.54062 970.39374 340.82187Q970.84686 341.10312 971.01874 341.61874Q971.76874 340.54062 972.9406 340.54062Q973.8781 340.54062 974.3625 341.05624Q974.8625 341.55624 974.8625 342.63437L974.8625 346.9L973.8156 346.9L973.8156 342.97812Q973.8156 342.35312 973.70624 342.07187Q973.6125 341.79062 973.34686 341.61874Q973.08124 341.44687 972.70624 341.44687Q972.05 341.44687 971.6125 341.88437Q971.1906 342.32187 971.1906 343.29062L971.1906 346.9L970.1281 346.9L970.1281 342.85312Q970.1281 342.15 969.8625 341.80624Q969.6125 341.44687 969.03436 341.44687Q968.58124 341.44687 968.20624 341.68124Q967.83124 341.91562 967.65936 342.36874Q967.4875 342.82187 967.4875 343.66562L967.4875 346.9L966.4406 346.9ZM978.40936 346.9L977.425 346.9L977.425 338.30624L978.4875 338.30624L978.4875 341.36874Q979.15936 340.54062 980.1906 340.54062Q980.76874 340.54062 981.26874 340.775Q981.78436 340.99374 982.1125 341.41562Q982.45624 341.8375 982.64374 342.43124Q982.83124 343.025 982.83124 343.69687Q982.83124 345.29062 982.03436 346.16562Q981.2375 347.04062 980.14374 347.04062Q979.03436 347.04062 978.40936 346.11874L978.40936 346.9ZM978.39374 343.74374Q978.39374 344.85312 978.70624 345.35312Q979.20624 346.16562 980.05 346.16562Q980.7375 346.16562 981.2375 345.57187Q981.7531 344.97812 981.7531 343.775Q981.7531 342.55624 981.26874 341.97812Q980.78436 341.4 980.09686 341.4Q979.40936 341.4 978.89374 342.00937Q978.39374 342.60312 978.39374 343.74374ZM988.6906 344.9L989.78436 345.025Q989.53436 345.97812 988.83124 346.50937Q988.1281 347.04062 987.05 347.04062Q985.6906 347.04062 984.8781 346.19687Q984.08124 345.35312 984.08124 343.8375Q984.08124 342.275 984.89374 341.41562Q985.70624 340.54062 986.9875 340.54062Q988.2375 340.54062 989.01874 341.38437Q989.8156 342.22812 989.8156 343.775Q989.8156 343.86874 989.8156 344.05624L985.175 344.05624Q985.2375 345.0875 985.7531 345.63437Q986.26874 346.16562 987.05 346.16562Q987.6281 346.16562 988.03436 345.86874Q988.45624 345.55624 988.6906 344.9ZM985.2375 343.19687L988.70624 343.19687Q988.64374 342.4 988.3156 342.00937Q987.8 341.4 987.0031 341.4Q986.26874 341.4 985.76874 341.88437Q985.28436 342.36874 985.2375 343.19687ZM991.425 346.9L991.425 340.68124L992.3781 340.68124L992.3781 341.61874Q992.7375 340.9625 993.03436 340.75937Q993.34686 340.54062 993.72186 340.54062Q994.2531 340.54062 994.8 340.86874L994.4406 341.85312Q994.05 341.61874 993.675 341.61874Q993.3156 341.61874 993.03436 341.8375Q992.76874 342.04062 992.65936 342.41562Q992.47186 342.97812 992.47186 343.63437L992.47186 346.9L991.425 346.9Z" fill-rule="nonzero"/><path fill="#757575" d="M453.64062 39.1L448.09375 24.787498L450.14062 24.787498L453.85938 35.178123Q454.3125 36.428123 454.60938 37.521873Q454.9375 36.35 455.39062 35.178123L459.25 24.787498L461.1875 24.787498L455.57812 39.1L453.64062 39.1ZM462.32812 26.803123L462.32812 24.787498L464.09375 24.787498L464.09375 26.803123L462.32812 26.803123ZM462.32812 39.1L462.32812 28.724998L464.09375 28.724998L464.09375 39.1L462.32812 39.1ZM465.60938 36.00625L467.35938 35.725Q467.5 36.771873 468.17188 37.334373Q468.84375 37.88125 470.04688 37.88125Q471.25 37.88125 471.82812 37.396873Q472.42188 36.896873 472.42188 36.240623Q472.42188 35.646873 471.90625 35.303123Q471.54688 35.06875 470.10938 34.709373Q468.17188 34.209373 467.42188 33.865623Q466.6875 33.50625 466.29688 32.88125Q465.90625 32.240623 465.90625 31.474998Q465.90625 30.787498 466.21875 30.193748Q466.54688 29.599998 467.09375 29.209373Q467.5 28.912498 468.20312 28.709373Q468.92188 28.490623 469.73438 28.490623Q470.95312 28.490623 471.875 28.849998Q472.79688 29.193748 473.23438 29.803123Q473.67188 30.396873 473.84375 31.396873L472.125 31.631248Q472.0 30.834373 471.4375 30.396873Q470.875 29.943748 469.85938 29.943748Q468.64062 29.943748 468.125 30.349998Q467.60938 30.740623 467.60938 31.271873Q467.60938 31.615623 467.82812 31.896873Q468.03125 32.178123 468.5 32.365623Q468.76562 32.459373 470.04688 32.803123Q471.92188 33.303123 472.65625 33.63125Q473.39062 33.94375 473.8125 34.553123Q474.23438 35.146873 474.23438 36.053123Q474.23438 36.928123 473.71875 37.709373Q473.20312 38.490623 472.23438 38.9125Q471.26562 39.334373 470.04688 39.334373Q468.03125 39.334373 466.96875 38.490623Q465.90625 37.646873 465.60938 36.00625ZM476.32812 26.803123L476.32812 24.787498L478.09375 24.787498L478.09375 26.803123L476.32812 26.803123ZM476.32812 39.1L476.32812 28.724998L478.09375 28.724998L478.09375 39.1L476.32812 39.1ZM484.15625 37.521873L484.40625 39.084373Q483.67188 39.240623 483.07812 39.240623Q482.125 39.240623 481.59375 38.94375Q481.07812 38.63125 480.85938 38.146873Q480.64062 37.646873 480.64062 36.06875L480.64062 30.099998L479.35938 30.099998L479.35938 28.724998L480.64062 28.724998L480.64062 26.162498L482.39062 25.099998L482.39062 28.724998L484.15625 28.724998L484.15625 30.099998L482.39062 30.099998L482.39062 36.1625Q482.39062 36.9125 482.48438 37.13125Q482.57812 37.334373 482.78125 37.475Q483.0 37.6 483.39062 37.6Q483.67188 37.6 484.15625 37.521873ZM485.60938 36.00625L487.35938 35.725Q487.5 36.771873 488.17188 37.334373Q488.84375 37.88125 490.04688 37.88125Q491.25 37.88125 491.82812 37.396873Q492.42188 36.896873 492.42188 36.240623Q492.42188 35.646873 491.90625 35.303123Q491.54688 35.06875 490.10938 34.709373Q488.17188 34.209373 487.42188 33.865623Q486.6875 33.50625 486.29688 32.88125Q485.90625 32.240623 485.90625 31.474998Q485.90625 30.787498 486.21875 30.193748Q486.54688 29.599998 487.09375 29.209373Q487.5 28.912498 488.20312 28.709373Q488.92188 28.490623 489.73438 28.490623Q490.95312 28.490623 491.875 28.849998Q492.79688 29.193748 493.23438 29.803123Q493.67188 30.396873 493.84375 31.396873L492.125 31.631248Q492.0 30.834373 491.4375 30.396873Q490.875 29.943748 489.85938 29.943748Q488.64062 29.943748 488.125 30.349998Q487.60938 30.740623 487.60938 31.271873Q487.60938 31.615623 487.82812 31.896873Q488.03125 32.178123 488.5 32.365623Q488.76562 32.459373 490.04688 32.803123Q491.92188 33.303123 492.65625 33.63125Q493.39062 33.94375 493.8125 34.553123Q494.23438 35.146873 494.23438 36.053123Q494.23438 36.928123 493.71875 37.709373Q493.20312 38.490623 492.23438 38.9125Q491.26562 39.334373 490.04688 39.334373Q488.03125 39.334373 486.96875 38.490623Q485.90625 37.646873 485.60938 36.00625ZM502.3125 43.06875L502.3125 28.724998L503.92188 28.724998L503.92188 30.068748Q504.48438 29.287498 505.1875 28.896873Q505.90625 28.490623 506.92188 28.490623Q508.25 28.490623 509.26562 29.178123Q510.28125 29.865623 510.79688 31.115623Q511.32812 32.35 511.32812 33.834373Q511.32812 35.428123 510.75 36.709373Q510.1875 37.975 509.09375 38.6625Q508.0 39.334373 506.79688 39.334373Q505.92188 39.334373 505.21875 38.959373Q504.53125 38.584373 504.07812 38.021873L504.07812 43.06875L502.3125 43.06875ZM503.90625 33.975Q503.90625 35.975 504.71875 36.928123Q505.53125 37.88125 506.6875 37.88125Q507.85938 37.88125 508.6875 36.896873Q509.53125 35.9125 509.53125 33.81875Q509.53125 31.849998 508.70312 30.865623Q507.89062 29.865623 506.76562 29.865623Q505.64062 29.865623 504.76562 30.928123Q503.90625 31.974998 503.90625 33.975ZM520.4219 35.75625L522.2344 35.990623Q521.8125 37.56875 520.6406 38.459373Q519.4844 39.334373 517.6719 39.334373Q515.40625 39.334373 514.0625 37.94375Q512.7344 36.5375 512.7344 34.00625Q512.7344 31.381248 514.0781 29.943748Q515.4219 28.490623 517.5781 28.490623Q519.65625 28.490623 520.96875 29.912498Q522.2969 31.318748 522.2969 33.896873Q522.2969 34.053123 522.28125 34.365623L514.5469 34.365623Q514.6406 36.06875 515.5156 36.975Q516.3906 37.88125 517.6875 37.88125Q518.65625 37.88125 519.3281 37.38125Q520.0156 36.865623 520.4219 35.75625ZM514.6406 32.9125L520.4375 32.9125Q520.3281 31.615623 519.78125 30.959373Q518.9375 29.943748 517.59375 29.943748Q516.3906 29.943748 515.5625 30.756248Q514.7344 31.553123 514.6406 32.9125ZM524.2969 39.1L524.2969 28.724998L525.875 28.724998L525.875 30.303123Q526.4844 29.193748 527.0 28.849998Q527.5156 28.490623 528.125 28.490623Q529.0156 28.490623 529.9375 29.053123L529.3281 30.693748Q528.6875 30.303123 528.0469 30.303123Q527.46875 30.303123 527.0 30.662498Q526.5469 31.006248 526.34375 31.615623Q526.0625 32.553123 526.0625 33.6625L526.0625 39.1L524.2969 39.1ZM537.3125 39.1L537.3125 28.724998L538.8906 28.724998L538.8906 30.178123Q539.375 29.428123 540.1875 28.959373Q541.0 28.490623 542.03125 28.490623Q543.1875 28.490623 543.9219 28.974998Q544.65625 29.443748 544.96875 30.303123Q546.2031 28.490623 548.1719 28.490623Q549.71875 28.490623 550.5469 29.349998Q551.375 30.209373 551.375 31.974998L551.375 39.1L549.625 39.1L549.625 32.56875Q549.625 31.506248 549.4531 31.053123Q549.28125 30.584373 548.8281 30.303123Q548.3906 30.021873 547.78125 30.021873Q546.6875 30.021873 545.9531 30.756248Q545.2344 31.474998 545.2344 33.06875L545.2344 39.1L543.4844 39.1L543.4844 32.365623Q543.4844 31.193748 543.0469 30.615623Q542.625 30.021873 541.6406 30.021873Q540.90625 30.021873 540.2656 30.412498Q539.6406 30.803123 539.3594 31.553123Q539.0781 32.303123 539.0781 33.725L539.0781 39.1L537.3125 39.1ZM552.6719 33.9125Q552.6719 31.037498 554.2656 29.646873Q555.6094 28.490623 557.53125 28.490623Q559.6719 28.490623 561.0156 29.896873Q562.375 31.303123 562.375 33.771873Q562.375 35.771873 561.78125 36.928123Q561.1875 38.06875 560.03125 38.709373Q558.8906 39.334373 557.53125 39.334373Q555.34375 39.334373 554.0 37.94375Q552.6719 36.5375 552.6719 33.9125ZM554.46875 33.9125Q554.46875 35.9125 555.3281 36.896873Q556.2031 37.88125 557.53125 37.88125Q558.84375 37.88125 559.7031 36.896873Q560.5781 35.896873 560.5781 33.85Q560.5781 31.928123 559.7031 30.943748Q558.8281 29.943748 557.53125 29.943748Q556.2031 29.943748 555.3281 30.943748Q554.46875 31.928123 554.46875 33.9125ZM564.3125 39.1L564.3125 28.724998L565.90625 28.724998L565.90625 30.209373Q567.0469 28.490623 569.2031 28.490623Q570.1406 28.490623 570.9219 28.834373Q571.71875 29.162498 572.1094 29.709373Q572.5 30.256248 572.65625 31.006248Q572.75 31.506248 572.75 32.725L572.75 39.1L570.9844 39.1L570.9844 32.7875Q570.9844 31.709373 570.78125 31.178123Q570.5781 30.646873 570.0469 30.334373Q569.53125 30.021873 568.8281 30.021873Q567.7031 30.021873 566.8906 30.740623Q566.0781 31.443748 566.0781 33.428123L566.0781 39.1L564.3125 39.1ZM578.15625 37.521873L578.40625 39.084373Q577.6719 39.240623 577.0781 39.240623Q576.125 39.240623 575.59375 38.94375Q575.0781 38.63125 574.8594 38.146873Q574.6406 37.646873 574.6406 36.06875L574.6406 30.099998L573.3594 30.099998L573.3594 28.724998L574.6406 28.724998L574.6406 26.162498L576.3906 25.099998L576.3906 28.724998L578.15625 28.724998L578.15625 30.099998L576.3906 30.099998L576.3906 36.1625Q576.3906 36.9125 576.4844 37.13125Q576.5781 37.334373 576.78125 37.475Q577.0 37.6 577.3906 37.6Q577.6719 37.6 578.15625 37.521873ZM580.3125 39.1L580.3125 24.787498L582.0781 24.787498L582.0781 29.912498Q583.3125 28.490623 585.1875 28.490623Q586.3281 28.490623 587.1719 28.943748Q588.03125 29.396873 588.3906 30.209373Q588.7656 31.006248 588.7656 32.521873L588.7656 39.1L587.0156 39.1L587.0156 32.521873Q587.0156 31.209373 586.4375 30.615623Q585.8594 30.006248 584.8281 30.006248Q584.0469 30.006248 583.34375 30.412498Q582.65625 30.818748 582.3594 31.521873Q582.0781 32.209373 582.0781 33.428123L582.0781 39.1L580.3125 39.1Z" fill-rule="nonzero"/></svg>