<svg version="1.1" viewBox="0.0 0.0 810.0 402.0" fill="none" stroke="none" stroke-linecap="square" stroke-miterlimit="10" width="810" height="402" xmlns:xlink="http://www.w3.org/1999/xlink" xmlns="http://www.w3.org/2000/svg"><path fill="#ffffff" d="M0 0L810.0 0L810.0 402.0L0 402.0L0 0Z" fill-rule="nonzero"/><path fill="#434343" d="M210.00719 177.08887C229.22945 106.489044 293.34012 57.5 366.51 57.5L366.51 138.6C329.92508 138.6 297.86972 163.09453 288.2586 198.39442Z" fill-rule="nonzero"/><path fill="#b7b7b7" d="M371.43408 63.944023C440.98184 63.944023 502.78952 108.28189 525.07855 174.16122C547.3676 240.04056 525.17694 312.79773 469.91583 355.02454C414.65475 397.2513 338.62347 399.54874 280.9136 360.73557C223.20377 321.9224 196.66057 250.6378 214.93127 183.53288L293.18268 204.83846C284.04733 238.39091 297.3189 274.0332 326.17386 293.4398C355.02878 312.84637 393.04443 311.69766 420.67496 290.5843C448.3055 269.4709 459.40088 233.09229 448.25632 200.15262C437.1118 167.21295 406.20795 145.04402 371.43408 145.04402Z" fill-rule="nonzero"/><path fill="#ffffff" d="M426.88916 319.71066L426.88916 317.9138L433.4673 317.9138L433.4673 319.32004Q432.63916 320.1169 431.7954 321.6169Q430.9673 323.1013 430.51416 324.7888Q430.07666 326.4763 430.0923 327.8044L428.2329 327.8044Q428.2798 325.7263 429.0923 323.57004Q429.9048 321.39816 431.26416 319.71066L426.88916 319.71066ZM434.93604 325.4919L436.7954 325.2888Q436.8579 325.8513 437.13916 326.13254Q437.43604 326.39816 437.9048 326.39816Q438.49854 326.39816 438.9048 325.8513Q439.32666 325.3044 439.45166 323.58566Q438.7329 324.4138 437.63916 324.4138Q436.45166 324.4138 435.5923 323.50754Q434.7329 322.6013 434.7329 321.13254Q434.7329 319.6013 435.63916 318.6794Q436.5454 317.7419 437.95166 317.7419Q439.4829 317.7419 440.45166 318.9294Q441.43604 320.1013 441.43604 322.8044Q441.43604 325.5544 440.4048 326.77316Q439.38916 327.9763 437.76416 327.9763Q436.5923 327.9763 435.8579 327.3513Q435.13916 326.7263 434.93604 325.4919ZM439.2798 321.2888Q439.2798 320.3669 438.8423 319.8513Q438.4204 319.33566 437.8579 319.33566Q437.32666 319.33566 436.9673 319.75754Q436.62354 320.1794 436.62354 321.13254Q436.62354 322.1013 436.99854 322.5544Q437.38916 323.00754 437.9673 323.00754Q438.51416 323.00754 438.88916 322.57004Q439.2798 322.13254 439.2798 321.2888ZM443.2954 327.8044L443.2954 325.88254L445.2173 325.88254L445.2173 327.8044L443.2954 327.8044ZM453.37354 326.02316L453.37354 327.8044L446.63916 327.8044Q446.74854 326.7888 447.2954 325.88254Q447.8423 324.9763 449.4673 323.4763Q450.76416 322.27316 451.06104 321.83566Q451.45166 321.2419 451.45166 320.6638Q451.45166 320.02316 451.1079 319.6794Q450.76416 319.33566 450.1548 319.33566Q449.5454 319.33566 449.18604 319.69504Q448.8423 320.0544 448.7798 320.89816L446.87354 320.71066Q447.0454 319.1169 447.93604 318.4294Q448.8423 317.7419 450.20166 317.7419Q451.68604 317.7419 452.5298 318.5388Q453.37354 319.33566 453.37354 320.52316Q453.37354 321.21066 453.12354 321.82004Q452.88916 322.4294 452.37354 323.1013Q452.01416 323.5388 451.1079 324.38254Q450.20166 325.21066 449.95166 325.4919Q449.7173 325.75754 449.56104 326.02316L453.37354 326.02316ZM454.9048 320.25754Q454.9048 318.9138 455.49854 318.27316Q456.0923 317.6169 457.0923 317.6169Q458.13916 317.6169 458.7329 318.25754Q459.32666 318.89816 459.32666 320.25754Q459.32666 321.6013 458.7329 322.25754Q458.13916 322.89816 457.13916 322.89816Q456.0923 322.89816 455.49854 322.25754Q454.9048 321.6169 454.9048 320.25754ZM456.4048 320.2419Q456.4048 321.2263 456.62354 321.5544Q456.7954 321.8044 457.0923 321.8044Q457.4048 321.8044 457.57666 321.5544Q457.7954 321.2263 457.7954 320.2419Q457.7954 319.27316 457.57666 318.94504Q457.4048 318.6794 457.0923 318.6794Q456.7954 318.6794 456.62354 318.9294Q456.4048 319.27316 456.4048 320.2419ZM458.56104 328.19504L457.13916 328.19504L462.4829 317.6169L463.8579 317.6169L458.56104 328.19504ZM461.6704 325.5544Q461.6704 324.21066 462.24854 323.57004Q462.8423 322.9138 463.87354 322.9138Q464.9048 322.9138 465.49854 323.57004Q466.0923 324.21066 466.0923 325.5544Q466.0923 326.9138 465.49854 327.57004Q464.9048 328.21066 463.88916 328.21066Q462.8423 328.21066 462.24854 327.57004Q461.6704 326.9138 461.6704 325.5544ZM463.1548 325.5544Q463.1548 326.52316 463.38916 326.8513Q463.56104 327.1013 463.8579 327.1013Q464.1704 327.1013 464.32666 326.8669Q464.56104 326.52316 464.56104 325.5544Q464.56104 324.57004 464.3423 324.2419Q464.1704 323.9919 463.8579 323.9919Q463.5454 323.9919 463.38916 324.2419Q463.1548 324.57004 463.1548 325.5544Z" fill-rule="nonzero"/><path fill="#ffffff" d="M280.7268 126.25838L280.7268 128.03963L273.99243 128.03963Q274.1018 127.024 274.64868 126.11775Q275.19556 125.2115 276.82056 123.7115Q278.11743 122.50838 278.4143 122.07088Q278.80493 121.47713 278.80493 120.899Q278.80493 120.25838 278.46118 119.91463Q278.11743 119.57088 277.50806 119.57088Q276.89868 119.57088 276.5393 119.93025Q276.19556 120.28963 276.13306 121.13338L274.2268 120.94588Q274.39868 119.35213 275.2893 118.66463Q276.19556 117.97713 277.55493 117.97713Q279.0393 117.97713 279.88306 118.774Q280.7268 119.57088 280.7268 120.75838Q280.7268 121.44588 280.4768 122.05525Q280.24243 122.66463 279.7268 123.3365Q279.36743 123.774 278.46118 124.61775Q277.55493 125.44588 277.30493 125.72713Q277.07056 125.99275 276.9143 126.25838L280.7268 126.25838ZM285.49243 117.97713Q286.94556 117.97713 287.77368 119.00838Q288.74243 120.24275 288.74243 123.10213Q288.74243 125.94588 287.75806 127.18025Q286.94556 128.2115 285.49243 128.2115Q284.02368 128.2115 283.13306 127.0865Q282.24243 125.9615 282.24243 123.07088Q282.24243 120.24275 283.2268 119.00838Q284.0393 117.97713 285.49243 117.97713ZM285.49243 119.57088Q285.14868 119.57088 284.86743 119.78963Q284.6018 120.00838 284.44556 120.5865Q284.24243 121.3365 284.24243 123.10213Q284.24243 124.86775 284.4143 125.524Q284.6018 126.18025 284.86743 126.399Q285.14868 126.61775 285.49243 126.61775Q285.83618 126.61775 286.1018 126.399Q286.38306 126.18025 286.5393 125.60213Q286.74243 124.86775 286.74243 123.10213Q286.74243 121.3365 286.55493 120.68025Q286.38306 120.00838 286.1018 119.78963Q285.83618 119.57088 285.49243 119.57088ZM290.64868 128.03963L290.64868 126.11775L292.57056 126.11775L292.57056 128.03963L290.64868 128.03963ZM295.89868 122.63338Q295.14868 122.32088 294.80493 121.774Q294.4768 121.2115 294.4768 120.55525Q294.4768 119.44588 295.25806 118.7115Q296.0393 117.97713 297.4768 117.97713Q298.89868 117.97713 299.69556 118.7115Q300.49243 119.44588 300.49243 120.55525Q300.49243 121.25838 300.11743 121.80525Q299.75806 122.35213 299.1018 122.63338Q299.94556 122.9615 300.36743 123.61775Q300.80493 124.25838 300.80493 125.0865Q300.80493 126.47713 299.9143 127.35213Q299.0393 128.2115 297.57056 128.2115Q296.19556 128.2115 295.2893 127.49275Q294.21118 126.649 294.21118 125.18025Q294.21118 124.36775 294.61743 123.69588Q295.02368 123.00838 295.89868 122.63338ZM296.2893 120.69588Q296.2893 121.274 296.6018 121.60213Q296.92993 121.91463 297.4768 121.91463Q298.02368 121.91463 298.3518 121.5865Q298.67993 121.25838 298.67993 120.69588Q298.67993 120.149 298.3518 119.8365Q298.02368 119.50838 297.49243 119.50838Q296.94556 119.50838 296.61743 119.8365Q296.2893 120.16463 296.2893 120.69588ZM296.11743 124.99275Q296.11743 125.78963 296.52368 126.22713Q296.92993 126.66463 297.5393 126.66463Q298.13306 126.66463 298.50806 126.24275Q298.89868 125.82088 298.89868 125.00838Q298.89868 124.30525 298.50806 123.88338Q298.11743 123.44588 297.50806 123.44588Q296.80493 123.44588 296.46118 123.94588Q296.11743 124.43025 296.11743 124.99275ZM302.25806 120.49275Q302.25806 119.149 302.8518 118.50838Q303.44556 117.85213 304.44556 117.85213Q305.49243 117.85213 306.08618 118.49275Q306.67993 119.13338 306.67993 120.49275Q306.67993 121.8365 306.08618 122.49275Q305.49243 123.13338 304.49243 123.13338Q303.44556 123.13338 302.8518 122.49275Q302.25806 121.85213 302.25806 120.49275ZM303.75806 120.47713Q303.75806 121.4615 303.9768 121.78963Q304.14868 122.03963 304.44556 122.03963Q304.75806 122.03963 304.92993 121.78963Q305.14868 121.4615 305.14868 120.47713Q305.14868 119.50838 304.92993 119.18025Q304.75806 118.91463 304.44556 118.91463Q304.14868 118.91463 303.9768 119.16463Q303.75806 119.50838 303.75806 120.47713ZM305.9143 128.43025L304.49243 128.43025L309.83618 117.85213L311.21118 117.85213L305.9143 128.43025ZM309.02368 125.78963Q309.02368 124.44588 309.6018 123.80525Q310.19556 123.149 311.2268 123.149Q312.25806 123.149 312.8518 123.80525Q313.44556 124.44588 313.44556 125.78963Q313.44556 127.149 312.8518 127.80525Q312.25806 128.44588 311.24243 128.44588Q310.19556 128.44588 309.6018 127.80525Q309.02368 127.149 309.02368 125.78963ZM310.50806 125.78963Q310.50806 126.75838 310.74243 127.0865Q310.9143 127.3365 311.21118 127.3365Q311.52368 127.3365 311.67993 127.10213Q311.9143 126.75838 311.9143 125.78963Q311.9143 124.80525 311.69556 124.47713Q311.52368 124.22713 311.21118 124.22713Q310.89868 124.22713 310.74243 124.47713Q310.50806 124.80525 310.50806 125.78963Z" fill-rule="nonzero"/><path fill="#b7b7b7" d="M746.5467 64.5C746.5467 67.813705 743.86035 70.5 740.5467 70.5C737.233 70.5 734.5467 67.813705 734.5467 64.5C734.5467 61.18629 737.233 58.5 740.5467 58.5C743.86035 58.5 746.5467 61.18629 746.5467 64.5Z" fill-rule="nonzero"/><path fill="#1a1a1a" d="M755.4217 68.5L755.4217 59.90625L756.5623 59.90625L756.5623 67.484375L760.7967 67.484375L760.7967 68.5L755.4217 68.5ZM762.34357 61.125L762.34357 59.90625L763.40607 59.90625L763.40607 61.125L762.34357 61.125ZM762.34357 68.5L762.34357 62.28125L763.40607 62.28125L763.40607 68.5L762.34357 68.5ZM765.14044 69.015625L766.1717 69.171875Q766.2342 69.640625 766.53107 69.859375Q766.9217 70.15625 767.59357 70.15625Q768.32794 70.15625 768.71857 69.859375Q769.1248 69.5625 769.26544 69.046875Q769.3592 68.71875 769.34357 67.6875Q768.65607 68.5 767.6248 68.5Q766.34357 68.5 765.64044 67.578125Q764.9373 66.640625 764.9373 65.359375Q764.9373 64.46875 765.2498 63.71875Q765.57794 62.953125 766.1873 62.546875Q766.7967 62.140625 767.6248 62.140625Q768.7342 62.140625 769.45294 63.03125L769.45294 62.28125L770.4217 62.28125L770.4217 67.65625Q770.4217 69.109375 770.1248 69.71875Q769.82794 70.328125 769.1873 70.671875Q768.5467 71.03125 767.6092 71.03125Q766.4998 71.03125 765.8123 70.53125Q765.1248 70.03125 765.14044 69.015625ZM766.01544 65.28125Q766.01544 66.5 766.4998 67.0625Q766.9842 67.625 767.71857 67.625Q768.45294 67.625 768.9373 67.0625Q769.4373 66.5 769.4373 65.3125Q769.4373 64.171875 768.9217 63.59375Q768.4217 63.015625 767.70294 63.015625Q766.9998 63.015625 766.4998 63.59375Q766.01544 64.15625 766.01544 65.28125ZM772.34357 68.5L772.34357 59.90625L773.39044 59.90625L773.39044 62.984375Q774.1248 62.140625 775.2498 62.140625Q775.95294 62.140625 776.45294 62.421875Q776.96857 62.6875 777.1873 63.171875Q777.40607 63.640625 777.40607 64.5625L777.40607 68.5L776.3592 68.5L776.3592 64.5625Q776.3592 63.765625 776.01544 63.40625Q775.6717 63.046875 775.0467 63.046875Q774.57794 63.046875 774.15607 63.296875Q773.7498 63.53125 773.5623 63.953125Q773.39044 64.359375 773.39044 65.09375L773.39044 68.5L772.34357 68.5ZM781.64044 67.5625L781.7967 68.484375Q781.34357 68.578125 780.9998 68.578125Q780.4217 68.578125 780.1092 68.40625Q779.7967 68.21875 779.65607 67.921875Q779.53107 67.625 779.53107 66.671875L779.53107 63.09375L778.76544 63.09375L778.76544 62.28125L779.53107 62.28125L779.53107 60.734375L780.57794 60.109375L780.57794 62.28125L781.64044 62.28125L781.64044 63.09375L780.57794 63.09375L780.57794 66.734375Q780.57794 67.1875 780.6248 67.3125Q780.6873 67.4375 780.8123 67.515625Q780.9373 67.59375 781.1717 67.59375Q781.3592 67.59375 781.64044 67.5625Z" fill-rule="nonzero"/><path fill="#434343" d="M746.5467 88.5C746.5467 91.813705 743.86035 94.5 740.5467 94.5C737.233 94.5 734.5467 91.813705 734.5467 88.5C734.5467 85.186295 737.233 82.5 740.5467 82.5C743.86035 82.5 746.5467 85.186295 746.5467 88.5Z" fill-rule="nonzero"/><path fill="#1a1a1a" d="M755.46857 92.5L755.46857 83.90625L758.4373 83.90625Q759.4373 83.90625 759.96857 84.03125Q760.70294 84.203125 761.21857 84.640625Q761.90607 85.21875 762.2342 86.125Q762.57794 87.015625 762.57794 88.15625Q762.57794 89.140625 762.34357 89.890625Q762.1248 90.640625 761.76544 91.140625Q761.40607 91.640625 760.96857 91.921875Q760.5467 92.203125 759.95294 92.359375Q759.3592 92.5 758.57794 92.5L755.46857 92.5ZM756.6092 91.484375L758.4373 91.484375Q759.2967 91.484375 759.78107 91.328125Q760.26544 91.171875 760.5467 90.875Q760.95294 90.484375 761.1717 89.796875Q761.40607 89.109375 761.40607 88.140625Q761.40607 86.796875 760.95294 86.078125Q760.51544 85.34375 759.89044 85.09375Q759.4217 84.921875 758.4217 84.921875L756.6092 84.921875L756.6092 91.484375ZM768.40607 91.734375Q767.8123 92.234375 767.26544 92.4375Q766.7342 92.640625 766.1092 92.640625Q765.07794 92.640625 764.53107 92.140625Q763.9842 91.640625 763.9842 90.859375Q763.9842 90.40625 764.1873 90.03125Q764.39044 89.640625 764.7342 89.421875Q765.07794 89.1875 765.4998 89.078125Q765.7967 88.984375 766.4373 88.90625Q767.70294 88.765625 768.3123 88.546875Q768.3123 88.328125 768.3123 88.28125Q768.3123 87.625 768.01544 87.359375Q767.6092 87.015625 766.8123 87.015625Q766.07794 87.015625 765.71857 87.28125Q765.3592 87.53125 765.1873 88.1875L764.15607 88.046875Q764.2967 87.390625 764.6248 86.984375Q764.95294 86.578125 765.5623 86.359375Q766.1717 86.140625 766.96857 86.140625Q767.76544 86.140625 768.26544 86.328125Q768.76544 86.515625 768.9998 86.796875Q769.2342 87.078125 769.32794 87.515625Q769.3748 87.78125 769.3748 88.484375L769.3748 89.890625Q769.3748 91.359375 769.4373 91.75Q769.51544 92.140625 769.71857 92.5L768.6092 92.5Q768.45294 92.171875 768.40607 91.734375ZM768.3123 89.375Q767.7342 89.609375 766.59357 89.78125Q765.9373 89.875 765.6717 90.0Q765.40607 90.109375 765.2498 90.328125Q765.1092 90.546875 765.1092 90.828125Q765.1092 91.25 765.4217 91.53125Q765.7498 91.8125 766.3592 91.8125Q766.96857 91.8125 767.4373 91.546875Q767.9217 91.28125 768.14044 90.8125Q768.3123 90.453125 768.3123 89.765625L768.3123 89.375ZM771.32794 92.5L771.32794 86.28125L772.28107 86.28125L772.28107 87.21875Q772.64044 86.5625 772.9373 86.359375Q773.2498 86.140625 773.6248 86.140625Q774.15607 86.140625 774.70294 86.46875L774.34357 87.453125Q773.95294 87.21875 773.57794 87.21875Q773.21857 87.21875 772.9373 87.4375Q772.6717 87.640625 772.5623 88.015625Q772.3748 88.578125 772.3748 89.234375L772.3748 92.5L771.32794 92.5ZM775.34357 92.5L775.34357 83.90625L776.40607 83.90625L776.40607 88.8125L778.89044 86.28125L780.26544 86.28125L777.8748 88.578125L780.4998 92.5L779.20294 92.5L777.14044 89.3125L776.40607 90.03125L776.40607 92.5L775.34357 92.5Z" fill-rule="nonzero"/><path fill="#757575" d="M278.46875 39.1L278.46875 24.787498L280.35938 24.787498L280.35938 37.4125L287.40625 37.4125L287.40625 39.1L278.46875 39.1ZM289.32812 26.803123L289.32812 24.787498L291.09375 24.787498L291.09375 26.803123L289.32812 26.803123ZM289.32812 39.1L289.32812 28.724998L291.09375 28.724998L291.09375 39.1L289.32812 39.1ZM293.0 39.959373L294.70312 40.209373Q294.8125 41.00625 295.29688 41.365623Q295.95312 41.85 297.09375 41.85Q298.3125 41.85 298.96875 41.365623Q299.64062 40.88125 299.875 40.00625Q300.01562 39.459373 300.0 37.740623Q298.84375 39.1 297.125 39.1Q294.98438 39.1 293.8125 37.553123Q292.64062 36.00625 292.64062 33.85Q292.64062 32.365623 293.17188 31.115623Q293.71875 29.865623 294.73438 29.178123Q295.76562 28.490623 297.14062 28.490623Q298.96875 28.490623 300.17188 29.974998L300.17188 28.724998L301.78125 28.724998L301.78125 37.69375Q301.78125 40.115623 301.28125 41.115623Q300.79688 42.13125 299.71875 42.709373Q298.65625 43.303123 297.09375 43.303123Q295.25 43.303123 294.09375 42.475Q292.95312 41.646873 293.0 39.959373ZM294.45312 33.725Q294.45312 35.771873 295.26562 36.709373Q296.07812 37.646873 297.29688 37.646873Q298.5 37.646873 299.3125 36.709373Q300.14062 35.771873 300.14062 33.7875Q300.14062 31.881248 299.29688 30.912498Q298.45312 29.943748 297.26562 29.943748Q296.09375 29.943748 295.26562 30.896873Q294.45312 31.849998 294.45312 33.725ZM304.3125 39.1L304.3125 24.787498L306.07812 24.787498L306.07812 29.912498Q307.3125 28.490623 309.1875 28.490623Q310.32812 28.490623 311.17188 28.943748Q312.03125 29.396873 312.39062 30.209373Q312.76562 31.006248 312.76562 32.521873L312.76562 39.1L311.01562 39.1L311.01562 32.521873Q311.01562 31.209373 310.4375 30.615623Q309.85938 30.006248 308.82812 30.006248Q308.04688 30.006248 307.34375 30.412498Q306.65625 30.818748 306.35938 31.521873Q306.07812 32.209373 306.07812 33.428123L306.07812 39.1L304.3125 39.1ZM318.15625 37.521873L318.40625 39.084373Q317.67188 39.240623 317.07812 39.240623Q316.125 39.240623 315.59375 38.94375Q315.07812 38.63125 314.85938 38.146873Q314.64062 37.646873 314.64062 36.06875L314.64062 30.099998L313.35938 30.099998L313.35938 28.724998L314.64062 28.724998L314.64062 26.162498L316.39062 25.099998L316.39062 28.724998L318.15625 28.724998L318.15625 30.099998L316.39062 30.099998L316.39062 36.1625Q316.39062 36.9125 316.48438 37.13125Q316.57812 37.334373 316.78125 37.475Q317.0 37.6 317.39062 37.6Q317.67188 37.6 318.15625 37.521873ZM329.20312 39.1L325.25 28.724998L327.10938 28.724998L329.34375 34.94375Q329.70312 35.94375 330.0 37.021873Q330.23438 36.209373 330.65625 35.053123L332.95312 28.724998L334.76562 28.724998L330.84375 39.1L329.20312 39.1ZM334.60938 36.00625L336.35938 35.725Q336.5 36.771873 337.17188 37.334373Q337.84375 37.88125 339.04688 37.88125Q340.25 37.88125 340.82812 37.396873Q341.42188 36.896873 341.42188 36.240623Q341.42188 35.646873 340.90625 35.303123Q340.54688 35.06875 339.10938 34.709373Q337.17188 34.209373 336.42188 33.865623Q335.6875 33.50625 335.29688 32.88125Q334.90625 32.240623 334.90625 31.474998Q334.90625 30.787498 335.21875 30.193748Q335.54688 29.599998 336.09375 29.209373Q336.5 28.912498 337.20312 28.709373Q337.92188 28.490623 338.73438 28.490623Q339.95312 28.490623 340.875 28.849998Q341.79688 29.193748 342.23438 29.803123Q342.67188 30.396873 342.84375 31.396873L341.125 31.631248Q341.0 30.834373 340.4375 30.396873Q339.875 29.943748 338.85938 29.943748Q337.64062 29.943748 337.125 30.349998Q336.60938 30.740623 336.60938 31.271873Q336.60938 31.615623 336.82812 31.896873Q337.03125 32.178123 337.5 32.365623Q337.76562 32.459373 339.04688 32.803123Q340.92188 33.303123 341.65625 33.63125Q342.39062 33.94375 342.8125 34.553123Q343.23438 35.146873 343.23438 36.053123Q343.23438 36.928123 342.71875 37.709373Q342.20312 38.490623 341.23438 38.9125Q340.26562 39.334373 339.04688 39.334373Q337.03125 39.334373 335.96875 38.490623Q334.90625 37.646873 334.60938 36.00625ZM345.8125 39.1L345.8125 37.1L347.8125 37.1L347.8125 39.1L345.8125 39.1ZM364.04688 39.1L364.04688 37.7875Q363.0625 39.334373 361.14062 39.334373Q359.90625 39.334373 358.85938 38.646873Q357.82812 37.959373 357.25 36.740623Q356.6875 35.521873 356.6875 33.928123Q356.6875 32.365623 357.20312 31.099998Q357.71875 29.834373 358.75 29.162498Q359.79688 28.490623 361.0625 28.490623Q362.0 28.490623 362.73438 28.896873Q363.46875 29.287498 363.9375 29.912498L363.9375 24.787498L365.67188 24.787498L365.67188 39.1L364.04688 39.1ZM358.48438 33.928123Q358.48438 35.9125 359.32812 36.896873Q360.17188 37.88125 361.3125 37.88125Q362.46875 37.88125 363.26562 36.94375Q364.07812 36.00625 364.07812 34.06875Q364.07812 31.943748 363.25 30.943748Q362.4375 29.943748 361.23438 29.943748Q360.0625 29.943748 359.26562 30.912498Q358.48438 31.865623 358.48438 33.928123ZM375.09375 37.81875Q374.10938 38.646873 373.20312 38.990623Q372.29688 39.334373 371.26562 39.334373Q369.5625 39.334373 368.64062 38.50625Q367.71875 37.6625 367.71875 36.365623Q367.71875 35.6 368.0625 34.975Q368.42188 34.35 368.98438 33.975Q369.54688 33.584373 370.25 33.38125Q370.76562 33.25625 371.8125 33.115623Q373.9375 32.865623 374.9375 32.521873Q374.95312 32.1625 374.95312 32.053123Q374.95312 30.990623 374.45312 30.537498Q373.78125 29.943748 372.45312 29.943748Q371.20312 29.943748 370.60938 30.381248Q370.03125 30.818748 369.75 31.928123L368.03125 31.693748Q368.26562 30.584373 368.79688 29.912498Q369.32812 29.224998 370.34375 28.865623Q371.35938 28.490623 372.70312 28.490623Q374.03125 28.490623 374.85938 28.803123Q375.6875 29.115623 376.07812 29.599998Q376.46875 30.068748 376.625 30.787498Q376.71875 31.240623 376.71875 32.4125L376.71875 34.75625Q376.71875 37.209373 376.82812 37.865623Q376.9375 38.50625 377.28125 39.1L375.4375 39.1Q375.17188 38.553123 375.09375 37.81875ZM374.9375 33.896873Q373.98438 34.2875 372.0625 34.553123Q370.98438 34.709373 370.53125 34.9125Q370.09375 35.1 369.84375 35.475Q369.59375 35.85 369.59375 36.31875Q369.59375 37.021873 370.125 37.490623Q370.65625 37.959373 371.6875 37.959373Q372.70312 37.959373 373.48438 37.521873Q374.28125 37.06875 374.65625 36.303123Q374.9375 35.69375 374.9375 34.5375L374.9375 33.896873ZM379.29688 39.1L379.29688 28.724998L380.875 28.724998L380.875 30.303123Q381.48438 29.193748 382.0 28.849998Q382.51562 28.490623 383.125 28.490623Q384.01562 28.490623 384.9375 29.053123L384.32812 30.693748Q383.6875 30.303123 383.04688 30.303123Q382.46875 30.303123 382.0 30.662498Q381.54688 31.006248 381.34375 31.615623Q381.0625 32.553123 381.0625 33.6625L381.0625 39.1L379.29688 39.1ZM386.32812 39.1L386.32812 24.787498L388.09375 24.787498L388.09375 32.94375L392.25 28.724998L394.51562 28.724998L390.5625 32.56875L394.92188 39.1L392.75 39.1L389.32812 33.803123L388.09375 34.990623L388.09375 39.1L386.32812 39.1ZM403.9375 39.1L402.3125 39.1L402.3125 24.787498L404.0625 24.787498L404.0625 29.896873Q405.1875 28.490623 406.90625 28.490623Q407.85938 28.490623 408.71875 28.881248Q409.57812 29.271873 410.125 29.974998Q410.67188 30.662498 410.98438 31.646873Q411.29688 32.63125 411.29688 33.75625Q411.29688 36.428123 409.98438 37.88125Q408.67188 39.334373 406.82812 39.334373Q404.98438 39.334373 403.9375 37.803123L403.9375 39.1ZM403.92188 33.834373Q403.92188 35.69375 404.42188 36.5375Q405.26562 37.88125 406.67188 37.88125Q407.82812 37.88125 408.65625 36.88125Q409.5 35.88125 409.5 33.896873Q409.5 31.865623 408.6875 30.912498Q407.89062 29.943748 406.75 29.943748Q405.59375 29.943748 404.75 30.943748Q403.92188 31.943748 403.92188 33.834373ZM413.29688 39.1L413.29688 28.724998L414.875 28.724998L414.875 30.303123Q415.48438 29.193748 416.0 28.849998Q416.51562 28.490623 417.125 28.490623Q418.01562 28.490623 418.9375 29.053123L418.32812 30.693748Q417.6875 30.303123 417.04688 30.303123Q416.46875 30.303123 416.0 30.662498Q415.54688 31.006248 415.34375 31.615623Q415.0625 32.553123 415.0625 33.6625L415.0625 39.1L413.29688 39.1ZM419.67188 33.9125Q419.67188 31.037498 421.26562 29.646873Q422.60938 28.490623 424.53125 28.490623Q426.67188 28.490623 428.01562 29.896873Q429.375 31.303123 429.375 33.771873Q429.375 35.771873 428.78125 36.928123Q428.1875 38.06875 427.03125 38.709373Q425.89062 39.334373 424.53125 39.334373Q422.34375 39.334373 421.0 37.94375Q419.67188 36.5375 419.67188 33.9125ZM421.46875 33.9125Q421.46875 35.9125 422.32812 36.896873Q423.20312 37.88125 424.53125 37.88125Q425.84375 37.88125 426.70312 36.896873Q427.57812 35.896873 427.57812 33.85Q427.57812 31.928123 426.70312 30.943748Q425.82812 29.943748 424.53125 29.943748Q423.20312 29.943748 422.32812 30.943748Q421.46875 31.928123 421.46875 33.9125ZM433.23438 39.1L430.0625 28.724998L431.875 28.724998L433.53125 34.709373L434.14062 36.94375Q434.1875 36.771873 434.67188 34.803123L436.32812 28.724998L438.14062 28.724998L439.6875 34.740623L440.20312 36.725L440.79688 34.725L442.57812 28.724998L444.28125 28.724998L441.04688 39.1L439.21875 39.1L437.5625 32.88125L437.17188 31.115623L435.0625 39.1L433.23438 39.1ZM445.60938 36.00625L447.35938 35.725Q447.5 36.771873 448.17188 37.334373Q448.84375 37.88125 450.04688 37.88125Q451.25 37.88125 451.82812 37.396873Q452.42188 36.896873 452.42188 36.240623Q452.42188 35.646873 451.90625 35.303123Q451.54688 35.06875 450.10938 34.709373Q448.17188 34.209373 447.42188 33.865623Q446.6875 33.50625 446.29688 32.88125Q445.90625 32.240623 445.90625 31.474998Q445.90625 30.787498 446.21875 30.193748Q446.54688 29.599998 447.09375 29.209373Q447.5 28.912498 448.20312 28.709373Q448.92188 28.490623 449.73438 28.490623Q450.95312 28.490623 451.875 28.849998Q452.79688 29.193748 453.23438 29.803123Q453.67188 30.396873 453.84375 31.396873L452.125 31.631248Q452.0 30.834373 451.4375 30.396873Q450.875 29.943748 449.85938 29.943748Q448.64062 29.943748 448.125 30.349998Q447.60938 30.740623 447.60938 31.271873Q447.60938 31.615623 447.82812 31.896873Q448.03125 32.178123 448.5 32.365623Q448.76562 32.459373 450.04688 32.803123Q451.92188 33.303123 452.65625 33.63125Q453.39062 33.94375 453.8125 34.553123Q454.23438 35.146873 454.23438 36.053123Q454.23438 36.928123 453.71875 37.709373Q453.20312 38.490623 452.23438 38.9125Q451.26562 39.334373 450.04688 39.334373Q448.03125 39.334373 446.96875 38.490623Q445.90625 37.646873 445.60938 36.00625ZM463.42188 35.75625L465.23438 35.990623Q464.8125 37.56875 463.64062 38.459373Q462.48438 39.334373 460.67188 39.334373Q458.40625 39.334373 457.0625 37.94375Q455.73438 36.5375 455.73438 34.00625Q455.73438 31.381248 457.07812 29.943748Q458.42188 28.490623 460.57812 28.490623Q462.65625 28.490623 463.96875 29.912498Q465.29688 31.318748 465.29688 33.896873Q465.29688 34.053123 465.28125 34.365623L457.54688 34.365623Q457.64062 36.06875 458.51562 36.975Q459.39062 37.88125 460.6875 37.88125Q461.65625 37.88125 462.32812 37.38125Q463.01562 36.865623 463.42188 35.75625ZM457.64062 32.9125L463.4375 32.9125Q463.32812 31.615623 462.78125 30.959373Q461.9375 29.943748 460.59375 29.943748Q459.39062 29.943748 458.5625 30.756248Q457.73438 31.553123 457.64062 32.9125ZM467.29688 39.1L467.29688 28.724998L468.875 28.724998L468.875 30.303123Q469.48438 29.193748 470.0 28.849998Q470.51562 28.490623 471.125 28.490623Q472.01562 28.490623 472.9375 29.053123L472.32812 30.693748Q471.6875 30.303123 471.04688 30.303123Q470.46875 30.303123 470.0 30.662498Q469.54688 31.006248 469.34375 31.615623Q469.0625 32.553123 469.0625 33.6625L469.0625 39.1L467.29688 39.1ZM484.15625 37.521873L484.40625 39.084373Q483.67188 39.240623 483.07812 39.240623Q482.125 39.240623 481.59375 38.94375Q481.07812 38.63125 480.85938 38.146873Q480.64062 37.646873 480.64062 36.06875L480.64062 30.099998L479.35938 30.099998L479.35938 28.724998L480.64062 28.724998L480.64062 26.162498L482.39062 25.099998L482.39062 28.724998L484.15625 28.724998L484.15625 30.099998L482.39062 30.099998L482.39062 36.1625Q482.39062 36.9125 482.48438 37.13125Q482.57812 37.334373 482.78125 37.475Q483.0 37.6 483.39062 37.6Q483.67188 37.6 484.15625 37.521873ZM486.3125 39.1L486.3125 24.787498L488.07812 24.787498L488.07812 29.912498Q489.3125 28.490623 491.1875 28.490623Q492.32812 28.490623 493.17188 28.943748Q494.03125 29.396873 494.39062 30.209373Q494.76562 31.006248 494.76562 32.521873L494.76562 39.1L493.01562 39.1L493.01562 32.521873Q493.01562 31.209373 492.4375 30.615623Q491.85938 30.006248 490.82812 30.006248Q490.04688 30.006248 489.34375 30.412498Q488.65625 30.818748 488.35938 31.521873Q488.07812 32.209373 488.07812 33.428123L488.07812 39.1L486.3125 39.1ZM503.42188 35.75625L505.23438 35.990623Q504.8125 37.56875 503.64062 38.459373Q502.48438 39.334373 500.67188 39.334373Q498.40625 39.334373 497.0625 37.94375Q495.73438 36.5375 495.73438 34.00625Q495.73438 31.381248 497.07812 29.943748Q498.42188 28.490623 500.57812 28.490623Q502.65625 28.490623 503.96875 29.912498Q505.29688 31.318748 505.29688 33.896873Q505.29688 34.053123 505.28125 34.365623L497.54688 34.365623Q497.64062 36.06875 498.51562 36.975Q499.39062 37.88125 500.6875 37.88125Q501.65625 37.88125 502.32812 37.38125Q503.01562 36.865623 503.42188 35.75625ZM497.64062 32.9125L503.4375 32.9125Q503.32812 31.615623 502.78125 30.959373Q501.9375 29.943748 500.59375 29.943748Q499.39062 29.943748 498.5625 30.756248Q497.73438 31.553123 497.64062 32.9125ZM507.3125 39.1L507.3125 28.724998L508.89062 28.724998L508.89062 30.178123Q509.375 29.428123 510.1875 28.959373Q511.0 28.490623 512.03125 28.490623Q513.1875 28.490623 513.9219 28.974998Q514.65625 29.443748 514.96875 30.303123Q516.2031 28.490623 518.1719 28.490623Q519.71875 28.490623 520.5469 29.349998Q521.375 30.209373 521.375 31.974998L521.375 39.1L519.625 39.1L519.625 32.56875Q519.625 31.506248 519.4531 31.053123Q519.28125 30.584373 518.8281 30.303123Q518.3906 30.021873 517.78125 30.021873Q516.6875 30.021873 515.9531 30.756248Q515.2344 31.474998 515.2344 33.06875L515.2344 39.1L513.4844 39.1L513.4844 32.365623Q513.4844 31.193748 513.0469 30.615623Q512.625 30.021873 511.64062 30.021873Q510.90625 30.021873 510.26562 30.412498Q509.64062 30.803123 509.35938 31.553123Q509.07812 32.303123 509.07812 33.725L509.07812 39.1L507.3125 39.1ZM530.4219 35.75625L532.2344 35.990623Q531.8125 37.56875 530.6406 38.459373Q529.4844 39.334373 527.6719 39.334373Q525.40625 39.334373 524.0625 37.94375Q522.7344 36.5375 522.7344 34.00625Q522.7344 31.381248 524.0781 29.943748Q525.4219 28.490623 527.5781 28.490623Q529.65625 28.490623 530.96875 29.912498Q532.2969 31.318748 532.2969 33.896873Q532.2969 34.053123 532.28125 34.365623L524.5469 34.365623Q524.6406 36.06875 525.5156 36.975Q526.3906 37.88125 527.6875 37.88125Q528.65625 37.88125 529.3281 37.38125Q530.0156 36.865623 530.4219 35.75625ZM524.6406 32.9125L530.4375 32.9125Q530.3281 31.615623 529.78125 30.959373Q528.9375 29.943748 527.59375 29.943748Q526.3906 29.943748 525.5625 30.756248Q524.7344 31.553123 524.6406 32.9125Z" fill-rule="nonzero"/></svg>