<svg xmlns="http://www.w3.org/2000/svg" width="743" height="171" viewBox="0 0 743 171"><defs><linearGradient id="a" x1="340.353" x2="451.188" y1="43.766" y2="95.449" gradientTransform="translate(0 -.003)" gradientUnits="userSpaceOnUse"><stop offset=".06" stop-color="#2981cc" style="stop-color:#38bdf8;stop-opacity:1"/><stop offset=".863" stop-color="#6d28d9" style="stop-color:#8b5cf6;stop-opacity:1"/></linearGradient></defs><path d="M400.498 18.625C400.498 2.3 407.053-1.95 414.01.75c7.301 2.832 13.362 10.662 13.362 20.535s-5.9 15.218-13.362 15.218c-7.463 0-13.512-1.695-13.512-17.877m-22.967 17.877c7.462 0 13.511-1.695 13.511-17.877 0-16.325-6.554-20.575-13.511-17.876-7.302 2.832-13.363 10.662-13.363 20.535s5.901 15.218 13.363 15.218m70.565-13.861c-9.849 3.124-14.457 12.56-15.408 18.156-1.46 8.581 5.532 13.367 12.112 13.367 6.579 0 10.051-4.49 11.734-13.03 1.53-7.762-1.577-20.67-8.438-18.493m-89.243 18.155c-.952-5.594-5.56-15.03-15.409-18.155-6.86-2.177-9.967 10.73-8.438 18.493 1.683 8.54 5.156 13.03 11.735 13.03 6.58 0 13.571-4.786 12.112-13.368m19.196 28.524c12.097-10.487 30.405-9.181 40.892 2.916l14.346-12.457a48 48 0 0 0-36.265-16.544c-26.503.008-47.982 21.5-47.974 48.003s21.5 47.982 48.003 47.974a47.98 47.98 0 0 0 36.236-16.542l-14.346-12.458a29 29 0 0 1-2.916 2.916c-12.097 10.487-30.405 9.181-40.892-2.916s-9.181-30.405 2.916-40.892" style="fill:url(#a)"/><path d="M540.4 91.55a58.8 58.8 0 0 1-3.132 19.662 43.5 43.5 0 0 1-8.874 15.137 39.9 39.9 0 0 1-13.833 9.744 44.7 44.7 0 0 1-17.835 3.48 44.05 44.05 0 0 1-17.748-3.48 40.1 40.1 0 0 1-13.746-9.744 44.6 44.6 0 0 1-8.96-15.137 57.2 57.2 0 0 1-3.22-19.663 56.5 56.5 0 0 1 3.22-19.575 44 44 0 0 1 9.047-15.05 40 40 0 0 1 13.833-9.657 44.6 44.6 0 0 1 17.574-3.393 45.2 45.2 0 0 1 17.66 3.393 38.9 38.9 0 0 1 13.833 9.657 44.8 44.8 0 0 1 8.962 15.05A56.6 56.6 0 0 1 540.4 91.55m-21.576 0q0-13.573-5.83-21.49-5.83-7.915-16.268-7.917-10.44 0-16.27 7.917-5.83 7.92-5.829 21.49 0 13.746 5.83 21.75 5.827 8.004 16.27 8.003 10.44 0 16.268-8.004 5.826-8.001 5.829-21.75zm120.232 42.803a124 124 0 0 1-15.747 3.48 122 122 0 0 1-19.923 1.566 53.1 53.1 0 0 1-19.313-3.306 40.2 40.2 0 0 1-14.53-9.483 41.7 41.7 0 0 1-9.221-14.964 57 57 0 0 1-3.22-19.75 66.5 66.5 0 0 1 2.697-19.575 42.8 42.8 0 0 1 7.917-15.05 35.3 35.3 0 0 1 12.702-9.658 41.3 41.3 0 0 1 17.226-3.392 39.4 39.4 0 0 1 11.658 1.566 52 52 0 0 1 8.7 3.48V5.593l21.054-3.48zm-60.378-42.977q0 13.921 6.612 21.836 6.612 7.92 18.27 7.917a72 72 0 0 0 8.614-.435 58 58 0 0 0 5.829-.957v-52.2a32.8 32.8 0 0 0-7.395-3.567 28.9 28.9 0 0 0-9.83-1.653q-11.485 0-16.792 7.83-5.31 7.83-5.308 21.229m82.127.694a57.2 57.2 0 0 1 3.568-21.053 44.2 44.2 0 0 1 9.483-15.05 39.2 39.2 0 0 1 13.571-9.048 42.1 42.1 0 0 1 15.66-3.045q18.793 0 29.32 11.657 10.524 11.66 10.527 34.8 0 1.74-.088 3.916a69 69 0 0 1-.26 3.915h-60.03q.868 10.96 7.742 16.965 6.872 6.003 19.923 6.003a65.4 65.4 0 0 0 14.008-1.393 57.6 57.6 0 0 0 10.005-2.958l2.784 17.226a33.4 33.4 0 0 1-4.785 1.827 67 67 0 0 1-6.96 1.74q-3.915.783-8.44 1.305c-3.06.35-6.14.524-9.221.522a55.8 55.8 0 0 1-20.88-3.567 38.85 38.85 0 0 1-14.616-9.918 40.6 40.6 0 0 1-8.527-14.964 61.1 61.1 0 0 1-2.784-18.88m61.074-9.395a27.7 27.7 0 0 0-1.217-8.264 19.9 19.9 0 0 0-3.568-6.786 16.9 16.9 0 0 0-5.741-4.525 18.3 18.3 0 0 0-8.092-1.653 18.8 18.8 0 0 0-8.525 1.827 19.4 19.4 0 0 0-6.177 4.785 21.9 21.9 0 0 0-3.915 6.786 36.6 36.6 0 0 0-1.914 7.83zM83.838 91.231c.07 6.628-.86 13.23-2.759 19.58a45.7 45.7 0 0 1-7.92 15.308 35.2 35.2 0 0 1-12.906 9.968 41.5 41.5 0 0 1-17.533 3.56 43.3 43.3 0 0 1-12.104-1.601 45 45 0 0 1-9.078-3.56v36.133H0V47.621q6.583-1.777 16.198-3.382a123.4 123.4 0 0 1 20.292-1.602 54.4 54.4 0 0 1 19.758 3.382 41.2 41.2 0 0 1 14.863 9.701 42.8 42.8 0 0 1 9.434 15.308 58.5 58.5 0 0 1 3.293 20.203m-22.072.356q0-14.418-6.497-22.428-6.5-8.01-20.915-8.01-3.028 0-6.319.266c-2.197.18-4.373.567-6.497 1.158v53.223a33.2 33.2 0 0 0 7.565 3.648 29.5 29.5 0 0 0 10.057 1.691q11.748 0 17.177-8.01t5.429-21.538m75.293-49.307q10.68 0 17.978 2.67a28.7 28.7 0 0 1 11.66 7.477 28 28 0 0 1 6.23 11.66 57 57 0 0 1 1.868 15.04v56.426q-4.984 1.069-15.04 2.581a154 154 0 0 1-22.696 1.513 68 68 0 0 1-15.307-1.601 32.15 32.15 0 0 1-11.837-5.163 24.3 24.3 0 0 1-7.655-9.255 32.1 32.1 0 0 1-2.759-14.063 27.14 27.14 0 0 1 3.115-13.528 25.55 25.55 0 0 1 8.455-8.989 36.6 36.6 0 0 1 12.37-4.984 69.8 69.8 0 0 1 14.686-1.513c2.498.008 4.994.157 7.475.445 2.817.334 5.611.84 8.367 1.513v-3.56a28 28 0 0 0-.89-7.12 14.8 14.8 0 0 0-3.115-5.963 14.64 14.64 0 0 0-5.875-4.005 25.5 25.5 0 0 0-9.166-1.424 81 81 0 0 0-13.707 1.069 60 60 0 0 0-10.145 2.49L108.4 46.554a85 85 0 0 1 11.927-2.848 93.6 93.6 0 0 1 16.732-1.424m1.78 80.28a80 80 0 0 0 15.13-1.07V97.64a42 42 0 0 0-5.163-1.07 48 48 0 0 0-7.475-.533 50 50 0 0 0-7.21.534 22.5 22.5 0 0 0-6.585 1.958 11.96 11.96 0 0 0-4.717 4.005 11.2 11.2 0 0 0-1.78 6.497q0 7.655 4.806 10.59 4.805 2.937 12.994 2.938zm116.145-43.434a617 617 0 0 1-8.805 30.526 977 977 0 0 1-9.334 28.035h-17.683q-3.567-8.185-7.49-18.69-3.922-10.5-7.846-22.428a931 931 0 0 1-7.845-25.097q-3.922-13.17-7.665-26.878h22.792a529 529 0 0 0 3.754 16.108 1809 1809 0 0 0 4.472 17.622 573 573 0 0 0 4.831 17.533q2.505 8.545 5.01 15.664a650 650 0 0 0 10.168-34.353q2.319-8.72 4.372-16.999a602 602 0 0 0 3.657-15.575h16.554a980 980 0 0 0 3.552 15.575 1005 1005 0 0 0 4.172 17 475 475 0 0 0 4.795 17.442 634 634 0 0 0 5.24 16.91 542 542 0 0 0 4.828-15.664 815 815 0 0 0 4.92-17.533q2.415-8.985 4.561-17.622a533 533 0 0 0 3.757-16.108h22.256a1230 1230 0 0 1-7.668 26.878 918 918 0 0 1-7.846 25.097Q302.568 108.5 298.645 119q-3.923 10.506-7.665 18.69h-17.508a1496 1496 0 0 1-9.513-28.035 508 508 0 0 1-8.975-30.526" style="fill:#fff;fill-opacity:1"/></svg>