<?xml version="1.0" encoding="UTF-8"?>
<svg id="Ebene_1" data-name="Ebene 1" xmlns="http://www.w3.org/2000/svg" xmlns:xlink="http://www.w3.org/1999/xlink" viewBox="0 0 742.9339 170.6225">
  <defs>
    <linearGradient id="Unbenannter_Verlauf_64" data-name="Unbenannter Verlauf 64" x1="334.6239" y1="69.6079" x2="456.9168" y2="69.6079" gradientUnits="userSpaceOnUse">
      <stop offset=".0601" stop-color="#2981cc"/>
      <stop offset=".8632" stop-color="#6d28d9"/>
    </linearGradient>
  </defs>
  <path d="M400.4984,18.6287c0-16.3251,6.5544-20.5755,13.5112-17.8765,7.3018,2.8327,13.3629,10.6621,13.3629,20.535s-5.9008,15.218-13.3629,15.218-13.5112-1.6952-13.5112-17.8765ZM377.531,36.5052c7.462,0,13.5112-1.6949,13.5112-17.8765,0-16.3251-6.5543-20.5755-13.5112-17.8765-7.3018,2.8327-13.3628,10.6621-13.3628,20.535s5.9008,15.218,13.3628,15.218ZM448.0963,22.6443c-9.8493,3.1245-14.457,12.561-15.4085,18.1557-1.4596,8.5817,5.5327,13.3673,12.1119,13.3673s10.0515-4.4894,11.7346-13.03c1.5296-7.7623-1.5776-20.6694-8.438-18.493ZM358.8529,40.7998c-.9515-5.5947-5.5593-15.0312-15.4086-18.1557-6.8603-2.1762-9.9676,10.7309-8.4379,18.4932,1.683,8.5406,5.1553,13.03,11.7345,13.03s13.5715-4.7858,12.112-13.3675ZM378.0491,69.3233c12.0973-10.4868,30.4053-9.1812,40.8921,2.9161l14.3457-12.4571c-9.118-10.5114-22.3497-16.5475-36.2648-16.5434-26.5034.0079-47.9821,21.4995-47.9743,48.0027.0079,26.5033,21.4995,47.9821,48.0027,47.9742,13.9053-.0027,27.1254-6.0379,36.2363-16.5425l-14.3457-12.458c-.9016,1.04-1.8761,2.0145-2.9161,2.9161-12.0973,10.4868-30.4053,9.1812-40.8921-2.9161-10.4868-12.0973-9.1812-30.4053,2.9161-40.8921Z" style="fill: url(#Unbenannter_Verlauf_64);"/>
  <path id="fullLogo" d="M540.4,91.5529c.0824,6.6845-.9767,13.334-3.1318,19.6621-1.8994,5.5961-4.9188,10.7467-8.8741,15.1377-3.8613,4.1997-8.5784,7.5224-13.833,9.7441-5.6439,2.3691-11.7144,3.5536-17.8349,3.48-6.093.0801-12.1365-1.1048-17.7481-3.48-5.2205-2.2376-9.906-5.559-13.7461-9.7441-3.9628-4.4006-7.0091-9.5467-8.9609-15.1377-2.2144-6.3154-3.3043-12.9702-3.22-19.6621-.0891-6.6639,1.001-13.291,3.22-19.5752,1.9734-5.5742,5.0507-10.6931,9.0478-15.0508,3.8713-4.1665,8.5874-7.4588,13.8329-9.6569,5.5684-2.3077,11.547-3.4618,17.5742-3.3926,6.0544-.063,12.0598,1.0907,17.66,3.3926,5.2616,2.169,9.9835,5.4655,13.833,9.6572,3.9483,4.3786,6.9938,9.4932,8.962,15.0508,2.2168,6.2846,3.3065,12.9113,3.219,19.5749ZM518.8239,91.5529c0-9.0479-1.9431-16.211-5.8291-21.4893-3.8877-5.2773-9.3105-7.9163-16.2685-7.917-6.96,0-12.3833,2.639-16.27,7.917-3.8877,5.28-5.8307,12.4431-5.8291,21.4893,0,9.165,1.943,16.415,5.8291,21.75,3.8858,5.3369,9.3091,8.0048,16.27,8.0039,6.9608-.0009,12.3837-2.6689,16.2685-8.0039,3.8847-5.334,5.8277-12.584,5.829-21.75h.0001Z"/>
  <path id="fullLogo-2" d="M639.0562,134.3566c-5.1682,1.4996-10.4282,2.6621-15.7471,3.48-6.5871,1.0648-13.2504,1.5884-19.9229,1.5655-6.5871.1053-13.1363-1.0157-19.3134-3.3057-5.4758-2.0657-10.4344-5.3022-14.5293-9.4834-4.1019-4.2763-7.2456-9.3775-9.2217-14.9639-2.2286-6.3418-3.3187-13.0277-3.22-19.749-.0807-6.623.8284-13.2208,2.6972-19.5752,1.6066-5.4957,4.2986-10.6134,7.917-15.0508,3.4414-4.1465,7.7865-7.4499,12.7022-9.6572,5.4324-2.3521,11.3069-3.5091,17.2255-3.3926,3.9426-.0642,7.8724.4639,11.6582,1.5664,2.9984.897,5.9102,2.0617,8.7,3.48V5.5968l21.0538-3.48.0004,132.2398ZM578.6782,91.379c0,9.2813,2.2041,16.5602,6.6123,21.8369,4.4073,5.2793,10.4974,7.9183,18.27,7.917,2.8772.0261,5.7534-.1193,8.6132-.4355,1.9581-.2189,3.9037-.5383,5.8291-.957v-52.1993c-2.3055-1.4945-4.7898-2.693-7.3945-3.5673-3.1566-1.1158-6.483-1.6753-9.831-1.6534-7.6563,0-13.2534,2.61-16.7911,7.83-3.5403,5.2208-5.3098,12.297-5.3081,21.2286Z"/>
  <path id="fullLogo-3" d="M660.8052,92.0743c-.1439-7.1797,1.0664-14.3222,3.5674-21.0537,2.1079-5.608,5.3345-10.7287,9.4835-15.0506,3.8396-3.9338,8.4634-7.0164,13.5712-9.0479,4.9779-2.0048,10.2935-3.0383,15.66-3.0449,12.5283,0,22.3014,3.8857,29.3193,11.6572,7.0166,7.7733,10.5257,19.3736,10.5274,34.8008,0,1.16-.0293,2.465-.0879,3.915-.0596,1.4512-.1465,2.7562-.2608,3.9151h-60.03c.5791,7.3076,3.1602,12.9625,7.7431,16.9648,4.5811,4.002,11.222,6.003,19.9229,6.0029,4.7058.0413,9.4023-.4257,14.0078-1.393,3.4175-.6815,6.7662-1.6716,10.0049-2.958l2.7842,17.2265c-1.546.7305-3.1458,1.3414-4.7852,1.8272-2.2875.7028-4.6108,1.2834-6.96,1.7392-2.6104.5225-5.4235.9578-8.4394,1.3057-3.0614.3502-6.1403.5243-9.2217.5215-7.1238.1542-14.2112-1.0564-20.88-3.5664-5.5689-2.14-10.5703-5.5337-14.6162-9.918-3.8789-4.3213-6.7864-9.4239-8.5263-14.9639-1.9114-6.1084-2.851-12.4793-2.7841-18.8795ZM721.8794,82.6788c.014-2.8006-.3965-5.5871-1.2178-8.2646-.7389-2.4715-1.9504-4.7762-3.5674-6.7861-1.5604-1.9093-3.52-3.4537-5.7412-4.5245-2.5364-1.1595-5.3039-1.7249-8.0918-1.6533-2.9456-.0661-5.8656.5597-8.5254,1.8272-2.3617,1.1603-4.4631,2.7883-6.1767,4.7851-1.703,2.0079-3.0294,4.3068-3.9151,6.7862-.9243,2.5316-1.5662,5.1575-1.914,7.83h39.1494Z"/>
  <path id="fullLogo-4" d="M83.8379,91.2345c.0699,6.6282-.8602,13.2291-2.7588,19.58-1.6453,5.5588-4.3334,10.7538-7.9209,15.3076-3.4617,4.2877-7.8822,7.7023-12.9053,9.9687-5.5164,2.4462-11.4996,3.6611-17.5332,3.56-4.0899.0405-8.1649-.4987-12.1035-1.6015-3.1459-.855-6.1898-2.0489-9.0781-3.5606v36.1338H0V47.6242c4.3887-1.1846,9.7881-2.3119,16.1982-3.3819,6.7083-1.0916,13.4953-1.6272,20.2918-1.6015,6.7387-.1072,13.4386,1.0395,19.758,3.3818,5.5999,2.1165,10.6718,5.4269,14.8633,9.7012,4.1937,4.3764,7.4093,9.5942,9.4336,15.3076,2.2775,6.4882,3.3922,13.3275,3.293,20.2031ZM61.7656,91.5909c0-9.6123-2.1657-17.0886-6.497-22.4287-4.3333-5.34-11.305-8.01-20.9151-8.01-2.0185,0-4.1246.0889-6.3183.2666-2.1974.1794-4.3729.5668-6.4971,1.1572v53.223c2.3568,1.5316,4.8986,2.7576,7.5644,3.6484,3.2291,1.1427,6.6323,1.715,10.0575,1.6914,7.832,0,13.5576-2.6702,17.1767-8.0107s5.4288-12.5195,5.4289-21.5372Z"/>
  <path id="fullLogo-5" d="M137.0586,42.2843c7.12,0,13.1128.89,17.9785,2.67,4.4379,1.5041,8.4406,4.0709,11.6592,7.4766,2.9765,3.3341,5.1126,7.3317,6.23,11.6592,1.289,4.9083,1.9176,9.9665,1.8691,15.041v56.4258c-3.3232.7119-8.3369,1.5722-15.041,2.581-7.5174,1.0634-15.1032,1.5691-22.6953,1.5127-5.1466.0459-10.2819-.4913-15.3076-1.6015-4.2542-.9024-8.2811-2.6585-11.8369-5.1622-3.2852-2.3967-5.9169-5.5791-7.6543-9.2558-1.9681-4.4195-2.9112-9.227-2.7588-14.0625-.1521-4.7033.9213-9.3653,3.1147-13.5286,2.0415-3.642,4.9446-6.7281,8.4551-8.9883,3.7832-2.4051,7.9762-4.0946,12.37-4.9844,4.8279-1.0223,9.7507-1.5294,14.6856-1.5127,2.4982.008,4.994.1564,7.4755.4444,2.8168.3347,5.6107.8402,8.3663,1.5136v-3.5603c.0105-2.4017-.2886-4.7948-.89-7.12-.5673-2.2003-1.6332-4.2405-3.1152-5.9629-1.5992-1.7973-3.6167-3.1729-5.8741-4.0049-2.9426-1.0321-6.0499-1.5147-9.1669-1.4238-4.5907-.0318-9.1758.3256-13.7061,1.0683-3.4474.5351-6.8419,1.3685-10.1451,2.491l-2.6713-17.4432c3.9019-1.2352,7.8878-2.1872,11.9267-2.8487,5.5234-.9749,11.1232-1.4515,16.7319-1.4238ZM138.8386,122.5626c5.0658.1229,10.1318-.2348,15.13-1.0683v-23.8516c-1.6967-.4638-3.4208-.8207-5.1622-1.0684-2.4742-.3717-4.9736-.5503-7.4755-.5341-2.4128.0031-4.8221.1816-7.209.5341-2.2826.3117-4.5038.9721-6.586,1.9581-1.8964.8979-3.5232,2.2791-4.7168,4.0048-1.2473,1.9312-1.8689,4.1999-1.78,6.4971,0,5.1035,1.6019,8.6337,4.8056,10.5908,3.2037,1.9571,7.5351,2.9362,12.9942,2.9375h-.0003Z"/>
  <path id="fullLogo-6" d="M254.9844,79.131c-2.7285,10.4433-5.6637,20.6187-8.8057,30.5264-3.1426,9.9101-6.2539,19.2552-9.334,28.0351h-17.6826c-2.3779-5.457-4.8746-11.687-7.49-18.69-2.6143-7-5.2295-14.4759-7.8457-22.4278-2.6143-7.9482-5.2295-16.3141-7.8457-25.0976-2.6143-8.78-5.1694-17.7393-7.6651-26.8779h22.792c1.0733,4.9834,2.325,10.3529,3.7549,16.1084,1.4297,5.7578,2.9202,11.6318,4.4717,17.622,1.5517,5.9942,3.1621,11.8386,4.831,17.5332,1.669,5.6963,3.339,10.9177,5.01,15.6641,1.7822-5.457,3.5361-11.0937,5.2617-16.91,1.7246-5.8125,3.36-11.6269,4.9063-17.4433,1.5459-5.8133,3.0032-11.4797,4.372-16.999,1.3688-5.5193,2.5879-10.7111,3.6573-15.5752h16.5537c1.0654,4.8671,2.2493,10.0589,3.5517,15.5752,1.3018,5.5175,2.6924,11.1839,4.1719,16.999,1.4795,5.8151,3.0778,11.6296,4.7949,17.4433,1.7159,5.8155,3.4625,11.4522,5.24,16.91,1.5488-4.7451,3.1582-9.9664,4.8281-15.6641,1.6689-5.6963,3.3089-11.5407,4.92-17.5332,1.6104-5.9902,3.1309-11.8642,4.5615-17.622,1.4297-5.7539,2.682-11.1234,3.7569-16.1084h22.2558c-2.497,9.1386-5.053,18.0979-7.6679,26.8779-2.6143,8.7832-5.2295,17.1491-7.8457,25.0976-2.6172,7.9522-5.2334,15.4281-7.8487,22.4278-2.6142,7.0039-5.1692,13.2339-7.665,18.69h-17.5079c-3.0822-8.78-6.2531-18.125-9.5127-28.0351-3.2588-9.9063-6.2504-20.0818-8.9746-30.5264Z"/>
</svg>